<svg xmlns="http://www.w3.org/2000/svg" xmlns:xlink="http://www.w3.org/1999/xlink" width="600" height="400" viewBox="0 0 2400 1600">
<defs>
  <clipPath id="clip830">
    <rect x="0" y="0" width="2400" height="1600"></rect>
  </clipPath>
</defs>
<path clip-path="url(#clip830)" d="M0 1600 L2400 1600 L2400 8.88178e-14 L0 8.88178e-14  Z" fill="#ffffff" fill-rule="evenodd" fill-opacity="1"></path>
<defs>
  <clipPath id="clip831">
    <rect x="480" y="0" width="1681" height="1600"></rect>
  </clipPath>
</defs>
<path clip-path="url(#clip830)" d="M202.227 1423.18 L2352.76 1423.18 L2352.76 123.472 L202.227 123.472  Z" fill="#ffffff" fill-rule="evenodd" fill-opacity="1"></path>
<defs>
  <clipPath id="clip832">
    <rect x="202" y="123" width="2152" height="1301"></rect>
  </clipPath>
</defs>
<polyline clip-path="url(#clip832)" style="stroke:#000000; stroke-linecap:round; stroke-linejoin:round; stroke-width:2; stroke-opacity:0.1; fill:none" points="430.275,1423.18 430.275,123.472 "></polyline>
<polyline clip-path="url(#clip832)" style="stroke:#000000; stroke-linecap:round; stroke-linejoin:round; stroke-width:2; stroke-opacity:0.1; fill:none" points="995.086,1423.18 995.086,123.472 "></polyline>
<polyline clip-path="url(#clip832)" style="stroke:#000000; stroke-linecap:round; stroke-linejoin:round; stroke-width:2; stroke-opacity:0.1; fill:none" points="1559.9,1423.18 1559.9,123.472 "></polyline>
<polyline clip-path="url(#clip832)" style="stroke:#000000; stroke-linecap:round; stroke-linejoin:round; stroke-width:2; stroke-opacity:0.1; fill:none" points="2124.71,1423.18 2124.71,123.472 "></polyline>
<polyline clip-path="url(#clip832)" style="stroke:#000000; stroke-linecap:round; stroke-linejoin:round; stroke-width:2; stroke-opacity:0.1; fill:none" points="202.227,1423.18 2352.76,1423.18 "></polyline>
<polyline clip-path="url(#clip832)" style="stroke:#000000; stroke-linecap:round; stroke-linejoin:round; stroke-width:2; stroke-opacity:0.1; fill:none" points="202.227,1056.68 2352.76,1056.68 "></polyline>
<polyline clip-path="url(#clip832)" style="stroke:#000000; stroke-linecap:round; stroke-linejoin:round; stroke-width:2; stroke-opacity:0.1; fill:none" points="202.227,690.172 2352.76,690.172 "></polyline>
<polyline clip-path="url(#clip832)" style="stroke:#000000; stroke-linecap:round; stroke-linejoin:round; stroke-width:2; stroke-opacity:0.1; fill:none" points="202.227,323.668 2352.76,323.668 "></polyline>
<polyline clip-path="url(#clip830)" style="stroke:#000000; stroke-linecap:round; stroke-linejoin:round; stroke-width:4; stroke-opacity:1; fill:none" points="202.227,1423.18 2352.76,1423.18 "></polyline>
<polyline clip-path="url(#clip830)" style="stroke:#000000; stroke-linecap:round; stroke-linejoin:round; stroke-width:4; stroke-opacity:1; fill:none" points="430.275,1423.18 430.275,1404.28 "></polyline>
<polyline clip-path="url(#clip830)" style="stroke:#000000; stroke-linecap:round; stroke-linejoin:round; stroke-width:4; stroke-opacity:1; fill:none" points="995.086,1423.18 995.086,1404.28 "></polyline>
<polyline clip-path="url(#clip830)" style="stroke:#000000; stroke-linecap:round; stroke-linejoin:round; stroke-width:4; stroke-opacity:1; fill:none" points="1559.9,1423.18 1559.9,1404.28 "></polyline>
<polyline clip-path="url(#clip830)" style="stroke:#000000; stroke-linecap:round; stroke-linejoin:round; stroke-width:4; stroke-opacity:1; fill:none" points="2124.71,1423.18 2124.71,1404.28 "></polyline>
<path clip-path="url(#clip830)" d="M342.95 1454.86 L342.95 1467.85 L348.829 1467.85 Q352.093 1467.85 353.875 1466.16 Q355.658 1464.47 355.658 1461.34 Q355.658 1458.24 353.875 1456.55 Q352.093 1454.86 348.829 1454.86 L342.95 1454.86 M338.274 1451.02 L348.829 1451.02 Q354.639 1451.02 357.602 1453.66 Q360.588 1456.27 360.588 1461.34 Q360.588 1466.46 357.602 1469.08 Q354.639 1471.69 348.829 1471.69 L342.95 1471.69 L342.95 1485.58 L338.274 1485.58 L338.274 1451.02 Z" fill="#000000" fill-rule="nonzero" fill-opacity="1"></path><path clip-path="url(#clip830)" d="M388.227 1469.93 L388.227 1485.58 L383.968 1485.58 L383.968 1470.07 Q383.968 1466.39 382.533 1464.56 Q381.098 1462.73 378.227 1462.73 Q374.778 1462.73 372.787 1464.93 Q370.797 1467.13 370.797 1470.93 L370.797 1485.58 L366.514 1485.58 L366.514 1449.56 L370.797 1449.56 L370.797 1463.68 Q372.324 1461.34 374.385 1460.19 Q376.468 1459.03 379.176 1459.03 Q383.644 1459.03 385.935 1461.81 Q388.227 1464.56 388.227 1469.93 Z" fill="#000000" fill-rule="nonzero" fill-opacity="1"></path><path clip-path="url(#clip830)" d="M408.505 1472.55 Q403.343 1472.55 401.352 1473.73 Q399.361 1474.91 399.361 1477.76 Q399.361 1480.02 400.843 1481.37 Q402.347 1482.69 404.917 1482.69 Q408.458 1482.69 410.588 1480.19 Q412.741 1477.66 412.741 1473.5 L412.741 1472.55 L408.505 1472.55 M417 1470.79 L417 1485.58 L412.741 1485.58 L412.741 1481.64 Q411.283 1484.01 409.107 1485.14 Q406.931 1486.25 403.783 1486.25 Q399.801 1486.25 397.44 1484.03 Q395.102 1481.78 395.102 1478.03 Q395.102 1473.66 398.019 1471.44 Q400.959 1469.21 406.769 1469.21 L412.741 1469.21 L412.741 1468.8 Q412.741 1465.86 410.796 1464.26 Q408.875 1462.64 405.38 1462.64 Q403.158 1462.64 401.051 1463.17 Q398.945 1463.7 397 1464.77 L397 1460.83 Q399.338 1459.93 401.537 1459.49 Q403.736 1459.03 405.82 1459.03 Q411.445 1459.03 414.222 1461.95 Q417 1464.86 417 1470.79 Z" fill="#000000" fill-rule="nonzero" fill-opacity="1"></path><path clip-path="url(#clip830)" d="M442.301 1460.42 L442.301 1464.45 Q440.495 1463.52 438.551 1463.06 Q436.606 1462.59 434.523 1462.59 Q431.352 1462.59 429.755 1463.57 Q428.181 1464.54 428.181 1466.48 Q428.181 1467.96 429.315 1468.82 Q430.449 1469.65 433.875 1470.42 L435.333 1470.74 Q439.87 1471.71 441.768 1473.5 Q443.69 1475.26 443.69 1478.43 Q443.69 1482.04 440.819 1484.14 Q437.972 1486.25 432.972 1486.25 Q430.889 1486.25 428.62 1485.83 Q426.375 1485.44 423.875 1484.63 L423.875 1480.23 Q426.236 1481.46 428.528 1482.08 Q430.819 1482.69 433.065 1482.69 Q436.074 1482.69 437.694 1481.67 Q439.315 1480.63 439.315 1478.75 Q439.315 1477.02 438.134 1476.09 Q436.977 1475.16 433.019 1474.31 L431.537 1473.96 Q427.579 1473.13 425.819 1471.41 Q424.06 1469.68 424.06 1466.67 Q424.06 1463.01 426.653 1461.02 Q429.245 1459.03 434.014 1459.03 Q436.375 1459.03 438.458 1459.38 Q440.542 1459.72 442.301 1460.42 Z" fill="#000000" fill-rule="nonzero" fill-opacity="1"></path><path clip-path="url(#clip830)" d="M472.648 1471.55 L472.648 1473.64 L453.065 1473.64 Q453.342 1478.03 455.704 1480.35 Q458.088 1482.64 462.324 1482.64 Q464.778 1482.64 467.069 1482.04 Q469.384 1481.44 471.653 1480.23 L471.653 1484.26 Q469.361 1485.23 466.954 1485.74 Q464.546 1486.25 462.069 1486.25 Q455.866 1486.25 452.231 1482.64 Q448.62 1479.03 448.62 1472.87 Q448.62 1466.51 452.046 1462.78 Q455.495 1459.03 461.329 1459.03 Q466.56 1459.03 469.592 1462.41 Q472.648 1465.77 472.648 1471.55 M468.389 1470.3 Q468.342 1466.81 466.421 1464.72 Q464.523 1462.64 461.375 1462.64 Q457.81 1462.64 455.657 1464.65 Q453.528 1466.67 453.204 1470.33 L468.389 1470.3 Z" fill="#000000" fill-rule="nonzero" fill-opacity="1"></path><path clip-path="url(#clip830)" d="M506.444 1455.63 L500.101 1472.83 L512.81 1472.83 L506.444 1455.63 M503.805 1451.02 L509.106 1451.02 L522.277 1485.58 L517.416 1485.58 L514.268 1476.71 L498.689 1476.71 L495.541 1485.58 L490.611 1485.58 L503.805 1451.02 Z" fill="#000000" fill-rule="nonzero" fill-opacity="1"></path><path clip-path="url(#clip830)" d="M909.196 1454.86 L909.196 1467.85 L915.075 1467.85 Q918.339 1467.85 920.121 1466.16 Q921.904 1464.47 921.904 1461.34 Q921.904 1458.24 920.121 1456.55 Q918.339 1454.86 915.075 1454.86 L909.196 1454.86 M904.52 1451.02 L915.075 1451.02 Q920.885 1451.02 923.848 1453.66 Q926.834 1456.27 926.834 1461.34 Q926.834 1466.46 923.848 1469.08 Q920.885 1471.69 915.075 1471.69 L909.196 1471.69 L909.196 1485.58 L904.52 1485.58 L904.52 1451.02 Z" fill="#000000" fill-rule="nonzero" fill-opacity="1"></path><path clip-path="url(#clip830)" d="M954.473 1469.93 L954.473 1485.58 L950.214 1485.58 L950.214 1470.07 Q950.214 1466.39 948.779 1464.56 Q947.343 1462.73 944.473 1462.73 Q941.024 1462.73 939.033 1464.93 Q937.043 1467.13 937.043 1470.93 L937.043 1485.58 L932.76 1485.58 L932.76 1449.56 L937.043 1449.56 L937.043 1463.68 Q938.57 1461.34 940.631 1460.19 Q942.714 1459.03 945.422 1459.03 Q949.89 1459.03 952.181 1461.81 Q954.473 1464.56 954.473 1469.93 Z" fill="#000000" fill-rule="nonzero" fill-opacity="1"></path><path clip-path="url(#clip830)" d="M974.751 1472.55 Q969.589 1472.55 967.598 1473.73 Q965.607 1474.91 965.607 1477.76 Q965.607 1480.02 967.089 1481.37 Q968.593 1482.69 971.163 1482.69 Q974.704 1482.69 976.834 1480.19 Q978.987 1477.66 978.987 1473.5 L978.987 1472.55 L974.751 1472.55 M983.246 1470.79 L983.246 1485.58 L978.987 1485.58 L978.987 1481.64 Q977.529 1484.01 975.353 1485.14 Q973.177 1486.25 970.029 1486.25 Q966.047 1486.25 963.686 1484.03 Q961.348 1481.78 961.348 1478.03 Q961.348 1473.66 964.265 1471.44 Q967.204 1469.21 973.015 1469.21 L978.987 1469.21 L978.987 1468.8 Q978.987 1465.86 977.042 1464.26 Q975.121 1462.64 971.626 1462.64 Q969.404 1462.64 967.297 1463.17 Q965.191 1463.7 963.246 1464.77 L963.246 1460.83 Q965.584 1459.93 967.783 1459.49 Q969.982 1459.03 972.066 1459.03 Q977.691 1459.03 980.468 1461.95 Q983.246 1464.86 983.246 1470.79 Z" fill="#000000" fill-rule="nonzero" fill-opacity="1"></path><path clip-path="url(#clip830)" d="M1008.55 1460.42 L1008.55 1464.45 Q1006.74 1463.52 1004.8 1463.06 Q1002.85 1462.59 1000.77 1462.59 Q997.598 1462.59 996.001 1463.57 Q994.427 1464.54 994.427 1466.48 Q994.427 1467.96 995.561 1468.82 Q996.695 1469.65 1000.12 1470.42 L1001.58 1470.74 Q1006.12 1471.71 1008.01 1473.5 Q1009.94 1475.26 1009.94 1478.43 Q1009.94 1482.04 1007.07 1484.14 Q1004.22 1486.25 999.218 1486.25 Q997.135 1486.25 994.866 1485.83 Q992.621 1485.44 990.121 1484.63 L990.121 1480.23 Q992.482 1481.46 994.774 1482.08 Q997.065 1482.69 999.311 1482.69 Q1002.32 1482.69 1003.94 1481.67 Q1005.56 1480.63 1005.56 1478.75 Q1005.56 1477.02 1004.38 1476.09 Q1003.22 1475.16 999.265 1474.31 L997.783 1473.96 Q993.825 1473.13 992.065 1471.41 Q990.306 1469.68 990.306 1466.67 Q990.306 1463.01 992.899 1461.02 Q995.491 1459.03 1000.26 1459.03 Q1002.62 1459.03 1004.7 1459.38 Q1006.79 1459.72 1008.55 1460.42 Z" fill="#000000" fill-rule="nonzero" fill-opacity="1"></path><path clip-path="url(#clip830)" d="M1038.89 1471.55 L1038.89 1473.64 L1019.31 1473.64 Q1019.59 1478.03 1021.95 1480.35 Q1024.33 1482.64 1028.57 1482.64 Q1031.02 1482.64 1033.32 1482.04 Q1035.63 1481.44 1037.9 1480.23 L1037.9 1484.26 Q1035.61 1485.23 1033.2 1485.74 Q1030.79 1486.25 1028.32 1486.25 Q1022.11 1486.25 1018.48 1482.64 Q1014.87 1479.03 1014.87 1472.87 Q1014.87 1466.51 1018.29 1462.78 Q1021.74 1459.03 1027.57 1459.03 Q1032.81 1459.03 1035.84 1462.41 Q1038.89 1465.77 1038.89 1471.55 M1034.63 1470.3 Q1034.59 1466.81 1032.67 1464.72 Q1030.77 1462.64 1027.62 1462.64 Q1024.06 1462.64 1021.9 1464.65 Q1019.77 1466.67 1019.45 1470.33 L1034.63 1470.3 Z" fill="#000000" fill-rule="nonzero" fill-opacity="1"></path><path clip-path="url(#clip830)" d="M1065.82 1469.08 L1065.82 1481.74 L1073.32 1481.74 Q1077.09 1481.74 1078.89 1480.19 Q1080.72 1478.61 1080.72 1475.39 Q1080.72 1472.15 1078.89 1470.63 Q1077.09 1469.08 1073.32 1469.08 L1065.82 1469.08 M1065.82 1454.86 L1065.82 1465.28 L1072.74 1465.28 Q1076.16 1465.28 1077.83 1464.01 Q1079.52 1462.71 1079.52 1460.07 Q1079.52 1457.45 1077.83 1456.16 Q1076.16 1454.86 1072.74 1454.86 L1065.82 1454.86 M1061.14 1451.02 L1073.08 1451.02 Q1078.43 1451.02 1081.32 1453.24 Q1084.22 1455.46 1084.22 1459.56 Q1084.22 1462.73 1082.74 1464.61 Q1081.25 1466.48 1078.38 1466.95 Q1081.83 1467.69 1083.73 1470.05 Q1085.65 1472.39 1085.65 1475.9 Q1085.65 1480.53 1082.5 1483.06 Q1079.36 1485.58 1073.55 1485.58 L1061.14 1485.58 L1061.14 1451.02 Z" fill="#000000" fill-rule="nonzero" fill-opacity="1"></path><path clip-path="url(#clip830)" d="M1473.32 1454.86 L1473.32 1467.85 L1479.2 1467.85 Q1482.47 1467.85 1484.25 1466.16 Q1486.03 1464.47 1486.03 1461.34 Q1486.03 1458.24 1484.25 1456.55 Q1482.47 1454.86 1479.2 1454.86 L1473.32 1454.86 M1468.65 1451.02 L1479.2 1451.02 Q1485.01 1451.02 1487.98 1453.66 Q1490.96 1456.27 1490.96 1461.34 Q1490.96 1466.46 1487.98 1469.08 Q1485.01 1471.69 1479.2 1471.69 L1473.32 1471.69 L1473.32 1485.58 L1468.65 1485.58 L1468.65 1451.02 Z" fill="#000000" fill-rule="nonzero" fill-opacity="1"></path><path clip-path="url(#clip830)" d="M1518.6 1469.93 L1518.6 1485.58 L1514.34 1485.58 L1514.34 1470.07 Q1514.34 1466.39 1512.91 1464.56 Q1511.47 1462.73 1508.6 1462.73 Q1505.15 1462.73 1503.16 1464.93 Q1501.17 1467.13 1501.17 1470.93 L1501.17 1485.58 L1496.89 1485.58 L1496.89 1449.56 L1501.17 1449.56 L1501.17 1463.68 Q1502.7 1461.34 1504.76 1460.19 Q1506.84 1459.03 1509.55 1459.03 Q1514.02 1459.03 1516.31 1461.81 Q1518.6 1464.56 1518.6 1469.93 Z" fill="#000000" fill-rule="nonzero" fill-opacity="1"></path><path clip-path="url(#clip830)" d="M1538.88 1472.55 Q1533.72 1472.55 1531.73 1473.73 Q1529.74 1474.91 1529.74 1477.76 Q1529.74 1480.02 1531.22 1481.37 Q1532.72 1482.69 1535.29 1482.69 Q1538.83 1482.69 1540.96 1480.19 Q1543.11 1477.66 1543.11 1473.5 L1543.11 1472.55 L1538.88 1472.55 M1547.37 1470.79 L1547.37 1485.58 L1543.11 1485.58 L1543.11 1481.64 Q1541.66 1484.01 1539.48 1485.14 Q1537.3 1486.25 1534.16 1486.25 Q1530.18 1486.25 1527.81 1484.03 Q1525.48 1481.78 1525.48 1478.03 Q1525.48 1473.66 1528.39 1471.44 Q1531.33 1469.21 1537.14 1469.21 L1543.11 1469.21 L1543.11 1468.8 Q1543.11 1465.86 1541.17 1464.26 Q1539.25 1462.64 1535.75 1462.64 Q1533.53 1462.64 1531.43 1463.17 Q1529.32 1463.7 1527.37 1464.77 L1527.37 1460.83 Q1529.71 1459.93 1531.91 1459.49 Q1534.11 1459.03 1536.19 1459.03 Q1541.82 1459.03 1544.6 1461.95 Q1547.37 1464.86 1547.37 1470.79 Z" fill="#000000" fill-rule="nonzero" fill-opacity="1"></path><path clip-path="url(#clip830)" d="M1572.67 1460.42 L1572.67 1464.45 Q1570.87 1463.52 1568.92 1463.06 Q1566.98 1462.59 1564.9 1462.59 Q1561.73 1462.59 1560.13 1463.57 Q1558.55 1464.54 1558.55 1466.48 Q1558.55 1467.96 1559.69 1468.82 Q1560.82 1469.65 1564.25 1470.42 L1565.71 1470.74 Q1570.24 1471.71 1572.14 1473.5 Q1574.06 1475.26 1574.06 1478.43 Q1574.06 1482.04 1571.19 1484.14 Q1568.35 1486.25 1563.35 1486.25 Q1561.26 1486.25 1558.99 1485.83 Q1556.75 1485.44 1554.25 1484.63 L1554.25 1480.23 Q1556.61 1481.46 1558.9 1482.08 Q1561.19 1482.69 1563.44 1482.69 Q1566.45 1482.69 1568.07 1481.67 Q1569.69 1480.63 1569.69 1478.75 Q1569.69 1477.02 1568.51 1476.09 Q1567.35 1475.16 1563.39 1474.31 L1561.91 1473.96 Q1557.95 1473.13 1556.19 1471.41 Q1554.43 1469.68 1554.43 1466.67 Q1554.43 1463.01 1557.03 1461.02 Q1559.62 1459.03 1564.39 1459.03 Q1566.75 1459.03 1568.83 1459.38 Q1570.92 1459.72 1572.67 1460.42 Z" fill="#000000" fill-rule="nonzero" fill-opacity="1"></path><path clip-path="url(#clip830)" d="M1603.02 1471.55 L1603.02 1473.64 L1583.44 1473.64 Q1583.72 1478.03 1586.08 1480.35 Q1588.46 1482.64 1592.7 1482.64 Q1595.15 1482.64 1597.44 1482.04 Q1599.76 1481.44 1602.03 1480.23 L1602.03 1484.26 Q1599.73 1485.23 1597.33 1485.74 Q1594.92 1486.25 1592.44 1486.25 Q1586.24 1486.25 1582.61 1482.64 Q1578.99 1479.03 1578.99 1472.87 Q1578.99 1466.51 1582.42 1462.78 Q1585.87 1459.03 1591.7 1459.03 Q1596.93 1459.03 1599.97 1462.41 Q1603.02 1465.77 1603.02 1471.55 M1598.76 1470.3 Q1598.72 1466.81 1596.8 1464.72 Q1594.9 1462.64 1591.75 1462.64 Q1588.18 1462.64 1586.03 1464.65 Q1583.9 1466.67 1583.58 1470.33 L1598.76 1470.3 Z" fill="#000000" fill-rule="nonzero" fill-opacity="1"></path><path clip-path="url(#clip830)" d="M1651.15 1453.68 L1651.15 1458.61 Q1648.79 1456.41 1646.1 1455.33 Q1643.44 1454.24 1640.43 1454.24 Q1634.5 1454.24 1631.36 1457.87 Q1628.21 1461.48 1628.21 1468.33 Q1628.21 1475.16 1631.36 1478.8 Q1634.5 1482.41 1640.43 1482.41 Q1643.44 1482.41 1646.1 1481.32 Q1648.79 1480.23 1651.15 1478.03 L1651.15 1482.92 Q1648.69 1484.58 1645.94 1485.42 Q1643.21 1486.25 1640.15 1486.25 Q1632.3 1486.25 1627.79 1481.46 Q1623.28 1476.64 1623.28 1468.33 Q1623.28 1460 1627.79 1455.21 Q1632.3 1450.39 1640.15 1450.39 Q1643.25 1450.39 1645.98 1451.23 Q1648.74 1452.04 1651.15 1453.68 Z" fill="#000000" fill-rule="nonzero" fill-opacity="1"></path><path clip-path="url(#clip830)" d="M2041.77 1451.02 L2048.06 1451.02 L2063.39 1479.93 L2063.39 1451.02 L2067.93 1451.02 L2067.93 1485.58 L2061.63 1485.58 L2046.31 1456.67 L2046.31 1485.58 L2041.77 1485.58 L2041.77 1451.02 Z" fill="#000000" fill-rule="nonzero" fill-opacity="1"></path><path clip-path="url(#clip830)" d="M2099.22 1471.55 L2099.22 1473.64 L2079.64 1473.64 Q2079.92 1478.03 2082.28 1480.35 Q2084.66 1482.64 2088.9 1482.64 Q2091.35 1482.64 2093.64 1482.04 Q2095.96 1481.44 2098.23 1480.23 L2098.23 1484.26 Q2095.93 1485.23 2093.53 1485.74 Q2091.12 1486.25 2088.64 1486.25 Q2082.44 1486.25 2078.81 1482.64 Q2075.19 1479.03 2075.19 1472.87 Q2075.19 1466.51 2078.62 1462.78 Q2082.07 1459.03 2087.9 1459.03 Q2093.13 1459.03 2096.17 1462.41 Q2099.22 1465.77 2099.22 1471.55 M2094.96 1470.3 Q2094.92 1466.81 2093 1464.72 Q2091.1 1462.64 2087.95 1462.64 Q2084.38 1462.64 2082.23 1464.65 Q2080.1 1466.67 2079.78 1470.33 L2094.96 1470.3 Z" fill="#000000" fill-rule="nonzero" fill-opacity="1"></path><path clip-path="url(#clip830)" d="M2105.77 1475.35 L2105.77 1459.65 L2110.03 1459.65 L2110.03 1475.19 Q2110.03 1478.87 2111.47 1480.72 Q2112.9 1482.55 2115.77 1482.55 Q2119.22 1482.55 2121.21 1480.35 Q2123.23 1478.15 2123.23 1474.35 L2123.23 1459.65 L2127.49 1459.65 L2127.49 1485.58 L2123.23 1485.58 L2123.23 1481.6 Q2121.68 1483.96 2119.62 1485.12 Q2117.58 1486.25 2114.87 1486.25 Q2110.4 1486.25 2108.09 1483.47 Q2105.77 1480.7 2105.77 1475.35 M2116.49 1459.03 L2116.49 1459.03 Z" fill="#000000" fill-rule="nonzero" fill-opacity="1"></path><path clip-path="url(#clip830)" d="M2140.47 1452.29 L2140.47 1459.65 L2149.24 1459.65 L2149.24 1462.96 L2140.47 1462.96 L2140.47 1477.04 Q2140.47 1480.21 2141.33 1481.11 Q2142.21 1482.02 2144.87 1482.02 L2149.24 1482.02 L2149.24 1485.58 L2144.87 1485.58 Q2139.94 1485.58 2138.06 1483.75 Q2136.19 1481.9 2136.19 1477.04 L2136.19 1462.96 L2133.06 1462.96 L2133.06 1459.65 L2136.19 1459.65 L2136.19 1452.29 L2140.47 1452.29 Z" fill="#000000" fill-rule="nonzero" fill-opacity="1"></path><path clip-path="url(#clip830)" d="M2169.87 1463.64 Q2169.15 1463.22 2168.3 1463.03 Q2167.46 1462.83 2166.44 1462.83 Q2162.83 1462.83 2160.89 1465.19 Q2158.97 1467.52 2158.97 1471.92 L2158.97 1485.58 L2154.68 1485.58 L2154.68 1459.65 L2158.97 1459.65 L2158.97 1463.68 Q2160.31 1461.32 2162.46 1460.19 Q2164.62 1459.03 2167.69 1459.03 Q2168.13 1459.03 2168.67 1459.1 Q2169.2 1459.14 2169.85 1459.26 L2169.87 1463.64 Z" fill="#000000" fill-rule="nonzero" fill-opacity="1"></path><path clip-path="url(#clip830)" d="M2186.12 1472.55 Q2180.96 1472.55 2178.97 1473.73 Q2176.98 1474.91 2176.98 1477.76 Q2176.98 1480.02 2178.46 1481.37 Q2179.96 1482.69 2182.53 1482.69 Q2186.07 1482.69 2188.2 1480.19 Q2190.36 1477.66 2190.36 1473.5 L2190.36 1472.55 L2186.12 1472.55 M2194.61 1470.79 L2194.61 1485.58 L2190.36 1485.58 L2190.36 1481.64 Q2188.9 1484.01 2186.72 1485.14 Q2184.55 1486.25 2181.4 1486.25 Q2177.42 1486.25 2175.05 1484.03 Q2172.72 1481.78 2172.72 1478.03 Q2172.72 1473.66 2175.63 1471.44 Q2178.57 1469.21 2184.38 1469.21 L2190.36 1469.21 L2190.36 1468.8 Q2190.36 1465.86 2188.41 1464.26 Q2186.49 1462.64 2182.99 1462.64 Q2180.77 1462.64 2178.67 1463.17 Q2176.56 1463.7 2174.62 1464.77 L2174.62 1460.83 Q2176.95 1459.93 2179.15 1459.49 Q2181.35 1459.03 2183.43 1459.03 Q2189.06 1459.03 2191.84 1461.95 Q2194.61 1464.86 2194.61 1470.79 Z" fill="#000000" fill-rule="nonzero" fill-opacity="1"></path><path clip-path="url(#clip830)" d="M2203.39 1449.56 L2207.65 1449.56 L2207.65 1485.58 L2203.39 1485.58 L2203.39 1449.56 Z" fill="#000000" fill-rule="nonzero" fill-opacity="1"></path><path clip-path="url(#clip830)" d="M1191.54 1525.81 L1191.54 1543.66 L1199.62 1543.66 Q1204.11 1543.66 1206.56 1541.34 Q1209.01 1539.02 1209.01 1534.72 Q1209.01 1530.45 1206.56 1528.13 Q1204.11 1525.81 1199.62 1525.81 L1191.54 1525.81 M1185.11 1520.52 L1199.62 1520.52 Q1207.61 1520.52 1211.69 1524.15 Q1215.79 1527.75 1215.79 1534.72 Q1215.79 1541.75 1211.69 1545.35 Q1207.61 1548.95 1199.62 1548.95 L1191.54 1548.95 L1191.54 1568.04 L1185.11 1568.04 L1185.11 1520.52 Z" fill="#000000" fill-rule="nonzero" fill-opacity="1"></path><path clip-path="url(#clip830)" d="M1253.8 1546.53 L1253.8 1568.04 L1247.94 1568.04 L1247.94 1546.72 Q1247.94 1541.66 1245.97 1539.14 Q1243.99 1536.63 1240.05 1536.63 Q1235.3 1536.63 1232.57 1539.65 Q1229.83 1542.68 1229.83 1547.9 L1229.83 1568.04 L1223.94 1568.04 L1223.94 1518.52 L1229.83 1518.52 L1229.83 1537.93 Q1231.93 1534.72 1234.76 1533.13 Q1237.63 1531.54 1241.35 1531.54 Q1247.49 1531.54 1250.64 1535.36 Q1253.8 1539.14 1253.8 1546.53 Z" fill="#000000" fill-rule="nonzero" fill-opacity="1"></path><path clip-path="url(#clip830)" d="M1281.68 1550.12 Q1274.58 1550.12 1271.84 1551.75 Q1269.1 1553.37 1269.1 1557.29 Q1269.1 1560.4 1271.14 1562.25 Q1273.21 1564.07 1276.74 1564.07 Q1281.61 1564.07 1284.54 1560.63 Q1287.5 1557.16 1287.5 1551.43 L1287.5 1550.12 L1281.68 1550.12 M1293.36 1547.71 L1293.36 1568.04 L1287.5 1568.04 L1287.5 1562.63 Q1285.5 1565.88 1282.5 1567.44 Q1279.51 1568.97 1275.18 1568.97 Q1269.71 1568.97 1266.46 1565.91 Q1263.25 1562.82 1263.25 1557.67 Q1263.25 1551.65 1267.26 1548.6 Q1271.3 1545.54 1279.29 1545.54 L1287.5 1545.54 L1287.5 1544.97 Q1287.5 1540.93 1284.83 1538.73 Q1282.19 1536.5 1277.38 1536.5 Q1274.32 1536.5 1271.43 1537.23 Q1268.53 1537.97 1265.86 1539.43 L1265.86 1534.02 Q1269.07 1532.78 1272.1 1532.17 Q1275.12 1531.54 1277.99 1531.54 Q1285.72 1531.54 1289.54 1535.55 Q1293.36 1539.56 1293.36 1547.71 Z" fill="#000000" fill-rule="nonzero" fill-opacity="1"></path><path clip-path="url(#clip830)" d="M1328.15 1533.45 L1328.15 1538.98 Q1325.66 1537.71 1322.99 1537.07 Q1320.32 1536.44 1317.45 1536.44 Q1313.09 1536.44 1310.9 1537.77 Q1308.73 1539.11 1308.73 1541.79 Q1308.73 1543.82 1310.29 1545 Q1311.85 1546.15 1316.56 1547.2 L1318.57 1547.64 Q1324.8 1548.98 1327.41 1551.43 Q1330.06 1553.85 1330.06 1558.21 Q1330.06 1563.17 1326.11 1566.07 Q1322.19 1568.97 1315.32 1568.97 Q1312.46 1568.97 1309.34 1568.39 Q1306.25 1567.85 1302.81 1566.74 L1302.81 1560.69 Q1306.06 1562.38 1309.21 1563.24 Q1312.36 1564.07 1315.45 1564.07 Q1319.58 1564.07 1321.81 1562.66 Q1324.04 1561.23 1324.04 1558.65 Q1324.04 1556.27 1322.42 1554.99 Q1320.83 1553.72 1315.38 1552.54 L1313.35 1552.07 Q1307.9 1550.92 1305.48 1548.56 Q1303.07 1546.18 1303.07 1542.04 Q1303.07 1537.01 1306.63 1534.27 Q1310.2 1531.54 1316.75 1531.54 Q1320 1531.54 1322.86 1532.01 Q1325.73 1532.49 1328.15 1533.45 Z" fill="#000000" fill-rule="nonzero" fill-opacity="1"></path><path clip-path="url(#clip830)" d="M1369.87 1548.76 L1369.87 1551.62 L1342.95 1551.62 Q1343.33 1557.67 1346.58 1560.85 Q1349.85 1564 1355.68 1564 Q1359.05 1564 1362.2 1563.17 Q1365.39 1562.35 1368.51 1560.69 L1368.51 1566.23 Q1365.35 1567.57 1362.04 1568.27 Q1358.73 1568.97 1355.33 1568.97 Q1346.8 1568.97 1341.8 1564 Q1336.84 1559.04 1336.84 1550.57 Q1336.84 1541.82 1341.55 1536.69 Q1346.29 1531.54 1354.31 1531.54 Q1361.5 1531.54 1365.67 1536.18 Q1369.87 1540.8 1369.87 1548.76 M1364.02 1547.04 Q1363.95 1542.23 1361.31 1539.37 Q1358.7 1536.5 1354.37 1536.5 Q1349.47 1536.5 1346.51 1539.27 Q1343.58 1542.04 1343.14 1547.07 L1364.02 1547.04 Z" fill="#000000" fill-rule="nonzero" fill-opacity="1"></path><polyline clip-path="url(#clip830)" style="stroke:#000000; stroke-linecap:round; stroke-linejoin:round; stroke-width:4; stroke-opacity:1; fill:none" points="202.227,1423.18 202.227,123.472 "></polyline>
<polyline clip-path="url(#clip830)" style="stroke:#000000; stroke-linecap:round; stroke-linejoin:round; stroke-width:4; stroke-opacity:1; fill:none" points="202.227,1423.18 221.125,1423.18 "></polyline>
<polyline clip-path="url(#clip830)" style="stroke:#000000; stroke-linecap:round; stroke-linejoin:round; stroke-width:4; stroke-opacity:1; fill:none" points="202.227,1056.68 221.125,1056.68 "></polyline>
<polyline clip-path="url(#clip830)" style="stroke:#000000; stroke-linecap:round; stroke-linejoin:round; stroke-width:4; stroke-opacity:1; fill:none" points="202.227,690.172 221.125,690.172 "></polyline>
<polyline clip-path="url(#clip830)" style="stroke:#000000; stroke-linecap:round; stroke-linejoin:round; stroke-width:4; stroke-opacity:1; fill:none" points="202.227,323.668 221.125,323.668 "></polyline>
<path clip-path="url(#clip830)" d="M154.283 1408.98 Q150.672 1408.98 148.843 1412.54 Q147.038 1416.08 147.038 1423.21 Q147.038 1430.32 148.843 1433.89 Q150.672 1437.43 154.283 1437.43 Q157.917 1437.43 159.723 1433.89 Q161.552 1430.32 161.552 1423.21 Q161.552 1416.08 159.723 1412.54 Q157.917 1408.98 154.283 1408.98 M154.283 1405.27 Q160.093 1405.27 163.149 1409.88 Q166.227 1414.46 166.227 1423.21 Q166.227 1431.94 163.149 1436.55 Q160.093 1441.13 154.283 1441.13 Q148.473 1441.13 145.394 1436.55 Q142.339 1431.94 142.339 1423.21 Q142.339 1414.46 145.394 1409.88 Q148.473 1405.27 154.283 1405.27 Z" fill="#000000" fill-rule="nonzero" fill-opacity="1"></path><path clip-path="url(#clip830)" d="M145.325 1039.4 L163.681 1039.4 L163.681 1043.33 L149.607 1043.33 L149.607 1051.8 Q150.626 1051.46 151.644 1051.29 Q152.663 1051.11 153.681 1051.11 Q159.468 1051.11 162.848 1054.28 Q166.227 1057.45 166.227 1062.87 Q166.227 1068.45 162.755 1071.55 Q159.283 1074.63 152.964 1074.63 Q150.788 1074.63 148.519 1074.26 Q146.274 1073.89 143.866 1073.15 L143.866 1068.45 Q145.95 1069.58 148.172 1070.14 Q150.394 1070.69 152.871 1070.69 Q156.876 1070.69 159.214 1068.59 Q161.552 1066.48 161.552 1062.87 Q161.552 1059.26 159.214 1057.15 Q156.876 1055.04 152.871 1055.04 Q150.996 1055.04 149.121 1055.46 Q147.269 1055.88 145.325 1056.76 L145.325 1039.4 Z" fill="#000000" fill-rule="nonzero" fill-opacity="1"></path><path clip-path="url(#clip830)" d="M114.931 703.517 L122.57 703.517 L122.57 677.151 L114.26 678.818 L114.26 674.559 L122.524 672.892 L127.2 672.892 L127.2 703.517 L134.839 703.517 L134.839 707.452 L114.931 707.452 L114.931 703.517 Z" fill="#000000" fill-rule="nonzero" fill-opacity="1"></path><path clip-path="url(#clip830)" d="M154.283 675.971 Q150.672 675.971 148.843 679.536 Q147.038 683.077 147.038 690.207 Q147.038 697.313 148.843 700.878 Q150.672 704.42 154.283 704.42 Q157.917 704.42 159.723 700.878 Q161.552 697.313 161.552 690.207 Q161.552 683.077 159.723 679.536 Q157.917 675.971 154.283 675.971 M154.283 672.267 Q160.093 672.267 163.149 676.874 Q166.227 681.457 166.227 690.207 Q166.227 698.934 163.149 703.54 Q160.093 708.123 154.283 708.123 Q148.473 708.123 145.394 703.54 Q142.339 698.934 142.339 690.207 Q142.339 681.457 145.394 676.874 Q148.473 672.267 154.283 672.267 Z" fill="#000000" fill-rule="nonzero" fill-opacity="1"></path><path clip-path="url(#clip830)" d="M115.927 337.013 L123.566 337.013 L123.566 310.648 L115.256 312.314 L115.256 308.055 L123.519 306.388 L128.195 306.388 L128.195 337.013 L135.834 337.013 L135.834 340.948 L115.927 340.948 L115.927 337.013 Z" fill="#000000" fill-rule="nonzero" fill-opacity="1"></path><path clip-path="url(#clip830)" d="M145.325 306.388 L163.681 306.388 L163.681 310.324 L149.607 310.324 L149.607 318.796 Q150.626 318.448 151.644 318.286 Q152.663 318.101 153.681 318.101 Q159.468 318.101 162.848 321.273 Q166.227 324.444 166.227 329.86 Q166.227 335.439 162.755 338.541 Q159.283 341.62 152.964 341.62 Q150.788 341.62 148.519 341.249 Q146.274 340.879 143.866 340.138 L143.866 335.439 Q145.95 336.573 148.172 337.129 Q150.394 337.685 152.871 337.685 Q156.876 337.685 159.214 335.578 Q161.552 333.472 161.552 329.86 Q161.552 326.249 159.214 324.143 Q156.876 322.036 152.871 322.036 Q150.996 322.036 149.121 322.453 Q147.269 322.87 145.325 323.749 L145.325 306.388 Z" fill="#000000" fill-rule="nonzero" fill-opacity="1"></path><path clip-path="url(#clip830)" d="M20.1444 1093.9 L26.9239 1093.9 Q23.9002 1097.15 22.4043 1100.84 Q20.9083 1104.5 20.9083 1108.64 Q20.9083 1116.79 25.9054 1121.12 Q30.8707 1125.45 40.2919 1125.45 Q49.6813 1125.45 54.6784 1121.12 Q59.6436 1116.79 59.6436 1108.64 Q59.6436 1104.5 58.1477 1100.84 Q56.6518 1097.15 53.6281 1093.9 L60.3439 1093.9 Q62.6355 1097.28 63.7814 1101.06 Q64.9272 1104.82 64.9272 1109.02 Q64.9272 1119.81 58.3387 1126.02 Q51.7183 1132.22 40.2919 1132.22 Q28.8336 1132.22 22.2451 1126.02 Q15.6248 1119.81 15.6248 1109.02 Q15.6248 1104.76 16.7706 1101 Q17.8846 1097.21 20.1444 1093.9 Z" fill="#000000" fill-rule="nonzero" fill-opacity="1"></path><path clip-path="url(#clip830)" d="M49.9359 1084.83 L28.3562 1084.83 L28.3562 1078.98 L49.7131 1078.98 Q54.7739 1078.98 57.3202 1077 Q59.8346 1075.03 59.8346 1071.08 Q59.8346 1066.34 56.8109 1063.6 Q53.7872 1060.83 48.5673 1060.83 L28.3562 1060.83 L28.3562 1054.98 L64.0042 1054.98 L64.0042 1060.83 L58.5296 1060.83 Q61.7762 1062.97 63.3676 1065.8 Q64.9272 1068.6 64.9272 1072.32 Q64.9272 1078.47 61.1078 1081.65 Q57.2883 1084.83 49.9359 1084.83 M27.4968 1070.1 L27.4968 1070.1 Z" fill="#000000" fill-rule="nonzero" fill-opacity="1"></path><path clip-path="url(#clip830)" d="M33.8307 1022.26 Q33.2578 1023.24 33.0032 1024.42 Q32.7167 1025.57 32.7167 1026.97 Q32.7167 1031.93 35.9632 1034.61 Q39.1779 1037.25 45.2253 1037.25 L64.0042 1037.25 L64.0042 1043.14 L28.3562 1043.14 L28.3562 1037.25 L33.8944 1037.25 Q30.6479 1035.4 29.0883 1032.44 Q27.4968 1029.48 27.4968 1025.25 Q27.4968 1024.64 27.5923 1023.91 Q27.656 1023.18 27.8151 1022.29 L33.8307 1022.26 Z" fill="#000000" fill-rule="nonzero" fill-opacity="1"></path><path clip-path="url(#clip830)" d="M33.8307 996.603 Q33.2578 997.59 33.0032 998.767 Q32.7167 999.913 32.7167 1001.31 Q32.7167 1006.28 35.9632 1008.95 Q39.1779 1011.59 45.2253 1011.59 L64.0042 1011.59 L64.0042 1017.48 L28.3562 1017.48 L28.3562 1011.59 L33.8944 1011.59 Q30.6479 1009.75 29.0883 1006.79 Q27.4968 1003.83 27.4968 999.595 Q27.4968 998.99 27.5923 998.258 Q27.656 997.526 27.8151 996.635 L33.8307 996.603 Z" fill="#000000" fill-rule="nonzero" fill-opacity="1"></path><path clip-path="url(#clip830)" d="M44.7161 961.401 L47.5806 961.401 L47.5806 988.328 Q53.6281 987.946 56.8109 984.699 Q59.9619 981.421 59.9619 975.596 Q59.9619 972.222 59.1344 969.071 Q58.3069 965.889 56.6518 962.769 L62.1899 962.769 Q63.5267 965.92 64.227 969.231 Q64.9272 972.541 64.9272 975.946 Q64.9272 984.476 59.9619 989.474 Q54.9967 994.439 46.5303 994.439 Q37.7774 994.439 32.6531 989.728 Q27.4968 984.986 27.4968 976.965 Q27.4968 969.772 32.1438 965.602 Q36.7589 961.401 44.7161 961.401 M42.9973 967.257 Q38.1912 967.321 35.3266 969.963 Q32.4621 972.573 32.4621 976.901 Q32.4621 981.803 35.2312 984.763 Q38.0002 987.691 43.0292 988.137 L42.9973 967.257 Z" fill="#000000" fill-rule="nonzero" fill-opacity="1"></path><path clip-path="url(#clip830)" d="M42.4881 922.156 L64.0042 922.156 L64.0042 928.013 L42.679 928.013 Q37.6183 928.013 35.1038 929.986 Q32.5894 931.959 32.5894 935.906 Q32.5894 940.649 35.6131 943.386 Q38.6368 946.123 43.8567 946.123 L64.0042 946.123 L64.0042 952.011 L28.3562 952.011 L28.3562 946.123 L33.8944 946.123 Q30.6797 944.022 29.0883 941.19 Q27.4968 938.325 27.4968 934.601 Q27.4968 928.458 31.3163 925.307 Q35.1038 922.156 42.4881 922.156 Z" fill="#000000" fill-rule="nonzero" fill-opacity="1"></path><path clip-path="url(#clip830)" d="M18.2347 904.682 L28.3562 904.682 L28.3562 892.619 L32.9077 892.619 L32.9077 904.682 L52.2594 904.682 Q56.6199 904.682 57.8613 903.505 Q59.1026 902.295 59.1026 898.635 L59.1026 892.619 L64.0042 892.619 L64.0042 898.635 Q64.0042 905.414 61.4897 907.993 Q58.9434 910.571 52.2594 910.571 L32.9077 910.571 L32.9077 914.867 L28.3562 914.867 L28.3562 910.571 L18.2347 910.571 L18.2347 904.682 Z" fill="#000000" fill-rule="nonzero" fill-opacity="1"></path><path clip-path="url(#clip830)" d="M16.4842 863.942 L16.4842 854.361 L48.8219 842.235 L16.4842 830.044 L16.4842 820.464 L64.0042 820.464 L64.0042 826.734 L22.277 826.734 L54.8694 838.988 L54.8694 845.449 L22.277 857.703 L64.0042 857.703 L64.0042 863.942 L16.4842 863.942 Z" fill="#000000" fill-rule="nonzero" fill-opacity="1"></path><path clip-path="url(#clip830)" d="M46.0847 791.755 Q46.0847 798.852 47.7079 801.59 Q49.3312 804.327 53.2461 804.327 Q56.3653 804.327 58.2114 802.29 Q60.0256 800.221 60.0256 796.688 Q60.0256 791.818 56.5881 788.89 Q53.1188 785.93 47.3897 785.93 L46.0847 785.93 L46.0847 791.755 M43.6657 780.074 L64.0042 780.074 L64.0042 785.93 L58.5933 785.93 Q61.8398 787.935 63.3994 790.927 Q64.9272 793.919 64.9272 798.248 Q64.9272 803.722 61.8716 806.969 Q58.7843 810.183 53.6281 810.183 Q47.6125 810.183 44.5569 806.173 Q41.5014 802.131 41.5014 794.142 L41.5014 785.93 L40.9285 785.93 Q36.8862 785.93 34.6901 788.604 Q32.4621 791.245 32.4621 796.052 Q32.4621 799.107 33.1941 802.003 Q33.9262 804.9 35.3903 807.573 L29.9795 807.573 Q28.7381 804.359 28.1334 801.335 Q27.4968 798.311 27.4968 795.447 Q27.4968 787.712 31.5072 783.893 Q35.5176 780.074 43.6657 780.074 Z" fill="#000000" fill-rule="nonzero" fill-opacity="1"></path><path clip-path="url(#clip830)" d="M45.7664 744.553 Q39.4007 744.553 35.8996 747.195 Q32.3984 749.805 32.3984 754.547 Q32.3984 759.258 35.8996 761.9 Q39.4007 764.509 45.7664 764.509 Q52.1003 764.509 55.6014 761.9 Q59.1026 759.258 59.1026 754.547 Q59.1026 749.805 55.6014 747.195 Q52.1003 744.553 45.7664 744.553 M59.58 738.697 Q68.683 738.697 73.1071 742.739 Q77.5631 746.781 77.5631 755.12 Q77.5631 758.207 77.0857 760.945 Q76.6401 763.682 75.6852 766.26 L69.9879 766.26 Q71.3884 763.682 72.0568 761.167 Q72.7252 758.653 72.7252 756.043 Q72.7252 750.282 69.7015 747.418 Q66.7096 744.553 60.6303 744.553 L57.7339 744.553 Q60.885 746.367 62.4446 749.2 Q64.0042 752.033 64.0042 755.979 Q64.0042 762.536 59.0071 766.547 Q54.01 770.557 45.7664 770.557 Q37.491 770.557 32.4939 766.547 Q27.4968 762.536 27.4968 755.979 Q27.4968 752.033 29.0564 749.2 Q30.616 746.367 33.7671 744.553 L28.3562 744.553 L28.3562 738.697 L59.58 738.697 Z" fill="#000000" fill-rule="nonzero" fill-opacity="1"></path><path clip-path="url(#clip830)" d="M42.4881 697.001 L64.0042 697.001 L64.0042 702.858 L42.679 702.858 Q37.6183 702.858 35.1038 704.831 Q32.5894 706.804 32.5894 710.751 Q32.5894 715.494 35.6131 718.231 Q38.6368 720.968 43.8567 720.968 L64.0042 720.968 L64.0042 726.856 L28.3562 726.856 L28.3562 720.968 L33.8944 720.968 Q30.6797 718.867 29.0883 716.035 Q27.4968 713.17 27.4968 709.446 Q27.4968 703.303 31.3163 700.152 Q35.1038 697.001 42.4881 697.001 Z" fill="#000000" fill-rule="nonzero" fill-opacity="1"></path><path clip-path="url(#clip830)" d="M28.3562 685.32 L28.3562 679.464 L64.0042 679.464 L64.0042 685.32 L28.3562 685.32 M14.479 685.32 L14.479 679.464 L21.895 679.464 L21.895 685.32 L14.479 685.32 Z" fill="#000000" fill-rule="nonzero" fill-opacity="1"></path><path clip-path="url(#clip830)" d="M18.2347 661.417 L28.3562 661.417 L28.3562 649.354 L32.9077 649.354 L32.9077 661.417 L52.2594 661.417 Q56.6199 661.417 57.8613 660.239 Q59.1026 659.03 59.1026 655.369 L59.1026 649.354 L64.0042 649.354 L64.0042 655.369 Q64.0042 662.149 61.4897 664.727 Q58.9434 667.305 52.2594 667.305 L32.9077 667.305 L32.9077 671.602 L28.3562 671.602 L28.3562 667.305 L18.2347 667.305 L18.2347 661.417 Z" fill="#000000" fill-rule="nonzero" fill-opacity="1"></path><path clip-path="url(#clip830)" d="M49.9359 642.256 L28.3562 642.256 L28.3562 636.4 L49.7131 636.4 Q54.7739 636.4 57.3202 634.426 Q59.8346 632.453 59.8346 628.506 Q59.8346 623.764 56.8109 621.026 Q53.7872 618.257 48.5673 618.257 L28.3562 618.257 L28.3562 612.401 L64.0042 612.401 L64.0042 618.257 L58.5296 618.257 Q61.7762 620.39 63.3676 623.223 Q64.9272 626.024 64.9272 629.747 Q64.9272 635.89 61.1078 639.073 Q57.2883 642.256 49.9359 642.256 M27.4968 627.519 L27.4968 627.519 Z" fill="#000000" fill-rule="nonzero" fill-opacity="1"></path><path clip-path="url(#clip830)" d="M33.7671 576.88 L14.479 576.88 L14.479 571.024 L64.0042 571.024 L64.0042 576.88 L58.657 576.88 Q61.8398 578.726 63.3994 581.559 Q64.9272 584.36 64.9272 588.307 Q64.9272 594.768 59.771 598.842 Q54.6147 602.884 46.212 602.884 Q37.8093 602.884 32.6531 598.842 Q27.4968 594.768 27.4968 588.307 Q27.4968 584.36 29.0564 581.559 Q30.5842 578.726 33.7671 576.88 M46.212 596.837 Q52.6732 596.837 56.3653 594.195 Q60.0256 591.521 60.0256 586.874 Q60.0256 582.227 56.3653 579.554 Q52.6732 576.88 46.212 576.88 Q39.7508 576.88 36.0905 579.554 Q32.3984 582.227 32.3984 586.874 Q32.3984 591.521 36.0905 594.195 Q39.7508 596.837 46.212 596.837 Z" fill="#000000" fill-rule="nonzero" fill-opacity="1"></path><path clip-path="url(#clip830)" d="M44.7161 528.469 L47.5806 528.469 L47.5806 555.396 Q53.6281 555.014 56.8109 551.768 Q59.9619 548.489 59.9619 542.665 Q59.9619 539.291 59.1344 536.14 Q58.3069 532.957 56.6518 529.838 L62.1899 529.838 Q63.5267 532.989 64.227 536.299 Q64.9272 539.609 64.9272 543.015 Q64.9272 551.545 59.9619 556.542 Q54.9967 561.507 46.5303 561.507 Q37.7774 561.507 32.6531 556.796 Q27.4968 552.054 27.4968 544.033 Q27.4968 536.84 32.1438 532.67 Q36.7589 528.469 44.7161 528.469 M42.9973 534.326 Q38.1912 534.389 35.3266 537.031 Q32.4621 539.641 32.4621 543.97 Q32.4621 548.871 35.2312 551.831 Q38.0002 554.759 43.0292 555.205 L42.9973 534.326 Z" fill="#000000" fill-rule="nonzero" fill-opacity="1"></path><path clip-path="url(#clip830)" d="M14.5426 484.068 Q21.8632 488.333 29.0246 490.402 Q36.186 492.471 43.5384 492.471 Q50.8908 492.471 58.1159 490.402 Q65.3091 488.301 72.5979 484.068 L72.5979 489.161 Q65.1182 493.935 57.8931 496.322 Q50.668 498.678 43.5384 498.678 Q36.4406 498.678 29.2474 496.322 Q22.0542 493.967 14.5426 489.161 L14.5426 484.068 Z" fill="#000000" fill-rule="nonzero" fill-opacity="1"></path><path clip-path="url(#clip830)" d="M22.818 456.568 L46.4666 465.289 L46.4666 447.816 L22.818 456.568 M16.4842 460.197 L16.4842 452.908 L64.0042 434.798 L64.0042 441.482 L51.8138 445.81 L51.8138 467.231 L64.0042 471.56 L64.0042 478.339 L16.4842 460.197 Z" fill="#000000" fill-rule="nonzero" fill-opacity="1"></path><path clip-path="url(#clip830)" d="M14.5426 429.037 L14.5426 423.944 Q22.0542 419.17 29.2474 416.815 Q36.4406 414.427 43.5384 414.427 Q50.668 414.427 57.8931 416.815 Q65.1182 419.17 72.5979 423.944 L72.5979 429.037 Q65.3091 424.804 58.1159 422.735 Q50.8908 420.634 43.5384 420.634 Q36.186 420.634 29.0246 422.735 Q21.8632 424.804 14.5426 429.037 Z" fill="#000000" fill-rule="nonzero" fill-opacity="1"></path><path clip-path="url(#clip830)" d="M-68.0364 16.7545 L-68.0364 25.383 Q-72.1683 21.5346 -76.8674 19.6307 Q-81.5259 17.7268 -86.7921 17.7268 Q-97.1624 17.7268 -102.672 24.0867 Q-108.181 30.4061 -108.181 42.3968 Q-108.181 54.3469 -102.672 60.7069 Q-97.1624 67.0263 -86.7921 67.0263 Q-81.5259 67.0263 -76.8674 65.1223 Q-72.1683 63.2184 -68.0364 59.3701 L-68.0364 67.9175 Q-72.3304 70.8341 -77.1509 72.2924 Q-81.931 73.7508 -87.2782 73.7508 Q-101.011 73.7508 -108.91 65.3654 Q-116.809 56.9395 -116.809 42.3968 Q-116.809 27.8135 -108.91 19.4281 Q-101.011 11.0023 -87.2782 11.0023 Q-81.85 11.0023 -77.0699 12.4606 Q-72.2493 13.8784 -68.0364 16.7545 Z" fill="#000000" fill-rule="nonzero" fill-opacity="1"></path><path clip-path="url(#clip830)" d="M-56.4913 54.671 L-56.4913 27.2059 L-49.0377 27.2059 L-49.0377 54.3874 Q-49.0377 60.8284 -46.5261 64.0691 Q-44.0145 67.2693 -38.9914 67.2693 Q-32.9556 67.2693 -29.4718 63.421 Q-25.9475 59.5726 -25.9475 52.9291 L-25.9475 27.2059 L-18.4938 27.2059 L-18.4938 72.576 L-25.9475 72.576 L-25.9475 65.6084 Q-28.6616 69.7404 -32.2669 71.7658 Q-35.8317 73.7508 -40.5713 73.7508 Q-48.3895 73.7508 -52.4404 68.8897 Q-56.4913 64.0286 -56.4913 54.671 M-37.7356 26.1121 L-37.7356 26.1121 Z" fill="#000000" fill-rule="nonzero" fill-opacity="1"></path><path clip-path="url(#clip830)" d="M23.1495 34.1734 Q21.8937 33.4443 20.3948 33.1202 Q18.9365 32.7556 17.1541 32.7556 Q10.8347 32.7556 7.43194 36.8875 Q4.06969 40.9789 4.06969 48.6757 L4.06969 72.576 L-3.42448 72.576 L-3.42448 27.2059 L4.06969 27.2059 L4.06969 34.2544 Q6.41922 30.1225 10.1866 28.1376 Q13.9539 26.1121 19.3416 26.1121 Q20.1113 26.1121 21.043 26.2337 Q21.9747 26.3147 23.1089 26.5172 L23.1495 34.1734 Z" fill="#000000" fill-rule="nonzero" fill-opacity="1"></path><path clip-path="url(#clip830)" d="M55.7997 34.1734 Q54.544 33.4443 53.0451 33.1202 Q51.5868 32.7556 49.8044 32.7556 Q43.485 32.7556 40.0822 36.8875 Q36.72 40.9789 36.72 48.6757 L36.72 72.576 L29.2258 72.576 L29.2258 27.2059 L36.72 27.2059 L36.72 34.2544 Q39.0695 30.1225 42.8368 28.1376 Q46.6042 26.1121 51.9919 26.1121 Q52.7616 26.1121 53.6933 26.2337 Q54.625 26.3147 55.7592 26.5172 L55.7997 34.1734 Z" fill="#000000" fill-rule="nonzero" fill-opacity="1"></path><path clip-path="url(#clip830)" d="M100.603 48.0275 L100.603 51.6733 L66.3321 51.6733 Q66.8182 59.3701 70.9501 63.421 Q75.1226 67.4314 82.5357 67.4314 Q86.8297 67.4314 90.8401 66.3781 Q94.891 65.3249 98.8609 63.2184 L98.8609 70.267 Q94.8505 71.9684 90.6375 72.8596 Q86.4246 73.7508 82.0901 73.7508 Q71.2337 73.7508 64.8738 67.4314 Q58.5544 61.1119 58.5544 50.3365 Q58.5544 39.1965 64.5497 32.6746 Q70.5855 26.1121 80.7938 26.1121 Q89.9489 26.1121 95.2555 32.0264 Q100.603 37.9003 100.603 48.0275 M93.1491 45.84 Q93.0681 39.7232 89.7058 36.0774 Q86.3841 32.4315 80.8748 32.4315 Q74.6364 32.4315 70.8691 35.9558 Q67.1423 39.4801 66.5751 45.8805 L93.1491 45.84 Z" fill="#000000" fill-rule="nonzero" fill-opacity="1"></path><path clip-path="url(#clip830)" d="M150.55 45.1919 L150.55 72.576 L143.097 72.576 L143.097 45.4349 Q143.097 38.994 140.585 35.7938 Q138.074 32.5936 133.05 32.5936 Q127.015 32.5936 123.531 36.4419 Q120.047 40.2903 120.047 46.9338 L120.047 72.576 L112.553 72.576 L112.553 27.2059 L120.047 27.2059 L120.047 34.2544 Q122.721 30.163 126.326 28.1376 Q129.972 26.1121 134.711 26.1121 Q142.53 26.1121 146.54 30.9732 Q150.55 35.7938 150.55 45.1919 Z" fill="#000000" fill-rule="nonzero" fill-opacity="1"></path><path clip-path="url(#clip830)" d="M172.79 14.324 L172.79 27.2059 L188.143 27.2059 L188.143 32.9987 L172.79 32.9987 L172.79 57.6282 Q172.79 63.1779 174.289 64.7578 Q175.828 66.3376 180.487 66.3376 L188.143 66.3376 L188.143 72.576 L180.487 72.576 Q171.858 72.576 168.577 69.3758 Q165.296 66.1351 165.296 57.6282 L165.296 32.9987 L159.827 32.9987 L159.827 27.2059 L165.296 27.2059 L165.296 14.324 L172.79 14.324 Z" fill="#000000" fill-rule="nonzero" fill-opacity="1"></path><path clip-path="url(#clip830)" d="M232.824 18.8205 L232.824 41.5461 L243.114 41.5461 Q248.825 41.5461 251.945 38.5889 Q255.064 35.6318 255.064 30.163 Q255.064 24.7348 251.945 21.7777 Q248.825 18.8205 243.114 18.8205 L232.824 18.8205 M224.641 12.096 L243.114 12.096 Q253.281 12.096 258.466 16.714 Q263.692 21.2916 263.692 30.163 Q263.692 39.1155 258.466 43.6931 Q253.281 48.2706 243.114 48.2706 L232.824 48.2706 L232.824 72.576 L224.641 72.576 L224.641 12.096 Z" fill="#000000" fill-rule="nonzero" fill-opacity="1"></path><path clip-path="url(#clip830)" d="M299.178 34.1734 Q297.922 33.4443 296.423 33.1202 Q294.965 32.7556 293.183 32.7556 Q286.863 32.7556 283.461 36.8875 Q280.098 40.9789 280.098 48.6757 L280.098 72.576 L272.604 72.576 L272.604 27.2059 L280.098 27.2059 L280.098 34.2544 Q282.448 30.1225 286.215 28.1376 Q289.983 26.1121 295.37 26.1121 Q296.14 26.1121 297.072 26.2337 Q298.003 26.3147 299.138 26.5172 L299.178 34.1734 Z" fill="#000000" fill-rule="nonzero" fill-opacity="1"></path><path clip-path="url(#clip830)" d="M322.754 32.4315 Q316.759 32.4315 313.275 37.1306 Q309.791 41.7891 309.791 49.9314 Q309.791 58.0738 313.235 62.7728 Q316.718 67.4314 322.754 67.4314 Q328.709 67.4314 332.193 62.7323 Q335.677 58.0333 335.677 49.9314 Q335.677 41.8701 332.193 37.1711 Q328.709 32.4315 322.754 32.4315 M322.754 26.1121 Q332.476 26.1121 338.026 32.4315 Q343.576 38.7509 343.576 49.9314 Q343.576 61.0714 338.026 67.4314 Q332.476 73.7508 322.754 73.7508 Q312.992 73.7508 307.442 67.4314 Q301.933 61.0714 301.933 49.9314 Q301.933 38.7509 307.442 32.4315 Q312.992 26.1121 322.754 26.1121 Z" fill="#000000" fill-rule="nonzero" fill-opacity="1"></path><path clip-path="url(#clip830)" d="M378.9 9.54393 L378.9 15.7418 L371.77 15.7418 Q367.76 15.7418 366.18 17.3622 Q364.641 18.9825 364.641 23.1955 L364.641 27.2059 L376.915 27.2059 L376.915 32.9987 L364.641 32.9987 L364.641 72.576 L357.147 72.576 L357.147 32.9987 L350.017 32.9987 L350.017 27.2059 L357.147 27.2059 L357.147 24.0462 Q357.147 16.471 360.671 13.0277 Q364.195 9.54393 371.851 9.54393 L378.9 9.54393 Z" fill="#000000" fill-rule="nonzero" fill-opacity="1"></path><path clip-path="url(#clip830)" d="M385.138 27.2059 L392.592 27.2059 L392.592 72.576 L385.138 72.576 L385.138 27.2059 M385.138 9.54393 L392.592 9.54393 L392.592 18.9825 L385.138 18.9825 L385.138 9.54393 Z" fill="#000000" fill-rule="nonzero" fill-opacity="1"></path><path clip-path="url(#clip830)" d="M408.188 9.54393 L415.642 9.54393 L415.642 72.576 L408.188 72.576 L408.188 9.54393 Z" fill="#000000" fill-rule="nonzero" fill-opacity="1"></path><path clip-path="url(#clip830)" d="M470.045 48.0275 L470.045 51.6733 L435.775 51.6733 Q436.261 59.3701 440.393 63.421 Q444.565 67.4314 451.978 67.4314 Q456.272 67.4314 460.283 66.3781 Q464.333 65.3249 468.303 63.2184 L468.303 70.267 Q464.293 71.9684 460.08 72.8596 Q455.867 73.7508 451.533 73.7508 Q440.676 73.7508 434.316 67.4314 Q427.997 61.1119 427.997 50.3365 Q427.997 39.1965 433.992 32.6746 Q440.028 26.1121 450.236 26.1121 Q459.391 26.1121 464.698 32.0264 Q470.045 37.9003 470.045 48.0275 M462.592 45.84 Q462.511 39.7232 459.148 36.0774 Q455.827 32.4315 450.317 32.4315 Q444.079 32.4315 440.312 35.9558 Q436.585 39.4801 436.018 45.8805 L462.592 45.84 Z" fill="#000000" fill-rule="nonzero" fill-opacity="1"></path><path clip-path="url(#clip830)" d="M531.619 9.54393 L531.619 15.7418 L524.489 15.7418 Q520.479 15.7418 518.899 17.3622 Q517.36 18.9825 517.36 23.1955 L517.36 27.2059 L529.634 27.2059 L529.634 32.9987 L517.36 32.9987 L517.36 72.576 L509.866 72.576 L509.866 32.9987 L502.736 32.9987 L502.736 27.2059 L509.866 27.2059 L509.866 24.0462 Q509.866 16.471 513.39 13.0277 Q516.914 9.54393 524.57 9.54393 L531.619 9.54393 Z" fill="#000000" fill-rule="nonzero" fill-opacity="1"></path><path clip-path="url(#clip830)" d="M555.438 32.4315 Q549.443 32.4315 545.959 37.1306 Q542.475 41.7891 542.475 49.9314 Q542.475 58.0738 545.919 62.7728 Q549.402 67.4314 555.438 67.4314 Q561.393 67.4314 564.877 62.7323 Q568.361 58.0333 568.361 49.9314 Q568.361 41.8701 564.877 37.1711 Q561.393 32.4315 555.438 32.4315 M555.438 26.1121 Q565.16 26.1121 570.71 32.4315 Q576.26 38.7509 576.26 49.9314 Q576.26 61.0714 570.71 67.4314 Q565.16 73.7508 555.438 73.7508 Q545.676 73.7508 540.126 67.4314 Q534.617 61.0714 534.617 49.9314 Q534.617 38.7509 540.126 32.4315 Q545.676 26.1121 555.438 26.1121 Z" fill="#000000" fill-rule="nonzero" fill-opacity="1"></path><path clip-path="url(#clip830)" d="M614.906 34.1734 Q613.65 33.4443 612.151 33.1202 Q610.693 32.7556 608.91 32.7556 Q602.591 32.7556 599.188 36.8875 Q595.826 40.9789 595.826 48.6757 L595.826 72.576 L588.332 72.576 L588.332 27.2059 L595.826 27.2059 L595.826 34.2544 Q598.175 30.1225 601.943 28.1376 Q605.71 26.1121 611.098 26.1121 Q611.867 26.1121 612.799 26.2337 Q613.731 26.3147 614.865 26.5172 L614.906 34.1734 Z" fill="#000000" fill-rule="nonzero" fill-opacity="1"></path><path clip-path="url(#clip830)" d="M649.419 12.096 L657.602 12.096 L657.602 65.6895 L687.052 65.6895 L687.052 72.576 L649.419 72.576 L649.419 12.096 Z" fill="#000000" fill-rule="nonzero" fill-opacity="1"></path><path clip-path="url(#clip830)" d="M695.316 27.2059 L702.77 27.2059 L702.77 72.576 L695.316 72.576 L695.316 27.2059 M695.316 9.54393 L702.77 9.54393 L702.77 18.9825 L695.316 18.9825 L695.316 9.54393 Z" fill="#000000" fill-rule="nonzero" fill-opacity="1"></path><path clip-path="url(#clip830)" d="M756.08 45.1919 L756.08 72.576 L748.626 72.576 L748.626 45.4349 Q748.626 38.994 746.114 35.7938 Q743.603 32.5936 738.58 32.5936 Q732.544 32.5936 729.06 36.4419 Q725.576 40.2903 725.576 46.9338 L725.576 72.576 L718.082 72.576 L718.082 27.2059 L725.576 27.2059 L725.576 34.2544 Q728.25 30.163 731.855 28.1376 Q735.501 26.1121 740.241 26.1121 Q748.059 26.1121 752.069 30.9732 Q756.08 35.7938 756.08 45.1919 Z" fill="#000000" fill-rule="nonzero" fill-opacity="1"></path><path clip-path="url(#clip830)" d="M809.754 48.0275 L809.754 51.6733 L775.483 51.6733 Q775.969 59.3701 780.101 63.421 Q784.274 67.4314 791.687 67.4314 Q795.981 67.4314 799.991 66.3781 Q804.042 65.3249 808.012 63.2184 L808.012 70.267 Q804.002 71.9684 799.789 72.8596 Q795.576 73.7508 791.241 73.7508 Q780.385 73.7508 774.025 67.4314 Q767.706 61.1119 767.706 50.3365 Q767.706 39.1965 773.701 32.6746 Q779.737 26.1121 789.945 26.1121 Q799.1 26.1121 804.407 32.0264 Q809.754 37.9003 809.754 48.0275 M802.3 45.84 Q802.219 39.7232 798.857 36.0774 Q795.535 32.4315 790.026 32.4315 Q783.788 32.4315 780.02 35.9558 Q776.294 39.4801 775.726 45.8805 L802.3 45.84 Z" fill="#000000" fill-rule="nonzero" fill-opacity="1"></path><path clip-path="url(#clip830)" d="M823.041 62.2867 L831.588 62.2867 L831.588 72.576 L823.041 72.576 L823.041 62.2867 Z" fill="#000000" fill-rule="nonzero" fill-opacity="1"></path><path clip-path="url(#clip830)" d="M848.359 9.54393 L855.813 9.54393 L855.813 72.576 L848.359 72.576 L848.359 9.54393 Z" fill="#000000" fill-rule="nonzero" fill-opacity="1"></path><path clip-path="url(#clip830)" d="M871.409 27.2059 L878.862 27.2059 L878.862 72.576 L871.409 72.576 L871.409 27.2059 M871.409 9.54393 L878.862 9.54393 L878.862 18.9825 L871.409 18.9825 L871.409 9.54393 Z" fill="#000000" fill-rule="nonzero" fill-opacity="1"></path><path clip-path="url(#clip830)" d="M932.172 45.1919 L932.172 72.576 L924.719 72.576 L924.719 45.4349 Q924.719 38.994 922.207 35.7938 Q919.696 32.5936 914.672 32.5936 Q908.637 32.5936 905.153 36.4419 Q901.669 40.2903 901.669 46.9338 L901.669 72.576 L894.175 72.576 L894.175 27.2059 L901.669 27.2059 L901.669 34.2544 Q904.343 30.163 907.948 28.1376 Q911.594 26.1121 916.333 26.1121 Q924.152 26.1121 928.162 30.9732 Q932.172 35.7938 932.172 45.1919 Z" fill="#000000" fill-rule="nonzero" fill-opacity="1"></path><path clip-path="url(#clip830)" d="M985.847 48.0275 L985.847 51.6733 L951.576 51.6733 Q952.062 59.3701 956.194 63.421 Q960.367 67.4314 967.78 67.4314 Q972.074 67.4314 976.084 66.3781 Q980.135 65.3249 984.105 63.2184 L984.105 70.267 Q980.095 71.9684 975.882 72.8596 Q971.669 73.7508 967.334 73.7508 Q956.478 73.7508 950.118 67.4314 Q943.798 61.1119 943.798 50.3365 Q943.798 39.1965 949.794 32.6746 Q955.83 26.1121 966.038 26.1121 Q975.193 26.1121 980.5 32.0264 Q985.847 37.9003 985.847 48.0275 M978.393 45.84 Q978.312 39.7232 974.95 36.0774 Q971.628 32.4315 966.119 32.4315 Q959.881 32.4315 956.113 35.9558 Q952.386 39.4801 951.819 45.8805 L978.393 45.84 Z" fill="#000000" fill-rule="nonzero" fill-opacity="1"></path><path clip-path="url(#clip830)" d="M1032.55 86.3491 L1032.55 92.1419 L989.452 92.1419 L989.452 86.3491 L1032.55 86.3491 Z" fill="#000000" fill-rule="nonzero" fill-opacity="1"></path><path clip-path="url(#clip830)" d="M1039.89 12.096 L1074.64 12.096 L1074.64 18.9825 L1048.07 18.9825 L1048.07 36.8065 L1072.05 36.8065 L1072.05 43.6931 L1048.07 43.6931 L1048.07 72.576 L1039.89 72.576 L1039.89 12.096 Z" fill="#000000" fill-rule="nonzero" fill-opacity="1"></path><path clip-path="url(#clip830)" d="M1095.38 65.6895 L1123.94 65.6895 L1123.94 72.576 L1085.54 72.576 L1085.54 65.6895 Q1090.2 60.8689 1098.22 52.7671 Q1106.28 44.6248 1108.35 42.2752 Q1112.28 37.8598 1113.81 34.8216 Q1115.39 31.7429 1115.39 28.7857 Q1115.39 23.9651 1111.99 20.927 Q1108.63 17.8888 1103.2 17.8888 Q1099.35 17.8888 1095.06 19.2256 Q1090.81 20.5624 1085.94 23.2765 L1085.94 15.0127 Q1090.89 13.0277 1095.18 12.015 Q1099.47 11.0023 1103.04 11.0023 Q1112.44 11.0023 1118.03 15.7013 Q1123.62 20.4004 1123.62 28.2591 Q1123.62 31.9859 1122.2 35.3482 Q1120.82 38.6699 1117.14 43.2069 Q1116.12 44.3817 1110.7 50.0125 Q1105.27 55.6027 1095.38 65.6895 Z" fill="#000000" fill-rule="nonzero" fill-opacity="1"></path><path clip-path="url(#clip830)" d="M1174.54 86.3491 L1174.54 92.1419 L1131.44 92.1419 L1131.44 86.3491 L1174.54 86.3491 Z" fill="#000000" fill-rule="nonzero" fill-opacity="1"></path><path clip-path="url(#clip830)" d="M1182.68 12.096 L1214.8 12.096 L1214.8 18.9825 L1190.17 18.9825 L1190.17 33.8088 Q1191.96 33.2012 1193.74 32.9176 Q1195.52 32.5936 1197.3 32.5936 Q1207.43 32.5936 1213.35 38.1433 Q1219.26 43.6931 1219.26 53.1722 Q1219.26 62.9348 1213.18 68.3631 Q1207.11 73.7508 1196.05 73.7508 Q1192.24 73.7508 1188.27 73.1026 Q1184.34 72.4545 1180.13 71.1582 L1180.13 62.9348 Q1183.77 64.9198 1187.66 65.892 Q1191.55 66.8642 1195.89 66.8642 Q1202.89 66.8642 1206.99 63.1779 Q1211.08 59.4916 1211.08 53.1722 Q1211.08 46.8528 1206.99 43.1664 Q1202.89 39.4801 1195.89 39.4801 Q1192.6 39.4801 1189.32 40.2093 Q1186.08 40.9384 1182.68 42.4778 L1182.68 12.096 Z" fill="#000000" fill-rule="nonzero" fill-opacity="1"></path><path clip-path="url(#clip830)" d="M1268.8 86.3491 L1268.8 92.1419 L1225.7 92.1419 L1225.7 86.3491 L1268.8 86.3491 Z" fill="#000000" fill-rule="nonzero" fill-opacity="1"></path><path clip-path="url(#clip830)" d="M1299.35 19.2256 L1278.69 51.5113 L1299.35 51.5113 L1299.35 19.2256 M1297.2 12.096 L1307.49 12.096 L1307.49 51.5113 L1316.12 51.5113 L1316.12 58.3168 L1307.49 58.3168 L1307.49 72.576 L1299.35 72.576 L1299.35 58.3168 L1272.04 58.3168 L1272.04 50.4176 L1297.2 12.096 Z" fill="#000000" fill-rule="nonzero" fill-opacity="1"></path><path clip-path="url(#clip830)" d="M1372.87 9.62495 Q1367.44 18.942 1364.81 28.0566 Q1362.18 37.1711 1362.18 46.5287 Q1362.18 55.8863 1364.81 65.0818 Q1367.48 74.2369 1372.87 83.5134 L1366.39 83.5134 Q1360.31 73.9938 1357.27 64.7983 Q1354.28 55.6027 1354.28 46.5287 Q1354.28 37.4952 1357.27 28.3401 Q1360.27 19.1851 1366.39 9.62495 L1372.87 9.62495 Z" fill="#000000" fill-rule="nonzero" fill-opacity="1"></path><path clip-path="url(#clip830)" d="M1395.84 43.6931 L1395.84 65.8515 L1408.96 65.8515 Q1415.57 65.8515 1418.73 63.1374 Q1421.93 60.3828 1421.93 54.752 Q1421.93 49.0808 1418.73 46.4072 Q1415.57 43.6931 1408.96 43.6931 L1395.84 43.6931 M1395.84 18.8205 L1395.84 37.0496 L1407.95 37.0496 Q1413.95 37.0496 1416.86 34.8216 Q1419.82 32.5531 1419.82 27.935 Q1419.82 23.3575 1416.86 21.089 Q1413.95 18.8205 1407.95 18.8205 L1395.84 18.8205 M1387.66 12.096 L1408.56 12.096 Q1417.92 12.096 1422.98 15.9849 Q1428.04 19.8737 1428.04 27.0438 Q1428.04 32.5936 1425.45 35.8748 Q1422.86 39.156 1417.84 39.9662 Q1423.87 41.2625 1427.19 45.3944 Q1430.56 49.4858 1430.56 55.6432 Q1430.56 63.745 1425.05 68.1605 Q1419.54 72.576 1409.37 72.576 L1387.66 72.576 L1387.66 12.096 Z" fill="#000000" fill-rule="nonzero" fill-opacity="1"></path><path clip-path="url(#clip830)" d="M1483.05 48.0275 L1483.05 51.6733 L1448.78 51.6733 Q1449.27 59.3701 1453.4 63.421 Q1457.57 67.4314 1464.99 67.4314 Q1469.28 67.4314 1473.29 66.3781 Q1477.34 65.3249 1481.31 63.2184 L1481.31 70.267 Q1477.3 71.9684 1473.09 72.8596 Q1468.88 73.7508 1464.54 73.7508 Q1453.69 73.7508 1447.33 67.4314 Q1441.01 61.1119 1441.01 50.3365 Q1441.01 39.1965 1447 32.6746 Q1453.04 26.1121 1463.25 26.1121 Q1472.4 26.1121 1477.71 32.0264 Q1483.05 37.9003 1483.05 48.0275 M1475.6 45.84 Q1475.52 39.7232 1472.16 36.0774 Q1468.84 32.4315 1463.33 32.4315 Q1457.09 32.4315 1453.32 35.9558 Q1449.59 39.4801 1449.03 45.8805 L1475.6 45.84 Z" fill="#000000" fill-rule="nonzero" fill-opacity="1"></path><path clip-path="url(#clip830)" d="M1518.26 9.54393 L1518.26 15.7418 L1511.13 15.7418 Q1507.12 15.7418 1505.54 17.3622 Q1504 18.9825 1504 23.1955 L1504 27.2059 L1516.27 27.2059 L1516.27 32.9987 L1504 32.9987 L1504 72.576 L1496.5 72.576 L1496.5 32.9987 L1489.37 32.9987 L1489.37 27.2059 L1496.5 27.2059 L1496.5 24.0462 Q1496.5 16.471 1500.03 13.0277 Q1503.55 9.54393 1511.21 9.54393 L1518.26 9.54393 Z" fill="#000000" fill-rule="nonzero" fill-opacity="1"></path><path clip-path="url(#clip830)" d="M1542.08 32.4315 Q1536.08 32.4315 1532.6 37.1306 Q1529.11 41.7891 1529.11 49.9314 Q1529.11 58.0738 1532.56 62.7728 Q1536.04 67.4314 1542.08 67.4314 Q1548.03 67.4314 1551.52 62.7323 Q1555 58.0333 1555 49.9314 Q1555 41.8701 1551.52 37.1711 Q1548.03 32.4315 1542.08 32.4315 M1542.08 26.1121 Q1551.8 26.1121 1557.35 32.4315 Q1562.9 38.7509 1562.9 49.9314 Q1562.9 61.0714 1557.35 67.4314 Q1551.8 73.7508 1542.08 73.7508 Q1532.31 73.7508 1526.76 67.4314 Q1521.25 61.0714 1521.25 49.9314 Q1521.25 38.7509 1526.76 32.4315 Q1532.31 26.1121 1542.08 26.1121 Z" fill="#000000" fill-rule="nonzero" fill-opacity="1"></path><path clip-path="url(#clip830)" d="M1601.54 34.1734 Q1600.29 33.4443 1598.79 33.1202 Q1597.33 32.7556 1595.55 32.7556 Q1589.23 32.7556 1585.83 36.8875 Q1582.46 40.9789 1582.46 48.6757 L1582.46 72.576 L1574.97 72.576 L1574.97 27.2059 L1582.46 27.2059 L1582.46 34.2544 Q1584.81 30.1225 1588.58 28.1376 Q1592.35 26.1121 1597.74 26.1121 Q1598.51 26.1121 1599.44 26.2337 Q1600.37 26.3147 1601.5 26.5172 L1601.54 34.1734 Z" fill="#000000" fill-rule="nonzero" fill-opacity="1"></path><path clip-path="url(#clip830)" d="M1646.35 48.0275 L1646.35 51.6733 L1612.08 51.6733 Q1612.56 59.3701 1616.69 63.421 Q1620.87 67.4314 1628.28 67.4314 Q1632.57 67.4314 1636.58 66.3781 Q1640.63 65.3249 1644.6 63.2184 L1644.6 70.267 Q1640.59 71.9684 1636.38 72.8596 Q1632.17 73.7508 1627.83 73.7508 Q1616.98 73.7508 1610.62 67.4314 Q1604.3 61.1119 1604.3 50.3365 Q1604.3 39.1965 1610.29 32.6746 Q1616.33 26.1121 1626.54 26.1121 Q1635.69 26.1121 1641 32.0264 Q1646.35 37.9003 1646.35 48.0275 M1638.89 45.84 Q1638.81 39.7232 1635.45 36.0774 Q1632.13 32.4315 1626.62 32.4315 Q1620.38 32.4315 1616.61 35.9558 Q1612.89 39.4801 1612.32 45.8805 L1638.89 45.84 Z" fill="#000000" fill-rule="nonzero" fill-opacity="1"></path><path clip-path="url(#clip830)" d="M1679.6 27.2059 L1687.5 27.2059 L1701.68 65.2844 L1715.86 27.2059 L1723.76 27.2059 L1706.75 72.576 L1696.62 72.576 L1679.6 27.2059 Z" fill="#000000" fill-rule="nonzero" fill-opacity="1"></path><path clip-path="url(#clip830)" d="M1762.97 28.5427 L1762.97 35.5912 Q1759.81 33.9709 1756.41 33.1607 Q1753.01 32.3505 1749.36 32.3505 Q1743.81 32.3505 1741.02 34.0519 Q1738.26 35.7533 1738.26 39.156 Q1738.26 41.7486 1740.25 43.2475 Q1742.23 44.7058 1748.23 46.0426 L1750.78 46.6097 Q1758.72 48.3111 1762.04 51.4303 Q1765.4 54.509 1765.4 60.0587 Q1765.4 66.3781 1760.38 70.0644 Q1755.4 73.7508 1746.65 73.7508 Q1743 73.7508 1739.03 73.0216 Q1735.1 72.3329 1730.73 70.9151 L1730.73 63.2184 Q1734.86 65.3654 1738.87 66.4591 Q1742.88 67.5124 1746.81 67.5124 Q1752.08 67.5124 1754.91 65.73 Q1757.75 63.9071 1757.75 60.6258 Q1757.75 57.5877 1755.68 55.9673 Q1753.66 54.3469 1746.73 52.8481 L1744.14 52.2405 Q1737.21 50.7821 1734.13 47.7845 Q1731.05 44.7463 1731.05 39.4801 Q1731.05 33.0797 1735.59 29.5959 Q1740.13 26.1121 1748.47 26.1121 Q1752.6 26.1121 1756.25 26.7198 Q1759.89 27.3274 1762.97 28.5427 Z" fill="#000000" fill-rule="nonzero" fill-opacity="1"></path><path clip-path="url(#clip830)" d="M1778.33 62.2867 L1786.87 62.2867 L1786.87 72.576 L1778.33 72.576 L1778.33 62.2867 Z" fill="#000000" fill-rule="nonzero" fill-opacity="1"></path><path clip-path="url(#clip830)" d="M1850.55 20.1573 L1839.45 50.2555 L1861.69 50.2555 L1850.55 20.1573 M1845.93 12.096 L1855.21 12.096 L1878.26 72.576 L1869.75 72.576 L1864.24 57.061 L1836.98 57.061 L1831.47 72.576 L1822.84 72.576 L1845.93 12.096 Z" fill="#000000" fill-rule="nonzero" fill-opacity="1"></path><path clip-path="url(#clip830)" d="M1906.78 9.54393 L1906.78 15.7418 L1899.65 15.7418 Q1895.64 15.7418 1894.06 17.3622 Q1892.52 18.9825 1892.52 23.1955 L1892.52 27.2059 L1904.79 27.2059 L1904.79 32.9987 L1892.52 32.9987 L1892.52 72.576 L1885.03 72.576 L1885.03 32.9987 L1877.9 32.9987 L1877.9 27.2059 L1885.03 27.2059 L1885.03 24.0462 Q1885.03 16.471 1888.55 13.0277 Q1892.07 9.54393 1899.73 9.54393 L1906.78 9.54393 Z" fill="#000000" fill-rule="nonzero" fill-opacity="1"></path><path clip-path="url(#clip830)" d="M1918.93 14.324 L1918.93 27.2059 L1934.29 27.2059 L1934.29 32.9987 L1918.93 32.9987 L1918.93 57.6282 Q1918.93 63.1779 1920.43 64.7578 Q1921.97 66.3376 1926.63 66.3376 L1934.29 66.3376 L1934.29 72.576 L1926.63 72.576 Q1918 72.576 1914.72 69.3758 Q1911.44 66.1351 1911.44 57.6282 L1911.44 32.9987 L1905.97 32.9987 L1905.97 27.2059 L1911.44 27.2059 L1911.44 14.324 L1918.93 14.324 Z" fill="#000000" fill-rule="nonzero" fill-opacity="1"></path><path clip-path="url(#clip830)" d="M1982.9 48.0275 L1982.9 51.6733 L1948.63 51.6733 Q1949.11 59.3701 1953.24 63.421 Q1957.42 67.4314 1964.83 67.4314 Q1969.12 67.4314 1973.13 66.3781 Q1977.18 65.3249 1981.15 63.2184 L1981.15 70.267 Q1977.14 71.9684 1972.93 72.8596 Q1968.72 73.7508 1964.38 73.7508 Q1953.53 73.7508 1947.17 67.4314 Q1940.85 61.1119 1940.85 50.3365 Q1940.85 39.1965 1946.84 32.6746 Q1952.88 26.1121 1963.09 26.1121 Q1972.24 26.1121 1977.55 32.0264 Q1982.9 37.9003 1982.9 48.0275 M1975.44 45.84 Q1975.36 39.7232 1972 36.0774 Q1968.68 32.4315 1963.17 32.4315 Q1956.93 32.4315 1953.16 35.9558 Q1949.44 39.4801 1948.87 45.8805 L1975.44 45.84 Z" fill="#000000" fill-rule="nonzero" fill-opacity="1"></path><path clip-path="url(#clip830)" d="M2021.42 34.1734 Q2020.16 33.4443 2018.67 33.1202 Q2017.21 32.7556 2015.42 32.7556 Q2009.11 32.7556 2005.7 36.8875 Q2002.34 40.9789 2002.34 48.6757 L2002.34 72.576 L1994.85 72.576 L1994.85 27.2059 L2002.34 27.2059 L2002.34 34.2544 Q2004.69 30.1225 2008.46 28.1376 Q2012.22 26.1121 2017.61 26.1121 Q2018.38 26.1121 2019.31 26.2337 Q2020.25 26.3147 2021.38 26.5172 L2021.42 34.1734 Z" fill="#000000" fill-rule="nonzero" fill-opacity="1"></path><path clip-path="url(#clip830)" d="M2101.22 16.7545 L2101.22 25.383 Q2097.09 21.5346 2092.39 19.6307 Q2087.73 17.7268 2082.47 17.7268 Q2072.1 17.7268 2066.59 24.0867 Q2061.08 30.4061 2061.08 42.3968 Q2061.08 54.3469 2066.59 60.7069 Q2072.1 67.0263 2082.47 67.0263 Q2087.73 67.0263 2092.39 65.1223 Q2097.09 63.2184 2101.22 59.3701 L2101.22 67.9175 Q2096.93 70.8341 2092.11 72.2924 Q2087.33 73.7508 2081.98 73.7508 Q2068.25 73.7508 2060.35 65.3654 Q2052.45 56.9395 2052.45 42.3968 Q2052.45 27.8135 2060.35 19.4281 Q2068.25 11.0023 2081.98 11.0023 Q2087.41 11.0023 2092.19 12.4606 Q2097.01 13.8784 2101.22 16.7545 Z" fill="#000000" fill-rule="nonzero" fill-opacity="1"></path><path clip-path="url(#clip830)" d="M2131.12 32.4315 Q2125.12 32.4315 2121.64 37.1306 Q2118.16 41.7891 2118.16 49.9314 Q2118.16 58.0738 2121.6 62.7728 Q2125.08 67.4314 2131.12 67.4314 Q2137.07 67.4314 2140.56 62.7323 Q2144.04 58.0333 2144.04 49.9314 Q2144.04 41.8701 2140.56 37.1711 Q2137.07 32.4315 2131.12 32.4315 M2131.12 26.1121 Q2140.84 26.1121 2146.39 32.4315 Q2151.94 38.7509 2151.94 49.9314 Q2151.94 61.0714 2146.39 67.4314 Q2140.84 73.7508 2131.12 73.7508 Q2121.36 73.7508 2115.81 67.4314 Q2110.3 61.0714 2110.3 49.9314 Q2110.3 38.7509 2115.81 32.4315 Q2121.36 26.1121 2131.12 26.1121 Z" fill="#000000" fill-rule="nonzero" fill-opacity="1"></path><path clip-path="url(#clip830)" d="M2199.62 35.9153 Q2202.41 30.8922 2206.3 28.5022 Q2210.19 26.1121 2215.46 26.1121 Q2222.55 26.1121 2226.4 31.0947 Q2230.24 36.0368 2230.24 45.1919 L2230.24 72.576 L2222.75 72.576 L2222.75 45.4349 Q2222.75 38.913 2220.44 35.7533 Q2218.13 32.5936 2213.39 32.5936 Q2207.6 32.5936 2204.24 36.4419 Q2200.88 40.2903 2200.88 46.9338 L2200.88 72.576 L2193.38 72.576 L2193.38 45.4349 Q2193.38 38.8725 2191.07 35.7533 Q2188.76 32.5936 2183.94 32.5936 Q2178.23 32.5936 2174.87 36.4824 Q2171.51 40.3308 2171.51 46.9338 L2171.51 72.576 L2164.01 72.576 L2164.01 27.2059 L2171.51 27.2059 L2171.51 34.2544 Q2174.06 30.082 2177.62 28.0971 Q2181.19 26.1121 2186.09 26.1121 Q2191.03 26.1121 2194.47 28.6237 Q2197.96 31.1352 2199.62 35.9153 Z" fill="#000000" fill-rule="nonzero" fill-opacity="1"></path><path clip-path="url(#clip830)" d="M2252.32 65.7705 L2252.32 89.8329 L2244.83 89.8329 L2244.83 27.2059 L2252.32 27.2059 L2252.32 34.0924 Q2254.67 30.0415 2258.24 28.0971 Q2261.84 26.1121 2266.82 26.1121 Q2275.09 26.1121 2280.23 32.6746 Q2285.42 39.2371 2285.42 49.9314 Q2285.42 60.6258 2280.23 67.1883 Q2275.09 73.7508 2266.82 73.7508 Q2261.84 73.7508 2258.24 71.8063 Q2254.67 69.8214 2252.32 65.7705 M2277.68 49.9314 Q2277.68 41.7081 2274.28 37.0496 Q2270.92 32.3505 2265 32.3505 Q2259.09 32.3505 2255.68 37.0496 Q2252.32 41.7081 2252.32 49.9314 Q2252.32 58.1548 2255.68 62.8538 Q2259.09 67.5124 2265 67.5124 Q2270.92 67.5124 2274.28 62.8538 Q2277.68 58.1548 2277.68 49.9314 Z" fill="#000000" fill-rule="nonzero" fill-opacity="1"></path><path clip-path="url(#clip830)" d="M2336.58 48.0275 L2336.58 51.6733 L2302.31 51.6733 Q2302.8 59.3701 2306.93 63.421 Q2311.1 67.4314 2318.51 67.4314 Q2322.81 67.4314 2326.82 66.3781 Q2330.87 65.3249 2334.84 63.2184 L2334.84 70.267 Q2330.83 71.9684 2326.62 72.8596 Q2322.4 73.7508 2318.07 73.7508 Q2307.21 73.7508 2300.85 67.4314 Q2294.53 61.1119 2294.53 50.3365 Q2294.53 39.1965 2300.53 32.6746 Q2306.56 26.1121 2316.77 26.1121 Q2325.93 26.1121 2331.23 32.0264 Q2336.58 37.9003 2336.58 48.0275 M2329.13 45.84 Q2329.05 39.7232 2325.68 36.0774 Q2322.36 32.4315 2316.85 32.4315 Q2310.61 32.4315 2306.85 35.9558 Q2303.12 39.4801 2302.55 45.8805 L2329.13 45.84 Z" fill="#000000" fill-rule="nonzero" fill-opacity="1"></path><path clip-path="url(#clip830)" d="M2386.53 45.1919 L2386.53 72.576 L2379.07 72.576 L2379.07 45.4349 Q2379.07 38.994 2376.56 35.7938 Q2374.05 32.5936 2369.03 32.5936 Q2362.99 32.5936 2359.51 36.4419 Q2356.02 40.2903 2356.02 46.9338 L2356.02 72.576 L2348.53 72.576 L2348.53 27.2059 L2356.02 27.2059 L2356.02 34.2544 Q2358.7 30.163 2362.3 28.1376 Q2365.95 26.1121 2370.69 26.1121 Q2378.51 26.1121 2382.52 30.9732 Q2386.53 35.7938 2386.53 45.1919 Z" fill="#000000" fill-rule="nonzero" fill-opacity="1"></path><path clip-path="url(#clip830)" d="M2430.32 28.5427 L2430.32 35.5912 Q2427.16 33.9709 2423.76 33.1607 Q2420.35 32.3505 2416.71 32.3505 Q2411.16 32.3505 2408.36 34.0519 Q2405.61 35.7533 2405.61 39.156 Q2405.61 41.7486 2407.59 43.2475 Q2409.58 44.7058 2415.57 46.0426 L2418.13 46.6097 Q2426.06 48.3111 2429.39 51.4303 Q2432.75 54.509 2432.75 60.0587 Q2432.75 66.3781 2427.73 70.0644 Q2422.74 73.7508 2413.99 73.7508 Q2410.35 73.7508 2406.38 73.0216 Q2402.45 72.3329 2398.07 70.9151 L2398.07 63.2184 Q2402.2 65.3654 2406.22 66.4591 Q2410.23 67.5124 2414.16 67.5124 Q2419.42 67.5124 2422.26 65.73 Q2425.09 63.9071 2425.09 60.6258 Q2425.09 57.5877 2423.03 55.9673 Q2421 54.3469 2414.07 52.8481 L2411.48 52.2405 Q2404.55 50.7821 2401.48 47.7845 Q2398.4 44.7463 2398.4 39.4801 Q2398.4 33.0797 2402.93 29.5959 Q2407.47 26.1121 2415.82 26.1121 Q2419.95 26.1121 2423.59 26.7198 Q2427.24 27.3274 2430.32 28.5427 Z" fill="#000000" fill-rule="nonzero" fill-opacity="1"></path><path clip-path="url(#clip830)" d="M2465.24 49.7694 Q2456.2 49.7694 2452.72 51.8354 Q2449.24 53.9013 2449.24 58.8839 Q2449.24 62.8538 2451.83 65.2034 Q2454.46 67.5124 2458.96 67.5124 Q2465.16 67.5124 2468.88 63.1374 Q2472.65 58.7219 2472.65 51.4303 L2472.65 49.7694 L2465.24 49.7694 M2480.1 46.6907 L2480.1 72.576 L2472.65 72.576 L2472.65 65.6895 Q2470.1 69.8214 2466.29 71.8063 Q2462.48 73.7508 2456.97 73.7508 Q2450.01 73.7508 2445.87 69.8619 Q2441.78 65.9325 2441.78 59.3701 Q2441.78 51.7138 2446.89 47.825 Q2452.03 43.9361 2462.2 43.9361 L2472.65 43.9361 L2472.65 43.2069 Q2472.65 38.0623 2469.25 35.2672 Q2465.89 32.4315 2459.77 32.4315 Q2455.88 32.4315 2452.19 33.3632 Q2448.51 34.295 2445.1 36.1584 L2445.1 29.2718 Q2449.2 27.692 2453.04 26.9223 Q2456.89 26.1121 2460.54 26.1121 Q2470.38 26.1121 2475.24 31.2163 Q2480.1 36.3204 2480.1 46.6907 Z" fill="#000000" fill-rule="nonzero" fill-opacity="1"></path><path clip-path="url(#clip830)" d="M2502.83 14.324 L2502.83 27.2059 L2518.18 27.2059 L2518.18 32.9987 L2502.83 32.9987 L2502.83 57.6282 Q2502.83 63.1779 2504.33 64.7578 Q2505.87 66.3376 2510.53 66.3376 L2518.18 66.3376 L2518.18 72.576 L2510.53 72.576 Q2501.9 72.576 2498.62 69.3758 Q2495.34 66.1351 2495.34 57.6282 L2495.34 32.9987 L2489.87 32.9987 L2489.87 27.2059 L2495.34 27.2059 L2495.34 14.324 L2502.83 14.324 Z" fill="#000000" fill-rule="nonzero" fill-opacity="1"></path><path clip-path="url(#clip830)" d="M2527.99 27.2059 L2535.44 27.2059 L2535.44 72.576 L2527.99 72.576 L2527.99 27.2059 M2527.99 9.54393 L2535.44 9.54393 L2535.44 18.9825 L2527.99 18.9825 L2527.99 9.54393 Z" fill="#000000" fill-rule="nonzero" fill-opacity="1"></path><path clip-path="url(#clip830)" d="M2568.62 32.4315 Q2562.62 32.4315 2559.14 37.1306 Q2555.65 41.7891 2555.65 49.9314 Q2555.65 58.0738 2559.1 62.7728 Q2562.58 67.4314 2568.62 67.4314 Q2574.57 67.4314 2578.05 62.7323 Q2581.54 58.0333 2581.54 49.9314 Q2581.54 41.8701 2578.05 37.1711 Q2574.57 32.4315 2568.62 32.4315 M2568.62 26.1121 Q2578.34 26.1121 2583.89 32.4315 Q2589.44 38.7509 2589.44 49.9314 Q2589.44 61.0714 2583.89 67.4314 Q2578.34 73.7508 2568.62 73.7508 Q2558.85 73.7508 2553.3 67.4314 Q2547.79 61.0714 2547.79 49.9314 Q2547.79 38.7509 2553.3 32.4315 Q2558.85 26.1121 2568.62 26.1121 Z" fill="#000000" fill-rule="nonzero" fill-opacity="1"></path><path clip-path="url(#clip830)" d="M2639.51 45.1919 L2639.51 72.576 L2632.05 72.576 L2632.05 45.4349 Q2632.05 38.994 2629.54 35.7938 Q2627.03 32.5936 2622.01 32.5936 Q2615.97 32.5936 2612.49 36.4419 Q2609 40.2903 2609 46.9338 L2609 72.576 L2601.51 72.576 L2601.51 27.2059 L2609 27.2059 L2609 34.2544 Q2611.68 30.163 2615.28 28.1376 Q2618.93 26.1121 2623.67 26.1121 Q2631.49 26.1121 2635.5 30.9732 Q2639.51 35.7938 2639.51 45.1919 Z" fill="#000000" fill-rule="nonzero" fill-opacity="1"></path><path clip-path="url(#clip830)" d="M2653.2 9.62495 L2659.68 9.62495 Q2665.76 19.1851 2668.75 28.3401 Q2671.79 37.4952 2671.79 46.5287 Q2671.79 55.6027 2668.75 64.7983 Q2665.76 73.9938 2659.68 83.5134 L2653.2 83.5134 Q2658.59 74.2369 2661.22 65.0818 Q2663.89 55.8863 2663.89 46.5287 Q2663.89 37.1711 2661.22 28.0566 Q2658.59 18.942 2653.2 9.62495 Z" fill="#000000" fill-rule="nonzero" fill-opacity="1"></path><path clip-path="url(#clip832)" d="M317.313 123.472 L317.313 1423.18 L430.275 1423.18 L430.275 123.472 L317.313 123.472 L317.313 123.472  Z" fill="#0000ff" fill-rule="evenodd" fill-opacity="1"></path>
<polyline clip-path="url(#clip832)" style="stroke:#000000; stroke-linecap:round; stroke-linejoin:round; stroke-width:4; stroke-opacity:1; fill:none" points="317.313,123.472 317.313,1423.18 430.275,1423.18 430.275,123.472 317.313,123.472 "></polyline>
<path clip-path="url(#clip832)" d="M882.124 1049.15 L882.124 1423.18 L995.086 1423.18 L995.086 1049.15 L882.124 1049.15 L882.124 1049.15  Z" fill="#0000ff" fill-rule="evenodd" fill-opacity="1"></path>
<polyline clip-path="url(#clip832)" style="stroke:#000000; stroke-linecap:round; stroke-linejoin:round; stroke-width:4; stroke-opacity:1; fill:none" points="882.124,1049.15 882.124,1423.18 995.086,1423.18 995.086,1049.15 882.124,1049.15 "></polyline>
<path clip-path="url(#clip832)" d="M1446.93 225.279 L1446.93 1423.18 L1559.9 1423.18 L1559.9 225.279 L1446.93 225.279 L1446.93 225.279  Z" fill="#0000ff" fill-rule="evenodd" fill-opacity="1"></path>
<polyline clip-path="url(#clip832)" style="stroke:#000000; stroke-linecap:round; stroke-linejoin:round; stroke-width:4; stroke-opacity:1; fill:none" points="1446.93,225.279 1446.93,1423.18 1559.9,1423.18 1559.9,225.279 1446.93,225.279 "></polyline>
<path clip-path="url(#clip832)" d="M2011.75 677.469 L2011.75 1423.18 L2124.71 1423.18 L2124.71 677.469 L2011.75 677.469 L2011.75 677.469  Z" fill="#0000ff" fill-rule="evenodd" fill-opacity="1"></path>
<polyline clip-path="url(#clip832)" style="stroke:#000000; stroke-linecap:round; stroke-linejoin:round; stroke-width:4; stroke-opacity:1; fill:none" points="2011.75,677.469 2011.75,1423.18 2124.71,1423.18 2124.71,677.469 2011.75,677.469 "></polyline>
<circle clip-path="url(#clip832)" style="fill:#0000ff; stroke:none; fill-opacity:0" cx="373.794" cy="123.472" r="2"></circle>
<circle clip-path="url(#clip832)" style="fill:#0000ff; stroke:none; fill-opacity:0" cx="938.605" cy="1049.15" r="2"></circle>
<circle clip-path="url(#clip832)" style="fill:#0000ff; stroke:none; fill-opacity:0" cx="1503.42" cy="225.279" r="2"></circle>
<circle clip-path="url(#clip832)" style="fill:#0000ff; stroke:none; fill-opacity:0" cx="2068.23" cy="677.469" r="2"></circle>
<path clip-path="url(#clip832)" d="M430.275 123.671 L430.275 1423.18 L543.238 1423.18 L543.238 123.671 L430.275 123.671 L430.275 123.671  Z" fill="#ff0000" fill-rule="evenodd" fill-opacity="1"></path>
<polyline clip-path="url(#clip832)" style="stroke:#000000; stroke-linecap:round; stroke-linejoin:round; stroke-width:4; stroke-opacity:1; fill:none" points="430.275,123.671 430.275,1423.18 543.238,1423.18 543.238,123.671 430.275,123.671 "></polyline>
<path clip-path="url(#clip832)" d="M995.086 1048.42 L995.086 1423.18 L1108.05 1423.18 L1108.05 1048.42 L995.086 1048.42 L995.086 1048.42  Z" fill="#ff0000" fill-rule="evenodd" fill-opacity="1"></path>
<polyline clip-path="url(#clip832)" style="stroke:#000000; stroke-linecap:round; stroke-linejoin:round; stroke-width:4; stroke-opacity:1; fill:none" points="995.086,1048.42 995.086,1423.18 1108.05,1423.18 1108.05,1048.42 995.086,1048.42 "></polyline>
<path clip-path="url(#clip832)" d="M1559.9 227.578 L1559.9 1423.18 L1672.86 1423.18 L1672.86 227.578 L1559.9 227.578 L1559.9 227.578  Z" fill="#ff0000" fill-rule="evenodd" fill-opacity="1"></path>
<polyline clip-path="url(#clip832)" style="stroke:#000000; stroke-linecap:round; stroke-linejoin:round; stroke-width:4; stroke-opacity:1; fill:none" points="1559.9,227.578 1559.9,1423.18 1672.86,1423.18 1672.86,227.578 1559.9,227.578 "></polyline>
<path clip-path="url(#clip832)" d="M2124.71 900.274 L2124.71 1423.18 L2237.67 1423.18 L2237.67 900.274 L2124.71 900.274 L2124.71 900.274  Z" fill="#ff0000" fill-rule="evenodd" fill-opacity="1"></path>
<polyline clip-path="url(#clip832)" style="stroke:#000000; stroke-linecap:round; stroke-linejoin:round; stroke-width:4; stroke-opacity:1; fill:none" points="2124.71,900.274 2124.71,1423.18 2237.67,1423.18 2237.67,900.274 2124.71,900.274 "></polyline>
<circle clip-path="url(#clip832)" style="fill:#ff0000; stroke:none; fill-opacity:0" cx="486.757" cy="123.671" r="2"></circle>
<circle clip-path="url(#clip832)" style="fill:#ff0000; stroke:none; fill-opacity:0" cx="1051.57" cy="1048.42" r="2"></circle>
<circle clip-path="url(#clip832)" style="fill:#ff0000; stroke:none; fill-opacity:0" cx="1616.38" cy="227.578" r="2"></circle>
<circle clip-path="url(#clip832)" style="fill:#ff0000; stroke:none; fill-opacity:0" cx="2181.19" cy="900.274" r="2"></circle>
<path clip-path="url(#clip830)" d="M1562.48 322.316 L2281.07 322.316 L2281.07 166.796 L1562.48 166.796  Z" fill="#ffffff" fill-rule="evenodd" fill-opacity="1"></path>
<polyline clip-path="url(#clip830)" style="stroke:#000000; stroke-linecap:round; stroke-linejoin:round; stroke-width:4; stroke-opacity:1; fill:none" points="1562.48,322.316 2281.07,322.316 2281.07,166.796 1562.48,166.796 1562.48,322.316 "></polyline>
<path clip-path="url(#clip830)" d="M1586.37 239.372 L1729.74 239.372 L1729.74 197.9 L1586.37 197.9 L1586.37 239.372  Z" fill="#0000ff" fill-rule="evenodd" fill-opacity="1"></path>
<polyline clip-path="url(#clip830)" style="stroke:#000000; stroke-linecap:round; stroke-linejoin:round; stroke-width:4; stroke-opacity:1; fill:none" points="1586.37,239.372 1729.74,239.372 1729.74,197.9 1586.37,197.9 1586.37,239.372 "></polyline>
<path clip-path="url(#clip830)" d="M1758.31 219.411 L1758.31 232.073 L1765.81 232.073 Q1769.59 232.073 1771.39 230.522 Q1773.22 228.948 1773.22 225.731 Q1773.22 222.49 1771.39 220.962 Q1769.59 219.411 1765.81 219.411 L1758.31 219.411 M1758.31 205.198 L1758.31 215.615 L1765.24 215.615 Q1768.66 215.615 1770.33 214.342 Q1772.02 213.045 1772.02 210.407 Q1772.02 207.791 1770.33 206.495 Q1768.66 205.198 1765.24 205.198 L1758.31 205.198 M1753.64 201.356 L1765.58 201.356 Q1770.93 201.356 1773.82 203.578 Q1776.72 205.8 1776.72 209.897 Q1776.72 213.069 1775.24 214.944 Q1773.75 216.819 1770.88 217.282 Q1774.33 218.022 1776.23 220.383 Q1778.15 222.721 1778.15 226.24 Q1778.15 230.869 1775 233.393 Q1771.86 235.916 1766.05 235.916 L1753.64 235.916 L1753.64 201.356 Z" fill="#000000" fill-rule="nonzero" fill-opacity="1"></path><path clip-path="url(#clip830)" d="M1808.15 221.888 L1808.15 223.971 L1788.57 223.971 Q1788.85 228.369 1791.21 230.684 Q1793.59 232.976 1797.83 232.976 Q1800.28 232.976 1802.57 232.374 Q1804.89 231.772 1807.16 230.569 L1807.16 234.596 Q1804.86 235.568 1802.46 236.078 Q1800.05 236.587 1797.57 236.587 Q1791.37 236.587 1787.73 232.976 Q1784.12 229.365 1784.12 223.207 Q1784.12 216.842 1787.55 213.115 Q1791 209.365 1796.83 209.365 Q1802.06 209.365 1805.1 212.745 Q1808.15 216.101 1808.15 221.888 M1803.89 220.638 Q1803.85 217.143 1801.92 215.059 Q1800.03 212.976 1796.88 212.976 Q1793.31 212.976 1791.16 214.99 Q1789.03 217.004 1788.71 220.661 L1803.89 220.638 Z" fill="#000000" fill-rule="nonzero" fill-opacity="1"></path><path clip-path="url(#clip830)" d="M1828.27 199.897 L1828.27 203.439 L1824.19 203.439 Q1821.9 203.439 1821 204.365 Q1820.12 205.291 1820.12 207.698 L1820.12 209.99 L1827.13 209.99 L1827.13 213.3 L1820.12 213.3 L1820.12 235.916 L1815.84 235.916 L1815.84 213.3 L1811.76 213.3 L1811.76 209.99 L1815.84 209.99 L1815.84 208.184 Q1815.84 203.856 1817.85 201.888 Q1819.86 199.897 1824.24 199.897 L1828.27 199.897 Z" fill="#000000" fill-rule="nonzero" fill-opacity="1"></path><path clip-path="url(#clip830)" d="M1841.88 212.976 Q1838.45 212.976 1836.46 215.661 Q1834.47 218.323 1834.47 222.976 Q1834.47 227.629 1836.44 230.314 Q1838.43 232.976 1841.88 232.976 Q1845.28 232.976 1847.27 230.291 Q1849.26 227.606 1849.26 222.976 Q1849.26 218.37 1847.27 215.684 Q1845.28 212.976 1841.88 212.976 M1841.88 209.365 Q1847.43 209.365 1850.6 212.976 Q1853.78 216.587 1853.78 222.976 Q1853.78 229.342 1850.6 232.976 Q1847.43 236.587 1841.88 236.587 Q1836.3 236.587 1833.13 232.976 Q1829.98 229.342 1829.98 222.976 Q1829.98 216.587 1833.13 212.976 Q1836.3 209.365 1841.88 209.365 Z" fill="#000000" fill-rule="nonzero" fill-opacity="1"></path><path clip-path="url(#clip830)" d="M1875.86 213.971 Q1875.14 213.555 1874.29 213.37 Q1873.45 213.161 1872.43 213.161 Q1868.82 213.161 1866.88 215.522 Q1864.96 217.86 1864.96 222.258 L1864.96 235.916 L1860.67 235.916 L1860.67 209.99 L1864.96 209.99 L1864.96 214.018 Q1866.3 211.657 1868.45 210.522 Q1870.6 209.365 1873.68 209.365 Q1874.12 209.365 1874.66 209.434 Q1875.19 209.481 1875.84 209.596 L1875.86 213.971 Z" fill="#000000" fill-rule="nonzero" fill-opacity="1"></path><path clip-path="url(#clip830)" d="M1901.46 221.888 L1901.46 223.971 L1881.88 223.971 Q1882.16 228.369 1884.52 230.684 Q1886.9 232.976 1891.14 232.976 Q1893.59 232.976 1895.88 232.374 Q1898.2 231.772 1900.47 230.569 L1900.47 234.596 Q1898.17 235.568 1895.77 236.078 Q1893.36 236.587 1890.88 236.587 Q1884.68 236.587 1881.04 232.976 Q1877.43 229.365 1877.43 223.207 Q1877.43 216.842 1880.86 213.115 Q1884.31 209.365 1890.14 209.365 Q1895.37 209.365 1898.41 212.745 Q1901.46 216.101 1901.46 221.888 M1897.2 220.638 Q1897.16 217.143 1895.23 215.059 Q1893.34 212.976 1890.19 212.976 Q1886.62 212.976 1884.47 214.99 Q1882.34 217.004 1882.02 220.661 L1897.2 220.638 Z" fill="#000000" fill-rule="nonzero" fill-opacity="1"></path><path clip-path="url(#clip830)" d="M1949.59 204.018 L1949.59 208.948 Q1947.22 206.749 1944.54 205.661 Q1941.88 204.573 1938.87 204.573 Q1932.94 204.573 1929.79 208.208 Q1926.65 211.819 1926.65 218.67 Q1926.65 225.499 1929.79 229.133 Q1932.94 232.744 1938.87 232.744 Q1941.88 232.744 1944.54 231.656 Q1947.22 230.569 1949.59 228.369 L1949.59 233.254 Q1947.13 234.92 1944.38 235.754 Q1941.65 236.587 1938.59 236.587 Q1930.74 236.587 1926.23 231.795 Q1921.72 226.981 1921.72 218.67 Q1921.72 210.337 1926.23 205.546 Q1930.74 200.731 1938.59 200.731 Q1941.69 200.731 1944.42 201.564 Q1947.18 202.374 1949.59 204.018 Z" fill="#000000" fill-rule="nonzero" fill-opacity="1"></path><path clip-path="url(#clip830)" d="M1966.67 212.976 Q1963.24 212.976 1961.25 215.661 Q1959.26 218.323 1959.26 222.976 Q1959.26 227.629 1961.23 230.314 Q1963.22 232.976 1966.67 232.976 Q1970.07 232.976 1972.06 230.291 Q1974.05 227.606 1974.05 222.976 Q1974.05 218.37 1972.06 215.684 Q1970.07 212.976 1966.67 212.976 M1966.67 209.365 Q1972.22 209.365 1975.4 212.976 Q1978.57 216.587 1978.57 222.976 Q1978.57 229.342 1975.4 232.976 Q1972.22 236.587 1966.67 236.587 Q1961.09 236.587 1957.92 232.976 Q1954.77 229.342 1954.77 222.976 Q1954.77 216.587 1957.92 212.976 Q1961.09 209.365 1966.67 209.365 Z" fill="#000000" fill-rule="nonzero" fill-opacity="1"></path><path clip-path="url(#clip830)" d="M2005.81 214.967 Q2007.41 212.096 2009.63 210.731 Q2011.85 209.365 2014.86 209.365 Q2018.91 209.365 2021.11 212.212 Q2023.31 215.036 2023.31 220.268 L2023.31 235.916 L2019.03 235.916 L2019.03 220.407 Q2019.03 216.68 2017.71 214.874 Q2016.39 213.069 2013.68 213.069 Q2010.37 213.069 2008.45 215.268 Q2006.53 217.467 2006.53 221.263 L2006.53 235.916 L2002.25 235.916 L2002.25 220.407 Q2002.25 216.657 2000.93 214.874 Q1999.61 213.069 1996.85 213.069 Q1993.59 213.069 1991.67 215.291 Q1989.75 217.49 1989.75 221.263 L1989.75 235.916 L1985.47 235.916 L1985.47 209.99 L1989.75 209.99 L1989.75 214.018 Q1991.21 211.633 1993.24 210.499 Q1995.28 209.365 1998.08 209.365 Q2000.91 209.365 2002.87 210.8 Q2004.86 212.235 2005.81 214.967 Z" fill="#000000" fill-rule="nonzero" fill-opacity="1"></path><path clip-path="url(#clip830)" d="M2035.93 232.027 L2035.93 245.777 L2031.65 245.777 L2031.65 209.99 L2035.93 209.99 L2035.93 213.925 Q2037.27 211.61 2039.31 210.499 Q2041.37 209.365 2044.22 209.365 Q2048.94 209.365 2051.88 213.115 Q2054.84 216.865 2054.84 222.976 Q2054.84 229.087 2051.88 232.837 Q2048.94 236.587 2044.22 236.587 Q2041.37 236.587 2039.31 235.476 Q2037.27 234.342 2035.93 232.027 M2050.42 222.976 Q2050.42 218.277 2048.47 215.615 Q2046.55 212.93 2043.17 212.93 Q2039.79 212.93 2037.85 215.615 Q2035.93 218.277 2035.93 222.976 Q2035.93 227.675 2037.85 230.36 Q2039.79 233.022 2043.17 233.022 Q2046.55 233.022 2048.47 230.36 Q2050.42 227.675 2050.42 222.976 Z" fill="#000000" fill-rule="nonzero" fill-opacity="1"></path><path clip-path="url(#clip830)" d="M2084.08 221.888 L2084.08 223.971 L2064.49 223.971 Q2064.77 228.369 2067.13 230.684 Q2069.52 232.976 2073.75 232.976 Q2076.21 232.976 2078.5 232.374 Q2080.81 231.772 2083.08 230.569 L2083.08 234.596 Q2080.79 235.568 2078.38 236.078 Q2075.97 236.587 2073.5 236.587 Q2067.29 236.587 2063.66 232.976 Q2060.05 229.365 2060.05 223.207 Q2060.05 216.842 2063.47 213.115 Q2066.92 209.365 2072.76 209.365 Q2077.99 209.365 2081.02 212.745 Q2084.08 216.101 2084.08 221.888 M2079.82 220.638 Q2079.77 217.143 2077.85 215.059 Q2075.95 212.976 2072.8 212.976 Q2069.24 212.976 2067.09 214.99 Q2064.96 217.004 2064.63 220.661 L2079.82 220.638 Z" fill="#000000" fill-rule="nonzero" fill-opacity="1"></path><path clip-path="url(#clip830)" d="M2112.62 220.268 L2112.62 235.916 L2108.36 235.916 L2108.36 220.407 Q2108.36 216.726 2106.92 214.897 Q2105.49 213.069 2102.62 213.069 Q2099.17 213.069 2097.18 215.268 Q2095.19 217.467 2095.19 221.263 L2095.19 235.916 L2090.9 235.916 L2090.9 209.99 L2095.19 209.99 L2095.19 214.018 Q2096.71 211.68 2098.77 210.522 Q2100.86 209.365 2103.57 209.365 Q2108.03 209.365 2110.33 212.143 Q2112.62 214.897 2112.62 220.268 Z" fill="#000000" fill-rule="nonzero" fill-opacity="1"></path><path clip-path="url(#clip830)" d="M2137.64 210.754 L2137.64 214.782 Q2135.83 213.856 2133.89 213.393 Q2131.95 212.93 2129.86 212.93 Q2126.69 212.93 2125.09 213.902 Q2123.52 214.874 2123.52 216.819 Q2123.52 218.3 2124.65 219.157 Q2125.79 219.99 2129.21 220.754 L2130.67 221.078 Q2135.21 222.05 2137.11 223.832 Q2139.03 225.592 2139.03 228.763 Q2139.03 232.374 2136.16 234.481 Q2133.31 236.587 2128.31 236.587 Q2126.23 236.587 2123.96 236.17 Q2121.71 235.777 2119.21 234.967 L2119.21 230.569 Q2121.58 231.795 2123.87 232.42 Q2126.16 233.022 2128.4 233.022 Q2131.41 233.022 2133.03 232.004 Q2134.65 230.962 2134.65 229.087 Q2134.65 227.351 2133.47 226.425 Q2132.32 225.499 2128.36 224.643 L2126.88 224.295 Q2122.92 223.462 2121.16 221.749 Q2119.4 220.013 2119.4 217.004 Q2119.4 213.346 2121.99 211.356 Q2124.58 209.365 2129.35 209.365 Q2131.71 209.365 2133.8 209.712 Q2135.88 210.059 2137.64 210.754 Z" fill="#000000" fill-rule="nonzero" fill-opacity="1"></path><path clip-path="url(#clip830)" d="M2157.59 222.883 Q2152.43 222.883 2150.44 224.064 Q2148.45 225.244 2148.45 228.092 Q2148.45 230.36 2149.93 231.703 Q2151.44 233.022 2154.01 233.022 Q2157.55 233.022 2159.68 230.522 Q2161.83 227.999 2161.83 223.832 L2161.83 222.883 L2157.59 222.883 M2166.09 221.124 L2166.09 235.916 L2161.83 235.916 L2161.83 231.981 Q2160.37 234.342 2158.2 235.476 Q2156.02 236.587 2152.87 236.587 Q2148.89 236.587 2146.53 234.365 Q2144.19 232.119 2144.19 228.369 Q2144.19 223.994 2147.11 221.772 Q2150.05 219.55 2155.86 219.55 L2161.83 219.55 L2161.83 219.133 Q2161.83 216.194 2159.89 214.596 Q2157.96 212.976 2154.47 212.976 Q2152.25 212.976 2150.14 213.508 Q2148.03 214.041 2146.09 215.106 L2146.09 211.17 Q2148.43 210.268 2150.63 209.828 Q2152.83 209.365 2154.91 209.365 Q2160.53 209.365 2163.31 212.282 Q2166.09 215.198 2166.09 221.124 Z" fill="#000000" fill-rule="nonzero" fill-opacity="1"></path><path clip-path="url(#clip830)" d="M2179.08 202.629 L2179.08 209.99 L2187.85 209.99 L2187.85 213.3 L2179.08 213.3 L2179.08 227.374 Q2179.08 230.545 2179.93 231.448 Q2180.81 232.351 2183.47 232.351 L2187.85 232.351 L2187.85 235.916 L2183.47 235.916 Q2178.54 235.916 2176.67 234.087 Q2174.79 232.235 2174.79 227.374 L2174.79 213.3 L2171.67 213.3 L2171.67 209.99 L2174.79 209.99 L2174.79 202.629 L2179.08 202.629 Z" fill="#000000" fill-rule="nonzero" fill-opacity="1"></path><path clip-path="url(#clip830)" d="M2193.45 209.99 L2197.71 209.99 L2197.71 235.916 L2193.45 235.916 L2193.45 209.99 M2193.45 199.897 L2197.71 199.897 L2197.71 205.291 L2193.45 205.291 L2193.45 199.897 Z" fill="#000000" fill-rule="nonzero" fill-opacity="1"></path><path clip-path="url(#clip830)" d="M2216.67 212.976 Q2213.24 212.976 2211.25 215.661 Q2209.26 218.323 2209.26 222.976 Q2209.26 227.629 2211.23 230.314 Q2213.22 232.976 2216.67 232.976 Q2220.07 232.976 2222.06 230.291 Q2224.05 227.606 2224.05 222.976 Q2224.05 218.37 2222.06 215.684 Q2220.07 212.976 2216.67 212.976 M2216.67 209.365 Q2222.22 209.365 2225.39 212.976 Q2228.57 216.587 2228.57 222.976 Q2228.57 229.342 2225.39 232.976 Q2222.22 236.587 2216.67 236.587 Q2211.09 236.587 2207.92 232.976 Q2204.77 229.342 2204.77 222.976 Q2204.77 216.587 2207.92 212.976 Q2211.09 209.365 2216.67 209.365 Z" fill="#000000" fill-rule="nonzero" fill-opacity="1"></path><path clip-path="url(#clip830)" d="M2257.18 220.268 L2257.18 235.916 L2252.92 235.916 L2252.92 220.407 Q2252.92 216.726 2251.48 214.897 Q2250.05 213.069 2247.18 213.069 Q2243.73 213.069 2241.74 215.268 Q2239.75 217.467 2239.75 221.263 L2239.75 235.916 L2235.46 235.916 L2235.46 209.99 L2239.75 209.99 L2239.75 214.018 Q2241.27 211.68 2243.33 210.522 Q2245.42 209.365 2248.13 209.365 Q2252.59 209.365 2254.89 212.143 Q2257.18 214.897 2257.18 220.268 Z" fill="#000000" fill-rule="nonzero" fill-opacity="1"></path><path clip-path="url(#clip830)" d="M1586.37 291.212 L1729.74 291.212 L1729.74 249.74 L1586.37 249.74 L1586.37 291.212  Z" fill="#ff0000" fill-rule="evenodd" fill-opacity="1"></path>
<polyline clip-path="url(#clip830)" style="stroke:#000000; stroke-linecap:round; stroke-linejoin:round; stroke-width:4; stroke-opacity:1; fill:none" points="1586.37,291.212 1729.74,291.212 1729.74,249.74 1586.37,249.74 1586.37,291.212 "></polyline>
<path clip-path="url(#clip830)" d="M1769.47 257.802 L1763.13 275.001 L1775.84 275.001 L1769.47 257.802 M1766.83 253.196 L1772.13 253.196 L1785.3 287.756 L1780.44 287.756 L1777.3 278.89 L1761.72 278.89 L1758.57 287.756 L1753.64 287.756 L1766.83 253.196 Z" fill="#000000" fill-rule="nonzero" fill-opacity="1"></path><path clip-path="url(#clip830)" d="M1801.6 251.737 L1801.6 255.279 L1797.53 255.279 Q1795.23 255.279 1794.33 256.205 Q1793.45 257.131 1793.45 259.538 L1793.45 261.83 L1800.47 261.83 L1800.47 265.14 L1793.45 265.14 L1793.45 287.756 L1789.17 287.756 L1789.17 265.14 L1785.1 265.14 L1785.1 261.83 L1789.17 261.83 L1789.17 260.024 Q1789.17 255.696 1791.18 253.728 Q1793.2 251.737 1797.57 251.737 L1801.6 251.737 Z" fill="#000000" fill-rule="nonzero" fill-opacity="1"></path><path clip-path="url(#clip830)" d="M1808.55 254.469 L1808.55 261.83 L1817.32 261.83 L1817.32 265.14 L1808.55 265.14 L1808.55 279.214 Q1808.55 282.385 1809.4 283.288 Q1810.28 284.191 1812.94 284.191 L1817.32 284.191 L1817.32 287.756 L1812.94 287.756 Q1808.01 287.756 1806.14 285.927 Q1804.26 284.075 1804.26 279.214 L1804.26 265.14 L1801.14 265.14 L1801.14 261.83 L1804.26 261.83 L1804.26 254.469 L1808.55 254.469 Z" fill="#000000" fill-rule="nonzero" fill-opacity="1"></path><path clip-path="url(#clip830)" d="M1845.1 273.728 L1845.1 275.811 L1825.51 275.811 Q1825.79 280.209 1828.15 282.524 Q1830.54 284.816 1834.77 284.816 Q1837.23 284.816 1839.52 284.214 Q1841.83 283.612 1844.1 282.409 L1844.1 286.436 Q1841.81 287.408 1839.4 287.918 Q1836.99 288.427 1834.52 288.427 Q1828.31 288.427 1824.68 284.816 Q1821.07 281.205 1821.07 275.047 Q1821.07 268.682 1824.49 264.955 Q1827.94 261.205 1833.78 261.205 Q1839.01 261.205 1842.04 264.585 Q1845.1 267.941 1845.1 273.728 M1840.84 272.478 Q1840.79 268.983 1838.87 266.899 Q1836.97 264.816 1833.82 264.816 Q1830.26 264.816 1828.11 266.83 Q1825.98 268.844 1825.65 272.501 L1840.84 272.478 Z" fill="#000000" fill-rule="nonzero" fill-opacity="1"></path><path clip-path="url(#clip830)" d="M1867.11 265.811 Q1866.39 265.395 1865.54 265.21 Q1864.7 265.001 1863.68 265.001 Q1860.07 265.001 1858.13 267.362 Q1856.21 269.7 1856.21 274.098 L1856.21 287.756 L1851.92 287.756 L1851.92 261.83 L1856.21 261.83 L1856.21 265.858 Q1857.55 263.497 1859.7 262.362 Q1861.85 261.205 1864.93 261.205 Q1865.37 261.205 1865.91 261.274 Q1866.44 261.321 1867.09 261.436 L1867.11 265.811 Z" fill="#000000" fill-rule="nonzero" fill-opacity="1"></path><path clip-path="url(#clip830)" d="M1912.71 255.858 L1912.71 260.788 Q1910.35 258.589 1907.66 257.501 Q1905 256.413 1901.99 256.413 Q1896.07 256.413 1892.92 260.048 Q1889.77 263.659 1889.77 270.51 Q1889.77 277.339 1892.92 280.973 Q1896.07 284.584 1901.99 284.584 Q1905 284.584 1907.66 283.496 Q1910.35 282.409 1912.71 280.209 L1912.71 285.094 Q1910.26 286.76 1907.5 287.594 Q1904.77 288.427 1901.72 288.427 Q1893.87 288.427 1889.35 283.635 Q1884.84 278.821 1884.84 270.51 Q1884.84 262.177 1889.35 257.386 Q1893.87 252.571 1901.72 252.571 Q1904.82 252.571 1907.55 253.404 Q1910.3 254.214 1912.71 255.858 Z" fill="#000000" fill-rule="nonzero" fill-opacity="1"></path><path clip-path="url(#clip830)" d="M1929.79 264.816 Q1926.37 264.816 1924.38 267.501 Q1922.39 270.163 1922.39 274.816 Q1922.39 279.469 1924.35 282.154 Q1926.35 284.816 1929.79 284.816 Q1933.2 284.816 1935.19 282.131 Q1937.18 279.446 1937.18 274.816 Q1937.18 270.21 1935.19 267.524 Q1933.2 264.816 1929.79 264.816 M1929.79 261.205 Q1935.35 261.205 1938.52 264.816 Q1941.69 268.427 1941.69 274.816 Q1941.69 281.182 1938.52 284.816 Q1935.35 288.427 1929.79 288.427 Q1924.22 288.427 1921.04 284.816 Q1917.9 281.182 1917.9 274.816 Q1917.9 268.427 1921.04 264.816 Q1924.22 261.205 1929.79 261.205 Z" fill="#000000" fill-rule="nonzero" fill-opacity="1"></path><path clip-path="url(#clip830)" d="M1968.94 266.807 Q1970.53 263.936 1972.76 262.571 Q1974.98 261.205 1977.99 261.205 Q1982.04 261.205 1984.24 264.052 Q1986.44 266.876 1986.44 272.108 L1986.44 287.756 L1982.16 287.756 L1982.16 272.247 Q1982.16 268.52 1980.84 266.714 Q1979.52 264.909 1976.81 264.909 Q1973.5 264.909 1971.58 267.108 Q1969.66 269.307 1969.66 273.103 L1969.66 287.756 L1965.37 287.756 L1965.37 272.247 Q1965.37 268.497 1964.05 266.714 Q1962.73 264.909 1959.98 264.909 Q1956.72 264.909 1954.79 267.131 Q1952.87 269.33 1952.87 273.103 L1952.87 287.756 L1948.59 287.756 L1948.59 261.83 L1952.87 261.83 L1952.87 265.858 Q1954.33 263.473 1956.37 262.339 Q1958.41 261.205 1961.21 261.205 Q1964.03 261.205 1966 262.64 Q1967.99 264.075 1968.94 266.807 Z" fill="#000000" fill-rule="nonzero" fill-opacity="1"></path><path clip-path="url(#clip830)" d="M1999.05 283.867 L1999.05 297.617 L1994.77 297.617 L1994.77 261.83 L1999.05 261.83 L1999.05 265.765 Q2000.4 263.45 2002.43 262.339 Q2004.49 261.205 2007.34 261.205 Q2012.06 261.205 2015 264.955 Q2017.97 268.705 2017.97 274.816 Q2017.97 280.927 2015 284.677 Q2012.06 288.427 2007.34 288.427 Q2004.49 288.427 2002.43 287.316 Q2000.4 286.182 1999.05 283.867 M2013.54 274.816 Q2013.54 270.117 2011.6 267.455 Q2009.68 264.77 2006.3 264.77 Q2002.92 264.77 2000.97 267.455 Q1999.05 270.117 1999.05 274.816 Q1999.05 279.515 2000.97 282.2 Q2002.92 284.862 2006.3 284.862 Q2009.68 284.862 2011.6 282.2 Q2013.54 279.515 2013.54 274.816 Z" fill="#000000" fill-rule="nonzero" fill-opacity="1"></path><path clip-path="url(#clip830)" d="M2047.2 273.728 L2047.2 275.811 L2027.62 275.811 Q2027.9 280.209 2030.26 282.524 Q2032.64 284.816 2036.88 284.816 Q2039.33 284.816 2041.62 284.214 Q2043.94 283.612 2046.21 282.409 L2046.21 286.436 Q2043.91 287.408 2041.51 287.918 Q2039.1 288.427 2036.62 288.427 Q2030.42 288.427 2026.78 284.816 Q2023.17 281.205 2023.17 275.047 Q2023.17 268.682 2026.6 264.955 Q2030.05 261.205 2035.88 261.205 Q2041.11 261.205 2044.15 264.585 Q2047.2 267.941 2047.2 273.728 M2042.94 272.478 Q2042.9 268.983 2040.97 266.899 Q2039.08 264.816 2035.93 264.816 Q2032.36 264.816 2030.21 266.83 Q2028.08 268.844 2027.76 272.501 L2042.94 272.478 Z" fill="#000000" fill-rule="nonzero" fill-opacity="1"></path><path clip-path="url(#clip830)" d="M2075.74 272.108 L2075.74 287.756 L2071.48 287.756 L2071.48 272.247 Q2071.48 268.566 2070.05 266.737 Q2068.61 264.909 2065.74 264.909 Q2062.29 264.909 2060.3 267.108 Q2058.31 269.307 2058.31 273.103 L2058.31 287.756 L2054.03 287.756 L2054.03 261.83 L2058.31 261.83 L2058.31 265.858 Q2059.84 263.52 2061.9 262.362 Q2063.98 261.205 2066.69 261.205 Q2071.16 261.205 2073.45 263.983 Q2075.74 266.737 2075.74 272.108 Z" fill="#000000" fill-rule="nonzero" fill-opacity="1"></path><path clip-path="url(#clip830)" d="M2100.77 262.594 L2100.77 266.622 Q2098.96 265.696 2097.02 265.233 Q2095.07 264.77 2092.99 264.77 Q2089.82 264.77 2088.22 265.742 Q2086.65 266.714 2086.65 268.659 Q2086.65 270.14 2087.78 270.997 Q2088.91 271.83 2092.34 272.594 L2093.8 272.918 Q2098.34 273.89 2100.23 275.672 Q2102.15 277.432 2102.15 280.603 Q2102.15 284.214 2099.28 286.321 Q2096.44 288.427 2091.44 288.427 Q2089.35 288.427 2087.09 288.01 Q2084.84 287.617 2082.34 286.807 L2082.34 282.409 Q2084.7 283.635 2086.99 284.26 Q2089.28 284.862 2091.53 284.862 Q2094.54 284.862 2096.16 283.844 Q2097.78 282.802 2097.78 280.927 Q2097.78 279.191 2096.6 278.265 Q2095.44 277.339 2091.48 276.483 L2090 276.135 Q2086.04 275.302 2084.28 273.589 Q2082.53 271.853 2082.53 268.844 Q2082.53 265.186 2085.12 263.196 Q2087.71 261.205 2092.48 261.205 Q2094.84 261.205 2096.92 261.552 Q2099.01 261.899 2100.77 262.594 Z" fill="#000000" fill-rule="nonzero" fill-opacity="1"></path><path clip-path="url(#clip830)" d="M2120.72 274.723 Q2115.56 274.723 2113.57 275.904 Q2111.58 277.084 2111.58 279.932 Q2111.58 282.2 2113.06 283.543 Q2114.56 284.862 2117.13 284.862 Q2120.67 284.862 2122.8 282.362 Q2124.96 279.839 2124.96 275.672 L2124.96 274.723 L2120.72 274.723 M2129.21 272.964 L2129.21 287.756 L2124.96 287.756 L2124.96 283.821 Q2123.5 286.182 2121.32 287.316 Q2119.15 288.427 2116 288.427 Q2112.02 288.427 2109.65 286.205 Q2107.32 283.959 2107.32 280.209 Q2107.32 275.834 2110.23 273.612 Q2113.17 271.39 2118.98 271.39 L2124.96 271.39 L2124.96 270.973 Q2124.96 268.034 2123.01 266.436 Q2121.09 264.816 2117.59 264.816 Q2115.37 264.816 2113.27 265.348 Q2111.16 265.881 2109.21 266.946 L2109.21 263.01 Q2111.55 262.108 2113.75 261.668 Q2115.95 261.205 2118.03 261.205 Q2123.66 261.205 2126.44 264.122 Q2129.21 267.038 2129.21 272.964 Z" fill="#000000" fill-rule="nonzero" fill-opacity="1"></path><path clip-path="url(#clip830)" d="M2142.2 254.469 L2142.2 261.83 L2150.97 261.83 L2150.97 265.14 L2142.2 265.14 L2142.2 279.214 Q2142.2 282.385 2143.06 283.288 Q2143.94 284.191 2146.6 284.191 L2150.97 284.191 L2150.97 287.756 L2146.6 287.756 Q2141.67 287.756 2139.79 285.927 Q2137.92 284.075 2137.92 279.214 L2137.92 265.14 L2134.79 265.14 L2134.79 261.83 L2137.92 261.83 L2137.92 254.469 L2142.2 254.469 Z" fill="#000000" fill-rule="nonzero" fill-opacity="1"></path><path clip-path="url(#clip830)" d="M2156.58 261.83 L2160.83 261.83 L2160.83 287.756 L2156.58 287.756 L2156.58 261.83 M2156.58 251.737 L2160.83 251.737 L2160.83 257.131 L2156.58 257.131 L2156.58 251.737 Z" fill="#000000" fill-rule="nonzero" fill-opacity="1"></path><path clip-path="url(#clip830)" d="M2179.79 264.816 Q2176.37 264.816 2174.38 267.501 Q2172.39 270.163 2172.39 274.816 Q2172.39 279.469 2174.35 282.154 Q2176.34 284.816 2179.79 284.816 Q2183.2 284.816 2185.19 282.131 Q2187.18 279.446 2187.18 274.816 Q2187.18 270.21 2185.19 267.524 Q2183.2 264.816 2179.79 264.816 M2179.79 261.205 Q2185.35 261.205 2188.52 264.816 Q2191.69 268.427 2191.69 274.816 Q2191.69 281.182 2188.52 284.816 Q2185.35 288.427 2179.79 288.427 Q2174.21 288.427 2171.04 284.816 Q2167.89 281.182 2167.89 274.816 Q2167.89 268.427 2171.04 264.816 Q2174.21 261.205 2179.79 261.205 Z" fill="#000000" fill-rule="nonzero" fill-opacity="1"></path><path clip-path="url(#clip830)" d="M2220.3 272.108 L2220.3 287.756 L2216.04 287.756 L2216.04 272.247 Q2216.04 268.566 2214.61 266.737 Q2213.17 264.909 2210.3 264.909 Q2206.85 264.909 2204.86 267.108 Q2202.87 269.307 2202.87 273.103 L2202.87 287.756 L2198.59 287.756 L2198.59 261.83 L2202.87 261.83 L2202.87 265.858 Q2204.4 263.52 2206.46 262.362 Q2208.54 261.205 2211.25 261.205 Q2215.72 261.205 2218.01 263.983 Q2220.3 266.737 2220.3 272.108 Z" fill="#000000" fill-rule="nonzero" fill-opacity="1"></path></svg>