<svg xmlns="http://www.w3.org/2000/svg" xmlns:xlink="http://www.w3.org/1999/xlink" width="600" height="400" viewBox="0 0 2400 1600">
<defs>
  <clipPath id="clip470">
    <rect x="0" y="0" width="2400" height="1600"></rect>
  </clipPath>
</defs>
<path clip-path="url(#clip470)" d="M0 1600 L2400 1600 L2400 8.88178e-14 L0 8.88178e-14  Z" fill="#ffffff" fill-rule="evenodd" fill-opacity="1"></path>
<defs>
  <clipPath id="clip471">
    <rect x="480" y="0" width="1681" height="1600"></rect>
  </clipPath>
</defs>
<path clip-path="url(#clip470)" d="M203.964 1423.18 L2352.76 1423.18 L2352.76 123.472 L203.964 123.472  Z" fill="#ffffff" fill-rule="evenodd" fill-opacity="1"></path>
<defs>
  <clipPath id="clip472">
    <rect x="203" y="123" width="2150" height="1301"></rect>
  </clipPath>
</defs>
<polyline clip-path="url(#clip472)" style="stroke:#000000; stroke-linecap:round; stroke-linejoin:round; stroke-width:2; stroke-opacity:0.1; fill:none" points="264.778,1423.18 264.778,123.472 "></polyline>
<polyline clip-path="url(#clip472)" style="stroke:#000000; stroke-linecap:round; stroke-linejoin:round; stroke-width:2; stroke-opacity:0.1; fill:none" points="940.499,1423.18 940.499,123.472 "></polyline>
<polyline clip-path="url(#clip472)" style="stroke:#000000; stroke-linecap:round; stroke-linejoin:round; stroke-width:2; stroke-opacity:0.1; fill:none" points="1616.22,1423.18 1616.22,123.472 "></polyline>
<polyline clip-path="url(#clip472)" style="stroke:#000000; stroke-linecap:round; stroke-linejoin:round; stroke-width:2; stroke-opacity:0.1; fill:none" points="2291.94,1423.18 2291.94,123.472 "></polyline>
<polyline clip-path="url(#clip472)" style="stroke:#000000; stroke-linecap:round; stroke-linejoin:round; stroke-width:2; stroke-opacity:0.1; fill:none" points="203.964,1182.66 2352.76,1182.66 "></polyline>
<polyline clip-path="url(#clip472)" style="stroke:#000000; stroke-linecap:round; stroke-linejoin:round; stroke-width:2; stroke-opacity:0.1; fill:none" points="203.964,936.641 2352.76,936.641 "></polyline>
<polyline clip-path="url(#clip472)" style="stroke:#000000; stroke-linecap:round; stroke-linejoin:round; stroke-width:2; stroke-opacity:0.1; fill:none" points="203.964,690.624 2352.76,690.624 "></polyline>
<polyline clip-path="url(#clip472)" style="stroke:#000000; stroke-linecap:round; stroke-linejoin:round; stroke-width:2; stroke-opacity:0.1; fill:none" points="203.964,444.608 2352.76,444.608 "></polyline>
<polyline clip-path="url(#clip472)" style="stroke:#000000; stroke-linecap:round; stroke-linejoin:round; stroke-width:2; stroke-opacity:0.1; fill:none" points="203.964,198.591 2352.76,198.591 "></polyline>
<polyline clip-path="url(#clip470)" style="stroke:#000000; stroke-linecap:round; stroke-linejoin:round; stroke-width:4; stroke-opacity:1; fill:none" points="203.964,1423.18 2352.76,1423.18 "></polyline>
<polyline clip-path="url(#clip470)" style="stroke:#000000; stroke-linecap:round; stroke-linejoin:round; stroke-width:4; stroke-opacity:1; fill:none" points="264.778,1423.18 264.778,1404.28 "></polyline>
<polyline clip-path="url(#clip470)" style="stroke:#000000; stroke-linecap:round; stroke-linejoin:round; stroke-width:4; stroke-opacity:1; fill:none" points="940.499,1423.18 940.499,1404.28 "></polyline>
<polyline clip-path="url(#clip470)" style="stroke:#000000; stroke-linecap:round; stroke-linejoin:round; stroke-width:4; stroke-opacity:1; fill:none" points="1616.22,1423.18 1616.22,1404.28 "></polyline>
<polyline clip-path="url(#clip470)" style="stroke:#000000; stroke-linecap:round; stroke-linejoin:round; stroke-width:4; stroke-opacity:1; fill:none" points="2291.94,1423.18 2291.94,1404.28 "></polyline>
<path clip-path="url(#clip470)" d="M177.453 1454.86 L177.453 1467.85 L183.332 1467.85 Q186.596 1467.85 188.378 1466.16 Q190.161 1464.47 190.161 1461.34 Q190.161 1458.24 188.378 1456.55 Q186.596 1454.86 183.332 1454.86 L177.453 1454.86 M172.777 1451.02 L183.332 1451.02 Q189.142 1451.02 192.105 1453.66 Q195.091 1456.27 195.091 1461.34 Q195.091 1466.46 192.105 1469.08 Q189.142 1471.69 183.332 1471.69 L177.453 1471.69 L177.453 1485.58 L172.777 1485.58 L172.777 1451.02 Z" fill="#000000" fill-rule="nonzero" fill-opacity="1"></path><path clip-path="url(#clip470)" d="M222.73 1469.93 L222.73 1485.58 L218.471 1485.58 L218.471 1470.07 Q218.471 1466.39 217.036 1464.56 Q215.6 1462.73 212.73 1462.73 Q209.281 1462.73 207.29 1464.93 Q205.3 1467.13 205.3 1470.93 L205.3 1485.58 L201.017 1485.58 L201.017 1449.56 L205.3 1449.56 L205.3 1463.68 Q206.827 1461.34 208.888 1460.19 Q210.971 1459.03 213.679 1459.03 Q218.147 1459.03 220.438 1461.81 Q222.73 1464.56 222.73 1469.93 Z" fill="#000000" fill-rule="nonzero" fill-opacity="1"></path><path clip-path="url(#clip470)" d="M243.008 1472.55 Q237.846 1472.55 235.855 1473.73 Q233.864 1474.91 233.864 1477.76 Q233.864 1480.02 235.346 1481.37 Q236.85 1482.69 239.42 1482.69 Q242.961 1482.69 245.091 1480.19 Q247.244 1477.66 247.244 1473.5 L247.244 1472.55 L243.008 1472.55 M251.503 1470.79 L251.503 1485.58 L247.244 1485.58 L247.244 1481.64 Q245.785 1484.01 243.61 1485.14 Q241.434 1486.25 238.286 1486.25 Q234.304 1486.25 231.943 1484.03 Q229.605 1481.78 229.605 1478.03 Q229.605 1473.66 232.522 1471.44 Q235.461 1469.21 241.272 1469.21 L247.244 1469.21 L247.244 1468.8 Q247.244 1465.86 245.299 1464.26 Q243.378 1462.64 239.883 1462.64 Q237.661 1462.64 235.554 1463.17 Q233.448 1463.7 231.503 1464.77 L231.503 1460.83 Q233.841 1459.93 236.04 1459.49 Q238.239 1459.03 240.323 1459.03 Q245.948 1459.03 248.725 1461.95 Q251.503 1464.86 251.503 1470.79 Z" fill="#000000" fill-rule="nonzero" fill-opacity="1"></path><path clip-path="url(#clip470)" d="M276.804 1460.42 L276.804 1464.45 Q274.998 1463.52 273.054 1463.06 Q271.109 1462.59 269.026 1462.59 Q265.855 1462.59 264.258 1463.57 Q262.684 1464.54 262.684 1466.48 Q262.684 1467.96 263.818 1468.82 Q264.952 1469.65 268.378 1470.42 L269.836 1470.74 Q274.373 1471.71 276.271 1473.5 Q278.193 1475.26 278.193 1478.43 Q278.193 1482.04 275.322 1484.14 Q272.475 1486.25 267.475 1486.25 Q265.392 1486.25 263.123 1485.83 Q260.878 1485.44 258.378 1484.63 L258.378 1480.23 Q260.739 1481.46 263.031 1482.08 Q265.322 1482.69 267.568 1482.69 Q270.577 1482.69 272.197 1481.67 Q273.818 1480.63 273.818 1478.75 Q273.818 1477.02 272.637 1476.09 Q271.48 1475.16 267.521 1474.31 L266.04 1473.96 Q262.082 1473.13 260.322 1471.41 Q258.563 1469.68 258.563 1466.67 Q258.563 1463.01 261.156 1461.02 Q263.748 1459.03 268.517 1459.03 Q270.878 1459.03 272.961 1459.38 Q275.045 1459.72 276.804 1460.42 Z" fill="#000000" fill-rule="nonzero" fill-opacity="1"></path><path clip-path="url(#clip470)" d="M307.151 1471.55 L307.151 1473.64 L287.568 1473.64 Q287.845 1478.03 290.207 1480.35 Q292.591 1482.64 296.827 1482.64 Q299.281 1482.64 301.572 1482.04 Q303.887 1481.44 306.156 1480.23 L306.156 1484.26 Q303.864 1485.23 301.456 1485.74 Q299.049 1486.25 296.572 1486.25 Q290.369 1486.25 286.734 1482.64 Q283.123 1479.03 283.123 1472.87 Q283.123 1466.51 286.549 1462.78 Q289.998 1459.03 295.832 1459.03 Q301.063 1459.03 304.095 1462.41 Q307.151 1465.77 307.151 1471.55 M302.892 1470.3 Q302.845 1466.81 300.924 1464.72 Q299.026 1462.64 295.878 1462.64 Q292.313 1462.64 290.16 1464.65 Q288.031 1466.67 287.707 1470.33 L302.892 1470.3 Z" fill="#000000" fill-rule="nonzero" fill-opacity="1"></path><path clip-path="url(#clip470)" d="M340.947 1455.63 L334.604 1472.83 L347.313 1472.83 L340.947 1455.63 M338.308 1451.02 L343.609 1451.02 L356.78 1485.58 L351.919 1485.58 L348.771 1476.71 L333.192 1476.71 L330.044 1485.58 L325.114 1485.58 L338.308 1451.02 Z" fill="#000000" fill-rule="nonzero" fill-opacity="1"></path><path clip-path="url(#clip470)" d="M854.609 1454.86 L854.609 1467.85 L860.488 1467.85 Q863.752 1467.85 865.534 1466.16 Q867.317 1464.47 867.317 1461.34 Q867.317 1458.24 865.534 1456.55 Q863.752 1454.86 860.488 1454.86 L854.609 1454.86 M849.933 1451.02 L860.488 1451.02 Q866.298 1451.02 869.261 1453.66 Q872.247 1456.27 872.247 1461.34 Q872.247 1466.46 869.261 1469.08 Q866.298 1471.69 860.488 1471.69 L854.609 1471.69 L854.609 1485.58 L849.933 1485.58 L849.933 1451.02 Z" fill="#000000" fill-rule="nonzero" fill-opacity="1"></path><path clip-path="url(#clip470)" d="M899.886 1469.93 L899.886 1485.58 L895.627 1485.58 L895.627 1470.07 Q895.627 1466.39 894.192 1464.56 Q892.757 1462.73 889.886 1462.73 Q886.437 1462.73 884.446 1464.93 Q882.456 1467.13 882.456 1470.93 L882.456 1485.58 L878.173 1485.58 L878.173 1449.56 L882.456 1449.56 L882.456 1463.68 Q883.983 1461.34 886.044 1460.19 Q888.127 1459.03 890.835 1459.03 Q895.303 1459.03 897.594 1461.81 Q899.886 1464.56 899.886 1469.93 Z" fill="#000000" fill-rule="nonzero" fill-opacity="1"></path><path clip-path="url(#clip470)" d="M920.164 1472.55 Q915.002 1472.55 913.011 1473.73 Q911.02 1474.91 911.02 1477.76 Q911.02 1480.02 912.502 1481.37 Q914.006 1482.69 916.576 1482.69 Q920.117 1482.69 922.247 1480.19 Q924.4 1477.66 924.4 1473.5 L924.4 1472.55 L920.164 1472.55 M928.659 1470.79 L928.659 1485.58 L924.4 1485.58 L924.4 1481.64 Q922.942 1484.01 920.766 1485.14 Q918.59 1486.25 915.442 1486.25 Q911.46 1486.25 909.099 1484.03 Q906.761 1481.78 906.761 1478.03 Q906.761 1473.66 909.678 1471.44 Q912.618 1469.21 918.428 1469.21 L924.4 1469.21 L924.4 1468.8 Q924.4 1465.86 922.455 1464.26 Q920.534 1462.64 917.039 1462.64 Q914.817 1462.64 912.71 1463.17 Q910.604 1463.7 908.659 1464.77 L908.659 1460.83 Q910.997 1459.93 913.196 1459.49 Q915.395 1459.03 917.479 1459.03 Q923.104 1459.03 925.881 1461.95 Q928.659 1464.86 928.659 1470.79 Z" fill="#000000" fill-rule="nonzero" fill-opacity="1"></path><path clip-path="url(#clip470)" d="M953.96 1460.42 L953.96 1464.45 Q952.154 1463.52 950.21 1463.06 Q948.265 1462.59 946.182 1462.59 Q943.011 1462.59 941.414 1463.57 Q939.84 1464.54 939.84 1466.48 Q939.84 1467.96 940.974 1468.82 Q942.108 1469.65 945.534 1470.42 L946.992 1470.74 Q951.529 1471.71 953.427 1473.5 Q955.349 1475.26 955.349 1478.43 Q955.349 1482.04 952.478 1484.14 Q949.631 1486.25 944.631 1486.25 Q942.548 1486.25 940.279 1485.83 Q938.034 1485.44 935.534 1484.63 L935.534 1480.23 Q937.895 1481.46 940.187 1482.08 Q942.478 1482.69 944.724 1482.69 Q947.733 1482.69 949.353 1481.67 Q950.974 1480.63 950.974 1478.75 Q950.974 1477.02 949.793 1476.09 Q948.636 1475.16 944.678 1474.31 L943.196 1473.96 Q939.238 1473.13 937.478 1471.41 Q935.719 1469.68 935.719 1466.67 Q935.719 1463.01 938.312 1461.02 Q940.904 1459.03 945.673 1459.03 Q948.034 1459.03 950.117 1459.38 Q952.201 1459.72 953.96 1460.42 Z" fill="#000000" fill-rule="nonzero" fill-opacity="1"></path><path clip-path="url(#clip470)" d="M984.307 1471.55 L984.307 1473.64 L964.724 1473.64 Q965.001 1478.03 967.363 1480.35 Q969.747 1482.64 973.983 1482.64 Q976.437 1482.64 978.728 1482.04 Q981.043 1481.44 983.312 1480.23 L983.312 1484.26 Q981.02 1485.23 978.613 1485.74 Q976.205 1486.25 973.728 1486.25 Q967.525 1486.25 963.89 1482.64 Q960.279 1479.03 960.279 1472.87 Q960.279 1466.51 963.705 1462.78 Q967.154 1459.03 972.988 1459.03 Q978.219 1459.03 981.251 1462.41 Q984.307 1465.77 984.307 1471.55 M980.048 1470.3 Q980.001 1466.81 978.08 1464.72 Q976.182 1462.64 973.034 1462.64 Q969.469 1462.64 967.316 1464.65 Q965.187 1466.67 964.863 1470.33 L980.048 1470.3 Z" fill="#000000" fill-rule="nonzero" fill-opacity="1"></path><path clip-path="url(#clip470)" d="M1011.23 1469.08 L1011.23 1481.74 L1018.73 1481.74 Q1022.5 1481.74 1024.31 1480.19 Q1026.14 1478.61 1026.14 1475.39 Q1026.14 1472.15 1024.31 1470.63 Q1022.5 1469.08 1018.73 1469.08 L1011.23 1469.08 M1011.23 1454.86 L1011.23 1465.28 L1018.15 1465.28 Q1021.58 1465.28 1023.24 1464.01 Q1024.93 1462.71 1024.93 1460.07 Q1024.93 1457.45 1023.24 1456.16 Q1021.58 1454.86 1018.15 1454.86 L1011.23 1454.86 M1006.55 1451.02 L1018.5 1451.02 Q1023.84 1451.02 1026.74 1453.24 Q1029.63 1455.46 1029.63 1459.56 Q1029.63 1462.73 1028.15 1464.61 Q1026.67 1466.48 1023.8 1466.95 Q1027.25 1467.69 1029.14 1470.05 Q1031.07 1472.39 1031.07 1475.9 Q1031.07 1480.53 1027.92 1483.06 Q1024.77 1485.58 1018.96 1485.58 L1006.55 1485.58 L1006.55 1451.02 Z" fill="#000000" fill-rule="nonzero" fill-opacity="1"></path><path clip-path="url(#clip470)" d="M1529.65 1454.86 L1529.65 1467.85 L1535.53 1467.85 Q1538.79 1467.85 1540.57 1466.16 Q1542.35 1464.47 1542.35 1461.34 Q1542.35 1458.24 1540.57 1456.55 Q1538.79 1454.86 1535.53 1454.86 L1529.65 1454.86 M1524.97 1451.02 L1535.53 1451.02 Q1541.34 1451.02 1544.3 1453.66 Q1547.29 1456.27 1547.29 1461.34 Q1547.29 1466.46 1544.3 1469.08 Q1541.34 1471.69 1535.53 1471.69 L1529.65 1471.69 L1529.65 1485.58 L1524.97 1485.58 L1524.97 1451.02 Z" fill="#000000" fill-rule="nonzero" fill-opacity="1"></path><path clip-path="url(#clip470)" d="M1574.92 1469.93 L1574.92 1485.58 L1570.66 1485.58 L1570.66 1470.07 Q1570.66 1466.39 1569.23 1464.56 Q1567.79 1462.73 1564.92 1462.73 Q1561.48 1462.73 1559.48 1464.93 Q1557.49 1467.13 1557.49 1470.93 L1557.49 1485.58 L1553.21 1485.58 L1553.21 1449.56 L1557.49 1449.56 L1557.49 1463.68 Q1559.02 1461.34 1561.08 1460.19 Q1563.16 1459.03 1565.87 1459.03 Q1570.34 1459.03 1572.63 1461.81 Q1574.92 1464.56 1574.92 1469.93 Z" fill="#000000" fill-rule="nonzero" fill-opacity="1"></path><path clip-path="url(#clip470)" d="M1595.2 1472.55 Q1590.04 1472.55 1588.05 1473.73 Q1586.06 1474.91 1586.06 1477.76 Q1586.06 1480.02 1587.54 1481.37 Q1589.04 1482.69 1591.61 1482.69 Q1595.16 1482.69 1597.29 1480.19 Q1599.44 1477.66 1599.44 1473.5 L1599.44 1472.55 L1595.2 1472.55 M1603.7 1470.79 L1603.7 1485.58 L1599.44 1485.58 L1599.44 1481.64 Q1597.98 1484.01 1595.8 1485.14 Q1593.63 1486.25 1590.48 1486.25 Q1586.5 1486.25 1584.14 1484.03 Q1581.8 1481.78 1581.8 1478.03 Q1581.8 1473.66 1584.72 1471.44 Q1587.66 1469.21 1593.47 1469.21 L1599.44 1469.21 L1599.44 1468.8 Q1599.44 1465.86 1597.49 1464.26 Q1595.57 1462.64 1592.08 1462.64 Q1589.85 1462.64 1587.75 1463.17 Q1585.64 1463.7 1583.7 1464.77 L1583.7 1460.83 Q1586.04 1459.93 1588.23 1459.49 Q1590.43 1459.03 1592.52 1459.03 Q1598.14 1459.03 1600.92 1461.95 Q1603.7 1464.86 1603.7 1470.79 Z" fill="#000000" fill-rule="nonzero" fill-opacity="1"></path><path clip-path="url(#clip470)" d="M1629 1460.42 L1629 1464.45 Q1627.19 1463.52 1625.25 1463.06 Q1623.3 1462.59 1621.22 1462.59 Q1618.05 1462.59 1616.45 1463.57 Q1614.88 1464.54 1614.88 1466.48 Q1614.88 1467.96 1616.01 1468.82 Q1617.15 1469.65 1620.57 1470.42 L1622.03 1470.74 Q1626.57 1471.71 1628.47 1473.5 Q1630.39 1475.26 1630.39 1478.43 Q1630.39 1482.04 1627.52 1484.14 Q1624.67 1486.25 1619.67 1486.25 Q1617.59 1486.25 1615.32 1485.83 Q1613.07 1485.44 1610.57 1484.63 L1610.57 1480.23 Q1612.93 1481.46 1615.22 1482.08 Q1617.52 1482.69 1619.76 1482.69 Q1622.77 1482.69 1624.39 1481.67 Q1626.01 1480.63 1626.01 1478.75 Q1626.01 1477.02 1624.83 1476.09 Q1623.67 1475.16 1619.72 1474.31 L1618.23 1473.96 Q1614.28 1473.13 1612.52 1471.41 Q1610.76 1469.68 1610.76 1466.67 Q1610.76 1463.01 1613.35 1461.02 Q1615.94 1459.03 1620.71 1459.03 Q1623.07 1459.03 1625.16 1459.38 Q1627.24 1459.72 1629 1460.42 Z" fill="#000000" fill-rule="nonzero" fill-opacity="1"></path><path clip-path="url(#clip470)" d="M1659.34 1471.55 L1659.34 1473.64 L1639.76 1473.64 Q1640.04 1478.03 1642.4 1480.35 Q1644.78 1482.64 1649.02 1482.64 Q1651.47 1482.64 1653.77 1482.04 Q1656.08 1481.44 1658.35 1480.23 L1658.35 1484.26 Q1656.06 1485.23 1653.65 1485.74 Q1651.24 1486.25 1648.77 1486.25 Q1642.56 1486.25 1638.93 1482.64 Q1635.32 1479.03 1635.32 1472.87 Q1635.32 1466.51 1638.74 1462.78 Q1642.19 1459.03 1648.03 1459.03 Q1653.26 1459.03 1656.29 1462.41 Q1659.34 1465.77 1659.34 1471.55 M1655.09 1470.3 Q1655.04 1466.81 1653.12 1464.72 Q1651.22 1462.64 1648.07 1462.64 Q1644.51 1462.64 1642.35 1464.65 Q1640.22 1466.67 1639.9 1470.33 L1655.09 1470.3 Z" fill="#000000" fill-rule="nonzero" fill-opacity="1"></path><path clip-path="url(#clip470)" d="M1707.47 1453.68 L1707.47 1458.61 Q1705.11 1456.41 1702.42 1455.33 Q1699.76 1454.24 1696.75 1454.24 Q1690.83 1454.24 1687.68 1457.87 Q1684.53 1461.48 1684.53 1468.33 Q1684.53 1475.16 1687.68 1478.8 Q1690.83 1482.41 1696.75 1482.41 Q1699.76 1482.41 1702.42 1481.32 Q1705.11 1480.23 1707.47 1478.03 L1707.47 1482.92 Q1705.02 1484.58 1702.26 1485.42 Q1699.53 1486.25 1696.47 1486.25 Q1688.63 1486.25 1684.11 1481.46 Q1679.6 1476.64 1679.6 1468.33 Q1679.6 1460 1684.11 1455.21 Q1688.63 1450.39 1696.47 1450.39 Q1699.58 1450.39 1702.31 1451.23 Q1705.06 1452.04 1707.47 1453.68 Z" fill="#000000" fill-rule="nonzero" fill-opacity="1"></path><path clip-path="url(#clip470)" d="M2209 1451.02 L2215.3 1451.02 L2230.62 1479.93 L2230.62 1451.02 L2235.16 1451.02 L2235.16 1485.58 L2228.86 1485.58 L2213.54 1456.67 L2213.54 1485.58 L2209 1485.58 L2209 1451.02 Z" fill="#000000" fill-rule="nonzero" fill-opacity="1"></path><path clip-path="url(#clip470)" d="M2266.46 1471.55 L2266.46 1473.64 L2246.87 1473.64 Q2247.15 1478.03 2249.51 1480.35 Q2251.89 1482.64 2256.13 1482.64 Q2258.58 1482.64 2260.88 1482.04 Q2263.19 1481.44 2265.46 1480.23 L2265.46 1484.26 Q2263.17 1485.23 2260.76 1485.74 Q2258.35 1486.25 2255.88 1486.25 Q2249.67 1486.25 2246.04 1482.64 Q2242.43 1479.03 2242.43 1472.87 Q2242.43 1466.51 2245.85 1462.78 Q2249.3 1459.03 2255.14 1459.03 Q2260.37 1459.03 2263.4 1462.41 Q2266.46 1465.77 2266.46 1471.55 M2262.2 1470.3 Q2262.15 1466.81 2260.23 1464.72 Q2258.33 1462.64 2255.18 1462.64 Q2251.62 1462.64 2249.46 1464.65 Q2247.33 1466.67 2247.01 1470.33 L2262.2 1470.3 Z" fill="#000000" fill-rule="nonzero" fill-opacity="1"></path><path clip-path="url(#clip470)" d="M2273.01 1475.35 L2273.01 1459.65 L2277.27 1459.65 L2277.27 1475.19 Q2277.27 1478.87 2278.7 1480.72 Q2280.14 1482.55 2283.01 1482.55 Q2286.45 1482.55 2288.45 1480.35 Q2290.46 1478.15 2290.46 1474.35 L2290.46 1459.65 L2294.72 1459.65 L2294.72 1485.58 L2290.46 1485.58 L2290.46 1481.6 Q2288.91 1483.96 2286.85 1485.12 Q2284.81 1486.25 2282.1 1486.25 Q2277.64 1486.25 2275.32 1483.47 Q2273.01 1480.7 2273.01 1475.35 M2283.72 1459.03 L2283.72 1459.03 Z" fill="#000000" fill-rule="nonzero" fill-opacity="1"></path><path clip-path="url(#clip470)" d="M2307.7 1452.29 L2307.7 1459.65 L2316.48 1459.65 L2316.48 1462.96 L2307.7 1462.96 L2307.7 1477.04 Q2307.7 1480.21 2308.56 1481.11 Q2309.44 1482.02 2312.1 1482.02 L2316.48 1482.02 L2316.48 1485.58 L2312.1 1485.58 Q2307.17 1485.58 2305.3 1483.75 Q2303.42 1481.9 2303.42 1477.04 L2303.42 1462.96 L2300.3 1462.96 L2300.3 1459.65 L2303.42 1459.65 L2303.42 1452.29 L2307.7 1452.29 Z" fill="#000000" fill-rule="nonzero" fill-opacity="1"></path><path clip-path="url(#clip470)" d="M2337.1 1463.64 Q2336.39 1463.22 2335.53 1463.03 Q2334.7 1462.83 2333.68 1462.83 Q2330.07 1462.83 2328.12 1465.19 Q2326.2 1467.52 2326.2 1471.92 L2326.2 1485.58 L2321.92 1485.58 L2321.92 1459.65 L2326.2 1459.65 L2326.2 1463.68 Q2327.54 1461.32 2329.7 1460.19 Q2331.85 1459.03 2334.93 1459.03 Q2335.37 1459.03 2335.9 1459.1 Q2336.43 1459.14 2337.08 1459.26 L2337.1 1463.64 Z" fill="#000000" fill-rule="nonzero" fill-opacity="1"></path><path clip-path="url(#clip470)" d="M2353.35 1472.55 Q2348.19 1472.55 2346.2 1473.73 Q2344.21 1474.91 2344.21 1477.76 Q2344.21 1480.02 2345.69 1481.37 Q2347.2 1482.69 2349.76 1482.69 Q2353.31 1482.69 2355.44 1480.19 Q2357.59 1477.66 2357.59 1473.5 L2357.59 1472.55 L2353.35 1472.55 M2361.85 1470.79 L2361.85 1485.58 L2357.59 1485.58 L2357.59 1481.64 Q2356.13 1484.01 2353.95 1485.14 Q2351.78 1486.25 2348.63 1486.25 Q2344.65 1486.25 2342.29 1484.03 Q2339.95 1481.78 2339.95 1478.03 Q2339.95 1473.66 2342.87 1471.44 Q2345.81 1469.21 2351.62 1469.21 L2357.59 1469.21 L2357.59 1468.8 Q2357.59 1465.86 2355.64 1464.26 Q2353.72 1462.64 2350.23 1462.64 Q2348.01 1462.64 2345.9 1463.17 Q2343.79 1463.7 2341.85 1464.77 L2341.85 1460.83 Q2344.19 1459.93 2346.39 1459.49 Q2348.58 1459.03 2350.67 1459.03 Q2356.29 1459.03 2359.07 1461.95 Q2361.85 1464.86 2361.85 1470.79 Z" fill="#000000" fill-rule="nonzero" fill-opacity="1"></path><path clip-path="url(#clip470)" d="M2370.62 1449.56 L2374.88 1449.56 L2374.88 1485.58 L2370.62 1485.58 L2370.62 1449.56 Z" fill="#000000" fill-rule="nonzero" fill-opacity="1"></path><path clip-path="url(#clip470)" d="M1192.41 1525.81 L1192.41 1543.66 L1200.49 1543.66 Q1204.98 1543.66 1207.43 1541.34 Q1209.88 1539.02 1209.88 1534.72 Q1209.88 1530.45 1207.43 1528.13 Q1204.98 1525.81 1200.49 1525.81 L1192.41 1525.81 M1185.98 1520.52 L1200.49 1520.52 Q1208.48 1520.52 1212.55 1524.15 Q1216.66 1527.75 1216.66 1534.72 Q1216.66 1541.75 1212.55 1545.35 Q1208.48 1548.95 1200.49 1548.95 L1192.41 1548.95 L1192.41 1568.04 L1185.98 1568.04 L1185.98 1520.52 Z" fill="#000000" fill-rule="nonzero" fill-opacity="1"></path><path clip-path="url(#clip470)" d="M1254.66 1546.53 L1254.66 1568.04 L1248.81 1568.04 L1248.81 1546.72 Q1248.81 1541.66 1246.83 1539.14 Q1244.86 1536.63 1240.91 1536.63 Q1236.17 1536.63 1233.43 1539.65 Q1230.7 1542.68 1230.7 1547.9 L1230.7 1568.04 L1224.81 1568.04 L1224.81 1518.52 L1230.7 1518.52 L1230.7 1537.93 Q1232.8 1534.72 1235.63 1533.13 Q1238.49 1531.54 1242.22 1531.54 Q1248.36 1531.54 1251.51 1535.36 Q1254.66 1539.14 1254.66 1546.53 Z" fill="#000000" fill-rule="nonzero" fill-opacity="1"></path><path clip-path="url(#clip470)" d="M1282.55 1550.12 Q1275.45 1550.12 1272.71 1551.75 Q1269.97 1553.37 1269.97 1557.29 Q1269.97 1560.4 1272.01 1562.25 Q1274.08 1564.07 1277.61 1564.07 Q1282.48 1564.07 1285.41 1560.63 Q1288.37 1557.16 1288.37 1551.43 L1288.37 1550.12 L1282.55 1550.12 M1294.23 1547.71 L1294.23 1568.04 L1288.37 1568.04 L1288.37 1562.63 Q1286.36 1565.88 1283.37 1567.44 Q1280.38 1568.97 1276.05 1568.97 Q1270.58 1568.97 1267.33 1565.91 Q1264.12 1562.82 1264.12 1557.67 Q1264.12 1551.65 1268.13 1548.6 Q1272.17 1545.54 1280.16 1545.54 L1288.37 1545.54 L1288.37 1544.97 Q1288.37 1540.93 1285.7 1538.73 Q1283.05 1536.5 1278.25 1536.5 Q1275.19 1536.5 1272.3 1537.23 Q1269.4 1537.97 1266.73 1539.43 L1266.73 1534.02 Q1269.94 1532.78 1272.96 1532.17 Q1275.99 1531.54 1278.85 1531.54 Q1286.59 1531.54 1290.41 1535.55 Q1294.23 1539.56 1294.23 1547.71 Z" fill="#000000" fill-rule="nonzero" fill-opacity="1"></path><path clip-path="url(#clip470)" d="M1329.01 1533.45 L1329.01 1538.98 Q1326.53 1537.71 1323.86 1537.07 Q1321.19 1536.44 1318.32 1536.44 Q1313.96 1536.44 1311.76 1537.77 Q1309.6 1539.11 1309.6 1541.79 Q1309.6 1543.82 1311.16 1545 Q1312.72 1546.15 1317.43 1547.2 L1319.43 1547.64 Q1325.67 1548.98 1328.28 1551.43 Q1330.92 1553.85 1330.92 1558.21 Q1330.92 1563.17 1326.98 1566.07 Q1323.06 1568.97 1316.19 1568.97 Q1313.32 1568.97 1310.2 1568.39 Q1307.12 1567.85 1303.68 1566.74 L1303.68 1560.69 Q1306.93 1562.38 1310.08 1563.24 Q1313.23 1564.07 1316.32 1564.07 Q1320.45 1564.07 1322.68 1562.66 Q1324.91 1561.23 1324.91 1558.65 Q1324.91 1556.27 1323.29 1554.99 Q1321.69 1553.72 1316.25 1552.54 L1314.21 1552.07 Q1308.77 1550.92 1306.35 1548.56 Q1303.93 1546.18 1303.93 1542.04 Q1303.93 1537.01 1307.5 1534.27 Q1311.06 1531.54 1317.62 1531.54 Q1320.87 1531.54 1323.73 1532.01 Q1326.6 1532.49 1329.01 1533.45 Z" fill="#000000" fill-rule="nonzero" fill-opacity="1"></path><path clip-path="url(#clip470)" d="M1370.74 1548.76 L1370.74 1551.62 L1343.82 1551.62 Q1344.2 1557.67 1347.44 1560.85 Q1350.72 1564 1356.55 1564 Q1359.92 1564 1363.07 1563.17 Q1366.25 1562.35 1369.37 1560.69 L1369.37 1566.23 Q1366.22 1567.57 1362.91 1568.27 Q1359.6 1568.97 1356.2 1568.97 Q1347.67 1568.97 1342.67 1564 Q1337.7 1559.04 1337.7 1550.57 Q1337.7 1541.82 1342.41 1536.69 Q1347.16 1531.54 1355.18 1531.54 Q1362.37 1531.54 1366.54 1536.18 Q1370.74 1540.8 1370.74 1548.76 M1364.89 1547.04 Q1364.82 1542.23 1362.18 1539.37 Q1359.57 1536.5 1355.24 1536.5 Q1350.34 1536.5 1347.38 1539.27 Q1344.45 1542.04 1344.01 1547.07 L1364.89 1547.04 Z" fill="#000000" fill-rule="nonzero" fill-opacity="1"></path><polyline clip-path="url(#clip470)" style="stroke:#000000; stroke-linecap:round; stroke-linejoin:round; stroke-width:4; stroke-opacity:1; fill:none" points="203.964,1423.18 203.964,123.472 "></polyline>
<polyline clip-path="url(#clip470)" style="stroke:#000000; stroke-linecap:round; stroke-linejoin:round; stroke-width:4; stroke-opacity:1; fill:none" points="203.964,1182.66 222.861,1182.66 "></polyline>
<polyline clip-path="url(#clip470)" style="stroke:#000000; stroke-linecap:round; stroke-linejoin:round; stroke-width:4; stroke-opacity:1; fill:none" points="203.964,936.641 222.861,936.641 "></polyline>
<polyline clip-path="url(#clip470)" style="stroke:#000000; stroke-linecap:round; stroke-linejoin:round; stroke-width:4; stroke-opacity:1; fill:none" points="203.964,690.624 222.861,690.624 "></polyline>
<polyline clip-path="url(#clip470)" style="stroke:#000000; stroke-linecap:round; stroke-linejoin:round; stroke-width:4; stroke-opacity:1; fill:none" points="203.964,444.608 222.861,444.608 "></polyline>
<polyline clip-path="url(#clip470)" style="stroke:#000000; stroke-linecap:round; stroke-linejoin:round; stroke-width:4; stroke-opacity:1; fill:none" points="203.964,198.591 222.861,198.591 "></polyline>
<path clip-path="url(#clip470)" d="M116.668 1196 L124.306 1196 L124.306 1169.64 L115.996 1171.3 L115.996 1167.04 L124.26 1165.38 L128.936 1165.38 L128.936 1196 L136.575 1196 L136.575 1199.94 L116.668 1199.94 L116.668 1196 Z" fill="#000000" fill-rule="nonzero" fill-opacity="1"></path><path clip-path="url(#clip470)" d="M156.019 1168.46 Q152.408 1168.46 150.579 1172.02 Q148.774 1175.56 148.774 1182.69 Q148.774 1189.8 150.579 1193.36 Q152.408 1196.91 156.019 1196.91 Q159.653 1196.91 161.459 1193.36 Q163.288 1189.8 163.288 1182.69 Q163.288 1175.56 161.459 1172.02 Q159.653 1168.46 156.019 1168.46 M156.019 1164.75 Q161.829 1164.75 164.885 1169.36 Q167.964 1173.94 167.964 1182.69 Q167.964 1191.42 164.885 1196.03 Q161.829 1200.61 156.019 1200.61 Q150.209 1200.61 147.13 1196.03 Q144.075 1191.42 144.075 1182.69 Q144.075 1173.94 147.13 1169.36 Q150.209 1164.75 156.019 1164.75 Z" fill="#000000" fill-rule="nonzero" fill-opacity="1"></path><path clip-path="url(#clip470)" d="M117.663 949.986 L125.302 949.986 L125.302 923.62 L116.992 925.287 L116.992 921.028 L125.255 919.361 L129.931 919.361 L129.931 949.986 L137.57 949.986 L137.57 953.921 L117.663 953.921 L117.663 949.986 Z" fill="#000000" fill-rule="nonzero" fill-opacity="1"></path><path clip-path="url(#clip470)" d="M147.061 919.361 L165.417 919.361 L165.417 923.296 L151.343 923.296 L151.343 931.768 Q152.362 931.421 153.38 931.259 Q154.399 931.074 155.417 931.074 Q161.204 931.074 164.584 934.245 Q167.964 937.416 167.964 942.833 Q167.964 948.412 164.491 951.514 Q161.019 954.592 154.7 954.592 Q152.524 954.592 150.255 954.222 Q148.01 953.852 145.603 953.111 L145.603 948.412 Q147.686 949.546 149.908 950.102 Q152.13 950.657 154.607 950.657 Q158.612 950.657 160.95 948.551 Q163.288 946.444 163.288 942.833 Q163.288 939.222 160.95 937.115 Q158.612 935.009 154.607 935.009 Q152.732 935.009 150.857 935.426 Q149.005 935.842 147.061 936.722 L147.061 919.361 Z" fill="#000000" fill-rule="nonzero" fill-opacity="1"></path><path clip-path="url(#clip470)" d="M119.885 703.969 L136.204 703.969 L136.204 707.904 L114.26 707.904 L114.26 703.969 Q116.922 701.215 121.505 696.585 Q126.112 691.932 127.292 690.59 Q129.538 688.067 130.417 686.33 Q131.32 684.571 131.32 682.881 Q131.32 680.127 129.376 678.391 Q127.455 676.655 124.353 676.655 Q122.154 676.655 119.7 677.418 Q117.269 678.182 114.492 679.733 L114.492 675.011 Q117.316 673.877 119.769 673.298 Q122.223 672.719 124.26 672.719 Q129.63 672.719 132.825 675.405 Q136.019 678.09 136.019 682.58 Q136.019 684.71 135.209 686.631 Q134.422 688.53 132.316 691.122 Q131.737 691.793 128.635 695.011 Q125.533 698.205 119.885 703.969 Z" fill="#000000" fill-rule="nonzero" fill-opacity="1"></path><path clip-path="url(#clip470)" d="M156.019 676.423 Q152.408 676.423 150.579 679.988 Q148.774 683.53 148.774 690.659 Q148.774 697.766 150.579 701.33 Q152.408 704.872 156.019 704.872 Q159.653 704.872 161.459 701.33 Q163.288 697.766 163.288 690.659 Q163.288 683.53 161.459 679.988 Q159.653 676.423 156.019 676.423 M156.019 672.719 Q161.829 672.719 164.885 677.326 Q167.964 681.909 167.964 690.659 Q167.964 699.386 164.885 703.992 Q161.829 708.576 156.019 708.576 Q150.209 708.576 147.13 703.992 Q144.075 699.386 144.075 690.659 Q144.075 681.909 147.13 677.326 Q150.209 672.719 156.019 672.719 Z" fill="#000000" fill-rule="nonzero" fill-opacity="1"></path><path clip-path="url(#clip470)" d="M120.88 457.953 L137.2 457.953 L137.2 461.888 L115.256 461.888 L115.256 457.953 Q117.918 455.198 122.501 450.569 Q127.107 445.916 128.288 444.573 Q130.533 442.05 131.413 440.314 Q132.316 438.555 132.316 436.865 Q132.316 434.11 130.371 432.374 Q128.45 430.638 125.348 430.638 Q123.149 430.638 120.695 431.402 Q118.265 432.166 115.487 433.717 L115.487 428.995 Q118.311 427.86 120.765 427.282 Q123.218 426.703 125.255 426.703 Q130.626 426.703 133.82 429.388 Q137.015 432.073 137.015 436.564 Q137.015 438.694 136.204 440.615 Q135.417 442.513 133.311 445.106 Q132.732 445.777 129.63 448.994 Q126.529 452.189 120.88 457.953 Z" fill="#000000" fill-rule="nonzero" fill-opacity="1"></path><path clip-path="url(#clip470)" d="M147.061 427.328 L165.417 427.328 L165.417 431.263 L151.343 431.263 L151.343 439.735 Q152.362 439.388 153.38 439.226 Q154.399 439.041 155.417 439.041 Q161.204 439.041 164.584 442.212 Q167.964 445.383 167.964 450.8 Q167.964 456.379 164.491 459.481 Q161.019 462.559 154.7 462.559 Q152.524 462.559 150.255 462.189 Q148.01 461.818 145.603 461.078 L145.603 456.379 Q147.686 457.513 149.908 458.068 Q152.13 458.624 154.607 458.624 Q158.612 458.624 160.95 456.518 Q163.288 454.411 163.288 450.8 Q163.288 447.189 160.95 445.082 Q158.612 442.976 154.607 442.976 Q152.732 442.976 150.857 443.393 Q149.005 443.809 147.061 444.689 L147.061 427.328 Z" fill="#000000" fill-rule="nonzero" fill-opacity="1"></path><path clip-path="url(#clip470)" d="M130.024 197.237 Q133.38 197.955 135.255 200.223 Q137.154 202.492 137.154 205.825 Q137.154 210.941 133.635 213.742 Q130.117 216.543 123.635 216.543 Q121.459 216.543 119.144 216.103 Q116.853 215.686 114.399 214.83 L114.399 210.316 Q116.343 211.45 118.658 212.029 Q120.973 212.608 123.496 212.608 Q127.894 212.608 130.186 210.871 Q132.501 209.135 132.501 205.825 Q132.501 202.77 130.348 201.057 Q128.218 199.321 124.399 199.321 L120.371 199.321 L120.371 195.478 L124.584 195.478 Q128.033 195.478 129.862 194.112 Q131.691 192.723 131.691 190.131 Q131.691 187.469 129.792 186.057 Q127.917 184.622 124.399 184.622 Q122.478 184.622 120.279 185.038 Q118.08 185.455 115.441 186.335 L115.441 182.168 Q118.103 181.427 120.418 181.057 Q122.755 180.686 124.816 180.686 Q130.14 180.686 133.242 183.117 Q136.343 185.524 136.343 189.645 Q136.343 192.515 134.7 194.506 Q133.056 196.473 130.024 197.237 Z" fill="#000000" fill-rule="nonzero" fill-opacity="1"></path><path clip-path="url(#clip470)" d="M156.019 184.39 Q152.408 184.39 150.579 187.955 Q148.774 191.497 148.774 198.626 Q148.774 205.733 150.579 209.297 Q152.408 212.839 156.019 212.839 Q159.653 212.839 161.459 209.297 Q163.288 205.733 163.288 198.626 Q163.288 191.497 161.459 187.955 Q159.653 184.39 156.019 184.39 M156.019 180.686 Q161.829 180.686 164.885 185.293 Q167.964 189.876 167.964 198.626 Q167.964 207.353 164.885 211.959 Q161.829 216.543 156.019 216.543 Q150.209 216.543 147.13 211.959 Q144.075 207.353 144.075 198.626 Q144.075 189.876 147.13 185.293 Q150.209 180.686 156.019 180.686 Z" fill="#000000" fill-rule="nonzero" fill-opacity="1"></path><path clip-path="url(#clip470)" d="M20.1444 1093.9 L26.9239 1093.9 Q23.9002 1097.15 22.4043 1100.84 Q20.9083 1104.5 20.9083 1108.64 Q20.9083 1116.79 25.9054 1121.12 Q30.8707 1125.45 40.2919 1125.45 Q49.6813 1125.45 54.6784 1121.12 Q59.6436 1116.79 59.6436 1108.64 Q59.6436 1104.5 58.1477 1100.84 Q56.6518 1097.15 53.6281 1093.9 L60.3439 1093.9 Q62.6355 1097.28 63.7814 1101.06 Q64.9272 1104.82 64.9272 1109.02 Q64.9272 1119.81 58.3387 1126.02 Q51.7183 1132.22 40.2919 1132.22 Q28.8336 1132.22 22.2451 1126.02 Q15.6248 1119.81 15.6248 1109.02 Q15.6248 1104.76 16.7706 1101 Q17.8846 1097.21 20.1444 1093.9 Z" fill="#000000" fill-rule="nonzero" fill-opacity="1"></path><path clip-path="url(#clip470)" d="M49.9359 1084.83 L28.3562 1084.83 L28.3562 1078.98 L49.7131 1078.98 Q54.7739 1078.98 57.3202 1077 Q59.8346 1075.03 59.8346 1071.08 Q59.8346 1066.34 56.8109 1063.6 Q53.7872 1060.83 48.5673 1060.83 L28.3562 1060.83 L28.3562 1054.98 L64.0042 1054.98 L64.0042 1060.83 L58.5296 1060.83 Q61.7762 1062.97 63.3676 1065.8 Q64.9272 1068.6 64.9272 1072.32 Q64.9272 1078.47 61.1078 1081.65 Q57.2883 1084.83 49.9359 1084.83 M27.4968 1070.1 L27.4968 1070.1 Z" fill="#000000" fill-rule="nonzero" fill-opacity="1"></path><path clip-path="url(#clip470)" d="M33.8307 1022.26 Q33.2578 1023.24 33.0032 1024.42 Q32.7167 1025.57 32.7167 1026.97 Q32.7167 1031.93 35.9632 1034.61 Q39.1779 1037.25 45.2253 1037.25 L64.0042 1037.25 L64.0042 1043.14 L28.3562 1043.14 L28.3562 1037.25 L33.8944 1037.25 Q30.6479 1035.4 29.0883 1032.44 Q27.4968 1029.48 27.4968 1025.25 Q27.4968 1024.64 27.5923 1023.91 Q27.656 1023.18 27.8151 1022.29 L33.8307 1022.26 Z" fill="#000000" fill-rule="nonzero" fill-opacity="1"></path><path clip-path="url(#clip470)" d="M33.8307 996.603 Q33.2578 997.59 33.0032 998.767 Q32.7167 999.913 32.7167 1001.31 Q32.7167 1006.28 35.9632 1008.95 Q39.1779 1011.59 45.2253 1011.59 L64.0042 1011.59 L64.0042 1017.48 L28.3562 1017.48 L28.3562 1011.59 L33.8944 1011.59 Q30.6479 1009.75 29.0883 1006.79 Q27.4968 1003.83 27.4968 999.595 Q27.4968 998.99 27.5923 998.258 Q27.656 997.526 27.8151 996.635 L33.8307 996.603 Z" fill="#000000" fill-rule="nonzero" fill-opacity="1"></path><path clip-path="url(#clip470)" d="M44.7161 961.401 L47.5806 961.401 L47.5806 988.328 Q53.6281 987.946 56.8109 984.699 Q59.9619 981.421 59.9619 975.596 Q59.9619 972.222 59.1344 969.071 Q58.3069 965.889 56.6518 962.769 L62.1899 962.769 Q63.5267 965.92 64.227 969.231 Q64.9272 972.541 64.9272 975.946 Q64.9272 984.476 59.9619 989.474 Q54.9967 994.439 46.5303 994.439 Q37.7774 994.439 32.6531 989.728 Q27.4968 984.986 27.4968 976.965 Q27.4968 969.772 32.1438 965.602 Q36.7589 961.401 44.7161 961.401 M42.9973 967.257 Q38.1912 967.321 35.3266 969.963 Q32.4621 972.573 32.4621 976.901 Q32.4621 981.803 35.2312 984.763 Q38.0002 987.691 43.0292 988.137 L42.9973 967.257 Z" fill="#000000" fill-rule="nonzero" fill-opacity="1"></path><path clip-path="url(#clip470)" d="M42.4881 922.156 L64.0042 922.156 L64.0042 928.013 L42.679 928.013 Q37.6183 928.013 35.1038 929.986 Q32.5894 931.959 32.5894 935.906 Q32.5894 940.649 35.6131 943.386 Q38.6368 946.123 43.8567 946.123 L64.0042 946.123 L64.0042 952.011 L28.3562 952.011 L28.3562 946.123 L33.8944 946.123 Q30.6797 944.022 29.0883 941.19 Q27.4968 938.325 27.4968 934.601 Q27.4968 928.458 31.3163 925.307 Q35.1038 922.156 42.4881 922.156 Z" fill="#000000" fill-rule="nonzero" fill-opacity="1"></path><path clip-path="url(#clip470)" d="M18.2347 904.682 L28.3562 904.682 L28.3562 892.619 L32.9077 892.619 L32.9077 904.682 L52.2594 904.682 Q56.6199 904.682 57.8613 903.505 Q59.1026 902.295 59.1026 898.635 L59.1026 892.619 L64.0042 892.619 L64.0042 898.635 Q64.0042 905.414 61.4897 907.993 Q58.9434 910.571 52.2594 910.571 L32.9077 910.571 L32.9077 914.867 L28.3562 914.867 L28.3562 910.571 L18.2347 910.571 L18.2347 904.682 Z" fill="#000000" fill-rule="nonzero" fill-opacity="1"></path><path clip-path="url(#clip470)" d="M16.4842 863.942 L16.4842 854.361 L48.8219 842.235 L16.4842 830.044 L16.4842 820.464 L64.0042 820.464 L64.0042 826.734 L22.277 826.734 L54.8694 838.988 L54.8694 845.449 L22.277 857.703 L64.0042 857.703 L64.0042 863.942 L16.4842 863.942 Z" fill="#000000" fill-rule="nonzero" fill-opacity="1"></path><path clip-path="url(#clip470)" d="M46.0847 791.755 Q46.0847 798.852 47.7079 801.59 Q49.3312 804.327 53.2461 804.327 Q56.3653 804.327 58.2114 802.29 Q60.0256 800.221 60.0256 796.688 Q60.0256 791.818 56.5881 788.89 Q53.1188 785.93 47.3897 785.93 L46.0847 785.93 L46.0847 791.755 M43.6657 780.074 L64.0042 780.074 L64.0042 785.93 L58.5933 785.93 Q61.8398 787.935 63.3994 790.927 Q64.9272 793.919 64.9272 798.248 Q64.9272 803.722 61.8716 806.969 Q58.7843 810.183 53.6281 810.183 Q47.6125 810.183 44.5569 806.173 Q41.5014 802.131 41.5014 794.142 L41.5014 785.93 L40.9285 785.93 Q36.8862 785.93 34.6901 788.604 Q32.4621 791.245 32.4621 796.052 Q32.4621 799.107 33.1941 802.003 Q33.9262 804.9 35.3903 807.573 L29.9795 807.573 Q28.7381 804.359 28.1334 801.335 Q27.4968 798.311 27.4968 795.447 Q27.4968 787.712 31.5072 783.893 Q35.5176 780.074 43.6657 780.074 Z" fill="#000000" fill-rule="nonzero" fill-opacity="1"></path><path clip-path="url(#clip470)" d="M45.7664 744.553 Q39.4007 744.553 35.8996 747.195 Q32.3984 749.805 32.3984 754.547 Q32.3984 759.258 35.8996 761.9 Q39.4007 764.509 45.7664 764.509 Q52.1003 764.509 55.6014 761.9 Q59.1026 759.258 59.1026 754.547 Q59.1026 749.805 55.6014 747.195 Q52.1003 744.553 45.7664 744.553 M59.58 738.697 Q68.683 738.697 73.1071 742.739 Q77.5631 746.781 77.5631 755.12 Q77.5631 758.207 77.0857 760.945 Q76.6401 763.682 75.6852 766.26 L69.9879 766.26 Q71.3884 763.682 72.0568 761.167 Q72.7252 758.653 72.7252 756.043 Q72.7252 750.282 69.7015 747.418 Q66.7096 744.553 60.6303 744.553 L57.7339 744.553 Q60.885 746.367 62.4446 749.2 Q64.0042 752.033 64.0042 755.979 Q64.0042 762.536 59.0071 766.547 Q54.01 770.557 45.7664 770.557 Q37.491 770.557 32.4939 766.547 Q27.4968 762.536 27.4968 755.979 Q27.4968 752.033 29.0564 749.2 Q30.616 746.367 33.7671 744.553 L28.3562 744.553 L28.3562 738.697 L59.58 738.697 Z" fill="#000000" fill-rule="nonzero" fill-opacity="1"></path><path clip-path="url(#clip470)" d="M42.4881 697.001 L64.0042 697.001 L64.0042 702.858 L42.679 702.858 Q37.6183 702.858 35.1038 704.831 Q32.5894 706.804 32.5894 710.751 Q32.5894 715.494 35.6131 718.231 Q38.6368 720.968 43.8567 720.968 L64.0042 720.968 L64.0042 726.856 L28.3562 726.856 L28.3562 720.968 L33.8944 720.968 Q30.6797 718.867 29.0883 716.035 Q27.4968 713.17 27.4968 709.446 Q27.4968 703.303 31.3163 700.152 Q35.1038 697.001 42.4881 697.001 Z" fill="#000000" fill-rule="nonzero" fill-opacity="1"></path><path clip-path="url(#clip470)" d="M28.3562 685.32 L28.3562 679.464 L64.0042 679.464 L64.0042 685.32 L28.3562 685.32 M14.479 685.32 L14.479 679.464 L21.895 679.464 L21.895 685.32 L14.479 685.32 Z" fill="#000000" fill-rule="nonzero" fill-opacity="1"></path><path clip-path="url(#clip470)" d="M18.2347 661.417 L28.3562 661.417 L28.3562 649.354 L32.9077 649.354 L32.9077 661.417 L52.2594 661.417 Q56.6199 661.417 57.8613 660.239 Q59.1026 659.03 59.1026 655.369 L59.1026 649.354 L64.0042 649.354 L64.0042 655.369 Q64.0042 662.149 61.4897 664.727 Q58.9434 667.305 52.2594 667.305 L32.9077 667.305 L32.9077 671.602 L28.3562 671.602 L28.3562 667.305 L18.2347 667.305 L18.2347 661.417 Z" fill="#000000" fill-rule="nonzero" fill-opacity="1"></path><path clip-path="url(#clip470)" d="M49.9359 642.256 L28.3562 642.256 L28.3562 636.4 L49.7131 636.4 Q54.7739 636.4 57.3202 634.426 Q59.8346 632.453 59.8346 628.506 Q59.8346 623.764 56.8109 621.026 Q53.7872 618.257 48.5673 618.257 L28.3562 618.257 L28.3562 612.401 L64.0042 612.401 L64.0042 618.257 L58.5296 618.257 Q61.7762 620.39 63.3676 623.223 Q64.9272 626.024 64.9272 629.747 Q64.9272 635.89 61.1078 639.073 Q57.2883 642.256 49.9359 642.256 M27.4968 627.519 L27.4968 627.519 Z" fill="#000000" fill-rule="nonzero" fill-opacity="1"></path><path clip-path="url(#clip470)" d="M33.7671 576.88 L14.479 576.88 L14.479 571.024 L64.0042 571.024 L64.0042 576.88 L58.657 576.88 Q61.8398 578.726 63.3994 581.559 Q64.9272 584.36 64.9272 588.307 Q64.9272 594.768 59.771 598.842 Q54.6147 602.884 46.212 602.884 Q37.8093 602.884 32.6531 598.842 Q27.4968 594.768 27.4968 588.307 Q27.4968 584.36 29.0564 581.559 Q30.5842 578.726 33.7671 576.88 M46.212 596.837 Q52.6732 596.837 56.3653 594.195 Q60.0256 591.521 60.0256 586.874 Q60.0256 582.227 56.3653 579.554 Q52.6732 576.88 46.212 576.88 Q39.7508 576.88 36.0905 579.554 Q32.3984 582.227 32.3984 586.874 Q32.3984 591.521 36.0905 594.195 Q39.7508 596.837 46.212 596.837 Z" fill="#000000" fill-rule="nonzero" fill-opacity="1"></path><path clip-path="url(#clip470)" d="M44.7161 528.469 L47.5806 528.469 L47.5806 555.396 Q53.6281 555.014 56.8109 551.768 Q59.9619 548.489 59.9619 542.665 Q59.9619 539.291 59.1344 536.14 Q58.3069 532.957 56.6518 529.838 L62.1899 529.838 Q63.5267 532.989 64.227 536.299 Q64.9272 539.609 64.9272 543.015 Q64.9272 551.545 59.9619 556.542 Q54.9967 561.507 46.5303 561.507 Q37.7774 561.507 32.6531 556.796 Q27.4968 552.054 27.4968 544.033 Q27.4968 536.84 32.1438 532.67 Q36.7589 528.469 44.7161 528.469 M42.9973 534.326 Q38.1912 534.389 35.3266 537.031 Q32.4621 539.641 32.4621 543.97 Q32.4621 548.871 35.2312 551.831 Q38.0002 554.759 43.0292 555.205 L42.9973 534.326 Z" fill="#000000" fill-rule="nonzero" fill-opacity="1"></path><path clip-path="url(#clip470)" d="M14.5426 484.068 Q21.8632 488.333 29.0246 490.402 Q36.186 492.471 43.5384 492.471 Q50.8908 492.471 58.1159 490.402 Q65.3091 488.301 72.5979 484.068 L72.5979 489.161 Q65.1182 493.935 57.8931 496.322 Q50.668 498.678 43.5384 498.678 Q36.4406 498.678 29.2474 496.322 Q22.0542 493.967 14.5426 489.161 L14.5426 484.068 Z" fill="#000000" fill-rule="nonzero" fill-opacity="1"></path><path clip-path="url(#clip470)" d="M22.818 456.568 L46.4666 465.289 L46.4666 447.816 L22.818 456.568 M16.4842 460.197 L16.4842 452.908 L64.0042 434.798 L64.0042 441.482 L51.8138 445.81 L51.8138 467.231 L64.0042 471.56 L64.0042 478.339 L16.4842 460.197 Z" fill="#000000" fill-rule="nonzero" fill-opacity="1"></path><path clip-path="url(#clip470)" d="M14.5426 429.037 L14.5426 423.944 Q22.0542 419.17 29.2474 416.815 Q36.4406 414.427 43.5384 414.427 Q50.668 414.427 57.8931 416.815 Q65.1182 419.17 72.5979 423.944 L72.5979 429.037 Q65.3091 424.804 58.1159 422.735 Q50.8908 420.634 43.5384 420.634 Q36.186 420.634 29.0246 422.735 Q21.8632 424.804 14.5426 429.037 Z" fill="#000000" fill-rule="nonzero" fill-opacity="1"></path><path clip-path="url(#clip470)" d="M-67.1684 16.7545 L-67.1684 25.383 Q-71.3003 21.5346 -75.9993 19.6307 Q-80.6579 17.7268 -85.924 17.7268 Q-96.2944 17.7268 -101.804 24.0867 Q-107.313 30.4061 -107.313 42.3968 Q-107.313 54.3469 -101.804 60.7069 Q-96.2944 67.0263 -85.924 67.0263 Q-80.6579 67.0263 -75.9993 65.1223 Q-71.3003 63.2184 -67.1684 59.3701 L-67.1684 67.9175 Q-71.4623 70.8341 -76.2829 72.2924 Q-81.063 73.7508 -86.4101 73.7508 Q-100.143 73.7508 -108.042 65.3654 Q-115.941 56.9395 -115.941 42.3968 Q-115.941 27.8135 -108.042 19.4281 Q-100.143 11.0023 -86.4101 11.0023 Q-80.9819 11.0023 -76.2019 12.4606 Q-71.3813 13.8784 -67.1684 16.7545 Z" fill="#000000" fill-rule="nonzero" fill-opacity="1"></path><path clip-path="url(#clip470)" d="M-55.6233 54.671 L-55.6233 27.2059 L-48.1696 27.2059 L-48.1696 54.3874 Q-48.1696 60.8284 -45.6581 64.0691 Q-43.1465 67.2693 -38.1234 67.2693 Q-32.0875 67.2693 -28.6037 63.421 Q-25.0795 59.5726 -25.0795 52.9291 L-25.0795 27.2059 L-17.6258 27.2059 L-17.6258 72.576 L-25.0795 72.576 L-25.0795 65.6084 Q-27.7936 69.7404 -31.3989 71.7658 Q-34.9637 73.7508 -39.7032 73.7508 Q-47.5215 73.7508 -51.5724 68.8897 Q-55.6233 64.0286 -55.6233 54.671 M-36.8676 26.1121 L-36.8676 26.1121 Z" fill="#000000" fill-rule="nonzero" fill-opacity="1"></path><path clip-path="url(#clip470)" d="M24.0175 34.1734 Q22.7617 33.4443 21.2629 33.1202 Q19.8046 32.7556 18.0222 32.7556 Q11.7028 32.7556 8.29999 36.8875 Q4.93774 40.9789 4.93774 48.6757 L4.93774 72.576 L-2.55643 72.576 L-2.55643 27.2059 L4.93774 27.2059 L4.93774 34.2544 Q7.28727 30.1225 11.0546 28.1376 Q14.8219 26.1121 20.2097 26.1121 Q20.9793 26.1121 21.911 26.2337 Q22.8427 26.3147 23.977 26.5172 L24.0175 34.1734 Z" fill="#000000" fill-rule="nonzero" fill-opacity="1"></path><path clip-path="url(#clip470)" d="M56.6678 34.1734 Q55.412 33.4443 53.9132 33.1202 Q52.4548 32.7556 50.6725 32.7556 Q44.353 32.7556 40.9503 36.8875 Q37.588 40.9789 37.588 48.6757 L37.588 72.576 L30.0939 72.576 L30.0939 27.2059 L37.588 27.2059 L37.588 34.2544 Q39.9376 30.1225 43.7049 28.1376 Q47.4722 26.1121 52.8599 26.1121 Q53.6296 26.1121 54.5613 26.2337 Q55.493 26.3147 56.6273 26.5172 L56.6678 34.1734 Z" fill="#000000" fill-rule="nonzero" fill-opacity="1"></path><path clip-path="url(#clip470)" d="M101.471 48.0275 L101.471 51.6733 L67.2001 51.6733 Q67.6862 59.3701 71.8182 63.421 Q75.9906 67.4314 83.4038 67.4314 Q87.6977 67.4314 91.7081 66.3781 Q95.759 65.3249 99.7289 63.2184 L99.7289 70.267 Q95.7185 71.9684 91.5056 72.8596 Q87.2926 73.7508 82.9582 73.7508 Q72.1017 73.7508 65.7418 67.4314 Q59.4224 61.1119 59.4224 50.3365 Q59.4224 39.1965 65.4177 32.6746 Q71.4536 26.1121 81.6619 26.1121 Q90.8169 26.1121 96.1236 32.0264 Q101.471 37.9003 101.471 48.0275 M94.0171 45.84 Q93.9361 39.7232 90.5739 36.0774 Q87.2521 32.4315 81.7429 32.4315 Q75.5045 32.4315 71.7372 35.9558 Q68.0103 39.4801 67.4432 45.8805 L94.0171 45.84 Z" fill="#000000" fill-rule="nonzero" fill-opacity="1"></path><path clip-path="url(#clip470)" d="M151.418 45.1919 L151.418 72.576 L143.965 72.576 L143.965 45.4349 Q143.965 38.994 141.453 35.7938 Q138.942 32.5936 133.919 32.5936 Q127.883 32.5936 124.399 36.4419 Q120.915 40.2903 120.915 46.9338 L120.915 72.576 L113.421 72.576 L113.421 27.2059 L120.915 27.2059 L120.915 34.2544 Q123.589 30.163 127.194 28.1376 Q130.84 26.1121 135.579 26.1121 Q143.398 26.1121 147.408 30.9732 Q151.418 35.7938 151.418 45.1919 Z" fill="#000000" fill-rule="nonzero" fill-opacity="1"></path><path clip-path="url(#clip470)" d="M173.658 14.324 L173.658 27.2059 L189.011 27.2059 L189.011 32.9987 L173.658 32.9987 L173.658 57.6282 Q173.658 63.1779 175.157 64.7578 Q176.696 66.3376 181.355 66.3376 L189.011 66.3376 L189.011 72.576 L181.355 72.576 Q172.726 72.576 169.445 69.3758 Q166.164 66.1351 166.164 57.6282 L166.164 32.9987 L160.695 32.9987 L160.695 27.2059 L166.164 27.2059 L166.164 14.324 L173.658 14.324 Z" fill="#000000" fill-rule="nonzero" fill-opacity="1"></path><path clip-path="url(#clip470)" d="M233.692 18.8205 L233.692 41.5461 L243.982 41.5461 Q249.693 41.5461 252.813 38.5889 Q255.932 35.6318 255.932 30.163 Q255.932 24.7348 252.813 21.7777 Q249.693 18.8205 243.982 18.8205 L233.692 18.8205 M225.509 12.096 L243.982 12.096 Q254.149 12.096 259.335 16.714 Q264.56 21.2916 264.56 30.163 Q264.56 39.1155 259.335 43.6931 Q254.149 48.2706 243.982 48.2706 L233.692 48.2706 L233.692 72.576 L225.509 72.576 L225.509 12.096 Z" fill="#000000" fill-rule="nonzero" fill-opacity="1"></path><path clip-path="url(#clip470)" d="M300.046 34.1734 Q298.79 33.4443 297.292 33.1202 Q295.833 32.7556 294.051 32.7556 Q287.731 32.7556 284.329 36.8875 Q280.966 40.9789 280.966 48.6757 L280.966 72.576 L273.472 72.576 L273.472 27.2059 L280.966 27.2059 L280.966 34.2544 Q283.316 30.1225 287.083 28.1376 Q290.851 26.1121 296.238 26.1121 Q297.008 26.1121 297.94 26.2337 Q298.871 26.3147 300.006 26.5172 L300.046 34.1734 Z" fill="#000000" fill-rule="nonzero" fill-opacity="1"></path><path clip-path="url(#clip470)" d="M323.622 32.4315 Q317.627 32.4315 314.143 37.1306 Q310.659 41.7891 310.659 49.9314 Q310.659 58.0738 314.103 62.7728 Q317.587 67.4314 323.622 67.4314 Q329.577 67.4314 333.061 62.7323 Q336.545 58.0333 336.545 49.9314 Q336.545 41.8701 333.061 37.1711 Q329.577 32.4315 323.622 32.4315 M323.622 26.1121 Q333.345 26.1121 338.894 32.4315 Q344.444 38.7509 344.444 49.9314 Q344.444 61.0714 338.894 67.4314 Q333.345 73.7508 323.622 73.7508 Q313.86 73.7508 308.31 67.4314 Q302.801 61.0714 302.801 49.9314 Q302.801 38.7509 308.31 32.4315 Q313.86 26.1121 323.622 26.1121 Z" fill="#000000" fill-rule="nonzero" fill-opacity="1"></path><path clip-path="url(#clip470)" d="M379.768 9.54393 L379.768 15.7418 L372.638 15.7418 Q368.628 15.7418 367.048 17.3622 Q365.509 18.9825 365.509 23.1955 L365.509 27.2059 L377.783 27.2059 L377.783 32.9987 L365.509 32.9987 L365.509 72.576 L358.015 72.576 L358.015 32.9987 L350.885 32.9987 L350.885 27.2059 L358.015 27.2059 L358.015 24.0462 Q358.015 16.471 361.539 13.0277 Q365.063 9.54393 372.719 9.54393 L379.768 9.54393 Z" fill="#000000" fill-rule="nonzero" fill-opacity="1"></path><path clip-path="url(#clip470)" d="M386.006 27.2059 L393.46 27.2059 L393.46 72.576 L386.006 72.576 L386.006 27.2059 M386.006 9.54393 L393.46 9.54393 L393.46 18.9825 L386.006 18.9825 L386.006 9.54393 Z" fill="#000000" fill-rule="nonzero" fill-opacity="1"></path><path clip-path="url(#clip470)" d="M409.056 9.54393 L416.51 9.54393 L416.51 72.576 L409.056 72.576 L409.056 9.54393 Z" fill="#000000" fill-rule="nonzero" fill-opacity="1"></path><path clip-path="url(#clip470)" d="M470.913 48.0275 L470.913 51.6733 L436.643 51.6733 Q437.129 59.3701 441.261 63.421 Q445.433 67.4314 452.846 67.4314 Q457.14 67.4314 461.151 66.3781 Q465.201 65.3249 469.171 63.2184 L469.171 70.267 Q465.161 71.9684 460.948 72.8596 Q456.735 73.7508 452.401 73.7508 Q441.544 73.7508 435.184 67.4314 Q428.865 61.1119 428.865 50.3365 Q428.865 39.1965 434.86 32.6746 Q440.896 26.1121 451.104 26.1121 Q460.259 26.1121 465.566 32.0264 Q470.913 37.9003 470.913 48.0275 M463.46 45.84 Q463.379 39.7232 460.016 36.0774 Q456.695 32.4315 451.185 32.4315 Q444.947 32.4315 441.18 35.9558 Q437.453 39.4801 436.886 45.8805 L463.46 45.84 Z" fill="#000000" fill-rule="nonzero" fill-opacity="1"></path><path clip-path="url(#clip470)" d="M532.487 9.54393 L532.487 15.7418 L525.357 15.7418 Q521.347 15.7418 519.767 17.3622 Q518.228 18.9825 518.228 23.1955 L518.228 27.2059 L530.502 27.2059 L530.502 32.9987 L518.228 32.9987 L518.228 72.576 L510.734 72.576 L510.734 32.9987 L503.604 32.9987 L503.604 27.2059 L510.734 27.2059 L510.734 24.0462 Q510.734 16.471 514.258 13.0277 Q517.782 9.54393 525.438 9.54393 L532.487 9.54393 Z" fill="#000000" fill-rule="nonzero" fill-opacity="1"></path><path clip-path="url(#clip470)" d="M556.306 32.4315 Q550.311 32.4315 546.827 37.1306 Q543.343 41.7891 543.343 49.9314 Q543.343 58.0738 546.787 62.7728 Q550.27 67.4314 556.306 67.4314 Q562.261 67.4314 565.745 62.7323 Q569.229 58.0333 569.229 49.9314 Q569.229 41.8701 565.745 37.1711 Q562.261 32.4315 556.306 32.4315 M556.306 26.1121 Q566.028 26.1121 571.578 32.4315 Q577.128 38.7509 577.128 49.9314 Q577.128 61.0714 571.578 67.4314 Q566.028 73.7508 556.306 73.7508 Q546.544 73.7508 540.994 67.4314 Q535.485 61.0714 535.485 49.9314 Q535.485 38.7509 540.994 32.4315 Q546.544 26.1121 556.306 26.1121 Z" fill="#000000" fill-rule="nonzero" fill-opacity="1"></path><path clip-path="url(#clip470)" d="M615.774 34.1734 Q614.518 33.4443 613.019 33.1202 Q611.561 32.7556 609.778 32.7556 Q603.459 32.7556 600.056 36.8875 Q596.694 40.9789 596.694 48.6757 L596.694 72.576 L589.2 72.576 L589.2 27.2059 L596.694 27.2059 L596.694 34.2544 Q599.043 30.1225 602.811 28.1376 Q606.578 26.1121 611.966 26.1121 Q612.735 26.1121 613.667 26.2337 Q614.599 26.3147 615.733 26.5172 L615.774 34.1734 Z" fill="#000000" fill-rule="nonzero" fill-opacity="1"></path><path clip-path="url(#clip470)" d="M650.287 12.096 L658.47 12.096 L658.47 65.6895 L687.92 65.6895 L687.92 72.576 L650.287 72.576 L650.287 12.096 Z" fill="#000000" fill-rule="nonzero" fill-opacity="1"></path><path clip-path="url(#clip470)" d="M696.184 27.2059 L703.638 27.2059 L703.638 72.576 L696.184 72.576 L696.184 27.2059 M696.184 9.54393 L703.638 9.54393 L703.638 18.9825 L696.184 18.9825 L696.184 9.54393 Z" fill="#000000" fill-rule="nonzero" fill-opacity="1"></path><path clip-path="url(#clip470)" d="M756.948 45.1919 L756.948 72.576 L749.494 72.576 L749.494 45.4349 Q749.494 38.994 746.982 35.7938 Q744.471 32.5936 739.448 32.5936 Q733.412 32.5936 729.928 36.4419 Q726.444 40.2903 726.444 46.9338 L726.444 72.576 L718.95 72.576 L718.95 27.2059 L726.444 27.2059 L726.444 34.2544 Q729.118 30.163 732.723 28.1376 Q736.369 26.1121 741.109 26.1121 Q748.927 26.1121 752.937 30.9732 Q756.948 35.7938 756.948 45.1919 Z" fill="#000000" fill-rule="nonzero" fill-opacity="1"></path><path clip-path="url(#clip470)" d="M810.622 48.0275 L810.622 51.6733 L776.351 51.6733 Q776.838 59.3701 780.969 63.421 Q785.142 67.4314 792.555 67.4314 Q796.849 67.4314 800.859 66.3781 Q804.91 65.3249 808.88 63.2184 L808.88 70.267 Q804.87 71.9684 800.657 72.8596 Q796.444 73.7508 792.109 73.7508 Q781.253 73.7508 774.893 67.4314 Q768.574 61.1119 768.574 50.3365 Q768.574 39.1965 774.569 32.6746 Q780.605 26.1121 790.813 26.1121 Q799.968 26.1121 805.275 32.0264 Q810.622 37.9003 810.622 48.0275 M803.168 45.84 Q803.087 39.7232 799.725 36.0774 Q796.403 32.4315 790.894 32.4315 Q784.656 32.4315 780.888 35.9558 Q777.162 39.4801 776.594 45.8805 L803.168 45.84 Z" fill="#000000" fill-rule="nonzero" fill-opacity="1"></path><path clip-path="url(#clip470)" d="M823.909 62.2867 L832.456 62.2867 L832.456 72.576 L823.909 72.576 L823.909 62.2867 Z" fill="#000000" fill-rule="nonzero" fill-opacity="1"></path><path clip-path="url(#clip470)" d="M849.227 9.54393 L856.681 9.54393 L856.681 72.576 L849.227 72.576 L849.227 9.54393 Z" fill="#000000" fill-rule="nonzero" fill-opacity="1"></path><path clip-path="url(#clip470)" d="M872.277 27.2059 L879.731 27.2059 L879.731 72.576 L872.277 72.576 L872.277 27.2059 M872.277 9.54393 L879.731 9.54393 L879.731 18.9825 L872.277 18.9825 L872.277 9.54393 Z" fill="#000000" fill-rule="nonzero" fill-opacity="1"></path><path clip-path="url(#clip470)" d="M933.04 45.1919 L933.04 72.576 L925.587 72.576 L925.587 45.4349 Q925.587 38.994 923.075 35.7938 Q920.564 32.5936 915.541 32.5936 Q909.505 32.5936 906.021 36.4419 Q902.537 40.2903 902.537 46.9338 L902.537 72.576 L895.043 72.576 L895.043 27.2059 L902.537 27.2059 L902.537 34.2544 Q905.211 30.163 908.816 28.1376 Q912.462 26.1121 917.201 26.1121 Q925.02 26.1121 929.03 30.9732 Q933.04 35.7938 933.04 45.1919 Z" fill="#000000" fill-rule="nonzero" fill-opacity="1"></path><path clip-path="url(#clip470)" d="M986.715 48.0275 L986.715 51.6733 L952.444 51.6733 Q952.93 59.3701 957.062 63.421 Q961.235 67.4314 968.648 67.4314 Q972.942 67.4314 976.952 66.3781 Q981.003 65.3249 984.973 63.2184 L984.973 70.267 Q980.963 71.9684 976.75 72.8596 Q972.537 73.7508 968.202 73.7508 Q957.346 73.7508 950.986 67.4314 Q944.667 61.1119 944.667 50.3365 Q944.667 39.1965 950.662 32.6746 Q956.698 26.1121 966.906 26.1121 Q976.061 26.1121 981.368 32.0264 Q986.715 37.9003 986.715 48.0275 M979.261 45.84 Q979.18 39.7232 975.818 36.0774 Q972.496 32.4315 966.987 32.4315 Q960.749 32.4315 956.981 35.9558 Q953.254 39.4801 952.687 45.8805 L979.261 45.84 Z" fill="#000000" fill-rule="nonzero" fill-opacity="1"></path><path clip-path="url(#clip470)" d="M1033.42 86.3491 L1033.42 92.1419 L990.32 92.1419 L990.32 86.3491 L1033.42 86.3491 Z" fill="#000000" fill-rule="nonzero" fill-opacity="1"></path><path clip-path="url(#clip470)" d="M1040.75 12.096 L1075.51 12.096 L1075.51 18.9825 L1048.94 18.9825 L1048.94 36.8065 L1072.92 36.8065 L1072.92 43.6931 L1048.94 43.6931 L1048.94 72.576 L1040.75 72.576 L1040.75 12.096 Z" fill="#000000" fill-rule="nonzero" fill-opacity="1"></path><path clip-path="url(#clip470)" d="M1096.25 65.6895 L1124.81 65.6895 L1124.81 72.576 L1086.41 72.576 L1086.41 65.6895 Q1091.07 60.8689 1099.09 52.7671 Q1107.15 44.6248 1109.21 42.2752 Q1113.14 37.8598 1114.68 34.8216 Q1116.26 31.7429 1116.26 28.7857 Q1116.26 23.9651 1112.86 20.927 Q1109.5 17.8888 1104.07 17.8888 Q1100.22 17.8888 1095.93 19.2256 Q1091.67 20.5624 1086.81 23.2765 L1086.81 15.0127 Q1091.75 13.0277 1096.05 12.015 Q1100.34 11.0023 1103.91 11.0023 Q1113.31 11.0023 1118.9 15.7013 Q1124.49 20.4004 1124.49 28.2591 Q1124.49 31.9859 1123.07 35.3482 Q1121.69 38.6699 1118 43.2069 Q1116.99 44.3817 1111.56 50.0125 Q1106.14 55.6027 1096.25 65.6895 Z" fill="#000000" fill-rule="nonzero" fill-opacity="1"></path><path clip-path="url(#clip470)" d="M1175.41 86.3491 L1175.41 92.1419 L1132.3 92.1419 L1132.3 86.3491 L1175.41 86.3491 Z" fill="#000000" fill-rule="nonzero" fill-opacity="1"></path><path clip-path="url(#clip470)" d="M1205.95 19.2256 L1185.29 51.5113 L1205.95 51.5113 L1205.95 19.2256 M1203.8 12.096 L1214.09 12.096 L1214.09 51.5113 L1222.72 51.5113 L1222.72 58.3168 L1214.09 58.3168 L1214.09 72.576 L1205.95 72.576 L1205.95 58.3168 L1178.65 58.3168 L1178.65 50.4176 L1203.8 12.096 Z" fill="#000000" fill-rule="nonzero" fill-opacity="1"></path><path clip-path="url(#clip470)" d="M1269.67 86.3491 L1269.67 92.1419 L1226.57 92.1419 L1226.57 86.3491 L1269.67 86.3491 Z" fill="#000000" fill-rule="nonzero" fill-opacity="1"></path><path clip-path="url(#clip470)" d="M1279.15 65.6895 L1292.52 65.6895 L1292.52 19.5497 L1277.97 22.4663 L1277.97 15.0127 L1292.44 12.096 L1300.62 12.096 L1300.62 65.6895 L1313.99 65.6895 L1313.99 72.576 L1279.15 72.576 L1279.15 65.6895 Z" fill="#000000" fill-rule="nonzero" fill-opacity="1"></path><path clip-path="url(#clip470)" d="M1373.74 9.62495 Q1368.31 18.942 1365.68 28.0566 Q1363.04 37.1711 1363.04 46.5287 Q1363.04 55.8863 1365.68 65.0818 Q1368.35 74.2369 1373.74 83.5134 L1367.26 83.5134 Q1361.18 73.9938 1358.14 64.7983 Q1355.14 55.6027 1355.14 46.5287 Q1355.14 37.4952 1358.14 28.3401 Q1361.14 19.1851 1367.26 9.62495 L1373.74 9.62495 Z" fill="#000000" fill-rule="nonzero" fill-opacity="1"></path><path clip-path="url(#clip470)" d="M1396.71 43.6931 L1396.71 65.8515 L1409.83 65.8515 Q1416.43 65.8515 1419.59 63.1374 Q1422.79 60.3828 1422.79 54.752 Q1422.79 49.0808 1419.59 46.4072 Q1416.43 43.6931 1409.83 43.6931 L1396.71 43.6931 M1396.71 18.8205 L1396.71 37.0496 L1408.82 37.0496 Q1414.81 37.0496 1417.73 34.8216 Q1420.69 32.5531 1420.69 27.935 Q1420.69 23.3575 1417.73 21.089 Q1414.81 18.8205 1408.82 18.8205 L1396.71 18.8205 M1388.52 12.096 L1409.43 12.096 Q1418.78 12.096 1423.85 15.9849 Q1428.91 19.8737 1428.91 27.0438 Q1428.91 32.5936 1426.32 35.8748 Q1423.73 39.156 1418.7 39.9662 Q1424.74 41.2625 1428.06 45.3944 Q1431.42 49.4858 1431.42 55.6432 Q1431.42 63.745 1425.91 68.1605 Q1420.4 72.576 1410.24 72.576 L1388.52 72.576 L1388.52 12.096 Z" fill="#000000" fill-rule="nonzero" fill-opacity="1"></path><path clip-path="url(#clip470)" d="M1483.92 48.0275 L1483.92 51.6733 L1449.65 51.6733 Q1450.14 59.3701 1454.27 63.421 Q1458.44 67.4314 1465.86 67.4314 Q1470.15 67.4314 1474.16 66.3781 Q1478.21 65.3249 1482.18 63.2184 L1482.18 70.267 Q1478.17 71.9684 1473.96 72.8596 Q1469.74 73.7508 1465.41 73.7508 Q1454.55 73.7508 1448.19 67.4314 Q1441.87 61.1119 1441.87 50.3365 Q1441.87 39.1965 1447.87 32.6746 Q1453.91 26.1121 1464.11 26.1121 Q1473.27 26.1121 1478.58 32.0264 Q1483.92 37.9003 1483.92 48.0275 M1476.47 45.84 Q1476.39 39.7232 1473.03 36.0774 Q1469.7 32.4315 1464.19 32.4315 Q1457.96 32.4315 1454.19 35.9558 Q1450.46 39.4801 1449.9 45.8805 L1476.47 45.84 Z" fill="#000000" fill-rule="nonzero" fill-opacity="1"></path><path clip-path="url(#clip470)" d="M1519.13 9.54393 L1519.13 15.7418 L1512 15.7418 Q1507.99 15.7418 1506.41 17.3622 Q1504.87 18.9825 1504.87 23.1955 L1504.87 27.2059 L1517.14 27.2059 L1517.14 32.9987 L1504.87 32.9987 L1504.87 72.576 L1497.37 72.576 L1497.37 32.9987 L1490.24 32.9987 L1490.24 27.2059 L1497.37 27.2059 L1497.37 24.0462 Q1497.37 16.471 1500.9 13.0277 Q1504.42 9.54393 1512.08 9.54393 L1519.13 9.54393 Z" fill="#000000" fill-rule="nonzero" fill-opacity="1"></path><path clip-path="url(#clip470)" d="M1542.94 32.4315 Q1536.95 32.4315 1533.47 37.1306 Q1529.98 41.7891 1529.98 49.9314 Q1529.98 58.0738 1533.42 62.7728 Q1536.91 67.4314 1542.94 67.4314 Q1548.9 67.4314 1552.38 62.7323 Q1555.87 58.0333 1555.87 49.9314 Q1555.87 41.8701 1552.38 37.1711 Q1548.9 32.4315 1542.94 32.4315 M1542.94 26.1121 Q1552.67 26.1121 1558.22 32.4315 Q1563.77 38.7509 1563.77 49.9314 Q1563.77 61.0714 1558.22 67.4314 Q1552.67 73.7508 1542.94 73.7508 Q1533.18 73.7508 1527.63 67.4314 Q1522.12 61.0714 1522.12 49.9314 Q1522.12 38.7509 1527.63 32.4315 Q1533.18 26.1121 1542.94 26.1121 Z" fill="#000000" fill-rule="nonzero" fill-opacity="1"></path><path clip-path="url(#clip470)" d="M1602.41 34.1734 Q1601.16 33.4443 1599.66 33.1202 Q1598.2 32.7556 1596.42 32.7556 Q1590.1 32.7556 1586.69 36.8875 Q1583.33 40.9789 1583.33 48.6757 L1583.33 72.576 L1575.84 72.576 L1575.84 27.2059 L1583.33 27.2059 L1583.33 34.2544 Q1585.68 30.1225 1589.45 28.1376 Q1593.22 26.1121 1598.6 26.1121 Q1599.37 26.1121 1600.31 26.2337 Q1601.24 26.3147 1602.37 26.5172 L1602.41 34.1734 Z" fill="#000000" fill-rule="nonzero" fill-opacity="1"></path><path clip-path="url(#clip470)" d="M1647.21 48.0275 L1647.21 51.6733 L1612.94 51.6733 Q1613.43 59.3701 1617.56 63.421 Q1621.73 67.4314 1629.15 67.4314 Q1633.44 67.4314 1637.45 66.3781 Q1641.5 65.3249 1645.47 63.2184 L1645.47 70.267 Q1641.46 71.9684 1637.25 72.8596 Q1633.04 73.7508 1628.7 73.7508 Q1617.85 73.7508 1611.49 67.4314 Q1605.17 61.1119 1605.17 50.3365 Q1605.17 39.1965 1611.16 32.6746 Q1617.2 26.1121 1627.41 26.1121 Q1636.56 26.1121 1641.87 32.0264 Q1647.21 37.9003 1647.21 48.0275 M1639.76 45.84 Q1639.68 39.7232 1636.32 36.0774 Q1633 32.4315 1627.49 32.4315 Q1621.25 32.4315 1617.48 35.9558 Q1613.75 39.4801 1613.19 45.8805 L1639.76 45.84 Z" fill="#000000" fill-rule="nonzero" fill-opacity="1"></path><path clip-path="url(#clip470)" d="M1680.47 27.2059 L1688.37 27.2059 L1702.55 65.2844 L1716.73 27.2059 L1724.63 27.2059 L1707.61 72.576 L1697.49 72.576 L1680.47 27.2059 Z" fill="#000000" fill-rule="nonzero" fill-opacity="1"></path><path clip-path="url(#clip470)" d="M1763.84 28.5427 L1763.84 35.5912 Q1760.68 33.9709 1757.28 33.1607 Q1753.88 32.3505 1750.23 32.3505 Q1744.68 32.3505 1741.88 34.0519 Q1739.13 35.7533 1739.13 39.156 Q1739.13 41.7486 1741.11 43.2475 Q1743.1 44.7058 1749.1 46.0426 L1751.65 46.6097 Q1759.59 48.3111 1762.91 51.4303 Q1766.27 54.509 1766.27 60.0587 Q1766.27 66.3781 1761.25 70.0644 Q1756.27 73.7508 1747.52 73.7508 Q1743.87 73.7508 1739.9 73.0216 Q1735.97 72.3329 1731.6 70.9151 L1731.6 63.2184 Q1735.73 65.3654 1739.74 66.4591 Q1743.75 67.5124 1747.68 67.5124 Q1752.94 67.5124 1755.78 65.73 Q1758.61 63.9071 1758.61 60.6258 Q1758.61 57.5877 1756.55 55.9673 Q1754.52 54.3469 1747.6 52.8481 L1745 52.2405 Q1738.08 50.7821 1735 47.7845 Q1731.92 44.7463 1731.92 39.4801 Q1731.92 33.0797 1736.46 29.5959 Q1740.99 26.1121 1749.34 26.1121 Q1753.47 26.1121 1757.12 26.7198 Q1760.76 27.3274 1763.84 28.5427 Z" fill="#000000" fill-rule="nonzero" fill-opacity="1"></path><path clip-path="url(#clip470)" d="M1779.19 62.2867 L1787.74 62.2867 L1787.74 72.576 L1779.19 72.576 L1779.19 62.2867 Z" fill="#000000" fill-rule="nonzero" fill-opacity="1"></path><path clip-path="url(#clip470)" d="M1851.42 20.1573 L1840.32 50.2555 L1862.56 50.2555 L1851.42 20.1573 M1846.8 12.096 L1856.08 12.096 L1879.13 72.576 L1870.62 72.576 L1865.11 57.061 L1837.85 57.061 L1832.34 72.576 L1823.71 72.576 L1846.8 12.096 Z" fill="#000000" fill-rule="nonzero" fill-opacity="1"></path><path clip-path="url(#clip470)" d="M1907.65 9.54393 L1907.65 15.7418 L1900.52 15.7418 Q1896.51 15.7418 1894.93 17.3622 Q1893.39 18.9825 1893.39 23.1955 L1893.39 27.2059 L1905.66 27.2059 L1905.66 32.9987 L1893.39 32.9987 L1893.39 72.576 L1885.89 72.576 L1885.89 32.9987 L1878.76 32.9987 L1878.76 27.2059 L1885.89 27.2059 L1885.89 24.0462 Q1885.89 16.471 1889.42 13.0277 Q1892.94 9.54393 1900.6 9.54393 L1907.65 9.54393 Z" fill="#000000" fill-rule="nonzero" fill-opacity="1"></path><path clip-path="url(#clip470)" d="M1919.8 14.324 L1919.8 27.2059 L1935.15 27.2059 L1935.15 32.9987 L1919.8 32.9987 L1919.8 57.6282 Q1919.8 63.1779 1921.3 64.7578 Q1922.84 66.3376 1927.5 66.3376 L1935.15 66.3376 L1935.15 72.576 L1927.5 72.576 Q1918.87 72.576 1915.59 69.3758 Q1912.31 66.1351 1912.31 57.6282 L1912.31 32.9987 L1906.84 32.9987 L1906.84 27.2059 L1912.31 27.2059 L1912.31 14.324 L1919.8 14.324 Z" fill="#000000" fill-rule="nonzero" fill-opacity="1"></path><path clip-path="url(#clip470)" d="M1983.76 48.0275 L1983.76 51.6733 L1949.49 51.6733 Q1949.98 59.3701 1954.11 63.421 Q1958.28 67.4314 1965.7 67.4314 Q1969.99 67.4314 1974 66.3781 Q1978.05 65.3249 1982.02 63.2184 L1982.02 70.267 Q1978.01 71.9684 1973.8 72.8596 Q1969.59 73.7508 1965.25 73.7508 Q1954.39 73.7508 1948.03 67.4314 Q1941.72 61.1119 1941.72 50.3365 Q1941.72 39.1965 1947.71 32.6746 Q1953.75 26.1121 1963.96 26.1121 Q1973.11 26.1121 1978.42 32.0264 Q1983.76 37.9003 1983.76 48.0275 M1976.31 45.84 Q1976.23 39.7232 1972.87 36.0774 Q1969.55 32.4315 1964.04 32.4315 Q1957.8 32.4315 1954.03 35.9558 Q1950.3 39.4801 1949.74 45.8805 L1976.31 45.84 Z" fill="#000000" fill-rule="nonzero" fill-opacity="1"></path><path clip-path="url(#clip470)" d="M2022.29 34.1734 Q2021.03 33.4443 2019.53 33.1202 Q2018.08 32.7556 2016.29 32.7556 Q2009.97 32.7556 2006.57 36.8875 Q2003.21 40.9789 2003.21 48.6757 L2003.21 72.576 L1995.71 72.576 L1995.71 27.2059 L2003.21 27.2059 L2003.21 34.2544 Q2005.56 30.1225 2009.33 28.1376 Q2013.09 26.1121 2018.48 26.1121 Q2019.25 26.1121 2020.18 26.2337 Q2021.11 26.3147 2022.25 26.5172 L2022.29 34.1734 Z" fill="#000000" fill-rule="nonzero" fill-opacity="1"></path><path clip-path="url(#clip470)" d="M2102.09 16.7545 L2102.09 25.383 Q2097.96 21.5346 2093.26 19.6307 Q2088.6 17.7268 2083.34 17.7268 Q2072.96 17.7268 2067.46 24.0867 Q2061.95 30.4061 2061.95 42.3968 Q2061.95 54.3469 2067.46 60.7069 Q2072.96 67.0263 2083.34 67.0263 Q2088.6 67.0263 2093.26 65.1223 Q2097.96 63.2184 2102.09 59.3701 L2102.09 67.9175 Q2097.8 70.8341 2092.98 72.2924 Q2088.2 73.7508 2082.85 73.7508 Q2069.12 73.7508 2061.22 65.3654 Q2053.32 56.9395 2053.32 42.3968 Q2053.32 27.8135 2061.22 19.4281 Q2069.12 11.0023 2082.85 11.0023 Q2088.28 11.0023 2093.06 12.4606 Q2097.88 13.8784 2102.09 16.7545 Z" fill="#000000" fill-rule="nonzero" fill-opacity="1"></path><path clip-path="url(#clip470)" d="M2131.99 32.4315 Q2125.99 32.4315 2122.51 37.1306 Q2119.02 41.7891 2119.02 49.9314 Q2119.02 58.0738 2122.47 62.7728 Q2125.95 67.4314 2131.99 67.4314 Q2137.94 67.4314 2141.43 62.7323 Q2144.91 58.0333 2144.91 49.9314 Q2144.91 41.8701 2141.43 37.1711 Q2137.94 32.4315 2131.99 32.4315 M2131.99 26.1121 Q2141.71 26.1121 2147.26 32.4315 Q2152.81 38.7509 2152.81 49.9314 Q2152.81 61.0714 2147.26 67.4314 Q2141.71 73.7508 2131.99 73.7508 Q2122.22 73.7508 2116.67 67.4314 Q2111.16 61.0714 2111.16 49.9314 Q2111.16 38.7509 2116.67 32.4315 Q2122.22 26.1121 2131.99 26.1121 Z" fill="#000000" fill-rule="nonzero" fill-opacity="1"></path><path clip-path="url(#clip470)" d="M2200.49 35.9153 Q2203.28 30.8922 2207.17 28.5022 Q2211.06 26.1121 2216.33 26.1121 Q2223.42 26.1121 2227.26 31.0947 Q2231.11 36.0368 2231.11 45.1919 L2231.11 72.576 L2223.62 72.576 L2223.62 45.4349 Q2223.62 38.913 2221.31 35.7533 Q2219 32.5936 2214.26 32.5936 Q2208.47 32.5936 2205.11 36.4419 Q2201.74 40.2903 2201.74 46.9338 L2201.74 72.576 L2194.25 72.576 L2194.25 45.4349 Q2194.25 38.8725 2191.94 35.7533 Q2189.63 32.5936 2184.81 32.5936 Q2179.1 32.5936 2175.74 36.4824 Q2172.37 40.3308 2172.37 46.9338 L2172.37 72.576 L2164.88 72.576 L2164.88 27.2059 L2172.37 27.2059 L2172.37 34.2544 Q2174.93 30.082 2178.49 28.0971 Q2182.06 26.1121 2186.96 26.1121 Q2191.9 26.1121 2195.34 28.6237 Q2198.83 31.1352 2200.49 35.9153 Z" fill="#000000" fill-rule="nonzero" fill-opacity="1"></path><path clip-path="url(#clip470)" d="M2253.19 65.7705 L2253.19 89.8329 L2245.7 89.8329 L2245.7 27.2059 L2253.19 27.2059 L2253.19 34.0924 Q2255.54 30.0415 2259.1 28.0971 Q2262.71 26.1121 2267.69 26.1121 Q2275.96 26.1121 2281.1 32.6746 Q2286.29 39.2371 2286.29 49.9314 Q2286.29 60.6258 2281.1 67.1883 Q2275.96 73.7508 2267.69 73.7508 Q2262.71 73.7508 2259.1 71.8063 Q2255.54 69.8214 2253.19 65.7705 M2278.55 49.9314 Q2278.55 41.7081 2275.15 37.0496 Q2271.78 32.3505 2265.87 32.3505 Q2259.95 32.3505 2256.55 37.0496 Q2253.19 41.7081 2253.19 49.9314 Q2253.19 58.1548 2256.55 62.8538 Q2259.95 67.5124 2265.87 67.5124 Q2271.78 67.5124 2275.15 62.8538 Q2278.55 58.1548 2278.55 49.9314 Z" fill="#000000" fill-rule="nonzero" fill-opacity="1"></path><path clip-path="url(#clip470)" d="M2337.45 48.0275 L2337.45 51.6733 L2303.18 51.6733 Q2303.66 59.3701 2307.8 63.421 Q2311.97 67.4314 2319.38 67.4314 Q2323.68 67.4314 2327.69 66.3781 Q2331.74 65.3249 2335.71 63.2184 L2335.71 70.267 Q2331.7 71.9684 2327.48 72.8596 Q2323.27 73.7508 2318.94 73.7508 Q2308.08 73.7508 2301.72 67.4314 Q2295.4 61.1119 2295.4 50.3365 Q2295.4 39.1965 2301.4 32.6746 Q2307.43 26.1121 2317.64 26.1121 Q2326.79 26.1121 2332.1 32.0264 Q2337.45 37.9003 2337.45 48.0275 M2329.99 45.84 Q2329.91 39.7232 2326.55 36.0774 Q2323.23 32.4315 2317.72 32.4315 Q2311.48 32.4315 2307.71 35.9558 Q2303.99 39.4801 2303.42 45.8805 L2329.99 45.84 Z" fill="#000000" fill-rule="nonzero" fill-opacity="1"></path><path clip-path="url(#clip470)" d="M2387.4 45.1919 L2387.4 72.576 L2379.94 72.576 L2379.94 45.4349 Q2379.94 38.994 2377.43 35.7938 Q2374.92 32.5936 2369.9 32.5936 Q2363.86 32.5936 2360.38 36.4419 Q2356.89 40.2903 2356.89 46.9338 L2356.89 72.576 L2349.4 72.576 L2349.4 27.2059 L2356.89 27.2059 L2356.89 34.2544 Q2359.57 30.163 2363.17 28.1376 Q2366.82 26.1121 2371.56 26.1121 Q2379.38 26.1121 2383.39 30.9732 Q2387.4 35.7938 2387.4 45.1919 Z" fill="#000000" fill-rule="nonzero" fill-opacity="1"></path><path clip-path="url(#clip470)" d="M2431.19 28.5427 L2431.19 35.5912 Q2428.03 33.9709 2424.62 33.1607 Q2421.22 32.3505 2417.58 32.3505 Q2412.03 32.3505 2409.23 34.0519 Q2406.48 35.7533 2406.48 39.156 Q2406.48 41.7486 2408.46 43.2475 Q2410.45 44.7058 2416.44 46.0426 L2418.99 46.6097 Q2426.93 48.3111 2430.25 51.4303 Q2433.62 54.509 2433.62 60.0587 Q2433.62 66.3781 2428.59 70.0644 Q2423.61 73.7508 2414.86 73.7508 Q2411.22 73.7508 2407.25 73.0216 Q2403.32 72.3329 2398.94 70.9151 L2398.94 63.2184 Q2403.07 65.3654 2407.08 66.4591 Q2411.09 67.5124 2415.02 67.5124 Q2420.29 67.5124 2423.13 65.73 Q2425.96 63.9071 2425.96 60.6258 Q2425.96 57.5877 2423.89 55.9673 Q2421.87 54.3469 2414.94 52.8481 L2412.35 52.2405 Q2405.42 50.7821 2402.34 47.7845 Q2399.27 44.7463 2399.27 39.4801 Q2399.27 33.0797 2403.8 29.5959 Q2408.34 26.1121 2416.68 26.1121 Q2420.82 26.1121 2424.46 26.7198 Q2428.11 27.3274 2431.19 28.5427 Z" fill="#000000" fill-rule="nonzero" fill-opacity="1"></path><path clip-path="url(#clip470)" d="M2466.11 49.7694 Q2457.07 49.7694 2453.59 51.8354 Q2450.1 53.9013 2450.1 58.8839 Q2450.1 62.8538 2452.7 65.2034 Q2455.33 67.5124 2459.83 67.5124 Q2466.02 67.5124 2469.75 63.1374 Q2473.52 58.7219 2473.52 51.4303 L2473.52 49.7694 L2466.11 49.7694 M2480.97 46.6907 L2480.97 72.576 L2473.52 72.576 L2473.52 65.6895 Q2470.97 69.8214 2467.16 71.8063 Q2463.35 73.7508 2457.84 73.7508 Q2450.87 73.7508 2446.74 69.8619 Q2442.65 65.9325 2442.65 59.3701 Q2442.65 51.7138 2447.75 47.825 Q2452.9 43.9361 2463.07 43.9361 L2473.52 43.9361 L2473.52 43.2069 Q2473.52 38.0623 2470.12 35.2672 Q2466.75 32.4315 2460.64 32.4315 Q2456.75 32.4315 2453.06 33.3632 Q2449.37 34.295 2445.97 36.1584 L2445.97 29.2718 Q2450.06 27.692 2453.91 26.9223 Q2457.76 26.1121 2461.41 26.1121 Q2471.25 26.1121 2476.11 31.2163 Q2480.97 36.3204 2480.97 46.6907 Z" fill="#000000" fill-rule="nonzero" fill-opacity="1"></path><path clip-path="url(#clip470)" d="M2503.7 14.324 L2503.7 27.2059 L2519.05 27.2059 L2519.05 32.9987 L2503.7 32.9987 L2503.7 57.6282 Q2503.7 63.1779 2505.2 64.7578 Q2506.74 66.3376 2511.39 66.3376 L2519.05 66.3376 L2519.05 72.576 L2511.39 72.576 Q2502.77 72.576 2499.48 69.3758 Q2496.2 66.1351 2496.2 57.6282 L2496.2 32.9987 L2490.73 32.9987 L2490.73 27.2059 L2496.2 27.2059 L2496.2 14.324 L2503.7 14.324 Z" fill="#000000" fill-rule="nonzero" fill-opacity="1"></path><path clip-path="url(#clip470)" d="M2528.85 27.2059 L2536.31 27.2059 L2536.31 72.576 L2528.85 72.576 L2528.85 27.2059 M2528.85 9.54393 L2536.31 9.54393 L2536.31 18.9825 L2528.85 18.9825 L2528.85 9.54393 Z" fill="#000000" fill-rule="nonzero" fill-opacity="1"></path><path clip-path="url(#clip470)" d="M2569.48 32.4315 Q2563.49 32.4315 2560.01 37.1306 Q2556.52 41.7891 2556.52 49.9314 Q2556.52 58.0738 2559.96 62.7728 Q2563.45 67.4314 2569.48 67.4314 Q2575.44 67.4314 2578.92 62.7323 Q2582.41 58.0333 2582.41 49.9314 Q2582.41 41.8701 2578.92 37.1711 Q2575.44 32.4315 2569.48 32.4315 M2569.48 26.1121 Q2579.21 26.1121 2584.76 32.4315 Q2590.31 38.7509 2590.31 49.9314 Q2590.31 61.0714 2584.76 67.4314 Q2579.21 73.7508 2569.48 73.7508 Q2559.72 73.7508 2554.17 67.4314 Q2548.66 61.0714 2548.66 49.9314 Q2548.66 38.7509 2554.17 32.4315 Q2559.72 26.1121 2569.48 26.1121 Z" fill="#000000" fill-rule="nonzero" fill-opacity="1"></path><path clip-path="url(#clip470)" d="M2640.38 45.1919 L2640.38 72.576 L2632.92 72.576 L2632.92 45.4349 Q2632.92 38.994 2630.41 35.7938 Q2627.9 32.5936 2622.88 32.5936 Q2616.84 32.5936 2613.36 36.4419 Q2609.87 40.2903 2609.87 46.9338 L2609.87 72.576 L2602.38 72.576 L2602.38 27.2059 L2609.87 27.2059 L2609.87 34.2544 Q2612.55 30.163 2616.15 28.1376 Q2619.8 26.1121 2624.54 26.1121 Q2632.35 26.1121 2636.36 30.9732 Q2640.38 35.7938 2640.38 45.1919 Z" fill="#000000" fill-rule="nonzero" fill-opacity="1"></path><path clip-path="url(#clip470)" d="M2654.07 9.62495 L2660.55 9.62495 Q2666.62 19.1851 2669.62 28.3401 Q2672.66 37.4952 2672.66 46.5287 Q2672.66 55.6027 2669.62 64.7983 Q2666.62 73.9938 2660.55 83.5134 L2654.07 83.5134 Q2659.45 74.2369 2662.09 65.0818 Q2664.76 55.8863 2664.76 46.5287 Q2664.76 37.1711 2662.09 28.0566 Q2659.45 18.942 2654.07 9.62495 Z" fill="#000000" fill-rule="nonzero" fill-opacity="1"></path><polyline clip-path="url(#clip472)" style="stroke:#0000ff; stroke-linecap:round; stroke-linejoin:round; stroke-width:4; stroke-opacity:1; fill:none" points="264.778,435.709 940.499,806.496 1616.22,160.256 2291.94,1176.4 "></polyline>
<circle clip-path="url(#clip472)" cx="264.778" cy="435.709" r="14.4" fill="#0000ff" fill-rule="evenodd" fill-opacity="1" stroke="#000000" stroke-opacity="1" stroke-width="3.2"></circle>
<circle clip-path="url(#clip472)" cx="940.499" cy="806.496" r="14.4" fill="#0000ff" fill-rule="evenodd" fill-opacity="1" stroke="#000000" stroke-opacity="1" stroke-width="3.2"></circle>
<circle clip-path="url(#clip472)" cx="1616.22" cy="160.256" r="14.4" fill="#0000ff" fill-rule="evenodd" fill-opacity="1" stroke="#000000" stroke-opacity="1" stroke-width="3.2"></circle>
<circle clip-path="url(#clip472)" cx="2291.94" cy="1176.4" r="14.4" fill="#0000ff" fill-rule="evenodd" fill-opacity="1" stroke="#000000" stroke-opacity="1" stroke-width="3.2"></circle>
<polyline clip-path="url(#clip472)" style="stroke:#ff0000; stroke-linecap:round; stroke-linejoin:round; stroke-width:4; stroke-opacity:1; fill:none" stroke-dasharray="16, 10" points="264.778,436.25 940.499,805.549 1616.22,160.914 2291.94,1386.4 "></polyline>
<path clip-path="url(#clip472)" d="M248.778 420.25 L248.778 452.25 L280.778 452.25 L280.778 420.25 L248.778 420.25 Z" fill="#ff0000" fill-rule="evenodd" fill-opacity="1" stroke="#000000" stroke-opacity="1" stroke-width="3.2"></path>
<path clip-path="url(#clip472)" d="M924.499 789.549 L924.499 821.549 L956.499 821.549 L956.499 789.549 L924.499 789.549 Z" fill="#ff0000" fill-rule="evenodd" fill-opacity="1" stroke="#000000" stroke-opacity="1" stroke-width="3.2"></path>
<path clip-path="url(#clip472)" d="M1600.22 144.914 L1600.22 176.914 L1632.22 176.914 L1632.22 144.914 L1600.22 144.914 Z" fill="#ff0000" fill-rule="evenodd" fill-opacity="1" stroke="#000000" stroke-opacity="1" stroke-width="3.2"></path>
<path clip-path="url(#clip472)" d="M2275.94 1370.4 L2275.94 1402.4 L2307.94 1402.4 L2307.94 1370.4 L2275.94 1370.4 Z" fill="#ff0000" fill-rule="evenodd" fill-opacity="1" stroke="#000000" stroke-opacity="1" stroke-width="3.2"></path>
<path clip-path="url(#clip470)" d="M1562.71 322.316 L2281.13 322.316 L2281.13 166.796 L1562.71 166.796  Z" fill="#ffffff" fill-rule="evenodd" fill-opacity="1"></path>
<polyline clip-path="url(#clip470)" style="stroke:#000000; stroke-linecap:round; stroke-linejoin:round; stroke-width:4; stroke-opacity:1; fill:none" points="1562.71,322.316 2281.13,322.316 2281.13,166.796 1562.71,166.796 1562.71,322.316 "></polyline>
<polyline clip-path="url(#clip470)" style="stroke:#0000ff; stroke-linecap:round; stroke-linejoin:round; stroke-width:4; stroke-opacity:1; fill:none" points="1586.59,218.636 1729.84,218.636 "></polyline>
<circle clip-path="url(#clip470)" cx="1658.21" cy="218.636" r="19.8962" fill="#0000ff" fill-rule="evenodd" fill-opacity="1" stroke="#000000" stroke-opacity="1" stroke-width="4.55111"></circle>
<path clip-path="url(#clip470)" d="M1758.39 219.411 L1758.39 232.073 L1765.89 232.073 Q1769.66 232.073 1771.47 230.522 Q1773.3 228.948 1773.3 225.731 Q1773.3 222.49 1771.47 220.962 Q1769.66 219.411 1765.89 219.411 L1758.39 219.411 M1758.39 205.198 L1758.39 215.615 L1765.31 215.615 Q1768.74 215.615 1770.4 214.342 Q1772.09 213.045 1772.09 210.407 Q1772.09 207.791 1770.4 206.495 Q1768.74 205.198 1765.31 205.198 L1758.39 205.198 M1753.72 201.356 L1765.66 201.356 Q1771.01 201.356 1773.9 203.578 Q1776.79 205.8 1776.79 209.897 Q1776.79 213.069 1775.31 214.944 Q1773.83 216.819 1770.96 217.282 Q1774.41 218.022 1776.31 220.383 Q1778.23 222.721 1778.23 226.24 Q1778.23 230.869 1775.08 233.393 Q1771.93 235.916 1766.12 235.916 L1753.72 235.916 L1753.72 201.356 Z" fill="#000000" fill-rule="nonzero" fill-opacity="1"></path><path clip-path="url(#clip470)" d="M1808.23 221.888 L1808.23 223.971 L1788.65 223.971 Q1788.92 228.369 1791.28 230.684 Q1793.67 232.976 1797.9 232.976 Q1800.36 232.976 1802.65 232.374 Q1804.96 231.772 1807.23 230.569 L1807.23 234.596 Q1804.94 235.568 1802.53 236.078 Q1800.13 236.587 1797.65 236.587 Q1791.45 236.587 1787.81 232.976 Q1784.2 229.365 1784.2 223.207 Q1784.2 216.842 1787.63 213.115 Q1791.08 209.365 1796.91 209.365 Q1802.14 209.365 1805.17 212.745 Q1808.23 216.101 1808.23 221.888 M1803.97 220.638 Q1803.92 217.143 1802 215.059 Q1800.1 212.976 1796.96 212.976 Q1793.39 212.976 1791.24 214.99 Q1789.11 217.004 1788.78 220.661 L1803.97 220.638 Z" fill="#000000" fill-rule="nonzero" fill-opacity="1"></path><path clip-path="url(#clip470)" d="M1828.34 199.897 L1828.34 203.439 L1824.27 203.439 Q1821.98 203.439 1821.08 204.365 Q1820.2 205.291 1820.2 207.698 L1820.2 209.99 L1827.21 209.99 L1827.21 213.3 L1820.2 213.3 L1820.2 235.916 L1815.91 235.916 L1815.91 213.3 L1811.84 213.3 L1811.84 209.99 L1815.91 209.99 L1815.91 208.184 Q1815.91 203.856 1817.93 201.888 Q1819.94 199.897 1824.32 199.897 L1828.34 199.897 Z" fill="#000000" fill-rule="nonzero" fill-opacity="1"></path><path clip-path="url(#clip470)" d="M1841.96 212.976 Q1838.53 212.976 1836.54 215.661 Q1834.55 218.323 1834.55 222.976 Q1834.55 227.629 1836.52 230.314 Q1838.51 232.976 1841.96 232.976 Q1845.36 232.976 1847.35 230.291 Q1849.34 227.606 1849.34 222.976 Q1849.34 218.37 1847.35 215.684 Q1845.36 212.976 1841.96 212.976 M1841.96 209.365 Q1847.51 209.365 1850.68 212.976 Q1853.85 216.587 1853.85 222.976 Q1853.85 229.342 1850.68 232.976 Q1847.51 236.587 1841.96 236.587 Q1836.38 236.587 1833.21 232.976 Q1830.06 229.342 1830.06 222.976 Q1830.06 216.587 1833.21 212.976 Q1836.38 209.365 1841.96 209.365 Z" fill="#000000" fill-rule="nonzero" fill-opacity="1"></path><path clip-path="url(#clip470)" d="M1875.94 213.971 Q1875.22 213.555 1874.36 213.37 Q1873.53 213.161 1872.51 213.161 Q1868.9 213.161 1866.96 215.522 Q1865.03 217.86 1865.03 222.258 L1865.03 235.916 L1860.75 235.916 L1860.75 209.99 L1865.03 209.99 L1865.03 214.018 Q1866.38 211.657 1868.53 210.522 Q1870.68 209.365 1873.76 209.365 Q1874.2 209.365 1874.73 209.434 Q1875.27 209.481 1875.91 209.596 L1875.94 213.971 Z" fill="#000000" fill-rule="nonzero" fill-opacity="1"></path><path clip-path="url(#clip470)" d="M1901.54 221.888 L1901.54 223.971 L1881.96 223.971 Q1882.23 228.369 1884.59 230.684 Q1886.98 232.976 1891.21 232.976 Q1893.67 232.976 1895.96 232.374 Q1898.27 231.772 1900.54 230.569 L1900.54 234.596 Q1898.25 235.568 1895.84 236.078 Q1893.44 236.587 1890.96 236.587 Q1884.76 236.587 1881.12 232.976 Q1877.51 229.365 1877.51 223.207 Q1877.51 216.842 1880.94 213.115 Q1884.39 209.365 1890.22 209.365 Q1895.45 209.365 1898.48 212.745 Q1901.54 216.101 1901.54 221.888 M1897.28 220.638 Q1897.23 217.143 1895.31 215.059 Q1893.41 212.976 1890.27 212.976 Q1886.7 212.976 1884.55 214.99 Q1882.42 217.004 1882.09 220.661 L1897.28 220.638 Z" fill="#000000" fill-rule="nonzero" fill-opacity="1"></path><path clip-path="url(#clip470)" d="M1949.66 204.018 L1949.66 208.948 Q1947.3 206.749 1944.62 205.661 Q1941.95 204.573 1938.95 204.573 Q1933.02 204.573 1929.87 208.208 Q1926.72 211.819 1926.72 218.67 Q1926.72 225.499 1929.87 229.133 Q1933.02 232.744 1938.95 232.744 Q1941.95 232.744 1944.62 231.656 Q1947.3 230.569 1949.66 228.369 L1949.66 233.254 Q1947.21 234.92 1944.45 235.754 Q1941.72 236.587 1938.67 236.587 Q1930.82 236.587 1926.31 231.795 Q1921.79 226.981 1921.79 218.67 Q1921.79 210.337 1926.31 205.546 Q1930.82 200.731 1938.67 200.731 Q1941.77 200.731 1944.5 201.564 Q1947.26 202.374 1949.66 204.018 Z" fill="#000000" fill-rule="nonzero" fill-opacity="1"></path><path clip-path="url(#clip470)" d="M1966.75 212.976 Q1963.32 212.976 1961.33 215.661 Q1959.34 218.323 1959.34 222.976 Q1959.34 227.629 1961.31 230.314 Q1963.3 232.976 1966.75 232.976 Q1970.15 232.976 1972.14 230.291 Q1974.13 227.606 1974.13 222.976 Q1974.13 218.37 1972.14 215.684 Q1970.15 212.976 1966.75 212.976 M1966.75 209.365 Q1972.3 209.365 1975.47 212.976 Q1978.64 216.587 1978.64 222.976 Q1978.64 229.342 1975.47 232.976 Q1972.3 236.587 1966.75 236.587 Q1961.17 236.587 1958 232.976 Q1954.85 229.342 1954.85 222.976 Q1954.85 216.587 1958 212.976 Q1961.17 209.365 1966.75 209.365 Z" fill="#000000" fill-rule="nonzero" fill-opacity="1"></path><path clip-path="url(#clip470)" d="M2005.89 214.967 Q2007.49 212.096 2009.71 210.731 Q2011.93 209.365 2014.94 209.365 Q2018.99 209.365 2021.19 212.212 Q2023.39 215.036 2023.39 220.268 L2023.39 235.916 L2019.11 235.916 L2019.11 220.407 Q2019.11 216.68 2017.79 214.874 Q2016.47 213.069 2013.76 213.069 Q2010.45 213.069 2008.53 215.268 Q2006.61 217.467 2006.61 221.263 L2006.61 235.916 L2002.32 235.916 L2002.32 220.407 Q2002.32 216.657 2001.01 214.874 Q1999.69 213.069 1996.93 213.069 Q1993.67 213.069 1991.75 215.291 Q1989.82 217.49 1989.82 221.263 L1989.82 235.916 L1985.54 235.916 L1985.54 209.99 L1989.82 209.99 L1989.82 214.018 Q1991.28 211.633 1993.32 210.499 Q1995.36 209.365 1998.16 209.365 Q2000.98 209.365 2002.95 210.8 Q2004.94 212.235 2005.89 214.967 Z" fill="#000000" fill-rule="nonzero" fill-opacity="1"></path><path clip-path="url(#clip470)" d="M2036.01 232.027 L2036.01 245.777 L2031.72 245.777 L2031.72 209.99 L2036.01 209.99 L2036.01 213.925 Q2037.35 211.61 2039.38 210.499 Q2041.44 209.365 2044.29 209.365 Q2049.01 209.365 2051.95 213.115 Q2054.92 216.865 2054.92 222.976 Q2054.92 229.087 2051.95 232.837 Q2049.01 236.587 2044.29 236.587 Q2041.44 236.587 2039.38 235.476 Q2037.35 234.342 2036.01 232.027 M2050.5 222.976 Q2050.5 218.277 2048.55 215.615 Q2046.63 212.93 2043.25 212.93 Q2039.87 212.93 2037.93 215.615 Q2036.01 218.277 2036.01 222.976 Q2036.01 227.675 2037.93 230.36 Q2039.87 233.022 2043.25 233.022 Q2046.63 233.022 2048.55 230.36 Q2050.5 227.675 2050.5 222.976 Z" fill="#000000" fill-rule="nonzero" fill-opacity="1"></path><path clip-path="url(#clip470)" d="M2084.15 221.888 L2084.15 223.971 L2064.57 223.971 Q2064.85 228.369 2067.21 230.684 Q2069.59 232.976 2073.83 232.976 Q2076.28 232.976 2078.57 232.374 Q2080.89 231.772 2083.16 230.569 L2083.16 234.596 Q2080.87 235.568 2078.46 236.078 Q2076.05 236.587 2073.57 236.587 Q2067.37 236.587 2063.74 232.976 Q2060.13 229.365 2060.13 223.207 Q2060.13 216.842 2063.55 213.115 Q2067 209.365 2072.83 209.365 Q2078.07 209.365 2081.1 212.745 Q2084.15 216.101 2084.15 221.888 M2079.89 220.638 Q2079.85 217.143 2077.93 215.059 Q2076.03 212.976 2072.88 212.976 Q2069.32 212.976 2067.16 214.99 Q2065.03 217.004 2064.71 220.661 L2079.89 220.638 Z" fill="#000000" fill-rule="nonzero" fill-opacity="1"></path><path clip-path="url(#clip470)" d="M2112.69 220.268 L2112.69 235.916 L2108.44 235.916 L2108.44 220.407 Q2108.44 216.726 2107 214.897 Q2105.57 213.069 2102.69 213.069 Q2099.25 213.069 2097.25 215.268 Q2095.26 217.467 2095.26 221.263 L2095.26 235.916 L2090.98 235.916 L2090.98 209.99 L2095.26 209.99 L2095.26 214.018 Q2096.79 211.68 2098.85 210.522 Q2100.94 209.365 2103.64 209.365 Q2108.11 209.365 2110.4 212.143 Q2112.69 214.897 2112.69 220.268 Z" fill="#000000" fill-rule="nonzero" fill-opacity="1"></path><path clip-path="url(#clip470)" d="M2137.72 210.754 L2137.72 214.782 Q2135.91 213.856 2133.97 213.393 Q2132.02 212.93 2129.94 212.93 Q2126.77 212.93 2125.17 213.902 Q2123.6 214.874 2123.6 216.819 Q2123.6 218.3 2124.73 219.157 Q2125.87 219.99 2129.29 220.754 L2130.75 221.078 Q2135.29 222.05 2137.19 223.832 Q2139.11 225.592 2139.11 228.763 Q2139.11 232.374 2136.24 234.481 Q2133.39 236.587 2128.39 236.587 Q2126.31 236.587 2124.04 236.17 Q2121.79 235.777 2119.29 234.967 L2119.29 230.569 Q2121.65 231.795 2123.94 232.42 Q2126.24 233.022 2128.48 233.022 Q2131.49 233.022 2133.11 232.004 Q2134.73 230.962 2134.73 229.087 Q2134.73 227.351 2133.55 226.425 Q2132.39 225.499 2128.44 224.643 L2126.95 224.295 Q2123 223.462 2121.24 221.749 Q2119.48 220.013 2119.48 217.004 Q2119.48 213.346 2122.07 211.356 Q2124.66 209.365 2129.43 209.365 Q2131.79 209.365 2133.88 209.712 Q2135.96 210.059 2137.72 210.754 Z" fill="#000000" fill-rule="nonzero" fill-opacity="1"></path><path clip-path="url(#clip470)" d="M2157.67 222.883 Q2152.51 222.883 2150.52 224.064 Q2148.53 225.244 2148.53 228.092 Q2148.53 230.36 2150.01 231.703 Q2151.51 233.022 2154.08 233.022 Q2157.62 233.022 2159.75 230.522 Q2161.91 227.999 2161.91 223.832 L2161.91 222.883 L2157.67 222.883 M2166.17 221.124 L2166.17 235.916 L2161.91 235.916 L2161.91 231.981 Q2160.45 234.342 2158.27 235.476 Q2156.1 236.587 2152.95 236.587 Q2148.97 236.587 2146.61 234.365 Q2144.27 232.119 2144.27 228.369 Q2144.27 223.994 2147.19 221.772 Q2150.12 219.55 2155.94 219.55 L2161.91 219.55 L2161.91 219.133 Q2161.91 216.194 2159.96 214.596 Q2158.04 212.976 2154.55 212.976 Q2152.32 212.976 2150.22 213.508 Q2148.11 214.041 2146.17 215.106 L2146.17 211.17 Q2148.5 210.268 2150.7 209.828 Q2152.9 209.365 2154.99 209.365 Q2160.61 209.365 2163.39 212.282 Q2166.17 215.198 2166.17 221.124 Z" fill="#000000" fill-rule="nonzero" fill-opacity="1"></path><path clip-path="url(#clip470)" d="M2179.15 202.629 L2179.15 209.99 L2187.93 209.99 L2187.93 213.3 L2179.15 213.3 L2179.15 227.374 Q2179.15 230.545 2180.01 231.448 Q2180.89 232.351 2183.55 232.351 L2187.93 232.351 L2187.93 235.916 L2183.55 235.916 Q2178.62 235.916 2176.75 234.087 Q2174.87 232.235 2174.87 227.374 L2174.87 213.3 L2171.75 213.3 L2171.75 209.99 L2174.87 209.99 L2174.87 202.629 L2179.15 202.629 Z" fill="#000000" fill-rule="nonzero" fill-opacity="1"></path><path clip-path="url(#clip470)" d="M2193.53 209.99 L2197.79 209.99 L2197.79 235.916 L2193.53 235.916 L2193.53 209.99 M2193.53 199.897 L2197.79 199.897 L2197.79 205.291 L2193.53 205.291 L2193.53 199.897 Z" fill="#000000" fill-rule="nonzero" fill-opacity="1"></path><path clip-path="url(#clip470)" d="M2216.74 212.976 Q2213.32 212.976 2211.33 215.661 Q2209.34 218.323 2209.34 222.976 Q2209.34 227.629 2211.31 230.314 Q2213.3 232.976 2216.74 232.976 Q2220.15 232.976 2222.14 230.291 Q2224.13 227.606 2224.13 222.976 Q2224.13 218.37 2222.14 215.684 Q2220.15 212.976 2216.74 212.976 M2216.74 209.365 Q2222.3 209.365 2225.47 212.976 Q2228.64 216.587 2228.64 222.976 Q2228.64 229.342 2225.47 232.976 Q2222.3 236.587 2216.74 236.587 Q2211.17 236.587 2208 232.976 Q2204.85 229.342 2204.85 222.976 Q2204.85 216.587 2208 212.976 Q2211.17 209.365 2216.74 209.365 Z" fill="#000000" fill-rule="nonzero" fill-opacity="1"></path><path clip-path="url(#clip470)" d="M2257.25 220.268 L2257.25 235.916 L2252.99 235.916 L2252.99 220.407 Q2252.99 216.726 2251.56 214.897 Q2250.12 213.069 2247.25 213.069 Q2243.81 213.069 2241.81 215.268 Q2239.82 217.467 2239.82 221.263 L2239.82 235.916 L2235.54 235.916 L2235.54 209.99 L2239.82 209.99 L2239.82 214.018 Q2241.35 211.68 2243.41 210.522 Q2245.49 209.365 2248.2 209.365 Q2252.67 209.365 2254.96 212.143 Q2257.25 214.897 2257.25 220.268 Z" fill="#000000" fill-rule="nonzero" fill-opacity="1"></path><polyline clip-path="url(#clip470)" style="stroke:#ff0000; stroke-linecap:round; stroke-linejoin:round; stroke-width:4; stroke-opacity:1; fill:none" stroke-dasharray="16, 10" points="1586.59,270.476 1729.84,270.476 "></polyline>
<path clip-path="url(#clip470)" d="M1636.11 248.369 L1636.11 292.583 L1680.32 292.583 L1680.32 248.369 L1636.11 248.369 Z" fill="#ff0000" fill-rule="evenodd" fill-opacity="1" stroke="#000000" stroke-opacity="1" stroke-width="4.55111"></path>
<path clip-path="url(#clip470)" d="M1769.55 257.802 L1763.21 275.001 L1775.91 275.001 L1769.55 257.802 M1766.91 253.196 L1772.21 253.196 L1785.38 287.756 L1780.52 287.756 L1777.37 278.89 L1761.79 278.89 L1758.65 287.756 L1753.72 287.756 L1766.91 253.196 Z" fill="#000000" fill-rule="nonzero" fill-opacity="1"></path><path clip-path="url(#clip470)" d="M1801.68 251.737 L1801.68 255.279 L1797.6 255.279 Q1795.31 255.279 1794.41 256.205 Q1793.53 257.131 1793.53 259.538 L1793.53 261.83 L1800.54 261.83 L1800.54 265.14 L1793.53 265.14 L1793.53 287.756 L1789.25 287.756 L1789.25 265.14 L1785.17 265.14 L1785.17 261.83 L1789.25 261.83 L1789.25 260.024 Q1789.25 255.696 1791.26 253.728 Q1793.28 251.737 1797.65 251.737 L1801.68 251.737 Z" fill="#000000" fill-rule="nonzero" fill-opacity="1"></path><path clip-path="url(#clip470)" d="M1808.62 254.469 L1808.62 261.83 L1817.4 261.83 L1817.4 265.14 L1808.62 265.14 L1808.62 279.214 Q1808.62 282.385 1809.48 283.288 Q1810.36 284.191 1813.02 284.191 L1817.4 284.191 L1817.4 287.756 L1813.02 287.756 Q1808.09 287.756 1806.21 285.927 Q1804.34 284.075 1804.34 279.214 L1804.34 265.14 L1801.21 265.14 L1801.21 261.83 L1804.34 261.83 L1804.34 254.469 L1808.62 254.469 Z" fill="#000000" fill-rule="nonzero" fill-opacity="1"></path><path clip-path="url(#clip470)" d="M1845.17 273.728 L1845.17 275.811 L1825.59 275.811 Q1825.87 280.209 1828.23 282.524 Q1830.61 284.816 1834.85 284.816 Q1837.3 284.816 1839.59 284.214 Q1841.91 283.612 1844.18 282.409 L1844.18 286.436 Q1841.89 287.408 1839.48 287.918 Q1837.07 288.427 1834.59 288.427 Q1828.39 288.427 1824.76 284.816 Q1821.15 281.205 1821.15 275.047 Q1821.15 268.682 1824.57 264.955 Q1828.02 261.205 1833.85 261.205 Q1839.08 261.205 1842.12 264.585 Q1845.17 267.941 1845.17 273.728 M1840.91 272.478 Q1840.87 268.983 1838.95 266.899 Q1837.05 264.816 1833.9 264.816 Q1830.34 264.816 1828.18 266.83 Q1826.05 268.844 1825.73 272.501 L1840.91 272.478 Z" fill="#000000" fill-rule="nonzero" fill-opacity="1"></path><path clip-path="url(#clip470)" d="M1867.19 265.811 Q1866.47 265.395 1865.61 265.21 Q1864.78 265.001 1863.76 265.001 Q1860.15 265.001 1858.21 267.362 Q1856.28 269.7 1856.28 274.098 L1856.28 287.756 L1852 287.756 L1852 261.83 L1856.28 261.83 L1856.28 265.858 Q1857.63 263.497 1859.78 262.362 Q1861.93 261.205 1865.01 261.205 Q1865.45 261.205 1865.98 261.274 Q1866.52 261.321 1867.16 261.436 L1867.19 265.811 Z" fill="#000000" fill-rule="nonzero" fill-opacity="1"></path><path clip-path="url(#clip470)" d="M1912.79 255.858 L1912.79 260.788 Q1910.43 258.589 1907.74 257.501 Q1905.08 256.413 1902.07 256.413 Q1896.14 256.413 1893 260.048 Q1889.85 263.659 1889.85 270.51 Q1889.85 277.339 1893 280.973 Q1896.14 284.584 1902.07 284.584 Q1905.08 284.584 1907.74 283.496 Q1910.43 282.409 1912.79 280.209 L1912.79 285.094 Q1910.33 286.76 1907.58 287.594 Q1904.85 288.427 1901.79 288.427 Q1893.95 288.427 1889.43 283.635 Q1884.92 278.821 1884.92 270.51 Q1884.92 262.177 1889.43 257.386 Q1893.95 252.571 1901.79 252.571 Q1904.89 252.571 1907.63 253.404 Q1910.38 254.214 1912.79 255.858 Z" fill="#000000" fill-rule="nonzero" fill-opacity="1"></path><path clip-path="url(#clip470)" d="M1929.87 264.816 Q1926.45 264.816 1924.45 267.501 Q1922.46 270.163 1922.46 274.816 Q1922.46 279.469 1924.43 282.154 Q1926.42 284.816 1929.87 284.816 Q1933.27 284.816 1935.27 282.131 Q1937.26 279.446 1937.26 274.816 Q1937.26 270.21 1935.27 267.524 Q1933.27 264.816 1929.87 264.816 M1929.87 261.205 Q1935.43 261.205 1938.6 264.816 Q1941.77 268.427 1941.77 274.816 Q1941.77 281.182 1938.6 284.816 Q1935.43 288.427 1929.87 288.427 Q1924.29 288.427 1921.12 284.816 Q1917.97 281.182 1917.97 274.816 Q1917.97 268.427 1921.12 264.816 Q1924.29 261.205 1929.87 261.205 Z" fill="#000000" fill-rule="nonzero" fill-opacity="1"></path><path clip-path="url(#clip470)" d="M1969.01 266.807 Q1970.61 263.936 1972.83 262.571 Q1975.06 261.205 1978.07 261.205 Q1982.12 261.205 1984.32 264.052 Q1986.51 266.876 1986.51 272.108 L1986.51 287.756 L1982.23 287.756 L1982.23 272.247 Q1982.23 268.52 1980.91 266.714 Q1979.59 264.909 1976.89 264.909 Q1973.57 264.909 1971.65 267.108 Q1969.73 269.307 1969.73 273.103 L1969.73 287.756 L1965.45 287.756 L1965.45 272.247 Q1965.45 268.497 1964.13 266.714 Q1962.81 264.909 1960.06 264.909 Q1956.79 264.909 1954.87 267.131 Q1952.95 269.33 1952.95 273.103 L1952.95 287.756 L1948.67 287.756 L1948.67 261.83 L1952.95 261.83 L1952.95 265.858 Q1954.41 263.473 1956.45 262.339 Q1958.48 261.205 1961.28 261.205 Q1964.11 261.205 1966.08 262.64 Q1968.07 264.075 1969.01 266.807 Z" fill="#000000" fill-rule="nonzero" fill-opacity="1"></path><path clip-path="url(#clip470)" d="M1999.13 283.867 L1999.13 297.617 L1994.85 297.617 L1994.85 261.83 L1999.13 261.83 L1999.13 265.765 Q2000.47 263.45 2002.51 262.339 Q2004.57 261.205 2007.42 261.205 Q2012.14 261.205 2015.08 264.955 Q2018.04 268.705 2018.04 274.816 Q2018.04 280.927 2015.08 284.677 Q2012.14 288.427 2007.42 288.427 Q2004.57 288.427 2002.51 287.316 Q2000.47 286.182 1999.13 283.867 M2013.62 274.816 Q2013.62 270.117 2011.68 267.455 Q2009.76 264.77 2006.38 264.77 Q2003 264.77 2001.05 267.455 Q1999.13 270.117 1999.13 274.816 Q1999.13 279.515 2001.05 282.2 Q2003 284.862 2006.38 284.862 Q2009.76 284.862 2011.68 282.2 Q2013.62 279.515 2013.62 274.816 Z" fill="#000000" fill-rule="nonzero" fill-opacity="1"></path><path clip-path="url(#clip470)" d="M2047.28 273.728 L2047.28 275.811 L2027.7 275.811 Q2027.97 280.209 2030.33 282.524 Q2032.72 284.816 2036.95 284.816 Q2039.41 284.816 2041.7 284.214 Q2044.01 283.612 2046.28 282.409 L2046.28 286.436 Q2043.99 287.408 2041.58 287.918 Q2039.18 288.427 2036.7 288.427 Q2030.5 288.427 2026.86 284.816 Q2023.25 281.205 2023.25 275.047 Q2023.25 268.682 2026.68 264.955 Q2030.13 261.205 2035.96 261.205 Q2041.19 261.205 2044.22 264.585 Q2047.28 267.941 2047.28 273.728 M2043.02 272.478 Q2042.97 268.983 2041.05 266.899 Q2039.15 264.816 2036.01 264.816 Q2032.44 264.816 2030.29 266.83 Q2028.16 268.844 2027.83 272.501 L2043.02 272.478 Z" fill="#000000" fill-rule="nonzero" fill-opacity="1"></path><path clip-path="url(#clip470)" d="M2075.82 272.108 L2075.82 287.756 L2071.56 287.756 L2071.56 272.247 Q2071.56 268.566 2070.13 266.737 Q2068.69 264.909 2065.82 264.909 Q2062.37 264.909 2060.38 267.108 Q2058.39 269.307 2058.39 273.103 L2058.39 287.756 L2054.11 287.756 L2054.11 261.83 L2058.39 261.83 L2058.39 265.858 Q2059.92 263.52 2061.98 262.362 Q2064.06 261.205 2066.77 261.205 Q2071.24 261.205 2073.53 263.983 Q2075.82 266.737 2075.82 272.108 Z" fill="#000000" fill-rule="nonzero" fill-opacity="1"></path><path clip-path="url(#clip470)" d="M2100.84 262.594 L2100.84 266.622 Q2099.04 265.696 2097.09 265.233 Q2095.15 264.77 2093.07 264.77 Q2089.89 264.77 2088.3 265.742 Q2086.72 266.714 2086.72 268.659 Q2086.72 270.14 2087.86 270.997 Q2088.99 271.83 2092.42 272.594 L2093.88 272.918 Q2098.41 273.89 2100.31 275.672 Q2102.23 277.432 2102.23 280.603 Q2102.23 284.214 2099.36 286.321 Q2096.51 288.427 2091.51 288.427 Q2089.43 288.427 2087.16 288.01 Q2084.92 287.617 2082.42 286.807 L2082.42 282.409 Q2084.78 283.635 2087.07 284.26 Q2089.36 284.862 2091.61 284.862 Q2094.62 284.862 2096.24 283.844 Q2097.86 282.802 2097.86 280.927 Q2097.86 279.191 2096.68 278.265 Q2095.52 277.339 2091.56 276.483 L2090.08 276.135 Q2086.12 275.302 2084.36 273.589 Q2082.6 271.853 2082.6 268.844 Q2082.6 265.186 2085.19 263.196 Q2087.79 261.205 2092.56 261.205 Q2094.92 261.205 2097 261.552 Q2099.08 261.899 2100.84 262.594 Z" fill="#000000" fill-rule="nonzero" fill-opacity="1"></path><path clip-path="url(#clip470)" d="M2120.8 274.723 Q2115.63 274.723 2113.64 275.904 Q2111.65 277.084 2111.65 279.932 Q2111.65 282.2 2113.13 283.543 Q2114.64 284.862 2117.21 284.862 Q2120.75 284.862 2122.88 282.362 Q2125.03 279.839 2125.03 275.672 L2125.03 274.723 L2120.8 274.723 M2129.29 272.964 L2129.29 287.756 L2125.03 287.756 L2125.03 283.821 Q2123.57 286.182 2121.4 287.316 Q2119.22 288.427 2116.07 288.427 Q2112.09 288.427 2109.73 286.205 Q2107.39 283.959 2107.39 280.209 Q2107.39 275.834 2110.31 273.612 Q2113.25 271.39 2119.06 271.39 L2125.03 271.39 L2125.03 270.973 Q2125.03 268.034 2123.09 266.436 Q2121.17 264.816 2117.67 264.816 Q2115.45 264.816 2113.34 265.348 Q2111.24 265.881 2109.29 266.946 L2109.29 263.01 Q2111.63 262.108 2113.83 261.668 Q2116.03 261.205 2118.11 261.205 Q2123.74 261.205 2126.51 264.122 Q2129.29 267.038 2129.29 272.964 Z" fill="#000000" fill-rule="nonzero" fill-opacity="1"></path><path clip-path="url(#clip470)" d="M2142.28 254.469 L2142.28 261.83 L2151.05 261.83 L2151.05 265.14 L2142.28 265.14 L2142.28 279.214 Q2142.28 282.385 2143.13 283.288 Q2144.01 284.191 2146.68 284.191 L2151.05 284.191 L2151.05 287.756 L2146.68 287.756 Q2141.75 287.756 2139.87 285.927 Q2138 284.075 2138 279.214 L2138 265.14 L2134.87 265.14 L2134.87 261.83 L2138 261.83 L2138 254.469 L2142.28 254.469 Z" fill="#000000" fill-rule="nonzero" fill-opacity="1"></path><path clip-path="url(#clip470)" d="M2156.65 261.83 L2160.91 261.83 L2160.91 287.756 L2156.65 287.756 L2156.65 261.83 M2156.65 251.737 L2160.91 251.737 L2160.91 257.131 L2156.65 257.131 L2156.65 251.737 Z" fill="#000000" fill-rule="nonzero" fill-opacity="1"></path><path clip-path="url(#clip470)" d="M2179.87 264.816 Q2176.44 264.816 2174.45 267.501 Q2172.46 270.163 2172.46 274.816 Q2172.46 279.469 2174.43 282.154 Q2176.42 284.816 2179.87 284.816 Q2183.27 284.816 2185.26 282.131 Q2187.25 279.446 2187.25 274.816 Q2187.25 270.21 2185.26 267.524 Q2183.27 264.816 2179.87 264.816 M2179.87 261.205 Q2185.43 261.205 2188.6 264.816 Q2191.77 268.427 2191.77 274.816 Q2191.77 281.182 2188.6 284.816 Q2185.43 288.427 2179.87 288.427 Q2174.29 288.427 2171.12 284.816 Q2167.97 281.182 2167.97 274.816 Q2167.97 268.427 2171.12 264.816 Q2174.29 261.205 2179.87 261.205 Z" fill="#000000" fill-rule="nonzero" fill-opacity="1"></path><path clip-path="url(#clip470)" d="M2220.38 272.108 L2220.38 287.756 L2216.12 287.756 L2216.12 272.247 Q2216.12 268.566 2214.68 266.737 Q2213.25 264.909 2210.38 264.909 Q2206.93 264.909 2204.94 267.108 Q2202.95 269.307 2202.95 273.103 L2202.95 287.756 L2198.67 287.756 L2198.67 261.83 L2202.95 261.83 L2202.95 265.858 Q2204.48 263.52 2206.54 262.362 Q2208.62 261.205 2211.33 261.205 Q2215.8 261.205 2218.09 263.983 Q2220.38 266.737 2220.38 272.108 Z" fill="#000000" fill-rule="nonzero" fill-opacity="1"></path></svg>