<svg xmlns="http://www.w3.org/2000/svg" xmlns:xlink="http://www.w3.org/1999/xlink" width="750" height="500" viewBox="0 0 3000 2000">
<defs>
  <clipPath id="clip430">
    <rect x="0" y="0" width="3000" height="2000"></rect>
  </clipPath>
</defs>
<path clip-path="url(#clip430)" d="M0 2000 L3000 2000 L3000 1.11022e-13 L0 1.11022e-13  Z" fill="#ffffff" fill-rule="evenodd" fill-opacity="1"></path>
<defs>
  <clipPath id="clip431">
    <rect x="600" y="0" width="2101" height="2000"></rect>
  </clipPath>
</defs>
<path clip-path="url(#clip430)" d="M279.209 1757.82 L2952.76 1757.82 L2952.76 123.472 L279.209 123.472  Z" fill="#ffffff" fill-rule="evenodd" fill-opacity="1"></path>
<defs>
  <clipPath id="clip432">
    <rect x="279" y="123" width="2675" height="1635"></rect>
  </clipPath>
</defs>
<polyline clip-path="url(#clip432)" style="stroke:#000000; stroke-linecap:round; stroke-linejoin:round; stroke-width:2; stroke-opacity:0.1; fill:none" points="354.876,1757.82 354.876,123.472 "></polyline>
<polyline clip-path="url(#clip432)" style="stroke:#000000; stroke-linecap:round; stroke-linejoin:round; stroke-width:2; stroke-opacity:0.1; fill:none" points="859.318,1757.82 859.318,123.472 "></polyline>
<polyline clip-path="url(#clip432)" style="stroke:#000000; stroke-linecap:round; stroke-linejoin:round; stroke-width:2; stroke-opacity:0.1; fill:none" points="1363.76,1757.82 1363.76,123.472 "></polyline>
<polyline clip-path="url(#clip432)" style="stroke:#000000; stroke-linecap:round; stroke-linejoin:round; stroke-width:2; stroke-opacity:0.1; fill:none" points="1868.2,1757.82 1868.2,123.472 "></polyline>
<polyline clip-path="url(#clip432)" style="stroke:#000000; stroke-linecap:round; stroke-linejoin:round; stroke-width:2; stroke-opacity:0.1; fill:none" points="2372.65,1757.82 2372.65,123.472 "></polyline>
<polyline clip-path="url(#clip432)" style="stroke:#000000; stroke-linecap:round; stroke-linejoin:round; stroke-width:2; stroke-opacity:0.1; fill:none" points="2877.09,1757.82 2877.09,123.472 "></polyline>
<polyline clip-path="url(#clip432)" style="stroke:#000000; stroke-linecap:round; stroke-linejoin:round; stroke-width:2; stroke-opacity:0.1; fill:none" points="279.209,1542.65 2952.76,1542.65 "></polyline>
<polyline clip-path="url(#clip432)" style="stroke:#000000; stroke-linecap:round; stroke-linejoin:round; stroke-width:2; stroke-opacity:0.1; fill:none" points="279.209,1221.69 2952.76,1221.69 "></polyline>
<polyline clip-path="url(#clip432)" style="stroke:#000000; stroke-linecap:round; stroke-linejoin:round; stroke-width:2; stroke-opacity:0.1; fill:none" points="279.209,900.731 2952.76,900.731 "></polyline>
<polyline clip-path="url(#clip432)" style="stroke:#000000; stroke-linecap:round; stroke-linejoin:round; stroke-width:2; stroke-opacity:0.1; fill:none" points="279.209,579.771 2952.76,579.771 "></polyline>
<polyline clip-path="url(#clip432)" style="stroke:#000000; stroke-linecap:round; stroke-linejoin:round; stroke-width:2; stroke-opacity:0.1; fill:none" points="279.209,258.81 2952.76,258.81 "></polyline>
<polyline clip-path="url(#clip430)" style="stroke:#000000; stroke-linecap:round; stroke-linejoin:round; stroke-width:4; stroke-opacity:1; fill:none" points="279.209,1757.82 2952.76,1757.82 "></polyline>
<polyline clip-path="url(#clip430)" style="stroke:#000000; stroke-linecap:round; stroke-linejoin:round; stroke-width:4; stroke-opacity:1; fill:none" points="354.876,1757.82 354.876,1738.92 "></polyline>
<polyline clip-path="url(#clip430)" style="stroke:#000000; stroke-linecap:round; stroke-linejoin:round; stroke-width:4; stroke-opacity:1; fill:none" points="859.318,1757.82 859.318,1738.92 "></polyline>
<polyline clip-path="url(#clip430)" style="stroke:#000000; stroke-linecap:round; stroke-linejoin:round; stroke-width:4; stroke-opacity:1; fill:none" points="1363.76,1757.82 1363.76,1738.92 "></polyline>
<polyline clip-path="url(#clip430)" style="stroke:#000000; stroke-linecap:round; stroke-linejoin:round; stroke-width:4; stroke-opacity:1; fill:none" points="1868.2,1757.82 1868.2,1738.92 "></polyline>
<polyline clip-path="url(#clip430)" style="stroke:#000000; stroke-linecap:round; stroke-linejoin:round; stroke-width:4; stroke-opacity:1; fill:none" points="2372.65,1757.82 2372.65,1738.92 "></polyline>
<polyline clip-path="url(#clip430)" style="stroke:#000000; stroke-linecap:round; stroke-linejoin:round; stroke-width:4; stroke-opacity:1; fill:none" points="2877.09,1757.82 2877.09,1738.92 "></polyline>
<path clip-path="url(#clip430)" d="M236.641 1893.94 L239.947 1890.64 L261.602 1912.29 L273.502 1900.39 L276.284 1903.17 L261.078 1918.38 L236.641 1893.94 Z" fill="#000000" fill-rule="nonzero" fill-opacity="1"></path><path clip-path="url(#clip430)" d="M269.917 1877.1 Q267.495 1879.52 267.986 1882.83 Q268.46 1886.12 271.75 1889.41 Q275.04 1892.7 278.33 1893.21 Q281.62 1893.68 284.059 1891.24 Q286.465 1888.84 285.974 1885.53 Q285.483 1882.22 282.209 1878.95 Q278.952 1875.69 275.646 1875.2 Q272.323 1874.69 269.917 1877.1 M267.364 1874.55 Q271.292 1870.62 276.088 1870.93 Q280.884 1871.24 285.401 1875.76 Q289.902 1880.26 290.23 1885.07 Q290.541 1889.87 286.612 1893.8 Q282.668 1897.74 277.872 1897.43 Q273.076 1897.09 268.575 1892.58 Q264.057 1888.07 263.73 1883.29 Q263.419 1878.49 267.364 1874.55 Z" fill="#000000" fill-rule="nonzero" fill-opacity="1"></path><path clip-path="url(#clip430)" d="M298.659 1862.37 Q295.009 1866.02 294.436 1868.26 Q293.864 1870.5 295.877 1872.52 Q297.481 1874.12 299.478 1874.02 Q301.475 1873.89 303.292 1872.08 Q305.796 1869.57 305.534 1866.3 Q305.272 1862.99 302.326 1860.04 L301.655 1859.37 L298.659 1862.37 M303.423 1855.12 L313.882 1865.58 L310.87 1868.59 L308.087 1865.81 Q308.726 1868.51 307.989 1870.85 Q307.236 1873.17 305.01 1875.4 Q302.195 1878.21 298.954 1878.31 Q295.713 1878.38 293.062 1875.73 Q289.968 1872.63 290.459 1869 Q290.966 1865.35 295.075 1861.24 L299.298 1857.02 L299.003 1856.72 Q296.924 1854.64 294.42 1854.89 Q291.916 1855.1 289.444 1857.57 Q287.873 1859.14 286.76 1861.01 Q285.647 1862.88 285.025 1865 L282.242 1862.22 Q283.257 1859.93 284.501 1858.06 Q285.729 1856.18 287.202 1854.71 Q291.179 1850.73 295.206 1850.83 Q299.232 1850.93 303.423 1855.12 Z" fill="#000000" fill-rule="nonzero" fill-opacity="1"></path><path clip-path="url(#clip430)" d="M316.599 1831.76 L306.68 1821.84 L309.692 1818.83 L335.16 1844.3 L332.149 1847.31 L329.399 1844.56 Q330.086 1847.15 329.431 1849.41 Q328.777 1851.63 326.747 1853.66 Q323.424 1856.98 318.678 1856.43 Q313.947 1855.85 309.626 1851.53 Q305.305 1847.21 304.732 1842.48 Q304.175 1837.73 307.498 1834.41 Q309.528 1832.38 311.77 1831.74 Q314.013 1831.07 316.599 1831.76 M312.736 1848.42 Q316.059 1851.75 319.316 1852.29 Q322.573 1852.79 324.963 1850.4 Q327.353 1848.01 326.845 1844.76 Q326.322 1841.48 322.999 1838.16 Q319.676 1834.84 316.419 1834.33 Q313.145 1833.81 310.755 1836.2 Q308.366 1838.59 308.889 1841.86 Q309.413 1845.1 312.736 1848.42 Z" fill="#000000" fill-rule="nonzero" fill-opacity="1"></path><path clip-path="url(#clip430)" d="M337.632 1833.51 L341.086 1830.06 L345.243 1834.22 L341.789 1837.67 L337.632 1833.51 Z" fill="#000000" fill-rule="nonzero" fill-opacity="1"></path><path clip-path="url(#clip430)" d="M350.235 1823.66 L355.637 1818.26 L336.994 1799.61 L332.296 1806.67 L329.284 1803.66 L333.949 1796.63 L337.255 1793.33 L358.91 1814.98 L364.312 1809.58 L367.095 1812.36 L353.018 1826.44 L350.235 1823.66 Z" fill="#000000" fill-rule="nonzero" fill-opacity="1"></path><path clip-path="url(#clip430)" d="M741.345 1893.68 L744.652 1890.37 L766.307 1912.03 L778.206 1900.13 L780.989 1902.91 L765.783 1918.12 L741.345 1893.68 Z" fill="#000000" fill-rule="nonzero" fill-opacity="1"></path><path clip-path="url(#clip430)" d="M774.622 1876.84 Q772.199 1879.26 772.69 1882.57 Q773.165 1885.86 776.455 1889.15 Q779.745 1892.44 783.035 1892.94 Q786.325 1893.42 788.764 1890.98 Q791.17 1888.57 790.679 1885.27 Q790.188 1881.96 786.914 1878.69 Q783.657 1875.43 780.35 1874.94 Q777.028 1874.43 774.622 1876.84 M772.068 1874.28 Q775.997 1870.36 780.792 1870.67 Q785.588 1870.98 790.106 1875.5 Q794.607 1880 794.934 1884.81 Q795.245 1889.61 791.317 1893.53 Q787.372 1897.48 782.577 1897.17 Q777.781 1896.82 773.279 1892.32 Q768.762 1887.8 768.434 1883.03 Q768.123 1878.23 772.068 1874.28 Z" fill="#000000" fill-rule="nonzero" fill-opacity="1"></path><path clip-path="url(#clip430)" d="M803.364 1862.11 Q799.714 1865.76 799.141 1868 Q798.568 1870.24 800.581 1872.26 Q802.186 1873.86 804.182 1873.76 Q806.179 1873.63 807.996 1871.81 Q810.501 1869.31 810.239 1866.04 Q809.977 1862.73 807.031 1859.78 L806.359 1859.11 L803.364 1862.11 M808.127 1854.86 L818.586 1865.32 L815.575 1868.33 L812.792 1865.54 Q813.43 1868.24 812.694 1870.59 Q811.941 1872.91 809.715 1875.14 Q806.9 1877.95 803.659 1878.05 Q800.418 1878.11 797.766 1875.46 Q794.673 1872.37 795.164 1868.74 Q795.671 1865.09 799.779 1860.98 L804.002 1856.75 L803.708 1856.46 Q801.629 1854.38 799.125 1854.63 Q796.62 1854.84 794.149 1857.31 Q792.577 1858.88 791.464 1860.75 Q790.351 1862.61 789.729 1864.74 L786.947 1861.96 Q787.962 1859.67 789.206 1857.8 Q790.433 1855.92 791.906 1854.45 Q795.884 1850.47 799.91 1850.57 Q803.937 1850.67 808.127 1854.86 Z" fill="#000000" fill-rule="nonzero" fill-opacity="1"></path><path clip-path="url(#clip430)" d="M821.304 1831.5 L811.384 1821.58 L814.396 1818.57 L839.865 1844.04 L836.853 1847.05 L834.103 1844.3 Q834.791 1846.88 834.136 1849.14 Q833.481 1851.37 831.452 1853.4 Q828.129 1856.72 823.382 1856.17 Q818.652 1855.59 814.331 1851.27 Q810.01 1846.95 809.437 1842.22 Q808.88 1837.47 812.203 1834.15 Q814.232 1832.12 816.475 1831.48 Q818.717 1830.81 821.304 1831.5 M817.441 1848.16 Q820.763 1851.48 824.021 1852.02 Q827.278 1852.53 829.668 1850.14 Q832.057 1847.75 831.55 1844.49 Q831.026 1841.22 827.703 1837.9 Q824.381 1834.58 821.123 1834.07 Q817.85 1833.54 815.46 1835.93 Q813.07 1838.32 813.594 1841.6 Q814.118 1844.84 817.441 1848.16 Z" fill="#000000" fill-rule="nonzero" fill-opacity="1"></path><path clip-path="url(#clip430)" d="M842.337 1833.25 L845.79 1829.8 L849.948 1833.95 L846.494 1837.41 L842.337 1833.25 Z" fill="#000000" fill-rule="nonzero" fill-opacity="1"></path><path clip-path="url(#clip430)" d="M857.215 1821.12 L868.755 1809.58 L871.537 1812.36 L856.02 1827.88 L853.238 1825.1 Q853.172 1821.27 853.14 1814.75 Q853.107 1808.21 852.992 1806.42 Q852.796 1803.05 852.19 1801.2 Q851.585 1799.32 850.39 1798.12 Q848.442 1796.18 845.839 1796.32 Q843.253 1796.45 841.06 1798.65 Q839.505 1800.2 838.31 1802.48 Q837.131 1804.74 836.264 1807.8 L832.925 1804.46 Q834.12 1801.66 835.446 1799.52 Q836.771 1797.37 838.212 1795.93 Q842.009 1792.13 846.167 1791.77 Q850.324 1791.41 853.5 1794.59 Q855.005 1796.09 855.791 1798.03 Q856.577 1799.92 856.921 1803.25 Q856.986 1804.13 857.068 1808.6 Q857.133 1813.05 857.215 1821.12 Z" fill="#000000" fill-rule="nonzero" fill-opacity="1"></path><path clip-path="url(#clip430)" d="M1245.12 1894.35 L1248.42 1891.05 L1270.08 1912.7 L1281.98 1900.8 L1284.76 1903.58 L1269.55 1918.79 L1245.12 1894.35 Z" fill="#000000" fill-rule="nonzero" fill-opacity="1"></path><path clip-path="url(#clip430)" d="M1278.39 1877.51 Q1275.97 1879.93 1276.46 1883.24 Q1276.94 1886.53 1280.23 1889.82 Q1283.52 1893.11 1286.81 1893.62 Q1290.1 1894.09 1292.54 1891.65 Q1294.94 1889.25 1294.45 1885.94 Q1293.96 1882.63 1290.69 1879.36 Q1287.43 1876.1 1284.12 1875.61 Q1280.8 1875.1 1278.39 1877.51 M1275.84 1874.96 Q1279.77 1871.03 1284.56 1871.34 Q1289.36 1871.65 1293.88 1876.17 Q1298.38 1880.67 1298.71 1885.48 Q1299.02 1890.28 1295.09 1894.2 Q1291.14 1898.15 1286.35 1897.84 Q1281.55 1897.49 1277.05 1892.99 Q1272.53 1888.48 1272.21 1883.7 Q1271.9 1878.9 1275.84 1874.96 Z" fill="#000000" fill-rule="nonzero" fill-opacity="1"></path><path clip-path="url(#clip430)" d="M1307.14 1862.78 Q1303.49 1866.43 1302.91 1868.67 Q1302.34 1870.91 1304.35 1872.93 Q1305.96 1874.53 1307.95 1874.43 Q1309.95 1874.3 1311.77 1872.48 Q1314.27 1869.98 1314.01 1866.71 Q1313.75 1863.4 1310.8 1860.45 L1310.13 1859.78 L1307.14 1862.78 M1311.9 1855.53 L1322.36 1865.99 L1319.35 1869 L1316.56 1866.22 Q1317.2 1868.92 1316.47 1871.26 Q1315.71 1873.58 1313.49 1875.81 Q1310.67 1878.62 1307.43 1878.72 Q1304.19 1878.79 1301.54 1876.13 Q1298.44 1873.04 1298.94 1869.41 Q1299.44 1865.76 1303.55 1861.65 L1307.77 1857.43 L1307.48 1857.13 Q1305.4 1855.05 1302.9 1855.3 Q1300.39 1855.51 1297.92 1857.98 Q1296.35 1859.55 1295.24 1861.42 Q1294.12 1863.29 1293.5 1865.41 L1290.72 1862.63 Q1291.73 1860.34 1292.98 1858.47 Q1294.2 1856.59 1295.68 1855.12 Q1299.66 1851.14 1303.68 1851.24 Q1307.71 1851.34 1311.9 1855.53 Z" fill="#000000" fill-rule="nonzero" fill-opacity="1"></path><path clip-path="url(#clip430)" d="M1325.08 1832.17 L1315.16 1822.25 L1318.17 1819.24 L1343.64 1844.71 L1340.62 1847.72 L1337.88 1844.97 Q1338.56 1847.56 1337.91 1849.81 Q1337.25 1852.04 1335.22 1854.07 Q1331.9 1857.39 1327.15 1856.84 Q1322.42 1856.26 1318.1 1851.94 Q1313.78 1847.62 1313.21 1842.89 Q1312.65 1838.14 1315.97 1834.82 Q1318 1832.79 1320.25 1832.15 Q1322.49 1831.48 1325.08 1832.17 M1321.21 1848.83 Q1324.54 1852.16 1327.79 1852.7 Q1331.05 1853.2 1333.44 1850.81 Q1335.83 1848.42 1335.32 1845.17 Q1334.8 1841.89 1331.48 1838.57 Q1328.15 1835.25 1324.9 1834.74 Q1321.62 1834.22 1319.23 1836.61 Q1316.84 1839 1317.37 1842.27 Q1317.89 1845.51 1321.21 1848.83 Z" fill="#000000" fill-rule="nonzero" fill-opacity="1"></path><path clip-path="url(#clip430)" d="M1346.11 1833.92 L1349.56 1830.47 L1353.72 1834.62 L1350.27 1838.08 L1346.11 1833.92 Z" fill="#000000" fill-rule="nonzero" fill-opacity="1"></path><path clip-path="url(#clip430)" d="M1357.76 1804.23 Q1360.64 1802.36 1363.57 1802.64 Q1366.52 1802.9 1368.88 1805.26 Q1372.49 1808.88 1371.99 1813.35 Q1371.48 1817.81 1366.9 1822.4 Q1365.36 1823.94 1363.41 1825.26 Q1361.49 1826.59 1359.15 1827.72 L1355.96 1824.53 Q1358.14 1823.95 1360.18 1822.73 Q1362.23 1821.5 1364.01 1819.71 Q1367.12 1816.6 1367.52 1813.76 Q1367.93 1810.89 1365.59 1808.55 Q1363.43 1806.39 1360.69 1806.7 Q1357.96 1806.98 1355.26 1809.68 L1352.41 1812.53 L1349.69 1809.81 L1352.67 1806.83 Q1355.11 1804.39 1355.44 1802.13 Q1355.75 1799.86 1353.92 1798.03 Q1352.03 1796.14 1349.69 1796.49 Q1347.35 1796.8 1344.86 1799.29 Q1343.51 1800.64 1342.25 1802.49 Q1340.98 1804.34 1339.74 1806.83 L1336.79 1803.89 Q1338.15 1801.48 1339.53 1799.58 Q1340.92 1797.67 1342.38 1796.21 Q1346.14 1792.44 1350.05 1791.97 Q1353.95 1791.48 1356.86 1794.39 Q1358.89 1796.42 1359.14 1798.99 Q1359.37 1801.54 1357.76 1804.23 Z" fill="#000000" fill-rule="nonzero" fill-opacity="1"></path><path clip-path="url(#clip430)" d="M1748.76 1895.15 L1752.06 1891.85 L1773.72 1913.5 L1785.62 1901.6 L1788.4 1904.39 L1773.2 1919.59 L1748.76 1895.15 Z" fill="#000000" fill-rule="nonzero" fill-opacity="1"></path><path clip-path="url(#clip430)" d="M1782.03 1878.31 Q1779.61 1880.73 1780.1 1884.04 Q1780.58 1887.33 1783.87 1890.62 Q1787.16 1893.91 1790.45 1894.42 Q1793.74 1894.89 1796.18 1892.45 Q1798.58 1890.05 1798.09 1886.74 Q1797.6 1883.43 1794.33 1880.16 Q1791.07 1876.9 1787.76 1876.41 Q1784.44 1875.91 1782.03 1878.31 M1779.48 1875.76 Q1783.41 1871.83 1788.2 1872.14 Q1793 1872.45 1797.52 1876.97 Q1802.02 1881.47 1802.35 1886.28 Q1802.66 1891.08 1798.73 1895.01 Q1794.78 1898.95 1789.99 1898.64 Q1785.19 1898.3 1780.69 1893.8 Q1776.17 1889.28 1775.85 1884.5 Q1775.54 1879.7 1779.48 1875.76 Z" fill="#000000" fill-rule="nonzero" fill-opacity="1"></path><path clip-path="url(#clip430)" d="M1810.78 1863.58 Q1807.13 1867.23 1806.55 1869.47 Q1805.98 1871.72 1807.99 1873.73 Q1809.6 1875.33 1811.59 1875.23 Q1813.59 1875.1 1815.41 1873.29 Q1817.91 1870.78 1817.65 1867.51 Q1817.39 1864.2 1814.44 1861.26 L1813.77 1860.58 L1810.78 1863.58 M1815.54 1856.33 L1826 1866.79 L1822.99 1869.8 L1820.2 1867.02 Q1820.84 1869.72 1820.11 1872.06 Q1819.35 1874.38 1817.13 1876.61 Q1814.31 1879.42 1811.07 1879.52 Q1807.83 1879.59 1805.18 1876.94 Q1802.08 1873.84 1802.58 1870.21 Q1803.08 1866.56 1807.19 1862.45 L1811.41 1858.23 L1811.12 1857.93 Q1809.04 1855.85 1806.54 1856.1 Q1804.03 1856.31 1801.56 1858.78 Q1799.99 1860.36 1798.88 1862.22 Q1797.76 1864.09 1797.14 1866.22 L1794.36 1863.43 Q1795.37 1861.14 1796.62 1859.28 Q1797.85 1857.39 1799.32 1855.92 Q1803.3 1851.94 1807.32 1852.04 Q1811.35 1852.14 1815.54 1856.33 Z" fill="#000000" fill-rule="nonzero" fill-opacity="1"></path><path clip-path="url(#clip430)" d="M1828.72 1832.97 L1818.8 1823.05 L1821.81 1820.04 L1847.28 1845.51 L1844.27 1848.52 L1841.52 1845.77 Q1842.2 1848.36 1841.55 1850.62 Q1840.89 1852.84 1838.86 1854.87 Q1835.54 1858.19 1830.79 1857.64 Q1826.06 1857.07 1821.74 1852.74 Q1817.42 1848.42 1816.85 1843.69 Q1816.29 1838.95 1819.62 1835.62 Q1821.64 1833.59 1823.89 1832.96 Q1826.13 1832.28 1828.72 1832.97 M1824.85 1849.63 Q1828.18 1852.96 1831.43 1853.5 Q1834.69 1854 1837.08 1851.61 Q1839.47 1849.23 1838.96 1845.97 Q1838.44 1842.69 1835.12 1839.37 Q1831.79 1836.05 1828.54 1835.54 Q1825.26 1835.02 1822.87 1837.41 Q1820.48 1839.8 1821.01 1843.07 Q1821.53 1846.31 1824.85 1849.63 Z" fill="#000000" fill-rule="nonzero" fill-opacity="1"></path><path clip-path="url(#clip430)" d="M1849.75 1834.72 L1853.2 1831.27 L1857.36 1835.43 L1853.91 1838.88 L1849.75 1834.72 Z" fill="#000000" fill-rule="nonzero" fill-opacity="1"></path><path clip-path="url(#clip430)" d="M1852.09 1797.58 L1856.79 1818.98 L1865.13 1810.63 L1852.09 1797.58 M1848.34 1795.57 L1852.5 1791.41 L1868.42 1807.34 L1871.91 1803.85 L1874.66 1806.6 L1871.17 1810.09 L1876.94 1815.85 L1873.65 1819.14 L1867.88 1813.38 L1856.85 1824.41 L1853.66 1821.22 L1848.34 1795.57 Z" fill="#000000" fill-rule="nonzero" fill-opacity="1"></path><path clip-path="url(#clip430)" d="M2254.25 1894.11 L2257.55 1890.8 L2279.21 1912.46 L2291.11 1900.56 L2293.89 1903.34 L2278.69 1918.54 L2254.25 1894.11 Z" fill="#000000" fill-rule="nonzero" fill-opacity="1"></path><path clip-path="url(#clip430)" d="M2287.52 1877.26 Q2285.1 1879.69 2285.59 1882.99 Q2286.07 1886.28 2289.36 1889.57 Q2292.65 1892.86 2295.94 1893.37 Q2299.23 1893.84 2301.67 1891.41 Q2304.07 1889 2303.58 1885.69 Q2303.09 1882.39 2299.82 1879.11 Q2296.56 1875.86 2293.25 1875.37 Q2289.93 1874.86 2287.52 1877.26 M2284.97 1874.71 Q2288.9 1870.78 2293.7 1871.09 Q2298.49 1871.4 2303.01 1875.92 Q2307.51 1880.42 2307.84 1885.24 Q2308.15 1890.03 2304.22 1893.96 Q2300.28 1897.9 2295.48 1897.59 Q2290.68 1897.25 2286.18 1892.75 Q2281.66 1888.23 2281.34 1883.45 Q2281.03 1878.66 2284.97 1874.71 Z" fill="#000000" fill-rule="nonzero" fill-opacity="1"></path><path clip-path="url(#clip430)" d="M2316.27 1862.53 Q2312.62 1866.18 2312.04 1868.43 Q2311.47 1870.67 2313.48 1872.68 Q2315.09 1874.28 2317.09 1874.19 Q2319.08 1874.06 2320.9 1872.24 Q2323.4 1869.73 2323.14 1866.46 Q2322.88 1863.15 2319.93 1860.21 L2319.26 1859.54 L2316.27 1862.53 M2321.03 1855.28 L2331.49 1865.74 L2328.48 1868.75 L2325.69 1865.97 Q2326.33 1868.67 2325.6 1871.01 Q2324.84 1873.34 2322.62 1875.56 Q2319.8 1878.38 2316.56 1878.48 Q2313.32 1878.54 2310.67 1875.89 Q2307.58 1872.8 2308.07 1869.16 Q2308.57 1865.51 2312.68 1861.4 L2316.91 1857.18 L2316.61 1856.89 Q2314.53 1854.81 2312.03 1855.05 Q2309.52 1855.27 2307.05 1857.74 Q2305.48 1859.31 2304.37 1861.17 Q2303.25 1863.04 2302.63 1865.17 L2299.85 1862.39 Q2300.86 1860.09 2302.11 1858.23 Q2303.34 1856.35 2304.81 1854.87 Q2308.79 1850.89 2312.81 1850.99 Q2316.84 1851.09 2321.03 1855.28 Z" fill="#000000" fill-rule="nonzero" fill-opacity="1"></path><path clip-path="url(#clip430)" d="M2334.21 1831.92 L2324.29 1822.01 L2327.3 1818.99 L2352.77 1844.46 L2349.76 1847.47 L2347.01 1844.72 Q2347.69 1847.31 2347.04 1849.57 Q2346.38 1851.8 2344.35 1853.82 Q2341.03 1857.15 2336.28 1856.59 Q2331.55 1856.02 2327.23 1851.7 Q2322.91 1847.38 2322.34 1842.65 Q2321.78 1837.9 2325.11 1834.58 Q2327.14 1832.55 2329.38 1831.91 Q2331.62 1831.24 2334.21 1831.92 M2330.34 1848.59 Q2333.67 1851.91 2336.92 1852.45 Q2340.18 1852.96 2342.57 1850.57 Q2344.96 1848.18 2344.45 1844.92 Q2343.93 1841.65 2340.61 1838.32 Q2337.28 1835 2334.03 1834.49 Q2330.75 1833.97 2328.36 1836.36 Q2325.97 1838.75 2326.5 1842.02 Q2327.02 1845.26 2330.34 1848.59 Z" fill="#000000" fill-rule="nonzero" fill-opacity="1"></path><path clip-path="url(#clip430)" d="M2355.24 1833.68 L2358.69 1830.22 L2362.85 1834.38 L2359.4 1837.83 L2355.24 1833.68 Z" fill="#000000" fill-rule="nonzero" fill-opacity="1"></path><path clip-path="url(#clip430)" d="M2345.65 1802.71 L2358.63 1789.73 L2361.41 1792.51 L2351.46 1802.46 L2357.45 1808.45 Q2357.92 1807.49 2358.53 1806.65 Q2359.12 1805.8 2359.84 1805.08 Q2363.93 1800.99 2368.56 1800.84 Q2373.2 1800.69 2377.03 1804.52 Q2380.97 1808.47 2380.71 1813.12 Q2380.43 1817.75 2375.96 1822.22 Q2374.42 1823.76 2372.56 1825.1 Q2370.71 1826.42 2368.48 1827.6 L2365.16 1824.28 Q2367.43 1823.61 2369.4 1822.43 Q2371.36 1821.25 2373.11 1819.5 Q2375.94 1816.67 2376.11 1813.53 Q2376.27 1810.38 2373.72 1807.83 Q2371.17 1805.28 2368.02 1805.44 Q2364.88 1805.6 2362.05 1808.44 Q2360.72 1809.76 2359.69 1811.38 Q2358.68 1812.99 2357.92 1814.98 L2345.65 1802.71 Z" fill="#000000" fill-rule="nonzero" fill-opacity="1"></path><path clip-path="url(#clip430)" d="M2757.87 1894.93 L2761.18 1891.62 L2782.83 1913.27 L2794.73 1901.37 L2797.52 1904.16 L2782.31 1919.36 L2757.87 1894.93 Z" fill="#000000" fill-rule="nonzero" fill-opacity="1"></path><path clip-path="url(#clip430)" d="M2791.15 1878.08 Q2788.73 1880.5 2789.22 1883.81 Q2789.69 1887.1 2792.98 1890.39 Q2796.27 1893.68 2799.56 1894.19 Q2802.85 1894.66 2805.29 1892.22 Q2807.7 1889.82 2807.21 1886.51 Q2806.71 1883.21 2803.44 1879.93 Q2800.18 1876.67 2796.88 1876.18 Q2793.55 1875.68 2791.15 1878.08 M2788.6 1875.53 Q2792.52 1871.6 2797.32 1871.91 Q2802.12 1872.22 2806.63 1876.74 Q2811.13 1881.24 2811.46 1886.05 Q2811.77 1890.85 2807.84 1894.78 Q2803.9 1898.72 2799.1 1898.41 Q2794.31 1898.07 2789.81 1893.57 Q2785.29 1889.05 2784.96 1884.27 Q2784.65 1879.47 2788.6 1875.53 Z" fill="#000000" fill-rule="nonzero" fill-opacity="1"></path><path clip-path="url(#clip430)" d="M2819.89 1863.35 Q2816.24 1867 2815.67 1869.24 Q2815.1 1871.49 2817.11 1873.5 Q2818.71 1875.1 2820.71 1875.01 Q2822.71 1874.87 2824.52 1873.06 Q2827.03 1870.55 2826.77 1867.28 Q2826.5 1863.97 2823.56 1861.03 L2822.89 1860.36 L2819.89 1863.35 M2824.65 1856.1 L2835.11 1866.56 L2832.1 1869.57 L2829.32 1866.79 Q2829.96 1869.49 2829.22 1871.83 Q2828.47 1874.15 2826.24 1876.38 Q2823.43 1879.2 2820.19 1879.29 Q2816.94 1879.36 2814.29 1876.71 Q2811.2 1873.61 2811.69 1869.98 Q2812.2 1866.33 2816.31 1862.22 L2820.53 1858 L2820.23 1857.7 Q2818.16 1855.63 2815.65 1855.87 Q2813.15 1856.08 2810.68 1858.56 Q2809.1 1860.13 2807.99 1861.99 Q2806.88 1863.86 2806.26 1865.99 L2803.47 1863.2 Q2804.49 1860.91 2805.73 1859.05 Q2806.96 1857.16 2808.43 1855.69 Q2812.41 1851.71 2816.44 1851.81 Q2820.46 1851.91 2824.65 1856.1 Z" fill="#000000" fill-rule="nonzero" fill-opacity="1"></path><path clip-path="url(#clip430)" d="M2837.83 1832.74 L2827.91 1822.82 L2830.92 1819.81 L2856.39 1845.28 L2853.38 1848.29 L2850.63 1845.54 Q2851.32 1848.13 2850.66 1850.39 Q2850.01 1852.61 2847.98 1854.64 Q2844.66 1857.97 2839.91 1857.41 Q2835.18 1856.84 2830.86 1852.52 Q2826.54 1848.19 2825.96 1843.46 Q2825.41 1838.72 2828.73 1835.39 Q2830.76 1833.36 2833 1832.73 Q2835.24 1832.06 2837.83 1832.74 M2833.97 1849.41 Q2837.29 1852.73 2840.55 1853.27 Q2843.8 1853.78 2846.19 1851.39 Q2848.58 1849 2848.08 1845.74 Q2847.55 1842.47 2844.23 1839.14 Q2840.91 1835.82 2837.65 1835.31 Q2834.38 1834.79 2831.99 1837.18 Q2829.6 1839.57 2830.12 1842.84 Q2830.64 1846.08 2833.97 1849.41 Z" fill="#000000" fill-rule="nonzero" fill-opacity="1"></path><path clip-path="url(#clip430)" d="M2858.86 1834.49 L2862.32 1831.04 L2866.47 1835.2 L2863.02 1838.65 L2858.86 1834.49 Z" fill="#000000" fill-rule="nonzero" fill-opacity="1"></path><path clip-path="url(#clip430)" d="M2867.62 1806.98 Q2865.39 1809.21 2865.61 1812.04 Q2865.84 1814.85 2868.49 1817.5 Q2871.12 1820.14 2873.95 1820.38 Q2876.79 1820.6 2879.01 1818.37 Q2881.24 1816.15 2881.01 1813.33 Q2880.78 1810.48 2878.15 1807.85 Q2875.49 1805.19 2872.66 1804.98 Q2869.85 1804.75 2867.62 1806.98 M2863.82 1790.05 L2866.83 1793.07 Q2865 1793.72 2863.41 1794.69 Q2861.84 1795.64 2860.6 1796.88 Q2857.32 1800.15 2857.8 1804.1 Q2858.29 1808.03 2862.51 1812.74 Q2862.06 1810.35 2862.76 1808.14 Q2863.45 1805.92 2865.2 1804.16 Q2868.88 1800.48 2873.25 1800.6 Q2877.62 1800.68 2881.47 1804.52 Q2885.23 1808.29 2885.28 1812.79 Q2885.33 1817.29 2881.63 1820.99 Q2877.39 1825.23 2871.91 1824.23 Q2866.41 1823.22 2860.24 1817.05 Q2854.44 1811.25 2853.76 1805.06 Q2853.05 1798.86 2857.69 1794.23 Q2858.93 1792.98 2860.43 1791.97 Q2861.96 1790.94 2863.82 1790.05 Z" fill="#000000" fill-rule="nonzero" fill-opacity="1"></path><path clip-path="url(#clip430)" d="M1543.95 1956.21 L1550.38 1956.21 L1550.38 1998.31 L1573.52 1998.31 L1573.52 2003.73 L1543.95 2003.73 L1543.95 1956.21 Z" fill="#000000" fill-rule="nonzero" fill-opacity="1"></path><path clip-path="url(#clip430)" d="M1592.68 1972.18 Q1587.97 1972.18 1585.24 1975.88 Q1582.5 1979.54 1582.5 1985.93 Q1582.5 1992.33 1585.2 1996.02 Q1587.94 1999.68 1592.68 1999.68 Q1597.36 1999.68 1600.1 1995.99 Q1602.84 1992.3 1602.84 1985.93 Q1602.84 1979.6 1600.1 1975.91 Q1597.36 1972.18 1592.68 1972.18 M1592.68 1967.22 Q1600.32 1967.22 1604.68 1972.18 Q1609.04 1977.15 1609.04 1985.93 Q1609.04 1994.69 1604.68 1999.68 Q1600.32 2004.65 1592.68 2004.65 Q1585.01 2004.65 1580.65 1999.68 Q1576.32 1994.69 1576.32 1985.93 Q1576.32 1977.15 1580.65 1972.18 Q1585.01 1967.22 1592.68 1967.22 Z" fill="#000000" fill-rule="nonzero" fill-opacity="1"></path><path clip-path="url(#clip430)" d="M1634.95 1985.81 Q1627.85 1985.81 1625.12 1987.43 Q1622.38 1989.05 1622.38 1992.97 Q1622.38 1996.09 1624.42 1997.93 Q1626.49 1999.75 1630.02 1999.75 Q1634.89 1999.75 1637.82 1996.31 Q1640.78 1992.84 1640.78 1987.11 L1640.78 1985.81 L1634.95 1985.81 M1646.63 1983.39 L1646.63 2003.73 L1640.78 2003.73 L1640.78 1998.31 Q1638.77 2001.56 1635.78 2003.12 Q1632.79 2004.65 1628.46 2004.65 Q1622.98 2004.65 1619.74 2001.59 Q1616.52 1998.51 1616.52 1993.35 Q1616.52 1987.33 1620.53 1984.28 Q1624.58 1981.22 1632.57 1981.22 L1640.78 1981.22 L1640.78 1980.65 Q1640.78 1976.61 1638.1 1974.41 Q1635.46 1972.18 1630.66 1972.18 Q1627.6 1972.18 1624.7 1972.92 Q1621.81 1973.65 1619.13 1975.11 L1619.13 1969.7 Q1622.35 1968.46 1625.37 1967.85 Q1628.4 1967.22 1631.26 1967.22 Q1638.99 1967.22 1642.81 1971.23 Q1646.63 1975.24 1646.63 1983.39 Z" fill="#000000" fill-rule="nonzero" fill-opacity="1"></path><path clip-path="url(#clip430)" d="M1682.15 1973.49 L1682.15 1954.2 L1688.01 1954.2 L1688.01 2003.73 L1682.15 2003.73 L1682.15 1998.38 Q1680.31 2001.56 1677.48 2003.12 Q1674.67 2004.65 1670.73 2004.65 Q1664.27 2004.65 1660.19 1999.49 Q1656.15 1994.34 1656.15 1985.93 Q1656.15 1977.53 1660.19 1972.37 Q1664.27 1967.22 1670.73 1967.22 Q1674.67 1967.22 1677.48 1968.78 Q1680.31 1970.31 1682.15 1973.49 M1662.2 1985.93 Q1662.2 1992.39 1664.84 1996.09 Q1667.51 1999.75 1672.16 1999.75 Q1676.81 1999.75 1679.48 1996.09 Q1682.15 1992.39 1682.15 1985.93 Q1682.15 1979.47 1679.48 1975.81 Q1676.81 1972.12 1672.16 1972.12 Q1667.51 1972.12 1664.84 1975.81 Q1662.2 1979.47 1662.2 1985.93 Z" fill="#000000" fill-rule="nonzero" fill-opacity="1"></path><polyline clip-path="url(#clip430)" style="stroke:#000000; stroke-linecap:round; stroke-linejoin:round; stroke-width:4; stroke-opacity:1; fill:none" points="279.209,1757.82 279.209,123.472 "></polyline>
<polyline clip-path="url(#clip430)" style="stroke:#000000; stroke-linecap:round; stroke-linejoin:round; stroke-width:4; stroke-opacity:1; fill:none" points="279.209,1542.65 298.107,1542.65 "></polyline>
<polyline clip-path="url(#clip430)" style="stroke:#000000; stroke-linecap:round; stroke-linejoin:round; stroke-width:4; stroke-opacity:1; fill:none" points="279.209,1221.69 298.107,1221.69 "></polyline>
<polyline clip-path="url(#clip430)" style="stroke:#000000; stroke-linecap:round; stroke-linejoin:round; stroke-width:4; stroke-opacity:1; fill:none" points="279.209,900.731 298.107,900.731 "></polyline>
<polyline clip-path="url(#clip430)" style="stroke:#000000; stroke-linecap:round; stroke-linejoin:round; stroke-width:4; stroke-opacity:1; fill:none" points="279.209,579.771 298.107,579.771 "></polyline>
<polyline clip-path="url(#clip430)" style="stroke:#000000; stroke-linecap:round; stroke-linejoin:round; stroke-width:4; stroke-opacity:1; fill:none" points="279.209,258.81 298.107,258.81 "></polyline>
<path clip-path="url(#clip430)" d="M129.908 1629.26 L150.891 1608.28 L153.674 1611.06 L132.69 1632.05 L129.908 1629.26 Z" fill="#000000" fill-rule="nonzero" fill-opacity="1"></path><path clip-path="url(#clip430)" d="M167.718 1609.69 L173.119 1604.28 L154.476 1585.64 L149.778 1592.7 L146.767 1589.68 L151.432 1582.66 L154.738 1579.36 L176.393 1601.01 L181.794 1595.61 L184.577 1598.39 L170.5 1612.47 L167.718 1609.69 Z" fill="#000000" fill-rule="nonzero" fill-opacity="1"></path><path clip-path="url(#clip430)" d="M166.85 1567.24 L179.83 1554.26 L182.613 1557.05 L172.661 1567 L178.652 1572.99 Q179.126 1572.02 179.732 1571.19 Q180.321 1570.34 181.042 1569.62 Q185.134 1565.53 189.766 1565.38 Q194.398 1565.23 198.228 1569.06 Q202.173 1573.01 201.911 1577.65 Q201.633 1582.29 197.164 1586.75 Q195.626 1588.29 193.76 1589.64 Q191.91 1590.96 189.684 1592.14 L186.361 1588.82 Q188.636 1588.15 190.601 1586.97 Q192.565 1585.79 194.316 1584.04 Q197.148 1581.21 197.311 1578.06 Q197.475 1574.92 194.922 1572.37 Q192.368 1569.81 189.226 1569.98 Q186.083 1570.14 183.251 1572.97 Q181.925 1574.3 180.894 1575.92 Q179.879 1577.52 179.126 1579.52 L166.85 1567.24 Z" fill="#000000" fill-rule="nonzero" fill-opacity="1"></path><path clip-path="url(#clip430)" d="M197.393 1541.05 Q194.84 1543.61 196.068 1547.42 Q197.295 1551.2 202.336 1556.24 Q207.362 1561.27 211.159 1562.51 Q214.956 1563.72 217.51 1561.17 Q220.08 1558.6 218.852 1554.82 Q217.624 1551.01 212.599 1545.98 Q207.558 1540.94 203.761 1539.73 Q199.963 1538.48 197.393 1541.05 M194.774 1538.44 Q198.883 1534.33 204.301 1535.42 Q209.719 1536.49 215.906 1542.68 Q222.076 1548.85 223.157 1554.28 Q224.237 1559.68 220.129 1563.79 Q216.02 1567.9 210.602 1566.83 Q205.185 1565.74 199.014 1559.57 Q192.827 1553.38 191.746 1547.98 Q190.666 1542.54 194.774 1538.44 Z" fill="#000000" fill-rule="nonzero" fill-opacity="1"></path><path clip-path="url(#clip430)" d="M129.908 1308.3 L150.891 1287.32 L153.674 1290.1 L132.69 1311.09 L129.908 1308.3 Z" fill="#000000" fill-rule="nonzero" fill-opacity="1"></path><path clip-path="url(#clip430)" d="M167.718 1288.73 L173.119 1283.32 L154.476 1264.68 L149.778 1271.74 L146.767 1268.72 L151.432 1261.7 L154.738 1258.4 L176.393 1280.05 L181.794 1274.65 L184.577 1277.43 L170.5 1291.51 L167.718 1288.73 Z" fill="#000000" fill-rule="nonzero" fill-opacity="1"></path><path clip-path="url(#clip430)" d="M176.066 1241.42 Q173.512 1243.98 174.74 1247.79 Q175.967 1251.57 181.009 1256.61 Q186.034 1261.64 189.831 1262.88 Q193.629 1264.09 196.182 1261.54 Q198.752 1258.97 197.524 1255.19 Q196.297 1251.37 191.272 1246.35 Q186.23 1241.31 182.433 1240.1 Q178.635 1238.85 176.066 1241.42 M173.447 1238.8 Q177.555 1234.7 182.973 1235.79 Q188.391 1236.86 194.578 1243.04 Q200.749 1249.21 201.829 1254.65 Q202.909 1260.05 198.801 1264.16 Q194.693 1268.27 189.275 1267.2 Q183.857 1266.11 177.686 1259.93 Q171.499 1253.75 170.419 1248.35 Q169.338 1242.91 173.447 1238.8 Z" fill="#000000" fill-rule="nonzero" fill-opacity="1"></path><path clip-path="url(#clip430)" d="M197.393 1220.09 Q194.84 1222.65 196.068 1226.46 Q197.295 1230.24 202.336 1235.28 Q207.362 1240.31 211.159 1241.55 Q214.956 1242.76 217.51 1240.21 Q220.08 1237.64 218.852 1233.86 Q217.624 1230.05 212.599 1225.02 Q207.558 1219.98 203.761 1218.77 Q199.963 1217.52 197.393 1220.09 M194.774 1217.48 Q198.883 1213.37 204.301 1214.46 Q209.719 1215.53 215.906 1221.72 Q222.076 1227.89 223.157 1233.32 Q224.237 1238.72 220.129 1242.83 Q216.02 1246.94 210.602 1245.87 Q205.185 1244.78 199.014 1238.61 Q192.827 1232.42 191.746 1227.02 Q190.666 1221.58 194.774 1217.48 Z" fill="#000000" fill-rule="nonzero" fill-opacity="1"></path><path clip-path="url(#clip430)" d="M151.235 966.015 L172.219 945.031 L175.002 947.813 L154.018 968.797 L151.235 966.015 Z" fill="#000000" fill-rule="nonzero" fill-opacity="1"></path><path clip-path="url(#clip430)" d="M166.85 925.324 L179.83 912.344 L182.613 915.126 L172.661 925.078 L178.652 931.069 Q179.126 930.103 179.732 929.268 Q180.321 928.417 181.042 927.697 Q185.134 923.605 189.766 923.458 Q194.398 923.31 198.228 927.14 Q202.173 931.085 201.911 935.734 Q201.633 940.366 197.164 944.834 Q195.626 946.373 193.76 947.715 Q191.91 949.041 189.684 950.22 L186.361 946.897 Q188.636 946.226 190.601 945.047 Q192.565 943.869 194.316 942.117 Q197.148 939.286 197.311 936.143 Q197.475 933 194.922 930.447 Q192.368 927.893 189.226 928.057 Q186.083 928.221 183.251 931.052 Q181.925 932.378 180.894 933.999 Q179.879 935.603 179.126 937.6 L166.85 925.324 Z" fill="#000000" fill-rule="nonzero" fill-opacity="1"></path><path clip-path="url(#clip430)" d="M197.393 899.135 Q194.84 901.688 196.068 905.502 Q197.295 909.283 202.336 914.324 Q207.362 919.349 211.159 920.593 Q214.956 921.804 217.51 919.251 Q220.08 916.681 218.852 912.9 Q217.624 909.086 212.599 904.061 Q207.558 899.02 203.761 897.809 Q199.963 896.565 197.393 899.135 M194.774 896.516 Q198.883 892.407 204.301 893.504 Q209.719 894.568 215.906 900.755 Q222.076 906.926 223.157 912.36 Q224.237 917.762 220.129 921.87 Q216.02 925.978 210.602 924.914 Q205.185 923.818 199.014 917.647 Q192.827 911.46 191.746 906.058 Q190.666 900.624 194.774 896.516 Z" fill="#000000" fill-rule="nonzero" fill-opacity="1"></path><path clip-path="url(#clip430)" d="M197.393 578.175 Q194.84 580.728 196.068 584.542 Q197.295 588.323 202.336 593.364 Q207.362 598.389 211.159 599.633 Q214.956 600.844 217.51 598.291 Q220.08 595.721 218.852 591.94 Q217.624 588.126 212.599 583.101 Q207.558 578.06 203.761 576.849 Q199.963 575.605 197.393 578.175 M194.774 575.556 Q198.883 571.447 204.301 572.544 Q209.719 573.608 215.906 579.795 Q222.076 585.966 223.157 591.4 Q224.237 596.802 220.129 600.91 Q216.02 605.018 210.602 603.954 Q205.185 602.858 199.014 596.687 Q192.827 590.5 191.746 585.098 Q190.666 579.664 194.774 575.556 Z" fill="#000000" fill-rule="nonzero" fill-opacity="1"></path><path clip-path="url(#clip430)" d="M166.85 283.404 L179.83 270.424 L182.613 273.206 L172.661 283.158 L178.652 289.149 Q179.126 288.183 179.732 287.348 Q180.321 286.497 181.042 285.777 Q185.134 281.685 189.766 281.538 Q194.398 281.39 198.228 285.22 Q202.173 289.165 201.911 293.814 Q201.633 298.446 197.164 302.914 Q195.626 304.453 193.76 305.795 Q191.91 307.121 189.684 308.3 L186.361 304.977 Q188.636 304.306 190.601 303.127 Q192.565 301.949 194.316 300.197 Q197.148 297.366 197.311 294.223 Q197.475 291.08 194.922 288.527 Q192.368 285.973 189.226 286.137 Q186.083 286.301 183.251 289.132 Q181.925 290.458 180.894 292.079 Q179.879 293.683 179.126 295.68 L166.85 283.404 Z" fill="#000000" fill-rule="nonzero" fill-opacity="1"></path><path clip-path="url(#clip430)" d="M197.393 257.215 Q194.84 259.768 196.068 263.582 Q197.295 267.363 202.336 272.404 Q207.362 277.429 211.159 278.673 Q214.956 279.884 217.51 277.331 Q220.08 274.761 218.852 270.98 Q217.624 267.166 212.599 262.141 Q207.558 257.1 203.761 255.889 Q199.963 254.645 197.393 257.215 M194.774 254.596 Q198.883 250.487 204.301 251.584 Q209.719 252.648 215.906 258.835 Q222.076 265.006 223.157 270.44 Q224.237 275.842 220.129 279.95 Q216.02 284.058 210.602 282.994 Q205.185 281.898 199.014 275.727 Q192.827 269.54 191.746 264.138 Q190.666 258.704 194.774 254.596 Z" fill="#000000" fill-rule="nonzero" fill-opacity="1"></path><path clip-path="url(#clip430)" d="M9.76769 1300.04 L27.6235 1300.04 L27.6235 1291.95 Q27.6235 1287.46 25.3 1285.01 Q22.9765 1282.56 18.6797 1282.56 Q14.4147 1282.56 12.0912 1285.01 Q9.76769 1287.46 9.76769 1291.95 L9.76769 1300.04 M4.48416 1306.47 L4.48416 1291.95 Q4.48416 1283.96 8.11261 1279.89 Q11.7092 1275.78 18.6797 1275.78 Q25.7138 1275.78 29.3104 1279.89 Q32.907 1283.96 32.907 1291.95 L32.907 1300.04 L52.0042 1300.04 L52.0042 1306.47 L4.48416 1306.47 Z" fill="#000000" fill-rule="nonzero" fill-opacity="1"></path><path clip-path="url(#clip430)" d="M30.4881 1237.78 L52.0042 1237.78 L52.0042 1243.64 L30.679 1243.64 Q25.6183 1243.64 23.1038 1245.61 Q20.5894 1247.58 20.5894 1251.53 Q20.5894 1256.27 23.6131 1259.01 Q26.6368 1261.75 31.8567 1261.75 L52.0042 1261.75 L52.0042 1267.64 L2.47896 1267.64 L2.47896 1261.75 L21.8944 1261.75 Q18.6797 1259.65 17.0883 1256.81 Q15.4968 1253.95 15.4968 1250.22 Q15.4968 1244.08 19.3163 1240.93 Q23.1038 1237.78 30.4881 1237.78 Z" fill="#000000" fill-rule="nonzero" fill-opacity="1"></path><path clip-path="url(#clip430)" d="M34.0847 1209.9 Q34.0847 1217 35.7079 1219.73 Q37.3312 1222.47 41.2461 1222.47 Q44.3653 1222.47 46.2114 1220.43 Q48.0256 1218.36 48.0256 1214.83 Q48.0256 1209.96 44.5881 1207.03 Q41.1188 1204.07 35.3897 1204.07 L34.0847 1204.07 L34.0847 1209.9 M31.6657 1198.22 L52.0042 1198.22 L52.0042 1204.07 L46.5933 1204.07 Q49.8398 1206.08 51.3994 1209.07 Q52.9272 1212.06 52.9272 1216.39 Q52.9272 1221.87 49.8716 1225.11 Q46.7843 1228.33 41.6281 1228.33 Q35.6125 1228.33 32.5569 1224.32 Q29.5014 1220.27 29.5014 1212.29 L29.5014 1204.07 L28.9285 1204.07 Q24.8862 1204.07 22.6901 1206.75 Q20.4621 1209.39 20.4621 1214.19 Q20.4621 1217.25 21.1941 1220.15 Q21.9262 1223.04 23.3903 1225.72 L17.9795 1225.72 Q16.7381 1222.5 16.1334 1219.48 Q15.4968 1216.45 15.4968 1213.59 Q15.4968 1205.86 19.5072 1202.04 Q23.5176 1198.22 31.6657 1198.22 Z" fill="#000000" fill-rule="nonzero" fill-opacity="1"></path><path clip-path="url(#clip430)" d="M17.4065 1163.43 L22.9447 1163.43 Q21.6716 1165.91 21.035 1168.58 Q20.3984 1171.26 20.3984 1174.12 Q20.3984 1178.48 21.7352 1180.68 Q23.072 1182.84 25.7456 1182.84 Q27.7826 1182.84 28.9603 1181.28 Q30.1061 1179.72 31.1565 1175.01 L31.6021 1173.01 Q32.9389 1166.77 35.3897 1164.16 Q37.8086 1161.52 42.1691 1161.52 Q47.1344 1161.52 50.0308 1165.47 Q52.9272 1169.38 52.9272 1176.26 Q52.9272 1179.12 52.3543 1182.24 Q51.8132 1185.33 50.6992 1188.76 L44.6518 1188.76 Q46.3387 1185.52 47.198 1182.37 Q48.0256 1179.22 48.0256 1176.13 Q48.0256 1171.99 46.6251 1169.76 Q45.1929 1167.53 42.6147 1167.53 Q40.2276 1167.53 38.9545 1169.16 Q37.6813 1170.75 36.5037 1176.19 L36.0262 1178.23 Q34.8804 1183.67 32.5251 1186.09 Q30.138 1188.51 26.0002 1188.51 Q20.9713 1188.51 18.2341 1184.94 Q15.4968 1181.38 15.4968 1174.82 Q15.4968 1171.58 15.9743 1168.71 Q16.4517 1165.85 17.4065 1163.43 Z" fill="#000000" fill-rule="nonzero" fill-opacity="1"></path><path clip-path="url(#clip430)" d="M32.7161 1121.7 L35.5806 1121.7 L35.5806 1148.63 Q41.6281 1148.25 44.8109 1145 Q47.9619 1141.72 47.9619 1135.9 Q47.9619 1132.52 47.1344 1129.37 Q46.3069 1126.19 44.6518 1123.07 L50.1899 1123.07 Q51.5267 1126.22 52.227 1129.53 Q52.9272 1132.84 52.9272 1136.25 Q52.9272 1144.78 47.9619 1149.77 Q42.9967 1154.74 34.5303 1154.74 Q25.7774 1154.74 20.6531 1150.03 Q15.4968 1145.29 15.4968 1137.27 Q15.4968 1130.07 20.1438 1125.9 Q24.7589 1121.7 32.7161 1121.7 M30.9973 1127.56 Q26.1912 1127.62 23.3266 1130.26 Q20.4621 1132.87 20.4621 1137.2 Q20.4621 1142.1 23.2312 1145.06 Q26.0002 1147.99 31.0292 1148.44 L30.9973 1127.56 Z" fill="#000000" fill-rule="nonzero" fill-opacity="1"></path><path clip-path="url(#clip430)" d="M10.818 1075.23 L34.4666 1083.95 L34.4666 1066.48 L10.818 1075.23 M4.48416 1078.86 L4.48416 1071.57 L52.0042 1053.46 L52.0042 1060.14 L39.8138 1064.47 L39.8138 1085.89 L52.0042 1090.22 L52.0042 1097 L4.48416 1078.86 Z" fill="#000000" fill-rule="nonzero" fill-opacity="1"></path><path clip-path="url(#clip430)" d="M30.4881 1017.14 L52.0042 1017.14 L52.0042 1023 L30.679 1023 Q25.6183 1023 23.1038 1024.97 Q20.5894 1026.95 20.5894 1030.89 Q20.5894 1035.64 23.6131 1038.37 Q26.6368 1041.11 31.8567 1041.11 L52.0042 1041.11 L52.0042 1047 L16.3562 1047 L16.3562 1041.11 L21.8944 1041.11 Q18.6797 1039.01 17.0883 1036.18 Q15.4968 1033.31 15.4968 1029.59 Q15.4968 1023.45 19.3163 1020.3 Q23.1038 1017.14 30.4881 1017.14 Z" fill="#000000" fill-rule="nonzero" fill-opacity="1"></path><path clip-path="url(#clip430)" d="M33.7664 982.006 Q27.4007 982.006 23.8996 984.648 Q20.3984 987.258 20.3984 992 Q20.3984 996.711 23.8996 999.352 Q27.4007 1001.96 33.7664 1001.96 Q40.1003 1001.96 43.6014 999.352 Q47.1026 996.711 47.1026 992 Q47.1026 987.258 43.6014 984.648 Q40.1003 982.006 33.7664 982.006 M47.58 976.149 Q56.683 976.149 61.1071 980.192 Q65.5631 984.234 65.5631 992.573 Q65.5631 995.66 65.0857 998.398 Q64.6401 1001.13 63.6852 1003.71 L57.9879 1003.71 Q59.3884 1001.13 60.0568 998.62 Q60.7252 996.106 60.7252 993.496 Q60.7252 987.735 57.7015 984.87 Q54.7096 982.006 48.6303 982.006 L45.7339 982.006 Q48.885 983.82 50.4446 986.653 Q52.0042 989.486 52.0042 993.432 Q52.0042 999.989 47.0071 1004 Q42.01 1008.01 33.7664 1008.01 Q25.491 1008.01 20.4939 1004 Q15.4968 999.989 15.4968 993.432 Q15.4968 989.486 17.0564 986.653 Q18.616 983.82 21.7671 982.006 L16.3562 982.006 L16.3562 976.149 L47.58 976.149 Z" fill="#000000" fill-rule="nonzero" fill-opacity="1"></path><path clip-path="url(#clip430)" d="M2.47896 964.086 L2.47896 958.23 L52.0042 958.23 L52.0042 964.086 L2.47896 964.086 Z" fill="#000000" fill-rule="nonzero" fill-opacity="1"></path><path clip-path="url(#clip430)" d="M32.7161 915.484 L35.5806 915.484 L35.5806 942.411 Q41.6281 942.029 44.8109 938.783 Q47.9619 935.504 47.9619 929.68 Q47.9619 926.306 47.1344 923.155 Q46.3069 919.972 44.6518 916.853 L50.1899 916.853 Q51.5267 920.004 52.227 923.314 Q52.9272 926.624 52.9272 930.03 Q52.9272 938.56 47.9619 943.557 Q42.9967 948.522 34.5303 948.522 Q25.7774 948.522 20.6531 943.812 Q15.4968 939.069 15.4968 931.048 Q15.4968 923.855 20.1438 919.686 Q24.7589 915.484 32.7161 915.484 M30.9973 921.341 Q26.1912 921.404 23.3266 924.046 Q20.4621 926.656 20.4621 930.985 Q20.4621 935.886 23.2312 938.846 Q26.0002 941.775 31.0292 942.22 L30.9973 921.341 Z" fill="#000000" fill-rule="nonzero" fill-opacity="1"></path><path clip-path="url(#clip430)" d="M2.54262 871.083 Q9.86318 875.348 17.0246 877.417 Q24.186 879.486 31.5384 879.486 Q38.8908 879.486 46.1159 877.417 Q53.3091 875.317 60.5979 871.083 L60.5979 876.176 Q53.1182 880.95 45.8931 883.337 Q38.668 885.693 31.5384 885.693 Q24.4406 885.693 17.2474 883.337 Q10.0542 880.982 2.54262 876.176 L2.54262 871.083 Z" fill="#000000" fill-rule="nonzero" fill-opacity="1"></path><path clip-path="url(#clip430)" d="M9.76769 853.037 L46.7206 853.037 L46.7206 845.27 Q46.7206 835.435 42.2646 830.884 Q37.8086 826.301 28.1964 826.301 Q18.6479 826.301 14.2237 830.884 Q9.76769 835.435 9.76769 845.27 L9.76769 853.037 M4.48416 859.466 L4.48416 846.257 Q4.48416 832.444 10.2451 825.982 Q15.9743 819.521 28.1964 819.521 Q40.4822 819.521 46.2432 826.014 Q52.0042 832.507 52.0042 846.257 L52.0042 859.466 L4.48416 859.466 Z" fill="#000000" fill-rule="nonzero" fill-opacity="1"></path><path clip-path="url(#clip430)" d="M32.7161 779.035 L35.5806 779.035 L35.5806 805.962 Q41.6281 805.58 44.8109 802.334 Q47.9619 799.055 47.9619 793.231 Q47.9619 789.857 47.1344 786.706 Q46.3069 783.523 44.6518 780.404 L50.1899 780.404 Q51.5267 783.555 52.227 786.865 Q52.9272 790.175 52.9272 793.581 Q52.9272 802.111 47.9619 807.108 Q42.9967 812.073 34.5303 812.073 Q25.7774 812.073 20.6531 807.363 Q15.4968 802.62 15.4968 794.599 Q15.4968 787.406 20.1438 783.237 Q24.7589 779.035 32.7161 779.035 M30.9973 784.892 Q26.1912 784.955 23.3266 787.597 Q20.4621 790.207 20.4621 794.536 Q20.4621 799.437 23.2312 802.397 Q26.0002 805.326 31.0292 805.771 L30.9973 784.892 Z" fill="#000000" fill-rule="nonzero" fill-opacity="1"></path><path clip-path="url(#clip430)" d="M33.7664 745.965 Q27.4007 745.965 23.8996 748.607 Q20.3984 751.217 20.3984 755.96 Q20.3984 760.67 23.8996 763.312 Q27.4007 765.922 33.7664 765.922 Q40.1003 765.922 43.6014 763.312 Q47.1026 760.67 47.1026 755.96 Q47.1026 751.217 43.6014 748.607 Q40.1003 745.965 33.7664 745.965 M47.58 740.109 Q56.683 740.109 61.1071 744.151 Q65.5631 748.193 65.5631 756.533 Q65.5631 759.62 65.0857 762.357 Q64.6401 765.094 63.6852 767.672 L57.9879 767.672 Q59.3884 765.094 60.0568 762.58 Q60.7252 760.065 60.7252 757.456 Q60.7252 751.695 57.7015 748.83 Q54.7096 745.965 48.6303 745.965 L45.7339 745.965 Q48.885 747.78 50.4446 750.612 Q52.0042 753.445 52.0042 757.392 Q52.0042 763.949 47.0071 767.959 Q42.01 771.969 33.7664 771.969 Q25.491 771.969 20.4939 767.959 Q15.4968 763.949 15.4968 757.392 Q15.4968 753.445 17.0564 750.612 Q18.616 747.78 21.7671 745.965 L16.3562 745.965 L16.3562 740.109 L47.58 740.109 Z" fill="#000000" fill-rule="nonzero" fill-opacity="1"></path><path clip-path="url(#clip430)" d="M21.8307 707.389 Q21.2578 708.376 21.0032 709.554 Q20.7167 710.699 20.7167 712.1 Q20.7167 717.065 23.9632 719.739 Q27.1779 722.38 33.2253 722.38 L52.0042 722.38 L52.0042 728.269 L16.3562 728.269 L16.3562 722.38 L21.8944 722.38 Q18.6479 720.534 17.0883 717.574 Q15.4968 714.614 15.4968 710.381 Q15.4968 709.776 15.5923 709.044 Q15.656 708.312 15.8151 707.421 L21.8307 707.389 Z" fill="#000000" fill-rule="nonzero" fill-opacity="1"></path><path clip-path="url(#clip430)" d="M32.7161 672.187 L35.5806 672.187 L35.5806 699.114 Q41.6281 698.732 44.8109 695.485 Q47.9619 692.207 47.9619 686.382 Q47.9619 683.009 47.1344 679.858 Q46.3069 676.675 44.6518 673.556 L50.1899 673.556 Q51.5267 676.707 52.227 680.017 Q52.9272 683.327 52.9272 686.733 Q52.9272 695.263 47.9619 700.26 Q42.9967 705.225 34.5303 705.225 Q25.7774 705.225 20.6531 700.514 Q15.4968 695.772 15.4968 687.751 Q15.4968 680.558 20.1438 676.388 Q24.7589 672.187 32.7161 672.187 M30.9973 678.043 Q26.1912 678.107 23.3266 680.749 Q20.4621 683.359 20.4621 687.687 Q20.4621 692.589 23.2312 695.549 Q26.0002 698.477 31.0292 698.923 L30.9973 678.043 Z" fill="#000000" fill-rule="nonzero" fill-opacity="1"></path><path clip-path="url(#clip430)" d="M32.7161 632.083 L35.5806 632.083 L35.5806 659.01 Q41.6281 658.628 44.8109 655.381 Q47.9619 652.103 47.9619 646.278 Q47.9619 642.905 47.1344 639.754 Q46.3069 636.571 44.6518 633.452 L50.1899 633.452 Q51.5267 636.603 52.227 639.913 Q52.9272 643.223 52.9272 646.629 Q52.9272 655.159 47.9619 660.156 Q42.9967 665.121 34.5303 665.121 Q25.7774 665.121 20.6531 660.41 Q15.4968 655.668 15.4968 647.647 Q15.4968 640.454 20.1438 636.284 Q24.7589 632.083 32.7161 632.083 M30.9973 637.939 Q26.1912 638.003 23.3266 640.645 Q20.4621 643.255 20.4621 647.583 Q20.4621 652.485 23.2312 655.445 Q26.0002 658.373 31.0292 658.819 L30.9973 637.939 Z" fill="#000000" fill-rule="nonzero" fill-opacity="1"></path><path clip-path="url(#clip430)" d="M17.4065 599.745 L22.9447 599.745 Q21.6716 602.228 21.035 604.901 Q20.3984 607.575 20.3984 610.44 Q20.3984 614.8 21.7352 616.996 Q23.072 619.161 25.7456 619.161 Q27.7826 619.161 28.9603 617.601 Q30.1061 616.041 31.1565 611.331 L31.6021 609.326 Q32.9389 603.087 35.3897 600.477 Q37.8086 597.835 42.1691 597.835 Q47.1344 597.835 50.0308 601.782 Q52.9272 605.697 52.9272 612.572 Q52.9272 615.437 52.3543 618.556 Q51.8132 621.643 50.6992 625.081 L44.6518 625.081 Q46.3387 621.834 47.198 618.683 Q48.0256 615.532 48.0256 612.445 Q48.0256 608.307 46.6251 606.079 Q45.1929 603.851 42.6147 603.851 Q40.2276 603.851 38.9545 605.474 Q37.6813 607.066 36.5037 612.508 L36.0262 614.545 Q34.8804 619.988 32.5251 622.407 Q30.138 624.826 26.0002 624.826 Q20.9713 624.826 18.2341 621.261 Q15.4968 617.696 15.4968 611.14 Q15.4968 607.893 15.9743 605.029 Q16.4517 602.164 17.4065 599.745 Z" fill="#000000" fill-rule="nonzero" fill-opacity="1"></path><path clip-path="url(#clip430)" d="M2.54262 589.433 L2.54262 584.34 Q10.0542 579.566 17.2474 577.211 Q24.4406 574.823 31.5384 574.823 Q38.668 574.823 45.8931 577.211 Q53.1182 579.566 60.5979 584.34 L60.5979 589.433 Q53.3091 585.2 46.1159 583.131 Q38.8908 581.03 31.5384 581.03 Q24.186 581.03 17.0246 583.131 Q9.86318 585.2 2.54262 589.433 Z" fill="#000000" fill-rule="nonzero" fill-opacity="1"></path><path clip-path="url(#clip430)" d="M1074.56 12.096 L1082.74 12.096 L1082.74 65.6895 L1112.19 65.6895 L1112.19 72.576 L1074.56 72.576 L1074.56 12.096 Z" fill="#000000" fill-rule="nonzero" fill-opacity="1"></path><path clip-path="url(#clip430)" d="M1136.58 32.4315 Q1130.58 32.4315 1127.1 37.1306 Q1123.62 41.7891 1123.62 49.9314 Q1123.62 58.0738 1127.06 62.7728 Q1130.54 67.4314 1136.58 67.4314 Q1142.53 67.4314 1146.02 62.7323 Q1149.5 58.0333 1149.5 49.9314 Q1149.5 41.8701 1146.02 37.1711 Q1142.53 32.4315 1136.58 32.4315 M1136.58 26.1121 Q1146.3 26.1121 1151.85 32.4315 Q1157.4 38.7509 1157.4 49.9314 Q1157.4 61.0714 1151.85 67.4314 Q1146.3 73.7508 1136.58 73.7508 Q1126.82 73.7508 1121.27 67.4314 Q1115.76 61.0714 1115.76 49.9314 Q1115.76 38.7509 1121.27 32.4315 Q1126.82 26.1121 1136.58 26.1121 Z" fill="#000000" fill-rule="nonzero" fill-opacity="1"></path><path clip-path="url(#clip430)" d="M1190.37 49.7694 Q1181.34 49.7694 1177.86 51.8354 Q1174.37 53.9013 1174.37 58.8839 Q1174.37 62.8538 1176.97 65.2034 Q1179.6 67.5124 1184.1 67.5124 Q1190.29 67.5124 1194.02 63.1374 Q1197.79 58.7219 1197.79 51.4303 L1197.79 49.7694 L1190.37 49.7694 M1205.24 46.6907 L1205.24 72.576 L1197.79 72.576 L1197.79 65.6895 Q1195.24 69.8214 1191.43 71.8063 Q1187.62 73.7508 1182.11 73.7508 Q1175.14 73.7508 1171.01 69.8619 Q1166.92 65.9325 1166.92 59.3701 Q1166.92 51.7138 1172.02 47.825 Q1177.17 43.9361 1187.34 43.9361 L1197.79 43.9361 L1197.79 43.2069 Q1197.79 38.0623 1194.38 35.2672 Q1191.02 32.4315 1184.91 32.4315 Q1181.02 32.4315 1177.33 33.3632 Q1173.64 34.295 1170.24 36.1584 L1170.24 29.2718 Q1174.33 27.692 1178.18 26.9223 Q1182.03 26.1121 1185.68 26.1121 Q1195.52 26.1121 1200.38 31.2163 Q1205.24 36.3204 1205.24 46.6907 Z" fill="#000000" fill-rule="nonzero" fill-opacity="1"></path><path clip-path="url(#clip430)" d="M1250.45 34.0924 L1250.45 9.54393 L1257.9 9.54393 L1257.9 72.576 L1250.45 72.576 L1250.45 65.7705 Q1248.1 69.8214 1244.49 71.8063 Q1240.93 73.7508 1235.91 73.7508 Q1227.68 73.7508 1222.5 67.1883 Q1217.35 60.6258 1217.35 49.9314 Q1217.35 39.2371 1222.5 32.6746 Q1227.68 26.1121 1235.91 26.1121 Q1240.93 26.1121 1244.49 28.0971 Q1248.1 30.0415 1250.45 34.0924 M1225.05 49.9314 Q1225.05 58.1548 1228.41 62.8538 Q1231.82 67.5124 1237.73 67.5124 Q1243.64 67.5124 1247.05 62.8538 Q1250.45 58.1548 1250.45 49.9314 Q1250.45 41.7081 1247.05 37.0496 Q1243.64 32.3505 1237.73 32.3505 Q1231.82 32.3505 1228.41 37.0496 Q1225.05 41.7081 1225.05 49.9314 Z" fill="#000000" fill-rule="nonzero" fill-opacity="1"></path><path clip-path="url(#clip430)" d="M1345.24 16.7545 L1345.24 25.383 Q1341.11 21.5346 1336.41 19.6307 Q1331.75 17.7268 1326.48 17.7268 Q1316.11 17.7268 1310.61 24.0867 Q1305.1 30.4061 1305.1 42.3968 Q1305.1 54.3469 1310.61 60.7069 Q1316.11 67.0263 1326.48 67.0263 Q1331.75 67.0263 1336.41 65.1223 Q1341.11 63.2184 1345.24 59.3701 L1345.24 67.9175 Q1340.95 70.8341 1336.13 72.2924 Q1331.35 73.7508 1326 73.7508 Q1312.27 73.7508 1304.37 65.3654 Q1296.47 56.9395 1296.47 42.3968 Q1296.47 27.8135 1304.37 19.4281 Q1312.27 11.0023 1326 11.0023 Q1331.43 11.0023 1336.21 12.4606 Q1341.03 13.8784 1345.24 16.7545 Z" fill="#000000" fill-rule="nonzero" fill-opacity="1"></path><path clip-path="url(#clip430)" d="M1356.79 54.671 L1356.79 27.2059 L1364.24 27.2059 L1364.24 54.3874 Q1364.24 60.8284 1366.75 64.0691 Q1369.26 67.2693 1374.29 67.2693 Q1380.32 67.2693 1383.81 63.421 Q1387.33 59.5726 1387.33 52.9291 L1387.33 27.2059 L1394.78 27.2059 L1394.78 72.576 L1387.33 72.576 L1387.33 65.6084 Q1384.62 69.7404 1381.01 71.7658 Q1377.45 73.7508 1372.71 73.7508 Q1364.89 73.7508 1360.84 68.8897 Q1356.79 64.0286 1356.79 54.671 M1375.54 26.1121 L1375.54 26.1121 Z" fill="#000000" fill-rule="nonzero" fill-opacity="1"></path><path clip-path="url(#clip430)" d="M1436.43 34.1734 Q1435.17 33.4443 1433.67 33.1202 Q1432.21 32.7556 1430.43 32.7556 Q1424.11 32.7556 1420.71 36.8875 Q1417.35 40.9789 1417.35 48.6757 L1417.35 72.576 L1409.85 72.576 L1409.85 27.2059 L1417.35 27.2059 L1417.35 34.2544 Q1419.7 30.1225 1423.46 28.1376 Q1427.23 26.1121 1432.62 26.1121 Q1433.39 26.1121 1434.32 26.2337 Q1435.25 26.3147 1436.39 26.5172 L1436.43 34.1734 Z" fill="#000000" fill-rule="nonzero" fill-opacity="1"></path><path clip-path="url(#clip430)" d="M1469.08 34.1734 Q1467.82 33.4443 1466.32 33.1202 Q1464.86 32.7556 1463.08 32.7556 Q1456.76 32.7556 1453.36 36.8875 Q1450 40.9789 1450 48.6757 L1450 72.576 L1442.5 72.576 L1442.5 27.2059 L1450 27.2059 L1450 34.2544 Q1452.35 30.1225 1456.11 28.1376 Q1459.88 26.1121 1465.27 26.1121 Q1466.04 26.1121 1466.97 26.2337 Q1467.9 26.3147 1469.04 26.5172 L1469.08 34.1734 Z" fill="#000000" fill-rule="nonzero" fill-opacity="1"></path><path clip-path="url(#clip430)" d="M1513.88 48.0275 L1513.88 51.6733 L1479.61 51.6733 Q1480.1 59.3701 1484.23 63.421 Q1488.4 67.4314 1495.81 67.4314 Q1500.11 67.4314 1504.12 66.3781 Q1508.17 65.3249 1512.14 63.2184 L1512.14 70.267 Q1508.13 71.9684 1503.91 72.8596 Q1499.7 73.7508 1495.37 73.7508 Q1484.51 73.7508 1478.15 67.4314 Q1471.83 61.1119 1471.83 50.3365 Q1471.83 39.1965 1477.83 32.6746 Q1483.86 26.1121 1494.07 26.1121 Q1503.23 26.1121 1508.53 32.0264 Q1513.88 37.9003 1513.88 48.0275 M1506.43 45.84 Q1506.34 39.7232 1502.98 36.0774 Q1499.66 32.4315 1494.15 32.4315 Q1487.91 32.4315 1484.15 35.9558 Q1480.42 39.4801 1479.85 45.8805 L1506.43 45.84 Z" fill="#000000" fill-rule="nonzero" fill-opacity="1"></path><path clip-path="url(#clip430)" d="M1563.83 45.1919 L1563.83 72.576 L1556.37 72.576 L1556.37 45.4349 Q1556.37 38.994 1553.86 35.7938 Q1551.35 32.5936 1546.33 32.5936 Q1540.29 32.5936 1536.81 36.4419 Q1533.32 40.2903 1533.32 46.9338 L1533.32 72.576 L1525.83 72.576 L1525.83 27.2059 L1533.32 27.2059 L1533.32 34.2544 Q1536 30.163 1539.6 28.1376 Q1543.25 26.1121 1547.99 26.1121 Q1555.81 26.1121 1559.82 30.9732 Q1563.83 35.7938 1563.83 45.1919 Z" fill="#000000" fill-rule="nonzero" fill-opacity="1"></path><path clip-path="url(#clip430)" d="M1586.07 14.324 L1586.07 27.2059 L1601.42 27.2059 L1601.42 32.9987 L1586.07 32.9987 L1586.07 57.6282 Q1586.07 63.1779 1587.57 64.7578 Q1589.1 66.3376 1593.76 66.3376 L1601.42 66.3376 L1601.42 72.576 L1593.76 72.576 Q1585.13 72.576 1581.85 69.3758 Q1578.57 66.1351 1578.57 57.6282 L1578.57 32.9987 L1573.1 32.9987 L1573.1 27.2059 L1578.57 27.2059 L1578.57 14.324 L1586.07 14.324 Z" fill="#000000" fill-rule="nonzero" fill-opacity="1"></path><path clip-path="url(#clip430)" d="M1646.1 18.8205 L1646.1 41.5461 L1656.39 41.5461 Q1662.1 41.5461 1665.22 38.5889 Q1668.34 35.6318 1668.34 30.163 Q1668.34 24.7348 1665.22 21.7777 Q1662.1 18.8205 1656.39 18.8205 L1646.1 18.8205 M1637.92 12.096 L1656.39 12.096 Q1666.56 12.096 1671.74 16.714 Q1676.97 21.2916 1676.97 30.163 Q1676.97 39.1155 1671.74 43.6931 Q1666.56 48.2706 1656.39 48.2706 L1646.1 48.2706 L1646.1 72.576 L1637.92 72.576 L1637.92 12.096 Z" fill="#000000" fill-rule="nonzero" fill-opacity="1"></path><path clip-path="url(#clip430)" d="M1725.34 45.1919 L1725.34 72.576 L1717.88 72.576 L1717.88 45.4349 Q1717.88 38.994 1715.37 35.7938 Q1712.86 32.5936 1707.84 32.5936 Q1701.8 32.5936 1698.32 36.4419 Q1694.83 40.2903 1694.83 46.9338 L1694.83 72.576 L1687.34 72.576 L1687.34 9.54393 L1694.83 9.54393 L1694.83 34.2544 Q1697.51 30.163 1701.11 28.1376 Q1704.76 26.1121 1709.5 26.1121 Q1717.32 26.1121 1721.33 30.9732 Q1725.34 35.7938 1725.34 45.1919 Z" fill="#000000" fill-rule="nonzero" fill-opacity="1"></path><path clip-path="url(#clip430)" d="M1760.82 49.7694 Q1751.79 49.7694 1748.31 51.8354 Q1744.82 53.9013 1744.82 58.8839 Q1744.82 62.8538 1747.41 65.2034 Q1750.05 67.5124 1754.54 67.5124 Q1760.74 67.5124 1764.47 63.1374 Q1768.24 58.7219 1768.24 51.4303 L1768.24 49.7694 L1760.82 49.7694 M1775.69 46.6907 L1775.69 72.576 L1768.24 72.576 L1768.24 65.6895 Q1765.68 69.8214 1761.88 71.8063 Q1758.07 73.7508 1752.56 73.7508 Q1745.59 73.7508 1741.46 69.8619 Q1737.37 65.9325 1737.37 59.3701 Q1737.37 51.7138 1742.47 47.825 Q1747.62 43.9361 1757.78 43.9361 L1768.24 43.9361 L1768.24 43.2069 Q1768.24 38.0623 1764.83 35.2672 Q1761.47 32.4315 1755.35 32.4315 Q1751.47 32.4315 1747.78 33.3632 Q1744.09 34.295 1740.69 36.1584 L1740.69 29.2718 Q1744.78 27.692 1748.63 26.9223 Q1752.48 26.1121 1756.12 26.1121 Q1765.97 26.1121 1770.83 31.2163 Q1775.69 36.3204 1775.69 46.6907 Z" fill="#000000" fill-rule="nonzero" fill-opacity="1"></path><path clip-path="url(#clip430)" d="M1819.97 28.5427 L1819.97 35.5912 Q1816.81 33.9709 1813.4 33.1607 Q1810 32.3505 1806.35 32.3505 Q1800.81 32.3505 1798.01 34.0519 Q1795.26 35.7533 1795.26 39.156 Q1795.26 41.7486 1797.24 43.2475 Q1799.23 44.7058 1805.22 46.0426 L1807.77 46.6097 Q1815.71 48.3111 1819.03 51.4303 Q1822.4 54.509 1822.4 60.0587 Q1822.4 66.3781 1817.37 70.0644 Q1812.39 73.7508 1803.64 73.7508 Q1799.99 73.7508 1796.03 73.0216 Q1792.1 72.3329 1787.72 70.9151 L1787.72 63.2184 Q1791.85 65.3654 1795.86 66.4591 Q1799.87 67.5124 1803.8 67.5124 Q1809.07 67.5124 1811.9 65.73 Q1814.74 63.9071 1814.74 60.6258 Q1814.74 57.5877 1812.67 55.9673 Q1810.65 54.3469 1803.72 52.8481 L1801.13 52.2405 Q1794.2 50.7821 1791.12 47.7845 Q1788.04 44.7463 1788.04 39.4801 Q1788.04 33.0797 1792.58 29.5959 Q1797.12 26.1121 1805.46 26.1121 Q1809.6 26.1121 1813.24 26.7198 Q1816.89 27.3274 1819.97 28.5427 Z" fill="#000000" fill-rule="nonzero" fill-opacity="1"></path><path clip-path="url(#clip430)" d="M1873.07 48.0275 L1873.07 51.6733 L1838.8 51.6733 Q1839.29 59.3701 1843.42 63.421 Q1847.59 67.4314 1855.01 67.4314 Q1859.3 67.4314 1863.31 66.3781 Q1867.36 65.3249 1871.33 63.2184 L1871.33 70.267 Q1867.32 71.9684 1863.11 72.8596 Q1858.9 73.7508 1854.56 73.7508 Q1843.7 73.7508 1837.34 67.4314 Q1831.02 61.1119 1831.02 50.3365 Q1831.02 39.1965 1837.02 32.6746 Q1843.06 26.1121 1853.26 26.1121 Q1862.42 26.1121 1867.73 32.0264 Q1873.07 37.9003 1873.07 48.0275 M1865.62 45.84 Q1865.54 39.7232 1862.18 36.0774 Q1858.85 32.4315 1853.35 32.4315 Q1847.11 32.4315 1843.34 35.9558 Q1839.61 39.4801 1839.05 45.8805 L1865.62 45.84 Z" fill="#000000" fill-rule="nonzero" fill-opacity="1"></path><path clip-path="url(#clip430)" d="M1920.19 18.8205 L1920.19 41.5461 L1930.47 41.5461 Q1936.19 41.5461 1939.31 38.5889 Q1942.42 35.6318 1942.42 30.163 Q1942.42 24.7348 1939.31 21.7777 Q1936.19 18.8205 1930.47 18.8205 L1920.19 18.8205 M1912 12.096 L1930.47 12.096 Q1940.64 12.096 1945.83 16.714 Q1951.05 21.2916 1951.05 30.163 Q1951.05 39.1155 1945.83 43.6931 Q1940.64 48.2706 1930.47 48.2706 L1920.19 48.2706 L1920.19 72.576 L1912 72.576 L1912 12.096 Z" fill="#000000" fill-rule="nonzero" fill-opacity="1"></path><path clip-path="url(#clip430)" d="M1986.54 34.1734 Q1985.28 33.4443 1983.78 33.1202 Q1982.33 32.7556 1980.54 32.7556 Q1974.22 32.7556 1970.82 36.8875 Q1967.46 40.9789 1967.46 48.6757 L1967.46 72.576 L1959.97 72.576 L1959.97 27.2059 L1967.46 27.2059 L1967.46 34.2544 Q1969.81 30.1225 1973.58 28.1376 Q1977.34 26.1121 1982.73 26.1121 Q1983.5 26.1121 1984.43 26.2337 Q1985.36 26.3147 1986.5 26.5172 L1986.54 34.1734 Z" fill="#000000" fill-rule="nonzero" fill-opacity="1"></path><path clip-path="url(#clip430)" d="M2010.12 32.4315 Q2004.12 32.4315 2000.64 37.1306 Q1997.15 41.7891 1997.15 49.9314 Q1997.15 58.0738 2000.6 62.7728 Q2004.08 67.4314 2010.12 67.4314 Q2016.07 67.4314 2019.55 62.7323 Q2023.04 58.0333 2023.04 49.9314 Q2023.04 41.8701 2019.55 37.1711 Q2016.07 32.4315 2010.12 32.4315 M2010.12 26.1121 Q2019.84 26.1121 2025.39 32.4315 Q2030.94 38.7509 2030.94 49.9314 Q2030.94 61.0714 2025.39 67.4314 Q2019.84 73.7508 2010.12 73.7508 Q2000.35 73.7508 1994.8 67.4314 Q1989.29 61.0714 1989.29 49.9314 Q1989.29 38.7509 1994.8 32.4315 Q2000.35 26.1121 2010.12 26.1121 Z" fill="#000000" fill-rule="nonzero" fill-opacity="1"></path><path clip-path="url(#clip430)" d="M2066.26 9.54393 L2066.26 15.7418 L2059.13 15.7418 Q2055.12 15.7418 2053.54 17.3622 Q2052 18.9825 2052 23.1955 L2052 27.2059 L2064.28 27.2059 L2064.28 32.9987 L2052 32.9987 L2052 72.576 L2044.51 72.576 L2044.51 32.9987 L2037.38 32.9987 L2037.38 27.2059 L2044.51 27.2059 L2044.51 24.0462 Q2044.51 16.471 2048.03 13.0277 Q2051.56 9.54393 2059.21 9.54393 L2066.26 9.54393 Z" fill="#000000" fill-rule="nonzero" fill-opacity="1"></path><path clip-path="url(#clip430)" d="M2072.5 27.2059 L2079.95 27.2059 L2079.95 72.576 L2072.5 72.576 L2072.5 27.2059 M2072.5 9.54393 L2079.95 9.54393 L2079.95 18.9825 L2072.5 18.9825 L2072.5 9.54393 Z" fill="#000000" fill-rule="nonzero" fill-opacity="1"></path><path clip-path="url(#clip430)" d="M2095.55 9.54393 L2103 9.54393 L2103 72.576 L2095.55 72.576 L2095.55 9.54393 Z" fill="#000000" fill-rule="nonzero" fill-opacity="1"></path><path clip-path="url(#clip430)" d="M2157.41 48.0275 L2157.41 51.6733 L2123.14 51.6733 Q2123.62 59.3701 2127.75 63.421 Q2131.93 67.4314 2139.34 67.4314 Q2143.63 67.4314 2147.64 66.3781 Q2151.69 65.3249 2155.66 63.2184 L2155.66 70.267 Q2151.65 71.9684 2147.44 72.8596 Q2143.23 73.7508 2138.89 73.7508 Q2128.04 73.7508 2121.68 67.4314 Q2115.36 61.1119 2115.36 50.3365 Q2115.36 39.1965 2121.35 32.6746 Q2127.39 26.1121 2137.6 26.1121 Q2146.75 26.1121 2152.06 32.0264 Q2157.41 37.9003 2157.41 48.0275 M2149.95 45.84 Q2149.87 39.7232 2146.51 36.0774 Q2143.19 32.4315 2137.68 32.4315 Q2131.44 32.4315 2127.67 35.9558 Q2123.95 39.4801 2123.38 45.8805 L2149.95 45.84 Z" fill="#000000" fill-rule="nonzero" fill-opacity="1"></path><polyline clip-path="url(#clip432)" style="stroke:#0000ff; stroke-linecap:round; stroke-linejoin:round; stroke-width:4; stroke-opacity:1; fill:none" points="354.876,941.409 859.318,1710.44 1363.76,170.146 1868.2,941.341 2372.65,1710.74 2877.09,169.985 "></polyline>
<circle clip-path="url(#clip432)" cx="354.876" cy="941.409" r="14.4" fill="#0000ff" fill-rule="evenodd" fill-opacity="1" stroke="#000000" stroke-opacity="1" stroke-width="4"></circle>
<circle clip-path="url(#clip432)" cx="859.318" cy="1710.44" r="14.4" fill="#0000ff" fill-rule="evenodd" fill-opacity="1" stroke="#000000" stroke-opacity="1" stroke-width="4"></circle>
<circle clip-path="url(#clip432)" cx="1363.76" cy="170.146" r="14.4" fill="#0000ff" fill-rule="evenodd" fill-opacity="1" stroke="#000000" stroke-opacity="1" stroke-width="4"></circle>
<circle clip-path="url(#clip432)" cx="1868.2" cy="941.341" r="14.4" fill="#0000ff" fill-rule="evenodd" fill-opacity="1" stroke="#000000" stroke-opacity="1" stroke-width="4"></circle>
<circle clip-path="url(#clip432)" cx="2372.65" cy="1710.74" r="14.4" fill="#0000ff" fill-rule="evenodd" fill-opacity="1" stroke="#000000" stroke-opacity="1" stroke-width="4"></circle>
<circle clip-path="url(#clip432)" cx="2877.09" cy="169.985" r="14.4" fill="#0000ff" fill-rule="evenodd" fill-opacity="1" stroke="#000000" stroke-opacity="1" stroke-width="4"></circle>
<polyline clip-path="url(#clip432)" style="stroke:#ff0000; stroke-linecap:round; stroke-linejoin:round; stroke-width:4; stroke-opacity:1; fill:none" stroke-dasharray="16, 10" points="354.876,940.844 859.318,1711.26 1363.76,169.889 1868.2,940.779 2372.65,1711.56 2877.09,169.727 "></polyline>
<path clip-path="url(#clip432)" d="M338.876 924.844 L338.876 956.844 L370.876 956.844 L370.876 924.844 L338.876 924.844 Z" fill="#ff0000" fill-rule="evenodd" fill-opacity="1" stroke="#000000" stroke-opacity="1" stroke-width="4"></path>
<path clip-path="url(#clip432)" d="M843.318 1695.26 L843.318 1727.26 L875.318 1727.26 L875.318 1695.26 L843.318 1695.26 Z" fill="#ff0000" fill-rule="evenodd" fill-opacity="1" stroke="#000000" stroke-opacity="1" stroke-width="4"></path>
<path clip-path="url(#clip432)" d="M1347.76 153.889 L1347.76 185.889 L1379.76 185.889 L1379.76 153.889 L1347.76 153.889 Z" fill="#ff0000" fill-rule="evenodd" fill-opacity="1" stroke="#000000" stroke-opacity="1" stroke-width="4"></path>
<path clip-path="url(#clip432)" d="M1852.2 924.779 L1852.2 956.779 L1884.2 956.779 L1884.2 924.779 L1852.2 924.779 Z" fill="#ff0000" fill-rule="evenodd" fill-opacity="1" stroke="#000000" stroke-opacity="1" stroke-width="4"></path>
<path clip-path="url(#clip432)" d="M2356.65 1695.56 L2356.65 1727.56 L2388.65 1727.56 L2388.65 1695.56 L2356.65 1695.56 Z" fill="#ff0000" fill-rule="evenodd" fill-opacity="1" stroke="#000000" stroke-opacity="1" stroke-width="4"></path>
<path clip-path="url(#clip432)" d="M2861.09 153.727 L2861.09 185.727 L2893.09 185.727 L2893.09 153.727 L2861.09 153.727 Z" fill="#ff0000" fill-rule="evenodd" fill-opacity="1" stroke="#000000" stroke-opacity="1" stroke-width="4"></path>
<path clip-path="url(#clip430)" d="M2092.74 333.47 L2863.64 333.47 L2863.64 177.95 L2092.74 177.95  Z" fill="#ffffff" fill-rule="evenodd" fill-opacity="1"></path>
<polyline clip-path="url(#clip430)" style="stroke:#000000; stroke-linecap:round; stroke-linejoin:round; stroke-width:4; stroke-opacity:1; fill:none" points="2092.74,333.47 2863.64,333.47 2863.64,177.95 2092.74,177.95 2092.74,333.47 "></polyline>
<polyline clip-path="url(#clip430)" style="stroke:#0000ff; stroke-linecap:round; stroke-linejoin:round; stroke-width:4; stroke-opacity:1; fill:none" points="2122.45,229.79 2300.69,229.79 "></polyline>
<circle clip-path="url(#clip430)" cx="2211.57" cy="229.79" r="20.48" fill="#0000ff" fill-rule="evenodd" fill-opacity="1" stroke="#000000" stroke-opacity="1" stroke-width="5.68889"></circle>
<path clip-path="url(#clip430)" d="M2335.07 230.566 L2335.07 243.228 L2342.57 243.228 Q2346.34 243.228 2348.15 241.677 Q2349.98 240.103 2349.98 236.885 Q2349.98 233.644 2348.15 232.117 Q2346.34 230.566 2342.57 230.566 L2335.07 230.566 M2335.07 216.353 L2335.07 226.769 L2341.99 226.769 Q2345.42 226.769 2347.08 225.496 Q2348.77 224.2 2348.77 221.561 Q2348.77 218.945 2347.08 217.649 Q2345.42 216.353 2341.99 216.353 L2335.07 216.353 M2330.39 212.51 L2342.34 212.51 Q2347.68 212.51 2350.58 214.733 Q2353.47 216.955 2353.47 221.052 Q2353.47 224.223 2351.99 226.098 Q2350.51 227.973 2347.64 228.436 Q2351.09 229.177 2352.99 231.538 Q2354.91 233.876 2354.91 237.394 Q2354.91 242.024 2351.76 244.547 Q2348.61 247.07 2342.8 247.07 L2330.39 247.07 L2330.39 212.51 Z" fill="#000000" fill-rule="nonzero" fill-opacity="1"></path><path clip-path="url(#clip430)" d="M2384.91 233.043 L2384.91 235.126 L2365.32 235.126 Q2365.6 239.524 2367.96 241.839 Q2370.35 244.13 2374.58 244.13 Q2377.04 244.13 2379.33 243.529 Q2381.64 242.927 2383.91 241.723 L2383.91 245.751 Q2381.62 246.723 2379.21 247.232 Q2376.8 247.742 2374.33 247.742 Q2368.12 247.742 2364.49 244.13 Q2360.88 240.519 2360.88 234.362 Q2360.88 227.996 2364.3 224.269 Q2367.75 220.52 2373.59 220.52 Q2378.82 220.52 2381.85 223.899 Q2384.91 227.256 2384.91 233.043 M2380.65 231.793 Q2380.6 228.297 2378.68 226.214 Q2376.78 224.131 2373.63 224.131 Q2370.07 224.131 2367.92 226.144 Q2365.79 228.158 2365.46 231.816 L2380.65 231.793 Z" fill="#000000" fill-rule="nonzero" fill-opacity="1"></path><path clip-path="url(#clip430)" d="M2405.02 211.052 L2405.02 214.594 L2400.95 214.594 Q2398.66 214.594 2397.75 215.52 Q2396.87 216.445 2396.87 218.853 L2396.87 221.145 L2403.89 221.145 L2403.89 224.455 L2396.87 224.455 L2396.87 247.07 L2392.59 247.07 L2392.59 224.455 L2388.52 224.455 L2388.52 221.145 L2392.59 221.145 L2392.59 219.339 Q2392.59 215.01 2394.61 213.043 Q2396.62 211.052 2400.99 211.052 L2405.02 211.052 Z" fill="#000000" fill-rule="nonzero" fill-opacity="1"></path><path clip-path="url(#clip430)" d="M2418.63 224.131 Q2415.21 224.131 2413.22 226.816 Q2411.23 229.478 2411.23 234.131 Q2411.23 238.783 2413.19 241.468 Q2415.18 244.13 2418.63 244.13 Q2422.04 244.13 2424.03 241.445 Q2426.02 238.76 2426.02 234.131 Q2426.02 229.524 2424.03 226.839 Q2422.04 224.131 2418.63 224.131 M2418.63 220.52 Q2424.19 220.52 2427.36 224.131 Q2430.53 227.742 2430.53 234.131 Q2430.53 240.496 2427.36 244.13 Q2424.19 247.742 2418.63 247.742 Q2413.05 247.742 2409.88 244.13 Q2406.73 240.496 2406.73 234.131 Q2406.73 227.742 2409.88 224.131 Q2413.05 220.52 2418.63 220.52 Z" fill="#000000" fill-rule="nonzero" fill-opacity="1"></path><path clip-path="url(#clip430)" d="M2452.61 225.126 Q2451.9 224.709 2451.04 224.524 Q2450.21 224.316 2449.19 224.316 Q2445.58 224.316 2443.63 226.677 Q2441.71 229.015 2441.71 233.413 L2441.71 247.07 L2437.43 247.07 L2437.43 221.145 L2441.71 221.145 L2441.71 225.172 Q2443.05 222.811 2445.21 221.677 Q2447.36 220.52 2450.44 220.52 Q2450.88 220.52 2451.41 220.589 Q2451.94 220.635 2452.59 220.751 L2452.61 225.126 Z" fill="#000000" fill-rule="nonzero" fill-opacity="1"></path><path clip-path="url(#clip430)" d="M2478.22 233.043 L2478.22 235.126 L2458.63 235.126 Q2458.91 239.524 2461.27 241.839 Q2463.66 244.13 2467.89 244.13 Q2470.35 244.13 2472.64 243.529 Q2474.95 242.927 2477.22 241.723 L2477.22 245.751 Q2474.93 246.723 2472.52 247.232 Q2470.11 247.742 2467.64 247.742 Q2461.43 247.742 2457.8 244.13 Q2454.19 240.519 2454.19 234.362 Q2454.19 227.996 2457.61 224.269 Q2461.06 220.52 2466.9 220.52 Q2472.13 220.52 2475.16 223.899 Q2478.22 227.256 2478.22 233.043 M2473.96 231.793 Q2473.91 228.297 2471.99 226.214 Q2470.09 224.131 2466.94 224.131 Q2463.38 224.131 2461.23 226.144 Q2459.1 228.158 2458.77 231.816 L2473.96 231.793 Z" fill="#000000" fill-rule="nonzero" fill-opacity="1"></path><path clip-path="url(#clip430)" d="M2526.34 215.172 L2526.34 220.103 Q2523.98 217.904 2521.29 216.816 Q2518.63 215.728 2515.62 215.728 Q2509.7 215.728 2506.55 219.362 Q2503.4 222.973 2503.4 229.825 Q2503.4 236.654 2506.55 240.288 Q2509.7 243.899 2515.62 243.899 Q2518.63 243.899 2521.29 242.811 Q2523.98 241.723 2526.34 239.524 L2526.34 244.408 Q2523.89 246.075 2521.13 246.908 Q2518.4 247.742 2515.35 247.742 Q2507.5 247.742 2502.98 242.95 Q2498.47 238.135 2498.47 229.825 Q2498.47 221.492 2502.98 216.7 Q2507.5 211.885 2515.35 211.885 Q2518.45 211.885 2521.18 212.719 Q2523.93 213.529 2526.34 215.172 Z" fill="#000000" fill-rule="nonzero" fill-opacity="1"></path><path clip-path="url(#clip430)" d="M2543.42 224.131 Q2540 224.131 2538.01 226.816 Q2536.02 229.478 2536.02 234.131 Q2536.02 238.783 2537.98 241.468 Q2539.97 244.13 2543.42 244.13 Q2546.83 244.13 2548.82 241.445 Q2550.81 238.76 2550.81 234.131 Q2550.81 229.524 2548.82 226.839 Q2546.83 224.131 2543.42 224.131 M2543.42 220.52 Q2548.98 220.52 2552.15 224.131 Q2555.32 227.742 2555.32 234.131 Q2555.32 240.496 2552.15 244.13 Q2548.98 247.742 2543.42 247.742 Q2537.85 247.742 2534.67 244.13 Q2531.53 240.496 2531.53 234.131 Q2531.53 227.742 2534.67 224.131 Q2537.85 220.52 2543.42 220.52 Z" fill="#000000" fill-rule="nonzero" fill-opacity="1"></path><path clip-path="url(#clip430)" d="M2582.57 226.121 Q2584.16 223.251 2586.39 221.885 Q2588.61 220.52 2591.62 220.52 Q2595.67 220.52 2597.87 223.367 Q2600.07 226.191 2600.07 231.422 L2600.07 247.07 L2595.78 247.07 L2595.78 231.561 Q2595.78 227.834 2594.47 226.029 Q2593.15 224.223 2590.44 224.223 Q2587.13 224.223 2585.21 226.422 Q2583.28 228.621 2583.28 232.418 L2583.28 247.07 L2579 247.07 L2579 231.561 Q2579 227.811 2577.68 226.029 Q2576.36 224.223 2573.61 224.223 Q2570.35 224.223 2568.42 226.445 Q2566.5 228.644 2566.5 232.418 L2566.5 247.07 L2562.22 247.07 L2562.22 221.145 L2566.5 221.145 L2566.5 225.172 Q2567.96 222.788 2570 221.654 Q2572.03 220.52 2574.84 220.52 Q2577.66 220.52 2579.63 221.955 Q2581.62 223.39 2582.57 226.121 Z" fill="#000000" fill-rule="nonzero" fill-opacity="1"></path><path clip-path="url(#clip430)" d="M2612.68 243.181 L2612.68 256.931 L2608.4 256.931 L2608.4 221.145 L2612.68 221.145 L2612.68 225.08 Q2614.03 222.765 2616.06 221.654 Q2618.12 220.52 2620.97 220.52 Q2625.69 220.52 2628.63 224.269 Q2631.59 228.019 2631.59 234.131 Q2631.59 240.242 2628.63 243.992 Q2625.69 247.742 2620.97 247.742 Q2618.12 247.742 2616.06 246.63 Q2614.03 245.496 2612.68 243.181 M2627.17 234.131 Q2627.17 229.431 2625.23 226.769 Q2623.31 224.084 2619.93 224.084 Q2616.55 224.084 2614.6 226.769 Q2612.68 229.431 2612.68 234.131 Q2612.68 238.83 2614.6 241.515 Q2616.55 244.177 2619.93 244.177 Q2623.31 244.177 2625.23 241.515 Q2627.17 238.83 2627.17 234.131 Z" fill="#000000" fill-rule="nonzero" fill-opacity="1"></path><path clip-path="url(#clip430)" d="M2660.83 233.043 L2660.83 235.126 L2641.25 235.126 Q2641.53 239.524 2643.89 241.839 Q2646.27 244.13 2650.51 244.13 Q2652.96 244.13 2655.25 243.529 Q2657.57 242.927 2659.84 241.723 L2659.84 245.751 Q2657.54 246.723 2655.14 247.232 Q2652.73 247.742 2650.25 247.742 Q2644.05 247.742 2640.41 244.13 Q2636.8 240.519 2636.8 234.362 Q2636.8 227.996 2640.23 224.269 Q2643.68 220.52 2649.51 220.52 Q2654.74 220.52 2657.78 223.899 Q2660.83 227.256 2660.83 233.043 M2656.57 231.793 Q2656.53 228.297 2654.6 226.214 Q2652.71 224.131 2649.56 224.131 Q2645.99 224.131 2643.84 226.144 Q2641.71 228.158 2641.39 231.816 L2656.57 231.793 Z" fill="#000000" fill-rule="nonzero" fill-opacity="1"></path><path clip-path="url(#clip430)" d="M2689.37 231.422 L2689.37 247.07 L2685.11 247.07 L2685.11 231.561 Q2685.11 227.881 2683.68 226.052 Q2682.24 224.223 2679.37 224.223 Q2675.92 224.223 2673.93 226.422 Q2671.94 228.621 2671.94 232.418 L2671.94 247.07 L2667.66 247.07 L2667.66 221.145 L2671.94 221.145 L2671.94 225.172 Q2673.47 222.834 2675.53 221.677 Q2677.61 220.52 2680.32 220.52 Q2684.79 220.52 2687.08 223.297 Q2689.37 226.052 2689.37 231.422 Z" fill="#000000" fill-rule="nonzero" fill-opacity="1"></path><path clip-path="url(#clip430)" d="M2714.4 221.908 L2714.4 225.936 Q2712.59 225.01 2710.65 224.547 Q2708.7 224.084 2706.62 224.084 Q2703.45 224.084 2701.85 225.057 Q2700.27 226.029 2700.27 227.973 Q2700.27 229.455 2701.41 230.311 Q2702.54 231.144 2705.97 231.908 L2707.43 232.232 Q2711.96 233.205 2713.86 234.987 Q2715.78 236.746 2715.78 239.918 Q2715.78 243.529 2712.91 245.635 Q2710.07 247.742 2705.07 247.742 Q2702.98 247.742 2700.71 247.325 Q2698.47 246.931 2695.97 246.121 L2695.97 241.723 Q2698.33 242.95 2700.62 243.575 Q2702.91 244.177 2705.16 244.177 Q2708.17 244.177 2709.79 243.158 Q2711.41 242.117 2711.41 240.242 Q2711.41 238.506 2710.23 237.58 Q2709.07 236.654 2705.11 235.797 L2703.63 235.45 Q2699.67 234.617 2697.91 232.904 Q2696.15 231.168 2696.15 228.158 Q2696.15 224.501 2698.75 222.51 Q2701.34 220.52 2706.11 220.52 Q2708.47 220.52 2710.55 220.867 Q2712.64 221.214 2714.4 221.908 Z" fill="#000000" fill-rule="nonzero" fill-opacity="1"></path><path clip-path="url(#clip430)" d="M2734.35 234.038 Q2729.19 234.038 2727.2 235.219 Q2725.21 236.399 2725.21 239.246 Q2725.21 241.515 2726.69 242.857 Q2728.19 244.177 2730.76 244.177 Q2734.3 244.177 2736.43 241.677 Q2738.58 239.154 2738.58 234.987 L2738.58 234.038 L2734.35 234.038 M2742.84 232.279 L2742.84 247.07 L2738.58 247.07 L2738.58 243.135 Q2737.13 245.496 2734.95 246.63 Q2732.77 247.742 2729.63 247.742 Q2725.65 247.742 2723.28 245.519 Q2720.95 243.274 2720.95 239.524 Q2720.95 235.149 2723.86 232.927 Q2726.8 230.705 2732.61 230.705 L2738.58 230.705 L2738.58 230.288 Q2738.58 227.348 2736.64 225.751 Q2734.72 224.131 2731.22 224.131 Q2729 224.131 2726.9 224.663 Q2724.79 225.195 2722.84 226.26 L2722.84 222.325 Q2725.18 221.422 2727.38 220.982 Q2729.58 220.52 2731.66 220.52 Q2737.29 220.52 2740.07 223.436 Q2742.84 226.353 2742.84 232.279 Z" fill="#000000" fill-rule="nonzero" fill-opacity="1"></path><path clip-path="url(#clip430)" d="M2755.83 213.783 L2755.83 221.145 L2764.6 221.145 L2764.6 224.455 L2755.83 224.455 L2755.83 238.529 Q2755.83 241.7 2756.69 242.603 Q2757.57 243.505 2760.23 243.505 L2764.6 243.505 L2764.6 247.07 L2760.23 247.07 Q2755.3 247.07 2753.42 245.242 Q2751.55 243.39 2751.55 238.529 L2751.55 224.455 L2748.42 224.455 L2748.42 221.145 L2751.55 221.145 L2751.55 213.783 L2755.83 213.783 Z" fill="#000000" fill-rule="nonzero" fill-opacity="1"></path><path clip-path="url(#clip430)" d="M2770.21 221.145 L2774.46 221.145 L2774.46 247.07 L2770.21 247.07 L2770.21 221.145 M2770.21 211.052 L2774.46 211.052 L2774.46 216.445 L2770.21 216.445 L2770.21 211.052 Z" fill="#000000" fill-rule="nonzero" fill-opacity="1"></path><path clip-path="url(#clip430)" d="M2793.42 224.131 Q2790 224.131 2788.01 226.816 Q2786.02 229.478 2786.02 234.131 Q2786.02 238.783 2787.98 241.468 Q2789.97 244.13 2793.42 244.13 Q2796.83 244.13 2798.82 241.445 Q2800.81 238.76 2800.81 234.131 Q2800.81 229.524 2798.82 226.839 Q2796.83 224.131 2793.42 224.131 M2793.42 220.52 Q2798.98 220.52 2802.15 224.131 Q2805.32 227.742 2805.32 234.131 Q2805.32 240.496 2802.15 244.13 Q2798.98 247.742 2793.42 247.742 Q2787.84 247.742 2784.67 244.13 Q2781.52 240.496 2781.52 234.131 Q2781.52 227.742 2784.67 224.131 Q2787.84 220.52 2793.42 220.52 Z" fill="#000000" fill-rule="nonzero" fill-opacity="1"></path><path clip-path="url(#clip430)" d="M2833.93 231.422 L2833.93 247.07 L2829.67 247.07 L2829.67 231.561 Q2829.67 227.881 2828.24 226.052 Q2826.8 224.223 2823.93 224.223 Q2820.48 224.223 2818.49 226.422 Q2816.5 228.621 2816.5 232.418 L2816.5 247.07 L2812.22 247.07 L2812.22 221.145 L2816.5 221.145 L2816.5 225.172 Q2818.03 222.834 2820.09 221.677 Q2822.17 220.52 2824.88 220.52 Q2829.35 220.52 2831.64 223.297 Q2833.93 226.052 2833.93 231.422 Z" fill="#000000" fill-rule="nonzero" fill-opacity="1"></path><polyline clip-path="url(#clip430)" style="stroke:#ff0000; stroke-linecap:round; stroke-linejoin:round; stroke-width:4; stroke-opacity:1; fill:none" stroke-dasharray="16, 10" points="2122.45,281.63 2300.69,281.63 "></polyline>
<path clip-path="url(#clip430)" d="M2188.81 258.875 L2188.81 304.386 L2234.32 304.386 L2234.32 258.875 L2188.81 258.875 Z" fill="#ff0000" fill-rule="evenodd" fill-opacity="1" stroke="#000000" stroke-opacity="1" stroke-width="5.68889"></path>
<path clip-path="url(#clip430)" d="M2346.23 268.957 L2339.88 286.156 L2352.59 286.156 L2346.23 268.957 M2343.59 264.35 L2348.89 264.35 L2362.06 298.91 L2357.2 298.91 L2354.05 290.045 L2338.47 290.045 L2335.32 298.91 L2330.39 298.91 L2343.59 264.35 Z" fill="#000000" fill-rule="nonzero" fill-opacity="1"></path><path clip-path="url(#clip430)" d="M2378.36 262.892 L2378.36 266.434 L2374.28 266.434 Q2371.99 266.434 2371.09 267.36 Q2370.21 268.285 2370.21 270.693 L2370.21 272.985 L2377.22 272.985 L2377.22 276.295 L2370.21 276.295 L2370.21 298.91 L2365.92 298.91 L2365.92 276.295 L2361.85 276.295 L2361.85 272.985 L2365.92 272.985 L2365.92 271.179 Q2365.92 266.85 2367.94 264.883 Q2369.95 262.892 2374.33 262.892 L2378.36 262.892 Z" fill="#000000" fill-rule="nonzero" fill-opacity="1"></path><path clip-path="url(#clip430)" d="M2385.3 265.623 L2385.3 272.985 L2394.07 272.985 L2394.07 276.295 L2385.3 276.295 L2385.3 290.369 Q2385.3 293.54 2386.16 294.443 Q2387.04 295.345 2389.7 295.345 L2394.07 295.345 L2394.07 298.91 L2389.7 298.91 Q2384.77 298.91 2382.89 297.082 Q2381.02 295.23 2381.02 290.369 L2381.02 276.295 L2377.89 276.295 L2377.89 272.985 L2381.02 272.985 L2381.02 265.623 L2385.3 265.623 Z" fill="#000000" fill-rule="nonzero" fill-opacity="1"></path><path clip-path="url(#clip430)" d="M2421.85 284.883 L2421.85 286.966 L2402.27 286.966 Q2402.55 291.364 2404.91 293.679 Q2407.29 295.97 2411.53 295.97 Q2413.98 295.97 2416.27 295.369 Q2418.59 294.767 2420.86 293.563 L2420.86 297.591 Q2418.56 298.563 2416.16 299.072 Q2413.75 299.582 2411.27 299.582 Q2405.07 299.582 2401.43 295.97 Q2397.82 292.359 2397.82 286.202 Q2397.82 279.836 2401.25 276.109 Q2404.7 272.36 2410.53 272.36 Q2415.76 272.36 2418.79 275.739 Q2421.85 279.096 2421.85 284.883 M2417.59 283.633 Q2417.54 280.137 2415.62 278.054 Q2413.73 275.971 2410.58 275.971 Q2407.01 275.971 2404.86 277.984 Q2402.73 279.998 2402.41 283.656 L2417.59 283.633 Z" fill="#000000" fill-rule="nonzero" fill-opacity="1"></path><path clip-path="url(#clip430)" d="M2443.86 276.966 Q2443.15 276.549 2442.29 276.364 Q2441.46 276.156 2440.44 276.156 Q2436.83 276.156 2434.88 278.517 Q2432.96 280.855 2432.96 285.253 L2432.96 298.91 L2428.68 298.91 L2428.68 272.985 L2432.96 272.985 L2432.96 277.012 Q2434.3 274.651 2436.46 273.517 Q2438.61 272.36 2441.69 272.36 Q2442.13 272.36 2442.66 272.429 Q2443.19 272.475 2443.84 272.591 L2443.86 276.966 Z" fill="#000000" fill-rule="nonzero" fill-opacity="1"></path><path clip-path="url(#clip430)" d="M2489.47 267.012 L2489.47 271.943 Q2487.1 269.744 2484.42 268.656 Q2481.76 267.568 2478.75 267.568 Q2472.82 267.568 2469.67 271.202 Q2466.53 274.813 2466.53 281.665 Q2466.53 288.494 2469.67 292.128 Q2472.82 295.739 2478.75 295.739 Q2481.76 295.739 2484.42 294.651 Q2487.1 293.563 2489.47 291.364 L2489.47 296.248 Q2487.01 297.915 2484.26 298.748 Q2481.53 299.582 2478.47 299.582 Q2470.62 299.582 2466.11 294.79 Q2461.6 289.975 2461.6 281.665 Q2461.6 273.332 2466.11 268.54 Q2470.62 263.725 2478.47 263.725 Q2481.57 263.725 2484.3 264.559 Q2487.06 265.369 2489.47 267.012 Z" fill="#000000" fill-rule="nonzero" fill-opacity="1"></path><path clip-path="url(#clip430)" d="M2506.55 275.971 Q2503.12 275.971 2501.13 278.656 Q2499.14 281.318 2499.14 285.971 Q2499.14 290.623 2501.11 293.308 Q2503.1 295.97 2506.55 295.97 Q2509.95 295.97 2511.94 293.285 Q2513.93 290.6 2513.93 285.971 Q2513.93 281.364 2511.94 278.679 Q2509.95 275.971 2506.55 275.971 M2506.55 272.36 Q2512.1 272.36 2515.28 275.971 Q2518.45 279.582 2518.45 285.971 Q2518.45 292.336 2515.28 295.97 Q2512.1 299.582 2506.55 299.582 Q2500.97 299.582 2497.8 295.97 Q2494.65 292.336 2494.65 285.971 Q2494.65 279.582 2497.8 275.971 Q2500.97 272.36 2506.55 272.36 Z" fill="#000000" fill-rule="nonzero" fill-opacity="1"></path><path clip-path="url(#clip430)" d="M2545.69 277.961 Q2547.29 275.091 2549.51 273.725 Q2551.73 272.36 2554.74 272.36 Q2558.79 272.36 2560.99 275.207 Q2563.19 278.031 2563.19 283.262 L2563.19 298.91 L2558.91 298.91 L2558.91 283.401 Q2558.91 279.674 2557.59 277.869 Q2556.27 276.063 2553.56 276.063 Q2550.25 276.063 2548.33 278.262 Q2546.41 280.461 2546.41 284.258 L2546.41 298.91 L2542.13 298.91 L2542.13 283.401 Q2542.13 279.651 2540.81 277.869 Q2539.49 276.063 2536.73 276.063 Q2533.47 276.063 2531.55 278.285 Q2529.63 280.484 2529.63 284.258 L2529.63 298.91 L2525.35 298.91 L2525.35 272.985 L2529.63 272.985 L2529.63 277.012 Q2531.09 274.628 2533.12 273.494 Q2535.16 272.36 2537.96 272.36 Q2540.79 272.36 2542.75 273.795 Q2544.74 275.23 2545.69 277.961 Z" fill="#000000" fill-rule="nonzero" fill-opacity="1"></path><path clip-path="url(#clip430)" d="M2575.81 295.021 L2575.81 308.771 L2571.53 308.771 L2571.53 272.985 L2575.81 272.985 L2575.81 276.92 Q2577.15 274.605 2579.19 273.494 Q2581.25 272.36 2584.09 272.36 Q2588.82 272.36 2591.76 276.109 Q2594.72 279.859 2594.72 285.971 Q2594.72 292.082 2591.76 295.832 Q2588.82 299.582 2584.09 299.582 Q2581.25 299.582 2579.19 298.47 Q2577.15 297.336 2575.81 295.021 M2590.3 285.971 Q2590.3 281.271 2588.35 278.609 Q2586.43 275.924 2583.05 275.924 Q2579.67 275.924 2577.73 278.609 Q2575.81 281.271 2575.81 285.971 Q2575.81 290.67 2577.73 293.355 Q2579.67 296.017 2583.05 296.017 Q2586.43 296.017 2588.35 293.355 Q2590.3 290.67 2590.3 285.971 Z" fill="#000000" fill-rule="nonzero" fill-opacity="1"></path><path clip-path="url(#clip430)" d="M2623.96 284.883 L2623.96 286.966 L2604.37 286.966 Q2604.65 291.364 2607.01 293.679 Q2609.4 295.97 2613.63 295.97 Q2616.09 295.97 2618.38 295.369 Q2620.69 294.767 2622.96 293.563 L2622.96 297.591 Q2620.67 298.563 2618.26 299.072 Q2615.85 299.582 2613.38 299.582 Q2607.17 299.582 2603.54 295.97 Q2599.93 292.359 2599.93 286.202 Q2599.93 279.836 2603.35 276.109 Q2606.8 272.36 2612.64 272.36 Q2617.87 272.36 2620.9 275.739 Q2623.96 279.096 2623.96 284.883 M2619.7 283.633 Q2619.65 280.137 2617.73 278.054 Q2615.83 275.971 2612.68 275.971 Q2609.12 275.971 2606.97 277.984 Q2604.84 279.998 2604.51 283.656 L2619.7 283.633 Z" fill="#000000" fill-rule="nonzero" fill-opacity="1"></path><path clip-path="url(#clip430)" d="M2652.5 283.262 L2652.5 298.91 L2648.24 298.91 L2648.24 283.401 Q2648.24 279.721 2646.8 277.892 Q2645.37 276.063 2642.5 276.063 Q2639.05 276.063 2637.06 278.262 Q2635.07 280.461 2635.07 284.258 L2635.07 298.91 L2630.78 298.91 L2630.78 272.985 L2635.07 272.985 L2635.07 277.012 Q2636.59 274.674 2638.65 273.517 Q2640.74 272.36 2643.45 272.36 Q2647.91 272.36 2650.21 275.137 Q2652.5 277.892 2652.5 283.262 Z" fill="#000000" fill-rule="nonzero" fill-opacity="1"></path><path clip-path="url(#clip430)" d="M2677.52 273.748 L2677.52 277.776 Q2675.71 276.85 2673.77 276.387 Q2671.83 275.924 2669.74 275.924 Q2666.57 275.924 2664.97 276.897 Q2663.4 277.869 2663.4 279.813 Q2663.4 281.295 2664.53 282.151 Q2665.67 282.984 2669.09 283.748 L2670.55 284.072 Q2675.09 285.045 2676.99 286.827 Q2678.91 288.586 2678.91 291.758 Q2678.91 295.369 2676.04 297.475 Q2673.19 299.582 2668.19 299.582 Q2666.11 299.582 2663.84 299.165 Q2661.59 298.771 2659.09 297.961 L2659.09 293.563 Q2661.46 294.79 2663.75 295.415 Q2666.04 296.017 2668.28 296.017 Q2671.29 296.017 2672.91 294.998 Q2674.53 293.957 2674.53 292.082 Q2674.53 290.346 2673.35 289.42 Q2672.2 288.494 2668.24 287.637 L2666.76 287.29 Q2662.8 286.457 2661.04 284.744 Q2659.28 283.008 2659.28 279.998 Q2659.28 276.341 2661.87 274.35 Q2664.46 272.36 2669.23 272.36 Q2671.59 272.36 2673.68 272.707 Q2675.76 273.054 2677.52 273.748 Z" fill="#000000" fill-rule="nonzero" fill-opacity="1"></path><path clip-path="url(#clip430)" d="M2697.47 285.878 Q2692.31 285.878 2690.32 287.059 Q2688.33 288.239 2688.33 291.086 Q2688.33 293.355 2689.81 294.697 Q2691.32 296.017 2693.89 296.017 Q2697.43 296.017 2699.56 293.517 Q2701.71 290.994 2701.71 286.827 L2701.71 285.878 L2697.47 285.878 M2705.97 284.119 L2705.97 298.91 L2701.71 298.91 L2701.71 294.975 Q2700.25 297.336 2698.08 298.47 Q2695.9 299.582 2692.75 299.582 Q2688.77 299.582 2686.41 297.359 Q2684.07 295.114 2684.07 291.364 Q2684.07 286.989 2686.99 284.767 Q2689.93 282.545 2695.74 282.545 L2701.71 282.545 L2701.71 282.128 Q2701.71 279.188 2699.77 277.591 Q2697.84 275.971 2694.35 275.971 Q2692.13 275.971 2690.02 276.503 Q2687.91 277.035 2685.97 278.1 L2685.97 274.165 Q2688.31 273.262 2690.51 272.822 Q2692.71 272.36 2694.79 272.36 Q2700.41 272.36 2703.19 275.276 Q2705.97 278.193 2705.97 284.119 Z" fill="#000000" fill-rule="nonzero" fill-opacity="1"></path><path clip-path="url(#clip430)" d="M2718.96 265.623 L2718.96 272.985 L2727.73 272.985 L2727.73 276.295 L2718.96 276.295 L2718.96 290.369 Q2718.96 293.54 2719.81 294.443 Q2720.69 295.345 2723.35 295.345 L2727.73 295.345 L2727.73 298.91 L2723.35 298.91 Q2718.42 298.91 2716.55 297.082 Q2714.67 295.23 2714.67 290.369 L2714.67 276.295 L2711.55 276.295 L2711.55 272.985 L2714.67 272.985 L2714.67 265.623 L2718.96 265.623 Z" fill="#000000" fill-rule="nonzero" fill-opacity="1"></path><path clip-path="url(#clip430)" d="M2733.33 272.985 L2737.59 272.985 L2737.59 298.91 L2733.33 298.91 L2733.33 272.985 M2733.33 262.892 L2737.59 262.892 L2737.59 268.285 L2733.33 268.285 L2733.33 262.892 Z" fill="#000000" fill-rule="nonzero" fill-opacity="1"></path><path clip-path="url(#clip430)" d="M2756.55 275.971 Q2753.12 275.971 2751.13 278.656 Q2749.14 281.318 2749.14 285.971 Q2749.14 290.623 2751.11 293.308 Q2753.1 295.97 2756.55 295.97 Q2759.95 295.97 2761.94 293.285 Q2763.93 290.6 2763.93 285.971 Q2763.93 281.364 2761.94 278.679 Q2759.95 275.971 2756.55 275.971 M2756.55 272.36 Q2762.1 272.36 2765.27 275.971 Q2768.45 279.582 2768.45 285.971 Q2768.45 292.336 2765.27 295.97 Q2762.1 299.582 2756.55 299.582 Q2750.97 299.582 2747.8 295.97 Q2744.65 292.336 2744.65 285.971 Q2744.65 279.582 2747.8 275.971 Q2750.97 272.36 2756.55 272.36 Z" fill="#000000" fill-rule="nonzero" fill-opacity="1"></path><path clip-path="url(#clip430)" d="M2797.06 283.262 L2797.06 298.91 L2792.8 298.91 L2792.8 283.401 Q2792.8 279.721 2791.36 277.892 Q2789.93 276.063 2787.06 276.063 Q2783.61 276.063 2781.62 278.262 Q2779.63 280.461 2779.63 284.258 L2779.63 298.91 L2775.34 298.91 L2775.34 272.985 L2779.63 272.985 L2779.63 277.012 Q2781.15 274.674 2783.21 273.517 Q2785.3 272.36 2788.01 272.36 Q2792.47 272.36 2794.77 275.137 Q2797.06 277.892 2797.06 283.262 Z" fill="#000000" fill-rule="nonzero" fill-opacity="1"></path></svg>