<svg xmlns="http://www.w3.org/2000/svg" xmlns:xlink="http://www.w3.org/1999/xlink" width="700" height="400" viewBox="0 0 2800 1600">
<defs>
  <clipPath id="clip350">
    <rect x="0" y="0" width="2800" height="1600"></rect>
  </clipPath>
</defs>
<path clip-path="url(#clip350)" d="M0 1600 L2800 1600 L2800 8.88178e-14 L0 8.88178e-14  Z" fill="#ffffff" fill-rule="evenodd" fill-opacity="1"></path>
<defs>
  <clipPath id="clip351">
    <rect x="560" y="0" width="1961" height="1600"></rect>
  </clipPath>
</defs>
<path clip-path="url(#clip350)" d="M254.085 1382.31 L2752.76 1382.31 L2752.76 114.832 L254.085 114.832  Z" fill="#ffffff" fill-rule="evenodd" fill-opacity="1"></path>
<defs>
  <clipPath id="clip352">
    <rect x="254" y="114" width="2500" height="1268"></rect>
  </clipPath>
</defs>
<polyline clip-path="url(#clip352)" style="stroke:#000000; stroke-linecap:round; stroke-linejoin:round; stroke-width:2; stroke-opacity:0.1; fill:none" points="324.802,1382.31 324.802,114.832 "></polyline>
<polyline clip-path="url(#clip352)" style="stroke:#000000; stroke-linecap:round; stroke-linejoin:round; stroke-width:2; stroke-opacity:0.1; fill:none" points="796.25,1382.31 796.25,114.832 "></polyline>
<polyline clip-path="url(#clip352)" style="stroke:#000000; stroke-linecap:round; stroke-linejoin:round; stroke-width:2; stroke-opacity:0.1; fill:none" points="1267.7,1382.31 1267.7,114.832 "></polyline>
<polyline clip-path="url(#clip352)" style="stroke:#000000; stroke-linecap:round; stroke-linejoin:round; stroke-width:2; stroke-opacity:0.1; fill:none" points="1739.14,1382.31 1739.14,114.832 "></polyline>
<polyline clip-path="url(#clip352)" style="stroke:#000000; stroke-linecap:round; stroke-linejoin:round; stroke-width:2; stroke-opacity:0.1; fill:none" points="2210.59,1382.31 2210.59,114.832 "></polyline>
<polyline clip-path="url(#clip352)" style="stroke:#000000; stroke-linecap:round; stroke-linejoin:round; stroke-width:2; stroke-opacity:0.1; fill:none" points="2682.04,1382.31 2682.04,114.832 "></polyline>
<polyline clip-path="url(#clip352)" style="stroke:#000000; stroke-linecap:round; stroke-linejoin:round; stroke-width:2; stroke-opacity:0.1; fill:none" points="254.085,1377.22 2752.76,1377.22 "></polyline>
<polyline clip-path="url(#clip352)" style="stroke:#000000; stroke-linecap:round; stroke-linejoin:round; stroke-width:2; stroke-opacity:0.1; fill:none" points="254.085,1189.29 2752.76,1189.29 "></polyline>
<polyline clip-path="url(#clip352)" style="stroke:#000000; stroke-linecap:round; stroke-linejoin:round; stroke-width:2; stroke-opacity:0.1; fill:none" points="254.085,1001.36 2752.76,1001.36 "></polyline>
<polyline clip-path="url(#clip352)" style="stroke:#000000; stroke-linecap:round; stroke-linejoin:round; stroke-width:2; stroke-opacity:0.1; fill:none" points="254.085,813.422 2752.76,813.422 "></polyline>
<polyline clip-path="url(#clip352)" style="stroke:#000000; stroke-linecap:round; stroke-linejoin:round; stroke-width:2; stroke-opacity:0.1; fill:none" points="254.085,625.489 2752.76,625.489 "></polyline>
<polyline clip-path="url(#clip352)" style="stroke:#000000; stroke-linecap:round; stroke-linejoin:round; stroke-width:2; stroke-opacity:0.1; fill:none" points="254.085,437.556 2752.76,437.556 "></polyline>
<polyline clip-path="url(#clip352)" style="stroke:#000000; stroke-linecap:round; stroke-linejoin:round; stroke-width:2; stroke-opacity:0.1; fill:none" points="254.085,249.623 2752.76,249.623 "></polyline>
<polyline clip-path="url(#clip350)" style="stroke:#000000; stroke-linecap:round; stroke-linejoin:round; stroke-width:4; stroke-opacity:1; fill:none" points="254.085,1382.31 2752.76,1382.31 "></polyline>
<polyline clip-path="url(#clip350)" style="stroke:#000000; stroke-linecap:round; stroke-linejoin:round; stroke-width:4; stroke-opacity:1; fill:none" points="324.802,1382.31 324.802,1363.41 "></polyline>
<polyline clip-path="url(#clip350)" style="stroke:#000000; stroke-linecap:round; stroke-linejoin:round; stroke-width:4; stroke-opacity:1; fill:none" points="796.25,1382.31 796.25,1363.41 "></polyline>
<polyline clip-path="url(#clip350)" style="stroke:#000000; stroke-linecap:round; stroke-linejoin:round; stroke-width:4; stroke-opacity:1; fill:none" points="1267.7,1382.31 1267.7,1363.41 "></polyline>
<polyline clip-path="url(#clip350)" style="stroke:#000000; stroke-linecap:round; stroke-linejoin:round; stroke-width:4; stroke-opacity:1; fill:none" points="1739.14,1382.31 1739.14,1363.41 "></polyline>
<polyline clip-path="url(#clip350)" style="stroke:#000000; stroke-linecap:round; stroke-linejoin:round; stroke-width:4; stroke-opacity:1; fill:none" points="2210.59,1382.31 2210.59,1363.41 "></polyline>
<polyline clip-path="url(#clip350)" style="stroke:#000000; stroke-linecap:round; stroke-linejoin:round; stroke-width:4; stroke-opacity:1; fill:none" points="2682.04,1382.31 2682.04,1363.41 "></polyline>
<path clip-path="url(#clip350)" d="M206.567 1516.83 L209.874 1513.53 L231.529 1535.18 L243.428 1523.28 L246.211 1526.07 L231.005 1541.27 L206.567 1516.83 Z" fill="#000000" fill-rule="nonzero" fill-opacity="1"></path><path clip-path="url(#clip350)" d="M239.844 1499.99 Q237.421 1502.41 237.912 1505.72 Q238.387 1509.01 241.677 1512.3 Q244.967 1515.59 248.257 1516.1 Q251.547 1516.57 253.986 1514.13 Q256.392 1511.73 255.901 1508.42 Q255.41 1505.12 252.136 1501.84 Q248.879 1498.58 245.573 1498.09 Q242.25 1497.59 239.844 1499.99 M237.29 1497.44 Q241.219 1493.51 246.014 1493.82 Q250.81 1494.13 255.328 1498.65 Q259.829 1503.15 260.157 1507.96 Q260.468 1512.76 256.539 1516.69 Q252.594 1520.63 247.799 1520.32 Q243.003 1519.98 238.502 1515.48 Q233.984 1510.96 233.657 1506.18 Q233.346 1501.38 237.29 1497.44 Z" fill="#000000" fill-rule="nonzero" fill-opacity="1"></path><path clip-path="url(#clip350)" d="M268.586 1485.26 Q264.936 1488.91 264.363 1491.15 Q263.79 1493.4 265.804 1495.41 Q267.408 1497.01 269.405 1496.91 Q271.401 1496.78 273.218 1494.97 Q275.723 1492.46 275.461 1489.19 Q275.199 1485.88 272.253 1482.94 L271.581 1482.27 L268.586 1485.26 M273.349 1478.01 L283.808 1488.47 L280.797 1491.48 L278.014 1488.7 Q278.653 1491.4 277.916 1493.74 Q277.163 1496.06 274.937 1498.29 Q272.122 1501.1 268.881 1501.2 Q265.64 1501.27 262.988 1498.62 Q259.895 1495.52 260.386 1491.89 Q260.893 1488.24 265.002 1484.13 L269.224 1479.91 L268.93 1479.61 Q266.851 1477.53 264.347 1477.78 Q261.842 1477.99 259.371 1480.46 Q257.8 1482.04 256.687 1483.9 Q255.573 1485.77 254.951 1487.9 L252.169 1485.11 Q253.184 1482.82 254.428 1480.96 Q255.655 1479.07 257.128 1477.6 Q261.106 1473.62 265.132 1473.72 Q269.159 1473.82 273.349 1478.01 Z" fill="#000000" fill-rule="nonzero" fill-opacity="1"></path><path clip-path="url(#clip350)" d="M286.526 1454.65 L276.607 1444.73 L279.618 1441.72 L305.087 1467.19 L302.075 1470.2 L299.325 1467.45 Q300.013 1470.04 299.358 1472.3 Q298.703 1474.52 296.674 1476.55 Q293.351 1479.88 288.604 1479.32 Q283.874 1478.75 279.553 1474.42 Q275.232 1470.1 274.659 1465.37 Q274.102 1460.63 277.425 1457.3 Q279.455 1455.27 281.697 1454.64 Q283.939 1453.96 286.526 1454.65 M282.663 1471.31 Q285.985 1474.64 289.243 1475.18 Q292.5 1475.69 294.89 1473.3 Q297.279 1470.91 296.772 1467.65 Q296.248 1464.37 292.926 1461.05 Q289.603 1457.73 286.346 1457.22 Q283.072 1456.7 280.682 1459.09 Q278.292 1461.48 278.816 1464.75 Q279.34 1467.99 282.663 1471.31 Z" fill="#000000" fill-rule="nonzero" fill-opacity="1"></path><path clip-path="url(#clip350)" d="M307.559 1456.4 L311.012 1452.95 L315.17 1457.11 L311.716 1460.56 L307.559 1456.4 Z" fill="#000000" fill-rule="nonzero" fill-opacity="1"></path><path clip-path="url(#clip350)" d="M320.162 1446.55 L325.564 1441.15 L306.92 1422.51 L302.223 1429.56 L299.211 1426.55 L303.876 1419.53 L307.182 1416.22 L328.837 1437.87 L334.239 1432.47 L337.021 1435.26 L322.945 1449.33 L320.162 1446.55 Z" fill="#000000" fill-rule="nonzero" fill-opacity="1"></path><path clip-path="url(#clip350)" d="M678.276 1516.57 L681.583 1513.27 L703.238 1534.92 L715.137 1523.02 L717.92 1525.8 L702.714 1541.01 L678.276 1516.57 Z" fill="#000000" fill-rule="nonzero" fill-opacity="1"></path><path clip-path="url(#clip350)" d="M711.553 1499.73 Q709.13 1502.15 709.621 1505.46 Q710.096 1508.75 713.386 1512.04 Q716.676 1515.33 719.966 1515.84 Q723.256 1516.31 725.695 1513.87 Q728.101 1511.47 727.61 1508.16 Q727.119 1504.85 723.845 1501.58 Q720.588 1498.32 717.282 1497.83 Q713.959 1497.32 711.553 1499.73 M708.999 1497.18 Q712.928 1493.25 717.724 1493.56 Q722.52 1493.87 727.037 1498.39 Q731.538 1502.89 731.866 1507.7 Q732.177 1512.5 728.248 1516.43 Q724.304 1520.37 719.508 1520.06 Q714.712 1519.72 710.211 1515.21 Q705.693 1510.7 705.366 1505.92 Q705.055 1501.12 708.999 1497.18 Z" fill="#000000" fill-rule="nonzero" fill-opacity="1"></path><path clip-path="url(#clip350)" d="M740.295 1485 Q736.645 1488.65 736.072 1490.89 Q735.499 1493.13 737.513 1495.15 Q739.117 1496.75 741.114 1496.65 Q743.111 1496.52 744.927 1494.71 Q747.432 1492.2 747.17 1488.93 Q746.908 1485.62 743.962 1482.67 L743.291 1482 L740.295 1485 M745.058 1477.75 L755.518 1488.21 L752.506 1491.22 L749.723 1488.44 Q750.362 1491.14 749.625 1493.48 Q748.872 1495.8 746.646 1498.03 Q743.831 1500.84 740.59 1500.94 Q737.349 1501.01 734.697 1498.36 Q731.604 1495.26 732.095 1491.63 Q732.602 1487.98 736.711 1483.87 L740.934 1479.65 L740.639 1479.35 Q738.56 1477.27 736.056 1477.52 Q733.552 1477.73 731.08 1480.2 Q729.509 1481.77 728.396 1483.64 Q727.283 1485.51 726.661 1487.63 L723.878 1484.85 Q724.893 1482.56 726.137 1480.69 Q727.364 1478.81 728.838 1477.34 Q732.815 1473.36 736.842 1473.46 Q740.868 1473.56 745.058 1477.75 Z" fill="#000000" fill-rule="nonzero" fill-opacity="1"></path><path clip-path="url(#clip350)" d="M758.235 1454.39 L748.316 1444.47 L751.327 1441.46 L776.796 1466.93 L773.784 1469.94 L771.035 1467.19 Q771.722 1469.78 771.067 1472.04 Q770.413 1474.26 768.383 1476.29 Q765.06 1479.61 760.314 1479.06 Q755.583 1478.48 751.262 1474.16 Q746.941 1469.84 746.368 1465.11 Q745.811 1460.36 749.134 1457.04 Q751.164 1455.01 753.406 1454.37 Q755.649 1453.7 758.235 1454.39 M754.372 1471.05 Q757.695 1474.38 760.952 1474.92 Q764.209 1475.42 766.599 1473.03 Q768.989 1470.64 768.481 1467.39 Q767.957 1464.11 764.635 1460.79 Q761.312 1457.47 758.055 1456.96 Q754.781 1456.44 752.391 1458.83 Q750.002 1461.22 750.525 1464.49 Q751.049 1467.73 754.372 1471.05 Z" fill="#000000" fill-rule="nonzero" fill-opacity="1"></path><path clip-path="url(#clip350)" d="M779.268 1456.14 L782.721 1452.69 L786.879 1456.85 L783.425 1460.3 L779.268 1456.14 Z" fill="#000000" fill-rule="nonzero" fill-opacity="1"></path><path clip-path="url(#clip350)" d="M794.146 1444.01 L805.686 1432.47 L808.469 1435.26 L792.952 1450.77 L790.169 1447.99 Q790.103 1444.16 790.071 1437.65 Q790.038 1431.1 789.923 1429.31 Q789.727 1425.94 789.121 1424.09 Q788.516 1422.21 787.321 1421.02 Q785.373 1419.07 782.771 1419.22 Q780.184 1419.35 777.991 1421.54 Q776.436 1423.09 775.241 1425.37 Q774.063 1427.63 773.195 1430.69 L769.856 1427.35 Q771.051 1424.55 772.377 1422.41 Q773.703 1420.26 775.143 1418.82 Q778.94 1415.02 783.098 1414.66 Q787.255 1414.3 790.431 1417.48 Q791.937 1418.99 792.722 1420.92 Q793.508 1422.82 793.852 1426.14 Q793.917 1427.02 793.999 1431.49 Q794.065 1435.94 794.146 1444.01 Z" fill="#000000" fill-rule="nonzero" fill-opacity="1"></path><path clip-path="url(#clip350)" d="M1149.05 1517.24 L1152.36 1513.94 L1174.01 1535.59 L1185.91 1523.69 L1188.7 1526.48 L1173.49 1541.68 L1149.05 1517.24 Z" fill="#000000" fill-rule="nonzero" fill-opacity="1"></path><path clip-path="url(#clip350)" d="M1182.33 1500.4 Q1179.91 1502.82 1180.4 1506.13 Q1180.87 1509.42 1184.16 1512.71 Q1187.45 1516 1190.74 1516.51 Q1194.03 1516.98 1196.47 1514.54 Q1198.88 1512.14 1198.39 1508.83 Q1197.9 1505.52 1194.62 1502.25 Q1191.36 1498.99 1188.06 1498.5 Q1184.74 1498 1182.33 1500.4 M1179.78 1497.85 Q1183.7 1493.92 1188.5 1494.23 Q1193.3 1494.54 1197.81 1499.06 Q1202.31 1503.56 1202.64 1508.37 Q1202.95 1513.17 1199.02 1517.1 Q1195.08 1521.04 1190.28 1520.73 Q1185.49 1520.39 1180.99 1515.89 Q1176.47 1511.37 1176.14 1506.59 Q1175.83 1501.79 1179.78 1497.85 Z" fill="#000000" fill-rule="nonzero" fill-opacity="1"></path><path clip-path="url(#clip350)" d="M1211.07 1485.67 Q1207.42 1489.32 1206.85 1491.56 Q1206.28 1493.8 1208.29 1495.82 Q1209.89 1497.42 1211.89 1497.32 Q1213.89 1497.19 1215.7 1495.38 Q1218.21 1492.87 1217.95 1489.6 Q1217.68 1486.29 1214.74 1483.35 L1214.07 1482.67 L1211.07 1485.67 M1215.83 1478.42 L1226.29 1488.88 L1223.28 1491.89 L1220.5 1489.11 Q1221.14 1491.81 1220.4 1494.15 Q1219.65 1496.47 1217.42 1498.7 Q1214.61 1501.51 1211.37 1501.61 Q1208.13 1501.68 1205.47 1499.03 Q1202.38 1495.93 1202.87 1492.3 Q1203.38 1488.65 1207.49 1484.54 L1211.71 1480.32 L1211.42 1480.02 Q1209.34 1477.94 1206.83 1478.19 Q1204.33 1478.4 1201.86 1480.87 Q1200.28 1482.45 1199.17 1484.31 Q1198.06 1486.18 1197.44 1488.31 L1194.65 1485.52 Q1195.67 1483.23 1196.91 1481.37 Q1198.14 1479.48 1199.61 1478.01 Q1203.59 1474.03 1207.62 1474.13 Q1211.64 1474.23 1215.83 1478.42 Z" fill="#000000" fill-rule="nonzero" fill-opacity="1"></path><path clip-path="url(#clip350)" d="M1229.01 1455.06 L1219.09 1445.14 L1222.1 1442.13 L1247.57 1467.6 L1244.56 1470.61 L1241.81 1467.86 Q1242.5 1470.45 1241.84 1472.71 Q1241.19 1474.93 1239.16 1476.96 Q1235.84 1480.28 1231.09 1479.73 Q1226.36 1479.16 1222.04 1474.83 Q1217.72 1470.51 1217.14 1465.78 Q1216.59 1461.04 1219.91 1457.71 Q1221.94 1455.68 1224.18 1455.05 Q1226.42 1454.37 1229.01 1455.06 M1225.15 1471.72 Q1228.47 1475.05 1231.73 1475.59 Q1234.99 1476.09 1237.38 1473.7 Q1239.76 1471.31 1239.26 1468.06 Q1238.73 1464.78 1235.41 1461.46 Q1232.09 1458.14 1228.83 1457.63 Q1225.56 1457.11 1223.17 1459.5 Q1220.78 1461.89 1221.3 1465.16 Q1221.83 1468.4 1225.15 1471.72 Z" fill="#000000" fill-rule="nonzero" fill-opacity="1"></path><path clip-path="url(#clip350)" d="M1250.04 1456.81 L1253.5 1453.36 L1257.66 1457.52 L1254.2 1460.97 L1250.04 1456.81 Z" fill="#000000" fill-rule="nonzero" fill-opacity="1"></path><path clip-path="url(#clip350)" d="M1261.7 1427.12 Q1264.58 1425.26 1267.51 1425.53 Q1270.46 1425.8 1272.81 1428.15 Q1276.43 1431.77 1275.92 1436.24 Q1275.41 1440.71 1270.83 1445.29 Q1269.29 1446.83 1267.35 1448.15 Q1265.43 1449.48 1263.09 1450.61 L1259.9 1447.42 Q1262.07 1446.84 1264.12 1445.62 Q1266.17 1444.39 1267.95 1442.61 Q1271.06 1439.5 1271.45 1436.65 Q1271.86 1433.78 1269.52 1431.44 Q1267.36 1429.28 1264.63 1429.59 Q1261.89 1429.87 1259.19 1432.57 L1256.35 1435.42 L1253.63 1432.7 L1256.61 1429.72 Q1259.05 1427.28 1259.37 1425.03 Q1259.68 1422.75 1257.85 1420.92 Q1255.97 1419.04 1253.63 1419.38 Q1251.29 1419.69 1248.8 1422.18 Q1247.44 1423.54 1246.18 1425.39 Q1244.92 1427.24 1243.68 1429.72 L1240.73 1426.78 Q1242.09 1424.37 1243.46 1422.47 Q1244.86 1420.56 1246.31 1419.1 Q1250.08 1415.34 1253.99 1414.86 Q1257.88 1414.37 1260.8 1417.28 Q1262.83 1419.31 1263.07 1421.88 Q1263.3 1424.44 1261.7 1427.12 Z" fill="#000000" fill-rule="nonzero" fill-opacity="1"></path><path clip-path="url(#clip350)" d="M1619.7 1518.05 L1623 1514.74 L1644.66 1536.39 L1656.56 1524.5 L1659.34 1527.28 L1644.14 1542.48 L1619.7 1518.05 Z" fill="#000000" fill-rule="nonzero" fill-opacity="1"></path><path clip-path="url(#clip350)" d="M1652.97 1501.2 Q1650.55 1503.63 1651.04 1506.93 Q1651.52 1510.22 1654.81 1513.51 Q1658.1 1516.8 1661.39 1517.31 Q1664.68 1517.78 1667.12 1515.35 Q1669.52 1512.94 1669.03 1509.63 Q1668.54 1506.33 1665.27 1503.05 Q1662.01 1499.8 1658.7 1499.3 Q1655.38 1498.8 1652.97 1501.2 M1650.42 1498.65 Q1654.35 1494.72 1659.15 1495.03 Q1663.94 1495.34 1668.46 1499.86 Q1672.96 1504.36 1673.29 1509.17 Q1673.6 1513.97 1669.67 1517.9 Q1665.73 1521.84 1660.93 1521.53 Q1656.13 1521.19 1651.63 1516.69 Q1647.11 1512.17 1646.79 1507.39 Q1646.48 1502.59 1650.42 1498.65 Z" fill="#000000" fill-rule="nonzero" fill-opacity="1"></path><path clip-path="url(#clip350)" d="M1681.72 1486.47 Q1678.07 1490.12 1677.49 1492.36 Q1676.92 1494.61 1678.93 1496.62 Q1680.54 1498.22 1682.54 1498.13 Q1684.53 1498 1686.35 1496.18 Q1688.85 1493.67 1688.59 1490.4 Q1688.33 1487.09 1685.38 1484.15 L1684.71 1483.48 L1681.72 1486.47 M1686.48 1479.22 L1696.94 1489.68 L1693.93 1492.69 L1691.14 1489.91 Q1691.78 1492.61 1691.05 1494.95 Q1690.29 1497.27 1688.07 1499.5 Q1685.25 1502.32 1682.01 1502.41 Q1678.77 1502.48 1676.12 1499.83 Q1673.03 1496.73 1673.52 1493.1 Q1674.02 1489.45 1678.13 1485.34 L1682.36 1481.12 L1682.06 1480.82 Q1679.98 1478.75 1677.48 1478.99 Q1674.97 1479.2 1672.5 1481.68 Q1670.93 1483.25 1669.82 1485.11 Q1668.7 1486.98 1668.08 1489.11 L1665.3 1486.32 Q1666.31 1484.03 1667.56 1482.17 Q1668.79 1480.28 1670.26 1478.81 Q1674.24 1474.83 1678.26 1474.93 Q1682.29 1475.03 1686.48 1479.22 Z" fill="#000000" fill-rule="nonzero" fill-opacity="1"></path><path clip-path="url(#clip350)" d="M1699.66 1455.86 L1689.74 1445.94 L1692.75 1442.93 L1718.22 1468.4 L1715.21 1471.41 L1712.46 1468.66 Q1713.14 1471.25 1712.49 1473.51 Q1711.83 1475.73 1709.8 1477.76 Q1706.48 1481.09 1701.73 1480.53 Q1697 1479.96 1692.68 1475.64 Q1688.36 1471.31 1687.79 1466.58 Q1687.23 1461.84 1690.56 1458.52 Q1692.59 1456.49 1694.83 1455.85 Q1697.07 1455.18 1699.66 1455.86 M1695.79 1472.53 Q1699.12 1475.85 1702.37 1476.39 Q1705.63 1476.9 1708.02 1474.51 Q1710.41 1472.12 1709.9 1468.86 Q1709.38 1465.59 1706.06 1462.26 Q1702.73 1458.94 1699.48 1458.43 Q1696.2 1457.91 1693.81 1460.3 Q1691.42 1462.69 1691.95 1465.96 Q1692.47 1469.2 1695.79 1472.53 Z" fill="#000000" fill-rule="nonzero" fill-opacity="1"></path><path clip-path="url(#clip350)" d="M1720.69 1457.61 L1724.14 1454.16 L1728.3 1458.32 L1724.85 1461.77 L1720.69 1457.61 Z" fill="#000000" fill-rule="nonzero" fill-opacity="1"></path><path clip-path="url(#clip350)" d="M1723.03 1420.48 L1727.73 1441.87 L1736.08 1433.52 L1723.03 1420.48 M1719.28 1418.46 L1723.44 1414.3 L1739.37 1430.23 L1742.85 1426.74 L1745.6 1429.49 L1742.12 1432.98 L1747.88 1438.74 L1744.59 1442.03 L1738.83 1436.27 L1727.79 1447.3 L1724.6 1444.11 L1719.28 1418.46 Z" fill="#000000" fill-rule="nonzero" fill-opacity="1"></path><path clip-path="url(#clip350)" d="M2092.19 1517 L2095.5 1513.69 L2117.15 1535.35 L2129.05 1523.45 L2131.84 1526.23 L2116.63 1541.44 L2092.19 1517 Z" fill="#000000" fill-rule="nonzero" fill-opacity="1"></path><path clip-path="url(#clip350)" d="M2125.47 1500.16 Q2123.05 1502.58 2123.54 1505.88 Q2124.01 1509.17 2127.3 1512.46 Q2130.59 1515.75 2133.88 1516.26 Q2137.17 1516.74 2139.61 1514.3 Q2142.02 1511.89 2141.53 1508.59 Q2141.04 1505.28 2137.76 1502.01 Q2134.5 1498.75 2131.2 1498.26 Q2127.88 1497.75 2125.47 1500.16 M2122.92 1497.6 Q2126.84 1493.67 2131.64 1493.98 Q2136.44 1494.3 2140.95 1498.81 Q2145.45 1503.31 2145.78 1508.13 Q2146.09 1512.92 2142.16 1516.85 Q2138.22 1520.8 2133.42 1520.48 Q2128.63 1520.14 2124.13 1515.64 Q2119.61 1511.12 2119.28 1506.34 Q2118.97 1501.55 2122.92 1497.6 Z" fill="#000000" fill-rule="nonzero" fill-opacity="1"></path><path clip-path="url(#clip350)" d="M2154.21 1485.42 Q2150.56 1489.07 2149.99 1491.32 Q2149.42 1493.56 2151.43 1495.57 Q2153.03 1497.18 2155.03 1497.08 Q2157.03 1496.95 2158.84 1495.13 Q2161.35 1492.63 2161.09 1489.35 Q2160.82 1486.05 2157.88 1483.1 L2157.21 1482.43 L2154.21 1485.42 M2158.97 1478.17 L2169.43 1488.63 L2166.42 1491.64 L2163.64 1488.86 Q2164.28 1491.56 2163.54 1493.9 Q2162.79 1496.23 2160.56 1498.45 Q2157.75 1501.27 2154.51 1501.37 Q2151.27 1501.43 2148.61 1498.78 Q2145.52 1495.69 2146.01 1492.05 Q2146.52 1488.4 2150.63 1484.29 L2154.85 1480.07 L2154.56 1479.78 Q2152.48 1477.7 2149.97 1477.94 Q2147.47 1478.16 2145 1480.63 Q2143.42 1482.2 2142.31 1484.07 Q2141.2 1485.93 2140.58 1488.06 L2137.79 1485.28 Q2138.81 1482.99 2140.05 1481.12 Q2141.28 1479.24 2142.75 1477.76 Q2146.73 1473.79 2150.76 1473.88 Q2154.78 1473.98 2158.97 1478.17 Z" fill="#000000" fill-rule="nonzero" fill-opacity="1"></path><path clip-path="url(#clip350)" d="M2172.15 1454.82 L2162.23 1444.9 L2165.24 1441.89 L2190.71 1467.35 L2187.7 1470.37 L2184.95 1467.62 Q2185.64 1470.2 2184.98 1472.46 Q2184.33 1474.69 2182.3 1476.72 Q2178.98 1480.04 2174.23 1479.48 Q2169.5 1478.91 2165.18 1474.59 Q2160.86 1470.27 2160.28 1465.54 Q2159.73 1460.79 2163.05 1457.47 Q2165.08 1455.44 2167.32 1454.8 Q2169.56 1454.13 2172.15 1454.82 M2168.29 1471.48 Q2171.61 1474.8 2174.87 1475.34 Q2178.13 1475.85 2180.52 1473.46 Q2182.9 1471.07 2182.4 1467.81 Q2181.87 1464.54 2178.55 1461.22 Q2175.23 1457.89 2171.97 1457.39 Q2168.7 1456.86 2166.31 1459.25 Q2163.92 1461.64 2164.44 1464.92 Q2164.97 1468.16 2168.29 1471.48 Z" fill="#000000" fill-rule="nonzero" fill-opacity="1"></path><path clip-path="url(#clip350)" d="M2193.18 1456.57 L2196.64 1453.11 L2200.8 1457.27 L2197.34 1460.72 L2193.18 1456.57 Z" fill="#000000" fill-rule="nonzero" fill-opacity="1"></path><path clip-path="url(#clip350)" d="M2183.59 1425.6 L2196.57 1412.62 L2199.35 1415.4 L2189.4 1425.35 L2195.39 1431.34 Q2195.87 1430.38 2196.47 1429.54 Q2197.06 1428.69 2197.78 1427.97 Q2201.88 1423.88 2206.51 1423.73 Q2211.14 1423.59 2214.97 1427.42 Q2218.91 1431.36 2218.65 1436.01 Q2218.37 1440.64 2213.91 1445.11 Q2212.37 1446.65 2210.5 1447.99 Q2208.65 1449.32 2206.43 1450.49 L2203.1 1447.17 Q2205.38 1446.5 2207.34 1445.32 Q2209.31 1444.14 2211.06 1442.39 Q2213.89 1439.56 2214.05 1436.42 Q2214.22 1433.28 2211.66 1430.72 Q2209.11 1428.17 2205.97 1428.33 Q2202.82 1428.5 2199.99 1431.33 Q2198.67 1432.65 2197.64 1434.27 Q2196.62 1435.88 2195.87 1437.87 L2183.59 1425.6 Z" fill="#000000" fill-rule="nonzero" fill-opacity="1"></path><path clip-path="url(#clip350)" d="M2562.82 1517.82 L2566.13 1514.51 L2587.78 1536.17 L2599.68 1524.27 L2602.47 1527.05 L2587.26 1542.25 L2562.82 1517.82 Z" fill="#000000" fill-rule="nonzero" fill-opacity="1"></path><path clip-path="url(#clip350)" d="M2596.1 1500.97 Q2593.68 1503.4 2594.17 1506.7 Q2594.64 1509.99 2597.93 1513.28 Q2601.22 1516.57 2604.51 1517.08 Q2607.8 1517.55 2610.24 1515.12 Q2612.65 1512.71 2612.16 1509.4 Q2611.66 1506.1 2608.39 1502.82 Q2605.13 1499.57 2601.83 1499.08 Q2598.5 1498.57 2596.1 1500.97 M2593.54 1498.42 Q2597.47 1494.49 2602.27 1494.8 Q2607.06 1495.11 2611.58 1499.63 Q2616.08 1504.13 2616.41 1508.95 Q2616.72 1513.74 2612.79 1517.67 Q2608.85 1521.61 2604.05 1521.3 Q2599.26 1520.96 2594.76 1516.46 Q2590.24 1511.94 2589.91 1507.16 Q2589.6 1502.37 2593.54 1498.42 Z" fill="#000000" fill-rule="nonzero" fill-opacity="1"></path><path clip-path="url(#clip350)" d="M2624.84 1486.24 Q2621.19 1489.89 2620.62 1492.14 Q2620.04 1494.38 2622.06 1496.39 Q2623.66 1498 2625.66 1497.9 Q2627.66 1497.77 2629.47 1495.95 Q2631.98 1493.44 2631.72 1490.17 Q2631.45 1486.86 2628.51 1483.92 L2627.84 1483.25 L2624.84 1486.24 M2629.6 1478.99 L2640.06 1489.45 L2637.05 1492.46 L2634.27 1489.68 Q2634.91 1492.38 2634.17 1494.72 Q2633.42 1497.05 2631.19 1499.27 Q2628.38 1502.09 2625.14 1502.19 Q2621.89 1502.25 2619.24 1499.6 Q2616.15 1496.51 2616.64 1492.87 Q2617.15 1489.22 2621.26 1485.11 L2625.48 1480.89 L2625.18 1480.6 Q2623.11 1478.52 2620.6 1478.76 Q2618.1 1478.98 2615.63 1481.45 Q2614.05 1483.02 2612.94 1484.88 Q2611.83 1486.75 2611.21 1488.88 L2608.42 1486.1 Q2609.44 1483.8 2610.68 1481.94 Q2611.91 1480.06 2613.38 1478.58 Q2617.36 1474.6 2621.39 1474.7 Q2625.41 1474.8 2629.6 1478.99 Z" fill="#000000" fill-rule="nonzero" fill-opacity="1"></path><path clip-path="url(#clip350)" d="M2642.78 1455.63 L2632.86 1445.72 L2635.87 1442.7 L2661.34 1468.17 L2658.33 1471.18 L2655.58 1468.43 Q2656.27 1471.02 2655.61 1473.28 Q2654.96 1475.51 2652.93 1477.53 Q2649.61 1480.86 2644.86 1480.3 Q2640.13 1479.73 2635.81 1475.41 Q2631.49 1471.09 2630.91 1466.36 Q2630.36 1461.61 2633.68 1458.29 Q2635.71 1456.26 2637.95 1455.62 Q2640.19 1454.95 2642.78 1455.63 M2638.92 1472.3 Q2642.24 1475.62 2645.5 1476.16 Q2648.75 1476.67 2651.14 1474.28 Q2653.53 1471.89 2653.03 1468.63 Q2652.5 1465.36 2649.18 1462.03 Q2645.86 1458.71 2642.6 1458.2 Q2639.33 1457.68 2636.94 1460.07 Q2634.55 1462.46 2635.07 1465.73 Q2635.59 1468.97 2638.92 1472.3 Z" fill="#000000" fill-rule="nonzero" fill-opacity="1"></path><path clip-path="url(#clip350)" d="M2663.81 1457.39 L2667.27 1453.93 L2671.42 1458.09 L2667.97 1461.54 L2663.81 1457.39 Z" fill="#000000" fill-rule="nonzero" fill-opacity="1"></path><path clip-path="url(#clip350)" d="M2672.57 1429.87 Q2670.34 1432.1 2670.56 1434.93 Q2670.79 1437.74 2673.44 1440.4 Q2676.07 1443.03 2678.9 1443.28 Q2681.74 1443.49 2683.96 1441.26 Q2686.19 1439.04 2685.96 1436.22 Q2685.73 1433.37 2683.09 1430.74 Q2680.44 1428.09 2677.61 1427.87 Q2674.8 1427.64 2672.57 1429.87 M2668.77 1412.95 L2671.78 1415.96 Q2669.95 1416.61 2668.36 1417.58 Q2666.79 1418.53 2665.55 1419.77 Q2662.27 1423.05 2662.75 1426.99 Q2663.24 1430.92 2667.46 1435.63 Q2667 1433.24 2667.71 1431.03 Q2668.4 1428.81 2670.15 1427.06 Q2673.83 1423.37 2678.2 1423.49 Q2682.57 1423.57 2686.42 1427.42 Q2690.18 1431.18 2690.23 1435.68 Q2690.28 1440.18 2686.58 1443.88 Q2682.34 1448.12 2676.86 1447.12 Q2671.36 1446.11 2665.19 1439.94 Q2659.39 1434.14 2658.71 1427.96 Q2658 1421.75 2662.63 1417.12 Q2663.88 1415.88 2665.38 1414.86 Q2666.91 1413.83 2668.77 1412.95 Z" fill="#000000" fill-rule="nonzero" fill-opacity="1"></path><path clip-path="url(#clip350)" d="M1431.39 1577.7 L1437.82 1577.7 L1437.82 1619.81 L1460.96 1619.81 L1460.96 1625.22 L1431.39 1625.22 L1431.39 1577.7 Z" fill="#000000" fill-rule="nonzero" fill-opacity="1"></path><path clip-path="url(#clip350)" d="M1480.12 1593.67 Q1475.41 1593.67 1472.67 1597.37 Q1469.94 1601.03 1469.94 1607.42 Q1469.94 1613.82 1472.64 1617.51 Q1475.38 1621.17 1480.12 1621.17 Q1484.8 1621.17 1487.54 1617.48 Q1490.28 1613.79 1490.28 1607.42 Q1490.28 1601.09 1487.54 1597.4 Q1484.8 1593.67 1480.12 1593.67 M1480.12 1588.71 Q1487.76 1588.71 1492.12 1593.67 Q1496.48 1598.64 1496.48 1607.42 Q1496.48 1616.18 1492.12 1621.17 Q1487.76 1626.14 1480.12 1626.14 Q1472.45 1626.14 1468.09 1621.17 Q1463.76 1616.18 1463.76 1607.42 Q1463.76 1598.64 1468.09 1593.67 Q1472.45 1588.71 1480.12 1588.71 Z" fill="#000000" fill-rule="nonzero" fill-opacity="1"></path><path clip-path="url(#clip350)" d="M1522.39 1607.3 Q1515.29 1607.3 1512.56 1608.92 Q1509.82 1610.54 1509.82 1614.46 Q1509.82 1617.58 1511.86 1619.42 Q1513.92 1621.24 1517.46 1621.24 Q1522.33 1621.24 1525.26 1617.8 Q1528.22 1614.33 1528.22 1608.6 L1528.22 1607.3 L1522.39 1607.3 M1534.07 1604.88 L1534.07 1625.22 L1528.22 1625.22 L1528.22 1619.81 Q1526.21 1623.05 1523.22 1624.61 Q1520.23 1626.14 1515.9 1626.14 Q1510.42 1626.14 1507.18 1623.08 Q1503.96 1620 1503.96 1614.84 Q1503.96 1608.83 1507.97 1605.77 Q1512.01 1602.71 1520 1602.71 L1528.22 1602.71 L1528.22 1602.14 Q1528.22 1598.1 1525.54 1595.9 Q1522.9 1593.67 1518.09 1593.67 Q1515.04 1593.67 1512.14 1594.41 Q1509.25 1595.14 1506.57 1596.6 L1506.57 1591.19 Q1509.79 1589.95 1512.81 1589.35 Q1515.83 1588.71 1518.7 1588.71 Q1526.43 1588.71 1530.25 1592.72 Q1534.07 1596.73 1534.07 1604.88 Z" fill="#000000" fill-rule="nonzero" fill-opacity="1"></path><path clip-path="url(#clip350)" d="M1569.59 1594.98 L1569.59 1575.69 L1575.45 1575.69 L1575.45 1625.22 L1569.59 1625.22 L1569.59 1619.87 Q1567.75 1623.05 1564.91 1624.61 Q1562.11 1626.14 1558.17 1626.14 Q1551.7 1626.14 1547.63 1620.98 Q1543.59 1615.83 1543.59 1607.42 Q1543.59 1599.02 1547.63 1593.87 Q1551.7 1588.71 1558.17 1588.71 Q1562.11 1588.71 1564.91 1590.27 Q1567.75 1591.8 1569.59 1594.98 M1549.64 1607.42 Q1549.64 1613.89 1552.28 1617.58 Q1554.95 1621.24 1559.6 1621.24 Q1564.24 1621.24 1566.92 1617.58 Q1569.59 1613.89 1569.59 1607.42 Q1569.59 1600.96 1566.92 1597.3 Q1564.24 1593.61 1559.6 1593.61 Q1554.95 1593.61 1552.28 1597.3 Q1549.64 1600.96 1549.64 1607.42 Z" fill="#000000" fill-rule="nonzero" fill-opacity="1"></path><polyline clip-path="url(#clip350)" style="stroke:#000000; stroke-linecap:round; stroke-linejoin:round; stroke-width:4; stroke-opacity:1; fill:none" points="254.085,1382.31 254.085,114.832 "></polyline>
<polyline clip-path="url(#clip350)" style="stroke:#000000; stroke-linecap:round; stroke-linejoin:round; stroke-width:4; stroke-opacity:1; fill:none" points="254.085,1377.22 272.983,1377.22 "></polyline>
<polyline clip-path="url(#clip350)" style="stroke:#000000; stroke-linecap:round; stroke-linejoin:round; stroke-width:4; stroke-opacity:1; fill:none" points="254.085,1189.29 272.983,1189.29 "></polyline>
<polyline clip-path="url(#clip350)" style="stroke:#000000; stroke-linecap:round; stroke-linejoin:round; stroke-width:4; stroke-opacity:1; fill:none" points="254.085,1001.36 272.983,1001.36 "></polyline>
<polyline clip-path="url(#clip350)" style="stroke:#000000; stroke-linecap:round; stroke-linejoin:round; stroke-width:4; stroke-opacity:1; fill:none" points="254.085,813.422 272.983,813.422 "></polyline>
<polyline clip-path="url(#clip350)" style="stroke:#000000; stroke-linecap:round; stroke-linejoin:round; stroke-width:4; stroke-opacity:1; fill:none" points="254.085,625.489 272.983,625.489 "></polyline>
<polyline clip-path="url(#clip350)" style="stroke:#000000; stroke-linecap:round; stroke-linejoin:round; stroke-width:4; stroke-opacity:1; fill:none" points="254.085,437.556 272.983,437.556 "></polyline>
<polyline clip-path="url(#clip350)" style="stroke:#000000; stroke-linecap:round; stroke-linejoin:round; stroke-width:4; stroke-opacity:1; fill:none" points="254.085,249.623 272.983,249.623 "></polyline>
<path clip-path="url(#clip350)" d="M133.907 1412.63 L149.621 1396.92 L151.028 1398.33 L165.187 1430.23 L161.733 1433.68 L148.426 1403.68 L136.69 1415.42 L133.907 1412.63 Z" fill="#000000" fill-rule="nonzero" fill-opacity="1"></path><path clip-path="url(#clip350)" d="M176.35 1410.75 L179.803 1407.3 L183.961 1411.46 L180.507 1414.91 L176.35 1410.75 Z" fill="#000000" fill-rule="nonzero" fill-opacity="1"></path><path clip-path="url(#clip350)" d="M166.758 1379.78 L179.738 1366.8 L182.52 1369.59 L172.569 1379.54 L178.559 1385.53 Q179.034 1384.56 179.64 1383.73 Q180.229 1382.88 180.949 1382.16 Q185.041 1378.06 189.673 1377.92 Q194.305 1377.77 198.136 1381.6 Q202.08 1385.54 201.818 1390.19 Q201.54 1394.83 197.072 1399.29 Q195.533 1400.83 193.667 1402.17 Q191.818 1403.5 189.591 1404.68 L186.269 1401.36 Q188.544 1400.69 190.508 1399.51 Q192.472 1398.33 194.224 1396.58 Q197.055 1393.74 197.219 1390.6 Q197.383 1387.46 194.829 1384.91 Q192.276 1382.35 189.133 1382.52 Q185.99 1382.68 183.159 1385.51 Q181.833 1386.84 180.802 1388.46 Q179.787 1390.06 179.034 1392.06 L166.758 1379.78 Z" fill="#000000" fill-rule="nonzero" fill-opacity="1"></path><path clip-path="url(#clip350)" d="M134.938 1266.98 L140.34 1261.58 L121.696 1242.93 L116.999 1249.99 L113.987 1246.98 L118.652 1239.96 L121.958 1236.65 L143.613 1258.3 L149.015 1252.9 L151.797 1255.69 L137.721 1269.76 L134.938 1266.98 Z" fill="#000000" fill-rule="nonzero" fill-opacity="1"></path><path clip-path="url(#clip350)" d="M143.286 1219.68 Q140.733 1222.23 141.96 1226.04 Q143.188 1229.82 148.229 1234.87 Q153.254 1239.89 157.052 1241.13 Q160.849 1242.35 163.402 1239.79 Q165.972 1237.22 164.745 1233.44 Q163.517 1229.63 158.492 1224.6 Q153.451 1219.56 149.653 1218.35 Q145.856 1217.11 143.286 1219.68 M140.667 1217.06 Q144.776 1212.95 150.193 1214.05 Q155.611 1215.11 161.798 1221.3 Q167.969 1227.47 169.049 1232.9 Q170.13 1238.3 166.021 1242.41 Q161.913 1246.52 156.495 1245.46 Q151.077 1244.36 144.906 1238.19 Q138.719 1232 137.639 1226.6 Q136.559 1221.17 140.667 1217.06 Z" fill="#000000" fill-rule="nonzero" fill-opacity="1"></path><path clip-path="url(#clip350)" d="M175.646 1223.52 L179.1 1220.07 L183.257 1224.23 L179.803 1227.68 L175.646 1223.52 Z" fill="#000000" fill-rule="nonzero" fill-opacity="1"></path><path clip-path="url(#clip350)" d="M175.269 1187.69 Q172.716 1190.25 173.944 1194.06 Q175.171 1197.84 180.213 1202.88 Q185.238 1207.91 189.035 1209.15 Q192.832 1210.36 195.386 1207.81 Q197.956 1205.24 196.728 1201.46 Q195.5 1197.64 190.475 1192.62 Q185.434 1187.58 181.637 1186.37 Q177.839 1185.12 175.269 1187.69 M172.65 1185.07 Q176.759 1180.97 182.177 1182.06 Q187.595 1183.13 193.782 1189.31 Q199.952 1195.48 201.033 1200.92 Q202.113 1206.32 198.005 1210.43 Q193.896 1214.54 188.478 1213.47 Q183.061 1212.38 176.89 1206.2 Q170.703 1200.02 169.622 1194.62 Q168.542 1189.18 172.65 1185.07 Z" fill="#000000" fill-rule="nonzero" fill-opacity="1"></path><path clip-path="url(#clip350)" d="M135.642 1078.34 L141.044 1072.94 L122.4 1054.3 L117.703 1061.35 L114.691 1058.34 L119.356 1051.32 L122.662 1048.01 L144.317 1069.67 L149.719 1064.27 L152.501 1067.05 L138.425 1081.13 L135.642 1078.34 Z" fill="#000000" fill-rule="nonzero" fill-opacity="1"></path><path clip-path="url(#clip350)" d="M159.245 1054.74 L170.784 1043.2 L173.567 1045.98 L158.05 1061.5 L155.268 1058.72 Q155.202 1054.89 155.169 1048.37 Q155.137 1041.83 155.022 1040.04 Q154.826 1036.67 154.22 1034.82 Q153.614 1032.94 152.419 1031.74 Q150.472 1029.79 147.869 1029.94 Q145.283 1030.07 143.09 1032.27 Q141.535 1033.82 140.34 1036.1 Q139.161 1038.36 138.294 1041.42 L134.955 1038.08 Q136.15 1035.28 137.475 1033.13 Q138.801 1030.99 140.242 1029.55 Q144.039 1025.75 148.196 1025.39 Q152.354 1025.03 155.529 1028.21 Q157.035 1029.71 157.821 1031.64 Q158.607 1033.54 158.95 1036.87 Q159.016 1037.75 159.098 1042.22 Q159.163 1046.67 159.245 1054.74 Z" fill="#000000" fill-rule="nonzero" fill-opacity="1"></path><path clip-path="url(#clip350)" d="M176.35 1034.89 L179.803 1031.43 L183.961 1035.59 L180.507 1039.04 L176.35 1034.89 Z" fill="#000000" fill-rule="nonzero" fill-opacity="1"></path><path clip-path="url(#clip350)" d="M166.758 1003.92 L179.738 990.937 L182.52 993.719 L172.569 1003.67 L178.559 1009.66 Q179.034 1008.7 179.64 1007.86 Q180.229 1007.01 180.949 1006.29 Q185.041 1002.2 189.673 1002.05 Q194.305 1001.9 198.136 1005.73 Q202.08 1009.68 201.818 1014.33 Q201.54 1018.96 197.072 1023.43 Q195.533 1024.97 193.667 1026.31 Q191.818 1027.63 189.591 1028.81 L186.269 1025.49 Q188.544 1024.82 190.508 1023.64 Q192.472 1022.46 194.224 1020.71 Q197.055 1017.88 197.219 1014.74 Q197.383 1011.59 194.829 1009.04 Q192.276 1006.49 189.133 1006.65 Q185.99 1006.81 183.159 1009.65 Q181.833 1010.97 180.802 1012.59 Q179.787 1014.2 179.034 1016.19 L166.758 1003.92 Z" fill="#000000" fill-rule="nonzero" fill-opacity="1"></path><path clip-path="url(#clip350)" d="M134.938 891.113 L140.34 885.712 L121.696 867.069 L116.999 874.123 L113.987 871.111 L118.652 864.09 L121.958 860.783 L143.613 882.438 L149.015 877.037 L151.797 879.819 L137.721 893.896 L134.938 891.113 Z" fill="#000000" fill-rule="nonzero" fill-opacity="1"></path><path clip-path="url(#clip350)" d="M134.071 848.671 L147.051 835.691 L149.833 838.473 L139.881 848.425 L145.872 854.416 Q146.347 853.45 146.953 852.616 Q147.542 851.764 148.262 851.044 Q152.354 846.952 156.986 846.805 Q161.618 846.658 165.448 850.488 Q169.393 854.432 169.131 859.081 Q168.853 863.713 164.385 868.182 Q162.846 869.72 160.98 871.062 Q159.13 872.388 156.904 873.567 L153.582 870.244 Q155.857 869.573 157.821 868.394 Q159.785 867.216 161.537 865.464 Q164.368 862.633 164.532 859.49 Q164.696 856.347 162.142 853.794 Q159.589 851.241 156.446 851.404 Q153.303 851.568 150.472 854.4 Q149.146 855.725 148.115 857.346 Q147.1 858.95 146.347 860.947 L134.071 848.671 Z" fill="#000000" fill-rule="nonzero" fill-opacity="1"></path><path clip-path="url(#clip350)" d="M175.646 847.656 L179.1 844.202 L183.257 848.36 L179.803 851.813 L175.646 847.656 Z" fill="#000000" fill-rule="nonzero" fill-opacity="1"></path><path clip-path="url(#clip350)" d="M175.269 811.826 Q172.716 814.38 173.944 818.193 Q175.171 821.974 180.213 827.016 Q185.238 832.041 189.035 833.285 Q192.832 834.496 195.386 831.943 Q197.956 829.373 196.728 825.592 Q195.5 821.778 190.475 816.753 Q185.434 811.712 181.637 810.5 Q177.839 809.256 175.269 811.826 M172.65 809.207 Q176.759 805.099 182.177 806.196 Q187.595 807.259 193.782 813.447 Q199.952 819.617 201.033 825.052 Q202.113 830.453 198.005 834.561 Q193.896 838.67 188.478 837.606 Q183.061 836.509 176.89 830.338 Q170.703 824.151 169.622 818.75 Q168.542 813.316 172.65 809.207 Z" fill="#000000" fill-rule="nonzero" fill-opacity="1"></path><path clip-path="url(#clip350)" d="M135.642 702.476 L141.044 697.075 L122.4 678.432 L117.703 685.486 L114.691 682.475 L119.356 675.453 L122.662 672.146 L144.317 693.801 L149.719 688.4 L152.501 691.182 L138.425 705.259 L135.642 702.476 Z" fill="#000000" fill-rule="nonzero" fill-opacity="1"></path><path clip-path="url(#clip350)" d="M133.907 660.901 L149.621 645.188 L151.028 646.596 L165.187 678.497 L161.733 681.951 L148.426 651.948 L136.69 663.684 L133.907 660.901 Z" fill="#000000" fill-rule="nonzero" fill-opacity="1"></path><path clip-path="url(#clip350)" d="M176.35 659.019 L179.803 655.565 L183.961 659.723 L180.507 663.177 L176.35 659.019 Z" fill="#000000" fill-rule="nonzero" fill-opacity="1"></path><path clip-path="url(#clip350)" d="M166.758 628.051 L179.738 615.071 L182.52 617.853 L172.569 627.805 L178.559 633.796 Q179.034 632.83 179.64 631.995 Q180.229 631.144 180.949 630.424 Q185.041 626.332 189.673 626.185 Q194.305 626.037 198.136 629.867 Q202.08 633.812 201.818 638.461 Q201.54 643.093 197.072 647.561 Q195.533 649.1 193.667 650.442 Q191.818 651.768 189.591 652.946 L186.269 649.624 Q188.544 648.953 190.508 647.774 Q192.472 646.596 194.224 644.844 Q197.055 642.013 197.219 638.87 Q197.383 635.727 194.829 633.174 Q192.276 630.62 189.133 630.784 Q185.99 630.948 183.159 633.779 Q181.833 635.105 180.802 636.726 Q179.787 638.33 179.034 640.327 L166.758 628.051 Z" fill="#000000" fill-rule="nonzero" fill-opacity="1"></path><path clip-path="url(#clip350)" d="M137.213 512.972 L148.753 501.432 L151.536 504.215 L136.019 519.732 L133.236 516.949 Q133.171 513.119 133.138 506.605 Q133.105 500.057 132.99 498.273 Q132.794 494.902 132.188 493.052 Q131.583 491.17 130.388 489.975 Q128.44 488.027 125.838 488.174 Q123.251 488.305 121.058 490.498 Q119.503 492.053 118.308 494.329 Q117.13 496.587 116.262 499.648 L112.923 496.309 Q114.118 493.51 115.444 491.366 Q116.77 489.222 118.21 487.781 Q122.007 483.984 126.165 483.624 Q130.322 483.264 133.498 486.439 Q135.004 487.945 135.789 489.877 Q136.575 491.775 136.919 495.098 Q136.984 495.982 137.066 500.45 Q137.132 504.902 137.213 512.972 Z" fill="#000000" fill-rule="nonzero" fill-opacity="1"></path><path clip-path="url(#clip350)" d="M143.286 467.943 Q140.733 470.497 141.96 474.31 Q143.188 478.091 148.229 483.133 Q153.254 488.158 157.052 489.402 Q160.849 490.613 163.402 488.06 Q165.972 485.49 164.745 481.709 Q163.517 477.895 158.492 472.87 Q153.451 467.829 149.653 466.617 Q145.856 465.373 143.286 467.943 M140.667 465.324 Q144.776 461.216 150.193 462.313 Q155.611 463.377 161.798 469.564 Q167.969 475.734 169.049 481.169 Q170.13 486.57 166.021 490.679 Q161.913 494.787 156.495 493.723 Q151.077 492.626 144.906 486.456 Q138.719 480.268 137.639 474.867 Q136.559 469.433 140.667 465.324 Z" fill="#000000" fill-rule="nonzero" fill-opacity="1"></path><path clip-path="url(#clip350)" d="M175.646 471.79 L179.1 468.336 L183.257 472.494 L179.803 475.947 L175.646 471.79 Z" fill="#000000" fill-rule="nonzero" fill-opacity="1"></path><path clip-path="url(#clip350)" d="M175.269 435.96 Q172.716 438.513 173.944 442.327 Q175.171 446.108 180.213 451.15 Q185.238 456.175 189.035 457.419 Q192.832 458.63 195.386 456.076 Q197.956 453.507 196.728 449.725 Q195.5 445.912 190.475 440.887 Q185.434 435.845 181.637 434.634 Q177.839 433.39 175.269 435.96 M172.65 433.341 Q176.759 429.233 182.177 430.329 Q187.595 431.393 193.782 437.58 Q199.952 443.751 201.033 449.185 Q202.113 454.587 198.005 458.695 Q193.896 462.804 188.478 461.74 Q183.061 460.643 176.89 454.472 Q170.703 448.285 169.622 442.884 Q168.542 437.449 172.65 433.341 Z" fill="#000000" fill-rule="nonzero" fill-opacity="1"></path><path clip-path="url(#clip350)" d="M137.917 324.335 L149.457 312.795 L152.239 315.578 L136.722 331.095 L133.94 328.312 Q133.874 324.482 133.842 317.968 Q133.809 311.421 133.694 309.636 Q133.498 306.265 132.892 304.415 Q132.287 302.533 131.092 301.338 Q129.144 299.39 126.541 299.537 Q123.955 299.668 121.762 301.862 Q120.207 303.417 119.012 305.692 Q117.834 307.95 116.966 311.011 L113.627 307.672 Q114.822 304.873 116.148 302.729 Q117.474 300.585 118.914 299.144 Q122.711 295.347 126.869 294.987 Q131.026 294.627 134.202 297.802 Q135.708 299.308 136.493 301.24 Q137.279 303.138 137.623 306.461 Q137.688 307.345 137.77 311.813 Q137.835 316.266 137.917 324.335 Z" fill="#000000" fill-rule="nonzero" fill-opacity="1"></path><path clip-path="url(#clip350)" d="M159.245 303.007 L170.784 291.468 L173.567 294.25 L158.05 309.767 L155.268 306.985 Q155.202 303.155 155.169 296.64 Q155.137 290.093 155.022 288.309 Q154.826 284.937 154.22 283.087 Q153.614 281.205 152.419 280.01 Q150.472 278.062 147.869 278.21 Q145.283 278.341 143.09 280.534 Q141.535 282.089 140.34 284.364 Q139.161 286.623 138.294 289.684 L134.955 286.345 Q136.15 283.546 137.475 281.401 Q138.801 279.257 140.242 277.817 Q144.039 274.019 148.196 273.659 Q152.354 273.299 155.529 276.475 Q157.035 277.98 157.821 279.912 Q158.607 281.811 158.95 285.133 Q159.016 286.017 159.098 290.486 Q159.163 294.938 159.245 303.007 Z" fill="#000000" fill-rule="nonzero" fill-opacity="1"></path><path clip-path="url(#clip350)" d="M176.35 283.153 L179.803 279.699 L183.961 283.857 L180.507 287.31 L176.35 283.153 Z" fill="#000000" fill-rule="nonzero" fill-opacity="1"></path><path clip-path="url(#clip350)" d="M166.758 252.184 L179.738 239.204 L182.52 241.987 L172.569 251.939 L178.559 257.93 Q179.034 256.964 179.64 256.129 Q180.229 255.278 180.949 254.558 Q185.041 250.466 189.673 250.318 Q194.305 250.171 198.136 254.001 Q202.08 257.946 201.818 262.594 Q201.54 267.227 197.072 271.695 Q195.533 273.234 193.667 274.576 Q191.818 275.902 189.591 277.08 L186.269 273.757 Q188.544 273.086 190.508 271.908 Q192.472 270.729 194.224 268.978 Q197.055 266.146 197.219 263.004 Q197.383 259.861 194.829 257.308 Q192.276 254.754 189.133 254.918 Q185.99 255.081 183.159 257.913 Q181.833 259.239 180.802 260.859 Q179.787 262.463 179.034 264.46 L166.758 252.184 Z" fill="#000000" fill-rule="nonzero" fill-opacity="1"></path><path clip-path="url(#clip350)" d="M5.35587 1069.15 L12.1353 1069.15 Q9.11163 1072.39 7.61569 1076.09 Q6.11975 1079.75 6.11975 1083.88 Q6.11975 1092.03 11.1168 1096.36 Q16.0821 1100.69 25.5033 1100.69 Q34.8927 1100.69 39.8898 1096.36 Q44.8551 1092.03 44.8551 1083.88 Q44.8551 1079.75 43.3591 1076.09 Q41.8632 1072.39 38.8395 1069.15 L45.5553 1069.15 Q47.847 1072.52 48.9928 1076.31 Q50.1386 1080.06 50.1386 1084.27 Q50.1386 1095.06 43.5501 1101.26 Q36.9298 1107.47 25.5033 1107.47 Q14.0451 1107.47 7.45655 1101.26 Q0.836216 1095.06 0.836216 1084.27 Q0.836216 1080 1.98204 1076.25 Q3.09604 1072.46 5.35587 1069.15 Z" fill="#000000" fill-rule="nonzero" fill-opacity="1"></path><path clip-path="url(#clip350)" d="M35.1474 1060.08 L13.5676 1060.08 L13.5676 1054.22 L34.9246 1054.22 Q39.9853 1054.22 42.5316 1052.25 Q45.046 1050.27 45.046 1046.33 Q45.046 1041.58 42.0223 1038.85 Q38.9986 1036.08 33.7787 1036.08 L13.5676 1036.08 L13.5676 1030.22 L49.2156 1030.22 L49.2156 1036.08 L43.7411 1036.08 Q46.9876 1038.21 48.579 1041.04 Q50.1386 1043.84 50.1386 1047.57 Q50.1386 1053.71 46.3192 1056.89 Q42.4998 1060.08 35.1474 1060.08 M12.7083 1045.34 L12.7083 1045.34 Z" fill="#000000" fill-rule="nonzero" fill-opacity="1"></path><path clip-path="url(#clip350)" d="M19.0421 997.502 Q18.4692 998.488 18.2146 999.666 Q17.9281 1000.81 17.9281 1002.21 Q17.9281 1007.18 21.1746 1009.85 Q24.3893 1012.49 30.4368 1012.49 L49.2156 1012.49 L49.2156 1018.38 L13.5676 1018.38 L13.5676 1012.49 L19.1058 1012.49 Q15.8593 1010.65 14.2997 1007.69 Q12.7083 1004.73 12.7083 1000.49 Q12.7083 999.889 12.8037 999.157 Q12.8674 998.425 13.0265 997.533 L19.0421 997.502 Z" fill="#000000" fill-rule="nonzero" fill-opacity="1"></path><path clip-path="url(#clip350)" d="M19.0421 971.848 Q18.4692 972.834 18.2146 974.012 Q17.9281 975.158 17.9281 976.558 Q17.9281 981.524 21.1746 984.197 Q24.3893 986.839 30.4368 986.839 L49.2156 986.839 L49.2156 992.727 L13.5676 992.727 L13.5676 986.839 L19.1058 986.839 Q15.8593 984.993 14.2997 982.033 Q12.7083 979.073 12.7083 974.84 Q12.7083 974.235 12.8037 973.503 Q12.8674 972.771 13.0265 971.88 L19.0421 971.848 Z" fill="#000000" fill-rule="nonzero" fill-opacity="1"></path><path clip-path="url(#clip350)" d="M29.9275 936.645 L32.7921 936.645 L32.7921 963.572 Q38.8395 963.19 42.0223 959.944 Q45.1734 956.666 45.1734 950.841 Q45.1734 947.467 44.3458 944.316 Q43.5183 941.133 41.8632 938.014 L47.4014 938.014 Q48.7382 941.165 49.4384 944.475 Q50.1386 947.785 50.1386 951.191 Q50.1386 959.721 45.1734 964.718 Q40.2081 969.683 31.7417 969.683 Q22.9889 969.683 17.8645 964.973 Q12.7083 960.23 12.7083 952.21 Q12.7083 945.016 17.3552 940.847 Q21.9704 936.645 29.9275 936.645 M28.2088 942.502 Q23.4026 942.565 20.5381 945.207 Q17.6735 947.817 17.6735 952.146 Q17.6735 957.047 20.4426 960.008 Q23.2117 962.936 28.2406 963.381 L28.2088 942.502 Z" fill="#000000" fill-rule="nonzero" fill-opacity="1"></path><path clip-path="url(#clip350)" d="M27.6995 897.401 L49.2156 897.401 L49.2156 903.257 L27.8905 903.257 Q22.8297 903.257 20.3153 905.231 Q17.8008 907.204 17.8008 911.151 Q17.8008 915.893 20.8245 918.63 Q23.8482 921.368 29.0681 921.368 L49.2156 921.368 L49.2156 927.256 L13.5676 927.256 L13.5676 921.368 L19.1058 921.368 Q15.8911 919.267 14.2997 916.434 Q12.7083 913.57 12.7083 909.846 Q12.7083 903.703 16.5277 900.552 Q20.3153 897.401 27.6995 897.401 Z" fill="#000000" fill-rule="nonzero" fill-opacity="1"></path><path clip-path="url(#clip350)" d="M3.44616 879.927 L13.5676 879.927 L13.5676 867.864 L18.1191 867.864 L18.1191 879.927 L37.4709 879.927 Q41.8314 879.927 43.0727 878.749 Q44.314 877.54 44.314 873.879 L44.314 867.864 L49.2156 867.864 L49.2156 873.879 Q49.2156 880.659 46.7011 883.237 Q44.1548 885.815 37.4709 885.815 L18.1191 885.815 L18.1191 890.112 L13.5676 890.112 L13.5676 885.815 L3.44616 885.815 L3.44616 879.927 Z" fill="#000000" fill-rule="nonzero" fill-opacity="1"></path><path clip-path="url(#clip350)" d="M1.69559 839.186 L1.69559 829.606 L34.0334 817.479 L1.69559 805.289 L1.69559 795.709 L49.2156 795.709 L49.2156 801.979 L7.48838 801.979 L40.0808 814.233 L40.0808 820.694 L7.48838 832.948 L49.2156 832.948 L49.2156 839.186 L1.69559 839.186 Z" fill="#000000" fill-rule="nonzero" fill-opacity="1"></path><path clip-path="url(#clip350)" d="M31.2961 766.999 Q31.2961 774.097 32.9194 776.834 Q34.5426 779.572 38.4575 779.572 Q41.5767 779.572 43.4228 777.535 Q45.237 775.466 45.237 771.933 Q45.237 767.063 41.7995 764.135 Q38.3302 761.175 32.6011 761.175 L31.2961 761.175 L31.2961 766.999 M28.8772 755.318 L49.2156 755.318 L49.2156 761.175 L43.8047 761.175 Q47.0512 763.18 48.6108 766.172 Q50.1386 769.164 50.1386 773.492 Q50.1386 778.967 47.0831 782.213 Q43.9957 785.428 38.8395 785.428 Q32.8239 785.428 29.7684 781.418 Q26.7128 777.375 26.7128 769.386 L26.7128 761.175 L26.1399 761.175 Q22.0977 761.175 19.9015 763.848 Q17.6735 766.49 17.6735 771.296 Q17.6735 774.352 18.4056 777.248 Q19.1376 780.144 20.6017 782.818 L15.1909 782.818 Q13.9496 779.603 13.3448 776.58 Q12.7083 773.556 12.7083 770.691 Q12.7083 762.957 16.7187 759.138 Q20.729 755.318 28.8772 755.318 Z" fill="#000000" fill-rule="nonzero" fill-opacity="1"></path><path clip-path="url(#clip350)" d="M30.9778 719.798 Q24.6121 719.798 21.111 722.439 Q17.6099 725.049 17.6099 729.792 Q17.6099 734.502 21.111 737.144 Q24.6121 739.754 30.9778 739.754 Q37.3117 739.754 40.8129 737.144 Q44.314 734.502 44.314 729.792 Q44.314 725.049 40.8129 722.439 Q37.3117 719.798 30.9778 719.798 M44.7914 713.941 Q53.8944 713.941 58.3185 717.983 Q62.7745 722.026 62.7745 730.365 Q62.7745 733.452 62.2971 736.189 Q61.8515 738.927 60.8967 741.505 L55.1994 741.505 Q56.5998 738.927 57.2682 736.412 Q57.9366 733.898 57.9366 731.288 Q57.9366 725.527 54.9129 722.662 Q51.921 719.798 45.8418 719.798 L42.9454 719.798 Q46.0964 721.612 47.656 724.445 Q49.2156 727.277 49.2156 731.224 Q49.2156 737.781 44.2185 741.791 Q39.2214 745.801 30.9778 745.801 Q22.7024 745.801 17.7053 741.791 Q12.7083 737.781 12.7083 731.224 Q12.7083 727.277 14.2679 724.445 Q15.8275 721.612 18.9785 719.798 L13.5676 719.798 L13.5676 713.941 L44.7914 713.941 Z" fill="#000000" fill-rule="nonzero" fill-opacity="1"></path><path clip-path="url(#clip350)" d="M27.6995 672.246 L49.2156 672.246 L49.2156 678.102 L27.8905 678.102 Q22.8297 678.102 20.3153 680.076 Q17.8008 682.049 17.8008 685.996 Q17.8008 690.738 20.8245 693.475 Q23.8482 696.213 29.0681 696.213 L49.2156 696.213 L49.2156 702.101 L13.5676 702.101 L13.5676 696.213 L19.1058 696.213 Q15.8911 694.112 14.2997 691.279 Q12.7083 688.415 12.7083 684.691 Q12.7083 678.548 16.5277 675.397 Q20.3153 672.246 27.6995 672.246 Z" fill="#000000" fill-rule="nonzero" fill-opacity="1"></path><path clip-path="url(#clip350)" d="M13.5676 660.565 L13.5676 654.708 L49.2156 654.708 L49.2156 660.565 L13.5676 660.565 M-0.309612 660.565 L-0.309612 654.708 L7.10644 654.708 L7.10644 660.565 L-0.309612 660.565 Z" fill="#000000" fill-rule="nonzero" fill-opacity="1"></path><path clip-path="url(#clip350)" d="M3.44616 636.661 L13.5676 636.661 L13.5676 624.598 L18.1191 624.598 L18.1191 636.661 L37.4709 636.661 Q41.8314 636.661 43.0727 635.484 Q44.314 634.274 44.314 630.614 L44.314 624.598 L49.2156 624.598 L49.2156 630.614 Q49.2156 637.393 46.7011 639.972 Q44.1548 642.55 37.4709 642.55 L18.1191 642.55 L18.1191 646.847 L13.5676 646.847 L13.5676 642.55 L3.44616 642.55 L3.44616 636.661 Z" fill="#000000" fill-rule="nonzero" fill-opacity="1"></path><path clip-path="url(#clip350)" d="M35.1474 617.501 L13.5676 617.501 L13.5676 611.644 L34.9246 611.644 Q39.9853 611.644 42.5316 609.671 Q45.046 607.697 45.046 603.751 Q45.046 599.008 42.0223 596.271 Q38.9986 593.502 33.7787 593.502 L13.5676 593.502 L13.5676 587.645 L49.2156 587.645 L49.2156 593.502 L43.7411 593.502 Q46.9876 595.634 48.579 598.467 Q50.1386 601.268 50.1386 604.992 Q50.1386 611.135 46.3192 614.318 Q42.4998 617.501 35.1474 617.501 M12.7083 602.764 L12.7083 602.764 Z" fill="#000000" fill-rule="nonzero" fill-opacity="1"></path><path clip-path="url(#clip350)" d="M18.9785 552.125 L-0.309612 552.125 L-0.309612 546.268 L49.2156 546.268 L49.2156 552.125 L43.8684 552.125 Q47.0512 553.971 48.6108 556.804 Q50.1386 559.605 50.1386 563.551 Q50.1386 570.012 44.9824 574.087 Q39.8262 578.129 31.4234 578.129 Q23.0207 578.129 17.8645 574.087 Q12.7083 570.012 12.7083 563.551 Q12.7083 559.605 14.2679 556.804 Q15.7956 553.971 18.9785 552.125 M31.4234 572.081 Q37.8846 572.081 41.5767 569.44 Q45.237 566.766 45.237 562.119 Q45.237 557.472 41.5767 554.798 Q37.8846 552.125 31.4234 552.125 Q24.9622 552.125 21.302 554.798 Q17.6099 557.472 17.6099 562.119 Q17.6099 566.766 21.302 569.44 Q24.9622 572.081 31.4234 572.081 Z" fill="#000000" fill-rule="nonzero" fill-opacity="1"></path><path clip-path="url(#clip350)" d="M29.9275 503.714 L32.7921 503.714 L32.7921 530.641 Q38.8395 530.259 42.0223 527.012 Q45.1734 523.734 45.1734 517.909 Q45.1734 514.535 44.3458 511.384 Q43.5183 508.201 41.8632 505.082 L47.4014 505.082 Q48.7382 508.233 49.4384 511.543 Q50.1386 514.854 50.1386 518.259 Q50.1386 526.789 45.1734 531.786 Q40.2081 536.752 31.7417 536.752 Q22.9889 536.752 17.8645 532.041 Q12.7083 527.299 12.7083 519.278 Q12.7083 512.085 17.3552 507.915 Q21.9704 503.714 29.9275 503.714 M28.2088 509.57 Q23.4026 509.634 20.5381 512.276 Q17.6735 514.885 17.6735 519.214 Q17.6735 524.116 20.4426 527.076 Q23.2117 530.004 28.2406 530.45 L28.2088 509.57 Z" fill="#000000" fill-rule="nonzero" fill-opacity="1"></path><path clip-path="url(#clip350)" d="M-0.245954 459.313 Q7.07461 463.578 14.236 465.647 Q21.3974 467.716 28.7498 467.716 Q36.1022 467.716 43.3273 465.647 Q50.5206 463.546 57.8093 459.313 L57.8093 464.405 Q50.3296 469.18 43.1045 471.567 Q35.8794 473.922 28.7498 473.922 Q21.6521 473.922 14.4588 471.567 Q7.26558 469.212 -0.245954 464.405 L-0.245954 459.313 Z" fill="#000000" fill-rule="nonzero" fill-opacity="1"></path><path clip-path="url(#clip350)" d="M8.02946 431.813 L31.6781 440.534 L31.6781 423.06 L8.02946 431.813 M1.69559 435.441 L1.69559 428.153 L49.2156 410.042 L49.2156 416.726 L37.0253 421.055 L37.0253 442.476 L49.2156 446.804 L49.2156 453.584 L1.69559 435.441 Z" fill="#000000" fill-rule="nonzero" fill-opacity="1"></path><path clip-path="url(#clip350)" d="M-0.245954 404.281 L-0.245954 399.189 Q7.26558 394.414 14.4588 392.059 Q21.6521 389.672 28.7498 389.672 Q35.8794 389.672 43.1045 392.059 Q50.3296 394.414 57.8093 399.189 L57.8093 404.281 Q50.5206 400.048 43.3273 397.979 Q36.1022 395.879 28.7498 395.879 Q21.3974 395.879 14.236 397.979 Q7.07461 400.048 -0.245954 404.281 Z" fill="#000000" fill-rule="nonzero" fill-opacity="1"></path><path clip-path="url(#clip350)" d="M1099.04 12.096 L1107.22 12.096 L1107.22 65.6895 L1136.67 65.6895 L1136.67 72.576 L1099.04 72.576 L1099.04 12.096 Z" fill="#000000" fill-rule="nonzero" fill-opacity="1"></path><path clip-path="url(#clip350)" d="M1161.06 32.4315 Q1155.06 32.4315 1151.58 37.1306 Q1148.1 41.7891 1148.1 49.9314 Q1148.1 58.0738 1151.54 62.7728 Q1155.02 67.4314 1161.06 67.4314 Q1167.01 67.4314 1170.5 62.7323 Q1173.98 58.0333 1173.98 49.9314 Q1173.98 41.8701 1170.5 37.1711 Q1167.01 32.4315 1161.06 32.4315 M1161.06 26.1121 Q1170.78 26.1121 1176.33 32.4315 Q1181.88 38.7509 1181.88 49.9314 Q1181.88 61.0714 1176.33 67.4314 Q1170.78 73.7508 1161.06 73.7508 Q1151.3 73.7508 1145.75 67.4314 Q1140.24 61.0714 1140.24 49.9314 Q1140.24 38.7509 1145.75 32.4315 Q1151.3 26.1121 1161.06 26.1121 Z" fill="#000000" fill-rule="nonzero" fill-opacity="1"></path><path clip-path="url(#clip350)" d="M1214.85 49.7694 Q1205.82 49.7694 1202.34 51.8354 Q1198.85 53.9013 1198.85 58.8839 Q1198.85 62.8538 1201.45 65.2034 Q1204.08 67.5124 1208.58 67.5124 Q1214.77 67.5124 1218.5 63.1374 Q1222.27 58.7219 1222.27 51.4303 L1222.27 49.7694 L1214.85 49.7694 M1229.72 46.6907 L1229.72 72.576 L1222.27 72.576 L1222.27 65.6895 Q1219.72 69.8214 1215.91 71.8063 Q1212.1 73.7508 1206.59 73.7508 Q1199.62 73.7508 1195.49 69.8619 Q1191.4 65.9325 1191.4 59.3701 Q1191.4 51.7138 1196.5 47.825 Q1201.65 43.9361 1211.82 43.9361 L1222.27 43.9361 L1222.27 43.2069 Q1222.27 38.0623 1218.86 35.2672 Q1215.5 32.4315 1209.39 32.4315 Q1205.5 32.4315 1201.81 33.3632 Q1198.12 34.295 1194.72 36.1584 L1194.72 29.2718 Q1198.81 27.692 1202.66 26.9223 Q1206.51 26.1121 1210.16 26.1121 Q1220 26.1121 1224.86 31.2163 Q1229.72 36.3204 1229.72 46.6907 Z" fill="#000000" fill-rule="nonzero" fill-opacity="1"></path><path clip-path="url(#clip350)" d="M1274.93 34.0924 L1274.93 9.54393 L1282.38 9.54393 L1282.38 72.576 L1274.93 72.576 L1274.93 65.7705 Q1272.58 69.8214 1268.97 71.8063 Q1265.41 73.7508 1260.39 73.7508 Q1252.16 73.7508 1246.98 67.1883 Q1241.83 60.6258 1241.83 49.9314 Q1241.83 39.2371 1246.98 32.6746 Q1252.16 26.1121 1260.39 26.1121 Q1265.41 26.1121 1268.97 28.0971 Q1272.58 30.0415 1274.93 34.0924 M1249.53 49.9314 Q1249.53 58.1548 1252.89 62.8538 Q1256.3 67.5124 1262.21 67.5124 Q1268.12 67.5124 1271.53 62.8538 Q1274.93 58.1548 1274.93 49.9314 Q1274.93 41.7081 1271.53 37.0496 Q1268.12 32.3505 1262.21 32.3505 Q1256.3 32.3505 1252.89 37.0496 Q1249.53 41.7081 1249.53 49.9314 Z" fill="#000000" fill-rule="nonzero" fill-opacity="1"></path><path clip-path="url(#clip350)" d="M1369.72 16.7545 L1369.72 25.383 Q1365.59 21.5346 1360.89 19.6307 Q1356.23 17.7268 1350.96 17.7268 Q1340.59 17.7268 1335.09 24.0867 Q1329.58 30.4061 1329.58 42.3968 Q1329.58 54.3469 1335.09 60.7069 Q1340.59 67.0263 1350.96 67.0263 Q1356.23 67.0263 1360.89 65.1223 Q1365.59 63.2184 1369.72 59.3701 L1369.72 67.9175 Q1365.43 70.8341 1360.61 72.2924 Q1355.83 73.7508 1350.48 73.7508 Q1336.75 73.7508 1328.85 65.3654 Q1320.95 56.9395 1320.95 42.3968 Q1320.95 27.8135 1328.85 19.4281 Q1336.75 11.0023 1350.48 11.0023 Q1355.91 11.0023 1360.69 12.4606 Q1365.51 13.8784 1369.72 16.7545 Z" fill="#000000" fill-rule="nonzero" fill-opacity="1"></path><path clip-path="url(#clip350)" d="M1381.27 54.671 L1381.27 27.2059 L1388.72 27.2059 L1388.72 54.3874 Q1388.72 60.8284 1391.23 64.0691 Q1393.74 67.2693 1398.77 67.2693 Q1404.8 67.2693 1408.29 63.421 Q1411.81 59.5726 1411.81 52.9291 L1411.81 27.2059 L1419.26 27.2059 L1419.26 72.576 L1411.81 72.576 L1411.81 65.6084 Q1409.1 69.7404 1405.49 71.7658 Q1401.93 73.7508 1397.19 73.7508 Q1389.37 73.7508 1385.32 68.8897 Q1381.27 64.0286 1381.27 54.671 M1400.02 26.1121 L1400.02 26.1121 Z" fill="#000000" fill-rule="nonzero" fill-opacity="1"></path><path clip-path="url(#clip350)" d="M1460.91 34.1734 Q1459.65 33.4443 1458.15 33.1202 Q1456.69 32.7556 1454.91 32.7556 Q1448.59 32.7556 1445.19 36.8875 Q1441.83 40.9789 1441.83 48.6757 L1441.83 72.576 L1434.33 72.576 L1434.33 27.2059 L1441.83 27.2059 L1441.83 34.2544 Q1444.18 30.1225 1447.94 28.1376 Q1451.71 26.1121 1457.1 26.1121 Q1457.87 26.1121 1458.8 26.2337 Q1459.73 26.3147 1460.87 26.5172 L1460.91 34.1734 Z" fill="#000000" fill-rule="nonzero" fill-opacity="1"></path><path clip-path="url(#clip350)" d="M1493.56 34.1734 Q1492.3 33.4443 1490.8 33.1202 Q1489.34 32.7556 1487.56 32.7556 Q1481.24 32.7556 1477.84 36.8875 Q1474.48 40.9789 1474.48 48.6757 L1474.48 72.576 L1466.98 72.576 L1466.98 27.2059 L1474.48 27.2059 L1474.48 34.2544 Q1476.83 30.1225 1480.59 28.1376 Q1484.36 26.1121 1489.75 26.1121 Q1490.52 26.1121 1491.45 26.2337 Q1492.38 26.3147 1493.52 26.5172 L1493.56 34.1734 Z" fill="#000000" fill-rule="nonzero" fill-opacity="1"></path><path clip-path="url(#clip350)" d="M1538.36 48.0275 L1538.36 51.6733 L1504.09 51.6733 Q1504.58 59.3701 1508.71 63.421 Q1512.88 67.4314 1520.29 67.4314 Q1524.59 67.4314 1528.6 66.3781 Q1532.65 65.3249 1536.62 63.2184 L1536.62 70.267 Q1532.61 71.9684 1528.39 72.8596 Q1524.18 73.7508 1519.85 73.7508 Q1508.99 73.7508 1502.63 67.4314 Q1496.31 61.1119 1496.31 50.3365 Q1496.31 39.1965 1502.31 32.6746 Q1508.34 26.1121 1518.55 26.1121 Q1527.71 26.1121 1533.01 32.0264 Q1538.36 37.9003 1538.36 48.0275 M1530.91 45.84 Q1530.83 39.7232 1527.46 36.0774 Q1524.14 32.4315 1518.63 32.4315 Q1512.39 32.4315 1508.63 35.9558 Q1504.9 39.4801 1504.33 45.8805 L1530.91 45.84 Z" fill="#000000" fill-rule="nonzero" fill-opacity="1"></path><path clip-path="url(#clip350)" d="M1588.31 45.1919 L1588.31 72.576 L1580.85 72.576 L1580.85 45.4349 Q1580.85 38.994 1578.34 35.7938 Q1575.83 32.5936 1570.81 32.5936 Q1564.77 32.5936 1561.29 36.4419 Q1557.8 40.2903 1557.8 46.9338 L1557.8 72.576 L1550.31 72.576 L1550.31 27.2059 L1557.8 27.2059 L1557.8 34.2544 Q1560.48 30.163 1564.08 28.1376 Q1567.73 26.1121 1572.47 26.1121 Q1580.29 26.1121 1584.3 30.9732 Q1588.31 35.7938 1588.31 45.1919 Z" fill="#000000" fill-rule="nonzero" fill-opacity="1"></path><path clip-path="url(#clip350)" d="M1610.55 14.324 L1610.55 27.2059 L1625.9 27.2059 L1625.9 32.9987 L1610.55 32.9987 L1610.55 57.6282 Q1610.55 63.1779 1612.05 64.7578 Q1613.58 66.3376 1618.24 66.3376 L1625.9 66.3376 L1625.9 72.576 L1618.24 72.576 Q1609.62 72.576 1606.33 69.3758 Q1603.05 66.1351 1603.05 57.6282 L1603.05 32.9987 L1597.58 32.9987 L1597.58 27.2059 L1603.05 27.2059 L1603.05 14.324 L1610.55 14.324 Z" fill="#000000" fill-rule="nonzero" fill-opacity="1"></path><path clip-path="url(#clip350)" d="M1670.58 18.8205 L1670.58 41.5461 L1680.87 41.5461 Q1686.58 41.5461 1689.7 38.5889 Q1692.82 35.6318 1692.82 30.163 Q1692.82 24.7348 1689.7 21.7777 Q1686.58 18.8205 1680.87 18.8205 L1670.58 18.8205 M1662.4 12.096 L1680.87 12.096 Q1691.04 12.096 1696.22 16.714 Q1701.45 21.2916 1701.45 30.163 Q1701.45 39.1155 1696.22 43.6931 Q1691.04 48.2706 1680.87 48.2706 L1670.58 48.2706 L1670.58 72.576 L1662.4 72.576 L1662.4 12.096 Z" fill="#000000" fill-rule="nonzero" fill-opacity="1"></path><path clip-path="url(#clip350)" d="M1736.94 34.1734 Q1735.68 33.4443 1734.18 33.1202 Q1732.72 32.7556 1730.94 32.7556 Q1724.62 32.7556 1721.22 36.8875 Q1717.86 40.9789 1717.86 48.6757 L1717.86 72.576 L1710.36 72.576 L1710.36 27.2059 L1717.86 27.2059 L1717.86 34.2544 Q1720.2 30.1225 1723.97 28.1376 Q1727.74 26.1121 1733.13 26.1121 Q1733.9 26.1121 1734.83 26.2337 Q1735.76 26.3147 1736.89 26.5172 L1736.94 34.1734 Z" fill="#000000" fill-rule="nonzero" fill-opacity="1"></path><path clip-path="url(#clip350)" d="M1760.51 32.4315 Q1754.52 32.4315 1751.03 37.1306 Q1747.55 41.7891 1747.55 49.9314 Q1747.55 58.0738 1750.99 62.7728 Q1754.48 67.4314 1760.51 67.4314 Q1766.47 67.4314 1769.95 62.7323 Q1773.43 58.0333 1773.43 49.9314 Q1773.43 41.8701 1769.95 37.1711 Q1766.47 32.4315 1760.51 32.4315 M1760.51 26.1121 Q1770.23 26.1121 1775.78 32.4315 Q1781.33 38.7509 1781.33 49.9314 Q1781.33 61.0714 1775.78 67.4314 Q1770.23 73.7508 1760.51 73.7508 Q1750.75 73.7508 1745.2 67.4314 Q1739.69 61.0714 1739.69 49.9314 Q1739.69 38.7509 1745.2 32.4315 Q1750.75 26.1121 1760.51 26.1121 Z" fill="#000000" fill-rule="nonzero" fill-opacity="1"></path><path clip-path="url(#clip350)" d="M1816.66 9.54393 L1816.66 15.7418 L1809.53 15.7418 Q1805.52 15.7418 1803.94 17.3622 Q1802.4 18.9825 1802.4 23.1955 L1802.4 27.2059 L1814.67 27.2059 L1814.67 32.9987 L1802.4 32.9987 L1802.4 72.576 L1794.9 72.576 L1794.9 32.9987 L1787.77 32.9987 L1787.77 27.2059 L1794.9 27.2059 L1794.9 24.0462 Q1794.9 16.471 1798.43 13.0277 Q1801.95 9.54393 1809.61 9.54393 L1816.66 9.54393 Z" fill="#000000" fill-rule="nonzero" fill-opacity="1"></path><path clip-path="url(#clip350)" d="M1822.9 27.2059 L1830.35 27.2059 L1830.35 72.576 L1822.9 72.576 L1822.9 27.2059 M1822.9 9.54393 L1830.35 9.54393 L1830.35 18.9825 L1822.9 18.9825 L1822.9 9.54393 Z" fill="#000000" fill-rule="nonzero" fill-opacity="1"></path><path clip-path="url(#clip350)" d="M1845.94 9.54393 L1853.4 9.54393 L1853.4 72.576 L1845.94 72.576 L1845.94 9.54393 Z" fill="#000000" fill-rule="nonzero" fill-opacity="1"></path><path clip-path="url(#clip350)" d="M1907.8 48.0275 L1907.8 51.6733 L1873.53 51.6733 Q1874.02 59.3701 1878.15 63.421 Q1882.32 67.4314 1889.74 67.4314 Q1894.03 67.4314 1898.04 66.3781 Q1902.09 65.3249 1906.06 63.2184 L1906.06 70.267 Q1902.05 71.9684 1897.84 72.8596 Q1893.62 73.7508 1889.29 73.7508 Q1878.43 73.7508 1872.07 67.4314 Q1865.75 61.1119 1865.75 50.3365 Q1865.75 39.1965 1871.75 32.6746 Q1877.78 26.1121 1887.99 26.1121 Q1897.15 26.1121 1902.45 32.0264 Q1907.8 37.9003 1907.8 48.0275 M1900.35 45.84 Q1900.27 39.7232 1896.91 36.0774 Q1893.58 32.4315 1888.07 32.4315 Q1881.84 32.4315 1878.07 35.9558 Q1874.34 39.4801 1873.77 45.8805 L1900.35 45.84 Z" fill="#000000" fill-rule="nonzero" fill-opacity="1"></path><polyline clip-path="url(#clip352)" style="stroke:#0000ff; stroke-linecap:round; stroke-linejoin:round; stroke-width:4; stroke-opacity:1; fill:none" points="324.802,322.471 796.25,1346.44 1267.7,150.704 1739.14,599.626 2210.59,855.069 2682.04,1062.65 "></polyline>
<circle clip-path="url(#clip352)" cx="324.802" cy="322.471" r="14.4" fill="#0000ff" fill-rule="evenodd" fill-opacity="1" stroke="#000000" stroke-opacity="1" stroke-width="3.2"></circle>
<circle clip-path="url(#clip352)" cx="796.25" cy="1346.44" r="14.4" fill="#0000ff" fill-rule="evenodd" fill-opacity="1" stroke="#000000" stroke-opacity="1" stroke-width="3.2"></circle>
<circle clip-path="url(#clip352)" cx="1267.7" cy="150.704" r="14.4" fill="#0000ff" fill-rule="evenodd" fill-opacity="1" stroke="#000000" stroke-opacity="1" stroke-width="3.2"></circle>
<circle clip-path="url(#clip352)" cx="1739.14" cy="599.626" r="14.4" fill="#0000ff" fill-rule="evenodd" fill-opacity="1" stroke="#000000" stroke-opacity="1" stroke-width="3.2"></circle>
<circle clip-path="url(#clip352)" cx="2210.59" cy="855.069" r="14.4" fill="#0000ff" fill-rule="evenodd" fill-opacity="1" stroke="#000000" stroke-opacity="1" stroke-width="3.2"></circle>
<circle clip-path="url(#clip352)" cx="2682.04" cy="1062.65" r="14.4" fill="#0000ff" fill-rule="evenodd" fill-opacity="1" stroke="#000000" stroke-opacity="1" stroke-width="3.2"></circle>
<polyline clip-path="url(#clip352)" style="stroke:#ff0000; stroke-linecap:round; stroke-linejoin:round; stroke-width:4; stroke-opacity:1; fill:none" stroke-dasharray="16, 10" points="324.802,323.813 796.25,1345.74 1267.7,151.319 1739.14,600.745 2210.59,853.81 2682.04,1062.94 "></polyline>
<path clip-path="url(#clip352)" d="M308.802 307.813 L308.802 339.813 L340.802 339.813 L340.802 307.813 L308.802 307.813 Z" fill="#ff0000" fill-rule="evenodd" fill-opacity="1" stroke="#000000" stroke-opacity="1" stroke-width="3.2"></path>
<path clip-path="url(#clip352)" d="M780.25 1329.74 L780.25 1361.74 L812.25 1361.74 L812.25 1329.74 L780.25 1329.74 Z" fill="#ff0000" fill-rule="evenodd" fill-opacity="1" stroke="#000000" stroke-opacity="1" stroke-width="3.2"></path>
<path clip-path="url(#clip352)" d="M1251.7 135.319 L1251.7 167.319 L1283.7 167.319 L1283.7 135.319 L1251.7 135.319 Z" fill="#ff0000" fill-rule="evenodd" fill-opacity="1" stroke="#000000" stroke-opacity="1" stroke-width="3.2"></path>
<path clip-path="url(#clip352)" d="M1723.14 584.745 L1723.14 616.745 L1755.14 616.745 L1755.14 584.745 L1723.14 584.745 Z" fill="#ff0000" fill-rule="evenodd" fill-opacity="1" stroke="#000000" stroke-opacity="1" stroke-width="3.2"></path>
<path clip-path="url(#clip352)" d="M2194.59 837.81 L2194.59 869.81 L2226.59 869.81 L2226.59 837.81 L2194.59 837.81 Z" fill="#ff0000" fill-rule="evenodd" fill-opacity="1" stroke="#000000" stroke-opacity="1" stroke-width="3.2"></path>
<path clip-path="url(#clip352)" d="M2666.04 1046.94 L2666.04 1078.94 L2698.04 1078.94 L2698.04 1046.94 L2666.04 1046.94 Z" fill="#ff0000" fill-rule="evenodd" fill-opacity="1" stroke="#000000" stroke-opacity="1" stroke-width="3.2"></path>
<path clip-path="url(#clip350)" d="M1916.06 312.601 L2669.47 312.601 L2669.47 157.081 L1916.06 157.081  Z" fill="#ffffff" fill-rule="evenodd" fill-opacity="1"></path>
<polyline clip-path="url(#clip350)" style="stroke:#000000; stroke-linecap:round; stroke-linejoin:round; stroke-width:4; stroke-opacity:1; fill:none" points="1916.06,312.601 2669.47,312.601 2669.47,157.081 1916.06,157.081 1916.06,312.601 "></polyline>
<polyline clip-path="url(#clip350)" style="stroke:#0000ff; stroke-linecap:round; stroke-linejoin:round; stroke-width:4; stroke-opacity:1; fill:none" points="1943.82,208.921 2110.4,208.921 "></polyline>
<circle clip-path="url(#clip350)" cx="2027.11" cy="208.921" r="20.48" fill="#0000ff" fill-rule="evenodd" fill-opacity="1" stroke="#000000" stroke-opacity="1" stroke-width="4.55111"></circle>
<path clip-path="url(#clip350)" d="M2142.84 209.697 L2142.84 222.359 L2150.34 222.359 Q2154.11 222.359 2155.92 220.808 Q2157.75 219.234 2157.75 216.016 Q2157.75 212.776 2155.92 211.248 Q2154.11 209.697 2150.34 209.697 L2142.84 209.697 M2142.84 195.484 L2142.84 205.901 L2149.76 205.901 Q2153.19 205.901 2154.85 204.627 Q2156.54 203.331 2156.54 200.692 Q2156.54 198.077 2154.85 196.78 Q2153.19 195.484 2149.76 195.484 L2142.84 195.484 M2138.16 191.641 L2150.11 191.641 Q2155.46 191.641 2158.35 193.864 Q2161.24 196.086 2161.24 200.183 Q2161.24 203.354 2159.76 205.229 Q2158.28 207.104 2155.41 207.567 Q2158.86 208.308 2160.76 210.669 Q2162.68 213.007 2162.68 216.525 Q2162.68 221.155 2159.53 223.678 Q2156.38 226.201 2150.57 226.201 L2138.16 226.201 L2138.16 191.641 Z" fill="#000000" fill-rule="nonzero" fill-opacity="1"></path><path clip-path="url(#clip350)" d="M2192.68 212.174 L2192.68 214.257 L2173.1 214.257 Q2173.37 218.655 2175.73 220.97 Q2178.12 223.262 2182.35 223.262 Q2184.81 223.262 2187.1 222.66 Q2189.41 222.058 2191.68 220.854 L2191.68 224.882 Q2189.39 225.854 2186.98 226.363 Q2184.58 226.873 2182.1 226.873 Q2175.9 226.873 2172.26 223.262 Q2168.65 219.65 2168.65 213.493 Q2168.65 207.127 2172.08 203.401 Q2175.53 199.651 2181.36 199.651 Q2186.59 199.651 2189.62 203.03 Q2192.68 206.387 2192.68 212.174 M2188.42 210.924 Q2188.37 207.428 2186.45 205.345 Q2184.55 203.262 2181.41 203.262 Q2177.84 203.262 2175.69 205.276 Q2173.56 207.289 2173.23 210.947 L2188.42 210.924 Z" fill="#000000" fill-rule="nonzero" fill-opacity="1"></path><path clip-path="url(#clip350)" d="M2212.79 190.183 L2212.79 193.725 L2208.72 193.725 Q2206.43 193.725 2205.53 194.651 Q2204.65 195.577 2204.65 197.984 L2204.65 200.276 L2211.66 200.276 L2211.66 203.586 L2204.65 203.586 L2204.65 226.201 L2200.36 226.201 L2200.36 203.586 L2196.29 203.586 L2196.29 200.276 L2200.36 200.276 L2200.36 198.47 Q2200.36 194.141 2202.38 192.174 Q2204.39 190.183 2208.77 190.183 L2212.79 190.183 Z" fill="#000000" fill-rule="nonzero" fill-opacity="1"></path><path clip-path="url(#clip350)" d="M2226.41 203.262 Q2222.98 203.262 2220.99 205.947 Q2219 208.609 2219 213.262 Q2219 217.914 2220.97 220.6 Q2222.96 223.262 2226.41 223.262 Q2229.81 223.262 2231.8 220.576 Q2233.79 217.891 2233.79 213.262 Q2233.79 208.655 2231.8 205.97 Q2229.81 203.262 2226.41 203.262 M2226.41 199.651 Q2231.96 199.651 2235.13 203.262 Q2238.3 206.873 2238.3 213.262 Q2238.3 219.627 2235.13 223.262 Q2231.96 226.873 2226.41 226.873 Q2220.83 226.873 2217.66 223.262 Q2214.51 219.627 2214.51 213.262 Q2214.51 206.873 2217.66 203.262 Q2220.83 199.651 2226.41 199.651 Z" fill="#000000" fill-rule="nonzero" fill-opacity="1"></path><path clip-path="url(#clip350)" d="M2260.39 204.257 Q2259.67 203.84 2258.81 203.655 Q2257.98 203.447 2256.96 203.447 Q2253.35 203.447 2251.41 205.808 Q2249.48 208.146 2249.48 212.544 L2249.48 226.201 L2245.2 226.201 L2245.2 200.276 L2249.48 200.276 L2249.48 204.303 Q2250.83 201.942 2252.98 200.808 Q2255.13 199.651 2258.21 199.651 Q2258.65 199.651 2259.18 199.72 Q2259.72 199.766 2260.36 199.882 L2260.39 204.257 Z" fill="#000000" fill-rule="nonzero" fill-opacity="1"></path><path clip-path="url(#clip350)" d="M2285.99 212.174 L2285.99 214.257 L2266.4 214.257 Q2266.68 218.655 2269.04 220.97 Q2271.43 223.262 2275.66 223.262 Q2278.12 223.262 2280.41 222.66 Q2282.72 222.058 2284.99 220.854 L2284.99 224.882 Q2282.7 225.854 2280.29 226.363 Q2277.89 226.873 2275.41 226.873 Q2269.21 226.873 2265.57 223.262 Q2261.96 219.65 2261.96 213.493 Q2261.96 207.127 2265.39 203.401 Q2268.84 199.651 2274.67 199.651 Q2279.9 199.651 2282.93 203.03 Q2285.99 206.387 2285.99 212.174 M2281.73 210.924 Q2281.68 207.428 2279.76 205.345 Q2277.86 203.262 2274.72 203.262 Q2271.15 203.262 2269 205.276 Q2266.87 207.289 2266.54 210.947 L2281.73 210.924 Z" fill="#000000" fill-rule="nonzero" fill-opacity="1"></path><path clip-path="url(#clip350)" d="M2334.11 194.303 L2334.11 199.234 Q2331.75 197.035 2329.07 195.947 Q2326.4 194.859 2323.4 194.859 Q2317.47 194.859 2314.32 198.493 Q2311.17 202.104 2311.17 208.956 Q2311.17 215.785 2314.32 219.419 Q2317.47 223.03 2323.4 223.03 Q2326.4 223.03 2329.07 221.942 Q2331.75 220.854 2334.11 218.655 L2334.11 223.539 Q2331.66 225.206 2328.9 226.039 Q2326.17 226.873 2323.12 226.873 Q2315.27 226.873 2310.76 222.081 Q2306.24 217.266 2306.24 208.956 Q2306.24 200.623 2310.76 195.831 Q2315.27 191.016 2323.12 191.016 Q2326.22 191.016 2328.95 191.85 Q2331.71 192.66 2334.11 194.303 Z" fill="#000000" fill-rule="nonzero" fill-opacity="1"></path><path clip-path="url(#clip350)" d="M2351.2 203.262 Q2347.77 203.262 2345.78 205.947 Q2343.79 208.609 2343.79 213.262 Q2343.79 217.914 2345.76 220.6 Q2347.75 223.262 2351.2 223.262 Q2354.6 223.262 2356.59 220.576 Q2358.58 217.891 2358.58 213.262 Q2358.58 208.655 2356.59 205.97 Q2354.6 203.262 2351.2 203.262 M2351.2 199.651 Q2356.75 199.651 2359.92 203.262 Q2363.09 206.873 2363.09 213.262 Q2363.09 219.627 2359.92 223.262 Q2356.75 226.873 2351.2 226.873 Q2345.62 226.873 2342.45 223.262 Q2339.3 219.627 2339.3 213.262 Q2339.3 206.873 2342.45 203.262 Q2345.62 199.651 2351.2 199.651 Z" fill="#000000" fill-rule="nonzero" fill-opacity="1"></path><path clip-path="url(#clip350)" d="M2390.34 205.252 Q2391.94 202.382 2394.16 201.016 Q2396.38 199.651 2399.39 199.651 Q2403.44 199.651 2405.64 202.498 Q2407.84 205.322 2407.84 210.553 L2407.84 226.201 L2403.56 226.201 L2403.56 210.692 Q2403.56 206.965 2402.24 205.16 Q2400.92 203.354 2398.21 203.354 Q2394.9 203.354 2392.98 205.553 Q2391.06 207.752 2391.06 211.549 L2391.06 226.201 L2386.77 226.201 L2386.77 210.692 Q2386.77 206.942 2385.46 205.16 Q2384.14 203.354 2381.38 203.354 Q2378.12 203.354 2376.2 205.576 Q2374.27 207.776 2374.27 211.549 L2374.27 226.201 L2369.99 226.201 L2369.99 200.276 L2374.27 200.276 L2374.27 204.303 Q2375.73 201.919 2377.77 200.785 Q2379.81 199.651 2382.61 199.651 Q2385.43 199.651 2387.4 201.086 Q2389.39 202.521 2390.34 205.252 Z" fill="#000000" fill-rule="nonzero" fill-opacity="1"></path><path clip-path="url(#clip350)" d="M2420.46 222.312 L2420.46 236.062 L2416.17 236.062 L2416.17 200.276 L2420.46 200.276 L2420.46 204.211 Q2421.8 201.896 2423.83 200.785 Q2425.89 199.651 2428.74 199.651 Q2433.46 199.651 2436.4 203.401 Q2439.37 207.151 2439.37 213.262 Q2439.37 219.373 2436.4 223.123 Q2433.46 226.873 2428.74 226.873 Q2425.89 226.873 2423.83 225.762 Q2421.8 224.627 2420.46 222.312 M2434.95 213.262 Q2434.95 208.563 2433 205.901 Q2431.08 203.215 2427.7 203.215 Q2424.32 203.215 2422.38 205.901 Q2420.46 208.563 2420.46 213.262 Q2420.46 217.961 2422.38 220.646 Q2424.32 223.308 2427.7 223.308 Q2431.08 223.308 2433 220.646 Q2434.95 217.961 2434.95 213.262 Z" fill="#000000" fill-rule="nonzero" fill-opacity="1"></path><path clip-path="url(#clip350)" d="M2468.6 212.174 L2468.6 214.257 L2449.02 214.257 Q2449.3 218.655 2451.66 220.97 Q2454.04 223.262 2458.28 223.262 Q2460.73 223.262 2463.02 222.66 Q2465.34 222.058 2467.61 220.854 L2467.61 224.882 Q2465.32 225.854 2462.91 226.363 Q2460.5 226.873 2458.02 226.873 Q2451.82 226.873 2448.19 223.262 Q2444.58 219.65 2444.58 213.493 Q2444.58 207.127 2448 203.401 Q2451.45 199.651 2457.28 199.651 Q2462.52 199.651 2465.55 203.03 Q2468.6 206.387 2468.6 212.174 M2464.34 210.924 Q2464.3 207.428 2462.38 205.345 Q2460.48 203.262 2457.33 203.262 Q2453.77 203.262 2451.61 205.276 Q2449.48 207.289 2449.16 210.947 L2464.34 210.924 Z" fill="#000000" fill-rule="nonzero" fill-opacity="1"></path><path clip-path="url(#clip350)" d="M2497.14 210.553 L2497.14 226.201 L2492.89 226.201 L2492.89 210.692 Q2492.89 207.012 2491.45 205.183 Q2490.01 203.354 2487.14 203.354 Q2483.7 203.354 2481.7 205.553 Q2479.71 207.752 2479.71 211.549 L2479.71 226.201 L2475.43 226.201 L2475.43 200.276 L2479.71 200.276 L2479.71 204.303 Q2481.24 201.965 2483.3 200.808 Q2485.39 199.651 2488.09 199.651 Q2492.56 199.651 2494.85 202.428 Q2497.14 205.183 2497.14 210.553 Z" fill="#000000" fill-rule="nonzero" fill-opacity="1"></path><path clip-path="url(#clip350)" d="M2522.17 201.039 L2522.17 205.067 Q2520.36 204.141 2518.42 203.678 Q2516.47 203.215 2514.39 203.215 Q2511.22 203.215 2509.62 204.188 Q2508.05 205.16 2508.05 207.104 Q2508.05 208.586 2509.18 209.442 Q2510.32 210.276 2513.74 211.039 L2515.2 211.363 Q2519.74 212.336 2521.64 214.118 Q2523.56 215.877 2523.56 219.049 Q2523.56 222.66 2520.69 224.766 Q2517.84 226.873 2512.84 226.873 Q2510.76 226.873 2508.49 226.456 Q2506.24 226.062 2503.74 225.252 L2503.74 220.854 Q2506.1 222.081 2508.39 222.706 Q2510.69 223.308 2512.93 223.308 Q2515.94 223.308 2517.56 222.289 Q2519.18 221.248 2519.18 219.373 Q2519.18 217.637 2518 216.711 Q2516.84 215.785 2512.89 214.928 L2511.4 214.581 Q2507.45 213.748 2505.69 212.035 Q2503.93 210.299 2503.93 207.289 Q2503.93 203.632 2506.52 201.641 Q2509.11 199.651 2513.88 199.651 Q2516.24 199.651 2518.32 199.998 Q2520.41 200.345 2522.17 201.039 Z" fill="#000000" fill-rule="nonzero" fill-opacity="1"></path><path clip-path="url(#clip350)" d="M2542.12 213.169 Q2536.96 213.169 2534.97 214.35 Q2532.98 215.53 2532.98 218.377 Q2532.98 220.646 2534.46 221.988 Q2535.96 223.308 2538.53 223.308 Q2542.07 223.308 2544.2 220.808 Q2546.36 218.285 2546.36 214.118 L2546.36 213.169 L2542.12 213.169 M2550.62 211.41 L2550.62 226.201 L2546.36 226.201 L2546.36 222.266 Q2544.9 224.627 2542.72 225.762 Q2540.55 226.873 2537.4 226.873 Q2533.42 226.873 2531.06 224.65 Q2528.72 222.405 2528.72 218.655 Q2528.72 214.28 2531.64 212.058 Q2534.57 209.836 2540.38 209.836 L2546.36 209.836 L2546.36 209.419 Q2546.36 206.479 2544.41 204.882 Q2542.49 203.262 2539 203.262 Q2536.77 203.262 2534.67 203.794 Q2532.56 204.326 2530.62 205.391 L2530.62 201.456 Q2532.95 200.553 2535.15 200.114 Q2537.35 199.651 2539.44 199.651 Q2545.06 199.651 2547.84 202.567 Q2550.62 205.484 2550.62 211.41 Z" fill="#000000" fill-rule="nonzero" fill-opacity="1"></path><path clip-path="url(#clip350)" d="M2563.6 192.914 L2563.6 200.276 L2572.38 200.276 L2572.38 203.586 L2563.6 203.586 L2563.6 217.66 Q2563.6 220.831 2564.46 221.734 Q2565.34 222.637 2568 222.637 L2572.38 222.637 L2572.38 226.201 L2568 226.201 Q2563.07 226.201 2561.2 224.373 Q2559.32 222.521 2559.32 217.66 L2559.32 203.586 L2556.2 203.586 L2556.2 200.276 L2559.32 200.276 L2559.32 192.914 L2563.6 192.914 Z" fill="#000000" fill-rule="nonzero" fill-opacity="1"></path><path clip-path="url(#clip350)" d="M2577.98 200.276 L2582.24 200.276 L2582.24 226.201 L2577.98 226.201 L2577.98 200.276 M2577.98 190.183 L2582.24 190.183 L2582.24 195.577 L2577.98 195.577 L2577.98 190.183 Z" fill="#000000" fill-rule="nonzero" fill-opacity="1"></path><path clip-path="url(#clip350)" d="M2601.19 203.262 Q2597.77 203.262 2595.78 205.947 Q2593.79 208.609 2593.79 213.262 Q2593.79 217.914 2595.76 220.6 Q2597.75 223.262 2601.19 223.262 Q2604.6 223.262 2606.59 220.576 Q2608.58 217.891 2608.58 213.262 Q2608.58 208.655 2606.59 205.97 Q2604.6 203.262 2601.19 203.262 M2601.19 199.651 Q2606.75 199.651 2609.92 203.262 Q2613.09 206.873 2613.09 213.262 Q2613.09 219.627 2609.92 223.262 Q2606.75 226.873 2601.19 226.873 Q2595.62 226.873 2592.44 223.262 Q2589.3 219.627 2589.3 213.262 Q2589.3 206.873 2592.44 203.262 Q2595.62 199.651 2601.19 199.651 Z" fill="#000000" fill-rule="nonzero" fill-opacity="1"></path><path clip-path="url(#clip350)" d="M2641.7 210.553 L2641.7 226.201 L2637.44 226.201 L2637.44 210.692 Q2637.44 207.012 2636.01 205.183 Q2634.57 203.354 2631.7 203.354 Q2628.25 203.354 2626.26 205.553 Q2624.27 207.752 2624.27 211.549 L2624.27 226.201 L2619.99 226.201 L2619.99 200.276 L2624.27 200.276 L2624.27 204.303 Q2625.8 201.965 2627.86 200.808 Q2629.94 199.651 2632.65 199.651 Q2637.12 199.651 2639.41 202.428 Q2641.7 205.183 2641.7 210.553 Z" fill="#000000" fill-rule="nonzero" fill-opacity="1"></path><polyline clip-path="url(#clip350)" style="stroke:#ff0000; stroke-linecap:round; stroke-linejoin:round; stroke-width:4; stroke-opacity:1; fill:none" stroke-dasharray="16, 10" points="1943.82,260.761 2110.4,260.761 "></polyline>
<path clip-path="url(#clip350)" d="M2004.36 238.006 L2004.36 283.517 L2049.87 283.517 L2049.87 238.006 L2004.36 238.006 Z" fill="#ff0000" fill-rule="evenodd" fill-opacity="1" stroke="#000000" stroke-opacity="1" stroke-width="4.55111"></path>
<path clip-path="url(#clip350)" d="M2154 248.088 L2147.66 265.287 L2160.36 265.287 L2154 248.088 M2151.36 243.481 L2156.66 243.481 L2169.83 278.041 L2164.97 278.041 L2161.82 269.176 L2146.24 269.176 L2143.1 278.041 L2138.16 278.041 L2151.36 243.481 Z" fill="#000000" fill-rule="nonzero" fill-opacity="1"></path><path clip-path="url(#clip350)" d="M2186.13 242.023 L2186.13 245.565 L2182.05 245.565 Q2179.76 245.565 2178.86 246.491 Q2177.98 247.417 2177.98 249.824 L2177.98 252.116 L2184.99 252.116 L2184.99 255.426 L2177.98 255.426 L2177.98 278.041 L2173.7 278.041 L2173.7 255.426 L2169.62 255.426 L2169.62 252.116 L2173.7 252.116 L2173.7 250.31 Q2173.7 245.981 2175.71 244.014 Q2177.72 242.023 2182.1 242.023 L2186.13 242.023 Z" fill="#000000" fill-rule="nonzero" fill-opacity="1"></path><path clip-path="url(#clip350)" d="M2193.07 244.754 L2193.07 252.116 L2201.85 252.116 L2201.85 255.426 L2193.07 255.426 L2193.07 269.5 Q2193.07 272.671 2193.93 273.574 Q2194.81 274.477 2197.47 274.477 L2201.85 274.477 L2201.85 278.041 L2197.47 278.041 Q2192.54 278.041 2190.66 276.213 Q2188.79 274.361 2188.79 269.5 L2188.79 255.426 L2185.66 255.426 L2185.66 252.116 L2188.79 252.116 L2188.79 244.754 L2193.07 244.754 Z" fill="#000000" fill-rule="nonzero" fill-opacity="1"></path><path clip-path="url(#clip350)" d="M2229.62 264.014 L2229.62 266.097 L2210.04 266.097 Q2210.32 270.495 2212.68 272.81 Q2215.06 275.102 2219.3 275.102 Q2221.75 275.102 2224.04 274.5 Q2226.36 273.898 2228.63 272.694 L2228.63 276.722 Q2226.34 277.694 2223.93 278.203 Q2221.52 278.713 2219.04 278.713 Q2212.84 278.713 2209.21 275.102 Q2205.6 271.49 2205.6 265.333 Q2205.6 258.967 2209.02 255.241 Q2212.47 251.491 2218.3 251.491 Q2223.53 251.491 2226.57 254.87 Q2229.62 258.227 2229.62 264.014 M2225.36 262.764 Q2225.32 259.268 2223.4 257.185 Q2221.5 255.102 2218.35 255.102 Q2214.78 255.102 2212.63 257.116 Q2210.5 259.129 2210.18 262.787 L2225.36 262.764 Z" fill="#000000" fill-rule="nonzero" fill-opacity="1"></path><path clip-path="url(#clip350)" d="M2251.64 256.097 Q2250.92 255.68 2250.06 255.495 Q2249.23 255.287 2248.21 255.287 Q2244.6 255.287 2242.66 257.648 Q2240.73 259.986 2240.73 264.384 L2240.73 278.041 L2236.45 278.041 L2236.45 252.116 L2240.73 252.116 L2240.73 256.143 Q2242.08 253.782 2244.23 252.648 Q2246.38 251.491 2249.46 251.491 Q2249.9 251.491 2250.43 251.56 Q2250.97 251.606 2251.61 251.722 L2251.64 256.097 Z" fill="#000000" fill-rule="nonzero" fill-opacity="1"></path><path clip-path="url(#clip350)" d="M2297.24 246.143 L2297.24 251.074 Q2294.88 248.875 2292.19 247.787 Q2289.53 246.699 2286.52 246.699 Q2280.59 246.699 2277.45 250.333 Q2274.3 253.944 2274.3 260.796 Q2274.3 267.625 2277.45 271.259 Q2280.59 274.87 2286.52 274.87 Q2289.53 274.87 2292.19 273.782 Q2294.88 272.694 2297.24 270.495 L2297.24 275.379 Q2294.78 277.046 2292.03 277.879 Q2289.3 278.713 2286.24 278.713 Q2278.4 278.713 2273.88 273.921 Q2269.37 269.106 2269.37 260.796 Q2269.37 252.463 2273.88 247.671 Q2278.4 242.856 2286.24 242.856 Q2289.34 242.856 2292.08 243.69 Q2294.83 244.5 2297.24 246.143 Z" fill="#000000" fill-rule="nonzero" fill-opacity="1"></path><path clip-path="url(#clip350)" d="M2314.32 255.102 Q2310.9 255.102 2308.9 257.787 Q2306.91 260.449 2306.91 265.102 Q2306.91 269.754 2308.88 272.44 Q2310.87 275.102 2314.32 275.102 Q2317.72 275.102 2319.71 272.416 Q2321.71 269.731 2321.71 265.102 Q2321.71 260.495 2319.71 257.81 Q2317.72 255.102 2314.32 255.102 M2314.32 251.491 Q2319.88 251.491 2323.05 255.102 Q2326.22 258.713 2326.22 265.102 Q2326.22 271.467 2323.05 275.102 Q2319.88 278.713 2314.32 278.713 Q2308.74 278.713 2305.57 275.102 Q2302.42 271.467 2302.42 265.102 Q2302.42 258.713 2305.57 255.102 Q2308.74 251.491 2314.32 251.491 Z" fill="#000000" fill-rule="nonzero" fill-opacity="1"></path><path clip-path="url(#clip350)" d="M2353.46 257.092 Q2355.06 254.222 2357.28 252.856 Q2359.51 251.491 2362.52 251.491 Q2366.57 251.491 2368.77 254.338 Q2370.96 257.162 2370.96 262.393 L2370.96 278.041 L2366.68 278.041 L2366.68 262.532 Q2366.68 258.805 2365.36 257 Q2364.04 255.194 2361.34 255.194 Q2358.02 255.194 2356.1 257.393 Q2354.18 259.592 2354.18 263.389 L2354.18 278.041 L2349.9 278.041 L2349.9 262.532 Q2349.9 258.782 2348.58 257 Q2347.26 255.194 2344.51 255.194 Q2341.24 255.194 2339.32 257.416 Q2337.4 259.616 2337.4 263.389 L2337.4 278.041 L2333.12 278.041 L2333.12 252.116 L2337.4 252.116 L2337.4 256.143 Q2338.86 253.759 2340.9 252.625 Q2342.93 251.491 2345.73 251.491 Q2348.56 251.491 2350.52 252.926 Q2352.52 254.361 2353.46 257.092 Z" fill="#000000" fill-rule="nonzero" fill-opacity="1"></path><path clip-path="url(#clip350)" d="M2383.58 274.152 L2383.58 287.902 L2379.3 287.902 L2379.3 252.116 L2383.58 252.116 L2383.58 256.051 Q2384.92 253.736 2386.96 252.625 Q2389.02 251.491 2391.87 251.491 Q2396.59 251.491 2399.53 255.241 Q2402.49 258.991 2402.49 265.102 Q2402.49 271.213 2399.53 274.963 Q2396.59 278.713 2391.87 278.713 Q2389.02 278.713 2386.96 277.602 Q2384.92 276.467 2383.58 274.152 M2398.07 265.102 Q2398.07 260.403 2396.13 257.741 Q2394.21 255.055 2390.83 255.055 Q2387.45 255.055 2385.5 257.741 Q2383.58 260.403 2383.58 265.102 Q2383.58 269.801 2385.5 272.486 Q2387.45 275.148 2390.83 275.148 Q2394.21 275.148 2396.13 272.486 Q2398.07 269.801 2398.07 265.102 Z" fill="#000000" fill-rule="nonzero" fill-opacity="1"></path><path clip-path="url(#clip350)" d="M2431.73 264.014 L2431.73 266.097 L2412.14 266.097 Q2412.42 270.495 2414.78 272.81 Q2417.17 275.102 2421.4 275.102 Q2423.86 275.102 2426.15 274.5 Q2428.46 273.898 2430.73 272.694 L2430.73 276.722 Q2428.44 277.694 2426.03 278.203 Q2423.63 278.713 2421.15 278.713 Q2414.95 278.713 2411.31 275.102 Q2407.7 271.49 2407.7 265.333 Q2407.7 258.967 2411.13 255.241 Q2414.58 251.491 2420.41 251.491 Q2425.64 251.491 2428.67 254.87 Q2431.73 258.227 2431.73 264.014 M2427.47 262.764 Q2427.42 259.268 2425.5 257.185 Q2423.6 255.102 2420.46 255.102 Q2416.89 255.102 2414.74 257.116 Q2412.61 259.129 2412.28 262.787 L2427.47 262.764 Z" fill="#000000" fill-rule="nonzero" fill-opacity="1"></path><path clip-path="url(#clip350)" d="M2460.27 262.393 L2460.27 278.041 L2456.01 278.041 L2456.01 262.532 Q2456.01 258.852 2454.58 257.023 Q2453.14 255.194 2450.27 255.194 Q2446.82 255.194 2444.83 257.393 Q2442.84 259.592 2442.84 263.389 L2442.84 278.041 L2438.56 278.041 L2438.56 252.116 L2442.84 252.116 L2442.84 256.143 Q2444.37 253.805 2446.43 252.648 Q2448.51 251.491 2451.22 251.491 Q2455.69 251.491 2457.98 254.268 Q2460.27 257.023 2460.27 262.393 Z" fill="#000000" fill-rule="nonzero" fill-opacity="1"></path><path clip-path="url(#clip350)" d="M2485.29 252.879 L2485.29 256.907 Q2483.49 255.981 2481.54 255.518 Q2479.6 255.055 2477.51 255.055 Q2474.34 255.055 2472.75 256.028 Q2471.17 257 2471.17 258.944 Q2471.17 260.426 2472.31 261.282 Q2473.44 262.116 2476.87 262.879 L2478.33 263.203 Q2482.86 264.176 2484.76 265.958 Q2486.68 267.717 2486.68 270.889 Q2486.68 274.5 2483.81 276.606 Q2480.96 278.713 2475.96 278.713 Q2473.88 278.713 2471.61 278.296 Q2469.37 277.902 2466.87 277.092 L2466.87 272.694 Q2469.23 273.921 2471.52 274.546 Q2473.81 275.148 2476.06 275.148 Q2479.07 275.148 2480.69 274.129 Q2482.31 273.088 2482.31 271.213 Q2482.31 269.477 2481.13 268.551 Q2479.97 267.625 2476.01 266.768 L2474.53 266.421 Q2470.57 265.588 2468.81 263.875 Q2467.05 262.139 2467.05 259.129 Q2467.05 255.472 2469.64 253.481 Q2472.24 251.491 2477.01 251.491 Q2479.37 251.491 2481.45 251.838 Q2483.53 252.185 2485.29 252.879 Z" fill="#000000" fill-rule="nonzero" fill-opacity="1"></path><path clip-path="url(#clip350)" d="M2505.25 265.009 Q2500.08 265.009 2498.09 266.19 Q2496.1 267.37 2496.1 270.217 Q2496.1 272.486 2497.58 273.828 Q2499.09 275.148 2501.66 275.148 Q2505.2 275.148 2507.33 272.648 Q2509.48 270.125 2509.48 265.958 L2509.48 265.009 L2505.25 265.009 M2513.74 263.25 L2513.74 278.041 L2509.48 278.041 L2509.48 274.106 Q2508.02 276.467 2505.85 277.602 Q2503.67 278.713 2500.52 278.713 Q2496.54 278.713 2494.18 276.49 Q2491.84 274.245 2491.84 270.495 Q2491.84 266.12 2494.76 263.898 Q2497.7 261.676 2503.51 261.676 L2509.48 261.676 L2509.48 261.259 Q2509.48 258.319 2507.54 256.722 Q2505.62 255.102 2502.12 255.102 Q2499.9 255.102 2497.79 255.634 Q2495.69 256.166 2493.74 257.231 L2493.74 253.296 Q2496.08 252.393 2498.28 251.954 Q2500.48 251.491 2502.56 251.491 Q2508.19 251.491 2510.96 254.407 Q2513.74 257.324 2513.74 263.25 Z" fill="#000000" fill-rule="nonzero" fill-opacity="1"></path><path clip-path="url(#clip350)" d="M2526.73 244.754 L2526.73 252.116 L2535.5 252.116 L2535.5 255.426 L2526.73 255.426 L2526.73 269.5 Q2526.73 272.671 2527.58 273.574 Q2528.46 274.477 2531.13 274.477 L2535.5 274.477 L2535.5 278.041 L2531.13 278.041 Q2526.2 278.041 2524.32 276.213 Q2522.45 274.361 2522.45 269.5 L2522.45 255.426 L2519.32 255.426 L2519.32 252.116 L2522.45 252.116 L2522.45 244.754 L2526.73 244.754 Z" fill="#000000" fill-rule="nonzero" fill-opacity="1"></path><path clip-path="url(#clip350)" d="M2541.1 252.116 L2545.36 252.116 L2545.36 278.041 L2541.1 278.041 L2541.1 252.116 M2541.1 242.023 L2545.36 242.023 L2545.36 247.417 L2541.1 247.417 L2541.1 242.023 Z" fill="#000000" fill-rule="nonzero" fill-opacity="1"></path><path clip-path="url(#clip350)" d="M2564.32 255.102 Q2560.89 255.102 2558.9 257.787 Q2556.91 260.449 2556.91 265.102 Q2556.91 269.754 2558.88 272.44 Q2560.87 275.102 2564.32 275.102 Q2567.72 275.102 2569.71 272.416 Q2571.7 269.731 2571.7 265.102 Q2571.7 260.495 2569.71 257.81 Q2567.72 255.102 2564.32 255.102 M2564.32 251.491 Q2569.88 251.491 2573.05 255.102 Q2576.22 258.713 2576.22 265.102 Q2576.22 271.467 2573.05 275.102 Q2569.88 278.713 2564.32 278.713 Q2558.74 278.713 2555.57 275.102 Q2552.42 271.467 2552.42 265.102 Q2552.42 258.713 2555.57 255.102 Q2558.74 251.491 2564.32 251.491 Z" fill="#000000" fill-rule="nonzero" fill-opacity="1"></path><path clip-path="url(#clip350)" d="M2604.83 262.393 L2604.83 278.041 L2600.57 278.041 L2600.57 262.532 Q2600.57 258.852 2599.13 257.023 Q2597.7 255.194 2594.83 255.194 Q2591.38 255.194 2589.39 257.393 Q2587.4 259.592 2587.4 263.389 L2587.4 278.041 L2583.12 278.041 L2583.12 252.116 L2587.4 252.116 L2587.4 256.143 Q2588.93 253.805 2590.99 252.648 Q2593.07 251.491 2595.78 251.491 Q2600.25 251.491 2602.54 254.268 Q2604.83 257.023 2604.83 262.393 Z" fill="#000000" fill-rule="nonzero" fill-opacity="1"></path></svg>