<svg xmlns="http://www.w3.org/2000/svg" xmlns:xlink="http://www.w3.org/1999/xlink" width="600" height="400" viewBox="0 0 2400 1600">
<defs>
  <clipPath id="clip810">
    <rect x="0" y="0" width="2400" height="1600"></rect>
  </clipPath>
</defs>
<path clip-path="url(#clip810)" d="M0 1600 L2400 1600 L2400 8.88178e-14 L0 8.88178e-14  Z" fill="#ffffff" fill-rule="evenodd" fill-opacity="1"></path>
<defs>
  <clipPath id="clip811">
    <rect x="480" y="0" width="1681" height="1600"></rect>
  </clipPath>
</defs>
<path clip-path="url(#clip810)" d="M203.964 1423.18 L2352.76 1423.18 L2352.76 123.472 L203.964 123.472  Z" fill="#ffffff" fill-rule="evenodd" fill-opacity="1"></path>
<defs>
  <clipPath id="clip812">
    <rect x="203" y="123" width="2150" height="1301"></rect>
  </clipPath>
</defs>
<polyline clip-path="url(#clip812)" style="stroke:#000000; stroke-linecap:round; stroke-linejoin:round; stroke-width:2; stroke-opacity:0.1; fill:none" points="264.778,1423.18 264.778,123.472 "></polyline>
<polyline clip-path="url(#clip812)" style="stroke:#000000; stroke-linecap:round; stroke-linejoin:round; stroke-width:2; stroke-opacity:0.1; fill:none" points="940.499,1423.18 940.499,123.472 "></polyline>
<polyline clip-path="url(#clip812)" style="stroke:#000000; stroke-linecap:round; stroke-linejoin:round; stroke-width:2; stroke-opacity:0.1; fill:none" points="1616.22,1423.18 1616.22,123.472 "></polyline>
<polyline clip-path="url(#clip812)" style="stroke:#000000; stroke-linecap:round; stroke-linejoin:round; stroke-width:2; stroke-opacity:0.1; fill:none" points="2291.94,1423.18 2291.94,123.472 "></polyline>
<polyline clip-path="url(#clip812)" style="stroke:#000000; stroke-linecap:round; stroke-linejoin:round; stroke-width:2; stroke-opacity:0.1; fill:none" points="203.964,1389.61 2352.76,1389.61 "></polyline>
<polyline clip-path="url(#clip812)" style="stroke:#000000; stroke-linecap:round; stroke-linejoin:round; stroke-width:2; stroke-opacity:0.1; fill:none" points="203.964,990.881 2352.76,990.881 "></polyline>
<polyline clip-path="url(#clip812)" style="stroke:#000000; stroke-linecap:round; stroke-linejoin:round; stroke-width:2; stroke-opacity:0.1; fill:none" points="203.964,592.151 2352.76,592.151 "></polyline>
<polyline clip-path="url(#clip812)" style="stroke:#000000; stroke-linecap:round; stroke-linejoin:round; stroke-width:2; stroke-opacity:0.1; fill:none" points="203.964,193.422 2352.76,193.422 "></polyline>
<polyline clip-path="url(#clip810)" style="stroke:#000000; stroke-linecap:round; stroke-linejoin:round; stroke-width:4; stroke-opacity:1; fill:none" points="203.964,1423.18 2352.76,1423.18 "></polyline>
<polyline clip-path="url(#clip810)" style="stroke:#000000; stroke-linecap:round; stroke-linejoin:round; stroke-width:4; stroke-opacity:1; fill:none" points="264.778,1423.18 264.778,1404.28 "></polyline>
<polyline clip-path="url(#clip810)" style="stroke:#000000; stroke-linecap:round; stroke-linejoin:round; stroke-width:4; stroke-opacity:1; fill:none" points="940.499,1423.18 940.499,1404.28 "></polyline>
<polyline clip-path="url(#clip810)" style="stroke:#000000; stroke-linecap:round; stroke-linejoin:round; stroke-width:4; stroke-opacity:1; fill:none" points="1616.22,1423.18 1616.22,1404.28 "></polyline>
<polyline clip-path="url(#clip810)" style="stroke:#000000; stroke-linecap:round; stroke-linejoin:round; stroke-width:4; stroke-opacity:1; fill:none" points="2291.94,1423.18 2291.94,1404.28 "></polyline>
<path clip-path="url(#clip810)" d="M177.453 1454.86 L177.453 1467.85 L183.332 1467.85 Q186.596 1467.85 188.378 1466.16 Q190.161 1464.47 190.161 1461.34 Q190.161 1458.24 188.378 1456.55 Q186.596 1454.86 183.332 1454.86 L177.453 1454.86 M172.777 1451.02 L183.332 1451.02 Q189.142 1451.02 192.105 1453.66 Q195.091 1456.27 195.091 1461.34 Q195.091 1466.46 192.105 1469.08 Q189.142 1471.69 183.332 1471.69 L177.453 1471.69 L177.453 1485.58 L172.777 1485.58 L172.777 1451.02 Z" fill="#000000" fill-rule="nonzero" fill-opacity="1"></path><path clip-path="url(#clip810)" d="M222.73 1469.93 L222.73 1485.58 L218.471 1485.58 L218.471 1470.07 Q218.471 1466.39 217.036 1464.56 Q215.6 1462.73 212.73 1462.73 Q209.281 1462.73 207.29 1464.93 Q205.3 1467.13 205.3 1470.93 L205.3 1485.58 L201.017 1485.58 L201.017 1449.56 L205.3 1449.56 L205.3 1463.68 Q206.827 1461.34 208.888 1460.19 Q210.971 1459.03 213.679 1459.03 Q218.147 1459.03 220.438 1461.81 Q222.73 1464.56 222.73 1469.93 Z" fill="#000000" fill-rule="nonzero" fill-opacity="1"></path><path clip-path="url(#clip810)" d="M243.008 1472.55 Q237.846 1472.55 235.855 1473.73 Q233.864 1474.91 233.864 1477.76 Q233.864 1480.02 235.346 1481.37 Q236.85 1482.69 239.42 1482.69 Q242.961 1482.69 245.091 1480.19 Q247.244 1477.66 247.244 1473.5 L247.244 1472.55 L243.008 1472.55 M251.503 1470.79 L251.503 1485.58 L247.244 1485.58 L247.244 1481.64 Q245.785 1484.01 243.61 1485.14 Q241.434 1486.25 238.286 1486.25 Q234.304 1486.25 231.943 1484.03 Q229.605 1481.78 229.605 1478.03 Q229.605 1473.66 232.522 1471.44 Q235.461 1469.21 241.272 1469.21 L247.244 1469.21 L247.244 1468.8 Q247.244 1465.86 245.299 1464.26 Q243.378 1462.64 239.883 1462.64 Q237.661 1462.64 235.554 1463.17 Q233.448 1463.7 231.503 1464.77 L231.503 1460.83 Q233.841 1459.93 236.04 1459.49 Q238.239 1459.03 240.323 1459.03 Q245.948 1459.03 248.725 1461.95 Q251.503 1464.86 251.503 1470.79 Z" fill="#000000" fill-rule="nonzero" fill-opacity="1"></path><path clip-path="url(#clip810)" d="M276.804 1460.42 L276.804 1464.45 Q274.998 1463.52 273.054 1463.06 Q271.109 1462.59 269.026 1462.59 Q265.855 1462.59 264.258 1463.57 Q262.684 1464.54 262.684 1466.48 Q262.684 1467.96 263.818 1468.82 Q264.952 1469.65 268.378 1470.42 L269.836 1470.74 Q274.373 1471.71 276.271 1473.5 Q278.193 1475.26 278.193 1478.43 Q278.193 1482.04 275.322 1484.14 Q272.475 1486.25 267.475 1486.25 Q265.392 1486.25 263.123 1485.83 Q260.878 1485.44 258.378 1484.63 L258.378 1480.23 Q260.739 1481.46 263.031 1482.08 Q265.322 1482.69 267.568 1482.69 Q270.577 1482.69 272.197 1481.67 Q273.818 1480.63 273.818 1478.75 Q273.818 1477.02 272.637 1476.09 Q271.48 1475.16 267.521 1474.31 L266.04 1473.96 Q262.082 1473.13 260.322 1471.41 Q258.563 1469.68 258.563 1466.67 Q258.563 1463.01 261.156 1461.02 Q263.748 1459.03 268.517 1459.03 Q270.878 1459.03 272.961 1459.38 Q275.045 1459.72 276.804 1460.42 Z" fill="#000000" fill-rule="nonzero" fill-opacity="1"></path><path clip-path="url(#clip810)" d="M307.151 1471.55 L307.151 1473.64 L287.568 1473.64 Q287.845 1478.03 290.207 1480.35 Q292.591 1482.64 296.827 1482.64 Q299.281 1482.64 301.572 1482.04 Q303.887 1481.44 306.156 1480.23 L306.156 1484.26 Q303.864 1485.23 301.456 1485.74 Q299.049 1486.25 296.572 1486.25 Q290.369 1486.25 286.734 1482.64 Q283.123 1479.03 283.123 1472.87 Q283.123 1466.51 286.549 1462.78 Q289.998 1459.03 295.832 1459.03 Q301.063 1459.03 304.095 1462.41 Q307.151 1465.77 307.151 1471.55 M302.892 1470.3 Q302.845 1466.81 300.924 1464.72 Q299.026 1462.64 295.878 1462.64 Q292.313 1462.64 290.16 1464.65 Q288.031 1466.67 287.707 1470.33 L302.892 1470.3 Z" fill="#000000" fill-rule="nonzero" fill-opacity="1"></path><path clip-path="url(#clip810)" d="M340.947 1455.63 L334.604 1472.83 L347.313 1472.83 L340.947 1455.63 M338.308 1451.02 L343.609 1451.02 L356.78 1485.58 L351.919 1485.58 L348.771 1476.71 L333.192 1476.71 L330.044 1485.58 L325.114 1485.58 L338.308 1451.02 Z" fill="#000000" fill-rule="nonzero" fill-opacity="1"></path><path clip-path="url(#clip810)" d="M854.609 1454.86 L854.609 1467.85 L860.488 1467.85 Q863.752 1467.85 865.534 1466.16 Q867.317 1464.47 867.317 1461.34 Q867.317 1458.24 865.534 1456.55 Q863.752 1454.86 860.488 1454.86 L854.609 1454.86 M849.933 1451.02 L860.488 1451.02 Q866.298 1451.02 869.261 1453.66 Q872.247 1456.27 872.247 1461.34 Q872.247 1466.46 869.261 1469.08 Q866.298 1471.69 860.488 1471.69 L854.609 1471.69 L854.609 1485.58 L849.933 1485.58 L849.933 1451.02 Z" fill="#000000" fill-rule="nonzero" fill-opacity="1"></path><path clip-path="url(#clip810)" d="M899.886 1469.93 L899.886 1485.58 L895.627 1485.58 L895.627 1470.07 Q895.627 1466.39 894.192 1464.56 Q892.757 1462.73 889.886 1462.73 Q886.437 1462.73 884.446 1464.93 Q882.456 1467.13 882.456 1470.93 L882.456 1485.58 L878.173 1485.58 L878.173 1449.56 L882.456 1449.56 L882.456 1463.68 Q883.983 1461.34 886.044 1460.19 Q888.127 1459.03 890.835 1459.03 Q895.303 1459.03 897.594 1461.81 Q899.886 1464.56 899.886 1469.93 Z" fill="#000000" fill-rule="nonzero" fill-opacity="1"></path><path clip-path="url(#clip810)" d="M920.164 1472.55 Q915.002 1472.55 913.011 1473.73 Q911.02 1474.91 911.02 1477.76 Q911.02 1480.02 912.502 1481.37 Q914.006 1482.69 916.576 1482.69 Q920.117 1482.69 922.247 1480.19 Q924.4 1477.66 924.4 1473.5 L924.4 1472.55 L920.164 1472.55 M928.659 1470.79 L928.659 1485.58 L924.4 1485.58 L924.4 1481.64 Q922.942 1484.01 920.766 1485.14 Q918.59 1486.25 915.442 1486.25 Q911.46 1486.25 909.099 1484.03 Q906.761 1481.78 906.761 1478.03 Q906.761 1473.66 909.678 1471.44 Q912.618 1469.21 918.428 1469.21 L924.4 1469.21 L924.4 1468.8 Q924.4 1465.86 922.455 1464.26 Q920.534 1462.64 917.039 1462.64 Q914.817 1462.64 912.71 1463.17 Q910.604 1463.7 908.659 1464.77 L908.659 1460.83 Q910.997 1459.93 913.196 1459.49 Q915.395 1459.03 917.479 1459.03 Q923.104 1459.03 925.881 1461.95 Q928.659 1464.86 928.659 1470.79 Z" fill="#000000" fill-rule="nonzero" fill-opacity="1"></path><path clip-path="url(#clip810)" d="M953.96 1460.42 L953.96 1464.45 Q952.154 1463.52 950.21 1463.06 Q948.265 1462.59 946.182 1462.59 Q943.011 1462.59 941.414 1463.57 Q939.84 1464.54 939.84 1466.48 Q939.84 1467.96 940.974 1468.82 Q942.108 1469.65 945.534 1470.42 L946.992 1470.74 Q951.529 1471.71 953.427 1473.5 Q955.349 1475.26 955.349 1478.43 Q955.349 1482.04 952.478 1484.14 Q949.631 1486.25 944.631 1486.25 Q942.548 1486.25 940.279 1485.83 Q938.034 1485.44 935.534 1484.63 L935.534 1480.23 Q937.895 1481.46 940.187 1482.08 Q942.478 1482.69 944.724 1482.69 Q947.733 1482.69 949.353 1481.67 Q950.974 1480.63 950.974 1478.75 Q950.974 1477.02 949.793 1476.09 Q948.636 1475.16 944.678 1474.31 L943.196 1473.96 Q939.238 1473.13 937.478 1471.41 Q935.719 1469.68 935.719 1466.67 Q935.719 1463.01 938.312 1461.02 Q940.904 1459.03 945.673 1459.03 Q948.034 1459.03 950.117 1459.38 Q952.201 1459.72 953.96 1460.42 Z" fill="#000000" fill-rule="nonzero" fill-opacity="1"></path><path clip-path="url(#clip810)" d="M984.307 1471.55 L984.307 1473.64 L964.724 1473.64 Q965.001 1478.03 967.363 1480.35 Q969.747 1482.64 973.983 1482.64 Q976.437 1482.64 978.728 1482.04 Q981.043 1481.44 983.312 1480.23 L983.312 1484.26 Q981.02 1485.23 978.613 1485.74 Q976.205 1486.25 973.728 1486.25 Q967.525 1486.25 963.89 1482.64 Q960.279 1479.03 960.279 1472.87 Q960.279 1466.51 963.705 1462.78 Q967.154 1459.03 972.988 1459.03 Q978.219 1459.03 981.251 1462.41 Q984.307 1465.77 984.307 1471.55 M980.048 1470.3 Q980.001 1466.81 978.08 1464.72 Q976.182 1462.64 973.034 1462.64 Q969.469 1462.64 967.316 1464.65 Q965.187 1466.67 964.863 1470.33 L980.048 1470.3 Z" fill="#000000" fill-rule="nonzero" fill-opacity="1"></path><path clip-path="url(#clip810)" d="M1011.23 1469.08 L1011.23 1481.74 L1018.73 1481.74 Q1022.5 1481.74 1024.31 1480.19 Q1026.14 1478.61 1026.14 1475.39 Q1026.14 1472.15 1024.31 1470.63 Q1022.5 1469.08 1018.73 1469.08 L1011.23 1469.08 M1011.23 1454.86 L1011.23 1465.28 L1018.15 1465.28 Q1021.58 1465.28 1023.24 1464.01 Q1024.93 1462.71 1024.93 1460.07 Q1024.93 1457.45 1023.24 1456.16 Q1021.58 1454.86 1018.15 1454.86 L1011.23 1454.86 M1006.55 1451.02 L1018.5 1451.02 Q1023.84 1451.02 1026.74 1453.24 Q1029.63 1455.46 1029.63 1459.56 Q1029.63 1462.73 1028.15 1464.61 Q1026.67 1466.48 1023.8 1466.95 Q1027.25 1467.69 1029.14 1470.05 Q1031.07 1472.39 1031.07 1475.9 Q1031.07 1480.53 1027.92 1483.06 Q1024.77 1485.58 1018.96 1485.58 L1006.55 1485.58 L1006.55 1451.02 Z" fill="#000000" fill-rule="nonzero" fill-opacity="1"></path><path clip-path="url(#clip810)" d="M1529.65 1454.86 L1529.65 1467.85 L1535.53 1467.85 Q1538.79 1467.85 1540.57 1466.16 Q1542.35 1464.47 1542.35 1461.34 Q1542.35 1458.24 1540.57 1456.55 Q1538.79 1454.86 1535.53 1454.86 L1529.65 1454.86 M1524.97 1451.02 L1535.53 1451.02 Q1541.34 1451.02 1544.3 1453.66 Q1547.29 1456.27 1547.29 1461.34 Q1547.29 1466.46 1544.3 1469.08 Q1541.34 1471.69 1535.53 1471.69 L1529.65 1471.69 L1529.65 1485.58 L1524.97 1485.58 L1524.97 1451.02 Z" fill="#000000" fill-rule="nonzero" fill-opacity="1"></path><path clip-path="url(#clip810)" d="M1574.92 1469.93 L1574.92 1485.58 L1570.66 1485.58 L1570.66 1470.07 Q1570.66 1466.39 1569.23 1464.56 Q1567.79 1462.73 1564.92 1462.73 Q1561.48 1462.73 1559.48 1464.93 Q1557.49 1467.13 1557.49 1470.93 L1557.49 1485.58 L1553.21 1485.58 L1553.21 1449.56 L1557.49 1449.56 L1557.49 1463.68 Q1559.02 1461.34 1561.08 1460.19 Q1563.16 1459.03 1565.87 1459.03 Q1570.34 1459.03 1572.63 1461.81 Q1574.92 1464.56 1574.92 1469.93 Z" fill="#000000" fill-rule="nonzero" fill-opacity="1"></path><path clip-path="url(#clip810)" d="M1595.2 1472.55 Q1590.04 1472.55 1588.05 1473.73 Q1586.06 1474.91 1586.06 1477.76 Q1586.06 1480.02 1587.54 1481.37 Q1589.04 1482.69 1591.61 1482.69 Q1595.16 1482.69 1597.29 1480.19 Q1599.44 1477.66 1599.44 1473.5 L1599.44 1472.55 L1595.2 1472.55 M1603.7 1470.79 L1603.7 1485.58 L1599.44 1485.58 L1599.44 1481.64 Q1597.98 1484.01 1595.8 1485.14 Q1593.63 1486.25 1590.48 1486.25 Q1586.5 1486.25 1584.14 1484.03 Q1581.8 1481.78 1581.8 1478.03 Q1581.8 1473.66 1584.72 1471.44 Q1587.66 1469.21 1593.47 1469.21 L1599.44 1469.21 L1599.44 1468.8 Q1599.44 1465.86 1597.49 1464.26 Q1595.57 1462.64 1592.08 1462.64 Q1589.85 1462.64 1587.75 1463.17 Q1585.64 1463.7 1583.7 1464.77 L1583.7 1460.83 Q1586.04 1459.93 1588.23 1459.49 Q1590.43 1459.03 1592.52 1459.03 Q1598.14 1459.03 1600.92 1461.95 Q1603.7 1464.86 1603.7 1470.79 Z" fill="#000000" fill-rule="nonzero" fill-opacity="1"></path><path clip-path="url(#clip810)" d="M1629 1460.42 L1629 1464.45 Q1627.19 1463.52 1625.25 1463.06 Q1623.3 1462.59 1621.22 1462.59 Q1618.05 1462.59 1616.45 1463.57 Q1614.88 1464.54 1614.88 1466.48 Q1614.88 1467.96 1616.01 1468.82 Q1617.15 1469.65 1620.57 1470.42 L1622.03 1470.74 Q1626.57 1471.71 1628.47 1473.5 Q1630.39 1475.26 1630.39 1478.43 Q1630.39 1482.04 1627.52 1484.14 Q1624.67 1486.25 1619.67 1486.25 Q1617.59 1486.25 1615.32 1485.83 Q1613.07 1485.44 1610.57 1484.63 L1610.57 1480.23 Q1612.93 1481.46 1615.22 1482.08 Q1617.52 1482.69 1619.76 1482.69 Q1622.77 1482.69 1624.39 1481.67 Q1626.01 1480.63 1626.01 1478.75 Q1626.01 1477.02 1624.83 1476.09 Q1623.67 1475.16 1619.72 1474.31 L1618.23 1473.96 Q1614.28 1473.13 1612.52 1471.41 Q1610.76 1469.68 1610.76 1466.67 Q1610.76 1463.01 1613.35 1461.02 Q1615.94 1459.03 1620.71 1459.03 Q1623.07 1459.03 1625.16 1459.38 Q1627.24 1459.72 1629 1460.42 Z" fill="#000000" fill-rule="nonzero" fill-opacity="1"></path><path clip-path="url(#clip810)" d="M1659.34 1471.55 L1659.34 1473.64 L1639.76 1473.64 Q1640.04 1478.03 1642.4 1480.35 Q1644.78 1482.64 1649.02 1482.64 Q1651.47 1482.64 1653.77 1482.04 Q1656.08 1481.44 1658.35 1480.23 L1658.35 1484.26 Q1656.06 1485.23 1653.65 1485.74 Q1651.24 1486.25 1648.77 1486.25 Q1642.56 1486.25 1638.93 1482.64 Q1635.32 1479.03 1635.32 1472.87 Q1635.32 1466.51 1638.74 1462.78 Q1642.19 1459.03 1648.03 1459.03 Q1653.26 1459.03 1656.29 1462.41 Q1659.34 1465.77 1659.34 1471.55 M1655.09 1470.3 Q1655.04 1466.81 1653.12 1464.72 Q1651.22 1462.64 1648.07 1462.64 Q1644.51 1462.64 1642.35 1464.65 Q1640.22 1466.67 1639.9 1470.33 L1655.09 1470.3 Z" fill="#000000" fill-rule="nonzero" fill-opacity="1"></path><path clip-path="url(#clip810)" d="M1707.47 1453.68 L1707.47 1458.61 Q1705.11 1456.41 1702.42 1455.33 Q1699.76 1454.24 1696.75 1454.24 Q1690.83 1454.24 1687.68 1457.87 Q1684.53 1461.48 1684.53 1468.33 Q1684.53 1475.16 1687.68 1478.8 Q1690.83 1482.41 1696.75 1482.41 Q1699.76 1482.41 1702.42 1481.32 Q1705.11 1480.23 1707.47 1478.03 L1707.47 1482.92 Q1705.02 1484.58 1702.26 1485.42 Q1699.53 1486.25 1696.47 1486.25 Q1688.63 1486.25 1684.11 1481.46 Q1679.6 1476.64 1679.6 1468.33 Q1679.6 1460 1684.11 1455.21 Q1688.63 1450.39 1696.47 1450.39 Q1699.58 1450.39 1702.31 1451.23 Q1705.06 1452.04 1707.47 1453.68 Z" fill="#000000" fill-rule="nonzero" fill-opacity="1"></path><path clip-path="url(#clip810)" d="M2209 1451.02 L2215.3 1451.02 L2230.62 1479.93 L2230.62 1451.02 L2235.16 1451.02 L2235.16 1485.58 L2228.86 1485.58 L2213.54 1456.67 L2213.54 1485.58 L2209 1485.58 L2209 1451.02 Z" fill="#000000" fill-rule="nonzero" fill-opacity="1"></path><path clip-path="url(#clip810)" d="M2266.46 1471.55 L2266.46 1473.64 L2246.87 1473.64 Q2247.15 1478.03 2249.51 1480.35 Q2251.89 1482.64 2256.13 1482.64 Q2258.58 1482.64 2260.88 1482.04 Q2263.19 1481.44 2265.46 1480.23 L2265.46 1484.26 Q2263.17 1485.23 2260.76 1485.74 Q2258.35 1486.25 2255.88 1486.25 Q2249.67 1486.25 2246.04 1482.64 Q2242.43 1479.03 2242.43 1472.87 Q2242.43 1466.51 2245.85 1462.78 Q2249.3 1459.03 2255.14 1459.03 Q2260.37 1459.03 2263.4 1462.41 Q2266.46 1465.77 2266.46 1471.55 M2262.2 1470.3 Q2262.15 1466.81 2260.23 1464.72 Q2258.33 1462.64 2255.18 1462.64 Q2251.62 1462.64 2249.46 1464.65 Q2247.33 1466.67 2247.01 1470.33 L2262.2 1470.3 Z" fill="#000000" fill-rule="nonzero" fill-opacity="1"></path><path clip-path="url(#clip810)" d="M2273.01 1475.35 L2273.01 1459.65 L2277.27 1459.65 L2277.27 1475.19 Q2277.27 1478.87 2278.7 1480.72 Q2280.14 1482.55 2283.01 1482.55 Q2286.45 1482.55 2288.45 1480.35 Q2290.46 1478.15 2290.46 1474.35 L2290.46 1459.65 L2294.72 1459.65 L2294.72 1485.58 L2290.46 1485.58 L2290.46 1481.6 Q2288.91 1483.96 2286.85 1485.12 Q2284.81 1486.25 2282.1 1486.25 Q2277.64 1486.25 2275.32 1483.47 Q2273.01 1480.7 2273.01 1475.35 M2283.72 1459.03 L2283.72 1459.03 Z" fill="#000000" fill-rule="nonzero" fill-opacity="1"></path><path clip-path="url(#clip810)" d="M2307.7 1452.29 L2307.7 1459.65 L2316.48 1459.65 L2316.48 1462.96 L2307.7 1462.96 L2307.7 1477.04 Q2307.7 1480.21 2308.56 1481.11 Q2309.44 1482.02 2312.1 1482.02 L2316.48 1482.02 L2316.48 1485.58 L2312.1 1485.58 Q2307.17 1485.58 2305.3 1483.75 Q2303.42 1481.9 2303.42 1477.04 L2303.42 1462.96 L2300.3 1462.96 L2300.3 1459.65 L2303.42 1459.65 L2303.42 1452.29 L2307.7 1452.29 Z" fill="#000000" fill-rule="nonzero" fill-opacity="1"></path><path clip-path="url(#clip810)" d="M2337.1 1463.64 Q2336.39 1463.22 2335.53 1463.03 Q2334.7 1462.83 2333.68 1462.83 Q2330.07 1462.83 2328.12 1465.19 Q2326.2 1467.52 2326.2 1471.92 L2326.2 1485.58 L2321.92 1485.58 L2321.92 1459.65 L2326.2 1459.65 L2326.2 1463.68 Q2327.54 1461.32 2329.7 1460.19 Q2331.85 1459.03 2334.93 1459.03 Q2335.37 1459.03 2335.9 1459.1 Q2336.43 1459.14 2337.08 1459.26 L2337.1 1463.64 Z" fill="#000000" fill-rule="nonzero" fill-opacity="1"></path><path clip-path="url(#clip810)" d="M2353.35 1472.55 Q2348.19 1472.55 2346.2 1473.73 Q2344.21 1474.91 2344.21 1477.76 Q2344.21 1480.02 2345.69 1481.37 Q2347.2 1482.69 2349.76 1482.69 Q2353.31 1482.69 2355.44 1480.19 Q2357.59 1477.66 2357.59 1473.5 L2357.59 1472.55 L2353.35 1472.55 M2361.85 1470.79 L2361.85 1485.58 L2357.59 1485.58 L2357.59 1481.64 Q2356.13 1484.01 2353.95 1485.14 Q2351.78 1486.25 2348.63 1486.25 Q2344.65 1486.25 2342.29 1484.03 Q2339.95 1481.78 2339.95 1478.03 Q2339.95 1473.66 2342.87 1471.44 Q2345.81 1469.21 2351.62 1469.21 L2357.59 1469.21 L2357.59 1468.8 Q2357.59 1465.86 2355.64 1464.26 Q2353.72 1462.64 2350.23 1462.64 Q2348.01 1462.64 2345.9 1463.17 Q2343.79 1463.7 2341.85 1464.77 L2341.85 1460.83 Q2344.19 1459.93 2346.39 1459.49 Q2348.58 1459.03 2350.67 1459.03 Q2356.29 1459.03 2359.07 1461.95 Q2361.85 1464.86 2361.85 1470.79 Z" fill="#000000" fill-rule="nonzero" fill-opacity="1"></path><path clip-path="url(#clip810)" d="M2370.62 1449.56 L2374.88 1449.56 L2374.88 1485.58 L2370.62 1485.58 L2370.62 1449.56 Z" fill="#000000" fill-rule="nonzero" fill-opacity="1"></path><path clip-path="url(#clip810)" d="M1192.41 1525.81 L1192.41 1543.66 L1200.49 1543.66 Q1204.98 1543.66 1207.43 1541.34 Q1209.88 1539.02 1209.88 1534.72 Q1209.88 1530.45 1207.43 1528.13 Q1204.98 1525.81 1200.49 1525.81 L1192.41 1525.81 M1185.98 1520.52 L1200.49 1520.52 Q1208.48 1520.52 1212.55 1524.15 Q1216.66 1527.75 1216.66 1534.72 Q1216.66 1541.75 1212.55 1545.35 Q1208.48 1548.95 1200.49 1548.95 L1192.41 1548.95 L1192.41 1568.04 L1185.98 1568.04 L1185.98 1520.52 Z" fill="#000000" fill-rule="nonzero" fill-opacity="1"></path><path clip-path="url(#clip810)" d="M1254.66 1546.53 L1254.66 1568.04 L1248.81 1568.04 L1248.81 1546.72 Q1248.81 1541.66 1246.83 1539.14 Q1244.86 1536.63 1240.91 1536.63 Q1236.17 1536.63 1233.43 1539.65 Q1230.7 1542.68 1230.7 1547.9 L1230.7 1568.04 L1224.81 1568.04 L1224.81 1518.52 L1230.7 1518.52 L1230.7 1537.93 Q1232.8 1534.72 1235.63 1533.13 Q1238.49 1531.54 1242.22 1531.54 Q1248.36 1531.54 1251.51 1535.36 Q1254.66 1539.14 1254.66 1546.53 Z" fill="#000000" fill-rule="nonzero" fill-opacity="1"></path><path clip-path="url(#clip810)" d="M1282.55 1550.12 Q1275.45 1550.12 1272.71 1551.75 Q1269.97 1553.37 1269.97 1557.29 Q1269.97 1560.4 1272.01 1562.25 Q1274.08 1564.07 1277.61 1564.07 Q1282.48 1564.07 1285.41 1560.63 Q1288.37 1557.16 1288.37 1551.43 L1288.37 1550.12 L1282.55 1550.12 M1294.23 1547.71 L1294.23 1568.04 L1288.37 1568.04 L1288.37 1562.63 Q1286.36 1565.88 1283.37 1567.44 Q1280.38 1568.97 1276.05 1568.97 Q1270.58 1568.97 1267.33 1565.91 Q1264.12 1562.82 1264.12 1557.67 Q1264.12 1551.65 1268.13 1548.6 Q1272.17 1545.54 1280.16 1545.54 L1288.37 1545.54 L1288.37 1544.97 Q1288.37 1540.93 1285.7 1538.73 Q1283.05 1536.5 1278.25 1536.5 Q1275.19 1536.5 1272.3 1537.23 Q1269.4 1537.97 1266.73 1539.43 L1266.73 1534.02 Q1269.94 1532.78 1272.96 1532.17 Q1275.99 1531.54 1278.85 1531.54 Q1286.59 1531.54 1290.41 1535.55 Q1294.23 1539.56 1294.23 1547.71 Z" fill="#000000" fill-rule="nonzero" fill-opacity="1"></path><path clip-path="url(#clip810)" d="M1329.01 1533.45 L1329.01 1538.98 Q1326.53 1537.71 1323.86 1537.07 Q1321.19 1536.44 1318.32 1536.44 Q1313.96 1536.44 1311.76 1537.77 Q1309.6 1539.11 1309.6 1541.79 Q1309.6 1543.82 1311.16 1545 Q1312.72 1546.15 1317.43 1547.2 L1319.43 1547.64 Q1325.67 1548.98 1328.28 1551.43 Q1330.92 1553.85 1330.92 1558.21 Q1330.92 1563.17 1326.98 1566.07 Q1323.06 1568.97 1316.19 1568.97 Q1313.32 1568.97 1310.2 1568.39 Q1307.12 1567.85 1303.68 1566.74 L1303.68 1560.69 Q1306.93 1562.38 1310.08 1563.24 Q1313.23 1564.07 1316.32 1564.07 Q1320.45 1564.07 1322.68 1562.66 Q1324.91 1561.23 1324.91 1558.65 Q1324.91 1556.27 1323.29 1554.99 Q1321.69 1553.72 1316.25 1552.54 L1314.21 1552.07 Q1308.77 1550.92 1306.35 1548.56 Q1303.93 1546.18 1303.93 1542.04 Q1303.93 1537.01 1307.5 1534.27 Q1311.06 1531.54 1317.62 1531.54 Q1320.87 1531.54 1323.73 1532.01 Q1326.6 1532.49 1329.01 1533.45 Z" fill="#000000" fill-rule="nonzero" fill-opacity="1"></path><path clip-path="url(#clip810)" d="M1370.74 1548.76 L1370.74 1551.62 L1343.82 1551.62 Q1344.2 1557.67 1347.44 1560.85 Q1350.72 1564 1356.55 1564 Q1359.92 1564 1363.07 1563.17 Q1366.25 1562.35 1369.37 1560.69 L1369.37 1566.23 Q1366.22 1567.57 1362.91 1568.27 Q1359.6 1568.97 1356.2 1568.97 Q1347.67 1568.97 1342.67 1564 Q1337.7 1559.04 1337.7 1550.57 Q1337.7 1541.82 1342.41 1536.69 Q1347.16 1531.54 1355.18 1531.54 Q1362.37 1531.54 1366.54 1536.18 Q1370.74 1540.8 1370.74 1548.76 M1364.89 1547.04 Q1364.82 1542.23 1362.18 1539.37 Q1359.57 1536.5 1355.24 1536.5 Q1350.34 1536.5 1347.38 1539.27 Q1344.45 1542.04 1344.01 1547.07 L1364.89 1547.04 Z" fill="#000000" fill-rule="nonzero" fill-opacity="1"></path><polyline clip-path="url(#clip810)" style="stroke:#000000; stroke-linecap:round; stroke-linejoin:round; stroke-width:4; stroke-opacity:1; fill:none" points="203.964,1423.18 203.964,123.472 "></polyline>
<polyline clip-path="url(#clip810)" style="stroke:#000000; stroke-linecap:round; stroke-linejoin:round; stroke-width:4; stroke-opacity:1; fill:none" points="203.964,1389.61 222.861,1389.61 "></polyline>
<polyline clip-path="url(#clip810)" style="stroke:#000000; stroke-linecap:round; stroke-linejoin:round; stroke-width:4; stroke-opacity:1; fill:none" points="203.964,990.881 222.861,990.881 "></polyline>
<polyline clip-path="url(#clip810)" style="stroke:#000000; stroke-linecap:round; stroke-linejoin:round; stroke-width:4; stroke-opacity:1; fill:none" points="203.964,592.151 222.861,592.151 "></polyline>
<polyline clip-path="url(#clip810)" style="stroke:#000000; stroke-linecap:round; stroke-linejoin:round; stroke-width:4; stroke-opacity:1; fill:none" points="203.964,193.422 222.861,193.422 "></polyline>
<path clip-path="url(#clip810)" d="M156.019 1375.41 Q152.408 1375.41 150.579 1378.97 Q148.774 1382.52 148.774 1389.65 Q148.774 1396.75 150.579 1400.32 Q152.408 1403.86 156.019 1403.86 Q159.653 1403.86 161.459 1400.32 Q163.288 1396.75 163.288 1389.65 Q163.288 1382.52 161.459 1378.97 Q159.653 1375.41 156.019 1375.41 M156.019 1371.71 Q161.829 1371.71 164.885 1376.31 Q167.964 1380.9 167.964 1389.65 Q167.964 1398.37 164.885 1402.98 Q161.829 1407.56 156.019 1407.56 Q150.209 1407.56 147.13 1402.98 Q144.075 1398.37 144.075 1389.65 Q144.075 1380.9 147.13 1376.31 Q150.209 1371.71 156.019 1371.71 Z" fill="#000000" fill-rule="nonzero" fill-opacity="1"></path><path clip-path="url(#clip810)" d="M116.668 1004.23 L124.306 1004.23 L124.306 977.86 L115.996 979.527 L115.996 975.268 L124.26 973.601 L128.936 973.601 L128.936 1004.23 L136.575 1004.23 L136.575 1008.16 L116.668 1008.16 L116.668 1004.23 Z" fill="#000000" fill-rule="nonzero" fill-opacity="1"></path><path clip-path="url(#clip810)" d="M156.019 976.68 Q152.408 976.68 150.579 980.244 Q148.774 983.786 148.774 990.916 Q148.774 998.022 150.579 1001.59 Q152.408 1005.13 156.019 1005.13 Q159.653 1005.13 161.459 1001.59 Q163.288 998.022 163.288 990.916 Q163.288 983.786 161.459 980.244 Q159.653 976.68 156.019 976.68 M156.019 972.976 Q161.829 972.976 164.885 977.582 Q167.964 982.166 167.964 990.916 Q167.964 999.642 164.885 1004.25 Q161.829 1008.83 156.019 1008.83 Q150.209 1008.83 147.13 1004.25 Q144.075 999.642 144.075 990.916 Q144.075 982.166 147.13 977.582 Q150.209 972.976 156.019 972.976 Z" fill="#000000" fill-rule="nonzero" fill-opacity="1"></path><path clip-path="url(#clip810)" d="M119.885 605.496 L136.204 605.496 L136.204 609.431 L114.26 609.431 L114.26 605.496 Q116.922 602.742 121.505 598.112 Q126.112 593.459 127.292 592.117 Q129.538 589.594 130.417 587.857 Q131.32 586.098 131.32 584.408 Q131.32 581.654 129.376 579.918 Q127.455 578.182 124.353 578.182 Q122.154 578.182 119.7 578.945 Q117.269 579.709 114.492 581.26 L114.492 576.538 Q117.316 575.404 119.769 574.825 Q122.223 574.246 124.26 574.246 Q129.63 574.246 132.825 576.932 Q136.019 579.617 136.019 584.107 Q136.019 586.237 135.209 588.158 Q134.422 590.056 132.316 592.649 Q131.737 593.32 128.635 596.538 Q125.533 599.732 119.885 605.496 Z" fill="#000000" fill-rule="nonzero" fill-opacity="1"></path><path clip-path="url(#clip810)" d="M156.019 577.95 Q152.408 577.95 150.579 581.515 Q148.774 585.057 148.774 592.186 Q148.774 599.293 150.579 602.857 Q152.408 606.399 156.019 606.399 Q159.653 606.399 161.459 602.857 Q163.288 599.293 163.288 592.186 Q163.288 585.057 161.459 581.515 Q159.653 577.95 156.019 577.95 M156.019 574.246 Q161.829 574.246 164.885 578.853 Q167.964 583.436 167.964 592.186 Q167.964 600.913 164.885 605.519 Q161.829 610.103 156.019 610.103 Q150.209 610.103 147.13 605.519 Q144.075 600.913 144.075 592.186 Q144.075 583.436 147.13 578.853 Q150.209 574.246 156.019 574.246 Z" fill="#000000" fill-rule="nonzero" fill-opacity="1"></path><path clip-path="url(#clip810)" d="M130.024 192.068 Q133.38 192.785 135.255 195.054 Q137.154 197.322 137.154 200.656 Q137.154 205.771 133.635 208.572 Q130.117 211.373 123.635 211.373 Q121.459 211.373 119.144 210.933 Q116.853 210.517 114.399 209.66 L114.399 205.146 Q116.343 206.281 118.658 206.859 Q120.973 207.438 123.496 207.438 Q127.894 207.438 130.186 205.702 Q132.501 203.966 132.501 200.656 Q132.501 197.6 130.348 195.887 Q128.218 194.151 124.399 194.151 L120.371 194.151 L120.371 190.309 L124.584 190.309 Q128.033 190.309 129.862 188.943 Q131.691 187.554 131.691 184.961 Q131.691 182.299 129.792 180.887 Q127.917 179.452 124.399 179.452 Q122.478 179.452 120.279 179.869 Q118.08 180.285 115.441 181.165 L115.441 176.998 Q118.103 176.258 120.418 175.887 Q122.755 175.517 124.816 175.517 Q130.14 175.517 133.242 177.947 Q136.343 180.355 136.343 184.475 Q136.343 187.346 134.7 189.336 Q133.056 191.304 130.024 192.068 Z" fill="#000000" fill-rule="nonzero" fill-opacity="1"></path><path clip-path="url(#clip810)" d="M156.019 179.221 Q152.408 179.221 150.579 182.785 Q148.774 186.327 148.774 193.457 Q148.774 200.563 150.579 204.128 Q152.408 207.67 156.019 207.67 Q159.653 207.67 161.459 204.128 Q163.288 200.563 163.288 193.457 Q163.288 186.327 161.459 182.785 Q159.653 179.221 156.019 179.221 M156.019 175.517 Q161.829 175.517 164.885 180.123 Q167.964 184.707 167.964 193.457 Q167.964 202.183 164.885 206.79 Q161.829 211.373 156.019 211.373 Q150.209 211.373 147.13 206.79 Q144.075 202.183 144.075 193.457 Q144.075 184.707 147.13 180.123 Q150.209 175.517 156.019 175.517 Z" fill="#000000" fill-rule="nonzero" fill-opacity="1"></path><path clip-path="url(#clip810)" d="M20.1444 1093.9 L26.9239 1093.9 Q23.9002 1097.15 22.4043 1100.84 Q20.9083 1104.5 20.9083 1108.64 Q20.9083 1116.79 25.9054 1121.12 Q30.8707 1125.45 40.2919 1125.45 Q49.6813 1125.45 54.6784 1121.12 Q59.6436 1116.79 59.6436 1108.64 Q59.6436 1104.5 58.1477 1100.84 Q56.6518 1097.15 53.6281 1093.9 L60.3439 1093.9 Q62.6355 1097.28 63.7814 1101.06 Q64.9272 1104.82 64.9272 1109.02 Q64.9272 1119.81 58.3387 1126.02 Q51.7183 1132.22 40.2919 1132.22 Q28.8336 1132.22 22.2451 1126.02 Q15.6248 1119.81 15.6248 1109.02 Q15.6248 1104.76 16.7706 1101 Q17.8846 1097.21 20.1444 1093.9 Z" fill="#000000" fill-rule="nonzero" fill-opacity="1"></path><path clip-path="url(#clip810)" d="M49.9359 1084.83 L28.3562 1084.83 L28.3562 1078.98 L49.7131 1078.98 Q54.7739 1078.98 57.3202 1077 Q59.8346 1075.03 59.8346 1071.08 Q59.8346 1066.34 56.8109 1063.6 Q53.7872 1060.83 48.5673 1060.83 L28.3562 1060.83 L28.3562 1054.98 L64.0042 1054.98 L64.0042 1060.83 L58.5296 1060.83 Q61.7762 1062.97 63.3676 1065.8 Q64.9272 1068.6 64.9272 1072.32 Q64.9272 1078.47 61.1078 1081.65 Q57.2883 1084.83 49.9359 1084.83 M27.4968 1070.1 L27.4968 1070.1 Z" fill="#000000" fill-rule="nonzero" fill-opacity="1"></path><path clip-path="url(#clip810)" d="M33.8307 1022.26 Q33.2578 1023.24 33.0032 1024.42 Q32.7167 1025.57 32.7167 1026.97 Q32.7167 1031.93 35.9632 1034.61 Q39.1779 1037.25 45.2253 1037.25 L64.0042 1037.25 L64.0042 1043.14 L28.3562 1043.14 L28.3562 1037.25 L33.8944 1037.25 Q30.6479 1035.4 29.0883 1032.44 Q27.4968 1029.48 27.4968 1025.25 Q27.4968 1024.64 27.5923 1023.91 Q27.656 1023.18 27.8151 1022.29 L33.8307 1022.26 Z" fill="#000000" fill-rule="nonzero" fill-opacity="1"></path><path clip-path="url(#clip810)" d="M33.8307 996.603 Q33.2578 997.59 33.0032 998.767 Q32.7167 999.913 32.7167 1001.31 Q32.7167 1006.28 35.9632 1008.95 Q39.1779 1011.59 45.2253 1011.59 L64.0042 1011.59 L64.0042 1017.48 L28.3562 1017.48 L28.3562 1011.59 L33.8944 1011.59 Q30.6479 1009.75 29.0883 1006.79 Q27.4968 1003.83 27.4968 999.595 Q27.4968 998.99 27.5923 998.258 Q27.656 997.526 27.8151 996.635 L33.8307 996.603 Z" fill="#000000" fill-rule="nonzero" fill-opacity="1"></path><path clip-path="url(#clip810)" d="M44.7161 961.401 L47.5806 961.401 L47.5806 988.328 Q53.6281 987.946 56.8109 984.699 Q59.9619 981.421 59.9619 975.596 Q59.9619 972.222 59.1344 969.071 Q58.3069 965.889 56.6518 962.769 L62.1899 962.769 Q63.5267 965.92 64.227 969.231 Q64.9272 972.541 64.9272 975.946 Q64.9272 984.476 59.9619 989.474 Q54.9967 994.439 46.5303 994.439 Q37.7774 994.439 32.6531 989.728 Q27.4968 984.986 27.4968 976.965 Q27.4968 969.772 32.1438 965.602 Q36.7589 961.401 44.7161 961.401 M42.9973 967.257 Q38.1912 967.321 35.3266 969.963 Q32.4621 972.573 32.4621 976.901 Q32.4621 981.803 35.2312 984.763 Q38.0002 987.691 43.0292 988.137 L42.9973 967.257 Z" fill="#000000" fill-rule="nonzero" fill-opacity="1"></path><path clip-path="url(#clip810)" d="M42.4881 922.156 L64.0042 922.156 L64.0042 928.013 L42.679 928.013 Q37.6183 928.013 35.1038 929.986 Q32.5894 931.959 32.5894 935.906 Q32.5894 940.649 35.6131 943.386 Q38.6368 946.123 43.8567 946.123 L64.0042 946.123 L64.0042 952.011 L28.3562 952.011 L28.3562 946.123 L33.8944 946.123 Q30.6797 944.022 29.0883 941.19 Q27.4968 938.325 27.4968 934.601 Q27.4968 928.458 31.3163 925.307 Q35.1038 922.156 42.4881 922.156 Z" fill="#000000" fill-rule="nonzero" fill-opacity="1"></path><path clip-path="url(#clip810)" d="M18.2347 904.682 L28.3562 904.682 L28.3562 892.619 L32.9077 892.619 L32.9077 904.682 L52.2594 904.682 Q56.6199 904.682 57.8613 903.505 Q59.1026 902.295 59.1026 898.635 L59.1026 892.619 L64.0042 892.619 L64.0042 898.635 Q64.0042 905.414 61.4897 907.993 Q58.9434 910.571 52.2594 910.571 L32.9077 910.571 L32.9077 914.867 L28.3562 914.867 L28.3562 910.571 L18.2347 910.571 L18.2347 904.682 Z" fill="#000000" fill-rule="nonzero" fill-opacity="1"></path><path clip-path="url(#clip810)" d="M16.4842 863.942 L16.4842 854.361 L48.8219 842.235 L16.4842 830.044 L16.4842 820.464 L64.0042 820.464 L64.0042 826.734 L22.277 826.734 L54.8694 838.988 L54.8694 845.449 L22.277 857.703 L64.0042 857.703 L64.0042 863.942 L16.4842 863.942 Z" fill="#000000" fill-rule="nonzero" fill-opacity="1"></path><path clip-path="url(#clip810)" d="M46.0847 791.755 Q46.0847 798.852 47.7079 801.59 Q49.3312 804.327 53.2461 804.327 Q56.3653 804.327 58.2114 802.29 Q60.0256 800.221 60.0256 796.688 Q60.0256 791.818 56.5881 788.89 Q53.1188 785.93 47.3897 785.93 L46.0847 785.93 L46.0847 791.755 M43.6657 780.074 L64.0042 780.074 L64.0042 785.93 L58.5933 785.93 Q61.8398 787.935 63.3994 790.927 Q64.9272 793.919 64.9272 798.248 Q64.9272 803.722 61.8716 806.969 Q58.7843 810.183 53.6281 810.183 Q47.6125 810.183 44.5569 806.173 Q41.5014 802.131 41.5014 794.142 L41.5014 785.93 L40.9285 785.93 Q36.8862 785.93 34.6901 788.604 Q32.4621 791.245 32.4621 796.052 Q32.4621 799.107 33.1941 802.003 Q33.9262 804.9 35.3903 807.573 L29.9795 807.573 Q28.7381 804.359 28.1334 801.335 Q27.4968 798.311 27.4968 795.447 Q27.4968 787.712 31.5072 783.893 Q35.5176 780.074 43.6657 780.074 Z" fill="#000000" fill-rule="nonzero" fill-opacity="1"></path><path clip-path="url(#clip810)" d="M45.7664 744.553 Q39.4007 744.553 35.8996 747.195 Q32.3984 749.805 32.3984 754.547 Q32.3984 759.258 35.8996 761.9 Q39.4007 764.509 45.7664 764.509 Q52.1003 764.509 55.6014 761.9 Q59.1026 759.258 59.1026 754.547 Q59.1026 749.805 55.6014 747.195 Q52.1003 744.553 45.7664 744.553 M59.58 738.697 Q68.683 738.697 73.1071 742.739 Q77.5631 746.781 77.5631 755.12 Q77.5631 758.207 77.0857 760.945 Q76.6401 763.682 75.6852 766.26 L69.9879 766.26 Q71.3884 763.682 72.0568 761.167 Q72.7252 758.653 72.7252 756.043 Q72.7252 750.282 69.7015 747.418 Q66.7096 744.553 60.6303 744.553 L57.7339 744.553 Q60.885 746.367 62.4446 749.2 Q64.0042 752.033 64.0042 755.979 Q64.0042 762.536 59.0071 766.547 Q54.01 770.557 45.7664 770.557 Q37.491 770.557 32.4939 766.547 Q27.4968 762.536 27.4968 755.979 Q27.4968 752.033 29.0564 749.2 Q30.616 746.367 33.7671 744.553 L28.3562 744.553 L28.3562 738.697 L59.58 738.697 Z" fill="#000000" fill-rule="nonzero" fill-opacity="1"></path><path clip-path="url(#clip810)" d="M42.4881 697.001 L64.0042 697.001 L64.0042 702.858 L42.679 702.858 Q37.6183 702.858 35.1038 704.831 Q32.5894 706.804 32.5894 710.751 Q32.5894 715.494 35.6131 718.231 Q38.6368 720.968 43.8567 720.968 L64.0042 720.968 L64.0042 726.856 L28.3562 726.856 L28.3562 720.968 L33.8944 720.968 Q30.6797 718.867 29.0883 716.035 Q27.4968 713.17 27.4968 709.446 Q27.4968 703.303 31.3163 700.152 Q35.1038 697.001 42.4881 697.001 Z" fill="#000000" fill-rule="nonzero" fill-opacity="1"></path><path clip-path="url(#clip810)" d="M28.3562 685.32 L28.3562 679.464 L64.0042 679.464 L64.0042 685.32 L28.3562 685.32 M14.479 685.32 L14.479 679.464 L21.895 679.464 L21.895 685.32 L14.479 685.32 Z" fill="#000000" fill-rule="nonzero" fill-opacity="1"></path><path clip-path="url(#clip810)" d="M18.2347 661.417 L28.3562 661.417 L28.3562 649.354 L32.9077 649.354 L32.9077 661.417 L52.2594 661.417 Q56.6199 661.417 57.8613 660.239 Q59.1026 659.03 59.1026 655.369 L59.1026 649.354 L64.0042 649.354 L64.0042 655.369 Q64.0042 662.149 61.4897 664.727 Q58.9434 667.305 52.2594 667.305 L32.9077 667.305 L32.9077 671.602 L28.3562 671.602 L28.3562 667.305 L18.2347 667.305 L18.2347 661.417 Z" fill="#000000" fill-rule="nonzero" fill-opacity="1"></path><path clip-path="url(#clip810)" d="M49.9359 642.256 L28.3562 642.256 L28.3562 636.4 L49.7131 636.4 Q54.7739 636.4 57.3202 634.426 Q59.8346 632.453 59.8346 628.506 Q59.8346 623.764 56.8109 621.026 Q53.7872 618.257 48.5673 618.257 L28.3562 618.257 L28.3562 612.401 L64.0042 612.401 L64.0042 618.257 L58.5296 618.257 Q61.7762 620.39 63.3676 623.223 Q64.9272 626.024 64.9272 629.747 Q64.9272 635.89 61.1078 639.073 Q57.2883 642.256 49.9359 642.256 M27.4968 627.519 L27.4968 627.519 Z" fill="#000000" fill-rule="nonzero" fill-opacity="1"></path><path clip-path="url(#clip810)" d="M33.7671 576.88 L14.479 576.88 L14.479 571.024 L64.0042 571.024 L64.0042 576.88 L58.657 576.88 Q61.8398 578.726 63.3994 581.559 Q64.9272 584.36 64.9272 588.307 Q64.9272 594.768 59.771 598.842 Q54.6147 602.884 46.212 602.884 Q37.8093 602.884 32.6531 598.842 Q27.4968 594.768 27.4968 588.307 Q27.4968 584.36 29.0564 581.559 Q30.5842 578.726 33.7671 576.88 M46.212 596.837 Q52.6732 596.837 56.3653 594.195 Q60.0256 591.521 60.0256 586.874 Q60.0256 582.227 56.3653 579.554 Q52.6732 576.88 46.212 576.88 Q39.7508 576.88 36.0905 579.554 Q32.3984 582.227 32.3984 586.874 Q32.3984 591.521 36.0905 594.195 Q39.7508 596.837 46.212 596.837 Z" fill="#000000" fill-rule="nonzero" fill-opacity="1"></path><path clip-path="url(#clip810)" d="M44.7161 528.469 L47.5806 528.469 L47.5806 555.396 Q53.6281 555.014 56.8109 551.768 Q59.9619 548.489 59.9619 542.665 Q59.9619 539.291 59.1344 536.14 Q58.3069 532.957 56.6518 529.838 L62.1899 529.838 Q63.5267 532.989 64.227 536.299 Q64.9272 539.609 64.9272 543.015 Q64.9272 551.545 59.9619 556.542 Q54.9967 561.507 46.5303 561.507 Q37.7774 561.507 32.6531 556.796 Q27.4968 552.054 27.4968 544.033 Q27.4968 536.84 32.1438 532.67 Q36.7589 528.469 44.7161 528.469 M42.9973 534.326 Q38.1912 534.389 35.3266 537.031 Q32.4621 539.641 32.4621 543.97 Q32.4621 548.871 35.2312 551.831 Q38.0002 554.759 43.0292 555.205 L42.9973 534.326 Z" fill="#000000" fill-rule="nonzero" fill-opacity="1"></path><path clip-path="url(#clip810)" d="M14.5426 484.068 Q21.8632 488.333 29.0246 490.402 Q36.186 492.471 43.5384 492.471 Q50.8908 492.471 58.1159 490.402 Q65.3091 488.301 72.5979 484.068 L72.5979 489.161 Q65.1182 493.935 57.8931 496.322 Q50.668 498.678 43.5384 498.678 Q36.4406 498.678 29.2474 496.322 Q22.0542 493.967 14.5426 489.161 L14.5426 484.068 Z" fill="#000000" fill-rule="nonzero" fill-opacity="1"></path><path clip-path="url(#clip810)" d="M22.818 456.568 L46.4666 465.289 L46.4666 447.816 L22.818 456.568 M16.4842 460.197 L16.4842 452.908 L64.0042 434.798 L64.0042 441.482 L51.8138 445.81 L51.8138 467.231 L64.0042 471.56 L64.0042 478.339 L16.4842 460.197 Z" fill="#000000" fill-rule="nonzero" fill-opacity="1"></path><path clip-path="url(#clip810)" d="M14.5426 429.037 L14.5426 423.944 Q22.0542 419.17 29.2474 416.815 Q36.4406 414.427 43.5384 414.427 Q50.668 414.427 57.8931 416.815 Q65.1182 419.17 72.5979 423.944 L72.5979 429.037 Q65.3091 424.804 58.1159 422.735 Q50.8908 420.634 43.5384 420.634 Q36.186 420.634 29.0246 422.735 Q21.8632 424.804 14.5426 429.037 Z" fill="#000000" fill-rule="nonzero" fill-opacity="1"></path><path clip-path="url(#clip810)" d="M11.2166 12.096 L62.3796 12.096 L62.3796 18.9825 L40.9098 18.9825 L40.9098 72.576 L32.6864 72.576 L32.6864 18.9825 L11.2166 18.9825 L11.2166 12.096 Z" fill="#000000" fill-rule="nonzero" fill-opacity="1"></path><path clip-path="url(#clip810)" d="M84.0519 34.1734 Q82.7961 33.4443 81.2973 33.1202 Q79.839 32.7556 78.0566 32.7556 Q71.7372 32.7556 68.3344 36.8875 Q64.9721 40.9789 64.9721 48.6757 L64.9721 72.576 L57.478 72.576 L57.478 27.2059 L64.9721 27.2059 L64.9721 34.2544 Q67.3217 30.1225 71.089 28.1376 Q74.8564 26.1121 80.2441 26.1121 Q81.0137 26.1121 81.9454 26.2337 Q82.8771 26.3147 84.0114 26.5172 L84.0519 34.1734 Z" fill="#000000" fill-rule="nonzero" fill-opacity="1"></path><path clip-path="url(#clip810)" d="M112.489 49.7694 Q103.456 49.7694 99.972 51.8354 Q96.4882 53.9013 96.4882 58.8839 Q96.4882 62.8538 99.0808 65.2034 Q101.714 67.5124 106.21 67.5124 Q112.408 67.5124 116.135 63.1374 Q119.902 58.7219 119.902 51.4303 L119.902 49.7694 L112.489 49.7694 M127.356 46.6907 L127.356 72.576 L119.902 72.576 L119.902 65.6895 Q117.35 69.8214 113.542 71.8063 Q109.735 73.7508 104.225 73.7508 Q97.2579 73.7508 93.1259 69.8619 Q89.0345 65.9325 89.0345 59.3701 Q89.0345 51.7138 94.1387 47.825 Q99.2833 43.9361 109.451 43.9361 L119.902 43.9361 L119.902 43.2069 Q119.902 38.0623 116.5 35.2672 Q113.137 32.4315 107.021 32.4315 Q103.132 32.4315 99.4453 33.3632 Q95.759 34.295 92.3563 36.1584 L92.3563 29.2718 Q96.4477 27.692 100.296 26.9223 Q104.144 26.1121 107.79 26.1121 Q117.634 26.1121 122.495 31.2163 Q127.356 36.3204 127.356 46.6907 Z" fill="#000000" fill-rule="nonzero" fill-opacity="1"></path><path clip-path="url(#clip810)" d="M180.423 45.1919 L180.423 72.576 L172.969 72.576 L172.969 45.4349 Q172.969 38.994 170.458 35.7938 Q167.946 32.5936 162.923 32.5936 Q156.887 32.5936 153.403 36.4419 Q149.92 40.2903 149.92 46.9338 L149.92 72.576 L142.425 72.576 L142.425 27.2059 L149.92 27.2059 L149.92 34.2544 Q152.593 30.163 156.199 28.1376 Q159.844 26.1121 164.584 26.1121 Q172.402 26.1121 176.413 30.9732 Q180.423 35.7938 180.423 45.1919 Z" fill="#000000" fill-rule="nonzero" fill-opacity="1"></path><path clip-path="url(#clip810)" d="M224.213 28.5427 L224.213 35.5912 Q221.053 33.9709 217.651 33.1607 Q214.248 32.3505 210.602 32.3505 Q205.052 32.3505 202.257 34.0519 Q199.503 35.7533 199.503 39.156 Q199.503 41.7486 201.488 43.2475 Q203.473 44.7058 209.468 46.0426 L212.02 46.6097 Q219.96 48.3111 223.281 51.4303 Q226.644 54.509 226.644 60.0587 Q226.644 66.3781 221.621 70.0644 Q216.638 73.7508 207.888 73.7508 Q204.242 73.7508 200.272 73.0216 Q196.343 72.3329 191.968 70.9151 L191.968 63.2184 Q196.1 65.3654 200.11 66.4591 Q204.121 67.5124 208.05 67.5124 Q213.316 67.5124 216.152 65.73 Q218.988 63.9071 218.988 60.6258 Q218.988 57.5877 216.922 55.9673 Q214.896 54.3469 207.969 52.8481 L205.376 52.2405 Q198.449 50.7821 195.371 47.7845 Q192.292 44.7463 192.292 39.4801 Q192.292 33.0797 196.829 29.5959 Q201.366 26.1121 209.711 26.1121 Q213.843 26.1121 217.489 26.7198 Q221.135 27.3274 224.213 28.5427 Z" fill="#000000" fill-rule="nonzero" fill-opacity="1"></path><path clip-path="url(#clip810)" d="M261.482 9.54393 L261.482 15.7418 L254.352 15.7418 Q250.342 15.7418 248.762 17.3622 Q247.222 18.9825 247.222 23.1955 L247.222 27.2059 L259.497 27.2059 L259.497 32.9987 L247.222 32.9987 L247.222 72.576 L239.728 72.576 L239.728 32.9987 L232.599 32.9987 L232.599 27.2059 L239.728 27.2059 L239.728 24.0462 Q239.728 16.471 243.252 13.0277 Q246.777 9.54393 254.433 9.54393 L261.482 9.54393 Z" fill="#000000" fill-rule="nonzero" fill-opacity="1"></path><path clip-path="url(#clip810)" d="M285.301 32.4315 Q279.305 32.4315 275.822 37.1306 Q272.338 41.7891 272.338 49.9314 Q272.338 58.0738 275.781 62.7728 Q279.265 67.4314 285.301 67.4314 Q291.256 67.4314 294.739 62.7323 Q298.223 58.0333 298.223 49.9314 Q298.223 41.8701 294.739 37.1711 Q291.256 32.4315 285.301 32.4315 M285.301 26.1121 Q295.023 26.1121 300.573 32.4315 Q306.122 38.7509 306.122 49.9314 Q306.122 61.0714 300.573 67.4314 Q295.023 73.7508 285.301 73.7508 Q275.538 73.7508 269.988 67.4314 Q264.479 61.0714 264.479 49.9314 Q264.479 38.7509 269.988 32.4315 Q275.538 26.1121 285.301 26.1121 Z" fill="#000000" fill-rule="nonzero" fill-opacity="1"></path><path clip-path="url(#clip810)" d="M344.768 34.1734 Q343.512 33.4443 342.013 33.1202 Q340.555 32.7556 338.773 32.7556 Q332.453 32.7556 329.051 36.8875 Q325.688 40.9789 325.688 48.6757 L325.688 72.576 L318.194 72.576 L318.194 27.2059 L325.688 27.2059 L325.688 34.2544 Q328.038 30.1225 331.805 28.1376 Q335.573 26.1121 340.96 26.1121 Q341.73 26.1121 342.662 26.2337 Q343.593 26.3147 344.728 26.5172 L344.768 34.1734 Z" fill="#000000" fill-rule="nonzero" fill-opacity="1"></path><path clip-path="url(#clip810)" d="M386.452 35.9153 Q389.247 30.8922 393.136 28.5022 Q397.025 26.1121 402.291 26.1121 Q409.38 26.1121 413.228 31.0947 Q417.077 36.0368 417.077 45.1919 L417.077 72.576 L409.583 72.576 L409.583 45.4349 Q409.583 38.913 407.274 35.7533 Q404.965 32.5936 400.225 32.5936 Q394.432 32.5936 391.07 36.4419 Q387.708 40.2903 387.708 46.9338 L387.708 72.576 L380.214 72.576 L380.214 45.4349 Q380.214 38.8725 377.904 35.7533 Q375.595 32.5936 370.775 32.5936 Q365.063 32.5936 361.701 36.4824 Q358.339 40.3308 358.339 46.9338 L358.339 72.576 L350.844 72.576 L350.844 27.2059 L358.339 27.2059 L358.339 34.2544 Q360.891 30.082 364.455 28.0971 Q368.02 26.1121 372.922 26.1121 Q377.864 26.1121 381.307 28.6237 Q384.791 31.1352 386.452 35.9153 Z" fill="#000000" fill-rule="nonzero" fill-opacity="1"></path><path clip-path="url(#clip810)" d="M470.751 48.0275 L470.751 51.6733 L436.481 51.6733 Q436.967 59.3701 441.099 63.421 Q445.271 67.4314 452.684 67.4314 Q456.978 67.4314 460.989 66.3781 Q465.039 65.3249 469.009 63.2184 L469.009 70.267 Q464.999 71.9684 460.786 72.8596 Q456.573 73.7508 452.239 73.7508 Q441.382 73.7508 435.022 67.4314 Q428.703 61.1119 428.703 50.3365 Q428.703 39.1965 434.698 32.6746 Q440.734 26.1121 450.942 26.1121 Q460.097 26.1121 465.404 32.0264 Q470.751 37.9003 470.751 48.0275 M463.298 45.84 Q463.217 39.7232 459.854 36.0774 Q456.533 32.4315 451.023 32.4315 Q444.785 32.4315 441.018 35.9558 Q437.291 39.4801 436.724 45.8805 L463.298 45.84 Z" fill="#000000" fill-rule="nonzero" fill-opacity="1"></path><path clip-path="url(#clip810)" d="M509.275 34.1734 Q508.02 33.4443 506.521 33.1202 Q505.062 32.7556 503.28 32.7556 Q496.961 32.7556 493.558 36.8875 Q490.196 40.9789 490.196 48.6757 L490.196 72.576 L482.701 72.576 L482.701 27.2059 L490.196 27.2059 L490.196 34.2544 Q492.545 30.1225 496.312 28.1376 Q500.08 26.1121 505.467 26.1121 Q506.237 26.1121 507.169 26.2337 Q508.101 26.3147 509.235 26.5172 L509.275 34.1734 Z" fill="#000000" fill-rule="nonzero" fill-opacity="1"></path><path clip-path="url(#clip810)" d="M589.078 16.7545 L589.078 25.383 Q584.946 21.5346 580.247 19.6307 Q575.589 17.7268 570.322 17.7268 Q559.952 17.7268 554.443 24.0867 Q548.934 30.4061 548.934 42.3968 Q548.934 54.3469 554.443 60.7069 Q559.952 67.0263 570.322 67.0263 Q575.589 67.0263 580.247 65.1223 Q584.946 63.2184 589.078 59.3701 L589.078 67.9175 Q584.784 70.8341 579.964 72.2924 Q575.184 73.7508 569.836 73.7508 Q556.104 73.7508 548.205 65.3654 Q540.305 56.9395 540.305 42.3968 Q540.305 27.8135 548.205 19.4281 Q556.104 11.0023 569.836 11.0023 Q575.265 11.0023 580.045 12.4606 Q584.865 13.8784 589.078 16.7545 Z" fill="#000000" fill-rule="nonzero" fill-opacity="1"></path><path clip-path="url(#clip810)" d="M600.623 54.671 L600.623 27.2059 L608.077 27.2059 L608.077 54.3874 Q608.077 60.8284 610.588 64.0691 Q613.1 67.2693 618.123 67.2693 Q624.159 67.2693 627.643 63.421 Q631.167 59.5726 631.167 52.9291 L631.167 27.2059 L638.621 27.2059 L638.621 72.576 L631.167 72.576 L631.167 65.6084 Q628.453 69.7404 624.848 71.7658 Q621.283 73.7508 616.543 73.7508 Q608.725 73.7508 604.674 68.8897 Q600.623 64.0286 600.623 54.671 M619.379 26.1121 L619.379 26.1121 Z" fill="#000000" fill-rule="nonzero" fill-opacity="1"></path><path clip-path="url(#clip810)" d="M680.264 34.1734 Q679.008 33.4443 677.509 33.1202 Q676.051 32.7556 674.269 32.7556 Q667.949 32.7556 664.546 36.8875 Q661.184 40.9789 661.184 48.6757 L661.184 72.576 L653.69 72.576 L653.69 27.2059 L661.184 27.2059 L661.184 34.2544 Q663.534 30.1225 667.301 28.1376 Q671.068 26.1121 676.456 26.1121 Q677.226 26.1121 678.158 26.2337 Q679.089 26.3147 680.223 26.5172 L680.264 34.1734 Z" fill="#000000" fill-rule="nonzero" fill-opacity="1"></path><path clip-path="url(#clip810)" d="M712.914 34.1734 Q711.658 33.4443 710.16 33.1202 Q708.701 32.7556 706.919 32.7556 Q700.6 32.7556 697.197 36.8875 Q693.835 40.9789 693.835 48.6757 L693.835 72.576 L686.34 72.576 L686.34 27.2059 L693.835 27.2059 L693.835 34.2544 Q696.184 30.1225 699.951 28.1376 Q703.719 26.1121 709.106 26.1121 Q709.876 26.1121 710.808 26.2337 Q711.74 26.3147 712.874 26.5172 L712.914 34.1734 Z" fill="#000000" fill-rule="nonzero" fill-opacity="1"></path><path clip-path="url(#clip810)" d="M757.717 48.0275 L757.717 51.6733 L723.447 51.6733 Q723.933 59.3701 728.065 63.421 Q732.237 67.4314 739.65 67.4314 Q743.944 67.4314 747.955 66.3781 Q752.005 65.3249 755.975 63.2184 L755.975 70.267 Q751.965 71.9684 747.752 72.8596 Q743.539 73.7508 739.205 73.7508 Q728.348 73.7508 721.988 67.4314 Q715.669 61.1119 715.669 50.3365 Q715.669 39.1965 721.664 32.6746 Q727.7 26.1121 737.908 26.1121 Q747.063 26.1121 752.37 32.0264 Q757.717 37.9003 757.717 48.0275 M750.264 45.84 Q750.183 39.7232 746.82 36.0774 Q743.499 32.4315 737.989 32.4315 Q731.751 32.4315 727.984 35.9558 Q724.257 39.4801 723.69 45.8805 L750.264 45.84 Z" fill="#000000" fill-rule="nonzero" fill-opacity="1"></path><path clip-path="url(#clip810)" d="M807.665 45.1919 L807.665 72.576 L800.211 72.576 L800.211 45.4349 Q800.211 38.994 797.7 35.7938 Q795.188 32.5936 790.165 32.5936 Q784.129 32.5936 780.645 36.4419 Q777.162 40.2903 777.162 46.9338 L777.162 72.576 L769.667 72.576 L769.667 27.2059 L777.162 27.2059 L777.162 34.2544 Q779.835 30.163 783.441 28.1376 Q787.086 26.1121 791.826 26.1121 Q799.644 26.1121 803.655 30.9732 Q807.665 35.7938 807.665 45.1919 Z" fill="#000000" fill-rule="nonzero" fill-opacity="1"></path><path clip-path="url(#clip810)" d="M829.904 14.324 L829.904 27.2059 L845.257 27.2059 L845.257 32.9987 L829.904 32.9987 L829.904 57.6282 Q829.904 63.1779 831.403 64.7578 Q832.943 66.3376 837.601 66.3376 L845.257 66.3376 L845.257 72.576 L837.601 72.576 Q828.973 72.576 825.691 69.3758 Q822.41 66.1351 822.41 57.6282 L822.41 32.9987 L816.941 32.9987 L816.941 27.2059 L822.41 27.2059 L822.41 14.324 L829.904 14.324 Z" fill="#000000" fill-rule="nonzero" fill-opacity="1"></path><path clip-path="url(#clip810)" d="M881.756 12.096 L893.949 12.096 L909.383 53.2532 L924.898 12.096 L937.091 12.096 L937.091 72.576 L929.111 72.576 L929.111 19.4686 L913.515 60.9499 L905.292 60.9499 L889.696 19.4686 L889.696 72.576 L881.756 72.576 L881.756 12.096 Z" fill="#000000" fill-rule="nonzero" fill-opacity="1"></path><path clip-path="url(#clip810)" d="M973.63 49.7694 Q964.597 49.7694 961.113 51.8354 Q957.629 53.9013 957.629 58.8839 Q957.629 62.8538 960.222 65.2034 Q962.855 67.5124 967.352 67.5124 Q973.549 67.5124 977.276 63.1374 Q981.044 58.7219 981.044 51.4303 L981.044 49.7694 L973.63 49.7694 M988.497 46.6907 L988.497 72.576 L981.044 72.576 L981.044 65.6895 Q978.492 69.8214 974.684 71.8063 Q970.876 73.7508 965.367 73.7508 Q958.399 73.7508 954.267 69.8619 Q950.176 65.9325 950.176 59.3701 Q950.176 51.7138 955.28 47.825 Q960.425 43.9361 970.592 43.9361 L981.044 43.9361 L981.044 43.2069 Q981.044 38.0623 977.641 35.2672 Q974.279 32.4315 968.162 32.4315 Q964.273 32.4315 960.587 33.3632 Q956.9 34.295 953.497 36.1584 L953.497 29.2718 Q957.589 27.692 961.437 26.9223 Q965.286 26.1121 968.931 26.1121 Q978.775 26.1121 983.636 31.2163 Q988.497 36.3204 988.497 46.6907 Z" fill="#000000" fill-rule="nonzero" fill-opacity="1"></path><path clip-path="url(#clip810)" d="M1033.71 49.3643 Q1033.71 41.2625 1030.34 36.8065 Q1027.02 32.3505 1020.99 32.3505 Q1014.99 32.3505 1011.63 36.8065 Q1008.31 41.2625 1008.31 49.3643 Q1008.31 57.4256 1011.63 61.8816 Q1014.99 66.3376 1020.99 66.3376 Q1027.02 66.3376 1030.34 61.8816 Q1033.71 57.4256 1033.71 49.3643 M1041.16 66.9452 Q1041.16 78.5308 1036.01 84.1616 Q1030.87 89.8329 1020.26 89.8329 Q1016.33 89.8329 1012.84 89.2252 Q1009.36 88.6581 1006.08 87.4428 L1006.08 80.1917 Q1009.36 81.9741 1012.56 82.8248 Q1015.76 83.6755 1019.08 83.6755 Q1026.41 83.6755 1030.06 79.8271 Q1033.71 76.0193 1033.71 68.282 L1033.71 64.5957 Q1031.4 68.6061 1027.79 70.5911 Q1024.19 72.576 1019.16 72.576 Q1010.82 72.576 1005.71 66.2161 Q1000.61 59.8562 1000.61 49.3643 Q1000.61 38.832 1005.71 32.472 Q1010.82 26.1121 1019.16 26.1121 Q1024.19 26.1121 1027.79 28.0971 Q1031.4 30.082 1033.71 34.0924 L1033.71 27.2059 L1041.16 27.2059 L1041.16 66.9452 Z" fill="#000000" fill-rule="nonzero" fill-opacity="1"></path><path clip-path="url(#clip810)" d="M1094.23 45.1919 L1094.23 72.576 L1086.77 72.576 L1086.77 45.4349 Q1086.77 38.994 1084.26 35.7938 Q1081.75 32.5936 1076.73 32.5936 Q1070.69 32.5936 1067.21 36.4419 Q1063.72 40.2903 1063.72 46.9338 L1063.72 72.576 L1056.23 72.576 L1056.23 27.2059 L1063.72 27.2059 L1063.72 34.2544 Q1066.4 30.163 1070 28.1376 Q1073.65 26.1121 1078.39 26.1121 Q1086.21 26.1121 1090.22 30.9732 Q1094.23 35.7938 1094.23 45.1919 Z" fill="#000000" fill-rule="nonzero" fill-opacity="1"></path><path clip-path="url(#clip810)" d="M1109.09 27.2059 L1116.55 27.2059 L1116.55 72.576 L1109.09 72.576 L1109.09 27.2059 M1109.09 9.54393 L1116.55 9.54393 L1116.55 18.9825 L1109.09 18.9825 L1109.09 9.54393 Z" fill="#000000" fill-rule="nonzero" fill-opacity="1"></path><path clip-path="url(#clip810)" d="M1139.51 14.324 L1139.51 27.2059 L1154.87 27.2059 L1154.87 32.9987 L1139.51 32.9987 L1139.51 57.6282 Q1139.51 63.1779 1141.01 64.7578 Q1142.55 66.3376 1147.21 66.3376 L1154.87 66.3376 L1154.87 72.576 L1147.21 72.576 Q1138.58 72.576 1135.3 69.3758 Q1132.02 66.1351 1132.02 57.6282 L1132.02 32.9987 L1126.55 32.9987 L1126.55 27.2059 L1132.02 27.2059 L1132.02 14.324 L1139.51 14.324 Z" fill="#000000" fill-rule="nonzero" fill-opacity="1"></path><path clip-path="url(#clip810)" d="M1163.9 54.671 L1163.9 27.2059 L1171.36 27.2059 L1171.36 54.3874 Q1171.36 60.8284 1173.87 64.0691 Q1176.38 67.2693 1181.4 67.2693 Q1187.44 67.2693 1190.92 63.421 Q1194.45 59.5726 1194.45 52.9291 L1194.45 27.2059 L1201.9 27.2059 L1201.9 72.576 L1194.45 72.576 L1194.45 65.6084 Q1191.73 69.7404 1188.13 71.7658 Q1184.56 73.7508 1179.82 73.7508 Q1172 73.7508 1167.95 68.8897 Q1163.9 64.0286 1163.9 54.671 M1182.66 26.1121 L1182.66 26.1121 Z" fill="#000000" fill-rule="nonzero" fill-opacity="1"></path><path clip-path="url(#clip810)" d="M1247.11 34.0924 L1247.11 9.54393 L1254.56 9.54393 L1254.56 72.576 L1247.11 72.576 L1247.11 65.7705 Q1244.76 69.8214 1241.15 71.8063 Q1237.59 73.7508 1232.56 73.7508 Q1224.34 73.7508 1219.16 67.1883 Q1214.01 60.6258 1214.01 49.9314 Q1214.01 39.2371 1219.16 32.6746 Q1224.34 26.1121 1232.56 26.1121 Q1237.59 26.1121 1241.15 28.0971 Q1244.76 30.0415 1247.11 34.0924 M1221.71 49.9314 Q1221.71 58.1548 1225.07 62.8538 Q1228.47 67.5124 1234.39 67.5124 Q1240.3 67.5124 1243.7 62.8538 Q1247.11 58.1548 1247.11 49.9314 Q1247.11 41.7081 1243.7 37.0496 Q1240.3 32.3505 1234.39 32.3505 Q1228.47 32.3505 1225.07 37.0496 Q1221.71 41.7081 1221.71 49.9314 Z" fill="#000000" fill-rule="nonzero" fill-opacity="1"></path><path clip-path="url(#clip810)" d="M1308.72 48.0275 L1308.72 51.6733 L1274.45 51.6733 Q1274.94 59.3701 1279.07 63.421 Q1283.24 67.4314 1290.65 67.4314 Q1294.95 67.4314 1298.96 66.3781 Q1303.01 65.3249 1306.98 63.2184 L1306.98 70.267 Q1302.97 71.9684 1298.76 72.8596 Q1294.54 73.7508 1290.21 73.7508 Q1279.35 73.7508 1272.99 67.4314 Q1266.67 61.1119 1266.67 50.3365 Q1266.67 39.1965 1272.67 32.6746 Q1278.7 26.1121 1288.91 26.1121 Q1298.07 26.1121 1303.37 32.0264 Q1308.72 37.9003 1308.72 48.0275 M1301.27 45.84 Q1301.19 39.7232 1297.82 36.0774 Q1294.5 32.4315 1288.99 32.4315 Q1282.75 32.4315 1278.99 35.9558 Q1275.26 39.4801 1274.69 45.8805 L1301.27 45.84 Z" fill="#000000" fill-rule="nonzero" fill-opacity="1"></path><path clip-path="url(#clip810)" d="M1355.83 43.6931 L1355.83 65.8515 L1368.96 65.8515 Q1375.56 65.8515 1378.72 63.1374 Q1381.92 60.3828 1381.92 54.752 Q1381.92 49.0808 1378.72 46.4072 Q1375.56 43.6931 1368.96 43.6931 L1355.83 43.6931 M1355.83 18.8205 L1355.83 37.0496 L1367.95 37.0496 Q1373.94 37.0496 1376.86 34.8216 Q1379.81 32.5531 1379.81 27.935 Q1379.81 23.3575 1376.86 21.089 Q1373.94 18.8205 1367.95 18.8205 L1355.83 18.8205 M1347.65 12.096 L1368.55 12.096 Q1377.91 12.096 1382.97 15.9849 Q1388.04 19.8737 1388.04 27.0438 Q1388.04 32.5936 1385.45 35.8748 Q1382.85 39.156 1377.83 39.9662 Q1383.87 41.2625 1387.19 45.3944 Q1390.55 49.4858 1390.55 55.6432 Q1390.55 63.745 1385.04 68.1605 Q1379.53 72.576 1369.36 72.576 L1347.65 72.576 L1347.65 12.096 Z" fill="#000000" fill-rule="nonzero" fill-opacity="1"></path><path clip-path="url(#clip810)" d="M1443.05 48.0275 L1443.05 51.6733 L1408.78 51.6733 Q1409.26 59.3701 1413.4 63.421 Q1417.57 67.4314 1424.98 67.4314 Q1429.28 67.4314 1433.29 66.3781 Q1437.34 65.3249 1441.31 63.2184 L1441.31 70.267 Q1437.3 71.9684 1433.08 72.8596 Q1428.87 73.7508 1424.54 73.7508 Q1413.68 73.7508 1407.32 67.4314 Q1401 61.1119 1401 50.3365 Q1401 39.1965 1407 32.6746 Q1413.03 26.1121 1423.24 26.1121 Q1432.4 26.1121 1437.7 32.0264 Q1443.05 37.9003 1443.05 48.0275 M1435.6 45.84 Q1435.51 39.7232 1432.15 36.0774 Q1428.83 32.4315 1423.32 32.4315 Q1417.08 32.4315 1413.32 35.9558 Q1409.59 39.4801 1409.02 45.8805 L1435.6 45.84 Z" fill="#000000" fill-rule="nonzero" fill-opacity="1"></path><path clip-path="url(#clip810)" d="M1478.25 9.54393 L1478.25 15.7418 L1471.12 15.7418 Q1467.11 15.7418 1465.53 17.3622 Q1463.99 18.9825 1463.99 23.1955 L1463.99 27.2059 L1476.27 27.2059 L1476.27 32.9987 L1463.99 32.9987 L1463.99 72.576 L1456.5 72.576 L1456.5 32.9987 L1449.37 32.9987 L1449.37 27.2059 L1456.5 27.2059 L1456.5 24.0462 Q1456.5 16.471 1460.02 13.0277 Q1463.55 9.54393 1471.2 9.54393 L1478.25 9.54393 Z" fill="#000000" fill-rule="nonzero" fill-opacity="1"></path><path clip-path="url(#clip810)" d="M1502.07 32.4315 Q1496.08 32.4315 1492.59 37.1306 Q1489.11 41.7891 1489.11 49.9314 Q1489.11 58.0738 1492.55 62.7728 Q1496.04 67.4314 1502.07 67.4314 Q1508.03 67.4314 1511.51 62.7323 Q1514.99 58.0333 1514.99 49.9314 Q1514.99 41.8701 1511.51 37.1711 Q1508.03 32.4315 1502.07 32.4315 M1502.07 26.1121 Q1511.79 26.1121 1517.34 32.4315 Q1522.89 38.7509 1522.89 49.9314 Q1522.89 61.0714 1517.34 67.4314 Q1511.79 73.7508 1502.07 73.7508 Q1492.31 73.7508 1486.76 67.4314 Q1481.25 61.0714 1481.25 49.9314 Q1481.25 38.7509 1486.76 32.4315 Q1492.31 26.1121 1502.07 26.1121 Z" fill="#000000" fill-rule="nonzero" fill-opacity="1"></path><path clip-path="url(#clip810)" d="M1561.54 34.1734 Q1560.28 33.4443 1558.78 33.1202 Q1557.33 32.7556 1555.54 32.7556 Q1549.22 32.7556 1545.82 36.8875 Q1542.46 40.9789 1542.46 48.6757 L1542.46 72.576 L1534.96 72.576 L1534.96 27.2059 L1542.46 27.2059 L1542.46 34.2544 Q1544.81 30.1225 1548.58 28.1376 Q1552.34 26.1121 1557.73 26.1121 Q1558.5 26.1121 1559.43 26.2337 Q1560.36 26.3147 1561.5 26.5172 L1561.54 34.1734 Z" fill="#000000" fill-rule="nonzero" fill-opacity="1"></path><path clip-path="url(#clip810)" d="M1606.34 48.0275 L1606.34 51.6733 L1572.07 51.6733 Q1572.56 59.3701 1576.69 63.421 Q1580.86 67.4314 1588.27 67.4314 Q1592.57 67.4314 1596.58 66.3781 Q1600.63 65.3249 1604.6 63.2184 L1604.6 70.267 Q1600.59 71.9684 1596.38 72.8596 Q1592.16 73.7508 1587.83 73.7508 Q1576.97 73.7508 1570.61 67.4314 Q1564.29 61.1119 1564.29 50.3365 Q1564.29 39.1965 1570.29 32.6746 Q1576.32 26.1121 1586.53 26.1121 Q1595.69 26.1121 1600.99 32.0264 Q1606.34 37.9003 1606.34 48.0275 M1598.89 45.84 Q1598.81 39.7232 1595.44 36.0774 Q1592.12 32.4315 1586.61 32.4315 Q1580.37 32.4315 1576.61 35.9558 Q1572.88 39.4801 1572.31 45.8805 L1598.89 45.84 Z" fill="#000000" fill-rule="nonzero" fill-opacity="1"></path><path clip-path="url(#clip810)" d="M1657.3 40.0472 Q1653.62 43.3285 1651.87 46.6097 Q1650.17 49.8504 1650.17 53.4152 Q1650.17 59.3295 1654.47 63.2589 Q1658.76 67.1883 1665.24 67.1883 Q1669.09 67.1883 1672.45 65.9325 Q1675.81 64.6362 1678.77 62.0436 L1657.3 40.0472 M1663.01 35.5102 L1683.59 56.5749 Q1685.98 52.9696 1687.32 48.8782 Q1688.66 44.7463 1688.9 40.1283 L1696.43 40.1283 Q1695.95 45.4755 1693.84 50.7011 Q1691.73 55.9268 1687.97 61.0309 L1699.27 72.576 L1689.06 72.576 L1683.27 66.6212 Q1679.05 70.2265 1674.44 72.0089 Q1669.82 73.7508 1664.51 73.7508 Q1654.75 73.7508 1648.55 68.201 Q1642.35 62.6108 1642.35 53.9013 Q1642.35 48.7162 1645.07 44.1792 Q1647.78 39.6016 1653.21 35.5912 Q1651.27 33.0392 1650.25 30.5276 Q1649.24 27.9755 1649.24 25.545 Q1649.24 18.9825 1653.74 15.0127 Q1658.23 11.0023 1665.69 11.0023 Q1669.05 11.0023 1672.37 11.7314 Q1675.73 12.4606 1679.18 13.9189 L1679.18 21.2916 Q1675.65 19.3876 1672.45 18.4154 Q1669.25 17.4027 1666.5 17.4027 Q1662.24 17.4027 1659.57 19.6712 Q1656.94 21.8992 1656.94 25.464 Q1656.94 27.5299 1658.11 29.6364 Q1659.33 31.7024 1663.01 35.5102 Z" fill="#000000" fill-rule="nonzero" fill-opacity="1"></path><path clip-path="url(#clip810)" d="M1756.55 20.1573 L1745.45 50.2555 L1767.69 50.2555 L1756.55 20.1573 M1751.93 12.096 L1761.21 12.096 L1784.26 72.576 L1775.75 72.576 L1770.24 57.061 L1742.98 57.061 L1737.47 72.576 L1728.84 72.576 L1751.93 12.096 Z" fill="#000000" fill-rule="nonzero" fill-opacity="1"></path><path clip-path="url(#clip810)" d="M1812.78 9.54393 L1812.78 15.7418 L1805.65 15.7418 Q1801.64 15.7418 1800.06 17.3622 Q1798.52 18.9825 1798.52 23.1955 L1798.52 27.2059 L1810.79 27.2059 L1810.79 32.9987 L1798.52 32.9987 L1798.52 72.576 L1791.02 72.576 L1791.02 32.9987 L1783.89 32.9987 L1783.89 27.2059 L1791.02 27.2059 L1791.02 24.0462 Q1791.02 16.471 1794.55 13.0277 Q1798.07 9.54393 1805.73 9.54393 L1812.78 9.54393 Z" fill="#000000" fill-rule="nonzero" fill-opacity="1"></path><path clip-path="url(#clip810)" d="M1824.93 14.324 L1824.93 27.2059 L1840.28 27.2059 L1840.28 32.9987 L1824.93 32.9987 L1824.93 57.6282 Q1824.93 63.1779 1826.43 64.7578 Q1827.97 66.3376 1832.62 66.3376 L1840.28 66.3376 L1840.28 72.576 L1832.62 72.576 Q1824 72.576 1820.72 69.3758 Q1817.43 66.1351 1817.43 57.6282 L1817.43 32.9987 L1811.97 32.9987 L1811.97 27.2059 L1817.43 27.2059 L1817.43 14.324 L1824.93 14.324 Z" fill="#000000" fill-rule="nonzero" fill-opacity="1"></path><path clip-path="url(#clip810)" d="M1888.89 48.0275 L1888.89 51.6733 L1854.62 51.6733 Q1855.11 59.3701 1859.24 63.421 Q1863.41 67.4314 1870.82 67.4314 Q1875.12 67.4314 1879.13 66.3781 Q1883.18 65.3249 1887.15 63.2184 L1887.15 70.267 Q1883.14 71.9684 1878.93 72.8596 Q1874.71 73.7508 1870.38 73.7508 Q1859.52 73.7508 1853.16 67.4314 Q1846.84 61.1119 1846.84 50.3365 Q1846.84 39.1965 1852.84 32.6746 Q1858.87 26.1121 1869.08 26.1121 Q1878.24 26.1121 1883.54 32.0264 Q1888.89 37.9003 1888.89 48.0275 M1881.44 45.84 Q1881.36 39.7232 1877.99 36.0774 Q1874.67 32.4315 1869.16 32.4315 Q1862.93 32.4315 1859.16 35.9558 Q1855.43 39.4801 1854.86 45.8805 L1881.44 45.84 Z" fill="#000000" fill-rule="nonzero" fill-opacity="1"></path><path clip-path="url(#clip810)" d="M1927.42 34.1734 Q1926.16 33.4443 1924.66 33.1202 Q1923.2 32.7556 1921.42 32.7556 Q1915.1 32.7556 1911.7 36.8875 Q1908.34 40.9789 1908.34 48.6757 L1908.34 72.576 L1900.84 72.576 L1900.84 27.2059 L1908.34 27.2059 L1908.34 34.2544 Q1910.69 30.1225 1914.45 28.1376 Q1918.22 26.1121 1923.61 26.1121 Q1924.38 26.1121 1925.31 26.2337 Q1926.24 26.3147 1927.38 26.5172 L1927.42 34.1734 Z" fill="#000000" fill-rule="nonzero" fill-opacity="1"></path><path clip-path="url(#clip810)" d="M2007.22 16.7545 L2007.22 25.383 Q2003.09 21.5346 1998.39 19.6307 Q1993.73 17.7268 1988.46 17.7268 Q1978.09 17.7268 1972.58 24.0867 Q1967.07 30.4061 1967.07 42.3968 Q1967.07 54.3469 1972.58 60.7069 Q1978.09 67.0263 1988.46 67.0263 Q1993.73 67.0263 1998.39 65.1223 Q2003.09 63.2184 2007.22 59.3701 L2007.22 67.9175 Q2002.92 70.8341 1998.1 72.2924 Q1993.32 73.7508 1987.98 73.7508 Q1974.24 73.7508 1966.35 65.3654 Q1958.45 56.9395 1958.45 42.3968 Q1958.45 27.8135 1966.35 19.4281 Q1974.24 11.0023 1987.98 11.0023 Q1993.41 11.0023 1998.19 12.4606 Q2003.01 13.8784 2007.22 16.7545 Z" fill="#000000" fill-rule="nonzero" fill-opacity="1"></path><path clip-path="url(#clip810)" d="M2037.11 32.4315 Q2031.12 32.4315 2027.64 37.1306 Q2024.15 41.7891 2024.15 49.9314 Q2024.15 58.0738 2027.59 62.7728 Q2031.08 67.4314 2037.11 67.4314 Q2043.07 67.4314 2046.55 62.7323 Q2050.04 58.0333 2050.04 49.9314 Q2050.04 41.8701 2046.55 37.1711 Q2043.07 32.4315 2037.11 32.4315 M2037.11 26.1121 Q2046.84 26.1121 2052.39 32.4315 Q2057.94 38.7509 2057.94 49.9314 Q2057.94 61.0714 2052.39 67.4314 Q2046.84 73.7508 2037.11 73.7508 Q2027.35 73.7508 2021.8 67.4314 Q2016.29 61.0714 2016.29 49.9314 Q2016.29 38.7509 2021.8 32.4315 Q2027.35 26.1121 2037.11 26.1121 Z" fill="#000000" fill-rule="nonzero" fill-opacity="1"></path><path clip-path="url(#clip810)" d="M2105.62 35.9153 Q2108.41 30.8922 2112.3 28.5022 Q2116.19 26.1121 2121.45 26.1121 Q2128.54 26.1121 2132.39 31.0947 Q2136.24 36.0368 2136.24 45.1919 L2136.24 72.576 L2128.75 72.576 L2128.75 45.4349 Q2128.75 38.913 2126.44 35.7533 Q2124.13 32.5936 2119.39 32.5936 Q2113.6 32.5936 2110.23 36.4419 Q2106.87 40.2903 2106.87 46.9338 L2106.87 72.576 L2099.38 72.576 L2099.38 45.4349 Q2099.38 38.8725 2097.07 35.7533 Q2094.76 32.5936 2089.94 32.5936 Q2084.23 32.5936 2080.86 36.4824 Q2077.5 40.3308 2077.5 46.9338 L2077.5 72.576 L2070.01 72.576 L2070.01 27.2059 L2077.5 27.2059 L2077.5 34.2544 Q2080.05 30.082 2083.62 28.0971 Q2087.18 26.1121 2092.09 26.1121 Q2097.03 26.1121 2100.47 28.6237 Q2103.95 31.1352 2105.62 35.9153 Z" fill="#000000" fill-rule="nonzero" fill-opacity="1"></path><path clip-path="url(#clip810)" d="M2158.32 65.7705 L2158.32 89.8329 L2150.82 89.8329 L2150.82 27.2059 L2158.32 27.2059 L2158.32 34.0924 Q2160.67 30.0415 2164.23 28.0971 Q2167.84 26.1121 2172.82 26.1121 Q2181.08 26.1121 2186.23 32.6746 Q2191.41 39.2371 2191.41 49.9314 Q2191.41 60.6258 2186.23 67.1883 Q2181.08 73.7508 2172.82 73.7508 Q2167.84 73.7508 2164.23 71.8063 Q2160.67 69.8214 2158.32 65.7705 M2183.68 49.9314 Q2183.68 41.7081 2180.27 37.0496 Q2176.91 32.3505 2171 32.3505 Q2165.08 32.3505 2161.68 37.0496 Q2158.32 41.7081 2158.32 49.9314 Q2158.32 58.1548 2161.68 62.8538 Q2165.08 67.5124 2171 67.5124 Q2176.91 67.5124 2180.27 62.8538 Q2183.68 58.1548 2183.68 49.9314 Z" fill="#000000" fill-rule="nonzero" fill-opacity="1"></path><path clip-path="url(#clip810)" d="M2242.58 48.0275 L2242.58 51.6733 L2208.31 51.6733 Q2208.79 59.3701 2212.92 63.421 Q2217.1 67.4314 2224.51 67.4314 Q2228.8 67.4314 2232.81 66.3781 Q2236.86 65.3249 2240.83 63.2184 L2240.83 70.267 Q2236.82 71.9684 2232.61 72.8596 Q2228.4 73.7508 2224.06 73.7508 Q2213.21 73.7508 2206.85 67.4314 Q2200.53 61.1119 2200.53 50.3365 Q2200.53 39.1965 2206.52 32.6746 Q2212.56 26.1121 2222.77 26.1121 Q2231.92 26.1121 2237.23 32.0264 Q2242.58 37.9003 2242.58 48.0275 M2235.12 45.84 Q2235.04 39.7232 2231.68 36.0774 Q2228.36 32.4315 2222.85 32.4315 Q2216.61 32.4315 2212.84 35.9558 Q2209.12 39.4801 2208.55 45.8805 L2235.12 45.84 Z" fill="#000000" fill-rule="nonzero" fill-opacity="1"></path><path clip-path="url(#clip810)" d="M2292.52 45.1919 L2292.52 72.576 L2285.07 72.576 L2285.07 45.4349 Q2285.07 38.994 2282.56 35.7938 Q2280.05 32.5936 2275.02 32.5936 Q2268.99 32.5936 2265.5 36.4419 Q2262.02 40.2903 2262.02 46.9338 L2262.02 72.576 L2254.53 72.576 L2254.53 27.2059 L2262.02 27.2059 L2262.02 34.2544 Q2264.69 30.163 2268.3 28.1376 Q2271.95 26.1121 2276.68 26.1121 Q2284.5 26.1121 2288.51 30.9732 Q2292.52 35.7938 2292.52 45.1919 Z" fill="#000000" fill-rule="nonzero" fill-opacity="1"></path><path clip-path="url(#clip810)" d="M2336.31 28.5427 L2336.31 35.5912 Q2333.15 33.9709 2329.75 33.1607 Q2326.35 32.3505 2322.7 32.3505 Q2317.15 32.3505 2314.36 34.0519 Q2311.6 35.7533 2311.6 39.156 Q2311.6 41.7486 2313.59 43.2475 Q2315.57 44.7058 2321.57 46.0426 L2324.12 46.6097 Q2332.06 48.3111 2335.38 51.4303 Q2338.74 54.509 2338.74 60.0587 Q2338.74 66.3781 2333.72 70.0644 Q2328.74 73.7508 2319.99 73.7508 Q2316.34 73.7508 2312.37 73.0216 Q2308.44 72.3329 2304.07 70.9151 L2304.07 63.2184 Q2308.2 65.3654 2312.21 66.4591 Q2316.22 67.5124 2320.15 67.5124 Q2325.42 67.5124 2328.25 65.73 Q2331.09 63.9071 2331.09 60.6258 Q2331.09 57.5877 2329.02 55.9673 Q2327 54.3469 2320.07 52.8481 L2317.48 52.2405 Q2310.55 50.7821 2307.47 47.7845 Q2304.39 44.7463 2304.39 39.4801 Q2304.39 33.0797 2308.93 29.5959 Q2313.47 26.1121 2321.81 26.1121 Q2325.94 26.1121 2329.59 26.7198 Q2333.24 27.3274 2336.31 28.5427 Z" fill="#000000" fill-rule="nonzero" fill-opacity="1"></path><path clip-path="url(#clip810)" d="M2371.23 49.7694 Q2362.2 49.7694 2358.72 51.8354 Q2355.23 53.9013 2355.23 58.8839 Q2355.23 62.8538 2357.82 65.2034 Q2360.46 67.5124 2364.95 67.5124 Q2371.15 67.5124 2374.88 63.1374 Q2378.65 58.7219 2378.65 51.4303 L2378.65 49.7694 L2371.23 49.7694 M2386.1 46.6907 L2386.1 72.576 L2378.65 72.576 L2378.65 65.6895 Q2376.09 69.8214 2372.29 71.8063 Q2368.48 73.7508 2362.97 73.7508 Q2356 73.7508 2351.87 69.8619 Q2347.78 65.9325 2347.78 59.3701 Q2347.78 51.7138 2352.88 47.825 Q2358.03 43.9361 2368.19 43.9361 L2378.65 43.9361 L2378.65 43.2069 Q2378.65 38.0623 2375.24 35.2672 Q2371.88 32.4315 2365.76 32.4315 Q2361.88 32.4315 2358.19 33.3632 Q2354.5 34.295 2351.1 36.1584 L2351.1 29.2718 Q2355.19 27.692 2359.04 26.9223 Q2362.89 26.1121 2366.53 26.1121 Q2376.38 26.1121 2381.24 31.2163 Q2386.1 36.3204 2386.1 46.6907 Z" fill="#000000" fill-rule="nonzero" fill-opacity="1"></path><path clip-path="url(#clip810)" d="M2408.83 14.324 L2408.83 27.2059 L2424.18 27.2059 L2424.18 32.9987 L2408.83 32.9987 L2408.83 57.6282 Q2408.83 63.1779 2410.32 64.7578 Q2411.86 66.3376 2416.52 66.3376 L2424.18 66.3376 L2424.18 72.576 L2416.52 72.576 Q2407.89 72.576 2404.61 69.3758 Q2401.33 66.1351 2401.33 57.6282 L2401.33 32.9987 L2395.86 32.9987 L2395.86 27.2059 L2401.33 27.2059 L2401.33 14.324 L2408.83 14.324 Z" fill="#000000" fill-rule="nonzero" fill-opacity="1"></path><path clip-path="url(#clip810)" d="M2433.98 27.2059 L2441.44 27.2059 L2441.44 72.576 L2433.98 72.576 L2433.98 27.2059 M2433.98 9.54393 L2441.44 9.54393 L2441.44 18.9825 L2433.98 18.9825 L2433.98 9.54393 Z" fill="#000000" fill-rule="nonzero" fill-opacity="1"></path><path clip-path="url(#clip810)" d="M2474.61 32.4315 Q2468.62 32.4315 2465.13 37.1306 Q2461.65 41.7891 2461.65 49.9314 Q2461.65 58.0738 2465.09 62.7728 Q2468.58 67.4314 2474.61 67.4314 Q2480.57 67.4314 2484.05 62.7323 Q2487.53 58.0333 2487.53 49.9314 Q2487.53 41.8701 2484.05 37.1711 Q2480.57 32.4315 2474.61 32.4315 M2474.61 26.1121 Q2484.33 26.1121 2489.88 32.4315 Q2495.43 38.7509 2495.43 49.9314 Q2495.43 61.0714 2489.88 67.4314 Q2484.33 73.7508 2474.61 73.7508 Q2464.85 73.7508 2459.3 67.4314 Q2453.79 61.0714 2453.79 49.9314 Q2453.79 38.7509 2459.3 32.4315 Q2464.85 26.1121 2474.61 26.1121 Z" fill="#000000" fill-rule="nonzero" fill-opacity="1"></path><path clip-path="url(#clip810)" d="M2545.5 45.1919 L2545.5 72.576 L2538.05 72.576 L2538.05 45.4349 Q2538.05 38.994 2535.54 35.7938 Q2533.03 32.5936 2528 32.5936 Q2521.97 32.5936 2518.48 36.4419 Q2515 40.2903 2515 46.9338 L2515 72.576 L2507.51 72.576 L2507.51 27.2059 L2515 27.2059 L2515 34.2544 Q2517.67 30.163 2521.28 28.1376 Q2524.92 26.1121 2529.66 26.1121 Q2537.48 26.1121 2541.49 30.9732 Q2545.5 35.7938 2545.5 45.1919 Z" fill="#000000" fill-rule="nonzero" fill-opacity="1"></path><polyline clip-path="url(#clip812)" style="stroke:#0000ff; stroke-linecap:round; stroke-linejoin:round; stroke-width:4; stroke-opacity:1; fill:none" points="264.778,384.256 940.499,685.367 1616.22,160.256 2291.94,935.058 "></polyline>
<circle clip-path="url(#clip812)" cx="264.778" cy="384.256" r="14.4" fill="#0000ff" fill-rule="evenodd" fill-opacity="1" stroke="#000000" stroke-opacity="1" stroke-width="3.2"></circle>
<circle clip-path="url(#clip812)" cx="940.499" cy="685.367" r="14.4" fill="#0000ff" fill-rule="evenodd" fill-opacity="1" stroke="#000000" stroke-opacity="1" stroke-width="3.2"></circle>
<circle clip-path="url(#clip812)" cx="1616.22" cy="160.256" r="14.4" fill="#0000ff" fill-rule="evenodd" fill-opacity="1" stroke="#000000" stroke-opacity="1" stroke-width="3.2"></circle>
<circle clip-path="url(#clip812)" cx="2291.94" cy="935.058" r="14.4" fill="#0000ff" fill-rule="evenodd" fill-opacity="1" stroke="#000000" stroke-opacity="1" stroke-width="3.2"></circle>
<polyline clip-path="url(#clip812)" style="stroke:#ff0000; stroke-linecap:round; stroke-linejoin:round; stroke-width:4; stroke-opacity:1; fill:none" stroke-dasharray="16, 10" points="264.778,410.129 940.499,408.574 1616.22,411.858 2291.94,1386.4 "></polyline>
<path clip-path="url(#clip812)" d="M248.778 394.129 L248.778 426.129 L280.778 426.129 L280.778 394.129 L248.778 394.129 Z" fill="#ff0000" fill-rule="evenodd" fill-opacity="1" stroke="#000000" stroke-opacity="1" stroke-width="3.2"></path>
<path clip-path="url(#clip812)" d="M924.499 392.574 L924.499 424.574 L956.499 424.574 L956.499 392.574 L924.499 392.574 Z" fill="#ff0000" fill-rule="evenodd" fill-opacity="1" stroke="#000000" stroke-opacity="1" stroke-width="3.2"></path>
<path clip-path="url(#clip812)" d="M1600.22 395.858 L1600.22 427.858 L1632.22 427.858 L1632.22 395.858 L1600.22 395.858 Z" fill="#ff0000" fill-rule="evenodd" fill-opacity="1" stroke="#000000" stroke-opacity="1" stroke-width="3.2"></path>
<path clip-path="url(#clip812)" d="M2275.94 1370.4 L2275.94 1402.4 L2307.94 1402.4 L2307.94 1370.4 L2275.94 1370.4 Z" fill="#ff0000" fill-rule="evenodd" fill-opacity="1" stroke="#000000" stroke-opacity="1" stroke-width="3.2"></path>
<path clip-path="url(#clip810)" d="M1562.71 322.316 L2281.13 322.316 L2281.13 166.796 L1562.71 166.796  Z" fill="#ffffff" fill-rule="evenodd" fill-opacity="1"></path>
<polyline clip-path="url(#clip810)" style="stroke:#000000; stroke-linecap:round; stroke-linejoin:round; stroke-width:4; stroke-opacity:1; fill:none" points="1562.71,322.316 2281.13,322.316 2281.13,166.796 1562.71,166.796 1562.71,322.316 "></polyline>
<polyline clip-path="url(#clip810)" style="stroke:#0000ff; stroke-linecap:round; stroke-linejoin:round; stroke-width:4; stroke-opacity:1; fill:none" points="1586.59,218.636 1729.84,218.636 "></polyline>
<circle clip-path="url(#clip810)" cx="1658.21" cy="218.636" r="19.8962" fill="#0000ff" fill-rule="evenodd" fill-opacity="1" stroke="#000000" stroke-opacity="1" stroke-width="4.55111"></circle>
<path clip-path="url(#clip810)" d="M1758.39 219.411 L1758.39 232.073 L1765.89 232.073 Q1769.66 232.073 1771.47 230.522 Q1773.3 228.948 1773.3 225.731 Q1773.3 222.49 1771.47 220.962 Q1769.66 219.411 1765.89 219.411 L1758.39 219.411 M1758.39 205.198 L1758.39 215.615 L1765.31 215.615 Q1768.74 215.615 1770.4 214.342 Q1772.09 213.045 1772.09 210.407 Q1772.09 207.791 1770.4 206.495 Q1768.74 205.198 1765.31 205.198 L1758.39 205.198 M1753.72 201.356 L1765.66 201.356 Q1771.01 201.356 1773.9 203.578 Q1776.79 205.8 1776.79 209.897 Q1776.79 213.069 1775.31 214.944 Q1773.83 216.819 1770.96 217.282 Q1774.41 218.022 1776.31 220.383 Q1778.23 222.721 1778.23 226.24 Q1778.23 230.869 1775.08 233.393 Q1771.93 235.916 1766.12 235.916 L1753.72 235.916 L1753.72 201.356 Z" fill="#000000" fill-rule="nonzero" fill-opacity="1"></path><path clip-path="url(#clip810)" d="M1808.23 221.888 L1808.23 223.971 L1788.65 223.971 Q1788.92 228.369 1791.28 230.684 Q1793.67 232.976 1797.9 232.976 Q1800.36 232.976 1802.65 232.374 Q1804.96 231.772 1807.23 230.569 L1807.23 234.596 Q1804.94 235.568 1802.53 236.078 Q1800.13 236.587 1797.65 236.587 Q1791.45 236.587 1787.81 232.976 Q1784.2 229.365 1784.2 223.207 Q1784.2 216.842 1787.63 213.115 Q1791.08 209.365 1796.91 209.365 Q1802.14 209.365 1805.17 212.745 Q1808.23 216.101 1808.23 221.888 M1803.97 220.638 Q1803.92 217.143 1802 215.059 Q1800.1 212.976 1796.96 212.976 Q1793.39 212.976 1791.24 214.99 Q1789.11 217.004 1788.78 220.661 L1803.97 220.638 Z" fill="#000000" fill-rule="nonzero" fill-opacity="1"></path><path clip-path="url(#clip810)" d="M1828.34 199.897 L1828.34 203.439 L1824.27 203.439 Q1821.98 203.439 1821.08 204.365 Q1820.2 205.291 1820.2 207.698 L1820.2 209.99 L1827.21 209.99 L1827.21 213.3 L1820.2 213.3 L1820.2 235.916 L1815.91 235.916 L1815.91 213.3 L1811.84 213.3 L1811.84 209.99 L1815.91 209.99 L1815.91 208.184 Q1815.91 203.856 1817.93 201.888 Q1819.94 199.897 1824.32 199.897 L1828.34 199.897 Z" fill="#000000" fill-rule="nonzero" fill-opacity="1"></path><path clip-path="url(#clip810)" d="M1841.96 212.976 Q1838.53 212.976 1836.54 215.661 Q1834.55 218.323 1834.55 222.976 Q1834.55 227.629 1836.52 230.314 Q1838.51 232.976 1841.96 232.976 Q1845.36 232.976 1847.35 230.291 Q1849.34 227.606 1849.34 222.976 Q1849.34 218.37 1847.35 215.684 Q1845.36 212.976 1841.96 212.976 M1841.96 209.365 Q1847.51 209.365 1850.68 212.976 Q1853.85 216.587 1853.85 222.976 Q1853.85 229.342 1850.68 232.976 Q1847.51 236.587 1841.96 236.587 Q1836.38 236.587 1833.21 232.976 Q1830.06 229.342 1830.06 222.976 Q1830.06 216.587 1833.21 212.976 Q1836.38 209.365 1841.96 209.365 Z" fill="#000000" fill-rule="nonzero" fill-opacity="1"></path><path clip-path="url(#clip810)" d="M1875.94 213.971 Q1875.22 213.555 1874.36 213.37 Q1873.53 213.161 1872.51 213.161 Q1868.9 213.161 1866.96 215.522 Q1865.03 217.86 1865.03 222.258 L1865.03 235.916 L1860.75 235.916 L1860.75 209.99 L1865.03 209.99 L1865.03 214.018 Q1866.38 211.657 1868.53 210.522 Q1870.68 209.365 1873.76 209.365 Q1874.2 209.365 1874.73 209.434 Q1875.27 209.481 1875.91 209.596 L1875.94 213.971 Z" fill="#000000" fill-rule="nonzero" fill-opacity="1"></path><path clip-path="url(#clip810)" d="M1901.54 221.888 L1901.54 223.971 L1881.96 223.971 Q1882.23 228.369 1884.59 230.684 Q1886.98 232.976 1891.21 232.976 Q1893.67 232.976 1895.96 232.374 Q1898.27 231.772 1900.54 230.569 L1900.54 234.596 Q1898.25 235.568 1895.84 236.078 Q1893.44 236.587 1890.96 236.587 Q1884.76 236.587 1881.12 232.976 Q1877.51 229.365 1877.51 223.207 Q1877.51 216.842 1880.94 213.115 Q1884.39 209.365 1890.22 209.365 Q1895.45 209.365 1898.48 212.745 Q1901.54 216.101 1901.54 221.888 M1897.28 220.638 Q1897.23 217.143 1895.31 215.059 Q1893.41 212.976 1890.27 212.976 Q1886.7 212.976 1884.55 214.99 Q1882.42 217.004 1882.09 220.661 L1897.28 220.638 Z" fill="#000000" fill-rule="nonzero" fill-opacity="1"></path><path clip-path="url(#clip810)" d="M1949.66 204.018 L1949.66 208.948 Q1947.3 206.749 1944.62 205.661 Q1941.95 204.573 1938.95 204.573 Q1933.02 204.573 1929.87 208.208 Q1926.72 211.819 1926.72 218.67 Q1926.72 225.499 1929.87 229.133 Q1933.02 232.744 1938.95 232.744 Q1941.95 232.744 1944.62 231.656 Q1947.3 230.569 1949.66 228.369 L1949.66 233.254 Q1947.21 234.92 1944.45 235.754 Q1941.72 236.587 1938.67 236.587 Q1930.82 236.587 1926.31 231.795 Q1921.79 226.981 1921.79 218.67 Q1921.79 210.337 1926.31 205.546 Q1930.82 200.731 1938.67 200.731 Q1941.77 200.731 1944.5 201.564 Q1947.26 202.374 1949.66 204.018 Z" fill="#000000" fill-rule="nonzero" fill-opacity="1"></path><path clip-path="url(#clip810)" d="M1966.75 212.976 Q1963.32 212.976 1961.33 215.661 Q1959.34 218.323 1959.34 222.976 Q1959.34 227.629 1961.31 230.314 Q1963.3 232.976 1966.75 232.976 Q1970.15 232.976 1972.14 230.291 Q1974.13 227.606 1974.13 222.976 Q1974.13 218.37 1972.14 215.684 Q1970.15 212.976 1966.75 212.976 M1966.75 209.365 Q1972.3 209.365 1975.47 212.976 Q1978.64 216.587 1978.64 222.976 Q1978.64 229.342 1975.47 232.976 Q1972.3 236.587 1966.75 236.587 Q1961.17 236.587 1958 232.976 Q1954.85 229.342 1954.85 222.976 Q1954.85 216.587 1958 212.976 Q1961.17 209.365 1966.75 209.365 Z" fill="#000000" fill-rule="nonzero" fill-opacity="1"></path><path clip-path="url(#clip810)" d="M2005.89 214.967 Q2007.49 212.096 2009.71 210.731 Q2011.93 209.365 2014.94 209.365 Q2018.99 209.365 2021.19 212.212 Q2023.39 215.036 2023.39 220.268 L2023.39 235.916 L2019.11 235.916 L2019.11 220.407 Q2019.11 216.68 2017.79 214.874 Q2016.47 213.069 2013.76 213.069 Q2010.45 213.069 2008.53 215.268 Q2006.61 217.467 2006.61 221.263 L2006.61 235.916 L2002.32 235.916 L2002.32 220.407 Q2002.32 216.657 2001.01 214.874 Q1999.69 213.069 1996.93 213.069 Q1993.67 213.069 1991.75 215.291 Q1989.82 217.49 1989.82 221.263 L1989.82 235.916 L1985.54 235.916 L1985.54 209.99 L1989.82 209.99 L1989.82 214.018 Q1991.28 211.633 1993.32 210.499 Q1995.36 209.365 1998.16 209.365 Q2000.98 209.365 2002.95 210.8 Q2004.94 212.235 2005.89 214.967 Z" fill="#000000" fill-rule="nonzero" fill-opacity="1"></path><path clip-path="url(#clip810)" d="M2036.01 232.027 L2036.01 245.777 L2031.72 245.777 L2031.72 209.99 L2036.01 209.99 L2036.01 213.925 Q2037.35 211.61 2039.38 210.499 Q2041.44 209.365 2044.29 209.365 Q2049.01 209.365 2051.95 213.115 Q2054.92 216.865 2054.92 222.976 Q2054.92 229.087 2051.95 232.837 Q2049.01 236.587 2044.29 236.587 Q2041.44 236.587 2039.38 235.476 Q2037.35 234.342 2036.01 232.027 M2050.5 222.976 Q2050.5 218.277 2048.55 215.615 Q2046.63 212.93 2043.25 212.93 Q2039.87 212.93 2037.93 215.615 Q2036.01 218.277 2036.01 222.976 Q2036.01 227.675 2037.93 230.36 Q2039.87 233.022 2043.25 233.022 Q2046.63 233.022 2048.55 230.36 Q2050.5 227.675 2050.5 222.976 Z" fill="#000000" fill-rule="nonzero" fill-opacity="1"></path><path clip-path="url(#clip810)" d="M2084.15 221.888 L2084.15 223.971 L2064.57 223.971 Q2064.85 228.369 2067.21 230.684 Q2069.59 232.976 2073.83 232.976 Q2076.28 232.976 2078.57 232.374 Q2080.89 231.772 2083.16 230.569 L2083.16 234.596 Q2080.87 235.568 2078.46 236.078 Q2076.05 236.587 2073.57 236.587 Q2067.37 236.587 2063.74 232.976 Q2060.13 229.365 2060.13 223.207 Q2060.13 216.842 2063.55 213.115 Q2067 209.365 2072.83 209.365 Q2078.07 209.365 2081.1 212.745 Q2084.15 216.101 2084.15 221.888 M2079.89 220.638 Q2079.85 217.143 2077.93 215.059 Q2076.03 212.976 2072.88 212.976 Q2069.32 212.976 2067.16 214.99 Q2065.03 217.004 2064.71 220.661 L2079.89 220.638 Z" fill="#000000" fill-rule="nonzero" fill-opacity="1"></path><path clip-path="url(#clip810)" d="M2112.69 220.268 L2112.69 235.916 L2108.44 235.916 L2108.44 220.407 Q2108.44 216.726 2107 214.897 Q2105.57 213.069 2102.69 213.069 Q2099.25 213.069 2097.25 215.268 Q2095.26 217.467 2095.26 221.263 L2095.26 235.916 L2090.98 235.916 L2090.98 209.99 L2095.26 209.99 L2095.26 214.018 Q2096.79 211.68 2098.85 210.522 Q2100.94 209.365 2103.64 209.365 Q2108.11 209.365 2110.4 212.143 Q2112.69 214.897 2112.69 220.268 Z" fill="#000000" fill-rule="nonzero" fill-opacity="1"></path><path clip-path="url(#clip810)" d="M2137.72 210.754 L2137.72 214.782 Q2135.91 213.856 2133.97 213.393 Q2132.02 212.93 2129.94 212.93 Q2126.77 212.93 2125.17 213.902 Q2123.6 214.874 2123.6 216.819 Q2123.6 218.3 2124.73 219.157 Q2125.87 219.99 2129.29 220.754 L2130.75 221.078 Q2135.29 222.05 2137.19 223.832 Q2139.11 225.592 2139.11 228.763 Q2139.11 232.374 2136.24 234.481 Q2133.39 236.587 2128.39 236.587 Q2126.31 236.587 2124.04 236.17 Q2121.79 235.777 2119.29 234.967 L2119.29 230.569 Q2121.65 231.795 2123.94 232.42 Q2126.24 233.022 2128.48 233.022 Q2131.49 233.022 2133.11 232.004 Q2134.73 230.962 2134.73 229.087 Q2134.73 227.351 2133.55 226.425 Q2132.39 225.499 2128.44 224.643 L2126.95 224.295 Q2123 223.462 2121.24 221.749 Q2119.48 220.013 2119.48 217.004 Q2119.48 213.346 2122.07 211.356 Q2124.66 209.365 2129.43 209.365 Q2131.79 209.365 2133.88 209.712 Q2135.96 210.059 2137.72 210.754 Z" fill="#000000" fill-rule="nonzero" fill-opacity="1"></path><path clip-path="url(#clip810)" d="M2157.67 222.883 Q2152.51 222.883 2150.52 224.064 Q2148.53 225.244 2148.53 228.092 Q2148.53 230.36 2150.01 231.703 Q2151.51 233.022 2154.08 233.022 Q2157.62 233.022 2159.75 230.522 Q2161.91 227.999 2161.91 223.832 L2161.91 222.883 L2157.67 222.883 M2166.17 221.124 L2166.17 235.916 L2161.91 235.916 L2161.91 231.981 Q2160.45 234.342 2158.27 235.476 Q2156.1 236.587 2152.95 236.587 Q2148.97 236.587 2146.61 234.365 Q2144.27 232.119 2144.27 228.369 Q2144.27 223.994 2147.19 221.772 Q2150.12 219.55 2155.94 219.55 L2161.91 219.55 L2161.91 219.133 Q2161.91 216.194 2159.96 214.596 Q2158.04 212.976 2154.55 212.976 Q2152.32 212.976 2150.22 213.508 Q2148.11 214.041 2146.17 215.106 L2146.17 211.17 Q2148.5 210.268 2150.7 209.828 Q2152.9 209.365 2154.99 209.365 Q2160.61 209.365 2163.39 212.282 Q2166.17 215.198 2166.17 221.124 Z" fill="#000000" fill-rule="nonzero" fill-opacity="1"></path><path clip-path="url(#clip810)" d="M2179.15 202.629 L2179.15 209.99 L2187.93 209.99 L2187.93 213.3 L2179.15 213.3 L2179.15 227.374 Q2179.15 230.545 2180.01 231.448 Q2180.89 232.351 2183.55 232.351 L2187.93 232.351 L2187.93 235.916 L2183.55 235.916 Q2178.62 235.916 2176.75 234.087 Q2174.87 232.235 2174.87 227.374 L2174.87 213.3 L2171.75 213.3 L2171.75 209.99 L2174.87 209.99 L2174.87 202.629 L2179.15 202.629 Z" fill="#000000" fill-rule="nonzero" fill-opacity="1"></path><path clip-path="url(#clip810)" d="M2193.53 209.99 L2197.79 209.99 L2197.79 235.916 L2193.53 235.916 L2193.53 209.99 M2193.53 199.897 L2197.79 199.897 L2197.79 205.291 L2193.53 205.291 L2193.53 199.897 Z" fill="#000000" fill-rule="nonzero" fill-opacity="1"></path><path clip-path="url(#clip810)" d="M2216.74 212.976 Q2213.32 212.976 2211.33 215.661 Q2209.34 218.323 2209.34 222.976 Q2209.34 227.629 2211.31 230.314 Q2213.3 232.976 2216.74 232.976 Q2220.15 232.976 2222.14 230.291 Q2224.13 227.606 2224.13 222.976 Q2224.13 218.37 2222.14 215.684 Q2220.15 212.976 2216.74 212.976 M2216.74 209.365 Q2222.3 209.365 2225.47 212.976 Q2228.64 216.587 2228.64 222.976 Q2228.64 229.342 2225.47 232.976 Q2222.3 236.587 2216.74 236.587 Q2211.17 236.587 2208 232.976 Q2204.85 229.342 2204.85 222.976 Q2204.85 216.587 2208 212.976 Q2211.17 209.365 2216.74 209.365 Z" fill="#000000" fill-rule="nonzero" fill-opacity="1"></path><path clip-path="url(#clip810)" d="M2257.25 220.268 L2257.25 235.916 L2252.99 235.916 L2252.99 220.407 Q2252.99 216.726 2251.56 214.897 Q2250.12 213.069 2247.25 213.069 Q2243.81 213.069 2241.81 215.268 Q2239.82 217.467 2239.82 221.263 L2239.82 235.916 L2235.54 235.916 L2235.54 209.99 L2239.82 209.99 L2239.82 214.018 Q2241.35 211.68 2243.41 210.522 Q2245.49 209.365 2248.2 209.365 Q2252.67 209.365 2254.96 212.143 Q2257.25 214.897 2257.25 220.268 Z" fill="#000000" fill-rule="nonzero" fill-opacity="1"></path><polyline clip-path="url(#clip810)" style="stroke:#ff0000; stroke-linecap:round; stroke-linejoin:round; stroke-width:4; stroke-opacity:1; fill:none" stroke-dasharray="16, 10" points="1586.59,270.476 1729.84,270.476 "></polyline>
<path clip-path="url(#clip810)" d="M1636.11 248.369 L1636.11 292.583 L1680.32 292.583 L1680.32 248.369 L1636.11 248.369 Z" fill="#ff0000" fill-rule="evenodd" fill-opacity="1" stroke="#000000" stroke-opacity="1" stroke-width="4.55111"></path>
<path clip-path="url(#clip810)" d="M1769.55 257.802 L1763.21 275.001 L1775.91 275.001 L1769.55 257.802 M1766.91 253.196 L1772.21 253.196 L1785.38 287.756 L1780.52 287.756 L1777.37 278.89 L1761.79 278.89 L1758.65 287.756 L1753.72 287.756 L1766.91 253.196 Z" fill="#000000" fill-rule="nonzero" fill-opacity="1"></path><path clip-path="url(#clip810)" d="M1801.68 251.737 L1801.68 255.279 L1797.6 255.279 Q1795.31 255.279 1794.41 256.205 Q1793.53 257.131 1793.53 259.538 L1793.53 261.83 L1800.54 261.83 L1800.54 265.14 L1793.53 265.14 L1793.53 287.756 L1789.25 287.756 L1789.25 265.14 L1785.17 265.14 L1785.17 261.83 L1789.25 261.83 L1789.25 260.024 Q1789.25 255.696 1791.26 253.728 Q1793.28 251.737 1797.65 251.737 L1801.68 251.737 Z" fill="#000000" fill-rule="nonzero" fill-opacity="1"></path><path clip-path="url(#clip810)" d="M1808.62 254.469 L1808.62 261.83 L1817.4 261.83 L1817.4 265.14 L1808.62 265.14 L1808.62 279.214 Q1808.62 282.385 1809.48 283.288 Q1810.36 284.191 1813.02 284.191 L1817.4 284.191 L1817.4 287.756 L1813.02 287.756 Q1808.09 287.756 1806.21 285.927 Q1804.34 284.075 1804.34 279.214 L1804.34 265.14 L1801.21 265.14 L1801.21 261.83 L1804.34 261.83 L1804.34 254.469 L1808.62 254.469 Z" fill="#000000" fill-rule="nonzero" fill-opacity="1"></path><path clip-path="url(#clip810)" d="M1845.17 273.728 L1845.17 275.811 L1825.59 275.811 Q1825.87 280.209 1828.23 282.524 Q1830.61 284.816 1834.85 284.816 Q1837.3 284.816 1839.59 284.214 Q1841.91 283.612 1844.18 282.409 L1844.18 286.436 Q1841.89 287.408 1839.48 287.918 Q1837.07 288.427 1834.59 288.427 Q1828.39 288.427 1824.76 284.816 Q1821.15 281.205 1821.15 275.047 Q1821.15 268.682 1824.57 264.955 Q1828.02 261.205 1833.85 261.205 Q1839.08 261.205 1842.12 264.585 Q1845.17 267.941 1845.17 273.728 M1840.91 272.478 Q1840.87 268.983 1838.95 266.899 Q1837.05 264.816 1833.9 264.816 Q1830.34 264.816 1828.18 266.83 Q1826.05 268.844 1825.73 272.501 L1840.91 272.478 Z" fill="#000000" fill-rule="nonzero" fill-opacity="1"></path><path clip-path="url(#clip810)" d="M1867.19 265.811 Q1866.47 265.395 1865.61 265.21 Q1864.78 265.001 1863.76 265.001 Q1860.15 265.001 1858.21 267.362 Q1856.28 269.7 1856.28 274.098 L1856.28 287.756 L1852 287.756 L1852 261.83 L1856.28 261.83 L1856.28 265.858 Q1857.63 263.497 1859.78 262.362 Q1861.93 261.205 1865.01 261.205 Q1865.45 261.205 1865.98 261.274 Q1866.52 261.321 1867.16 261.436 L1867.19 265.811 Z" fill="#000000" fill-rule="nonzero" fill-opacity="1"></path><path clip-path="url(#clip810)" d="M1912.79 255.858 L1912.79 260.788 Q1910.43 258.589 1907.74 257.501 Q1905.08 256.413 1902.07 256.413 Q1896.14 256.413 1893 260.048 Q1889.85 263.659 1889.85 270.51 Q1889.85 277.339 1893 280.973 Q1896.14 284.584 1902.07 284.584 Q1905.08 284.584 1907.74 283.496 Q1910.43 282.409 1912.79 280.209 L1912.79 285.094 Q1910.33 286.76 1907.58 287.594 Q1904.85 288.427 1901.79 288.427 Q1893.95 288.427 1889.43 283.635 Q1884.92 278.821 1884.92 270.51 Q1884.92 262.177 1889.43 257.386 Q1893.95 252.571 1901.79 252.571 Q1904.89 252.571 1907.63 253.404 Q1910.38 254.214 1912.79 255.858 Z" fill="#000000" fill-rule="nonzero" fill-opacity="1"></path><path clip-path="url(#clip810)" d="M1929.87 264.816 Q1926.45 264.816 1924.45 267.501 Q1922.46 270.163 1922.46 274.816 Q1922.46 279.469 1924.43 282.154 Q1926.42 284.816 1929.87 284.816 Q1933.27 284.816 1935.27 282.131 Q1937.26 279.446 1937.26 274.816 Q1937.26 270.21 1935.27 267.524 Q1933.27 264.816 1929.87 264.816 M1929.87 261.205 Q1935.43 261.205 1938.6 264.816 Q1941.77 268.427 1941.77 274.816 Q1941.77 281.182 1938.6 284.816 Q1935.43 288.427 1929.87 288.427 Q1924.29 288.427 1921.12 284.816 Q1917.97 281.182 1917.97 274.816 Q1917.97 268.427 1921.12 264.816 Q1924.29 261.205 1929.87 261.205 Z" fill="#000000" fill-rule="nonzero" fill-opacity="1"></path><path clip-path="url(#clip810)" d="M1969.01 266.807 Q1970.61 263.936 1972.83 262.571 Q1975.06 261.205 1978.07 261.205 Q1982.12 261.205 1984.32 264.052 Q1986.51 266.876 1986.51 272.108 L1986.51 287.756 L1982.23 287.756 L1982.23 272.247 Q1982.23 268.52 1980.91 266.714 Q1979.59 264.909 1976.89 264.909 Q1973.57 264.909 1971.65 267.108 Q1969.73 269.307 1969.73 273.103 L1969.73 287.756 L1965.45 287.756 L1965.45 272.247 Q1965.45 268.497 1964.13 266.714 Q1962.81 264.909 1960.06 264.909 Q1956.79 264.909 1954.87 267.131 Q1952.95 269.33 1952.95 273.103 L1952.95 287.756 L1948.67 287.756 L1948.67 261.83 L1952.95 261.83 L1952.95 265.858 Q1954.41 263.473 1956.45 262.339 Q1958.48 261.205 1961.28 261.205 Q1964.11 261.205 1966.08 262.64 Q1968.07 264.075 1969.01 266.807 Z" fill="#000000" fill-rule="nonzero" fill-opacity="1"></path><path clip-path="url(#clip810)" d="M1999.13 283.867 L1999.13 297.617 L1994.85 297.617 L1994.85 261.83 L1999.13 261.83 L1999.13 265.765 Q2000.47 263.45 2002.51 262.339 Q2004.57 261.205 2007.42 261.205 Q2012.14 261.205 2015.08 264.955 Q2018.04 268.705 2018.04 274.816 Q2018.04 280.927 2015.08 284.677 Q2012.14 288.427 2007.42 288.427 Q2004.57 288.427 2002.51 287.316 Q2000.47 286.182 1999.13 283.867 M2013.62 274.816 Q2013.62 270.117 2011.68 267.455 Q2009.76 264.77 2006.38 264.77 Q2003 264.77 2001.05 267.455 Q1999.13 270.117 1999.13 274.816 Q1999.13 279.515 2001.05 282.2 Q2003 284.862 2006.38 284.862 Q2009.76 284.862 2011.68 282.2 Q2013.62 279.515 2013.62 274.816 Z" fill="#000000" fill-rule="nonzero" fill-opacity="1"></path><path clip-path="url(#clip810)" d="M2047.28 273.728 L2047.28 275.811 L2027.7 275.811 Q2027.97 280.209 2030.33 282.524 Q2032.72 284.816 2036.95 284.816 Q2039.41 284.816 2041.7 284.214 Q2044.01 283.612 2046.28 282.409 L2046.28 286.436 Q2043.99 287.408 2041.58 287.918 Q2039.18 288.427 2036.7 288.427 Q2030.5 288.427 2026.86 284.816 Q2023.25 281.205 2023.25 275.047 Q2023.25 268.682 2026.68 264.955 Q2030.13 261.205 2035.96 261.205 Q2041.19 261.205 2044.22 264.585 Q2047.28 267.941 2047.28 273.728 M2043.02 272.478 Q2042.97 268.983 2041.05 266.899 Q2039.15 264.816 2036.01 264.816 Q2032.44 264.816 2030.29 266.83 Q2028.16 268.844 2027.83 272.501 L2043.02 272.478 Z" fill="#000000" fill-rule="nonzero" fill-opacity="1"></path><path clip-path="url(#clip810)" d="M2075.82 272.108 L2075.82 287.756 L2071.56 287.756 L2071.56 272.247 Q2071.56 268.566 2070.13 266.737 Q2068.69 264.909 2065.82 264.909 Q2062.37 264.909 2060.38 267.108 Q2058.39 269.307 2058.39 273.103 L2058.39 287.756 L2054.11 287.756 L2054.11 261.83 L2058.39 261.83 L2058.39 265.858 Q2059.92 263.52 2061.98 262.362 Q2064.06 261.205 2066.77 261.205 Q2071.24 261.205 2073.53 263.983 Q2075.82 266.737 2075.82 272.108 Z" fill="#000000" fill-rule="nonzero" fill-opacity="1"></path><path clip-path="url(#clip810)" d="M2100.84 262.594 L2100.84 266.622 Q2099.04 265.696 2097.09 265.233 Q2095.15 264.77 2093.07 264.77 Q2089.89 264.77 2088.3 265.742 Q2086.72 266.714 2086.72 268.659 Q2086.72 270.14 2087.86 270.997 Q2088.99 271.83 2092.42 272.594 L2093.88 272.918 Q2098.41 273.89 2100.31 275.672 Q2102.23 277.432 2102.23 280.603 Q2102.23 284.214 2099.36 286.321 Q2096.51 288.427 2091.51 288.427 Q2089.43 288.427 2087.16 288.01 Q2084.92 287.617 2082.42 286.807 L2082.42 282.409 Q2084.78 283.635 2087.07 284.26 Q2089.36 284.862 2091.61 284.862 Q2094.62 284.862 2096.24 283.844 Q2097.86 282.802 2097.86 280.927 Q2097.86 279.191 2096.68 278.265 Q2095.52 277.339 2091.56 276.483 L2090.08 276.135 Q2086.12 275.302 2084.36 273.589 Q2082.6 271.853 2082.6 268.844 Q2082.6 265.186 2085.19 263.196 Q2087.79 261.205 2092.56 261.205 Q2094.92 261.205 2097 261.552 Q2099.08 261.899 2100.84 262.594 Z" fill="#000000" fill-rule="nonzero" fill-opacity="1"></path><path clip-path="url(#clip810)" d="M2120.8 274.723 Q2115.63 274.723 2113.64 275.904 Q2111.65 277.084 2111.65 279.932 Q2111.65 282.2 2113.13 283.543 Q2114.64 284.862 2117.21 284.862 Q2120.75 284.862 2122.88 282.362 Q2125.03 279.839 2125.03 275.672 L2125.03 274.723 L2120.8 274.723 M2129.29 272.964 L2129.29 287.756 L2125.03 287.756 L2125.03 283.821 Q2123.57 286.182 2121.4 287.316 Q2119.22 288.427 2116.07 288.427 Q2112.09 288.427 2109.73 286.205 Q2107.39 283.959 2107.39 280.209 Q2107.39 275.834 2110.31 273.612 Q2113.25 271.39 2119.06 271.39 L2125.03 271.39 L2125.03 270.973 Q2125.03 268.034 2123.09 266.436 Q2121.17 264.816 2117.67 264.816 Q2115.45 264.816 2113.34 265.348 Q2111.24 265.881 2109.29 266.946 L2109.29 263.01 Q2111.63 262.108 2113.83 261.668 Q2116.03 261.205 2118.11 261.205 Q2123.74 261.205 2126.51 264.122 Q2129.29 267.038 2129.29 272.964 Z" fill="#000000" fill-rule="nonzero" fill-opacity="1"></path><path clip-path="url(#clip810)" d="M2142.28 254.469 L2142.28 261.83 L2151.05 261.83 L2151.05 265.14 L2142.28 265.14 L2142.28 279.214 Q2142.28 282.385 2143.13 283.288 Q2144.01 284.191 2146.68 284.191 L2151.05 284.191 L2151.05 287.756 L2146.68 287.756 Q2141.75 287.756 2139.87 285.927 Q2138 284.075 2138 279.214 L2138 265.14 L2134.87 265.14 L2134.87 261.83 L2138 261.83 L2138 254.469 L2142.28 254.469 Z" fill="#000000" fill-rule="nonzero" fill-opacity="1"></path><path clip-path="url(#clip810)" d="M2156.65 261.83 L2160.91 261.83 L2160.91 287.756 L2156.65 287.756 L2156.65 261.83 M2156.65 251.737 L2160.91 251.737 L2160.91 257.131 L2156.65 257.131 L2156.65 251.737 Z" fill="#000000" fill-rule="nonzero" fill-opacity="1"></path><path clip-path="url(#clip810)" d="M2179.87 264.816 Q2176.44 264.816 2174.45 267.501 Q2172.46 270.163 2172.46 274.816 Q2172.46 279.469 2174.43 282.154 Q2176.42 284.816 2179.87 284.816 Q2183.27 284.816 2185.26 282.131 Q2187.25 279.446 2187.25 274.816 Q2187.25 270.21 2185.26 267.524 Q2183.27 264.816 2179.87 264.816 M2179.87 261.205 Q2185.43 261.205 2188.6 264.816 Q2191.77 268.427 2191.77 274.816 Q2191.77 281.182 2188.6 284.816 Q2185.43 288.427 2179.87 288.427 Q2174.29 288.427 2171.12 284.816 Q2167.97 281.182 2167.97 274.816 Q2167.97 268.427 2171.12 264.816 Q2174.29 261.205 2179.87 261.205 Z" fill="#000000" fill-rule="nonzero" fill-opacity="1"></path><path clip-path="url(#clip810)" d="M2220.38 272.108 L2220.38 287.756 L2216.12 287.756 L2216.12 272.247 Q2216.12 268.566 2214.68 266.737 Q2213.25 264.909 2210.38 264.909 Q2206.93 264.909 2204.94 267.108 Q2202.95 269.307 2202.95 273.103 L2202.95 287.756 L2198.67 287.756 L2198.67 261.83 L2202.95 261.83 L2202.95 265.858 Q2204.48 263.52 2206.54 262.362 Q2208.62 261.205 2211.33 261.205 Q2215.8 261.205 2218.09 263.983 Q2220.38 266.737 2220.38 272.108 Z" fill="#000000" fill-rule="nonzero" fill-opacity="1"></path></svg>