<svg xmlns="http://www.w3.org/2000/svg" xmlns:xlink="http://www.w3.org/1999/xlink" width="600" height="400" viewBox="0 0 2400 1600">
<defs>
  <clipPath id="clip760">
    <rect x="0" y="0" width="2400" height="1600"></rect>
  </clipPath>
</defs>
<path clip-path="url(#clip760)" d="M0 1600 L2400 1600 L2400 8.88178e-14 L0 8.88178e-14  Z" fill="#ffffff" fill-rule="evenodd" fill-opacity="1"></path>
<defs>
  <clipPath id="clip761">
    <rect x="480" y="0" width="1681" height="1600"></rect>
  </clipPath>
</defs>
<path clip-path="url(#clip760)" d="M203.964 1423.18 L2352.76 1423.18 L2352.76 123.472 L203.964 123.472  Z" fill="#ffffff" fill-rule="evenodd" fill-opacity="1"></path>
<defs>
  <clipPath id="clip762">
    <rect x="203" y="123" width="2150" height="1301"></rect>
  </clipPath>
</defs>
<polyline clip-path="url(#clip762)" style="stroke:#000000; stroke-linecap:round; stroke-linejoin:round; stroke-width:2; stroke-opacity:0.1; fill:none" points="264.778,1423.18 264.778,123.472 "></polyline>
<polyline clip-path="url(#clip762)" style="stroke:#000000; stroke-linecap:round; stroke-linejoin:round; stroke-width:2; stroke-opacity:0.1; fill:none" points="940.499,1423.18 940.499,123.472 "></polyline>
<polyline clip-path="url(#clip762)" style="stroke:#000000; stroke-linecap:round; stroke-linejoin:round; stroke-width:2; stroke-opacity:0.1; fill:none" points="1616.22,1423.18 1616.22,123.472 "></polyline>
<polyline clip-path="url(#clip762)" style="stroke:#000000; stroke-linecap:round; stroke-linejoin:round; stroke-width:2; stroke-opacity:0.1; fill:none" points="2291.94,1423.18 2291.94,123.472 "></polyline>
<polyline clip-path="url(#clip762)" style="stroke:#000000; stroke-linecap:round; stroke-linejoin:round; stroke-width:2; stroke-opacity:0.1; fill:none" points="203.964,1351.44 2352.76,1351.44 "></polyline>
<polyline clip-path="url(#clip762)" style="stroke:#000000; stroke-linecap:round; stroke-linejoin:round; stroke-width:2; stroke-opacity:0.1; fill:none" points="203.964,1065.54 2352.76,1065.54 "></polyline>
<polyline clip-path="url(#clip762)" style="stroke:#000000; stroke-linecap:round; stroke-linejoin:round; stroke-width:2; stroke-opacity:0.1; fill:none" points="203.964,779.63 2352.76,779.63 "></polyline>
<polyline clip-path="url(#clip762)" style="stroke:#000000; stroke-linecap:round; stroke-linejoin:round; stroke-width:2; stroke-opacity:0.1; fill:none" points="203.964,493.724 2352.76,493.724 "></polyline>
<polyline clip-path="url(#clip762)" style="stroke:#000000; stroke-linecap:round; stroke-linejoin:round; stroke-width:2; stroke-opacity:0.1; fill:none" points="203.964,207.819 2352.76,207.819 "></polyline>
<polyline clip-path="url(#clip760)" style="stroke:#000000; stroke-linecap:round; stroke-linejoin:round; stroke-width:4; stroke-opacity:1; fill:none" points="203.964,1423.18 2352.76,1423.18 "></polyline>
<polyline clip-path="url(#clip760)" style="stroke:#000000; stroke-linecap:round; stroke-linejoin:round; stroke-width:4; stroke-opacity:1; fill:none" points="264.778,1423.18 264.778,1404.28 "></polyline>
<polyline clip-path="url(#clip760)" style="stroke:#000000; stroke-linecap:round; stroke-linejoin:round; stroke-width:4; stroke-opacity:1; fill:none" points="940.499,1423.18 940.499,1404.28 "></polyline>
<polyline clip-path="url(#clip760)" style="stroke:#000000; stroke-linecap:round; stroke-linejoin:round; stroke-width:4; stroke-opacity:1; fill:none" points="1616.22,1423.18 1616.22,1404.28 "></polyline>
<polyline clip-path="url(#clip760)" style="stroke:#000000; stroke-linecap:round; stroke-linejoin:round; stroke-width:4; stroke-opacity:1; fill:none" points="2291.94,1423.18 2291.94,1404.28 "></polyline>
<path clip-path="url(#clip760)" d="M177.453 1454.86 L177.453 1467.85 L183.332 1467.85 Q186.596 1467.85 188.378 1466.16 Q190.161 1464.47 190.161 1461.34 Q190.161 1458.24 188.378 1456.55 Q186.596 1454.86 183.332 1454.86 L177.453 1454.86 M172.777 1451.02 L183.332 1451.02 Q189.142 1451.02 192.105 1453.66 Q195.091 1456.27 195.091 1461.34 Q195.091 1466.46 192.105 1469.08 Q189.142 1471.69 183.332 1471.69 L177.453 1471.69 L177.453 1485.58 L172.777 1485.58 L172.777 1451.02 Z" fill="#000000" fill-rule="nonzero" fill-opacity="1"></path><path clip-path="url(#clip760)" d="M222.73 1469.93 L222.73 1485.58 L218.471 1485.58 L218.471 1470.07 Q218.471 1466.39 217.036 1464.56 Q215.6 1462.73 212.73 1462.73 Q209.281 1462.73 207.29 1464.93 Q205.3 1467.13 205.3 1470.93 L205.3 1485.58 L201.017 1485.58 L201.017 1449.56 L205.3 1449.56 L205.3 1463.68 Q206.827 1461.34 208.888 1460.19 Q210.971 1459.03 213.679 1459.03 Q218.147 1459.03 220.438 1461.81 Q222.73 1464.56 222.73 1469.93 Z" fill="#000000" fill-rule="nonzero" fill-opacity="1"></path><path clip-path="url(#clip760)" d="M243.008 1472.55 Q237.846 1472.55 235.855 1473.73 Q233.864 1474.91 233.864 1477.76 Q233.864 1480.02 235.346 1481.37 Q236.85 1482.69 239.42 1482.69 Q242.961 1482.69 245.091 1480.19 Q247.244 1477.66 247.244 1473.5 L247.244 1472.55 L243.008 1472.55 M251.503 1470.79 L251.503 1485.58 L247.244 1485.58 L247.244 1481.64 Q245.785 1484.01 243.61 1485.14 Q241.434 1486.25 238.286 1486.25 Q234.304 1486.25 231.943 1484.03 Q229.605 1481.78 229.605 1478.03 Q229.605 1473.66 232.522 1471.44 Q235.461 1469.21 241.272 1469.21 L247.244 1469.21 L247.244 1468.8 Q247.244 1465.86 245.299 1464.26 Q243.378 1462.64 239.883 1462.64 Q237.661 1462.64 235.554 1463.17 Q233.448 1463.7 231.503 1464.77 L231.503 1460.83 Q233.841 1459.93 236.04 1459.49 Q238.239 1459.03 240.323 1459.03 Q245.948 1459.03 248.725 1461.95 Q251.503 1464.86 251.503 1470.79 Z" fill="#000000" fill-rule="nonzero" fill-opacity="1"></path><path clip-path="url(#clip760)" d="M276.804 1460.42 L276.804 1464.45 Q274.998 1463.52 273.054 1463.06 Q271.109 1462.59 269.026 1462.59 Q265.855 1462.59 264.258 1463.57 Q262.684 1464.54 262.684 1466.48 Q262.684 1467.96 263.818 1468.82 Q264.952 1469.65 268.378 1470.42 L269.836 1470.74 Q274.373 1471.71 276.271 1473.5 Q278.193 1475.26 278.193 1478.43 Q278.193 1482.04 275.322 1484.14 Q272.475 1486.25 267.475 1486.25 Q265.392 1486.25 263.123 1485.83 Q260.878 1485.44 258.378 1484.63 L258.378 1480.23 Q260.739 1481.46 263.031 1482.08 Q265.322 1482.69 267.568 1482.69 Q270.577 1482.69 272.197 1481.67 Q273.818 1480.63 273.818 1478.75 Q273.818 1477.02 272.637 1476.09 Q271.48 1475.16 267.521 1474.31 L266.04 1473.96 Q262.082 1473.13 260.322 1471.41 Q258.563 1469.68 258.563 1466.67 Q258.563 1463.01 261.156 1461.02 Q263.748 1459.03 268.517 1459.03 Q270.878 1459.03 272.961 1459.38 Q275.045 1459.72 276.804 1460.42 Z" fill="#000000" fill-rule="nonzero" fill-opacity="1"></path><path clip-path="url(#clip760)" d="M307.151 1471.55 L307.151 1473.64 L287.568 1473.64 Q287.845 1478.03 290.207 1480.35 Q292.591 1482.64 296.827 1482.64 Q299.281 1482.64 301.572 1482.04 Q303.887 1481.44 306.156 1480.23 L306.156 1484.26 Q303.864 1485.23 301.456 1485.74 Q299.049 1486.25 296.572 1486.25 Q290.369 1486.25 286.734 1482.64 Q283.123 1479.03 283.123 1472.87 Q283.123 1466.51 286.549 1462.78 Q289.998 1459.03 295.832 1459.03 Q301.063 1459.03 304.095 1462.41 Q307.151 1465.77 307.151 1471.55 M302.892 1470.3 Q302.845 1466.81 300.924 1464.72 Q299.026 1462.64 295.878 1462.64 Q292.313 1462.64 290.16 1464.65 Q288.031 1466.67 287.707 1470.33 L302.892 1470.3 Z" fill="#000000" fill-rule="nonzero" fill-opacity="1"></path><path clip-path="url(#clip760)" d="M340.947 1455.63 L334.604 1472.83 L347.313 1472.83 L340.947 1455.63 M338.308 1451.02 L343.609 1451.02 L356.78 1485.58 L351.919 1485.58 L348.771 1476.71 L333.192 1476.71 L330.044 1485.58 L325.114 1485.58 L338.308 1451.02 Z" fill="#000000" fill-rule="nonzero" fill-opacity="1"></path><path clip-path="url(#clip760)" d="M854.609 1454.86 L854.609 1467.85 L860.488 1467.85 Q863.752 1467.85 865.534 1466.16 Q867.317 1464.47 867.317 1461.34 Q867.317 1458.24 865.534 1456.55 Q863.752 1454.86 860.488 1454.86 L854.609 1454.86 M849.933 1451.02 L860.488 1451.02 Q866.298 1451.02 869.261 1453.66 Q872.247 1456.27 872.247 1461.34 Q872.247 1466.46 869.261 1469.08 Q866.298 1471.69 860.488 1471.69 L854.609 1471.69 L854.609 1485.58 L849.933 1485.58 L849.933 1451.02 Z" fill="#000000" fill-rule="nonzero" fill-opacity="1"></path><path clip-path="url(#clip760)" d="M899.886 1469.93 L899.886 1485.58 L895.627 1485.58 L895.627 1470.07 Q895.627 1466.39 894.192 1464.56 Q892.757 1462.73 889.886 1462.73 Q886.437 1462.73 884.446 1464.93 Q882.456 1467.13 882.456 1470.93 L882.456 1485.58 L878.173 1485.58 L878.173 1449.56 L882.456 1449.56 L882.456 1463.68 Q883.983 1461.34 886.044 1460.19 Q888.127 1459.03 890.835 1459.03 Q895.303 1459.03 897.594 1461.81 Q899.886 1464.56 899.886 1469.93 Z" fill="#000000" fill-rule="nonzero" fill-opacity="1"></path><path clip-path="url(#clip760)" d="M920.164 1472.55 Q915.002 1472.55 913.011 1473.73 Q911.02 1474.91 911.02 1477.76 Q911.02 1480.02 912.502 1481.37 Q914.006 1482.69 916.576 1482.69 Q920.117 1482.69 922.247 1480.19 Q924.4 1477.66 924.4 1473.5 L924.4 1472.55 L920.164 1472.55 M928.659 1470.79 L928.659 1485.58 L924.4 1485.58 L924.4 1481.64 Q922.942 1484.01 920.766 1485.14 Q918.59 1486.25 915.442 1486.25 Q911.46 1486.25 909.099 1484.03 Q906.761 1481.78 906.761 1478.03 Q906.761 1473.66 909.678 1471.44 Q912.618 1469.21 918.428 1469.21 L924.4 1469.21 L924.4 1468.8 Q924.4 1465.86 922.455 1464.26 Q920.534 1462.64 917.039 1462.64 Q914.817 1462.64 912.71 1463.17 Q910.604 1463.7 908.659 1464.77 L908.659 1460.83 Q910.997 1459.93 913.196 1459.49 Q915.395 1459.03 917.479 1459.03 Q923.104 1459.03 925.881 1461.95 Q928.659 1464.86 928.659 1470.79 Z" fill="#000000" fill-rule="nonzero" fill-opacity="1"></path><path clip-path="url(#clip760)" d="M953.96 1460.42 L953.96 1464.45 Q952.154 1463.52 950.21 1463.06 Q948.265 1462.59 946.182 1462.59 Q943.011 1462.59 941.414 1463.57 Q939.84 1464.54 939.84 1466.48 Q939.84 1467.96 940.974 1468.82 Q942.108 1469.65 945.534 1470.42 L946.992 1470.74 Q951.529 1471.71 953.427 1473.5 Q955.349 1475.26 955.349 1478.43 Q955.349 1482.04 952.478 1484.14 Q949.631 1486.25 944.631 1486.25 Q942.548 1486.25 940.279 1485.83 Q938.034 1485.44 935.534 1484.63 L935.534 1480.23 Q937.895 1481.46 940.187 1482.08 Q942.478 1482.69 944.724 1482.69 Q947.733 1482.69 949.353 1481.67 Q950.974 1480.63 950.974 1478.75 Q950.974 1477.02 949.793 1476.09 Q948.636 1475.16 944.678 1474.31 L943.196 1473.96 Q939.238 1473.13 937.478 1471.41 Q935.719 1469.68 935.719 1466.67 Q935.719 1463.01 938.312 1461.02 Q940.904 1459.03 945.673 1459.03 Q948.034 1459.03 950.117 1459.38 Q952.201 1459.72 953.96 1460.42 Z" fill="#000000" fill-rule="nonzero" fill-opacity="1"></path><path clip-path="url(#clip760)" d="M984.307 1471.55 L984.307 1473.64 L964.724 1473.64 Q965.001 1478.03 967.363 1480.35 Q969.747 1482.64 973.983 1482.64 Q976.437 1482.64 978.728 1482.04 Q981.043 1481.44 983.312 1480.23 L983.312 1484.26 Q981.02 1485.23 978.613 1485.74 Q976.205 1486.25 973.728 1486.25 Q967.525 1486.25 963.89 1482.64 Q960.279 1479.03 960.279 1472.87 Q960.279 1466.51 963.705 1462.78 Q967.154 1459.03 972.988 1459.03 Q978.219 1459.03 981.251 1462.41 Q984.307 1465.77 984.307 1471.55 M980.048 1470.3 Q980.001 1466.81 978.08 1464.72 Q976.182 1462.64 973.034 1462.64 Q969.469 1462.64 967.316 1464.65 Q965.187 1466.67 964.863 1470.33 L980.048 1470.3 Z" fill="#000000" fill-rule="nonzero" fill-opacity="1"></path><path clip-path="url(#clip760)" d="M1011.23 1469.08 L1011.23 1481.74 L1018.73 1481.74 Q1022.5 1481.74 1024.31 1480.19 Q1026.14 1478.61 1026.14 1475.39 Q1026.14 1472.15 1024.31 1470.63 Q1022.5 1469.08 1018.73 1469.08 L1011.23 1469.08 M1011.23 1454.86 L1011.23 1465.28 L1018.15 1465.28 Q1021.58 1465.28 1023.24 1464.01 Q1024.93 1462.71 1024.93 1460.07 Q1024.93 1457.45 1023.24 1456.16 Q1021.58 1454.86 1018.15 1454.86 L1011.23 1454.86 M1006.55 1451.02 L1018.5 1451.02 Q1023.84 1451.02 1026.74 1453.24 Q1029.63 1455.46 1029.63 1459.56 Q1029.63 1462.73 1028.15 1464.61 Q1026.67 1466.48 1023.8 1466.95 Q1027.25 1467.69 1029.14 1470.05 Q1031.07 1472.39 1031.07 1475.9 Q1031.07 1480.53 1027.92 1483.06 Q1024.77 1485.58 1018.96 1485.58 L1006.55 1485.58 L1006.55 1451.02 Z" fill="#000000" fill-rule="nonzero" fill-opacity="1"></path><path clip-path="url(#clip760)" d="M1529.65 1454.86 L1529.65 1467.85 L1535.53 1467.85 Q1538.79 1467.85 1540.57 1466.16 Q1542.35 1464.47 1542.35 1461.34 Q1542.35 1458.24 1540.57 1456.55 Q1538.79 1454.86 1535.53 1454.86 L1529.65 1454.86 M1524.97 1451.02 L1535.53 1451.02 Q1541.34 1451.02 1544.3 1453.66 Q1547.29 1456.27 1547.29 1461.34 Q1547.29 1466.46 1544.3 1469.08 Q1541.34 1471.69 1535.53 1471.69 L1529.65 1471.69 L1529.65 1485.58 L1524.97 1485.58 L1524.97 1451.02 Z" fill="#000000" fill-rule="nonzero" fill-opacity="1"></path><path clip-path="url(#clip760)" d="M1574.92 1469.93 L1574.92 1485.58 L1570.66 1485.58 L1570.66 1470.07 Q1570.66 1466.39 1569.23 1464.56 Q1567.79 1462.73 1564.92 1462.73 Q1561.48 1462.73 1559.48 1464.93 Q1557.49 1467.13 1557.49 1470.93 L1557.49 1485.58 L1553.21 1485.58 L1553.21 1449.56 L1557.49 1449.56 L1557.49 1463.68 Q1559.02 1461.34 1561.08 1460.19 Q1563.16 1459.03 1565.87 1459.03 Q1570.34 1459.03 1572.63 1461.81 Q1574.92 1464.56 1574.92 1469.93 Z" fill="#000000" fill-rule="nonzero" fill-opacity="1"></path><path clip-path="url(#clip760)" d="M1595.2 1472.55 Q1590.04 1472.55 1588.05 1473.73 Q1586.06 1474.91 1586.06 1477.76 Q1586.06 1480.02 1587.54 1481.37 Q1589.04 1482.69 1591.61 1482.69 Q1595.16 1482.69 1597.29 1480.19 Q1599.44 1477.66 1599.44 1473.5 L1599.44 1472.55 L1595.2 1472.55 M1603.7 1470.79 L1603.7 1485.58 L1599.44 1485.58 L1599.44 1481.64 Q1597.98 1484.01 1595.8 1485.14 Q1593.63 1486.25 1590.48 1486.25 Q1586.5 1486.25 1584.14 1484.03 Q1581.8 1481.78 1581.8 1478.03 Q1581.8 1473.66 1584.72 1471.44 Q1587.66 1469.21 1593.47 1469.21 L1599.44 1469.21 L1599.44 1468.8 Q1599.44 1465.86 1597.49 1464.26 Q1595.57 1462.64 1592.08 1462.64 Q1589.85 1462.64 1587.75 1463.17 Q1585.64 1463.7 1583.7 1464.77 L1583.7 1460.83 Q1586.04 1459.93 1588.23 1459.49 Q1590.43 1459.03 1592.52 1459.03 Q1598.14 1459.03 1600.92 1461.95 Q1603.7 1464.86 1603.7 1470.79 Z" fill="#000000" fill-rule="nonzero" fill-opacity="1"></path><path clip-path="url(#clip760)" d="M1629 1460.42 L1629 1464.45 Q1627.19 1463.52 1625.25 1463.06 Q1623.3 1462.59 1621.22 1462.59 Q1618.05 1462.59 1616.45 1463.57 Q1614.88 1464.54 1614.88 1466.48 Q1614.88 1467.96 1616.01 1468.82 Q1617.15 1469.65 1620.57 1470.42 L1622.03 1470.74 Q1626.57 1471.71 1628.47 1473.5 Q1630.39 1475.26 1630.39 1478.43 Q1630.39 1482.04 1627.52 1484.14 Q1624.67 1486.25 1619.67 1486.25 Q1617.59 1486.25 1615.32 1485.83 Q1613.07 1485.44 1610.57 1484.63 L1610.57 1480.23 Q1612.93 1481.46 1615.22 1482.08 Q1617.52 1482.69 1619.76 1482.69 Q1622.77 1482.69 1624.39 1481.67 Q1626.01 1480.63 1626.01 1478.75 Q1626.01 1477.02 1624.83 1476.09 Q1623.67 1475.16 1619.72 1474.31 L1618.23 1473.96 Q1614.28 1473.13 1612.52 1471.41 Q1610.76 1469.68 1610.76 1466.67 Q1610.76 1463.01 1613.35 1461.02 Q1615.94 1459.03 1620.71 1459.03 Q1623.07 1459.03 1625.16 1459.38 Q1627.24 1459.72 1629 1460.42 Z" fill="#000000" fill-rule="nonzero" fill-opacity="1"></path><path clip-path="url(#clip760)" d="M1659.34 1471.55 L1659.34 1473.64 L1639.76 1473.64 Q1640.04 1478.03 1642.4 1480.35 Q1644.78 1482.64 1649.02 1482.64 Q1651.47 1482.64 1653.77 1482.04 Q1656.08 1481.44 1658.35 1480.23 L1658.35 1484.26 Q1656.06 1485.23 1653.65 1485.74 Q1651.24 1486.25 1648.77 1486.25 Q1642.56 1486.25 1638.93 1482.64 Q1635.32 1479.03 1635.32 1472.87 Q1635.32 1466.51 1638.74 1462.78 Q1642.19 1459.03 1648.03 1459.03 Q1653.26 1459.03 1656.29 1462.41 Q1659.34 1465.77 1659.34 1471.55 M1655.09 1470.3 Q1655.04 1466.81 1653.12 1464.72 Q1651.22 1462.64 1648.07 1462.64 Q1644.51 1462.64 1642.35 1464.65 Q1640.22 1466.67 1639.9 1470.33 L1655.09 1470.3 Z" fill="#000000" fill-rule="nonzero" fill-opacity="1"></path><path clip-path="url(#clip760)" d="M1707.47 1453.68 L1707.47 1458.61 Q1705.11 1456.41 1702.42 1455.33 Q1699.76 1454.24 1696.75 1454.24 Q1690.83 1454.24 1687.68 1457.87 Q1684.53 1461.48 1684.53 1468.33 Q1684.53 1475.16 1687.68 1478.8 Q1690.83 1482.41 1696.75 1482.41 Q1699.76 1482.41 1702.42 1481.32 Q1705.11 1480.23 1707.47 1478.03 L1707.47 1482.92 Q1705.02 1484.58 1702.26 1485.42 Q1699.53 1486.25 1696.47 1486.25 Q1688.63 1486.25 1684.11 1481.46 Q1679.6 1476.64 1679.6 1468.33 Q1679.6 1460 1684.11 1455.21 Q1688.63 1450.39 1696.47 1450.39 Q1699.58 1450.39 1702.31 1451.23 Q1705.06 1452.04 1707.47 1453.68 Z" fill="#000000" fill-rule="nonzero" fill-opacity="1"></path><path clip-path="url(#clip760)" d="M2209 1451.02 L2215.3 1451.02 L2230.62 1479.93 L2230.62 1451.02 L2235.16 1451.02 L2235.16 1485.58 L2228.86 1485.58 L2213.54 1456.67 L2213.54 1485.58 L2209 1485.58 L2209 1451.02 Z" fill="#000000" fill-rule="nonzero" fill-opacity="1"></path><path clip-path="url(#clip760)" d="M2266.46 1471.55 L2266.46 1473.64 L2246.87 1473.64 Q2247.15 1478.03 2249.51 1480.35 Q2251.89 1482.64 2256.13 1482.64 Q2258.58 1482.64 2260.88 1482.04 Q2263.19 1481.44 2265.46 1480.23 L2265.46 1484.26 Q2263.17 1485.23 2260.76 1485.74 Q2258.35 1486.25 2255.88 1486.25 Q2249.67 1486.25 2246.04 1482.64 Q2242.43 1479.03 2242.43 1472.87 Q2242.43 1466.51 2245.85 1462.78 Q2249.3 1459.03 2255.14 1459.03 Q2260.37 1459.03 2263.4 1462.41 Q2266.46 1465.77 2266.46 1471.55 M2262.2 1470.3 Q2262.15 1466.81 2260.23 1464.72 Q2258.33 1462.64 2255.18 1462.64 Q2251.62 1462.64 2249.46 1464.65 Q2247.33 1466.67 2247.01 1470.33 L2262.2 1470.3 Z" fill="#000000" fill-rule="nonzero" fill-opacity="1"></path><path clip-path="url(#clip760)" d="M2273.01 1475.35 L2273.01 1459.65 L2277.27 1459.65 L2277.27 1475.19 Q2277.27 1478.87 2278.7 1480.72 Q2280.14 1482.55 2283.01 1482.55 Q2286.45 1482.55 2288.45 1480.35 Q2290.46 1478.15 2290.46 1474.35 L2290.46 1459.65 L2294.72 1459.65 L2294.72 1485.58 L2290.46 1485.58 L2290.46 1481.6 Q2288.91 1483.96 2286.85 1485.12 Q2284.81 1486.25 2282.1 1486.25 Q2277.64 1486.25 2275.32 1483.47 Q2273.01 1480.7 2273.01 1475.35 M2283.72 1459.03 L2283.72 1459.03 Z" fill="#000000" fill-rule="nonzero" fill-opacity="1"></path><path clip-path="url(#clip760)" d="M2307.7 1452.29 L2307.7 1459.65 L2316.48 1459.65 L2316.48 1462.96 L2307.7 1462.96 L2307.7 1477.04 Q2307.7 1480.21 2308.56 1481.11 Q2309.44 1482.02 2312.1 1482.02 L2316.48 1482.02 L2316.48 1485.58 L2312.1 1485.58 Q2307.17 1485.58 2305.3 1483.75 Q2303.42 1481.9 2303.42 1477.04 L2303.42 1462.96 L2300.3 1462.96 L2300.3 1459.65 L2303.42 1459.65 L2303.42 1452.29 L2307.7 1452.29 Z" fill="#000000" fill-rule="nonzero" fill-opacity="1"></path><path clip-path="url(#clip760)" d="M2337.1 1463.64 Q2336.39 1463.22 2335.53 1463.03 Q2334.7 1462.83 2333.68 1462.83 Q2330.07 1462.83 2328.12 1465.19 Q2326.2 1467.52 2326.2 1471.92 L2326.2 1485.58 L2321.92 1485.58 L2321.92 1459.65 L2326.2 1459.65 L2326.2 1463.68 Q2327.54 1461.32 2329.7 1460.19 Q2331.85 1459.03 2334.93 1459.03 Q2335.37 1459.03 2335.9 1459.1 Q2336.43 1459.14 2337.08 1459.26 L2337.1 1463.64 Z" fill="#000000" fill-rule="nonzero" fill-opacity="1"></path><path clip-path="url(#clip760)" d="M2353.35 1472.55 Q2348.19 1472.55 2346.2 1473.73 Q2344.21 1474.91 2344.21 1477.76 Q2344.21 1480.02 2345.69 1481.37 Q2347.2 1482.69 2349.76 1482.69 Q2353.31 1482.69 2355.44 1480.19 Q2357.59 1477.66 2357.59 1473.5 L2357.59 1472.55 L2353.35 1472.55 M2361.85 1470.79 L2361.85 1485.58 L2357.59 1485.58 L2357.59 1481.64 Q2356.13 1484.01 2353.95 1485.14 Q2351.78 1486.25 2348.63 1486.25 Q2344.65 1486.25 2342.29 1484.03 Q2339.95 1481.78 2339.95 1478.03 Q2339.95 1473.66 2342.87 1471.44 Q2345.81 1469.21 2351.62 1469.21 L2357.59 1469.21 L2357.59 1468.8 Q2357.59 1465.86 2355.64 1464.26 Q2353.72 1462.64 2350.23 1462.64 Q2348.01 1462.64 2345.9 1463.17 Q2343.79 1463.7 2341.85 1464.77 L2341.85 1460.83 Q2344.19 1459.93 2346.39 1459.49 Q2348.58 1459.03 2350.67 1459.03 Q2356.29 1459.03 2359.07 1461.95 Q2361.85 1464.86 2361.85 1470.79 Z" fill="#000000" fill-rule="nonzero" fill-opacity="1"></path><path clip-path="url(#clip760)" d="M2370.62 1449.56 L2374.88 1449.56 L2374.88 1485.58 L2370.62 1485.58 L2370.62 1449.56 Z" fill="#000000" fill-rule="nonzero" fill-opacity="1"></path><path clip-path="url(#clip760)" d="M1192.41 1525.81 L1192.41 1543.66 L1200.49 1543.66 Q1204.98 1543.66 1207.43 1541.34 Q1209.88 1539.02 1209.88 1534.72 Q1209.88 1530.45 1207.43 1528.13 Q1204.98 1525.81 1200.49 1525.81 L1192.41 1525.81 M1185.98 1520.52 L1200.49 1520.52 Q1208.48 1520.52 1212.55 1524.15 Q1216.66 1527.75 1216.66 1534.72 Q1216.66 1541.75 1212.55 1545.35 Q1208.48 1548.95 1200.49 1548.95 L1192.41 1548.95 L1192.41 1568.04 L1185.98 1568.04 L1185.98 1520.52 Z" fill="#000000" fill-rule="nonzero" fill-opacity="1"></path><path clip-path="url(#clip760)" d="M1254.66 1546.53 L1254.66 1568.04 L1248.81 1568.04 L1248.81 1546.72 Q1248.81 1541.66 1246.83 1539.14 Q1244.86 1536.63 1240.91 1536.63 Q1236.17 1536.63 1233.43 1539.65 Q1230.7 1542.68 1230.7 1547.9 L1230.7 1568.04 L1224.81 1568.04 L1224.81 1518.52 L1230.7 1518.52 L1230.7 1537.93 Q1232.8 1534.72 1235.63 1533.13 Q1238.49 1531.54 1242.22 1531.54 Q1248.36 1531.54 1251.51 1535.36 Q1254.66 1539.14 1254.66 1546.53 Z" fill="#000000" fill-rule="nonzero" fill-opacity="1"></path><path clip-path="url(#clip760)" d="M1282.55 1550.12 Q1275.45 1550.12 1272.71 1551.75 Q1269.97 1553.37 1269.97 1557.29 Q1269.97 1560.4 1272.01 1562.25 Q1274.08 1564.07 1277.61 1564.07 Q1282.48 1564.07 1285.41 1560.63 Q1288.37 1557.16 1288.37 1551.43 L1288.37 1550.12 L1282.55 1550.12 M1294.23 1547.71 L1294.23 1568.04 L1288.37 1568.04 L1288.37 1562.63 Q1286.36 1565.88 1283.37 1567.44 Q1280.38 1568.97 1276.05 1568.97 Q1270.58 1568.97 1267.33 1565.91 Q1264.12 1562.82 1264.12 1557.67 Q1264.12 1551.65 1268.13 1548.6 Q1272.17 1545.54 1280.16 1545.54 L1288.37 1545.54 L1288.37 1544.97 Q1288.37 1540.93 1285.7 1538.73 Q1283.05 1536.5 1278.25 1536.5 Q1275.19 1536.5 1272.3 1537.23 Q1269.4 1537.97 1266.73 1539.43 L1266.73 1534.02 Q1269.94 1532.78 1272.96 1532.17 Q1275.99 1531.54 1278.85 1531.54 Q1286.59 1531.54 1290.41 1535.55 Q1294.23 1539.56 1294.23 1547.71 Z" fill="#000000" fill-rule="nonzero" fill-opacity="1"></path><path clip-path="url(#clip760)" d="M1329.01 1533.45 L1329.01 1538.98 Q1326.53 1537.71 1323.86 1537.07 Q1321.19 1536.44 1318.32 1536.44 Q1313.96 1536.44 1311.76 1537.77 Q1309.6 1539.11 1309.6 1541.79 Q1309.6 1543.82 1311.16 1545 Q1312.72 1546.15 1317.43 1547.2 L1319.43 1547.64 Q1325.67 1548.98 1328.28 1551.43 Q1330.92 1553.85 1330.92 1558.21 Q1330.92 1563.17 1326.98 1566.07 Q1323.06 1568.97 1316.19 1568.97 Q1313.32 1568.97 1310.2 1568.39 Q1307.12 1567.85 1303.68 1566.74 L1303.68 1560.69 Q1306.93 1562.38 1310.08 1563.24 Q1313.23 1564.07 1316.32 1564.07 Q1320.45 1564.07 1322.68 1562.66 Q1324.91 1561.23 1324.91 1558.65 Q1324.91 1556.27 1323.29 1554.99 Q1321.69 1553.72 1316.25 1552.54 L1314.21 1552.07 Q1308.77 1550.92 1306.35 1548.56 Q1303.93 1546.18 1303.93 1542.04 Q1303.93 1537.01 1307.5 1534.27 Q1311.06 1531.54 1317.62 1531.54 Q1320.87 1531.54 1323.73 1532.01 Q1326.6 1532.49 1329.01 1533.45 Z" fill="#000000" fill-rule="nonzero" fill-opacity="1"></path><path clip-path="url(#clip760)" d="M1370.74 1548.76 L1370.74 1551.62 L1343.82 1551.62 Q1344.2 1557.67 1347.44 1560.85 Q1350.72 1564 1356.55 1564 Q1359.92 1564 1363.07 1563.17 Q1366.25 1562.35 1369.37 1560.69 L1369.37 1566.23 Q1366.22 1567.57 1362.91 1568.27 Q1359.6 1568.97 1356.2 1568.97 Q1347.67 1568.97 1342.67 1564 Q1337.7 1559.04 1337.7 1550.57 Q1337.7 1541.82 1342.41 1536.69 Q1347.16 1531.54 1355.18 1531.54 Q1362.37 1531.54 1366.54 1536.18 Q1370.74 1540.8 1370.74 1548.76 M1364.89 1547.04 Q1364.82 1542.23 1362.18 1539.37 Q1359.57 1536.5 1355.24 1536.5 Q1350.34 1536.5 1347.38 1539.27 Q1344.45 1542.04 1344.01 1547.07 L1364.89 1547.04 Z" fill="#000000" fill-rule="nonzero" fill-opacity="1"></path><polyline clip-path="url(#clip760)" style="stroke:#000000; stroke-linecap:round; stroke-linejoin:round; stroke-width:4; stroke-opacity:1; fill:none" points="203.964,1423.18 203.964,123.472 "></polyline>
<polyline clip-path="url(#clip760)" style="stroke:#000000; stroke-linecap:round; stroke-linejoin:round; stroke-width:4; stroke-opacity:1; fill:none" points="203.964,1351.44 222.861,1351.44 "></polyline>
<polyline clip-path="url(#clip760)" style="stroke:#000000; stroke-linecap:round; stroke-linejoin:round; stroke-width:4; stroke-opacity:1; fill:none" points="203.964,1065.54 222.861,1065.54 "></polyline>
<polyline clip-path="url(#clip760)" style="stroke:#000000; stroke-linecap:round; stroke-linejoin:round; stroke-width:4; stroke-opacity:1; fill:none" points="203.964,779.63 222.861,779.63 "></polyline>
<polyline clip-path="url(#clip760)" style="stroke:#000000; stroke-linecap:round; stroke-linejoin:round; stroke-width:4; stroke-opacity:1; fill:none" points="203.964,493.724 222.861,493.724 "></polyline>
<polyline clip-path="url(#clip760)" style="stroke:#000000; stroke-linecap:round; stroke-linejoin:round; stroke-width:4; stroke-opacity:1; fill:none" points="203.964,207.819 222.861,207.819 "></polyline>
<path clip-path="url(#clip760)" d="M116.668 1364.79 L124.306 1364.79 L124.306 1338.42 L115.996 1340.09 L115.996 1335.83 L124.26 1334.16 L128.936 1334.16 L128.936 1364.79 L136.575 1364.79 L136.575 1368.72 L116.668 1368.72 L116.668 1364.79 Z" fill="#000000" fill-rule="nonzero" fill-opacity="1"></path><path clip-path="url(#clip760)" d="M156.019 1337.24 Q152.408 1337.24 150.579 1340.8 Q148.774 1344.35 148.774 1351.48 Q148.774 1358.58 150.579 1362.15 Q152.408 1365.69 156.019 1365.69 Q159.653 1365.69 161.459 1362.15 Q163.288 1358.58 163.288 1351.48 Q163.288 1344.35 161.459 1340.8 Q159.653 1337.24 156.019 1337.24 M156.019 1333.54 Q161.829 1333.54 164.885 1338.14 Q167.964 1342.73 167.964 1351.48 Q167.964 1360.2 164.885 1364.81 Q161.829 1369.39 156.019 1369.39 Q150.209 1369.39 147.13 1364.81 Q144.075 1360.2 144.075 1351.48 Q144.075 1342.73 147.13 1338.14 Q150.209 1333.54 156.019 1333.54 Z" fill="#000000" fill-rule="nonzero" fill-opacity="1"></path><path clip-path="url(#clip760)" d="M117.663 1078.88 L125.302 1078.88 L125.302 1052.51 L116.992 1054.18 L116.992 1049.92 L125.255 1048.26 L129.931 1048.26 L129.931 1078.88 L137.57 1078.88 L137.57 1082.82 L117.663 1082.82 L117.663 1078.88 Z" fill="#000000" fill-rule="nonzero" fill-opacity="1"></path><path clip-path="url(#clip760)" d="M147.061 1048.26 L165.417 1048.26 L165.417 1052.19 L151.343 1052.19 L151.343 1060.66 Q152.362 1060.32 153.38 1060.15 Q154.399 1059.97 155.417 1059.97 Q161.204 1059.97 164.584 1063.14 Q167.964 1066.31 167.964 1071.73 Q167.964 1077.31 164.491 1080.41 Q161.019 1083.49 154.7 1083.49 Q152.524 1083.49 150.255 1083.12 Q148.01 1082.75 145.603 1082 L145.603 1077.31 Q147.686 1078.44 149.908 1079 Q152.13 1079.55 154.607 1079.55 Q158.612 1079.55 160.95 1077.44 Q163.288 1075.34 163.288 1071.73 Q163.288 1068.12 160.95 1066.01 Q158.612 1063.9 154.607 1063.9 Q152.732 1063.9 150.857 1064.32 Q149.005 1064.74 147.061 1065.62 L147.061 1048.26 Z" fill="#000000" fill-rule="nonzero" fill-opacity="1"></path><path clip-path="url(#clip760)" d="M119.885 792.974 L136.204 792.974 L136.204 796.91 L114.26 796.91 L114.26 792.974 Q116.922 790.22 121.505 785.59 Q126.112 780.937 127.292 779.595 Q129.538 777.072 130.417 775.336 Q131.32 773.576 131.32 771.887 Q131.32 769.132 129.376 767.396 Q127.455 765.66 124.353 765.66 Q122.154 765.66 119.7 766.424 Q117.269 767.187 114.492 768.738 L114.492 764.016 Q117.316 762.882 119.769 762.303 Q122.223 761.725 124.26 761.725 Q129.63 761.725 132.825 764.41 Q136.019 767.095 136.019 771.586 Q136.019 773.715 135.209 775.637 Q134.422 777.535 132.316 780.127 Q131.737 780.799 128.635 784.016 Q125.533 787.211 119.885 792.974 Z" fill="#000000" fill-rule="nonzero" fill-opacity="1"></path><path clip-path="url(#clip760)" d="M156.019 765.428 Q152.408 765.428 150.579 768.993 Q148.774 772.535 148.774 779.664 Q148.774 786.771 150.579 790.336 Q152.408 793.877 156.019 793.877 Q159.653 793.877 161.459 790.336 Q163.288 786.771 163.288 779.664 Q163.288 772.535 161.459 768.993 Q159.653 765.428 156.019 765.428 M156.019 761.725 Q161.829 761.725 164.885 766.331 Q167.964 770.914 167.964 779.664 Q167.964 788.391 164.885 792.998 Q161.829 797.581 156.019 797.581 Q150.209 797.581 147.13 792.998 Q144.075 788.391 144.075 779.664 Q144.075 770.914 147.13 766.331 Q150.209 761.725 156.019 761.725 Z" fill="#000000" fill-rule="nonzero" fill-opacity="1"></path><path clip-path="url(#clip760)" d="M120.88 507.069 L137.2 507.069 L137.2 511.004 L115.256 511.004 L115.256 507.069 Q117.918 504.314 122.501 499.685 Q127.107 495.032 128.288 493.689 Q130.533 491.166 131.413 489.43 Q132.316 487.671 132.316 485.981 Q132.316 483.226 130.371 481.49 Q128.45 479.754 125.348 479.754 Q123.149 479.754 120.695 480.518 Q118.265 481.282 115.487 482.833 L115.487 478.111 Q118.311 476.976 120.765 476.398 Q123.218 475.819 125.255 475.819 Q130.626 475.819 133.82 478.504 Q137.015 481.189 137.015 485.68 Q137.015 487.81 136.204 489.731 Q135.417 491.629 133.311 494.222 Q132.732 494.893 129.63 498.111 Q126.529 501.305 120.88 507.069 Z" fill="#000000" fill-rule="nonzero" fill-opacity="1"></path><path clip-path="url(#clip760)" d="M147.061 476.444 L165.417 476.444 L165.417 480.379 L151.343 480.379 L151.343 488.851 Q152.362 488.504 153.38 488.342 Q154.399 488.157 155.417 488.157 Q161.204 488.157 164.584 491.328 Q167.964 494.5 167.964 499.916 Q167.964 505.495 164.491 508.597 Q161.019 511.675 154.7 511.675 Q152.524 511.675 150.255 511.305 Q148.01 510.935 145.603 510.194 L145.603 505.495 Q147.686 506.629 149.908 507.185 Q152.13 507.74 154.607 507.74 Q158.612 507.74 160.95 505.634 Q163.288 503.527 163.288 499.916 Q163.288 496.305 160.95 494.199 Q158.612 492.092 154.607 492.092 Q152.732 492.092 150.857 492.509 Q149.005 492.925 147.061 493.805 L147.061 476.444 Z" fill="#000000" fill-rule="nonzero" fill-opacity="1"></path><path clip-path="url(#clip760)" d="M130.024 206.464 Q133.38 207.182 135.255 209.45 Q137.154 211.719 137.154 215.052 Q137.154 220.168 133.635 222.969 Q130.117 225.77 123.635 225.77 Q121.459 225.77 119.144 225.33 Q116.853 224.913 114.399 224.057 L114.399 219.543 Q116.343 220.677 118.658 221.256 Q120.973 221.835 123.496 221.835 Q127.894 221.835 130.186 220.099 Q132.501 218.362 132.501 215.052 Q132.501 211.997 130.348 210.284 Q128.218 208.548 124.399 208.548 L120.371 208.548 L120.371 204.705 L124.584 204.705 Q128.033 204.705 129.862 203.339 Q131.691 201.951 131.691 199.358 Q131.691 196.696 129.792 195.284 Q127.917 193.849 124.399 193.849 Q122.478 193.849 120.279 194.265 Q118.08 194.682 115.441 195.562 L115.441 191.395 Q118.103 190.654 120.418 190.284 Q122.755 189.914 124.816 189.914 Q130.14 189.914 133.242 192.344 Q136.343 194.751 136.343 198.872 Q136.343 201.742 134.7 203.733 Q133.056 205.7 130.024 206.464 Z" fill="#000000" fill-rule="nonzero" fill-opacity="1"></path><path clip-path="url(#clip760)" d="M156.019 193.617 Q152.408 193.617 150.579 197.182 Q148.774 200.724 148.774 207.853 Q148.774 214.96 150.579 218.524 Q152.408 222.066 156.019 222.066 Q159.653 222.066 161.459 218.524 Q163.288 214.96 163.288 207.853 Q163.288 200.724 161.459 197.182 Q159.653 193.617 156.019 193.617 M156.019 189.914 Q161.829 189.914 164.885 194.52 Q167.964 199.103 167.964 207.853 Q167.964 216.58 164.885 221.187 Q161.829 225.77 156.019 225.77 Q150.209 225.77 147.13 221.187 Q144.075 216.58 144.075 207.853 Q144.075 199.103 147.13 194.52 Q150.209 189.914 156.019 189.914 Z" fill="#000000" fill-rule="nonzero" fill-opacity="1"></path><path clip-path="url(#clip760)" d="M20.1444 1093.9 L26.9239 1093.9 Q23.9002 1097.15 22.4043 1100.84 Q20.9083 1104.5 20.9083 1108.64 Q20.9083 1116.79 25.9054 1121.12 Q30.8707 1125.45 40.2919 1125.45 Q49.6813 1125.45 54.6784 1121.12 Q59.6436 1116.79 59.6436 1108.64 Q59.6436 1104.5 58.1477 1100.84 Q56.6518 1097.15 53.6281 1093.9 L60.3439 1093.9 Q62.6355 1097.28 63.7814 1101.06 Q64.9272 1104.82 64.9272 1109.02 Q64.9272 1119.81 58.3387 1126.02 Q51.7183 1132.22 40.2919 1132.22 Q28.8336 1132.22 22.2451 1126.02 Q15.6248 1119.81 15.6248 1109.02 Q15.6248 1104.76 16.7706 1101 Q17.8846 1097.21 20.1444 1093.9 Z" fill="#000000" fill-rule="nonzero" fill-opacity="1"></path><path clip-path="url(#clip760)" d="M49.9359 1084.83 L28.3562 1084.83 L28.3562 1078.98 L49.7131 1078.98 Q54.7739 1078.98 57.3202 1077 Q59.8346 1075.03 59.8346 1071.08 Q59.8346 1066.34 56.8109 1063.6 Q53.7872 1060.83 48.5673 1060.83 L28.3562 1060.83 L28.3562 1054.98 L64.0042 1054.98 L64.0042 1060.83 L58.5296 1060.83 Q61.7762 1062.97 63.3676 1065.8 Q64.9272 1068.6 64.9272 1072.32 Q64.9272 1078.47 61.1078 1081.65 Q57.2883 1084.83 49.9359 1084.83 M27.4968 1070.1 L27.4968 1070.1 Z" fill="#000000" fill-rule="nonzero" fill-opacity="1"></path><path clip-path="url(#clip760)" d="M33.8307 1022.26 Q33.2578 1023.24 33.0032 1024.42 Q32.7167 1025.57 32.7167 1026.97 Q32.7167 1031.93 35.9632 1034.61 Q39.1779 1037.25 45.2253 1037.25 L64.0042 1037.25 L64.0042 1043.14 L28.3562 1043.14 L28.3562 1037.25 L33.8944 1037.25 Q30.6479 1035.4 29.0883 1032.44 Q27.4968 1029.48 27.4968 1025.25 Q27.4968 1024.64 27.5923 1023.91 Q27.656 1023.18 27.8151 1022.29 L33.8307 1022.26 Z" fill="#000000" fill-rule="nonzero" fill-opacity="1"></path><path clip-path="url(#clip760)" d="M33.8307 996.603 Q33.2578 997.59 33.0032 998.767 Q32.7167 999.913 32.7167 1001.31 Q32.7167 1006.28 35.9632 1008.95 Q39.1779 1011.59 45.2253 1011.59 L64.0042 1011.59 L64.0042 1017.48 L28.3562 1017.48 L28.3562 1011.59 L33.8944 1011.59 Q30.6479 1009.75 29.0883 1006.79 Q27.4968 1003.83 27.4968 999.595 Q27.4968 998.99 27.5923 998.258 Q27.656 997.526 27.8151 996.635 L33.8307 996.603 Z" fill="#000000" fill-rule="nonzero" fill-opacity="1"></path><path clip-path="url(#clip760)" d="M44.7161 961.401 L47.5806 961.401 L47.5806 988.328 Q53.6281 987.946 56.8109 984.699 Q59.9619 981.421 59.9619 975.596 Q59.9619 972.222 59.1344 969.071 Q58.3069 965.889 56.6518 962.769 L62.1899 962.769 Q63.5267 965.92 64.227 969.231 Q64.9272 972.541 64.9272 975.946 Q64.9272 984.476 59.9619 989.474 Q54.9967 994.439 46.5303 994.439 Q37.7774 994.439 32.6531 989.728 Q27.4968 984.986 27.4968 976.965 Q27.4968 969.772 32.1438 965.602 Q36.7589 961.401 44.7161 961.401 M42.9973 967.257 Q38.1912 967.321 35.3266 969.963 Q32.4621 972.573 32.4621 976.901 Q32.4621 981.803 35.2312 984.763 Q38.0002 987.691 43.0292 988.137 L42.9973 967.257 Z" fill="#000000" fill-rule="nonzero" fill-opacity="1"></path><path clip-path="url(#clip760)" d="M42.4881 922.156 L64.0042 922.156 L64.0042 928.013 L42.679 928.013 Q37.6183 928.013 35.1038 929.986 Q32.5894 931.959 32.5894 935.906 Q32.5894 940.649 35.6131 943.386 Q38.6368 946.123 43.8567 946.123 L64.0042 946.123 L64.0042 952.011 L28.3562 952.011 L28.3562 946.123 L33.8944 946.123 Q30.6797 944.022 29.0883 941.19 Q27.4968 938.325 27.4968 934.601 Q27.4968 928.458 31.3163 925.307 Q35.1038 922.156 42.4881 922.156 Z" fill="#000000" fill-rule="nonzero" fill-opacity="1"></path><path clip-path="url(#clip760)" d="M18.2347 904.682 L28.3562 904.682 L28.3562 892.619 L32.9077 892.619 L32.9077 904.682 L52.2594 904.682 Q56.6199 904.682 57.8613 903.505 Q59.1026 902.295 59.1026 898.635 L59.1026 892.619 L64.0042 892.619 L64.0042 898.635 Q64.0042 905.414 61.4897 907.993 Q58.9434 910.571 52.2594 910.571 L32.9077 910.571 L32.9077 914.867 L28.3562 914.867 L28.3562 910.571 L18.2347 910.571 L18.2347 904.682 Z" fill="#000000" fill-rule="nonzero" fill-opacity="1"></path><path clip-path="url(#clip760)" d="M16.4842 863.942 L16.4842 854.361 L48.8219 842.235 L16.4842 830.044 L16.4842 820.464 L64.0042 820.464 L64.0042 826.734 L22.277 826.734 L54.8694 838.988 L54.8694 845.449 L22.277 857.703 L64.0042 857.703 L64.0042 863.942 L16.4842 863.942 Z" fill="#000000" fill-rule="nonzero" fill-opacity="1"></path><path clip-path="url(#clip760)" d="M46.0847 791.755 Q46.0847 798.852 47.7079 801.59 Q49.3312 804.327 53.2461 804.327 Q56.3653 804.327 58.2114 802.29 Q60.0256 800.221 60.0256 796.688 Q60.0256 791.818 56.5881 788.89 Q53.1188 785.93 47.3897 785.93 L46.0847 785.93 L46.0847 791.755 M43.6657 780.074 L64.0042 780.074 L64.0042 785.93 L58.5933 785.93 Q61.8398 787.935 63.3994 790.927 Q64.9272 793.919 64.9272 798.248 Q64.9272 803.722 61.8716 806.969 Q58.7843 810.183 53.6281 810.183 Q47.6125 810.183 44.5569 806.173 Q41.5014 802.131 41.5014 794.142 L41.5014 785.93 L40.9285 785.93 Q36.8862 785.93 34.6901 788.604 Q32.4621 791.245 32.4621 796.052 Q32.4621 799.107 33.1941 802.003 Q33.9262 804.9 35.3903 807.573 L29.9795 807.573 Q28.7381 804.359 28.1334 801.335 Q27.4968 798.311 27.4968 795.447 Q27.4968 787.712 31.5072 783.893 Q35.5176 780.074 43.6657 780.074 Z" fill="#000000" fill-rule="nonzero" fill-opacity="1"></path><path clip-path="url(#clip760)" d="M45.7664 744.553 Q39.4007 744.553 35.8996 747.195 Q32.3984 749.805 32.3984 754.547 Q32.3984 759.258 35.8996 761.9 Q39.4007 764.509 45.7664 764.509 Q52.1003 764.509 55.6014 761.9 Q59.1026 759.258 59.1026 754.547 Q59.1026 749.805 55.6014 747.195 Q52.1003 744.553 45.7664 744.553 M59.58 738.697 Q68.683 738.697 73.1071 742.739 Q77.5631 746.781 77.5631 755.12 Q77.5631 758.207 77.0857 760.945 Q76.6401 763.682 75.6852 766.26 L69.9879 766.26 Q71.3884 763.682 72.0568 761.167 Q72.7252 758.653 72.7252 756.043 Q72.7252 750.282 69.7015 747.418 Q66.7096 744.553 60.6303 744.553 L57.7339 744.553 Q60.885 746.367 62.4446 749.2 Q64.0042 752.033 64.0042 755.979 Q64.0042 762.536 59.0071 766.547 Q54.01 770.557 45.7664 770.557 Q37.491 770.557 32.4939 766.547 Q27.4968 762.536 27.4968 755.979 Q27.4968 752.033 29.0564 749.2 Q30.616 746.367 33.7671 744.553 L28.3562 744.553 L28.3562 738.697 L59.58 738.697 Z" fill="#000000" fill-rule="nonzero" fill-opacity="1"></path><path clip-path="url(#clip760)" d="M42.4881 697.001 L64.0042 697.001 L64.0042 702.858 L42.679 702.858 Q37.6183 702.858 35.1038 704.831 Q32.5894 706.804 32.5894 710.751 Q32.5894 715.494 35.6131 718.231 Q38.6368 720.968 43.8567 720.968 L64.0042 720.968 L64.0042 726.856 L28.3562 726.856 L28.3562 720.968 L33.8944 720.968 Q30.6797 718.867 29.0883 716.035 Q27.4968 713.17 27.4968 709.446 Q27.4968 703.303 31.3163 700.152 Q35.1038 697.001 42.4881 697.001 Z" fill="#000000" fill-rule="nonzero" fill-opacity="1"></path><path clip-path="url(#clip760)" d="M28.3562 685.32 L28.3562 679.464 L64.0042 679.464 L64.0042 685.32 L28.3562 685.32 M14.479 685.32 L14.479 679.464 L21.895 679.464 L21.895 685.32 L14.479 685.32 Z" fill="#000000" fill-rule="nonzero" fill-opacity="1"></path><path clip-path="url(#clip760)" d="M18.2347 661.417 L28.3562 661.417 L28.3562 649.354 L32.9077 649.354 L32.9077 661.417 L52.2594 661.417 Q56.6199 661.417 57.8613 660.239 Q59.1026 659.03 59.1026 655.369 L59.1026 649.354 L64.0042 649.354 L64.0042 655.369 Q64.0042 662.149 61.4897 664.727 Q58.9434 667.305 52.2594 667.305 L32.9077 667.305 L32.9077 671.602 L28.3562 671.602 L28.3562 667.305 L18.2347 667.305 L18.2347 661.417 Z" fill="#000000" fill-rule="nonzero" fill-opacity="1"></path><path clip-path="url(#clip760)" d="M49.9359 642.256 L28.3562 642.256 L28.3562 636.4 L49.7131 636.4 Q54.7739 636.4 57.3202 634.426 Q59.8346 632.453 59.8346 628.506 Q59.8346 623.764 56.8109 621.026 Q53.7872 618.257 48.5673 618.257 L28.3562 618.257 L28.3562 612.401 L64.0042 612.401 L64.0042 618.257 L58.5296 618.257 Q61.7762 620.39 63.3676 623.223 Q64.9272 626.024 64.9272 629.747 Q64.9272 635.89 61.1078 639.073 Q57.2883 642.256 49.9359 642.256 M27.4968 627.519 L27.4968 627.519 Z" fill="#000000" fill-rule="nonzero" fill-opacity="1"></path><path clip-path="url(#clip760)" d="M33.7671 576.88 L14.479 576.88 L14.479 571.024 L64.0042 571.024 L64.0042 576.88 L58.657 576.88 Q61.8398 578.726 63.3994 581.559 Q64.9272 584.36 64.9272 588.307 Q64.9272 594.768 59.771 598.842 Q54.6147 602.884 46.212 602.884 Q37.8093 602.884 32.6531 598.842 Q27.4968 594.768 27.4968 588.307 Q27.4968 584.36 29.0564 581.559 Q30.5842 578.726 33.7671 576.88 M46.212 596.837 Q52.6732 596.837 56.3653 594.195 Q60.0256 591.521 60.0256 586.874 Q60.0256 582.227 56.3653 579.554 Q52.6732 576.88 46.212 576.88 Q39.7508 576.88 36.0905 579.554 Q32.3984 582.227 32.3984 586.874 Q32.3984 591.521 36.0905 594.195 Q39.7508 596.837 46.212 596.837 Z" fill="#000000" fill-rule="nonzero" fill-opacity="1"></path><path clip-path="url(#clip760)" d="M44.7161 528.469 L47.5806 528.469 L47.5806 555.396 Q53.6281 555.014 56.8109 551.768 Q59.9619 548.489 59.9619 542.665 Q59.9619 539.291 59.1344 536.14 Q58.3069 532.957 56.6518 529.838 L62.1899 529.838 Q63.5267 532.989 64.227 536.299 Q64.9272 539.609 64.9272 543.015 Q64.9272 551.545 59.9619 556.542 Q54.9967 561.507 46.5303 561.507 Q37.7774 561.507 32.6531 556.796 Q27.4968 552.054 27.4968 544.033 Q27.4968 536.84 32.1438 532.67 Q36.7589 528.469 44.7161 528.469 M42.9973 534.326 Q38.1912 534.389 35.3266 537.031 Q32.4621 539.641 32.4621 543.97 Q32.4621 548.871 35.2312 551.831 Q38.0002 554.759 43.0292 555.205 L42.9973 534.326 Z" fill="#000000" fill-rule="nonzero" fill-opacity="1"></path><path clip-path="url(#clip760)" d="M14.5426 484.068 Q21.8632 488.333 29.0246 490.402 Q36.186 492.471 43.5384 492.471 Q50.8908 492.471 58.1159 490.402 Q65.3091 488.301 72.5979 484.068 L72.5979 489.161 Q65.1182 493.935 57.8931 496.322 Q50.668 498.678 43.5384 498.678 Q36.4406 498.678 29.2474 496.322 Q22.0542 493.967 14.5426 489.161 L14.5426 484.068 Z" fill="#000000" fill-rule="nonzero" fill-opacity="1"></path><path clip-path="url(#clip760)" d="M22.818 456.568 L46.4666 465.289 L46.4666 447.816 L22.818 456.568 M16.4842 460.197 L16.4842 452.908 L64.0042 434.798 L64.0042 441.482 L51.8138 445.81 L51.8138 467.231 L64.0042 471.56 L64.0042 478.339 L16.4842 460.197 Z" fill="#000000" fill-rule="nonzero" fill-opacity="1"></path><path clip-path="url(#clip760)" d="M14.5426 429.037 L14.5426 423.944 Q22.0542 419.17 29.2474 416.815 Q36.4406 414.427 43.5384 414.427 Q50.668 414.427 57.8931 416.815 Q65.1182 419.17 72.5979 423.944 L72.5979 429.037 Q65.3091 424.804 58.1159 422.735 Q50.8908 420.634 43.5384 420.634 Q36.186 420.634 29.0246 422.735 Q21.8632 424.804 14.5426 429.037 Z" fill="#000000" fill-rule="nonzero" fill-opacity="1"></path><path clip-path="url(#clip760)" d="M120.247 12.096 L128.43 12.096 L128.43 65.6895 L157.88 65.6895 L157.88 72.576 L120.247 72.576 L120.247 12.096 Z" fill="#000000" fill-rule="nonzero" fill-opacity="1"></path><path clip-path="url(#clip760)" d="M166.143 27.2059 L173.597 27.2059 L173.597 72.576 L166.143 72.576 L166.143 27.2059 M166.143 9.54393 L173.597 9.54393 L173.597 18.9825 L166.143 18.9825 L166.143 9.54393 Z" fill="#000000" fill-rule="nonzero" fill-opacity="1"></path><path clip-path="url(#clip760)" d="M226.907 45.1919 L226.907 72.576 L219.453 72.576 L219.453 45.4349 Q219.453 38.994 216.942 35.7938 Q214.43 32.5936 209.407 32.5936 Q203.371 32.5936 199.888 36.4419 Q196.404 40.2903 196.404 46.9338 L196.404 72.576 L188.91 72.576 L188.91 27.2059 L196.404 27.2059 L196.404 34.2544 Q199.077 30.163 202.683 28.1376 Q206.328 26.1121 211.068 26.1121 Q218.886 26.1121 222.897 30.9732 Q226.907 35.7938 226.907 45.1919 Z" fill="#000000" fill-rule="nonzero" fill-opacity="1"></path><path clip-path="url(#clip760)" d="M280.582 48.0275 L280.582 51.6733 L246.311 51.6733 Q246.797 59.3701 250.929 63.421 Q255.101 67.4314 262.514 67.4314 Q266.808 67.4314 270.819 66.3781 Q274.87 65.3249 278.84 63.2184 L278.84 70.267 Q274.829 71.9684 270.616 72.8596 Q266.403 73.7508 262.069 73.7508 Q251.212 73.7508 244.853 67.4314 Q238.533 61.1119 238.533 50.3365 Q238.533 39.1965 244.528 32.6746 Q250.564 26.1121 260.773 26.1121 Q269.928 26.1121 275.234 32.0264 Q280.582 37.9003 280.582 48.0275 M273.128 45.84 Q273.047 39.7232 269.685 36.0774 Q266.363 32.4315 260.854 32.4315 Q254.615 32.4315 250.848 35.9558 Q247.121 39.4801 246.554 45.8805 L273.128 45.84 Z" fill="#000000" fill-rule="nonzero" fill-opacity="1"></path><path clip-path="url(#clip760)" d="M319.511 12.096 L327.694 12.096 L327.694 65.6895 L357.144 65.6895 L357.144 72.576 L319.511 72.576 L319.511 12.096 Z" fill="#000000" fill-rule="nonzero" fill-opacity="1"></path><path clip-path="url(#clip760)" d="M367.879 65.6895 L381.246 65.6895 L381.246 19.5497 L366.704 22.4663 L366.704 15.0127 L381.165 12.096 L389.348 12.096 L389.348 65.6895 L402.716 65.6895 L402.716 72.576 L367.879 72.576 L367.879 65.6895 Z" fill="#000000" fill-rule="nonzero" fill-opacity="1"></path><path clip-path="url(#clip760)" d="M426.293 65.6895 L454.851 65.6895 L454.851 72.576 L416.449 72.576 L416.449 65.6895 Q421.107 60.8689 429.128 52.7671 Q437.189 44.6248 439.255 42.2752 Q443.185 37.8598 444.724 34.8216 Q446.304 31.7429 446.304 28.7857 Q446.304 23.9651 442.901 20.927 Q439.539 17.8888 434.111 17.8888 Q430.262 17.8888 425.968 19.2256 Q421.715 20.5624 416.854 23.2765 L416.854 15.0127 Q421.796 13.0277 426.09 12.015 Q430.384 11.0023 433.949 11.0023 Q443.347 11.0023 448.937 15.7013 Q454.527 20.4004 454.527 28.2591 Q454.527 31.9859 453.11 35.3482 Q451.732 38.6699 448.046 43.2069 Q447.033 44.3817 441.605 50.0125 Q436.177 55.6027 426.293 65.6895 Z" fill="#000000" fill-rule="nonzero" fill-opacity="1"></path><path clip-path="url(#clip760)" d="M542.959 16.7545 L542.959 25.383 Q538.827 21.5346 534.128 19.6307 Q529.469 17.7268 524.203 17.7268 Q513.833 17.7268 508.323 24.0867 Q502.814 30.4061 502.814 42.3968 Q502.814 54.3469 508.323 60.7069 Q513.833 67.0263 524.203 67.0263 Q529.469 67.0263 534.128 65.1223 Q538.827 63.2184 542.959 59.3701 L542.959 67.9175 Q538.665 70.8341 533.844 72.2924 Q529.064 73.7508 523.717 73.7508 Q509.984 73.7508 502.085 65.3654 Q494.186 56.9395 494.186 42.3968 Q494.186 27.8135 502.085 19.4281 Q509.984 11.0023 523.717 11.0023 Q529.145 11.0023 533.925 12.4606 Q538.746 13.8784 542.959 16.7545 Z" fill="#000000" fill-rule="nonzero" fill-opacity="1"></path><path clip-path="url(#clip760)" d="M554.504 54.671 L554.504 27.2059 L561.957 27.2059 L561.957 54.3874 Q561.957 60.8284 564.469 64.0691 Q566.98 67.2693 572.004 67.2693 Q578.039 67.2693 581.523 63.421 Q585.047 59.5726 585.047 52.9291 L585.047 27.2059 L592.501 27.2059 L592.501 72.576 L585.047 72.576 L585.047 65.6084 Q582.333 69.7404 578.728 71.7658 Q575.163 73.7508 570.424 73.7508 Q562.605 73.7508 558.555 68.8897 Q554.504 64.0286 554.504 54.671 M573.259 26.1121 L573.259 26.1121 Z" fill="#000000" fill-rule="nonzero" fill-opacity="1"></path><path clip-path="url(#clip760)" d="M634.144 34.1734 Q632.889 33.4443 631.39 33.1202 Q629.932 32.7556 628.149 32.7556 Q621.83 32.7556 618.427 36.8875 Q615.065 40.9789 615.065 48.6757 L615.065 72.576 L607.571 72.576 L607.571 27.2059 L615.065 27.2059 L615.065 34.2544 Q617.414 30.1225 621.182 28.1376 Q624.949 26.1121 630.337 26.1121 Q631.106 26.1121 632.038 26.2337 Q632.97 26.3147 634.104 26.5172 L634.144 34.1734 Z" fill="#000000" fill-rule="nonzero" fill-opacity="1"></path><path clip-path="url(#clip760)" d="M666.795 34.1734 Q665.539 33.4443 664.04 33.1202 Q662.582 32.7556 660.799 32.7556 Q654.48 32.7556 651.077 36.8875 Q647.715 40.9789 647.715 48.6757 L647.715 72.576 L640.221 72.576 L640.221 27.2059 L647.715 27.2059 L647.715 34.2544 Q650.064 30.1225 653.832 28.1376 Q657.599 26.1121 662.987 26.1121 Q663.757 26.1121 664.688 26.2337 Q665.62 26.3147 666.754 26.5172 L666.795 34.1734 Z" fill="#000000" fill-rule="nonzero" fill-opacity="1"></path><path clip-path="url(#clip760)" d="M711.598 48.0275 L711.598 51.6733 L677.327 51.6733 Q677.813 59.3701 681.945 63.421 Q686.118 67.4314 693.531 67.4314 Q697.825 67.4314 701.835 66.3781 Q705.886 65.3249 709.856 63.2184 L709.856 70.267 Q705.845 71.9684 701.633 72.8596 Q697.42 73.7508 693.085 73.7508 Q682.229 73.7508 675.869 67.4314 Q669.549 61.1119 669.549 50.3365 Q669.549 39.1965 675.545 32.6746 Q681.581 26.1121 691.789 26.1121 Q700.944 26.1121 706.251 32.0264 Q711.598 37.9003 711.598 48.0275 M704.144 45.84 Q704.063 39.7232 700.701 36.0774 Q697.379 32.4315 691.87 32.4315 Q685.631 32.4315 681.864 35.9558 Q678.137 39.4801 677.57 45.8805 L704.144 45.84 Z" fill="#000000" fill-rule="nonzero" fill-opacity="1"></path><path clip-path="url(#clip760)" d="M761.545 45.1919 L761.545 72.576 L754.092 72.576 L754.092 45.4349 Q754.092 38.994 751.58 35.7938 Q749.069 32.5936 744.045 32.5936 Q738.01 32.5936 734.526 36.4419 Q731.042 40.2903 731.042 46.9338 L731.042 72.576 L723.548 72.576 L723.548 27.2059 L731.042 27.2059 L731.042 34.2544 Q733.716 30.163 737.321 28.1376 Q740.967 26.1121 745.706 26.1121 Q753.525 26.1121 757.535 30.9732 Q761.545 35.7938 761.545 45.1919 Z" fill="#000000" fill-rule="nonzero" fill-opacity="1"></path><path clip-path="url(#clip760)" d="M783.785 14.324 L783.785 27.2059 L799.138 27.2059 L799.138 32.9987 L783.785 32.9987 L783.785 57.6282 Q783.785 63.1779 785.284 64.7578 Q786.823 66.3376 791.482 66.3376 L799.138 66.3376 L799.138 72.576 L791.482 72.576 Q782.853 72.576 779.572 69.3758 Q776.291 66.1351 776.291 57.6282 L776.291 32.9987 L770.822 32.9987 L770.822 27.2059 L776.291 27.2059 L776.291 14.324 L783.785 14.324 Z" fill="#000000" fill-rule="nonzero" fill-opacity="1"></path><path clip-path="url(#clip760)" d="M843.819 18.8205 L843.819 41.5461 L854.109 41.5461 Q859.82 41.5461 862.94 38.5889 Q866.059 35.6318 866.059 30.163 Q866.059 24.7348 862.94 21.7777 Q859.82 18.8205 854.109 18.8205 L843.819 18.8205 M835.636 12.096 L854.109 12.096 Q864.276 12.096 869.461 16.714 Q874.687 21.2916 874.687 30.163 Q874.687 39.1155 869.461 43.6931 Q864.276 48.2706 854.109 48.2706 L843.819 48.2706 L843.819 72.576 L835.636 72.576 L835.636 12.096 Z" fill="#000000" fill-rule="nonzero" fill-opacity="1"></path><path clip-path="url(#clip760)" d="M910.173 34.1734 Q908.917 33.4443 907.418 33.1202 Q905.96 32.7556 904.178 32.7556 Q897.858 32.7556 894.456 36.8875 Q891.093 40.9789 891.093 48.6757 L891.093 72.576 L883.599 72.576 L883.599 27.2059 L891.093 27.2059 L891.093 34.2544 Q893.443 30.1225 897.21 28.1376 Q900.978 26.1121 906.365 26.1121 Q907.135 26.1121 908.067 26.2337 Q908.998 26.3147 910.133 26.5172 L910.173 34.1734 Z" fill="#000000" fill-rule="nonzero" fill-opacity="1"></path><path clip-path="url(#clip760)" d="M933.749 32.4315 Q927.754 32.4315 924.27 37.1306 Q920.786 41.7891 920.786 49.9314 Q920.786 58.0738 924.23 62.7728 Q927.713 67.4314 933.749 67.4314 Q939.704 67.4314 943.188 62.7323 Q946.672 58.0333 946.672 49.9314 Q946.672 41.8701 943.188 37.1711 Q939.704 32.4315 933.749 32.4315 M933.749 26.1121 Q943.471 26.1121 949.021 32.4315 Q954.571 38.7509 954.571 49.9314 Q954.571 61.0714 949.021 67.4314 Q943.471 73.7508 933.749 73.7508 Q923.987 73.7508 918.437 67.4314 Q912.928 61.0714 912.928 49.9314 Q912.928 38.7509 918.437 32.4315 Q923.987 26.1121 933.749 26.1121 Z" fill="#000000" fill-rule="nonzero" fill-opacity="1"></path><path clip-path="url(#clip760)" d="M989.895 9.54393 L989.895 15.7418 L982.765 15.7418 Q978.755 15.7418 977.175 17.3622 Q975.636 18.9825 975.636 23.1955 L975.636 27.2059 L987.91 27.2059 L987.91 32.9987 L975.636 32.9987 L975.636 72.576 L968.141 72.576 L968.141 32.9987 L961.012 32.9987 L961.012 27.2059 L968.141 27.2059 L968.141 24.0462 Q968.141 16.471 971.666 13.0277 Q975.19 9.54393 982.846 9.54393 L989.895 9.54393 Z" fill="#000000" fill-rule="nonzero" fill-opacity="1"></path><path clip-path="url(#clip760)" d="M996.133 27.2059 L1003.59 27.2059 L1003.59 72.576 L996.133 72.576 L996.133 27.2059 M996.133 9.54393 L1003.59 9.54393 L1003.59 18.9825 L996.133 18.9825 L996.133 9.54393 Z" fill="#000000" fill-rule="nonzero" fill-opacity="1"></path><path clip-path="url(#clip760)" d="M1019.18 9.54393 L1026.64 9.54393 L1026.64 72.576 L1019.18 72.576 L1019.18 9.54393 Z" fill="#000000" fill-rule="nonzero" fill-opacity="1"></path><path clip-path="url(#clip760)" d="M1081.04 48.0275 L1081.04 51.6733 L1046.77 51.6733 Q1047.26 59.3701 1051.39 63.421 Q1055.56 67.4314 1062.97 67.4314 Q1067.27 67.4314 1071.28 66.3781 Q1075.33 65.3249 1079.3 63.2184 L1079.3 70.267 Q1075.29 71.9684 1071.07 72.8596 Q1066.86 73.7508 1062.53 73.7508 Q1051.67 73.7508 1045.31 67.4314 Q1038.99 61.1119 1038.99 50.3365 Q1038.99 39.1965 1044.99 32.6746 Q1051.02 26.1121 1061.23 26.1121 Q1070.39 26.1121 1075.69 32.0264 Q1081.04 37.9003 1081.04 48.0275 M1073.59 45.84 Q1073.51 39.7232 1070.14 36.0774 Q1066.82 32.4315 1061.31 32.4315 Q1055.07 32.4315 1051.31 35.9558 Q1047.58 39.4801 1047.01 45.8805 L1073.59 45.84 Z" fill="#000000" fill-rule="nonzero" fill-opacity="1"></path><path clip-path="url(#clip760)" d="M1137.55 9.62495 Q1132.12 18.942 1129.49 28.0566 Q1126.86 37.1711 1126.86 46.5287 Q1126.86 55.8863 1129.49 65.0818 Q1132.16 74.2369 1137.55 83.5134 L1131.07 83.5134 Q1124.99 73.9938 1121.95 64.7983 Q1118.96 55.6027 1118.96 46.5287 Q1118.96 37.4952 1121.95 28.3401 Q1124.95 19.1851 1131.07 9.62495 L1137.55 9.62495 Z" fill="#000000" fill-rule="nonzero" fill-opacity="1"></path><path clip-path="url(#clip760)" d="M1160.52 43.6931 L1160.52 65.8515 L1173.64 65.8515 Q1180.25 65.8515 1183.41 63.1374 Q1186.61 60.3828 1186.61 54.752 Q1186.61 49.0808 1183.41 46.4072 Q1180.25 43.6931 1173.64 43.6931 L1160.52 43.6931 M1160.52 18.8205 L1160.52 37.0496 L1172.63 37.0496 Q1178.63 37.0496 1181.54 34.8216 Q1184.5 32.5531 1184.5 27.935 Q1184.5 23.3575 1181.54 21.089 Q1178.63 18.8205 1172.63 18.8205 L1160.52 18.8205 M1152.34 12.096 L1173.24 12.096 Q1182.6 12.096 1187.66 15.9849 Q1192.72 19.8737 1192.72 27.0438 Q1192.72 32.5936 1190.13 35.8748 Q1187.54 39.156 1182.52 39.9662 Q1188.55 41.2625 1191.87 45.3944 Q1195.24 49.4858 1195.24 55.6432 Q1195.24 63.745 1189.73 68.1605 Q1184.22 72.576 1174.05 72.576 L1152.34 72.576 L1152.34 12.096 Z" fill="#000000" fill-rule="nonzero" fill-opacity="1"></path><path clip-path="url(#clip760)" d="M1247.73 48.0275 L1247.73 51.6733 L1213.46 51.6733 Q1213.95 59.3701 1218.08 63.421 Q1222.25 67.4314 1229.67 67.4314 Q1233.96 67.4314 1237.97 66.3781 Q1242.02 65.3249 1245.99 63.2184 L1245.99 70.267 Q1241.98 71.9684 1237.77 72.8596 Q1233.56 73.7508 1229.22 73.7508 Q1218.37 73.7508 1212.01 67.4314 Q1205.69 61.1119 1205.69 50.3365 Q1205.69 39.1965 1211.68 32.6746 Q1217.72 26.1121 1227.93 26.1121 Q1237.08 26.1121 1242.39 32.0264 Q1247.73 37.9003 1247.73 48.0275 M1240.28 45.84 Q1240.2 39.7232 1236.84 36.0774 Q1233.52 32.4315 1228.01 32.4315 Q1221.77 32.4315 1218 35.9558 Q1214.27 39.4801 1213.71 45.8805 L1240.28 45.84 Z" fill="#000000" fill-rule="nonzero" fill-opacity="1"></path><path clip-path="url(#clip760)" d="M1282.94 9.54393 L1282.94 15.7418 L1275.81 15.7418 Q1271.8 15.7418 1270.22 17.3622 Q1268.68 18.9825 1268.68 23.1955 L1268.68 27.2059 L1280.95 27.2059 L1280.95 32.9987 L1268.68 32.9987 L1268.68 72.576 L1261.18 72.576 L1261.18 32.9987 L1254.05 32.9987 L1254.05 27.2059 L1261.18 27.2059 L1261.18 24.0462 Q1261.18 16.471 1264.71 13.0277 Q1268.23 9.54393 1275.89 9.54393 L1282.94 9.54393 Z" fill="#000000" fill-rule="nonzero" fill-opacity="1"></path><path clip-path="url(#clip760)" d="M1306.76 32.4315 Q1300.76 32.4315 1297.28 37.1306 Q1293.79 41.7891 1293.79 49.9314 Q1293.79 58.0738 1297.24 62.7728 Q1300.72 67.4314 1306.76 67.4314 Q1312.71 67.4314 1316.2 62.7323 Q1319.68 58.0333 1319.68 49.9314 Q1319.68 41.8701 1316.2 37.1711 Q1312.71 32.4315 1306.76 32.4315 M1306.76 26.1121 Q1316.48 26.1121 1322.03 32.4315 Q1327.58 38.7509 1327.58 49.9314 Q1327.58 61.0714 1322.03 67.4314 Q1316.48 73.7508 1306.76 73.7508 Q1296.99 73.7508 1291.44 67.4314 Q1285.93 61.0714 1285.93 49.9314 Q1285.93 38.7509 1291.44 32.4315 Q1296.99 26.1121 1306.76 26.1121 Z" fill="#000000" fill-rule="nonzero" fill-opacity="1"></path><path clip-path="url(#clip760)" d="M1366.22 34.1734 Q1364.97 33.4443 1363.47 33.1202 Q1362.01 32.7556 1360.23 32.7556 Q1353.91 32.7556 1350.51 36.8875 Q1347.14 40.9789 1347.14 48.6757 L1347.14 72.576 L1339.65 72.576 L1339.65 27.2059 L1347.14 27.2059 L1347.14 34.2544 Q1349.49 30.1225 1353.26 28.1376 Q1357.03 26.1121 1362.42 26.1121 Q1363.19 26.1121 1364.12 26.2337 Q1365.05 26.3147 1366.18 26.5172 L1366.22 34.1734 Z" fill="#000000" fill-rule="nonzero" fill-opacity="1"></path><path clip-path="url(#clip760)" d="M1411.03 48.0275 L1411.03 51.6733 L1376.76 51.6733 Q1377.24 59.3701 1381.37 63.421 Q1385.55 67.4314 1392.96 67.4314 Q1397.25 67.4314 1401.26 66.3781 Q1405.32 65.3249 1409.28 63.2184 L1409.28 70.267 Q1405.27 71.9684 1401.06 72.8596 Q1396.85 73.7508 1392.51 73.7508 Q1381.66 73.7508 1375.3 67.4314 Q1368.98 61.1119 1368.98 50.3365 Q1368.98 39.1965 1374.97 32.6746 Q1381.01 26.1121 1391.22 26.1121 Q1400.37 26.1121 1405.68 32.0264 Q1411.03 37.9003 1411.03 48.0275 M1403.57 45.84 Q1403.49 39.7232 1400.13 36.0774 Q1396.81 32.4315 1391.3 32.4315 Q1385.06 32.4315 1381.29 35.9558 Q1377.57 39.4801 1377 45.8805 L1403.57 45.84 Z" fill="#000000" fill-rule="nonzero" fill-opacity="1"></path><path clip-path="url(#clip760)" d="M1444.28 27.2059 L1452.18 27.2059 L1466.36 65.2844 L1480.54 27.2059 L1488.44 27.2059 L1471.43 72.576 L1461.3 72.576 L1444.28 27.2059 Z" fill="#000000" fill-rule="nonzero" fill-opacity="1"></path><path clip-path="url(#clip760)" d="M1527.65 28.5427 L1527.65 35.5912 Q1524.49 33.9709 1521.09 33.1607 Q1517.69 32.3505 1514.04 32.3505 Q1508.49 32.3505 1505.7 34.0519 Q1502.94 35.7533 1502.94 39.156 Q1502.94 41.7486 1504.93 43.2475 Q1506.91 44.7058 1512.91 46.0426 L1515.46 46.6097 Q1523.4 48.3111 1526.72 51.4303 Q1530.08 54.509 1530.08 60.0587 Q1530.08 66.3781 1525.06 70.0644 Q1520.08 73.7508 1511.33 73.7508 Q1507.68 73.7508 1503.71 73.0216 Q1499.78 72.3329 1495.41 70.9151 L1495.41 63.2184 Q1499.54 65.3654 1503.55 66.4591 Q1507.56 67.5124 1511.49 67.5124 Q1516.76 67.5124 1519.59 65.73 Q1522.43 63.9071 1522.43 60.6258 Q1522.43 57.5877 1520.36 55.9673 Q1518.34 54.3469 1511.41 52.8481 L1508.82 52.2405 Q1501.89 50.7821 1498.81 47.7845 Q1495.73 44.7463 1495.73 39.4801 Q1495.73 33.0797 1500.27 29.5959 Q1504.81 26.1121 1513.15 26.1121 Q1517.28 26.1121 1520.93 26.7198 Q1524.57 27.3274 1527.65 28.5427 Z" fill="#000000" fill-rule="nonzero" fill-opacity="1"></path><path clip-path="url(#clip760)" d="M1543.01 62.2867 L1551.55 62.2867 L1551.55 72.576 L1543.01 72.576 L1543.01 62.2867 Z" fill="#000000" fill-rule="nonzero" fill-opacity="1"></path><path clip-path="url(#clip760)" d="M1615.23 20.1573 L1604.13 50.2555 L1626.37 50.2555 L1615.23 20.1573 M1610.61 12.096 L1619.89 12.096 L1642.94 72.576 L1634.43 72.576 L1628.92 57.061 L1601.66 57.061 L1596.15 72.576 L1587.52 72.576 L1610.61 12.096 Z" fill="#000000" fill-rule="nonzero" fill-opacity="1"></path><path clip-path="url(#clip760)" d="M1671.46 9.54393 L1671.46 15.7418 L1664.33 15.7418 Q1660.32 15.7418 1658.74 17.3622 Q1657.2 18.9825 1657.2 23.1955 L1657.2 27.2059 L1669.47 27.2059 L1669.47 32.9987 L1657.2 32.9987 L1657.2 72.576 L1649.71 72.576 L1649.71 32.9987 L1642.58 32.9987 L1642.58 27.2059 L1649.71 27.2059 L1649.71 24.0462 Q1649.71 16.471 1653.23 13.0277 Q1656.75 9.54393 1664.41 9.54393 L1671.46 9.54393 Z" fill="#000000" fill-rule="nonzero" fill-opacity="1"></path><path clip-path="url(#clip760)" d="M1683.61 14.324 L1683.61 27.2059 L1698.97 27.2059 L1698.97 32.9987 L1683.61 32.9987 L1683.61 57.6282 Q1683.61 63.1779 1685.11 64.7578 Q1686.65 66.3376 1691.31 66.3376 L1698.97 66.3376 L1698.97 72.576 L1691.31 72.576 Q1682.68 72.576 1679.4 69.3758 Q1676.12 66.1351 1676.12 57.6282 L1676.12 32.9987 L1670.65 32.9987 L1670.65 27.2059 L1676.12 27.2059 L1676.12 14.324 L1683.61 14.324 Z" fill="#000000" fill-rule="nonzero" fill-opacity="1"></path><path clip-path="url(#clip760)" d="M1747.58 48.0275 L1747.58 51.6733 L1713.31 51.6733 Q1713.79 59.3701 1717.92 63.421 Q1722.1 67.4314 1729.51 67.4314 Q1733.8 67.4314 1737.81 66.3781 Q1741.86 65.3249 1745.83 63.2184 L1745.83 70.267 Q1741.82 71.9684 1737.61 72.8596 Q1733.4 73.7508 1729.06 73.7508 Q1718.21 73.7508 1711.85 67.4314 Q1705.53 61.1119 1705.53 50.3365 Q1705.53 39.1965 1711.52 32.6746 Q1717.56 26.1121 1727.77 26.1121 Q1736.92 26.1121 1742.23 32.0264 Q1747.58 37.9003 1747.58 48.0275 M1740.12 45.84 Q1740.04 39.7232 1736.68 36.0774 Q1733.36 32.4315 1727.85 32.4315 Q1721.61 32.4315 1717.84 35.9558 Q1714.12 39.4801 1713.55 45.8805 L1740.12 45.84 Z" fill="#000000" fill-rule="nonzero" fill-opacity="1"></path><path clip-path="url(#clip760)" d="M1786.1 34.1734 Q1784.84 33.4443 1783.35 33.1202 Q1781.89 32.7556 1780.1 32.7556 Q1773.79 32.7556 1770.38 36.8875 Q1767.02 40.9789 1767.02 48.6757 L1767.02 72.576 L1759.53 72.576 L1759.53 27.2059 L1767.02 27.2059 L1767.02 34.2544 Q1769.37 30.1225 1773.14 28.1376 Q1776.9 26.1121 1782.29 26.1121 Q1783.06 26.1121 1783.99 26.2337 Q1784.93 26.3147 1786.06 26.5172 L1786.1 34.1734 Z" fill="#000000" fill-rule="nonzero" fill-opacity="1"></path><path clip-path="url(#clip760)" d="M1865.9 16.7545 L1865.9 25.383 Q1861.77 21.5346 1857.07 19.6307 Q1852.41 17.7268 1847.15 17.7268 Q1836.78 17.7268 1831.27 24.0867 Q1825.76 30.4061 1825.76 42.3968 Q1825.76 54.3469 1831.27 60.7069 Q1836.78 67.0263 1847.15 67.0263 Q1852.41 67.0263 1857.07 65.1223 Q1861.77 63.2184 1865.9 59.3701 L1865.9 67.9175 Q1861.61 70.8341 1856.79 72.2924 Q1852.01 73.7508 1846.66 73.7508 Q1832.93 73.7508 1825.03 65.3654 Q1817.13 56.9395 1817.13 42.3968 Q1817.13 27.8135 1825.03 19.4281 Q1832.93 11.0023 1846.66 11.0023 Q1852.09 11.0023 1856.87 12.4606 Q1861.69 13.8784 1865.9 16.7545 Z" fill="#000000" fill-rule="nonzero" fill-opacity="1"></path><path clip-path="url(#clip760)" d="M1895.8 32.4315 Q1889.8 32.4315 1886.32 37.1306 Q1882.84 41.7891 1882.84 49.9314 Q1882.84 58.0738 1886.28 62.7728 Q1889.76 67.4314 1895.8 67.4314 Q1901.75 67.4314 1905.24 62.7323 Q1908.72 58.0333 1908.72 49.9314 Q1908.72 41.8701 1905.24 37.1711 Q1901.75 32.4315 1895.8 32.4315 M1895.8 26.1121 Q1905.52 26.1121 1911.07 32.4315 Q1916.62 38.7509 1916.62 49.9314 Q1916.62 61.0714 1911.07 67.4314 Q1905.52 73.7508 1895.8 73.7508 Q1886.04 73.7508 1880.49 67.4314 Q1874.98 61.0714 1874.98 49.9314 Q1874.98 38.7509 1880.49 32.4315 Q1886.04 26.1121 1895.8 26.1121 Z" fill="#000000" fill-rule="nonzero" fill-opacity="1"></path><path clip-path="url(#clip760)" d="M1964.3 35.9153 Q1967.09 30.8922 1970.98 28.5022 Q1974.87 26.1121 1980.14 26.1121 Q1987.23 26.1121 1991.08 31.0947 Q1994.92 36.0368 1994.92 45.1919 L1994.92 72.576 L1987.43 72.576 L1987.43 45.4349 Q1987.43 38.913 1985.12 35.7533 Q1982.81 32.5936 1978.07 32.5936 Q1972.28 32.5936 1968.92 36.4419 Q1965.56 40.2903 1965.56 46.9338 L1965.56 72.576 L1958.06 72.576 L1958.06 45.4349 Q1958.06 38.8725 1955.75 35.7533 Q1953.44 32.5936 1948.62 32.5936 Q1942.91 32.5936 1939.55 36.4824 Q1936.19 40.3308 1936.19 46.9338 L1936.19 72.576 L1928.69 72.576 L1928.69 27.2059 L1936.19 27.2059 L1936.19 34.2544 Q1938.74 30.082 1942.3 28.0971 Q1945.87 26.1121 1950.77 26.1121 Q1955.71 26.1121 1959.15 28.6237 Q1962.64 31.1352 1964.3 35.9153 Z" fill="#000000" fill-rule="nonzero" fill-opacity="1"></path><path clip-path="url(#clip760)" d="M2017 65.7705 L2017 89.8329 L2009.51 89.8329 L2009.51 27.2059 L2017 27.2059 L2017 34.0924 Q2019.35 30.0415 2022.92 28.0971 Q2026.52 26.1121 2031.5 26.1121 Q2039.77 26.1121 2044.91 32.6746 Q2050.1 39.2371 2050.1 49.9314 Q2050.1 60.6258 2044.91 67.1883 Q2039.77 73.7508 2031.5 73.7508 Q2026.52 73.7508 2022.92 71.8063 Q2019.35 69.8214 2017 65.7705 M2042.36 49.9314 Q2042.36 41.7081 2038.96 37.0496 Q2035.6 32.3505 2029.68 32.3505 Q2023.77 32.3505 2020.36 37.0496 Q2017 41.7081 2017 49.9314 Q2017 58.1548 2020.36 62.8538 Q2023.77 67.5124 2029.68 67.5124 Q2035.6 67.5124 2038.96 62.8538 Q2042.36 58.1548 2042.36 49.9314 Z" fill="#000000" fill-rule="nonzero" fill-opacity="1"></path><path clip-path="url(#clip760)" d="M2101.26 48.0275 L2101.26 51.6733 L2066.99 51.6733 Q2067.48 59.3701 2071.61 63.421 Q2075.78 67.4314 2083.19 67.4314 Q2087.49 67.4314 2091.5 66.3781 Q2095.55 65.3249 2099.52 63.2184 L2099.52 70.267 Q2095.51 71.9684 2091.3 72.8596 Q2087.08 73.7508 2082.75 73.7508 Q2071.89 73.7508 2065.53 67.4314 Q2059.21 61.1119 2059.21 50.3365 Q2059.21 39.1965 2065.21 32.6746 Q2071.24 26.1121 2081.45 26.1121 Q2090.61 26.1121 2095.91 32.0264 Q2101.26 37.9003 2101.26 48.0275 M2093.81 45.84 Q2093.73 39.7232 2090.36 36.0774 Q2087.04 32.4315 2081.53 32.4315 Q2075.29 32.4315 2071.53 35.9558 Q2067.8 39.4801 2067.23 45.8805 L2093.81 45.84 Z" fill="#000000" fill-rule="nonzero" fill-opacity="1"></path><path clip-path="url(#clip760)" d="M2151.21 45.1919 L2151.21 72.576 L2143.75 72.576 L2143.75 45.4349 Q2143.75 38.994 2141.24 35.7938 Q2138.73 32.5936 2133.71 32.5936 Q2127.67 32.5936 2124.19 36.4419 Q2120.7 40.2903 2120.7 46.9338 L2120.7 72.576 L2113.21 72.576 L2113.21 27.2059 L2120.7 27.2059 L2120.7 34.2544 Q2123.38 30.163 2126.98 28.1376 Q2130.63 26.1121 2135.37 26.1121 Q2143.19 26.1121 2147.2 30.9732 Q2151.21 35.7938 2151.21 45.1919 Z" fill="#000000" fill-rule="nonzero" fill-opacity="1"></path><path clip-path="url(#clip760)" d="M2195 28.5427 L2195 35.5912 Q2191.84 33.9709 2188.44 33.1607 Q2185.03 32.3505 2181.39 32.3505 Q2175.84 32.3505 2173.04 34.0519 Q2170.29 35.7533 2170.29 39.156 Q2170.29 41.7486 2172.27 43.2475 Q2174.26 44.7058 2180.25 46.0426 L2182.81 46.6097 Q2190.74 48.3111 2194.07 51.4303 Q2197.43 54.509 2197.43 60.0587 Q2197.43 66.3781 2192.41 70.0644 Q2187.42 73.7508 2178.67 73.7508 Q2175.03 73.7508 2171.06 73.0216 Q2167.13 72.3329 2162.75 70.9151 L2162.75 63.2184 Q2166.89 65.3654 2170.9 66.4591 Q2174.91 67.5124 2178.84 67.5124 Q2184.1 67.5124 2186.94 65.73 Q2189.77 63.9071 2189.77 60.6258 Q2189.77 57.5877 2187.71 55.9673 Q2185.68 54.3469 2178.75 52.8481 L2176.16 52.2405 Q2169.23 50.7821 2166.16 47.7845 Q2163.08 44.7463 2163.08 39.4801 Q2163.08 33.0797 2167.61 29.5959 Q2172.15 26.1121 2180.5 26.1121 Q2184.63 26.1121 2188.27 26.7198 Q2191.92 27.3274 2195 28.5427 Z" fill="#000000" fill-rule="nonzero" fill-opacity="1"></path><path clip-path="url(#clip760)" d="M2229.92 49.7694 Q2220.88 49.7694 2217.4 51.8354 Q2213.92 53.9013 2213.92 58.8839 Q2213.92 62.8538 2216.51 65.2034 Q2219.14 67.5124 2223.64 67.5124 Q2229.84 67.5124 2233.56 63.1374 Q2237.33 58.7219 2237.33 51.4303 L2237.33 49.7694 L2229.92 49.7694 M2244.78 46.6907 L2244.78 72.576 L2237.33 72.576 L2237.33 65.6895 Q2234.78 69.8214 2230.97 71.8063 Q2227.16 73.7508 2221.65 73.7508 Q2214.69 73.7508 2210.55 69.8619 Q2206.46 65.9325 2206.46 59.3701 Q2206.46 51.7138 2211.57 47.825 Q2216.71 43.9361 2226.88 43.9361 L2237.33 43.9361 L2237.33 43.2069 Q2237.33 38.0623 2233.93 35.2672 Q2230.57 32.4315 2224.45 32.4315 Q2220.56 32.4315 2216.87 33.3632 Q2213.19 34.295 2209.78 36.1584 L2209.78 29.2718 Q2213.88 27.692 2217.72 26.9223 Q2221.57 26.1121 2225.22 26.1121 Q2235.06 26.1121 2239.92 31.2163 Q2244.78 36.3204 2244.78 46.6907 Z" fill="#000000" fill-rule="nonzero" fill-opacity="1"></path><path clip-path="url(#clip760)" d="M2267.51 14.324 L2267.51 27.2059 L2282.86 27.2059 L2282.86 32.9987 L2267.51 32.9987 L2267.51 57.6282 Q2267.51 63.1779 2269.01 64.7578 Q2270.55 66.3376 2275.21 66.3376 L2282.86 66.3376 L2282.86 72.576 L2275.21 72.576 Q2266.58 72.576 2263.3 69.3758 Q2260.02 66.1351 2260.02 57.6282 L2260.02 32.9987 L2254.55 32.9987 L2254.55 27.2059 L2260.02 27.2059 L2260.02 14.324 L2267.51 14.324 Z" fill="#000000" fill-rule="nonzero" fill-opacity="1"></path><path clip-path="url(#clip760)" d="M2292.67 27.2059 L2300.12 27.2059 L2300.12 72.576 L2292.67 72.576 L2292.67 27.2059 M2292.67 9.54393 L2300.12 9.54393 L2300.12 18.9825 L2292.67 18.9825 L2292.67 9.54393 Z" fill="#000000" fill-rule="nonzero" fill-opacity="1"></path><path clip-path="url(#clip760)" d="M2333.3 32.4315 Q2327.3 32.4315 2323.82 37.1306 Q2320.33 41.7891 2320.33 49.9314 Q2320.33 58.0738 2323.78 62.7728 Q2327.26 67.4314 2333.3 67.4314 Q2339.25 67.4314 2342.73 62.7323 Q2346.22 58.0333 2346.22 49.9314 Q2346.22 41.8701 2342.73 37.1711 Q2339.25 32.4315 2333.3 32.4315 M2333.3 26.1121 Q2343.02 26.1121 2348.57 32.4315 Q2354.12 38.7509 2354.12 49.9314 Q2354.12 61.0714 2348.57 67.4314 Q2343.02 73.7508 2333.3 73.7508 Q2323.53 73.7508 2317.98 67.4314 Q2312.47 61.0714 2312.47 49.9314 Q2312.47 38.7509 2317.98 32.4315 Q2323.53 26.1121 2333.3 26.1121 Z" fill="#000000" fill-rule="nonzero" fill-opacity="1"></path><path clip-path="url(#clip760)" d="M2404.19 45.1919 L2404.19 72.576 L2396.73 72.576 L2396.73 45.4349 Q2396.73 38.994 2394.22 35.7938 Q2391.71 32.5936 2386.69 32.5936 Q2380.65 32.5936 2377.17 36.4419 Q2373.68 40.2903 2373.68 46.9338 L2373.68 72.576 L2366.19 72.576 L2366.19 27.2059 L2373.68 27.2059 L2373.68 34.2544 Q2376.36 30.163 2379.96 28.1376 Q2383.61 26.1121 2388.35 26.1121 Q2396.17 26.1121 2400.18 30.9732 Q2404.19 35.7938 2404.19 45.1919 Z" fill="#000000" fill-rule="nonzero" fill-opacity="1"></path><path clip-path="url(#clip760)" d="M2417.88 9.62495 L2424.36 9.62495 Q2430.44 19.1851 2433.43 28.3401 Q2436.47 37.4952 2436.47 46.5287 Q2436.47 55.6027 2433.43 64.7983 Q2430.44 73.9938 2424.36 83.5134 L2417.88 83.5134 Q2423.27 74.2369 2425.9 65.0818 Q2428.57 55.8863 2428.57 46.5287 Q2428.57 37.1711 2425.9 28.0566 Q2423.27 18.942 2417.88 9.62495 Z" fill="#000000" fill-rule="nonzero" fill-opacity="1"></path><polyline clip-path="url(#clip762)" style="stroke:#0000ff; stroke-linecap:round; stroke-linejoin:round; stroke-width:4; stroke-opacity:1; fill:none" points="264.778,481.49 940.499,913.308 1616.22,160.256 2291.94,1274.22 "></polyline>
<circle clip-path="url(#clip762)" cx="264.778" cy="481.49" r="14.4" fill="#0000ff" fill-rule="evenodd" fill-opacity="1" stroke="#000000" stroke-opacity="1" stroke-width="3.2"></circle>
<circle clip-path="url(#clip762)" cx="940.499" cy="913.308" r="14.4" fill="#0000ff" fill-rule="evenodd" fill-opacity="1" stroke="#000000" stroke-opacity="1" stroke-width="3.2"></circle>
<circle clip-path="url(#clip762)" cx="1616.22" cy="160.256" r="14.4" fill="#0000ff" fill-rule="evenodd" fill-opacity="1" stroke="#000000" stroke-opacity="1" stroke-width="3.2"></circle>
<circle clip-path="url(#clip762)" cx="2291.94" cy="1274.22" r="14.4" fill="#0000ff" fill-rule="evenodd" fill-opacity="1" stroke="#000000" stroke-opacity="1" stroke-width="3.2"></circle>
<polyline clip-path="url(#clip762)" style="stroke:#ff0000; stroke-linecap:round; stroke-linejoin:round; stroke-width:4; stroke-opacity:1; fill:none" stroke-dasharray="16, 10" points="264.778,518.594 940.499,516.365 1616.22,521.074 2291.94,1386.4 "></polyline>
<path clip-path="url(#clip762)" d="M248.778 502.594 L248.778 534.594 L280.778 534.594 L280.778 502.594 L248.778 502.594 Z" fill="#ff0000" fill-rule="evenodd" fill-opacity="1" stroke="#000000" stroke-opacity="1" stroke-width="3.2"></path>
<path clip-path="url(#clip762)" d="M924.499 500.365 L924.499 532.365 L956.499 532.365 L956.499 500.365 L924.499 500.365 Z" fill="#ff0000" fill-rule="evenodd" fill-opacity="1" stroke="#000000" stroke-opacity="1" stroke-width="3.2"></path>
<path clip-path="url(#clip762)" d="M1600.22 505.074 L1600.22 537.074 L1632.22 537.074 L1632.22 505.074 L1600.22 505.074 Z" fill="#ff0000" fill-rule="evenodd" fill-opacity="1" stroke="#000000" stroke-opacity="1" stroke-width="3.2"></path>
<path clip-path="url(#clip762)" d="M2275.94 1370.4 L2275.94 1402.4 L2307.94 1402.4 L2307.94 1370.4 L2275.94 1370.4 Z" fill="#ff0000" fill-rule="evenodd" fill-opacity="1" stroke="#000000" stroke-opacity="1" stroke-width="3.2"></path>
<path clip-path="url(#clip760)" d="M1562.71 322.316 L2281.13 322.316 L2281.13 166.796 L1562.71 166.796  Z" fill="#ffffff" fill-rule="evenodd" fill-opacity="1"></path>
<polyline clip-path="url(#clip760)" style="stroke:#000000; stroke-linecap:round; stroke-linejoin:round; stroke-width:4; stroke-opacity:1; fill:none" points="1562.71,322.316 2281.13,322.316 2281.13,166.796 1562.71,166.796 1562.71,322.316 "></polyline>
<polyline clip-path="url(#clip760)" style="stroke:#0000ff; stroke-linecap:round; stroke-linejoin:round; stroke-width:4; stroke-opacity:1; fill:none" points="1586.59,218.636 1729.84,218.636 "></polyline>
<circle clip-path="url(#clip760)" cx="1658.21" cy="218.636" r="19.8962" fill="#0000ff" fill-rule="evenodd" fill-opacity="1" stroke="#000000" stroke-opacity="1" stroke-width="4.55111"></circle>
<path clip-path="url(#clip760)" d="M1758.39 219.411 L1758.39 232.073 L1765.89 232.073 Q1769.66 232.073 1771.47 230.522 Q1773.3 228.948 1773.3 225.731 Q1773.3 222.49 1771.47 220.962 Q1769.66 219.411 1765.89 219.411 L1758.39 219.411 M1758.39 205.198 L1758.39 215.615 L1765.31 215.615 Q1768.74 215.615 1770.4 214.342 Q1772.09 213.045 1772.09 210.407 Q1772.09 207.791 1770.4 206.495 Q1768.74 205.198 1765.31 205.198 L1758.39 205.198 M1753.72 201.356 L1765.66 201.356 Q1771.01 201.356 1773.9 203.578 Q1776.79 205.8 1776.79 209.897 Q1776.79 213.069 1775.31 214.944 Q1773.83 216.819 1770.96 217.282 Q1774.41 218.022 1776.31 220.383 Q1778.23 222.721 1778.23 226.24 Q1778.23 230.869 1775.08 233.393 Q1771.93 235.916 1766.12 235.916 L1753.72 235.916 L1753.72 201.356 Z" fill="#000000" fill-rule="nonzero" fill-opacity="1"></path><path clip-path="url(#clip760)" d="M1808.23 221.888 L1808.23 223.971 L1788.65 223.971 Q1788.92 228.369 1791.28 230.684 Q1793.67 232.976 1797.9 232.976 Q1800.36 232.976 1802.65 232.374 Q1804.96 231.772 1807.23 230.569 L1807.23 234.596 Q1804.94 235.568 1802.53 236.078 Q1800.13 236.587 1797.65 236.587 Q1791.45 236.587 1787.81 232.976 Q1784.2 229.365 1784.2 223.207 Q1784.2 216.842 1787.63 213.115 Q1791.08 209.365 1796.91 209.365 Q1802.14 209.365 1805.17 212.745 Q1808.23 216.101 1808.23 221.888 M1803.97 220.638 Q1803.92 217.143 1802 215.059 Q1800.1 212.976 1796.96 212.976 Q1793.39 212.976 1791.24 214.99 Q1789.11 217.004 1788.78 220.661 L1803.97 220.638 Z" fill="#000000" fill-rule="nonzero" fill-opacity="1"></path><path clip-path="url(#clip760)" d="M1828.34 199.897 L1828.34 203.439 L1824.27 203.439 Q1821.98 203.439 1821.08 204.365 Q1820.2 205.291 1820.2 207.698 L1820.2 209.99 L1827.21 209.99 L1827.21 213.3 L1820.2 213.3 L1820.2 235.916 L1815.91 235.916 L1815.91 213.3 L1811.84 213.3 L1811.84 209.99 L1815.91 209.99 L1815.91 208.184 Q1815.91 203.856 1817.93 201.888 Q1819.94 199.897 1824.32 199.897 L1828.34 199.897 Z" fill="#000000" fill-rule="nonzero" fill-opacity="1"></path><path clip-path="url(#clip760)" d="M1841.96 212.976 Q1838.53 212.976 1836.54 215.661 Q1834.55 218.323 1834.55 222.976 Q1834.55 227.629 1836.52 230.314 Q1838.51 232.976 1841.96 232.976 Q1845.36 232.976 1847.35 230.291 Q1849.34 227.606 1849.34 222.976 Q1849.34 218.37 1847.35 215.684 Q1845.36 212.976 1841.96 212.976 M1841.96 209.365 Q1847.51 209.365 1850.68 212.976 Q1853.85 216.587 1853.85 222.976 Q1853.85 229.342 1850.68 232.976 Q1847.51 236.587 1841.96 236.587 Q1836.38 236.587 1833.21 232.976 Q1830.06 229.342 1830.06 222.976 Q1830.06 216.587 1833.21 212.976 Q1836.38 209.365 1841.96 209.365 Z" fill="#000000" fill-rule="nonzero" fill-opacity="1"></path><path clip-path="url(#clip760)" d="M1875.94 213.971 Q1875.22 213.555 1874.36 213.37 Q1873.53 213.161 1872.51 213.161 Q1868.9 213.161 1866.96 215.522 Q1865.03 217.86 1865.03 222.258 L1865.03 235.916 L1860.75 235.916 L1860.75 209.99 L1865.03 209.99 L1865.03 214.018 Q1866.38 211.657 1868.53 210.522 Q1870.68 209.365 1873.76 209.365 Q1874.2 209.365 1874.73 209.434 Q1875.27 209.481 1875.91 209.596 L1875.94 213.971 Z" fill="#000000" fill-rule="nonzero" fill-opacity="1"></path><path clip-path="url(#clip760)" d="M1901.54 221.888 L1901.54 223.971 L1881.96 223.971 Q1882.23 228.369 1884.59 230.684 Q1886.98 232.976 1891.21 232.976 Q1893.67 232.976 1895.96 232.374 Q1898.27 231.772 1900.54 230.569 L1900.54 234.596 Q1898.25 235.568 1895.84 236.078 Q1893.44 236.587 1890.96 236.587 Q1884.76 236.587 1881.12 232.976 Q1877.51 229.365 1877.51 223.207 Q1877.51 216.842 1880.94 213.115 Q1884.39 209.365 1890.22 209.365 Q1895.45 209.365 1898.48 212.745 Q1901.54 216.101 1901.54 221.888 M1897.28 220.638 Q1897.23 217.143 1895.31 215.059 Q1893.41 212.976 1890.27 212.976 Q1886.7 212.976 1884.55 214.99 Q1882.42 217.004 1882.09 220.661 L1897.28 220.638 Z" fill="#000000" fill-rule="nonzero" fill-opacity="1"></path><path clip-path="url(#clip760)" d="M1949.66 204.018 L1949.66 208.948 Q1947.3 206.749 1944.62 205.661 Q1941.95 204.573 1938.95 204.573 Q1933.02 204.573 1929.87 208.208 Q1926.72 211.819 1926.72 218.67 Q1926.72 225.499 1929.87 229.133 Q1933.02 232.744 1938.95 232.744 Q1941.95 232.744 1944.62 231.656 Q1947.3 230.569 1949.66 228.369 L1949.66 233.254 Q1947.21 234.92 1944.45 235.754 Q1941.72 236.587 1938.67 236.587 Q1930.82 236.587 1926.31 231.795 Q1921.79 226.981 1921.79 218.67 Q1921.79 210.337 1926.31 205.546 Q1930.82 200.731 1938.67 200.731 Q1941.77 200.731 1944.5 201.564 Q1947.26 202.374 1949.66 204.018 Z" fill="#000000" fill-rule="nonzero" fill-opacity="1"></path><path clip-path="url(#clip760)" d="M1966.75 212.976 Q1963.32 212.976 1961.33 215.661 Q1959.34 218.323 1959.34 222.976 Q1959.34 227.629 1961.31 230.314 Q1963.3 232.976 1966.75 232.976 Q1970.15 232.976 1972.14 230.291 Q1974.13 227.606 1974.13 222.976 Q1974.13 218.37 1972.14 215.684 Q1970.15 212.976 1966.75 212.976 M1966.75 209.365 Q1972.3 209.365 1975.47 212.976 Q1978.64 216.587 1978.64 222.976 Q1978.64 229.342 1975.47 232.976 Q1972.3 236.587 1966.75 236.587 Q1961.17 236.587 1958 232.976 Q1954.85 229.342 1954.85 222.976 Q1954.85 216.587 1958 212.976 Q1961.17 209.365 1966.75 209.365 Z" fill="#000000" fill-rule="nonzero" fill-opacity="1"></path><path clip-path="url(#clip760)" d="M2005.89 214.967 Q2007.49 212.096 2009.71 210.731 Q2011.93 209.365 2014.94 209.365 Q2018.99 209.365 2021.19 212.212 Q2023.39 215.036 2023.39 220.268 L2023.39 235.916 L2019.11 235.916 L2019.11 220.407 Q2019.11 216.68 2017.79 214.874 Q2016.47 213.069 2013.76 213.069 Q2010.45 213.069 2008.53 215.268 Q2006.61 217.467 2006.61 221.263 L2006.61 235.916 L2002.32 235.916 L2002.32 220.407 Q2002.32 216.657 2001.01 214.874 Q1999.69 213.069 1996.93 213.069 Q1993.67 213.069 1991.75 215.291 Q1989.82 217.49 1989.82 221.263 L1989.82 235.916 L1985.54 235.916 L1985.54 209.99 L1989.82 209.99 L1989.82 214.018 Q1991.28 211.633 1993.32 210.499 Q1995.36 209.365 1998.16 209.365 Q2000.98 209.365 2002.95 210.8 Q2004.94 212.235 2005.89 214.967 Z" fill="#000000" fill-rule="nonzero" fill-opacity="1"></path><path clip-path="url(#clip760)" d="M2036.01 232.027 L2036.01 245.777 L2031.72 245.777 L2031.72 209.99 L2036.01 209.99 L2036.01 213.925 Q2037.35 211.61 2039.38 210.499 Q2041.44 209.365 2044.29 209.365 Q2049.01 209.365 2051.95 213.115 Q2054.92 216.865 2054.92 222.976 Q2054.92 229.087 2051.95 232.837 Q2049.01 236.587 2044.29 236.587 Q2041.44 236.587 2039.38 235.476 Q2037.35 234.342 2036.01 232.027 M2050.5 222.976 Q2050.5 218.277 2048.55 215.615 Q2046.63 212.93 2043.25 212.93 Q2039.87 212.93 2037.93 215.615 Q2036.01 218.277 2036.01 222.976 Q2036.01 227.675 2037.93 230.36 Q2039.87 233.022 2043.25 233.022 Q2046.63 233.022 2048.55 230.36 Q2050.5 227.675 2050.5 222.976 Z" fill="#000000" fill-rule="nonzero" fill-opacity="1"></path><path clip-path="url(#clip760)" d="M2084.15 221.888 L2084.15 223.971 L2064.57 223.971 Q2064.85 228.369 2067.21 230.684 Q2069.59 232.976 2073.83 232.976 Q2076.28 232.976 2078.57 232.374 Q2080.89 231.772 2083.16 230.569 L2083.16 234.596 Q2080.87 235.568 2078.46 236.078 Q2076.05 236.587 2073.57 236.587 Q2067.37 236.587 2063.74 232.976 Q2060.13 229.365 2060.13 223.207 Q2060.13 216.842 2063.55 213.115 Q2067 209.365 2072.83 209.365 Q2078.07 209.365 2081.1 212.745 Q2084.15 216.101 2084.15 221.888 M2079.89 220.638 Q2079.85 217.143 2077.93 215.059 Q2076.03 212.976 2072.88 212.976 Q2069.32 212.976 2067.16 214.99 Q2065.03 217.004 2064.71 220.661 L2079.89 220.638 Z" fill="#000000" fill-rule="nonzero" fill-opacity="1"></path><path clip-path="url(#clip760)" d="M2112.69 220.268 L2112.69 235.916 L2108.44 235.916 L2108.44 220.407 Q2108.44 216.726 2107 214.897 Q2105.57 213.069 2102.69 213.069 Q2099.25 213.069 2097.25 215.268 Q2095.26 217.467 2095.26 221.263 L2095.26 235.916 L2090.98 235.916 L2090.98 209.99 L2095.26 209.99 L2095.26 214.018 Q2096.79 211.68 2098.85 210.522 Q2100.94 209.365 2103.64 209.365 Q2108.11 209.365 2110.4 212.143 Q2112.69 214.897 2112.69 220.268 Z" fill="#000000" fill-rule="nonzero" fill-opacity="1"></path><path clip-path="url(#clip760)" d="M2137.72 210.754 L2137.72 214.782 Q2135.91 213.856 2133.97 213.393 Q2132.02 212.93 2129.94 212.93 Q2126.77 212.93 2125.17 213.902 Q2123.6 214.874 2123.6 216.819 Q2123.6 218.3 2124.73 219.157 Q2125.87 219.99 2129.29 220.754 L2130.75 221.078 Q2135.29 222.05 2137.19 223.832 Q2139.11 225.592 2139.11 228.763 Q2139.11 232.374 2136.24 234.481 Q2133.39 236.587 2128.39 236.587 Q2126.31 236.587 2124.04 236.17 Q2121.79 235.777 2119.29 234.967 L2119.29 230.569 Q2121.65 231.795 2123.94 232.42 Q2126.24 233.022 2128.48 233.022 Q2131.49 233.022 2133.11 232.004 Q2134.73 230.962 2134.73 229.087 Q2134.73 227.351 2133.55 226.425 Q2132.39 225.499 2128.44 224.643 L2126.95 224.295 Q2123 223.462 2121.24 221.749 Q2119.48 220.013 2119.48 217.004 Q2119.48 213.346 2122.07 211.356 Q2124.66 209.365 2129.43 209.365 Q2131.79 209.365 2133.88 209.712 Q2135.96 210.059 2137.72 210.754 Z" fill="#000000" fill-rule="nonzero" fill-opacity="1"></path><path clip-path="url(#clip760)" d="M2157.67 222.883 Q2152.51 222.883 2150.52 224.064 Q2148.53 225.244 2148.53 228.092 Q2148.53 230.36 2150.01 231.703 Q2151.51 233.022 2154.08 233.022 Q2157.62 233.022 2159.75 230.522 Q2161.91 227.999 2161.91 223.832 L2161.91 222.883 L2157.67 222.883 M2166.17 221.124 L2166.17 235.916 L2161.91 235.916 L2161.91 231.981 Q2160.45 234.342 2158.27 235.476 Q2156.1 236.587 2152.95 236.587 Q2148.97 236.587 2146.61 234.365 Q2144.27 232.119 2144.27 228.369 Q2144.27 223.994 2147.19 221.772 Q2150.12 219.55 2155.94 219.55 L2161.91 219.55 L2161.91 219.133 Q2161.91 216.194 2159.96 214.596 Q2158.04 212.976 2154.55 212.976 Q2152.32 212.976 2150.22 213.508 Q2148.11 214.041 2146.17 215.106 L2146.17 211.17 Q2148.5 210.268 2150.7 209.828 Q2152.9 209.365 2154.99 209.365 Q2160.61 209.365 2163.39 212.282 Q2166.17 215.198 2166.17 221.124 Z" fill="#000000" fill-rule="nonzero" fill-opacity="1"></path><path clip-path="url(#clip760)" d="M2179.15 202.629 L2179.15 209.99 L2187.93 209.99 L2187.93 213.3 L2179.15 213.3 L2179.15 227.374 Q2179.15 230.545 2180.01 231.448 Q2180.89 232.351 2183.55 232.351 L2187.93 232.351 L2187.93 235.916 L2183.55 235.916 Q2178.62 235.916 2176.75 234.087 Q2174.87 232.235 2174.87 227.374 L2174.87 213.3 L2171.75 213.3 L2171.75 209.99 L2174.87 209.99 L2174.87 202.629 L2179.15 202.629 Z" fill="#000000" fill-rule="nonzero" fill-opacity="1"></path><path clip-path="url(#clip760)" d="M2193.53 209.99 L2197.79 209.99 L2197.79 235.916 L2193.53 235.916 L2193.53 209.99 M2193.53 199.897 L2197.79 199.897 L2197.79 205.291 L2193.53 205.291 L2193.53 199.897 Z" fill="#000000" fill-rule="nonzero" fill-opacity="1"></path><path clip-path="url(#clip760)" d="M2216.74 212.976 Q2213.32 212.976 2211.33 215.661 Q2209.34 218.323 2209.34 222.976 Q2209.34 227.629 2211.31 230.314 Q2213.3 232.976 2216.74 232.976 Q2220.15 232.976 2222.14 230.291 Q2224.13 227.606 2224.13 222.976 Q2224.13 218.37 2222.14 215.684 Q2220.15 212.976 2216.74 212.976 M2216.74 209.365 Q2222.3 209.365 2225.47 212.976 Q2228.64 216.587 2228.64 222.976 Q2228.64 229.342 2225.47 232.976 Q2222.3 236.587 2216.74 236.587 Q2211.17 236.587 2208 232.976 Q2204.85 229.342 2204.85 222.976 Q2204.85 216.587 2208 212.976 Q2211.17 209.365 2216.74 209.365 Z" fill="#000000" fill-rule="nonzero" fill-opacity="1"></path><path clip-path="url(#clip760)" d="M2257.25 220.268 L2257.25 235.916 L2252.99 235.916 L2252.99 220.407 Q2252.99 216.726 2251.56 214.897 Q2250.12 213.069 2247.25 213.069 Q2243.81 213.069 2241.81 215.268 Q2239.82 217.467 2239.82 221.263 L2239.82 235.916 L2235.54 235.916 L2235.54 209.99 L2239.82 209.99 L2239.82 214.018 Q2241.35 211.68 2243.41 210.522 Q2245.49 209.365 2248.2 209.365 Q2252.67 209.365 2254.96 212.143 Q2257.25 214.897 2257.25 220.268 Z" fill="#000000" fill-rule="nonzero" fill-opacity="1"></path><polyline clip-path="url(#clip760)" style="stroke:#ff0000; stroke-linecap:round; stroke-linejoin:round; stroke-width:4; stroke-opacity:1; fill:none" stroke-dasharray="16, 10" points="1586.59,270.476 1729.84,270.476 "></polyline>
<path clip-path="url(#clip760)" d="M1636.11 248.369 L1636.11 292.583 L1680.32 292.583 L1680.32 248.369 L1636.11 248.369 Z" fill="#ff0000" fill-rule="evenodd" fill-opacity="1" stroke="#000000" stroke-opacity="1" stroke-width="4.55111"></path>
<path clip-path="url(#clip760)" d="M1769.55 257.802 L1763.21 275.001 L1775.91 275.001 L1769.55 257.802 M1766.91 253.196 L1772.21 253.196 L1785.38 287.756 L1780.52 287.756 L1777.37 278.89 L1761.79 278.89 L1758.65 287.756 L1753.72 287.756 L1766.91 253.196 Z" fill="#000000" fill-rule="nonzero" fill-opacity="1"></path><path clip-path="url(#clip760)" d="M1801.68 251.737 L1801.68 255.279 L1797.6 255.279 Q1795.31 255.279 1794.41 256.205 Q1793.53 257.131 1793.53 259.538 L1793.53 261.83 L1800.54 261.83 L1800.54 265.14 L1793.53 265.14 L1793.53 287.756 L1789.25 287.756 L1789.25 265.14 L1785.17 265.14 L1785.17 261.83 L1789.25 261.83 L1789.25 260.024 Q1789.25 255.696 1791.26 253.728 Q1793.28 251.737 1797.65 251.737 L1801.68 251.737 Z" fill="#000000" fill-rule="nonzero" fill-opacity="1"></path><path clip-path="url(#clip760)" d="M1808.62 254.469 L1808.62 261.83 L1817.4 261.83 L1817.4 265.14 L1808.62 265.14 L1808.62 279.214 Q1808.62 282.385 1809.48 283.288 Q1810.36 284.191 1813.02 284.191 L1817.4 284.191 L1817.4 287.756 L1813.02 287.756 Q1808.09 287.756 1806.21 285.927 Q1804.34 284.075 1804.34 279.214 L1804.34 265.14 L1801.21 265.14 L1801.21 261.83 L1804.34 261.83 L1804.34 254.469 L1808.62 254.469 Z" fill="#000000" fill-rule="nonzero" fill-opacity="1"></path><path clip-path="url(#clip760)" d="M1845.17 273.728 L1845.17 275.811 L1825.59 275.811 Q1825.87 280.209 1828.23 282.524 Q1830.61 284.816 1834.85 284.816 Q1837.3 284.816 1839.59 284.214 Q1841.91 283.612 1844.18 282.409 L1844.18 286.436 Q1841.89 287.408 1839.48 287.918 Q1837.07 288.427 1834.59 288.427 Q1828.39 288.427 1824.76 284.816 Q1821.15 281.205 1821.15 275.047 Q1821.15 268.682 1824.57 264.955 Q1828.02 261.205 1833.85 261.205 Q1839.08 261.205 1842.12 264.585 Q1845.17 267.941 1845.17 273.728 M1840.91 272.478 Q1840.87 268.983 1838.95 266.899 Q1837.05 264.816 1833.9 264.816 Q1830.34 264.816 1828.18 266.83 Q1826.05 268.844 1825.73 272.501 L1840.91 272.478 Z" fill="#000000" fill-rule="nonzero" fill-opacity="1"></path><path clip-path="url(#clip760)" d="M1867.19 265.811 Q1866.47 265.395 1865.61 265.21 Q1864.78 265.001 1863.76 265.001 Q1860.15 265.001 1858.21 267.362 Q1856.28 269.7 1856.28 274.098 L1856.28 287.756 L1852 287.756 L1852 261.83 L1856.28 261.83 L1856.28 265.858 Q1857.63 263.497 1859.78 262.362 Q1861.93 261.205 1865.01 261.205 Q1865.45 261.205 1865.98 261.274 Q1866.52 261.321 1867.16 261.436 L1867.19 265.811 Z" fill="#000000" fill-rule="nonzero" fill-opacity="1"></path><path clip-path="url(#clip760)" d="M1912.79 255.858 L1912.79 260.788 Q1910.43 258.589 1907.74 257.501 Q1905.08 256.413 1902.07 256.413 Q1896.14 256.413 1893 260.048 Q1889.85 263.659 1889.85 270.51 Q1889.85 277.339 1893 280.973 Q1896.14 284.584 1902.07 284.584 Q1905.08 284.584 1907.74 283.496 Q1910.43 282.409 1912.79 280.209 L1912.79 285.094 Q1910.33 286.76 1907.58 287.594 Q1904.85 288.427 1901.79 288.427 Q1893.95 288.427 1889.43 283.635 Q1884.92 278.821 1884.92 270.51 Q1884.92 262.177 1889.43 257.386 Q1893.95 252.571 1901.79 252.571 Q1904.89 252.571 1907.63 253.404 Q1910.38 254.214 1912.79 255.858 Z" fill="#000000" fill-rule="nonzero" fill-opacity="1"></path><path clip-path="url(#clip760)" d="M1929.87 264.816 Q1926.45 264.816 1924.45 267.501 Q1922.46 270.163 1922.46 274.816 Q1922.46 279.469 1924.43 282.154 Q1926.42 284.816 1929.87 284.816 Q1933.27 284.816 1935.27 282.131 Q1937.26 279.446 1937.26 274.816 Q1937.26 270.21 1935.27 267.524 Q1933.27 264.816 1929.87 264.816 M1929.87 261.205 Q1935.43 261.205 1938.6 264.816 Q1941.77 268.427 1941.77 274.816 Q1941.77 281.182 1938.6 284.816 Q1935.43 288.427 1929.87 288.427 Q1924.29 288.427 1921.12 284.816 Q1917.97 281.182 1917.97 274.816 Q1917.97 268.427 1921.12 264.816 Q1924.29 261.205 1929.87 261.205 Z" fill="#000000" fill-rule="nonzero" fill-opacity="1"></path><path clip-path="url(#clip760)" d="M1969.01 266.807 Q1970.61 263.936 1972.83 262.571 Q1975.06 261.205 1978.07 261.205 Q1982.12 261.205 1984.32 264.052 Q1986.51 266.876 1986.51 272.108 L1986.51 287.756 L1982.23 287.756 L1982.23 272.247 Q1982.23 268.52 1980.91 266.714 Q1979.59 264.909 1976.89 264.909 Q1973.57 264.909 1971.65 267.108 Q1969.73 269.307 1969.73 273.103 L1969.73 287.756 L1965.45 287.756 L1965.45 272.247 Q1965.45 268.497 1964.13 266.714 Q1962.81 264.909 1960.06 264.909 Q1956.79 264.909 1954.87 267.131 Q1952.95 269.33 1952.95 273.103 L1952.95 287.756 L1948.67 287.756 L1948.67 261.83 L1952.95 261.83 L1952.95 265.858 Q1954.41 263.473 1956.45 262.339 Q1958.48 261.205 1961.28 261.205 Q1964.11 261.205 1966.08 262.64 Q1968.07 264.075 1969.01 266.807 Z" fill="#000000" fill-rule="nonzero" fill-opacity="1"></path><path clip-path="url(#clip760)" d="M1999.13 283.867 L1999.13 297.617 L1994.85 297.617 L1994.85 261.83 L1999.13 261.83 L1999.13 265.765 Q2000.47 263.45 2002.51 262.339 Q2004.57 261.205 2007.42 261.205 Q2012.14 261.205 2015.08 264.955 Q2018.04 268.705 2018.04 274.816 Q2018.04 280.927 2015.08 284.677 Q2012.14 288.427 2007.42 288.427 Q2004.57 288.427 2002.51 287.316 Q2000.47 286.182 1999.13 283.867 M2013.62 274.816 Q2013.62 270.117 2011.68 267.455 Q2009.76 264.77 2006.38 264.77 Q2003 264.77 2001.05 267.455 Q1999.13 270.117 1999.13 274.816 Q1999.13 279.515 2001.05 282.2 Q2003 284.862 2006.38 284.862 Q2009.76 284.862 2011.68 282.2 Q2013.62 279.515 2013.62 274.816 Z" fill="#000000" fill-rule="nonzero" fill-opacity="1"></path><path clip-path="url(#clip760)" d="M2047.28 273.728 L2047.28 275.811 L2027.7 275.811 Q2027.97 280.209 2030.33 282.524 Q2032.72 284.816 2036.95 284.816 Q2039.41 284.816 2041.7 284.214 Q2044.01 283.612 2046.28 282.409 L2046.28 286.436 Q2043.99 287.408 2041.58 287.918 Q2039.18 288.427 2036.7 288.427 Q2030.5 288.427 2026.86 284.816 Q2023.25 281.205 2023.25 275.047 Q2023.25 268.682 2026.68 264.955 Q2030.13 261.205 2035.96 261.205 Q2041.19 261.205 2044.22 264.585 Q2047.28 267.941 2047.28 273.728 M2043.02 272.478 Q2042.97 268.983 2041.05 266.899 Q2039.15 264.816 2036.01 264.816 Q2032.44 264.816 2030.29 266.83 Q2028.16 268.844 2027.83 272.501 L2043.02 272.478 Z" fill="#000000" fill-rule="nonzero" fill-opacity="1"></path><path clip-path="url(#clip760)" d="M2075.82 272.108 L2075.82 287.756 L2071.56 287.756 L2071.56 272.247 Q2071.56 268.566 2070.13 266.737 Q2068.69 264.909 2065.82 264.909 Q2062.37 264.909 2060.38 267.108 Q2058.39 269.307 2058.39 273.103 L2058.39 287.756 L2054.11 287.756 L2054.11 261.83 L2058.39 261.83 L2058.39 265.858 Q2059.92 263.52 2061.98 262.362 Q2064.06 261.205 2066.77 261.205 Q2071.24 261.205 2073.53 263.983 Q2075.82 266.737 2075.82 272.108 Z" fill="#000000" fill-rule="nonzero" fill-opacity="1"></path><path clip-path="url(#clip760)" d="M2100.84 262.594 L2100.84 266.622 Q2099.04 265.696 2097.09 265.233 Q2095.15 264.77 2093.07 264.77 Q2089.89 264.77 2088.3 265.742 Q2086.72 266.714 2086.72 268.659 Q2086.72 270.14 2087.86 270.997 Q2088.99 271.83 2092.42 272.594 L2093.88 272.918 Q2098.41 273.89 2100.31 275.672 Q2102.23 277.432 2102.23 280.603 Q2102.23 284.214 2099.36 286.321 Q2096.51 288.427 2091.51 288.427 Q2089.43 288.427 2087.16 288.01 Q2084.92 287.617 2082.42 286.807 L2082.42 282.409 Q2084.78 283.635 2087.07 284.26 Q2089.36 284.862 2091.61 284.862 Q2094.62 284.862 2096.24 283.844 Q2097.86 282.802 2097.86 280.927 Q2097.86 279.191 2096.68 278.265 Q2095.52 277.339 2091.56 276.483 L2090.08 276.135 Q2086.12 275.302 2084.36 273.589 Q2082.6 271.853 2082.6 268.844 Q2082.6 265.186 2085.19 263.196 Q2087.79 261.205 2092.56 261.205 Q2094.92 261.205 2097 261.552 Q2099.08 261.899 2100.84 262.594 Z" fill="#000000" fill-rule="nonzero" fill-opacity="1"></path><path clip-path="url(#clip760)" d="M2120.8 274.723 Q2115.63 274.723 2113.64 275.904 Q2111.65 277.084 2111.65 279.932 Q2111.65 282.2 2113.13 283.543 Q2114.64 284.862 2117.21 284.862 Q2120.75 284.862 2122.88 282.362 Q2125.03 279.839 2125.03 275.672 L2125.03 274.723 L2120.8 274.723 M2129.29 272.964 L2129.29 287.756 L2125.03 287.756 L2125.03 283.821 Q2123.57 286.182 2121.4 287.316 Q2119.22 288.427 2116.07 288.427 Q2112.09 288.427 2109.73 286.205 Q2107.39 283.959 2107.39 280.209 Q2107.39 275.834 2110.31 273.612 Q2113.25 271.39 2119.06 271.39 L2125.03 271.39 L2125.03 270.973 Q2125.03 268.034 2123.09 266.436 Q2121.17 264.816 2117.67 264.816 Q2115.45 264.816 2113.34 265.348 Q2111.24 265.881 2109.29 266.946 L2109.29 263.01 Q2111.63 262.108 2113.83 261.668 Q2116.03 261.205 2118.11 261.205 Q2123.74 261.205 2126.51 264.122 Q2129.29 267.038 2129.29 272.964 Z" fill="#000000" fill-rule="nonzero" fill-opacity="1"></path><path clip-path="url(#clip760)" d="M2142.28 254.469 L2142.28 261.83 L2151.05 261.83 L2151.05 265.14 L2142.28 265.14 L2142.28 279.214 Q2142.28 282.385 2143.13 283.288 Q2144.01 284.191 2146.68 284.191 L2151.05 284.191 L2151.05 287.756 L2146.68 287.756 Q2141.75 287.756 2139.87 285.927 Q2138 284.075 2138 279.214 L2138 265.14 L2134.87 265.14 L2134.87 261.83 L2138 261.83 L2138 254.469 L2142.28 254.469 Z" fill="#000000" fill-rule="nonzero" fill-opacity="1"></path><path clip-path="url(#clip760)" d="M2156.65 261.83 L2160.91 261.83 L2160.91 287.756 L2156.65 287.756 L2156.65 261.83 M2156.65 251.737 L2160.91 251.737 L2160.91 257.131 L2156.65 257.131 L2156.65 251.737 Z" fill="#000000" fill-rule="nonzero" fill-opacity="1"></path><path clip-path="url(#clip760)" d="M2179.87 264.816 Q2176.44 264.816 2174.45 267.501 Q2172.46 270.163 2172.46 274.816 Q2172.46 279.469 2174.43 282.154 Q2176.42 284.816 2179.87 284.816 Q2183.27 284.816 2185.26 282.131 Q2187.25 279.446 2187.25 274.816 Q2187.25 270.21 2185.26 267.524 Q2183.27 264.816 2179.87 264.816 M2179.87 261.205 Q2185.43 261.205 2188.6 264.816 Q2191.77 268.427 2191.77 274.816 Q2191.77 281.182 2188.6 284.816 Q2185.43 288.427 2179.87 288.427 Q2174.29 288.427 2171.12 284.816 Q2167.97 281.182 2167.97 274.816 Q2167.97 268.427 2171.12 264.816 Q2174.29 261.205 2179.87 261.205 Z" fill="#000000" fill-rule="nonzero" fill-opacity="1"></path><path clip-path="url(#clip760)" d="M2220.38 272.108 L2220.38 287.756 L2216.12 287.756 L2216.12 272.247 Q2216.12 268.566 2214.68 266.737 Q2213.25 264.909 2210.38 264.909 Q2206.93 264.909 2204.94 267.108 Q2202.95 269.307 2202.95 273.103 L2202.95 287.756 L2198.67 287.756 L2198.67 261.83 L2202.95 261.83 L2202.95 265.858 Q2204.48 263.52 2206.54 262.362 Q2208.62 261.205 2211.33 261.205 Q2215.8 261.205 2218.09 263.983 Q2220.38 266.737 2220.38 272.108 Z" fill="#000000" fill-rule="nonzero" fill-opacity="1"></path></svg>