<svg xmlns="http://www.w3.org/2000/svg" xmlns:xlink="http://www.w3.org/1999/xlink" width="600" height="400" viewBox="0 0 2400 1600">
<defs>
  <clipPath id="clip730">
    <rect x="0" y="0" width="2400" height="1600"></rect>
  </clipPath>
</defs>
<path clip-path="url(#clip730)" d="M0 1600 L2400 1600 L2400 8.88178e-14 L0 8.88178e-14  Z" fill="#ffffff" fill-rule="evenodd" fill-opacity="1"></path>
<defs>
  <clipPath id="clip731">
    <rect x="480" y="0" width="1681" height="1600"></rect>
  </clipPath>
</defs>
<path clip-path="url(#clip730)" d="M202.714 1423.18 L2352.76 1423.18 L2352.76 123.472 L202.714 123.472  Z" fill="#ffffff" fill-rule="evenodd" fill-opacity="1"></path>
<defs>
  <clipPath id="clip732">
    <rect x="202" y="123" width="2151" height="1301"></rect>
  </clipPath>
</defs>
<polyline clip-path="url(#clip732)" style="stroke:#000000; stroke-linecap:round; stroke-linejoin:round; stroke-width:2; stroke-opacity:0.1; fill:none" points="263.564,1423.18 263.564,123.472 "></polyline>
<polyline clip-path="url(#clip732)" style="stroke:#000000; stroke-linecap:round; stroke-linejoin:round; stroke-width:2; stroke-opacity:0.1; fill:none" points="939.678,1423.18 939.678,123.472 "></polyline>
<polyline clip-path="url(#clip732)" style="stroke:#000000; stroke-linecap:round; stroke-linejoin:round; stroke-width:2; stroke-opacity:0.1; fill:none" points="1615.79,1423.18 1615.79,123.472 "></polyline>
<polyline clip-path="url(#clip732)" style="stroke:#000000; stroke-linecap:round; stroke-linejoin:round; stroke-width:2; stroke-opacity:0.1; fill:none" points="2291.91,1423.18 2291.91,123.472 "></polyline>
<polyline clip-path="url(#clip732)" style="stroke:#000000; stroke-linecap:round; stroke-linejoin:round; stroke-width:2; stroke-opacity:0.1; fill:none" points="202.714,1300.26 2352.76,1300.26 "></polyline>
<polyline clip-path="url(#clip732)" style="stroke:#000000; stroke-linecap:round; stroke-linejoin:round; stroke-width:2; stroke-opacity:0.1; fill:none" points="202.714,1106.27 2352.76,1106.27 "></polyline>
<polyline clip-path="url(#clip732)" style="stroke:#000000; stroke-linecap:round; stroke-linejoin:round; stroke-width:2; stroke-opacity:0.1; fill:none" points="202.714,912.282 2352.76,912.282 "></polyline>
<polyline clip-path="url(#clip732)" style="stroke:#000000; stroke-linecap:round; stroke-linejoin:round; stroke-width:2; stroke-opacity:0.1; fill:none" points="202.714,718.292 2352.76,718.292 "></polyline>
<polyline clip-path="url(#clip732)" style="stroke:#000000; stroke-linecap:round; stroke-linejoin:round; stroke-width:2; stroke-opacity:0.1; fill:none" points="202.714,524.301 2352.76,524.301 "></polyline>
<polyline clip-path="url(#clip732)" style="stroke:#000000; stroke-linecap:round; stroke-linejoin:round; stroke-width:2; stroke-opacity:0.1; fill:none" points="202.714,330.311 2352.76,330.311 "></polyline>
<polyline clip-path="url(#clip732)" style="stroke:#000000; stroke-linecap:round; stroke-linejoin:round; stroke-width:2; stroke-opacity:0.1; fill:none" points="202.714,136.32 2352.76,136.32 "></polyline>
<polyline clip-path="url(#clip730)" style="stroke:#000000; stroke-linecap:round; stroke-linejoin:round; stroke-width:4; stroke-opacity:1; fill:none" points="202.714,1423.18 2352.76,1423.18 "></polyline>
<polyline clip-path="url(#clip730)" style="stroke:#000000; stroke-linecap:round; stroke-linejoin:round; stroke-width:4; stroke-opacity:1; fill:none" points="263.564,1423.18 263.564,1404.28 "></polyline>
<polyline clip-path="url(#clip730)" style="stroke:#000000; stroke-linecap:round; stroke-linejoin:round; stroke-width:4; stroke-opacity:1; fill:none" points="939.678,1423.18 939.678,1404.28 "></polyline>
<polyline clip-path="url(#clip730)" style="stroke:#000000; stroke-linecap:round; stroke-linejoin:round; stroke-width:4; stroke-opacity:1; fill:none" points="1615.79,1423.18 1615.79,1404.28 "></polyline>
<polyline clip-path="url(#clip730)" style="stroke:#000000; stroke-linecap:round; stroke-linejoin:round; stroke-width:4; stroke-opacity:1; fill:none" points="2291.91,1423.18 2291.91,1404.28 "></polyline>
<path clip-path="url(#clip730)" d="M176.238 1454.86 L176.238 1467.85 L182.118 1467.85 Q185.381 1467.85 187.164 1466.16 Q188.946 1464.47 188.946 1461.34 Q188.946 1458.24 187.164 1456.55 Q185.381 1454.86 182.118 1454.86 L176.238 1454.86 M171.562 1451.02 L182.118 1451.02 Q187.928 1451.02 190.891 1453.66 Q193.877 1456.27 193.877 1461.34 Q193.877 1466.46 190.891 1469.08 Q187.928 1471.69 182.118 1471.69 L176.238 1471.69 L176.238 1485.58 L171.562 1485.58 L171.562 1451.02 Z" fill="#000000" fill-rule="nonzero" fill-opacity="1"></path><path clip-path="url(#clip730)" d="M221.515 1469.93 L221.515 1485.58 L217.256 1485.58 L217.256 1470.07 Q217.256 1466.39 215.821 1464.56 Q214.386 1462.73 211.516 1462.73 Q208.066 1462.73 206.076 1464.93 Q204.085 1467.13 204.085 1470.93 L204.085 1485.58 L199.803 1485.58 L199.803 1449.56 L204.085 1449.56 L204.085 1463.68 Q205.613 1461.34 207.673 1460.19 Q209.756 1459.03 212.465 1459.03 Q216.932 1459.03 219.224 1461.81 Q221.515 1464.56 221.515 1469.93 Z" fill="#000000" fill-rule="nonzero" fill-opacity="1"></path><path clip-path="url(#clip730)" d="M241.793 1472.55 Q236.631 1472.55 234.64 1473.73 Q232.65 1474.91 232.65 1477.76 Q232.65 1480.02 234.131 1481.37 Q235.636 1482.69 238.205 1482.69 Q241.747 1482.69 243.876 1480.19 Q246.029 1477.66 246.029 1473.5 L246.029 1472.55 L241.793 1472.55 M250.288 1470.79 L250.288 1485.58 L246.029 1485.58 L246.029 1481.64 Q244.571 1484.01 242.395 1485.14 Q240.219 1486.25 237.071 1486.25 Q233.089 1486.25 230.728 1484.03 Q228.39 1481.78 228.39 1478.03 Q228.39 1473.66 231.307 1471.44 Q234.247 1469.21 240.057 1469.21 L246.029 1469.21 L246.029 1468.8 Q246.029 1465.86 244.085 1464.26 Q242.163 1462.64 238.668 1462.64 Q236.446 1462.64 234.339 1463.17 Q232.233 1463.7 230.289 1464.77 L230.289 1460.83 Q232.627 1459.93 234.826 1459.49 Q237.025 1459.03 239.108 1459.03 Q244.733 1459.03 247.511 1461.95 Q250.288 1464.86 250.288 1470.79 Z" fill="#000000" fill-rule="nonzero" fill-opacity="1"></path><path clip-path="url(#clip730)" d="M275.589 1460.42 L275.589 1464.45 Q273.784 1463.52 271.839 1463.06 Q269.895 1462.59 267.811 1462.59 Q264.64 1462.59 263.043 1463.57 Q261.469 1464.54 261.469 1466.48 Q261.469 1467.96 262.603 1468.82 Q263.737 1469.65 267.163 1470.42 L268.622 1470.74 Q273.159 1471.71 275.057 1473.5 Q276.978 1475.26 276.978 1478.43 Q276.978 1482.04 274.108 1484.14 Q271.261 1486.25 266.261 1486.25 Q264.177 1486.25 261.909 1485.83 Q259.663 1485.44 257.163 1484.63 L257.163 1480.23 Q259.525 1481.46 261.816 1482.08 Q264.108 1482.69 266.353 1482.69 Q269.362 1482.69 270.983 1481.67 Q272.603 1480.63 272.603 1478.75 Q272.603 1477.02 271.423 1476.09 Q270.265 1475.16 266.307 1474.31 L264.825 1473.96 Q260.867 1473.13 259.108 1471.41 Q257.349 1469.68 257.349 1466.67 Q257.349 1463.01 259.941 1461.02 Q262.534 1459.03 267.302 1459.03 Q269.663 1459.03 271.747 1459.38 Q273.83 1459.72 275.589 1460.42 Z" fill="#000000" fill-rule="nonzero" fill-opacity="1"></path><path clip-path="url(#clip730)" d="M305.936 1471.55 L305.936 1473.64 L286.353 1473.64 Q286.631 1478.03 288.992 1480.35 Q291.376 1482.64 295.612 1482.64 Q298.066 1482.64 300.358 1482.04 Q302.672 1481.44 304.941 1480.23 L304.941 1484.26 Q302.649 1485.23 300.242 1485.74 Q297.834 1486.25 295.358 1486.25 Q289.154 1486.25 285.52 1482.64 Q281.909 1479.03 281.909 1472.87 Q281.909 1466.51 285.335 1462.78 Q288.784 1459.03 294.617 1459.03 Q299.848 1459.03 302.881 1462.41 Q305.936 1465.77 305.936 1471.55 M301.677 1470.3 Q301.631 1466.81 299.709 1464.72 Q297.811 1462.64 294.663 1462.64 Q291.098 1462.64 288.946 1464.65 Q286.816 1466.67 286.492 1470.33 L301.677 1470.3 Z" fill="#000000" fill-rule="nonzero" fill-opacity="1"></path><path clip-path="url(#clip730)" d="M339.732 1455.63 L333.39 1472.83 L346.098 1472.83 L339.732 1455.63 M337.094 1451.02 L342.394 1451.02 L355.566 1485.58 L350.705 1485.58 L347.556 1476.71 L331.978 1476.71 L328.83 1485.58 L323.899 1485.58 L337.094 1451.02 Z" fill="#000000" fill-rule="nonzero" fill-opacity="1"></path><path clip-path="url(#clip730)" d="M853.787 1454.86 L853.787 1467.85 L859.667 1467.85 Q862.93 1467.85 864.713 1466.16 Q866.495 1464.47 866.495 1461.34 Q866.495 1458.24 864.713 1456.55 Q862.93 1454.86 859.667 1454.86 L853.787 1454.86 M849.111 1451.02 L859.667 1451.02 Q865.477 1451.02 868.44 1453.66 Q871.426 1456.27 871.426 1461.34 Q871.426 1466.46 868.44 1469.08 Q865.477 1471.69 859.667 1471.69 L853.787 1471.69 L853.787 1485.58 L849.111 1485.58 L849.111 1451.02 Z" fill="#000000" fill-rule="nonzero" fill-opacity="1"></path><path clip-path="url(#clip730)" d="M899.065 1469.93 L899.065 1485.58 L894.805 1485.58 L894.805 1470.07 Q894.805 1466.39 893.37 1464.56 Q891.935 1462.73 889.065 1462.73 Q885.616 1462.73 883.625 1464.93 Q881.634 1467.13 881.634 1470.93 L881.634 1485.58 L877.352 1485.58 L877.352 1449.56 L881.634 1449.56 L881.634 1463.68 Q883.162 1461.34 885.222 1460.19 Q887.305 1459.03 890.014 1459.03 Q894.481 1459.03 896.773 1461.81 Q899.065 1464.56 899.065 1469.93 Z" fill="#000000" fill-rule="nonzero" fill-opacity="1"></path><path clip-path="url(#clip730)" d="M919.342 1472.55 Q914.18 1472.55 912.189 1473.73 Q910.199 1474.91 910.199 1477.76 Q910.199 1480.02 911.68 1481.37 Q913.185 1482.69 915.754 1482.69 Q919.296 1482.69 921.426 1480.19 Q923.578 1477.66 923.578 1473.5 L923.578 1472.55 L919.342 1472.55 M927.838 1470.79 L927.838 1485.58 L923.578 1485.58 L923.578 1481.64 Q922.12 1484.01 919.944 1485.14 Q917.768 1486.25 914.62 1486.25 Q910.639 1486.25 908.277 1484.03 Q905.94 1481.78 905.94 1478.03 Q905.94 1473.66 908.856 1471.44 Q911.796 1469.21 917.606 1469.21 L923.578 1469.21 L923.578 1468.8 Q923.578 1465.86 921.634 1464.26 Q919.713 1462.64 916.217 1462.64 Q913.995 1462.64 911.889 1463.17 Q909.782 1463.7 907.838 1464.77 L907.838 1460.83 Q910.176 1459.93 912.375 1459.49 Q914.574 1459.03 916.657 1459.03 Q922.282 1459.03 925.06 1461.95 Q927.838 1464.86 927.838 1470.79 Z" fill="#000000" fill-rule="nonzero" fill-opacity="1"></path><path clip-path="url(#clip730)" d="M953.138 1460.42 L953.138 1464.45 Q951.333 1463.52 949.388 1463.06 Q947.444 1462.59 945.361 1462.59 Q942.189 1462.59 940.592 1463.57 Q939.018 1464.54 939.018 1466.48 Q939.018 1467.96 940.152 1468.82 Q941.287 1469.65 944.712 1470.42 L946.171 1470.74 Q950.708 1471.71 952.606 1473.5 Q954.527 1475.26 954.527 1478.43 Q954.527 1482.04 951.657 1484.14 Q948.81 1486.25 943.81 1486.25 Q941.726 1486.25 939.458 1485.83 Q937.213 1485.44 934.713 1484.63 L934.713 1480.23 Q937.074 1481.46 939.365 1482.08 Q941.657 1482.69 943.902 1482.69 Q946.912 1482.69 948.532 1481.67 Q950.152 1480.63 950.152 1478.75 Q950.152 1477.02 948.972 1476.09 Q947.814 1475.16 943.856 1474.31 L942.375 1473.96 Q938.416 1473.13 936.657 1471.41 Q934.898 1469.68 934.898 1466.67 Q934.898 1463.01 937.49 1461.02 Q940.083 1459.03 944.851 1459.03 Q947.212 1459.03 949.296 1459.38 Q951.379 1459.72 953.138 1460.42 Z" fill="#000000" fill-rule="nonzero" fill-opacity="1"></path><path clip-path="url(#clip730)" d="M983.485 1471.55 L983.485 1473.64 L963.902 1473.64 Q964.18 1478.03 966.541 1480.35 Q968.925 1482.64 973.161 1482.64 Q975.615 1482.64 977.907 1482.04 Q980.222 1481.44 982.49 1480.23 L982.49 1484.26 Q980.198 1485.23 977.791 1485.74 Q975.384 1486.25 972.907 1486.25 Q966.703 1486.25 963.069 1482.64 Q959.458 1479.03 959.458 1472.87 Q959.458 1466.51 962.884 1462.78 Q966.333 1459.03 972.166 1459.03 Q977.397 1459.03 980.43 1462.41 Q983.485 1465.77 983.485 1471.55 M979.226 1470.3 Q979.18 1466.81 977.259 1464.72 Q975.36 1462.64 972.212 1462.64 Q968.648 1462.64 966.495 1464.65 Q964.365 1466.67 964.041 1470.33 L979.226 1470.3 Z" fill="#000000" fill-rule="nonzero" fill-opacity="1"></path><path clip-path="url(#clip730)" d="M1010.41 1469.08 L1010.41 1481.74 L1017.91 1481.74 Q1021.68 1481.74 1023.49 1480.19 Q1025.31 1478.61 1025.31 1475.39 Q1025.31 1472.15 1023.49 1470.63 Q1021.68 1469.08 1017.91 1469.08 L1010.41 1469.08 M1010.41 1454.86 L1010.41 1465.28 L1017.33 1465.28 Q1020.75 1465.28 1022.42 1464.01 Q1024.11 1462.71 1024.11 1460.07 Q1024.11 1457.45 1022.42 1456.16 Q1020.75 1454.86 1017.33 1454.86 L1010.41 1454.86 M1005.73 1451.02 L1017.68 1451.02 Q1023.02 1451.02 1025.92 1453.24 Q1028.81 1455.46 1028.81 1459.56 Q1028.81 1462.73 1027.33 1464.61 Q1025.85 1466.48 1022.98 1466.95 Q1026.42 1467.69 1028.32 1470.05 Q1030.24 1472.39 1030.24 1475.9 Q1030.24 1480.53 1027.1 1483.06 Q1023.95 1485.58 1018.14 1485.58 L1005.73 1485.58 L1005.73 1451.02 Z" fill="#000000" fill-rule="nonzero" fill-opacity="1"></path><path clip-path="url(#clip730)" d="M1529.22 1454.86 L1529.22 1467.85 L1535.1 1467.85 Q1538.36 1467.85 1540.14 1466.16 Q1541.93 1464.47 1541.93 1461.34 Q1541.93 1458.24 1540.14 1456.55 Q1538.36 1454.86 1535.1 1454.86 L1529.22 1454.86 M1524.54 1451.02 L1535.1 1451.02 Q1540.91 1451.02 1543.87 1453.66 Q1546.86 1456.27 1546.86 1461.34 Q1546.86 1466.46 1543.87 1469.08 Q1540.91 1471.69 1535.1 1471.69 L1529.22 1471.69 L1529.22 1485.58 L1524.54 1485.58 L1524.54 1451.02 Z" fill="#000000" fill-rule="nonzero" fill-opacity="1"></path><path clip-path="url(#clip730)" d="M1574.5 1469.93 L1574.5 1485.58 L1570.24 1485.58 L1570.24 1470.07 Q1570.24 1466.39 1568.8 1464.56 Q1567.37 1462.73 1564.5 1462.73 Q1561.05 1462.73 1559.06 1464.93 Q1557.07 1467.13 1557.07 1470.93 L1557.07 1485.58 L1552.78 1485.58 L1552.78 1449.56 L1557.07 1449.56 L1557.07 1463.68 Q1558.59 1461.34 1560.65 1460.19 Q1562.74 1459.03 1565.44 1459.03 Q1569.91 1459.03 1572.2 1461.81 Q1574.5 1464.56 1574.5 1469.93 Z" fill="#000000" fill-rule="nonzero" fill-opacity="1"></path><path clip-path="url(#clip730)" d="M1594.77 1472.55 Q1589.61 1472.55 1587.62 1473.73 Q1585.63 1474.91 1585.63 1477.76 Q1585.63 1480.02 1587.11 1481.37 Q1588.62 1482.69 1591.19 1482.69 Q1594.73 1482.69 1596.86 1480.19 Q1599.01 1477.66 1599.01 1473.5 L1599.01 1472.55 L1594.77 1472.55 M1603.27 1470.79 L1603.27 1485.58 L1599.01 1485.58 L1599.01 1481.64 Q1597.55 1484.01 1595.38 1485.14 Q1593.2 1486.25 1590.05 1486.25 Q1586.07 1486.25 1583.71 1484.03 Q1581.37 1481.78 1581.37 1478.03 Q1581.37 1473.66 1584.29 1471.44 Q1587.23 1469.21 1593.04 1469.21 L1599.01 1469.21 L1599.01 1468.8 Q1599.01 1465.86 1597.06 1464.26 Q1595.14 1462.64 1591.65 1462.64 Q1589.43 1462.64 1587.32 1463.17 Q1585.21 1463.7 1583.27 1464.77 L1583.27 1460.83 Q1585.61 1459.93 1587.81 1459.49 Q1590 1459.03 1592.09 1459.03 Q1597.71 1459.03 1600.49 1461.95 Q1603.27 1464.86 1603.27 1470.79 Z" fill="#000000" fill-rule="nonzero" fill-opacity="1"></path><path clip-path="url(#clip730)" d="M1628.57 1460.42 L1628.57 1464.45 Q1626.76 1463.52 1624.82 1463.06 Q1622.88 1462.59 1620.79 1462.59 Q1617.62 1462.59 1616.02 1463.57 Q1614.45 1464.54 1614.45 1466.48 Q1614.45 1467.96 1615.58 1468.82 Q1616.72 1469.65 1620.14 1470.42 L1621.6 1470.74 Q1626.14 1471.71 1628.04 1473.5 Q1629.96 1475.26 1629.96 1478.43 Q1629.96 1482.04 1627.09 1484.14 Q1624.24 1486.25 1619.24 1486.25 Q1617.16 1486.25 1614.89 1485.83 Q1612.64 1485.44 1610.14 1484.63 L1610.14 1480.23 Q1612.5 1481.46 1614.8 1482.08 Q1617.09 1482.69 1619.33 1482.69 Q1622.34 1482.69 1623.96 1481.67 Q1625.58 1480.63 1625.58 1478.75 Q1625.58 1477.02 1624.4 1476.09 Q1623.25 1475.16 1619.29 1474.31 L1617.81 1473.96 Q1613.85 1473.13 1612.09 1471.41 Q1610.33 1469.68 1610.33 1466.67 Q1610.33 1463.01 1612.92 1461.02 Q1615.51 1459.03 1620.28 1459.03 Q1622.64 1459.03 1624.73 1459.38 Q1626.81 1459.72 1628.57 1460.42 Z" fill="#000000" fill-rule="nonzero" fill-opacity="1"></path><path clip-path="url(#clip730)" d="M1658.92 1471.55 L1658.92 1473.64 L1639.33 1473.64 Q1639.61 1478.03 1641.97 1480.35 Q1644.36 1482.64 1648.59 1482.64 Q1651.05 1482.64 1653.34 1482.04 Q1655.65 1481.44 1657.92 1480.23 L1657.92 1484.26 Q1655.63 1485.23 1653.22 1485.74 Q1650.81 1486.25 1648.34 1486.25 Q1642.13 1486.25 1638.5 1482.64 Q1634.89 1479.03 1634.89 1472.87 Q1634.89 1466.51 1638.31 1462.78 Q1641.76 1459.03 1647.6 1459.03 Q1652.83 1459.03 1655.86 1462.41 Q1658.92 1465.77 1658.92 1471.55 M1654.66 1470.3 Q1654.61 1466.81 1652.69 1464.72 Q1650.79 1462.64 1647.64 1462.64 Q1644.08 1462.64 1641.93 1464.65 Q1639.8 1466.67 1639.47 1470.33 L1654.66 1470.3 Z" fill="#000000" fill-rule="nonzero" fill-opacity="1"></path><path clip-path="url(#clip730)" d="M1707.04 1453.68 L1707.04 1458.61 Q1704.68 1456.41 1701.99 1455.33 Q1699.33 1454.24 1696.32 1454.24 Q1690.4 1454.24 1687.25 1457.87 Q1684.1 1461.48 1684.1 1468.33 Q1684.1 1475.16 1687.25 1478.8 Q1690.4 1482.41 1696.32 1482.41 Q1699.33 1482.41 1701.99 1481.32 Q1704.68 1480.23 1707.04 1478.03 L1707.04 1482.92 Q1704.59 1484.58 1701.83 1485.42 Q1699.1 1486.25 1696.05 1486.25 Q1688.2 1486.25 1683.68 1481.46 Q1679.17 1476.64 1679.17 1468.33 Q1679.17 1460 1683.68 1455.21 Q1688.2 1450.39 1696.05 1450.39 Q1699.15 1450.39 1701.88 1451.23 Q1704.63 1452.04 1707.04 1453.68 Z" fill="#000000" fill-rule="nonzero" fill-opacity="1"></path><path clip-path="url(#clip730)" d="M2208.97 1451.02 L2215.26 1451.02 L2230.59 1479.93 L2230.59 1451.02 L2235.12 1451.02 L2235.12 1485.58 L2228.83 1485.58 L2213.5 1456.67 L2213.5 1485.58 L2208.97 1485.58 L2208.97 1451.02 Z" fill="#000000" fill-rule="nonzero" fill-opacity="1"></path><path clip-path="url(#clip730)" d="M2266.42 1471.55 L2266.42 1473.64 L2246.84 1473.64 Q2247.11 1478.03 2249.48 1480.35 Q2251.86 1482.64 2256.1 1482.64 Q2258.55 1482.64 2260.84 1482.04 Q2263.16 1481.44 2265.42 1480.23 L2265.42 1484.26 Q2263.13 1485.23 2260.73 1485.74 Q2258.32 1486.25 2255.84 1486.25 Q2249.64 1486.25 2246 1482.64 Q2242.39 1479.03 2242.39 1472.87 Q2242.39 1466.51 2245.82 1462.78 Q2249.27 1459.03 2255.1 1459.03 Q2260.33 1459.03 2263.36 1462.41 Q2266.42 1465.77 2266.42 1471.55 M2262.16 1470.3 Q2262.11 1466.81 2260.19 1464.72 Q2258.29 1462.64 2255.15 1462.64 Q2251.58 1462.64 2249.43 1464.65 Q2247.3 1466.67 2246.98 1470.33 L2262.16 1470.3 Z" fill="#000000" fill-rule="nonzero" fill-opacity="1"></path><path clip-path="url(#clip730)" d="M2272.97 1475.35 L2272.97 1459.65 L2277.23 1459.65 L2277.23 1475.19 Q2277.23 1478.87 2278.66 1480.72 Q2280.1 1482.55 2282.97 1482.55 Q2286.42 1482.55 2288.41 1480.35 Q2290.42 1478.15 2290.42 1474.35 L2290.42 1459.65 L2294.68 1459.65 L2294.68 1485.58 L2290.42 1485.58 L2290.42 1481.6 Q2288.87 1483.96 2286.81 1485.12 Q2284.78 1486.25 2282.07 1486.25 Q2277.6 1486.25 2275.29 1483.47 Q2272.97 1480.7 2272.97 1475.35 M2283.69 1459.03 L2283.69 1459.03 Z" fill="#000000" fill-rule="nonzero" fill-opacity="1"></path><path clip-path="url(#clip730)" d="M2307.67 1452.29 L2307.67 1459.65 L2316.44 1459.65 L2316.44 1462.96 L2307.67 1462.96 L2307.67 1477.04 Q2307.67 1480.21 2308.53 1481.11 Q2309.41 1482.02 2312.07 1482.02 L2316.44 1482.02 L2316.44 1485.58 L2312.07 1485.58 Q2307.14 1485.58 2305.26 1483.75 Q2303.39 1481.9 2303.39 1477.04 L2303.39 1462.96 L2300.26 1462.96 L2300.26 1459.65 L2303.39 1459.65 L2303.39 1452.29 L2307.67 1452.29 Z" fill="#000000" fill-rule="nonzero" fill-opacity="1"></path><path clip-path="url(#clip730)" d="M2337.07 1463.64 Q2336.35 1463.22 2335.49 1463.03 Q2334.66 1462.83 2333.64 1462.83 Q2330.03 1462.83 2328.09 1465.19 Q2326.16 1467.52 2326.16 1471.92 L2326.16 1485.58 L2321.88 1485.58 L2321.88 1459.65 L2326.16 1459.65 L2326.16 1463.68 Q2327.51 1461.32 2329.66 1460.19 Q2331.81 1459.03 2334.89 1459.03 Q2335.33 1459.03 2335.86 1459.1 Q2336.4 1459.14 2337.04 1459.26 L2337.07 1463.64 Z" fill="#000000" fill-rule="nonzero" fill-opacity="1"></path><path clip-path="url(#clip730)" d="M2353.32 1472.55 Q2348.16 1472.55 2346.16 1473.73 Q2344.17 1474.91 2344.17 1477.76 Q2344.17 1480.02 2345.66 1481.37 Q2347.16 1482.69 2349.73 1482.69 Q2353.27 1482.69 2355.4 1480.19 Q2357.55 1477.66 2357.55 1473.5 L2357.55 1472.55 L2353.32 1472.55 M2361.81 1470.79 L2361.81 1485.58 L2357.55 1485.58 L2357.55 1481.64 Q2356.1 1484.01 2353.92 1485.14 Q2351.74 1486.25 2348.6 1486.25 Q2344.61 1486.25 2342.25 1484.03 Q2339.91 1481.78 2339.91 1478.03 Q2339.91 1473.66 2342.83 1471.44 Q2345.77 1469.21 2351.58 1469.21 L2357.55 1469.21 L2357.55 1468.8 Q2357.55 1465.86 2355.61 1464.26 Q2353.69 1462.64 2350.19 1462.64 Q2347.97 1462.64 2345.86 1463.17 Q2343.76 1463.7 2341.81 1464.77 L2341.81 1460.83 Q2344.15 1459.93 2346.35 1459.49 Q2348.55 1459.03 2350.63 1459.03 Q2356.26 1459.03 2359.03 1461.95 Q2361.81 1464.86 2361.81 1470.79 Z" fill="#000000" fill-rule="nonzero" fill-opacity="1"></path><path clip-path="url(#clip730)" d="M2370.59 1449.56 L2374.85 1449.56 L2374.85 1485.58 L2370.59 1485.58 L2370.59 1449.56 Z" fill="#000000" fill-rule="nonzero" fill-opacity="1"></path><path clip-path="url(#clip730)" d="M1191.78 1525.81 L1191.78 1543.66 L1199.87 1543.66 Q1204.35 1543.66 1206.8 1541.34 Q1209.26 1539.02 1209.26 1534.72 Q1209.26 1530.45 1206.8 1528.13 Q1204.35 1525.81 1199.87 1525.81 L1191.78 1525.81 M1185.35 1520.52 L1199.87 1520.52 Q1207.86 1520.52 1211.93 1524.15 Q1216.04 1527.75 1216.04 1534.72 Q1216.04 1541.75 1211.93 1545.35 Q1207.86 1548.95 1199.87 1548.95 L1191.78 1548.95 L1191.78 1568.04 L1185.35 1568.04 L1185.35 1520.52 Z" fill="#000000" fill-rule="nonzero" fill-opacity="1"></path><path clip-path="url(#clip730)" d="M1254.04 1546.53 L1254.04 1568.04 L1248.18 1568.04 L1248.18 1546.72 Q1248.18 1541.66 1246.21 1539.14 Q1244.24 1536.63 1240.29 1536.63 Q1235.55 1536.63 1232.81 1539.65 Q1230.07 1542.68 1230.07 1547.9 L1230.07 1568.04 L1224.18 1568.04 L1224.18 1518.52 L1230.07 1518.52 L1230.07 1537.93 Q1232.17 1534.72 1235 1533.13 Q1237.87 1531.54 1241.59 1531.54 Q1247.74 1531.54 1250.89 1535.36 Q1254.04 1539.14 1254.04 1546.53 Z" fill="#000000" fill-rule="nonzero" fill-opacity="1"></path><path clip-path="url(#clip730)" d="M1281.92 1550.12 Q1274.82 1550.12 1272.09 1551.75 Q1269.35 1553.37 1269.35 1557.29 Q1269.35 1560.4 1271.38 1562.25 Q1273.45 1564.07 1276.99 1564.07 Q1281.86 1564.07 1284.78 1560.63 Q1287.74 1557.16 1287.74 1551.43 L1287.74 1550.12 L1281.92 1550.12 M1293.6 1547.71 L1293.6 1568.04 L1287.74 1568.04 L1287.74 1562.63 Q1285.74 1565.88 1282.75 1567.44 Q1279.76 1568.97 1275.43 1568.97 Q1269.95 1568.97 1266.71 1565.91 Q1263.49 1562.82 1263.49 1557.67 Q1263.49 1551.65 1267.5 1548.6 Q1271.54 1545.54 1279.53 1545.54 L1287.74 1545.54 L1287.74 1544.97 Q1287.74 1540.93 1285.07 1538.73 Q1282.43 1536.5 1277.62 1536.5 Q1274.57 1536.5 1271.67 1537.23 Q1268.78 1537.97 1266.1 1539.43 L1266.1 1534.02 Q1269.32 1532.78 1272.34 1532.17 Q1275.36 1531.54 1278.23 1531.54 Q1285.96 1531.54 1289.78 1535.55 Q1293.6 1539.56 1293.6 1547.71 Z" fill="#000000" fill-rule="nonzero" fill-opacity="1"></path><path clip-path="url(#clip730)" d="M1328.39 1533.45 L1328.39 1538.98 Q1325.91 1537.71 1323.23 1537.07 Q1320.56 1536.44 1317.7 1536.44 Q1313.33 1536.44 1311.14 1537.77 Q1308.97 1539.11 1308.97 1541.79 Q1308.97 1543.82 1310.53 1545 Q1312.09 1546.15 1316.8 1547.2 L1318.81 1547.64 Q1325.05 1548.98 1327.66 1551.43 Q1330.3 1553.85 1330.3 1558.21 Q1330.3 1563.17 1326.35 1566.07 Q1322.44 1568.97 1315.56 1568.97 Q1312.7 1568.97 1309.58 1568.39 Q1306.49 1567.85 1303.05 1566.74 L1303.05 1560.69 Q1306.3 1562.38 1309.45 1563.24 Q1312.6 1564.07 1315.69 1564.07 Q1319.83 1564.07 1322.06 1562.66 Q1324.28 1561.23 1324.28 1558.65 Q1324.28 1556.27 1322.66 1554.99 Q1321.07 1553.72 1315.63 1552.54 L1313.59 1552.07 Q1308.15 1550.92 1305.73 1548.56 Q1303.31 1546.18 1303.31 1542.04 Q1303.31 1537.01 1306.87 1534.27 Q1310.44 1531.54 1317 1531.54 Q1320.24 1531.54 1323.11 1532.01 Q1325.97 1532.49 1328.39 1533.45 Z" fill="#000000" fill-rule="nonzero" fill-opacity="1"></path><path clip-path="url(#clip730)" d="M1370.12 1548.76 L1370.12 1551.62 L1343.19 1551.62 Q1343.57 1557.67 1346.82 1560.85 Q1350.1 1564 1355.92 1564 Q1359.3 1564 1362.45 1563.17 Q1365.63 1562.35 1368.75 1560.69 L1368.75 1566.23 Q1365.6 1567.57 1362.29 1568.27 Q1358.98 1568.97 1355.57 1568.97 Q1347.04 1568.97 1342.04 1564 Q1337.08 1559.04 1337.08 1550.57 Q1337.08 1541.82 1341.79 1536.69 Q1346.53 1531.54 1354.55 1531.54 Q1361.75 1531.54 1365.92 1536.18 Q1370.12 1540.8 1370.12 1548.76 M1364.26 1547.04 Q1364.2 1542.23 1361.56 1539.37 Q1358.95 1536.5 1354.62 1536.5 Q1349.71 1536.5 1346.75 1539.27 Q1343.83 1542.04 1343.38 1547.07 L1364.26 1547.04 Z" fill="#000000" fill-rule="nonzero" fill-opacity="1"></path><polyline clip-path="url(#clip730)" style="stroke:#000000; stroke-linecap:round; stroke-linejoin:round; stroke-width:4; stroke-opacity:1; fill:none" points="202.714,1423.18 202.714,123.472 "></polyline>
<polyline clip-path="url(#clip730)" style="stroke:#000000; stroke-linecap:round; stroke-linejoin:round; stroke-width:4; stroke-opacity:1; fill:none" points="202.714,1300.26 221.611,1300.26 "></polyline>
<polyline clip-path="url(#clip730)" style="stroke:#000000; stroke-linecap:round; stroke-linejoin:round; stroke-width:4; stroke-opacity:1; fill:none" points="202.714,1106.27 221.611,1106.27 "></polyline>
<polyline clip-path="url(#clip730)" style="stroke:#000000; stroke-linecap:round; stroke-linejoin:round; stroke-width:4; stroke-opacity:1; fill:none" points="202.714,912.282 221.611,912.282 "></polyline>
<polyline clip-path="url(#clip730)" style="stroke:#000000; stroke-linecap:round; stroke-linejoin:round; stroke-width:4; stroke-opacity:1; fill:none" points="202.714,718.292 221.611,718.292 "></polyline>
<polyline clip-path="url(#clip730)" style="stroke:#000000; stroke-linecap:round; stroke-linejoin:round; stroke-width:4; stroke-opacity:1; fill:none" points="202.714,524.301 221.611,524.301 "></polyline>
<polyline clip-path="url(#clip730)" style="stroke:#000000; stroke-linecap:round; stroke-linejoin:round; stroke-width:4; stroke-opacity:1; fill:none" points="202.714,330.311 221.611,330.311 "></polyline>
<polyline clip-path="url(#clip730)" style="stroke:#000000; stroke-linecap:round; stroke-linejoin:round; stroke-width:4; stroke-opacity:1; fill:none" points="202.714,136.32 221.611,136.32 "></polyline>
<path clip-path="url(#clip730)" d="M155.186 1298.4 Q152.038 1298.4 150.186 1300.55 Q148.357 1302.71 148.357 1306.46 Q148.357 1310.18 150.186 1312.36 Q152.038 1314.51 155.186 1314.51 Q158.334 1314.51 160.163 1312.36 Q162.015 1310.18 162.015 1306.46 Q162.015 1302.71 160.163 1300.55 Q158.334 1298.4 155.186 1298.4 M164.468 1283.75 L164.468 1288.01 Q162.709 1287.17 160.903 1286.73 Q159.121 1286.29 157.362 1286.29 Q152.732 1286.29 150.278 1289.42 Q147.848 1292.54 147.501 1298.86 Q148.866 1296.85 150.927 1295.78 Q152.987 1294.7 155.464 1294.7 Q160.672 1294.7 163.681 1297.87 Q166.714 1301.02 166.714 1306.46 Q166.714 1311.78 163.565 1315 Q160.417 1318.21 155.186 1318.21 Q149.191 1318.21 146.019 1313.63 Q142.848 1309.02 142.848 1300.3 Q142.848 1292.1 146.737 1287.24 Q150.626 1282.36 157.177 1282.36 Q158.936 1282.36 160.718 1282.71 Q162.524 1283.05 164.468 1283.75 Z" fill="#000000" fill-rule="nonzero" fill-opacity="1"></path><path clip-path="url(#clip730)" d="M154.862 1107.14 Q151.528 1107.14 149.607 1108.92 Q147.709 1110.71 147.709 1113.83 Q147.709 1116.96 149.607 1118.74 Q151.528 1120.52 154.862 1120.52 Q158.195 1120.52 160.116 1118.74 Q162.038 1116.93 162.038 1113.83 Q162.038 1110.71 160.116 1108.92 Q158.218 1107.14 154.862 1107.14 M150.186 1105.15 Q147.177 1104.41 145.487 1102.35 Q143.82 1100.29 143.82 1097.33 Q143.82 1093.18 146.76 1090.78 Q149.723 1088.37 154.862 1088.37 Q160.024 1088.37 162.964 1090.78 Q165.903 1093.18 165.903 1097.33 Q165.903 1100.29 164.214 1102.35 Q162.547 1104.41 159.561 1105.15 Q162.94 1105.94 164.815 1108.23 Q166.714 1110.52 166.714 1113.83 Q166.714 1118.85 163.635 1121.54 Q160.579 1124.22 154.862 1124.22 Q149.144 1124.22 146.066 1121.54 Q143.01 1118.85 143.01 1113.83 Q143.01 1110.52 144.908 1108.23 Q146.806 1105.94 150.186 1105.15 M148.473 1097.77 Q148.473 1100.45 150.14 1101.96 Q151.829 1103.46 154.862 1103.46 Q157.871 1103.46 159.561 1101.96 Q161.274 1100.45 161.274 1097.77 Q161.274 1095.08 159.561 1093.58 Q157.871 1092.07 154.862 1092.07 Q151.829 1092.07 150.14 1093.58 Q148.473 1095.08 148.473 1097.77 Z" fill="#000000" fill-rule="nonzero" fill-opacity="1"></path><path clip-path="url(#clip730)" d="M115.418 925.627 L123.056 925.627 L123.056 899.262 L114.746 900.928 L114.746 896.669 L123.01 895.002 L127.686 895.002 L127.686 925.627 L135.325 925.627 L135.325 929.562 L115.418 929.562 L115.418 925.627 Z" fill="#000000" fill-rule="nonzero" fill-opacity="1"></path><path clip-path="url(#clip730)" d="M154.769 898.081 Q151.158 898.081 149.329 901.646 Q147.524 905.187 147.524 912.317 Q147.524 919.423 149.329 922.988 Q151.158 926.53 154.769 926.53 Q158.403 926.53 160.209 922.988 Q162.038 919.423 162.038 912.317 Q162.038 905.187 160.209 901.646 Q158.403 898.081 154.769 898.081 M154.769 894.377 Q160.579 894.377 163.635 898.984 Q166.714 903.567 166.714 912.317 Q166.714 921.044 163.635 925.65 Q160.579 930.234 154.769 930.234 Q148.959 930.234 145.88 925.65 Q142.825 921.044 142.825 912.317 Q142.825 903.567 145.88 898.984 Q148.959 894.377 154.769 894.377 Z" fill="#000000" fill-rule="nonzero" fill-opacity="1"></path><path clip-path="url(#clip730)" d="M117.015 731.637 L124.654 731.637 L124.654 705.271 L116.343 706.938 L116.343 702.678 L124.607 701.012 L129.283 701.012 L129.283 731.637 L136.922 731.637 L136.922 735.572 L117.015 735.572 L117.015 731.637 Z" fill="#000000" fill-rule="nonzero" fill-opacity="1"></path><path clip-path="url(#clip730)" d="M150.394 731.637 L166.714 731.637 L166.714 735.572 L144.769 735.572 L144.769 731.637 Q147.431 728.882 152.015 724.252 Q156.621 719.6 157.802 718.257 Q160.047 715.734 160.927 713.998 Q161.829 712.239 161.829 710.549 Q161.829 707.794 159.885 706.058 Q157.964 704.322 154.862 704.322 Q152.663 704.322 150.209 705.086 Q147.778 705.85 145.001 707.401 L145.001 702.678 Q147.825 701.544 150.278 700.965 Q152.732 700.387 154.769 700.387 Q160.14 700.387 163.334 703.072 Q166.528 705.757 166.528 710.248 Q166.528 712.377 165.718 714.299 Q164.931 716.197 162.825 718.789 Q162.246 719.461 159.144 722.678 Q156.042 725.873 150.394 731.637 Z" fill="#000000" fill-rule="nonzero" fill-opacity="1"></path><path clip-path="url(#clip730)" d="M114.931 537.646 L122.57 537.646 L122.57 511.28 L114.26 512.947 L114.26 508.688 L122.524 507.021 L127.2 507.021 L127.2 537.646 L134.839 537.646 L134.839 541.581 L114.931 541.581 L114.931 537.646 Z" fill="#000000" fill-rule="nonzero" fill-opacity="1"></path><path clip-path="url(#clip730)" d="M157.13 511.095 L145.325 529.544 L157.13 529.544 L157.13 511.095 M155.903 507.021 L161.783 507.021 L161.783 529.544 L166.714 529.544 L166.714 533.433 L161.783 533.433 L161.783 541.581 L157.13 541.581 L157.13 533.433 L141.529 533.433 L141.529 528.919 L155.903 507.021 Z" fill="#000000" fill-rule="nonzero" fill-opacity="1"></path><path clip-path="url(#clip730)" d="M115.256 343.655 L122.894 343.655 L122.894 317.29 L114.584 318.956 L114.584 314.697 L122.848 313.031 L127.524 313.031 L127.524 343.655 L135.163 343.655 L135.163 347.591 L115.256 347.591 L115.256 343.655 Z" fill="#000000" fill-rule="nonzero" fill-opacity="1"></path><path clip-path="url(#clip730)" d="M155.186 328.447 Q152.038 328.447 150.186 330.6 Q148.357 332.753 148.357 336.503 Q148.357 340.23 150.186 342.405 Q152.038 344.558 155.186 344.558 Q158.334 344.558 160.163 342.405 Q162.015 340.23 162.015 336.503 Q162.015 332.753 160.163 330.6 Q158.334 328.447 155.186 328.447 M164.468 313.794 L164.468 318.054 Q162.709 317.22 160.903 316.781 Q159.121 316.341 157.362 316.341 Q152.732 316.341 150.278 319.466 Q147.848 322.591 147.501 328.91 Q148.866 326.896 150.927 325.831 Q152.987 324.743 155.464 324.743 Q160.672 324.743 163.681 327.915 Q166.714 331.063 166.714 336.503 Q166.714 341.827 163.565 345.044 Q160.417 348.262 155.186 348.262 Q149.191 348.262 146.019 343.679 Q142.848 339.072 142.848 330.345 Q142.848 322.151 146.737 317.29 Q150.626 312.406 157.177 312.406 Q158.936 312.406 160.718 312.753 Q162.524 313.1 164.468 313.794 Z" fill="#000000" fill-rule="nonzero" fill-opacity="1"></path><path clip-path="url(#clip730)" d="M115.51 149.665 L123.149 149.665 L123.149 123.299 L114.839 124.966 L114.839 120.707 L123.103 119.04 L127.779 119.04 L127.779 149.665 L135.417 149.665 L135.417 153.6 L115.51 153.6 L115.51 149.665 Z" fill="#000000" fill-rule="nonzero" fill-opacity="1"></path><path clip-path="url(#clip730)" d="M154.862 137.188 Q151.528 137.188 149.607 138.97 Q147.709 140.753 147.709 143.878 Q147.709 147.003 149.607 148.785 Q151.528 150.568 154.862 150.568 Q158.195 150.568 160.116 148.785 Q162.038 146.98 162.038 143.878 Q162.038 140.753 160.116 138.97 Q158.218 137.188 154.862 137.188 M150.186 135.197 Q147.177 134.457 145.487 132.396 Q143.82 130.336 143.82 127.373 Q143.82 123.23 146.76 120.822 Q149.723 118.415 154.862 118.415 Q160.024 118.415 162.964 120.822 Q165.903 123.23 165.903 127.373 Q165.903 130.336 164.214 132.396 Q162.547 134.457 159.561 135.197 Q162.94 135.984 164.815 138.276 Q166.714 140.568 166.714 143.878 Q166.714 148.901 163.635 151.586 Q160.579 154.271 154.862 154.271 Q149.144 154.271 146.066 151.586 Q143.01 148.901 143.01 143.878 Q143.01 140.568 144.908 138.276 Q146.806 135.984 150.186 135.197 M148.473 127.813 Q148.473 130.498 150.14 132.003 Q151.829 133.508 154.862 133.508 Q157.871 133.508 159.561 132.003 Q161.274 130.498 161.274 127.813 Q161.274 125.128 159.561 123.623 Q157.871 122.119 154.862 122.119 Q151.829 122.119 150.14 123.623 Q148.473 125.128 148.473 127.813 Z" fill="#000000" fill-rule="nonzero" fill-opacity="1"></path><path clip-path="url(#clip730)" d="M20.1444 1093.9 L26.9239 1093.9 Q23.9002 1097.15 22.4043 1100.84 Q20.9083 1104.5 20.9083 1108.64 Q20.9083 1116.79 25.9054 1121.12 Q30.8707 1125.45 40.2919 1125.45 Q49.6813 1125.45 54.6784 1121.12 Q59.6436 1116.79 59.6436 1108.64 Q59.6436 1104.5 58.1477 1100.84 Q56.6518 1097.15 53.6281 1093.9 L60.3439 1093.9 Q62.6355 1097.28 63.7814 1101.06 Q64.9272 1104.82 64.9272 1109.02 Q64.9272 1119.81 58.3387 1126.02 Q51.7183 1132.22 40.2919 1132.22 Q28.8336 1132.22 22.2451 1126.02 Q15.6248 1119.81 15.6248 1109.02 Q15.6248 1104.76 16.7706 1101 Q17.8846 1097.21 20.1444 1093.9 Z" fill="#000000" fill-rule="nonzero" fill-opacity="1"></path><path clip-path="url(#clip730)" d="M49.9359 1084.83 L28.3562 1084.83 L28.3562 1078.98 L49.7131 1078.98 Q54.7739 1078.98 57.3202 1077 Q59.8346 1075.03 59.8346 1071.08 Q59.8346 1066.34 56.8109 1063.6 Q53.7872 1060.83 48.5673 1060.83 L28.3562 1060.83 L28.3562 1054.98 L64.0042 1054.98 L64.0042 1060.83 L58.5296 1060.83 Q61.7762 1062.97 63.3676 1065.8 Q64.9272 1068.6 64.9272 1072.32 Q64.9272 1078.47 61.1078 1081.65 Q57.2883 1084.83 49.9359 1084.83 M27.4968 1070.1 L27.4968 1070.1 Z" fill="#000000" fill-rule="nonzero" fill-opacity="1"></path><path clip-path="url(#clip730)" d="M33.8307 1022.26 Q33.2578 1023.24 33.0032 1024.42 Q32.7167 1025.57 32.7167 1026.97 Q32.7167 1031.93 35.9632 1034.61 Q39.1779 1037.25 45.2253 1037.25 L64.0042 1037.25 L64.0042 1043.14 L28.3562 1043.14 L28.3562 1037.25 L33.8944 1037.25 Q30.6479 1035.4 29.0883 1032.44 Q27.4968 1029.48 27.4968 1025.25 Q27.4968 1024.64 27.5923 1023.91 Q27.656 1023.18 27.8151 1022.29 L33.8307 1022.26 Z" fill="#000000" fill-rule="nonzero" fill-opacity="1"></path><path clip-path="url(#clip730)" d="M33.8307 996.603 Q33.2578 997.59 33.0032 998.767 Q32.7167 999.913 32.7167 1001.31 Q32.7167 1006.28 35.9632 1008.95 Q39.1779 1011.59 45.2253 1011.59 L64.0042 1011.59 L64.0042 1017.48 L28.3562 1017.48 L28.3562 1011.59 L33.8944 1011.59 Q30.6479 1009.75 29.0883 1006.79 Q27.4968 1003.83 27.4968 999.595 Q27.4968 998.99 27.5923 998.258 Q27.656 997.526 27.8151 996.635 L33.8307 996.603 Z" fill="#000000" fill-rule="nonzero" fill-opacity="1"></path><path clip-path="url(#clip730)" d="M44.7161 961.401 L47.5806 961.401 L47.5806 988.328 Q53.6281 987.946 56.8109 984.699 Q59.9619 981.421 59.9619 975.596 Q59.9619 972.222 59.1344 969.071 Q58.3069 965.889 56.6518 962.769 L62.1899 962.769 Q63.5267 965.92 64.227 969.231 Q64.9272 972.541 64.9272 975.946 Q64.9272 984.476 59.9619 989.474 Q54.9967 994.439 46.5303 994.439 Q37.7774 994.439 32.6531 989.728 Q27.4968 984.986 27.4968 976.965 Q27.4968 969.772 32.1438 965.602 Q36.7589 961.401 44.7161 961.401 M42.9973 967.257 Q38.1912 967.321 35.3266 969.963 Q32.4621 972.573 32.4621 976.901 Q32.4621 981.803 35.2312 984.763 Q38.0002 987.691 43.0292 988.137 L42.9973 967.257 Z" fill="#000000" fill-rule="nonzero" fill-opacity="1"></path><path clip-path="url(#clip730)" d="M42.4881 922.156 L64.0042 922.156 L64.0042 928.013 L42.679 928.013 Q37.6183 928.013 35.1038 929.986 Q32.5894 931.959 32.5894 935.906 Q32.5894 940.649 35.6131 943.386 Q38.6368 946.123 43.8567 946.123 L64.0042 946.123 L64.0042 952.011 L28.3562 952.011 L28.3562 946.123 L33.8944 946.123 Q30.6797 944.022 29.0883 941.19 Q27.4968 938.325 27.4968 934.601 Q27.4968 928.458 31.3163 925.307 Q35.1038 922.156 42.4881 922.156 Z" fill="#000000" fill-rule="nonzero" fill-opacity="1"></path><path clip-path="url(#clip730)" d="M18.2347 904.682 L28.3562 904.682 L28.3562 892.619 L32.9077 892.619 L32.9077 904.682 L52.2594 904.682 Q56.6199 904.682 57.8613 903.505 Q59.1026 902.295 59.1026 898.635 L59.1026 892.619 L64.0042 892.619 L64.0042 898.635 Q64.0042 905.414 61.4897 907.993 Q58.9434 910.571 52.2594 910.571 L32.9077 910.571 L32.9077 914.867 L28.3562 914.867 L28.3562 910.571 L18.2347 910.571 L18.2347 904.682 Z" fill="#000000" fill-rule="nonzero" fill-opacity="1"></path><path clip-path="url(#clip730)" d="M16.4842 863.942 L16.4842 854.361 L48.8219 842.235 L16.4842 830.044 L16.4842 820.464 L64.0042 820.464 L64.0042 826.734 L22.277 826.734 L54.8694 838.988 L54.8694 845.449 L22.277 857.703 L64.0042 857.703 L64.0042 863.942 L16.4842 863.942 Z" fill="#000000" fill-rule="nonzero" fill-opacity="1"></path><path clip-path="url(#clip730)" d="M46.0847 791.755 Q46.0847 798.852 47.7079 801.59 Q49.3312 804.327 53.2461 804.327 Q56.3653 804.327 58.2114 802.29 Q60.0256 800.221 60.0256 796.688 Q60.0256 791.818 56.5881 788.89 Q53.1188 785.93 47.3897 785.93 L46.0847 785.93 L46.0847 791.755 M43.6657 780.074 L64.0042 780.074 L64.0042 785.93 L58.5933 785.93 Q61.8398 787.935 63.3994 790.927 Q64.9272 793.919 64.9272 798.248 Q64.9272 803.722 61.8716 806.969 Q58.7843 810.183 53.6281 810.183 Q47.6125 810.183 44.5569 806.173 Q41.5014 802.131 41.5014 794.142 L41.5014 785.93 L40.9285 785.93 Q36.8862 785.93 34.6901 788.604 Q32.4621 791.245 32.4621 796.052 Q32.4621 799.107 33.1941 802.003 Q33.9262 804.9 35.3903 807.573 L29.9795 807.573 Q28.7381 804.359 28.1334 801.335 Q27.4968 798.311 27.4968 795.447 Q27.4968 787.712 31.5072 783.893 Q35.5176 780.074 43.6657 780.074 Z" fill="#000000" fill-rule="nonzero" fill-opacity="1"></path><path clip-path="url(#clip730)" d="M45.7664 744.553 Q39.4007 744.553 35.8996 747.195 Q32.3984 749.805 32.3984 754.547 Q32.3984 759.258 35.8996 761.9 Q39.4007 764.509 45.7664 764.509 Q52.1003 764.509 55.6014 761.9 Q59.1026 759.258 59.1026 754.547 Q59.1026 749.805 55.6014 747.195 Q52.1003 744.553 45.7664 744.553 M59.58 738.697 Q68.683 738.697 73.1071 742.739 Q77.5631 746.781 77.5631 755.12 Q77.5631 758.207 77.0857 760.945 Q76.6401 763.682 75.6852 766.26 L69.9879 766.26 Q71.3884 763.682 72.0568 761.167 Q72.7252 758.653 72.7252 756.043 Q72.7252 750.282 69.7015 747.418 Q66.7096 744.553 60.6303 744.553 L57.7339 744.553 Q60.885 746.367 62.4446 749.2 Q64.0042 752.033 64.0042 755.979 Q64.0042 762.536 59.0071 766.547 Q54.01 770.557 45.7664 770.557 Q37.491 770.557 32.4939 766.547 Q27.4968 762.536 27.4968 755.979 Q27.4968 752.033 29.0564 749.2 Q30.616 746.367 33.7671 744.553 L28.3562 744.553 L28.3562 738.697 L59.58 738.697 Z" fill="#000000" fill-rule="nonzero" fill-opacity="1"></path><path clip-path="url(#clip730)" d="M42.4881 697.001 L64.0042 697.001 L64.0042 702.858 L42.679 702.858 Q37.6183 702.858 35.1038 704.831 Q32.5894 706.804 32.5894 710.751 Q32.5894 715.494 35.6131 718.231 Q38.6368 720.968 43.8567 720.968 L64.0042 720.968 L64.0042 726.856 L28.3562 726.856 L28.3562 720.968 L33.8944 720.968 Q30.6797 718.867 29.0883 716.035 Q27.4968 713.17 27.4968 709.446 Q27.4968 703.303 31.3163 700.152 Q35.1038 697.001 42.4881 697.001 Z" fill="#000000" fill-rule="nonzero" fill-opacity="1"></path><path clip-path="url(#clip730)" d="M28.3562 685.32 L28.3562 679.464 L64.0042 679.464 L64.0042 685.32 L28.3562 685.32 M14.479 685.32 L14.479 679.464 L21.895 679.464 L21.895 685.32 L14.479 685.32 Z" fill="#000000" fill-rule="nonzero" fill-opacity="1"></path><path clip-path="url(#clip730)" d="M18.2347 661.417 L28.3562 661.417 L28.3562 649.354 L32.9077 649.354 L32.9077 661.417 L52.2594 661.417 Q56.6199 661.417 57.8613 660.239 Q59.1026 659.03 59.1026 655.369 L59.1026 649.354 L64.0042 649.354 L64.0042 655.369 Q64.0042 662.149 61.4897 664.727 Q58.9434 667.305 52.2594 667.305 L32.9077 667.305 L32.9077 671.602 L28.3562 671.602 L28.3562 667.305 L18.2347 667.305 L18.2347 661.417 Z" fill="#000000" fill-rule="nonzero" fill-opacity="1"></path><path clip-path="url(#clip730)" d="M49.9359 642.256 L28.3562 642.256 L28.3562 636.4 L49.7131 636.4 Q54.7739 636.4 57.3202 634.426 Q59.8346 632.453 59.8346 628.506 Q59.8346 623.764 56.8109 621.026 Q53.7872 618.257 48.5673 618.257 L28.3562 618.257 L28.3562 612.401 L64.0042 612.401 L64.0042 618.257 L58.5296 618.257 Q61.7762 620.39 63.3676 623.223 Q64.9272 626.024 64.9272 629.747 Q64.9272 635.89 61.1078 639.073 Q57.2883 642.256 49.9359 642.256 M27.4968 627.519 L27.4968 627.519 Z" fill="#000000" fill-rule="nonzero" fill-opacity="1"></path><path clip-path="url(#clip730)" d="M33.7671 576.88 L14.479 576.88 L14.479 571.024 L64.0042 571.024 L64.0042 576.88 L58.657 576.88 Q61.8398 578.726 63.3994 581.559 Q64.9272 584.36 64.9272 588.307 Q64.9272 594.768 59.771 598.842 Q54.6147 602.884 46.212 602.884 Q37.8093 602.884 32.6531 598.842 Q27.4968 594.768 27.4968 588.307 Q27.4968 584.36 29.0564 581.559 Q30.5842 578.726 33.7671 576.88 M46.212 596.837 Q52.6732 596.837 56.3653 594.195 Q60.0256 591.521 60.0256 586.874 Q60.0256 582.227 56.3653 579.554 Q52.6732 576.88 46.212 576.88 Q39.7508 576.88 36.0905 579.554 Q32.3984 582.227 32.3984 586.874 Q32.3984 591.521 36.0905 594.195 Q39.7508 596.837 46.212 596.837 Z" fill="#000000" fill-rule="nonzero" fill-opacity="1"></path><path clip-path="url(#clip730)" d="M44.7161 528.469 L47.5806 528.469 L47.5806 555.396 Q53.6281 555.014 56.8109 551.768 Q59.9619 548.489 59.9619 542.665 Q59.9619 539.291 59.1344 536.14 Q58.3069 532.957 56.6518 529.838 L62.1899 529.838 Q63.5267 532.989 64.227 536.299 Q64.9272 539.609 64.9272 543.015 Q64.9272 551.545 59.9619 556.542 Q54.9967 561.507 46.5303 561.507 Q37.7774 561.507 32.6531 556.796 Q27.4968 552.054 27.4968 544.033 Q27.4968 536.84 32.1438 532.67 Q36.7589 528.469 44.7161 528.469 M42.9973 534.326 Q38.1912 534.389 35.3266 537.031 Q32.4621 539.641 32.4621 543.97 Q32.4621 548.871 35.2312 551.831 Q38.0002 554.759 43.0292 555.205 L42.9973 534.326 Z" fill="#000000" fill-rule="nonzero" fill-opacity="1"></path><path clip-path="url(#clip730)" d="M14.5426 484.068 Q21.8632 488.333 29.0246 490.402 Q36.186 492.471 43.5384 492.471 Q50.8908 492.471 58.1159 490.402 Q65.3091 488.301 72.5979 484.068 L72.5979 489.161 Q65.1182 493.935 57.8931 496.322 Q50.668 498.678 43.5384 498.678 Q36.4406 498.678 29.2474 496.322 Q22.0542 493.967 14.5426 489.161 L14.5426 484.068 Z" fill="#000000" fill-rule="nonzero" fill-opacity="1"></path><path clip-path="url(#clip730)" d="M22.818 456.568 L46.4666 465.289 L46.4666 447.816 L22.818 456.568 M16.4842 460.197 L16.4842 452.908 L64.0042 434.798 L64.0042 441.482 L51.8138 445.81 L51.8138 467.231 L64.0042 471.56 L64.0042 478.339 L16.4842 460.197 Z" fill="#000000" fill-rule="nonzero" fill-opacity="1"></path><path clip-path="url(#clip730)" d="M14.5426 429.037 L14.5426 423.944 Q22.0542 419.17 29.2474 416.815 Q36.4406 414.427 43.5384 414.427 Q50.668 414.427 57.8931 416.815 Q65.1182 419.17 72.5979 423.944 L72.5979 429.037 Q65.3091 424.804 58.1159 422.735 Q50.8908 420.634 43.5384 420.634 Q36.186 420.634 29.0246 422.735 Q21.8632 424.804 14.5426 429.037 Z" fill="#000000" fill-rule="nonzero" fill-opacity="1"></path><path clip-path="url(#clip730)" d="M119.622 12.096 L127.805 12.096 L127.805 65.6895 L157.255 65.6895 L157.255 72.576 L119.622 72.576 L119.622 12.096 Z" fill="#000000" fill-rule="nonzero" fill-opacity="1"></path><path clip-path="url(#clip730)" d="M165.518 27.2059 L172.972 27.2059 L172.972 72.576 L165.518 72.576 L165.518 27.2059 M165.518 9.54393 L172.972 9.54393 L172.972 18.9825 L165.518 18.9825 L165.518 9.54393 Z" fill="#000000" fill-rule="nonzero" fill-opacity="1"></path><path clip-path="url(#clip730)" d="M226.282 45.1919 L226.282 72.576 L218.828 72.576 L218.828 45.4349 Q218.828 38.994 216.317 35.7938 Q213.805 32.5936 208.782 32.5936 Q202.746 32.5936 199.263 36.4419 Q195.779 40.2903 195.779 46.9338 L195.779 72.576 L188.285 72.576 L188.285 27.2059 L195.779 27.2059 L195.779 34.2544 Q198.452 30.163 202.058 28.1376 Q205.703 26.1121 210.443 26.1121 Q218.261 26.1121 222.272 30.9732 Q226.282 35.7938 226.282 45.1919 Z" fill="#000000" fill-rule="nonzero" fill-opacity="1"></path><path clip-path="url(#clip730)" d="M279.957 48.0275 L279.957 51.6733 L245.686 51.6733 Q246.172 59.3701 250.304 63.421 Q254.476 67.4314 261.889 67.4314 Q266.183 67.4314 270.194 66.3781 Q274.245 65.3249 278.215 63.2184 L278.215 70.267 Q274.204 71.9684 269.991 72.8596 Q265.778 73.7508 261.444 73.7508 Q250.587 73.7508 244.228 67.4314 Q237.908 61.1119 237.908 50.3365 Q237.908 39.1965 243.903 32.6746 Q249.939 26.1121 260.148 26.1121 Q269.303 26.1121 274.609 32.0264 Q279.957 37.9003 279.957 48.0275 M272.503 45.84 Q272.422 39.7232 269.06 36.0774 Q265.738 32.4315 260.229 32.4315 Q253.99 32.4315 250.223 35.9558 Q246.496 39.4801 245.929 45.8805 L272.503 45.84 Z" fill="#000000" fill-rule="nonzero" fill-opacity="1"></path><path clip-path="url(#clip730)" d="M318.886 12.096 L327.069 12.096 L327.069 65.6895 L356.519 65.6895 L356.519 72.576 L318.886 72.576 L318.886 12.096 Z" fill="#000000" fill-rule="nonzero" fill-opacity="1"></path><path clip-path="url(#clip730)" d="M372.884 65.6895 L401.443 65.6895 L401.443 72.576 L363.041 72.576 L363.041 65.6895 Q367.699 60.8689 375.72 52.7671 Q383.781 44.6248 385.847 42.2752 Q389.777 37.8598 391.316 34.8216 Q392.896 31.7429 392.896 28.7857 Q392.896 23.9651 389.493 20.927 Q386.131 17.8888 380.703 17.8888 Q376.854 17.8888 372.56 19.2256 Q368.307 20.5624 363.446 23.2765 L363.446 15.0127 Q368.388 13.0277 372.682 12.015 Q376.976 11.0023 380.54 11.0023 Q389.939 11.0023 395.529 15.7013 Q401.119 20.4004 401.119 28.2591 Q401.119 31.9859 399.701 35.3482 Q398.324 38.6699 394.638 43.2069 Q393.625 44.3817 388.197 50.0125 Q382.768 55.6027 372.884 65.6895 Z" fill="#000000" fill-rule="nonzero" fill-opacity="1"></path><path clip-path="url(#clip730)" d="M443.411 39.9662 Q449.284 41.222 452.566 45.1919 Q455.887 49.1618 455.887 54.9951 Q455.887 63.9476 449.73 68.8492 Q443.573 73.7508 432.23 73.7508 Q428.422 73.7508 424.371 72.9811 Q420.361 72.2519 416.067 70.7531 L416.067 62.8538 Q419.47 64.8388 423.521 65.8515 Q427.571 66.8642 431.987 66.8642 Q439.684 66.8642 443.694 63.826 Q447.745 60.7879 447.745 54.9951 Q447.745 49.6479 443.978 46.6502 Q440.251 43.612 433.567 43.612 L426.518 43.612 L426.518 36.8875 L433.891 36.8875 Q439.927 36.8875 443.127 34.4975 Q446.327 32.067 446.327 27.5299 Q446.327 22.8714 443.005 20.4004 Q439.724 17.8888 433.567 17.8888 Q430.205 17.8888 426.356 18.618 Q422.508 19.3471 417.89 20.8865 L417.89 13.5948 Q422.548 12.2985 426.599 11.6504 Q430.691 11.0023 434.296 11.0023 Q443.613 11.0023 449.041 15.2557 Q454.469 19.4686 454.469 26.6793 Q454.469 31.7024 451.593 35.1862 Q448.717 38.6294 443.411 39.9662 Z" fill="#000000" fill-rule="nonzero" fill-opacity="1"></path><path clip-path="url(#clip730)" d="M542.334 16.7545 L542.334 25.383 Q538.202 21.5346 533.503 19.6307 Q528.844 17.7268 523.578 17.7268 Q513.208 17.7268 507.698 24.0867 Q502.189 30.4061 502.189 42.3968 Q502.189 54.3469 507.698 60.7069 Q513.208 67.0263 523.578 67.0263 Q528.844 67.0263 533.503 65.1223 Q538.202 63.2184 542.334 59.3701 L542.334 67.9175 Q538.04 70.8341 533.219 72.2924 Q528.439 73.7508 523.092 73.7508 Q509.359 73.7508 501.46 65.3654 Q493.561 56.9395 493.561 42.3968 Q493.561 27.8135 501.46 19.4281 Q509.359 11.0023 523.092 11.0023 Q528.52 11.0023 533.3 12.4606 Q538.121 13.8784 542.334 16.7545 Z" fill="#000000" fill-rule="nonzero" fill-opacity="1"></path><path clip-path="url(#clip730)" d="M553.879 54.671 L553.879 27.2059 L561.332 27.2059 L561.332 54.3874 Q561.332 60.8284 563.844 64.0691 Q566.355 67.2693 571.379 67.2693 Q577.414 67.2693 580.898 63.421 Q584.422 59.5726 584.422 52.9291 L584.422 27.2059 L591.876 27.2059 L591.876 72.576 L584.422 72.576 L584.422 65.6084 Q581.708 69.7404 578.103 71.7658 Q574.538 73.7508 569.799 73.7508 Q561.98 73.7508 557.93 68.8897 Q553.879 64.0286 553.879 54.671 M572.634 26.1121 L572.634 26.1121 Z" fill="#000000" fill-rule="nonzero" fill-opacity="1"></path><path clip-path="url(#clip730)" d="M633.519 34.1734 Q632.264 33.4443 630.765 33.1202 Q629.307 32.7556 627.524 32.7556 Q621.205 32.7556 617.802 36.8875 Q614.44 40.9789 614.44 48.6757 L614.44 72.576 L606.946 72.576 L606.946 27.2059 L614.44 27.2059 L614.44 34.2544 Q616.789 30.1225 620.557 28.1376 Q624.324 26.1121 629.712 26.1121 Q630.481 26.1121 631.413 26.2337 Q632.345 26.3147 633.479 26.5172 L633.519 34.1734 Z" fill="#000000" fill-rule="nonzero" fill-opacity="1"></path><path clip-path="url(#clip730)" d="M666.17 34.1734 Q664.914 33.4443 663.415 33.1202 Q661.957 32.7556 660.174 32.7556 Q653.855 32.7556 650.452 36.8875 Q647.09 40.9789 647.09 48.6757 L647.09 72.576 L639.596 72.576 L639.596 27.2059 L647.09 27.2059 L647.09 34.2544 Q649.439 30.1225 653.207 28.1376 Q656.974 26.1121 662.362 26.1121 Q663.132 26.1121 664.063 26.2337 Q664.995 26.3147 666.129 26.5172 L666.17 34.1734 Z" fill="#000000" fill-rule="nonzero" fill-opacity="1"></path><path clip-path="url(#clip730)" d="M710.973 48.0275 L710.973 51.6733 L676.702 51.6733 Q677.188 59.3701 681.32 63.421 Q685.493 67.4314 692.906 67.4314 Q697.2 67.4314 701.21 66.3781 Q705.261 65.3249 709.231 63.2184 L709.231 70.267 Q705.22 71.9684 701.008 72.8596 Q696.795 73.7508 692.46 73.7508 Q681.604 73.7508 675.244 67.4314 Q668.924 61.1119 668.924 50.3365 Q668.924 39.1965 674.92 32.6746 Q680.956 26.1121 691.164 26.1121 Q700.319 26.1121 705.626 32.0264 Q710.973 37.9003 710.973 48.0275 M703.519 45.84 Q703.438 39.7232 700.076 36.0774 Q696.754 32.4315 691.245 32.4315 Q685.006 32.4315 681.239 35.9558 Q677.512 39.4801 676.945 45.8805 L703.519 45.84 Z" fill="#000000" fill-rule="nonzero" fill-opacity="1"></path><path clip-path="url(#clip730)" d="M760.92 45.1919 L760.92 72.576 L753.467 72.576 L753.467 45.4349 Q753.467 38.994 750.955 35.7938 Q748.444 32.5936 743.42 32.5936 Q737.385 32.5936 733.901 36.4419 Q730.417 40.2903 730.417 46.9338 L730.417 72.576 L722.923 72.576 L722.923 27.2059 L730.417 27.2059 L730.417 34.2544 Q733.091 30.163 736.696 28.1376 Q740.342 26.1121 745.081 26.1121 Q752.9 26.1121 756.91 30.9732 Q760.92 35.7938 760.92 45.1919 Z" fill="#000000" fill-rule="nonzero" fill-opacity="1"></path><path clip-path="url(#clip730)" d="M783.16 14.324 L783.16 27.2059 L798.513 27.2059 L798.513 32.9987 L783.16 32.9987 L783.16 57.6282 Q783.16 63.1779 784.659 64.7578 Q786.198 66.3376 790.857 66.3376 L798.513 66.3376 L798.513 72.576 L790.857 72.576 Q782.228 72.576 778.947 69.3758 Q775.666 66.1351 775.666 57.6282 L775.666 32.9987 L770.197 32.9987 L770.197 27.2059 L775.666 27.2059 L775.666 14.324 L783.16 14.324 Z" fill="#000000" fill-rule="nonzero" fill-opacity="1"></path><path clip-path="url(#clip730)" d="M843.194 18.8205 L843.194 41.5461 L853.484 41.5461 Q859.195 41.5461 862.315 38.5889 Q865.434 35.6318 865.434 30.163 Q865.434 24.7348 862.315 21.7777 Q859.195 18.8205 853.484 18.8205 L843.194 18.8205 M835.011 12.096 L853.484 12.096 Q863.651 12.096 868.836 16.714 Q874.062 21.2916 874.062 30.163 Q874.062 39.1155 868.836 43.6931 Q863.651 48.2706 853.484 48.2706 L843.194 48.2706 L843.194 72.576 L835.011 72.576 L835.011 12.096 Z" fill="#000000" fill-rule="nonzero" fill-opacity="1"></path><path clip-path="url(#clip730)" d="M909.548 34.1734 Q908.292 33.4443 906.793 33.1202 Q905.335 32.7556 903.553 32.7556 Q897.233 32.7556 893.831 36.8875 Q890.468 40.9789 890.468 48.6757 L890.468 72.576 L882.974 72.576 L882.974 27.2059 L890.468 27.2059 L890.468 34.2544 Q892.818 30.1225 896.585 28.1376 Q900.353 26.1121 905.74 26.1121 Q906.51 26.1121 907.442 26.2337 Q908.373 26.3147 909.508 26.5172 L909.548 34.1734 Z" fill="#000000" fill-rule="nonzero" fill-opacity="1"></path><path clip-path="url(#clip730)" d="M933.124 32.4315 Q927.129 32.4315 923.645 37.1306 Q920.161 41.7891 920.161 49.9314 Q920.161 58.0738 923.605 62.7728 Q927.088 67.4314 933.124 67.4314 Q939.079 67.4314 942.563 62.7323 Q946.047 58.0333 946.047 49.9314 Q946.047 41.8701 942.563 37.1711 Q939.079 32.4315 933.124 32.4315 M933.124 26.1121 Q942.846 26.1121 948.396 32.4315 Q953.946 38.7509 953.946 49.9314 Q953.946 61.0714 948.396 67.4314 Q942.846 73.7508 933.124 73.7508 Q923.362 73.7508 917.812 67.4314 Q912.303 61.0714 912.303 49.9314 Q912.303 38.7509 917.812 32.4315 Q923.362 26.1121 933.124 26.1121 Z" fill="#000000" fill-rule="nonzero" fill-opacity="1"></path><path clip-path="url(#clip730)" d="M989.27 9.54393 L989.27 15.7418 L982.14 15.7418 Q978.13 15.7418 976.55 17.3622 Q975.011 18.9825 975.011 23.1955 L975.011 27.2059 L987.285 27.2059 L987.285 32.9987 L975.011 32.9987 L975.011 72.576 L967.516 72.576 L967.516 32.9987 L960.387 32.9987 L960.387 27.2059 L967.516 27.2059 L967.516 24.0462 Q967.516 16.471 971.041 13.0277 Q974.565 9.54393 982.221 9.54393 L989.27 9.54393 Z" fill="#000000" fill-rule="nonzero" fill-opacity="1"></path><path clip-path="url(#clip730)" d="M995.508 27.2059 L1002.96 27.2059 L1002.96 72.576 L995.508 72.576 L995.508 27.2059 M995.508 9.54393 L1002.96 9.54393 L1002.96 18.9825 L995.508 18.9825 L995.508 9.54393 Z" fill="#000000" fill-rule="nonzero" fill-opacity="1"></path><path clip-path="url(#clip730)" d="M1018.56 9.54393 L1026.01 9.54393 L1026.01 72.576 L1018.56 72.576 L1018.56 9.54393 Z" fill="#000000" fill-rule="nonzero" fill-opacity="1"></path><path clip-path="url(#clip730)" d="M1080.42 48.0275 L1080.42 51.6733 L1046.14 51.6733 Q1046.63 59.3701 1050.76 63.421 Q1054.94 67.4314 1062.35 67.4314 Q1066.64 67.4314 1070.65 66.3781 Q1074.7 65.3249 1078.67 63.2184 L1078.67 70.267 Q1074.66 71.9684 1070.45 72.8596 Q1066.24 73.7508 1061.9 73.7508 Q1051.05 73.7508 1044.69 67.4314 Q1038.37 61.1119 1038.37 50.3365 Q1038.37 39.1965 1044.36 32.6746 Q1050.4 26.1121 1060.61 26.1121 Q1069.76 26.1121 1075.07 32.0264 Q1080.42 37.9003 1080.42 48.0275 M1072.96 45.84 Q1072.88 39.7232 1069.52 36.0774 Q1066.2 32.4315 1060.69 32.4315 Q1054.45 32.4315 1050.68 35.9558 Q1046.95 39.4801 1046.39 45.8805 L1072.96 45.84 Z" fill="#000000" fill-rule="nonzero" fill-opacity="1"></path><path clip-path="url(#clip730)" d="M1136.93 9.62495 Q1131.5 18.942 1128.86 28.0566 Q1126.23 37.1711 1126.23 46.5287 Q1126.23 55.8863 1128.86 65.0818 Q1131.54 74.2369 1136.93 83.5134 L1130.44 83.5134 Q1124.37 73.9938 1121.33 64.7983 Q1118.33 55.6027 1118.33 46.5287 Q1118.33 37.4952 1121.33 28.3401 Q1124.33 19.1851 1130.44 9.62495 L1136.93 9.62495 Z" fill="#000000" fill-rule="nonzero" fill-opacity="1"></path><path clip-path="url(#clip730)" d="M1159.89 43.6931 L1159.89 65.8515 L1173.02 65.8515 Q1179.62 65.8515 1182.78 63.1374 Q1185.98 60.3828 1185.98 54.752 Q1185.98 49.0808 1182.78 46.4072 Q1179.62 43.6931 1173.02 43.6931 L1159.89 43.6931 M1159.89 18.8205 L1159.89 37.0496 L1172.01 37.0496 Q1178 37.0496 1180.92 34.8216 Q1183.88 32.5531 1183.88 27.935 Q1183.88 23.3575 1180.92 21.089 Q1178 18.8205 1172.01 18.8205 L1159.89 18.8205 M1151.71 12.096 L1172.61 12.096 Q1181.97 12.096 1187.03 15.9849 Q1192.1 19.8737 1192.1 27.0438 Q1192.1 32.5936 1189.51 35.8748 Q1186.91 39.156 1181.89 39.9662 Q1187.93 41.2625 1191.25 45.3944 Q1194.61 49.4858 1194.61 55.6432 Q1194.61 63.745 1189.1 68.1605 Q1183.59 72.576 1173.42 72.576 L1151.71 72.576 L1151.71 12.096 Z" fill="#000000" fill-rule="nonzero" fill-opacity="1"></path><path clip-path="url(#clip730)" d="M1247.11 48.0275 L1247.11 51.6733 L1212.84 51.6733 Q1213.33 59.3701 1217.46 63.421 Q1221.63 67.4314 1229.04 67.4314 Q1233.34 67.4314 1237.35 66.3781 Q1241.4 65.3249 1245.37 63.2184 L1245.37 70.267 Q1241.36 71.9684 1237.14 72.8596 Q1232.93 73.7508 1228.6 73.7508 Q1217.74 73.7508 1211.38 67.4314 Q1205.06 61.1119 1205.06 50.3365 Q1205.06 39.1965 1211.06 32.6746 Q1217.09 26.1121 1227.3 26.1121 Q1236.46 26.1121 1241.76 32.0264 Q1247.11 37.9003 1247.11 48.0275 M1239.66 45.84 Q1239.58 39.7232 1236.21 36.0774 Q1232.89 32.4315 1227.38 32.4315 Q1221.14 32.4315 1217.38 35.9558 Q1213.65 39.4801 1213.08 45.8805 L1239.66 45.84 Z" fill="#000000" fill-rule="nonzero" fill-opacity="1"></path><path clip-path="url(#clip730)" d="M1282.31 9.54393 L1282.31 15.7418 L1275.18 15.7418 Q1271.17 15.7418 1269.59 17.3622 Q1268.05 18.9825 1268.05 23.1955 L1268.05 27.2059 L1280.33 27.2059 L1280.33 32.9987 L1268.05 32.9987 L1268.05 72.576 L1260.56 72.576 L1260.56 32.9987 L1253.43 32.9987 L1253.43 27.2059 L1260.56 27.2059 L1260.56 24.0462 Q1260.56 16.471 1264.08 13.0277 Q1267.61 9.54393 1275.26 9.54393 L1282.31 9.54393 Z" fill="#000000" fill-rule="nonzero" fill-opacity="1"></path><path clip-path="url(#clip730)" d="M1306.13 32.4315 Q1300.14 32.4315 1296.65 37.1306 Q1293.17 41.7891 1293.17 49.9314 Q1293.17 58.0738 1296.61 62.7728 Q1300.1 67.4314 1306.13 67.4314 Q1312.09 67.4314 1315.57 62.7323 Q1319.05 58.0333 1319.05 49.9314 Q1319.05 41.8701 1315.57 37.1711 Q1312.09 32.4315 1306.13 32.4315 M1306.13 26.1121 Q1315.85 26.1121 1321.4 32.4315 Q1326.95 38.7509 1326.95 49.9314 Q1326.95 61.0714 1321.4 67.4314 Q1315.85 73.7508 1306.13 73.7508 Q1296.37 73.7508 1290.82 67.4314 Q1285.31 61.0714 1285.31 49.9314 Q1285.31 38.7509 1290.82 32.4315 Q1296.37 26.1121 1306.13 26.1121 Z" fill="#000000" fill-rule="nonzero" fill-opacity="1"></path><path clip-path="url(#clip730)" d="M1365.6 34.1734 Q1364.34 33.4443 1362.84 33.1202 Q1361.39 32.7556 1359.6 32.7556 Q1353.28 32.7556 1349.88 36.8875 Q1346.52 40.9789 1346.52 48.6757 L1346.52 72.576 L1339.02 72.576 L1339.02 27.2059 L1346.52 27.2059 L1346.52 34.2544 Q1348.87 30.1225 1352.64 28.1376 Q1356.4 26.1121 1361.79 26.1121 Q1362.56 26.1121 1363.49 26.2337 Q1364.42 26.3147 1365.56 26.5172 L1365.6 34.1734 Z" fill="#000000" fill-rule="nonzero" fill-opacity="1"></path><path clip-path="url(#clip730)" d="M1410.4 48.0275 L1410.4 51.6733 L1376.13 51.6733 Q1376.62 59.3701 1380.75 63.421 Q1384.92 67.4314 1392.33 67.4314 Q1396.63 67.4314 1400.64 66.3781 Q1404.69 65.3249 1408.66 63.2184 L1408.66 70.267 Q1404.65 71.9684 1400.44 72.8596 Q1396.22 73.7508 1391.89 73.7508 Q1381.03 73.7508 1374.67 67.4314 Q1368.35 61.1119 1368.35 50.3365 Q1368.35 39.1965 1374.35 32.6746 Q1380.38 26.1121 1390.59 26.1121 Q1399.75 26.1121 1405.05 32.0264 Q1410.4 37.9003 1410.4 48.0275 M1402.95 45.84 Q1402.87 39.7232 1399.5 36.0774 Q1396.18 32.4315 1390.67 32.4315 Q1384.44 32.4315 1380.67 35.9558 Q1376.94 39.4801 1376.37 45.8805 L1402.95 45.84 Z" fill="#000000" fill-rule="nonzero" fill-opacity="1"></path><path clip-path="url(#clip730)" d="M1443.66 27.2059 L1451.56 27.2059 L1465.74 65.2844 L1479.92 27.2059 L1487.81 27.2059 L1470.8 72.576 L1460.67 72.576 L1443.66 27.2059 Z" fill="#000000" fill-rule="nonzero" fill-opacity="1"></path><path clip-path="url(#clip730)" d="M1527.03 28.5427 L1527.03 35.5912 Q1523.87 33.9709 1520.46 33.1607 Q1517.06 32.3505 1513.42 32.3505 Q1507.87 32.3505 1505.07 34.0519 Q1502.32 35.7533 1502.32 39.156 Q1502.32 41.7486 1504.3 43.2475 Q1506.29 44.7058 1512.28 46.0426 L1514.83 46.6097 Q1522.77 48.3111 1526.1 51.4303 Q1529.46 54.509 1529.46 60.0587 Q1529.46 66.3781 1524.43 70.0644 Q1519.45 73.7508 1510.7 73.7508 Q1507.06 73.7508 1503.09 73.0216 Q1499.16 72.3329 1494.78 70.9151 L1494.78 63.2184 Q1498.91 65.3654 1502.92 66.4591 Q1506.93 67.5124 1510.86 67.5124 Q1516.13 67.5124 1518.97 65.73 Q1521.8 63.9071 1521.8 60.6258 Q1521.8 57.5877 1519.74 55.9673 Q1517.71 54.3469 1510.78 52.8481 L1508.19 52.2405 Q1501.26 50.7821 1498.18 47.7845 Q1495.11 44.7463 1495.11 39.4801 Q1495.11 33.0797 1499.64 29.5959 Q1504.18 26.1121 1512.53 26.1121 Q1516.66 26.1121 1520.3 26.7198 Q1523.95 27.3274 1527.03 28.5427 Z" fill="#000000" fill-rule="nonzero" fill-opacity="1"></path><path clip-path="url(#clip730)" d="M1542.38 62.2867 L1550.93 62.2867 L1550.93 72.576 L1542.38 72.576 L1542.38 62.2867 Z" fill="#000000" fill-rule="nonzero" fill-opacity="1"></path><path clip-path="url(#clip730)" d="M1614.61 20.1573 L1603.51 50.2555 L1625.75 50.2555 L1614.61 20.1573 M1609.99 12.096 L1619.27 12.096 L1642.32 72.576 L1633.81 72.576 L1628.3 57.061 L1601.04 57.061 L1595.53 72.576 L1586.9 72.576 L1609.99 12.096 Z" fill="#000000" fill-rule="nonzero" fill-opacity="1"></path><path clip-path="url(#clip730)" d="M1670.83 9.54393 L1670.83 15.7418 L1663.7 15.7418 Q1659.69 15.7418 1658.11 17.3622 Q1656.58 18.9825 1656.58 23.1955 L1656.58 27.2059 L1668.85 27.2059 L1668.85 32.9987 L1656.58 32.9987 L1656.58 72.576 L1649.08 72.576 L1649.08 32.9987 L1641.95 32.9987 L1641.95 27.2059 L1649.08 27.2059 L1649.08 24.0462 Q1649.08 16.471 1652.61 13.0277 Q1656.13 9.54393 1663.79 9.54393 L1670.83 9.54393 Z" fill="#000000" fill-rule="nonzero" fill-opacity="1"></path><path clip-path="url(#clip730)" d="M1682.99 14.324 L1682.99 27.2059 L1698.34 27.2059 L1698.34 32.9987 L1682.99 32.9987 L1682.99 57.6282 Q1682.99 63.1779 1684.49 64.7578 Q1686.03 66.3376 1690.68 66.3376 L1698.34 66.3376 L1698.34 72.576 L1690.68 72.576 Q1682.06 72.576 1678.77 69.3758 Q1675.49 66.1351 1675.49 57.6282 L1675.49 32.9987 L1670.02 32.9987 L1670.02 27.2059 L1675.49 27.2059 L1675.49 14.324 L1682.99 14.324 Z" fill="#000000" fill-rule="nonzero" fill-opacity="1"></path><path clip-path="url(#clip730)" d="M1746.95 48.0275 L1746.95 51.6733 L1712.68 51.6733 Q1713.17 59.3701 1717.3 63.421 Q1721.47 67.4314 1728.88 67.4314 Q1733.18 67.4314 1737.19 66.3781 Q1741.24 65.3249 1745.21 63.2184 L1745.21 70.267 Q1741.2 71.9684 1736.99 72.8596 Q1732.77 73.7508 1728.44 73.7508 Q1717.58 73.7508 1711.22 67.4314 Q1704.9 61.1119 1704.9 50.3365 Q1704.9 39.1965 1710.9 32.6746 Q1716.93 26.1121 1727.14 26.1121 Q1736.3 26.1121 1741.6 32.0264 Q1746.95 37.9003 1746.95 48.0275 M1739.5 45.84 Q1739.42 39.7232 1736.05 36.0774 Q1732.73 32.4315 1727.22 32.4315 Q1720.98 32.4315 1717.22 35.9558 Q1713.49 39.4801 1712.92 45.8805 L1739.5 45.84 Z" fill="#000000" fill-rule="nonzero" fill-opacity="1"></path><path clip-path="url(#clip730)" d="M1785.48 34.1734 Q1784.22 33.4443 1782.72 33.1202 Q1781.26 32.7556 1779.48 32.7556 Q1773.16 32.7556 1769.76 36.8875 Q1766.4 40.9789 1766.4 48.6757 L1766.4 72.576 L1758.9 72.576 L1758.9 27.2059 L1766.4 27.2059 L1766.4 34.2544 Q1768.74 30.1225 1772.51 28.1376 Q1776.28 26.1121 1781.67 26.1121 Q1782.44 26.1121 1783.37 26.2337 Q1784.3 26.3147 1785.43 26.5172 L1785.48 34.1734 Z" fill="#000000" fill-rule="nonzero" fill-opacity="1"></path><path clip-path="url(#clip730)" d="M1865.28 16.7545 L1865.28 25.383 Q1861.15 21.5346 1856.45 19.6307 Q1851.79 17.7268 1846.52 17.7268 Q1836.15 17.7268 1830.64 24.0867 Q1825.13 30.4061 1825.13 42.3968 Q1825.13 54.3469 1830.64 60.7069 Q1836.15 67.0263 1846.52 67.0263 Q1851.79 67.0263 1856.45 65.1223 Q1861.15 63.2184 1865.28 59.3701 L1865.28 67.9175 Q1860.98 70.8341 1856.16 72.2924 Q1851.38 73.7508 1846.04 73.7508 Q1832.3 73.7508 1824.4 65.3654 Q1816.51 56.9395 1816.51 42.3968 Q1816.51 27.8135 1824.4 19.4281 Q1832.3 11.0023 1846.04 11.0023 Q1851.46 11.0023 1856.24 12.4606 Q1861.06 13.8784 1865.28 16.7545 Z" fill="#000000" fill-rule="nonzero" fill-opacity="1"></path><path clip-path="url(#clip730)" d="M1895.17 32.4315 Q1889.18 32.4315 1885.69 37.1306 Q1882.21 41.7891 1882.21 49.9314 Q1882.21 58.0738 1885.65 62.7728 Q1889.14 67.4314 1895.17 67.4314 Q1901.13 67.4314 1904.61 62.7323 Q1908.1 58.0333 1908.1 49.9314 Q1908.1 41.8701 1904.61 37.1711 Q1901.13 32.4315 1895.17 32.4315 M1895.17 26.1121 Q1904.9 26.1121 1910.45 32.4315 Q1916 38.7509 1916 49.9314 Q1916 61.0714 1910.45 67.4314 Q1904.9 73.7508 1895.17 73.7508 Q1885.41 73.7508 1879.86 67.4314 Q1874.35 61.0714 1874.35 49.9314 Q1874.35 38.7509 1879.86 32.4315 Q1885.41 26.1121 1895.17 26.1121 Z" fill="#000000" fill-rule="nonzero" fill-opacity="1"></path><path clip-path="url(#clip730)" d="M1963.67 35.9153 Q1966.47 30.8922 1970.36 28.5022 Q1974.25 26.1121 1979.51 26.1121 Q1986.6 26.1121 1990.45 31.0947 Q1994.3 36.0368 1994.3 45.1919 L1994.3 72.576 L1986.81 72.576 L1986.81 45.4349 Q1986.81 38.913 1984.5 35.7533 Q1982.19 32.5936 1977.45 32.5936 Q1971.65 32.5936 1968.29 36.4419 Q1964.93 40.2903 1964.93 46.9338 L1964.93 72.576 L1957.44 72.576 L1957.44 45.4349 Q1957.44 38.8725 1955.13 35.7533 Q1952.82 32.5936 1948 32.5936 Q1942.29 32.5936 1938.92 36.4824 Q1935.56 40.3308 1935.56 46.9338 L1935.56 72.576 L1928.07 72.576 L1928.07 27.2059 L1935.56 27.2059 L1935.56 34.2544 Q1938.11 30.082 1941.68 28.0971 Q1945.24 26.1121 1950.14 26.1121 Q1955.09 26.1121 1958.53 28.6237 Q1962.01 31.1352 1963.67 35.9153 Z" fill="#000000" fill-rule="nonzero" fill-opacity="1"></path><path clip-path="url(#clip730)" d="M2016.38 65.7705 L2016.38 89.8329 L2008.88 89.8329 L2008.88 27.2059 L2016.38 27.2059 L2016.38 34.0924 Q2018.73 30.0415 2022.29 28.0971 Q2025.9 26.1121 2030.88 26.1121 Q2039.14 26.1121 2044.29 32.6746 Q2049.47 39.2371 2049.47 49.9314 Q2049.47 60.6258 2044.29 67.1883 Q2039.14 73.7508 2030.88 73.7508 Q2025.9 73.7508 2022.29 71.8063 Q2018.73 69.8214 2016.38 65.7705 M2041.74 49.9314 Q2041.74 41.7081 2038.33 37.0496 Q2034.97 32.3505 2029.06 32.3505 Q2023.14 32.3505 2019.74 37.0496 Q2016.38 41.7081 2016.38 49.9314 Q2016.38 58.1548 2019.74 62.8538 Q2023.14 67.5124 2029.06 67.5124 Q2034.97 67.5124 2038.33 62.8538 Q2041.74 58.1548 2041.74 49.9314 Z" fill="#000000" fill-rule="nonzero" fill-opacity="1"></path><path clip-path="url(#clip730)" d="M2100.64 48.0275 L2100.64 51.6733 L2066.36 51.6733 Q2066.85 59.3701 2070.98 63.421 Q2075.16 67.4314 2082.57 67.4314 Q2086.86 67.4314 2090.87 66.3781 Q2094.92 65.3249 2098.89 63.2184 L2098.89 70.267 Q2094.88 71.9684 2090.67 72.8596 Q2086.46 73.7508 2082.12 73.7508 Q2071.27 73.7508 2064.91 67.4314 Q2058.59 61.1119 2058.59 50.3365 Q2058.59 39.1965 2064.58 32.6746 Q2070.62 26.1121 2080.83 26.1121 Q2089.98 26.1121 2095.29 32.0264 Q2100.64 37.9003 2100.64 48.0275 M2093.18 45.84 Q2093.1 39.7232 2089.74 36.0774 Q2086.42 32.4315 2080.91 32.4315 Q2074.67 32.4315 2070.9 35.9558 Q2067.17 39.4801 2066.61 45.8805 L2093.18 45.84 Z" fill="#000000" fill-rule="nonzero" fill-opacity="1"></path><path clip-path="url(#clip730)" d="M2150.58 45.1919 L2150.58 72.576 L2143.13 72.576 L2143.13 45.4349 Q2143.13 38.994 2140.62 35.7938 Q2138.11 32.5936 2133.08 32.5936 Q2127.05 32.5936 2123.56 36.4419 Q2120.08 40.2903 2120.08 46.9338 L2120.08 72.576 L2112.59 72.576 L2112.59 27.2059 L2120.08 27.2059 L2120.08 34.2544 Q2122.75 30.163 2126.36 28.1376 Q2130 26.1121 2134.74 26.1121 Q2142.56 26.1121 2146.57 30.9732 Q2150.58 35.7938 2150.58 45.1919 Z" fill="#000000" fill-rule="nonzero" fill-opacity="1"></path><path clip-path="url(#clip730)" d="M2194.37 28.5427 L2194.37 35.5912 Q2191.21 33.9709 2187.81 33.1607 Q2184.41 32.3505 2180.76 32.3505 Q2175.21 32.3505 2172.42 34.0519 Q2169.66 35.7533 2169.66 39.156 Q2169.66 41.7486 2171.65 43.2475 Q2173.63 44.7058 2179.63 46.0426 L2182.18 46.6097 Q2190.12 48.3111 2193.44 51.4303 Q2196.8 54.509 2196.8 60.0587 Q2196.8 66.3781 2191.78 70.0644 Q2186.8 73.7508 2178.05 73.7508 Q2174.4 73.7508 2170.43 73.0216 Q2166.5 72.3329 2162.13 70.9151 L2162.13 63.2184 Q2166.26 65.3654 2170.27 66.4591 Q2174.28 67.5124 2178.21 67.5124 Q2183.48 67.5124 2186.31 65.73 Q2189.15 63.9071 2189.15 60.6258 Q2189.15 57.5877 2187.08 55.9673 Q2185.06 54.3469 2178.13 52.8481 L2175.54 52.2405 Q2168.61 50.7821 2165.53 47.7845 Q2162.45 44.7463 2162.45 39.4801 Q2162.45 33.0797 2166.99 29.5959 Q2171.53 26.1121 2179.87 26.1121 Q2184 26.1121 2187.65 26.7198 Q2191.29 27.3274 2194.37 28.5427 Z" fill="#000000" fill-rule="nonzero" fill-opacity="1"></path><path clip-path="url(#clip730)" d="M2229.29 49.7694 Q2220.26 49.7694 2216.77 51.8354 Q2213.29 53.9013 2213.29 58.8839 Q2213.29 62.8538 2215.88 65.2034 Q2218.52 67.5124 2223.01 67.5124 Q2229.21 67.5124 2232.94 63.1374 Q2236.71 58.7219 2236.71 51.4303 L2236.71 49.7694 L2229.29 49.7694 M2244.16 46.6907 L2244.16 72.576 L2236.71 72.576 L2236.71 65.6895 Q2234.15 69.8214 2230.35 71.8063 Q2226.54 73.7508 2221.03 73.7508 Q2214.06 73.7508 2209.93 69.8619 Q2205.84 65.9325 2205.84 59.3701 Q2205.84 51.7138 2210.94 47.825 Q2216.09 43.9361 2226.25 43.9361 L2236.71 43.9361 L2236.71 43.2069 Q2236.71 38.0623 2233.3 35.2672 Q2229.94 32.4315 2223.82 32.4315 Q2219.93 32.4315 2216.25 33.3632 Q2212.56 34.295 2209.16 36.1584 L2209.16 29.2718 Q2213.25 27.692 2217.1 26.9223 Q2220.95 26.1121 2224.59 26.1121 Q2234.44 26.1121 2239.3 31.2163 Q2244.16 36.3204 2244.16 46.6907 Z" fill="#000000" fill-rule="nonzero" fill-opacity="1"></path><path clip-path="url(#clip730)" d="M2266.88 14.324 L2266.88 27.2059 L2282.24 27.2059 L2282.24 32.9987 L2266.88 32.9987 L2266.88 57.6282 Q2266.88 63.1779 2268.38 64.7578 Q2269.92 66.3376 2274.58 66.3376 L2282.24 66.3376 L2282.24 72.576 L2274.58 72.576 Q2265.95 72.576 2262.67 69.3758 Q2259.39 66.1351 2259.39 57.6282 L2259.39 32.9987 L2253.92 32.9987 L2253.92 27.2059 L2259.39 27.2059 L2259.39 14.324 L2266.88 14.324 Z" fill="#000000" fill-rule="nonzero" fill-opacity="1"></path><path clip-path="url(#clip730)" d="M2292.04 27.2059 L2299.49 27.2059 L2299.49 72.576 L2292.04 72.576 L2292.04 27.2059 M2292.04 9.54393 L2299.49 9.54393 L2299.49 18.9825 L2292.04 18.9825 L2292.04 9.54393 Z" fill="#000000" fill-rule="nonzero" fill-opacity="1"></path><path clip-path="url(#clip730)" d="M2332.67 32.4315 Q2326.68 32.4315 2323.19 37.1306 Q2319.71 41.7891 2319.71 49.9314 Q2319.71 58.0738 2323.15 62.7728 Q2326.64 67.4314 2332.67 67.4314 Q2338.63 67.4314 2342.11 62.7323 Q2345.59 58.0333 2345.59 49.9314 Q2345.59 41.8701 2342.11 37.1711 Q2338.63 32.4315 2332.67 32.4315 M2332.67 26.1121 Q2342.39 26.1121 2347.94 32.4315 Q2353.49 38.7509 2353.49 49.9314 Q2353.49 61.0714 2347.94 67.4314 Q2342.39 73.7508 2332.67 73.7508 Q2322.91 73.7508 2317.36 67.4314 Q2311.85 61.0714 2311.85 49.9314 Q2311.85 38.7509 2317.36 32.4315 Q2322.91 26.1121 2332.67 26.1121 Z" fill="#000000" fill-rule="nonzero" fill-opacity="1"></path><path clip-path="url(#clip730)" d="M2403.56 45.1919 L2403.56 72.576 L2396.11 72.576 L2396.11 45.4349 Q2396.11 38.994 2393.6 35.7938 Q2391.09 32.5936 2386.06 32.5936 Q2380.03 32.5936 2376.54 36.4419 Q2373.06 40.2903 2373.06 46.9338 L2373.06 72.576 L2365.56 72.576 L2365.56 27.2059 L2373.06 27.2059 L2373.06 34.2544 Q2375.73 30.163 2379.34 28.1376 Q2382.98 26.1121 2387.72 26.1121 Q2395.54 26.1121 2399.55 30.9732 Q2403.56 35.7938 2403.56 45.1919 Z" fill="#000000" fill-rule="nonzero" fill-opacity="1"></path><path clip-path="url(#clip730)" d="M2417.25 9.62495 L2423.74 9.62495 Q2429.81 19.1851 2432.81 28.3401 Q2435.85 37.4952 2435.85 46.5287 Q2435.85 55.6027 2432.81 64.7983 Q2429.81 73.9938 2423.74 83.5134 L2417.25 83.5134 Q2422.64 74.2369 2425.27 65.0818 Q2427.95 55.8863 2427.95 46.5287 Q2427.95 37.1711 2425.27 28.0566 Q2422.64 18.942 2417.25 9.62495 Z" fill="#000000" fill-rule="nonzero" fill-opacity="1"></path><polyline clip-path="url(#clip732)" style="stroke:#0000ff; stroke-linecap:round; stroke-linejoin:round; stroke-width:4; stroke-opacity:1; fill:none" points="263.564,160.256 939.678,1386.4 1615.79,295.432 2291.91,723.361 "></polyline>
<circle clip-path="url(#clip732)" cx="263.564" cy="160.256" r="14.4" fill="#0000ff" fill-rule="evenodd" fill-opacity="1" stroke="#000000" stroke-opacity="1" stroke-width="3.2"></circle>
<circle clip-path="url(#clip732)" cx="939.678" cy="1386.4" r="14.4" fill="#0000ff" fill-rule="evenodd" fill-opacity="1" stroke="#000000" stroke-opacity="1" stroke-width="3.2"></circle>
<circle clip-path="url(#clip732)" cx="1615.79" cy="295.432" r="14.4" fill="#0000ff" fill-rule="evenodd" fill-opacity="1" stroke="#000000" stroke-opacity="1" stroke-width="3.2"></circle>
<circle clip-path="url(#clip732)" cx="2291.91" cy="723.361" r="14.4" fill="#0000ff" fill-rule="evenodd" fill-opacity="1" stroke="#000000" stroke-opacity="1" stroke-width="3.2"></circle>
<polyline clip-path="url(#clip732)" style="stroke:#ff0000; stroke-linecap:round; stroke-linejoin:round; stroke-width:4; stroke-opacity:1; fill:none" stroke-dasharray="16, 10" points="263.564,161.062 939.678,1385.43 1615.79,298.454 2291.91,802.942 "></polyline>
<path clip-path="url(#clip732)" d="M247.564 145.062 L247.564 177.062 L279.564 177.062 L279.564 145.062 L247.564 145.062 Z" fill="#ff0000" fill-rule="evenodd" fill-opacity="1" stroke="#000000" stroke-opacity="1" stroke-width="3.2"></path>
<path clip-path="url(#clip732)" d="M923.678 1369.43 L923.678 1401.43 L955.678 1401.43 L955.678 1369.43 L923.678 1369.43 Z" fill="#ff0000" fill-rule="evenodd" fill-opacity="1" stroke="#000000" stroke-opacity="1" stroke-width="3.2"></path>
<path clip-path="url(#clip732)" d="M1599.79 282.454 L1599.79 314.454 L1631.79 314.454 L1631.79 282.454 L1599.79 282.454 Z" fill="#ff0000" fill-rule="evenodd" fill-opacity="1" stroke="#000000" stroke-opacity="1" stroke-width="3.2"></path>
<path clip-path="url(#clip732)" d="M2275.91 786.942 L2275.91 818.942 L2307.91 818.942 L2307.91 786.942 L2275.91 786.942 Z" fill="#ff0000" fill-rule="evenodd" fill-opacity="1" stroke="#000000" stroke-opacity="1" stroke-width="3.2"></path>
<path clip-path="url(#clip730)" d="M1562.54 322.316 L2281.09 322.316 L2281.09 166.796 L1562.54 166.796  Z" fill="#ffffff" fill-rule="evenodd" fill-opacity="1"></path>
<polyline clip-path="url(#clip730)" style="stroke:#000000; stroke-linecap:round; stroke-linejoin:round; stroke-width:4; stroke-opacity:1; fill:none" points="1562.54,322.316 2281.09,322.316 2281.09,166.796 1562.54,166.796 1562.54,322.316 "></polyline>
<polyline clip-path="url(#clip730)" style="stroke:#0000ff; stroke-linecap:round; stroke-linejoin:round; stroke-width:4; stroke-opacity:1; fill:none" points="1586.43,218.636 1729.77,218.636 "></polyline>
<circle clip-path="url(#clip730)" cx="1658.1" cy="218.636" r="19.9078" fill="#0000ff" fill-rule="evenodd" fill-opacity="1" stroke="#000000" stroke-opacity="1" stroke-width="4.55111"></circle>
<path clip-path="url(#clip730)" d="M1758.34 219.411 L1758.34 232.073 L1765.84 232.073 Q1769.61 232.073 1771.41 230.522 Q1773.24 228.948 1773.24 225.731 Q1773.24 222.49 1771.41 220.962 Q1769.61 219.411 1765.84 219.411 L1758.34 219.411 M1758.34 205.198 L1758.34 215.615 L1765.26 215.615 Q1768.68 215.615 1770.35 214.342 Q1772.04 213.045 1772.04 210.407 Q1772.04 207.791 1770.35 206.495 Q1768.68 205.198 1765.26 205.198 L1758.34 205.198 M1753.66 201.356 L1765.6 201.356 Q1770.95 201.356 1773.84 203.578 Q1776.74 205.8 1776.74 209.897 Q1776.74 213.069 1775.26 214.944 Q1773.78 216.819 1770.9 217.282 Q1774.35 218.022 1776.25 220.383 Q1778.17 222.721 1778.17 226.24 Q1778.17 230.869 1775.03 233.393 Q1771.88 235.916 1766.07 235.916 L1753.66 235.916 L1753.66 201.356 Z" fill="#000000" fill-rule="nonzero" fill-opacity="1"></path><path clip-path="url(#clip730)" d="M1808.17 221.888 L1808.17 223.971 L1788.59 223.971 Q1788.87 228.369 1791.23 230.684 Q1793.61 232.976 1797.85 232.976 Q1800.3 232.976 1802.59 232.374 Q1804.91 231.772 1807.18 230.569 L1807.18 234.596 Q1804.89 235.568 1802.48 236.078 Q1800.07 236.587 1797.59 236.587 Q1791.39 236.587 1787.76 232.976 Q1784.15 229.365 1784.15 223.207 Q1784.15 216.842 1787.57 213.115 Q1791.02 209.365 1796.85 209.365 Q1802.09 209.365 1805.12 212.745 Q1808.17 216.101 1808.17 221.888 M1803.91 220.638 Q1803.87 217.143 1801.95 215.059 Q1800.05 212.976 1796.9 212.976 Q1793.34 212.976 1791.18 214.99 Q1789.05 217.004 1788.73 220.661 L1803.91 220.638 Z" fill="#000000" fill-rule="nonzero" fill-opacity="1"></path><path clip-path="url(#clip730)" d="M1828.29 199.897 L1828.29 203.439 L1824.21 203.439 Q1821.92 203.439 1821.02 204.365 Q1820.14 205.291 1820.14 207.698 L1820.14 209.99 L1827.15 209.99 L1827.15 213.3 L1820.14 213.3 L1820.14 235.916 L1815.86 235.916 L1815.86 213.3 L1811.78 213.3 L1811.78 209.99 L1815.86 209.99 L1815.86 208.184 Q1815.86 203.856 1817.87 201.888 Q1819.89 199.897 1824.26 199.897 L1828.29 199.897 Z" fill="#000000" fill-rule="nonzero" fill-opacity="1"></path><path clip-path="url(#clip730)" d="M1841.9 212.976 Q1838.47 212.976 1836.48 215.661 Q1834.49 218.323 1834.49 222.976 Q1834.49 227.629 1836.46 230.314 Q1838.45 232.976 1841.9 232.976 Q1845.3 232.976 1847.29 230.291 Q1849.28 227.606 1849.28 222.976 Q1849.28 218.37 1847.29 215.684 Q1845.3 212.976 1841.9 212.976 M1841.9 209.365 Q1847.46 209.365 1850.63 212.976 Q1853.8 216.587 1853.8 222.976 Q1853.8 229.342 1850.63 232.976 Q1847.46 236.587 1841.9 236.587 Q1836.32 236.587 1833.15 232.976 Q1830 229.342 1830 222.976 Q1830 216.587 1833.15 212.976 Q1836.32 209.365 1841.9 209.365 Z" fill="#000000" fill-rule="nonzero" fill-opacity="1"></path><path clip-path="url(#clip730)" d="M1875.88 213.971 Q1875.16 213.555 1874.31 213.37 Q1873.47 213.161 1872.46 213.161 Q1868.84 213.161 1866.9 215.522 Q1864.98 217.86 1864.98 222.258 L1864.98 235.916 L1860.7 235.916 L1860.7 209.99 L1864.98 209.99 L1864.98 214.018 Q1866.32 211.657 1868.47 210.522 Q1870.63 209.365 1873.71 209.365 Q1874.14 209.365 1874.68 209.434 Q1875.21 209.481 1875.86 209.596 L1875.88 213.971 Z" fill="#000000" fill-rule="nonzero" fill-opacity="1"></path><path clip-path="url(#clip730)" d="M1901.48 221.888 L1901.48 223.971 L1881.9 223.971 Q1882.18 228.369 1884.54 230.684 Q1886.92 232.976 1891.16 232.976 Q1893.61 232.976 1895.9 232.374 Q1898.22 231.772 1900.49 230.569 L1900.49 234.596 Q1898.2 235.568 1895.79 236.078 Q1893.38 236.587 1890.9 236.587 Q1884.7 236.587 1881.07 232.976 Q1877.46 229.365 1877.46 223.207 Q1877.46 216.842 1880.88 213.115 Q1884.33 209.365 1890.16 209.365 Q1895.39 209.365 1898.43 212.745 Q1901.48 216.101 1901.48 221.888 M1897.22 220.638 Q1897.18 217.143 1895.26 215.059 Q1893.36 212.976 1890.21 212.976 Q1886.64 212.976 1884.49 214.99 Q1882.36 217.004 1882.04 220.661 L1897.22 220.638 Z" fill="#000000" fill-rule="nonzero" fill-opacity="1"></path><path clip-path="url(#clip730)" d="M1949.61 204.018 L1949.61 208.948 Q1947.25 206.749 1944.56 205.661 Q1941.9 204.573 1938.89 204.573 Q1932.96 204.573 1929.82 208.208 Q1926.67 211.819 1926.67 218.67 Q1926.67 225.499 1929.82 229.133 Q1932.96 232.744 1938.89 232.744 Q1941.9 232.744 1944.56 231.656 Q1947.25 230.569 1949.61 228.369 L1949.61 233.254 Q1947.15 234.92 1944.4 235.754 Q1941.67 236.587 1938.61 236.587 Q1930.77 236.587 1926.25 231.795 Q1921.74 226.981 1921.74 218.67 Q1921.74 210.337 1926.25 205.546 Q1930.77 200.731 1938.61 200.731 Q1941.71 200.731 1944.45 201.564 Q1947.2 202.374 1949.61 204.018 Z" fill="#000000" fill-rule="nonzero" fill-opacity="1"></path><path clip-path="url(#clip730)" d="M1966.69 212.976 Q1963.26 212.976 1961.27 215.661 Q1959.28 218.323 1959.28 222.976 Q1959.28 227.629 1961.25 230.314 Q1963.24 232.976 1966.69 232.976 Q1970.09 232.976 1972.08 230.291 Q1974.07 227.606 1974.07 222.976 Q1974.07 218.37 1972.08 215.684 Q1970.09 212.976 1966.69 212.976 M1966.69 209.365 Q1972.25 209.365 1975.42 212.976 Q1978.59 216.587 1978.59 222.976 Q1978.59 229.342 1975.42 232.976 Q1972.25 236.587 1966.69 236.587 Q1961.11 236.587 1957.94 232.976 Q1954.79 229.342 1954.79 222.976 Q1954.79 216.587 1957.94 212.976 Q1961.11 209.365 1966.69 209.365 Z" fill="#000000" fill-rule="nonzero" fill-opacity="1"></path><path clip-path="url(#clip730)" d="M2005.83 214.967 Q2007.43 212.096 2009.65 210.731 Q2011.88 209.365 2014.88 209.365 Q2018.94 209.365 2021.13 212.212 Q2023.33 215.036 2023.33 220.268 L2023.33 235.916 L2019.05 235.916 L2019.05 220.407 Q2019.05 216.68 2017.73 214.874 Q2016.41 213.069 2013.7 213.069 Q2010.39 213.069 2008.47 215.268 Q2006.55 217.467 2006.55 221.263 L2006.55 235.916 L2002.27 235.916 L2002.27 220.407 Q2002.27 216.657 2000.95 214.874 Q1999.63 213.069 1996.88 213.069 Q1993.61 213.069 1991.69 215.291 Q1989.77 217.49 1989.77 221.263 L1989.77 235.916 L1985.49 235.916 L1985.49 209.99 L1989.77 209.99 L1989.77 214.018 Q1991.23 211.633 1993.26 210.499 Q1995.3 209.365 1998.1 209.365 Q2000.93 209.365 2002.89 210.8 Q2004.89 212.235 2005.83 214.967 Z" fill="#000000" fill-rule="nonzero" fill-opacity="1"></path><path clip-path="url(#clip730)" d="M2035.95 232.027 L2035.95 245.777 L2031.67 245.777 L2031.67 209.99 L2035.95 209.99 L2035.95 213.925 Q2037.29 211.61 2039.33 210.499 Q2041.39 209.365 2044.24 209.365 Q2048.96 209.365 2051.9 213.115 Q2054.86 216.865 2054.86 222.976 Q2054.86 229.087 2051.9 232.837 Q2048.96 236.587 2044.24 236.587 Q2041.39 236.587 2039.33 235.476 Q2037.29 234.342 2035.95 232.027 M2050.44 222.976 Q2050.44 218.277 2048.5 215.615 Q2046.57 212.93 2043.19 212.93 Q2039.82 212.93 2037.87 215.615 Q2035.95 218.277 2035.95 222.976 Q2035.95 227.675 2037.87 230.36 Q2039.82 233.022 2043.19 233.022 Q2046.57 233.022 2048.5 230.36 Q2050.44 227.675 2050.44 222.976 Z" fill="#000000" fill-rule="nonzero" fill-opacity="1"></path><path clip-path="url(#clip730)" d="M2084.1 221.888 L2084.1 223.971 L2064.51 223.971 Q2064.79 228.369 2067.15 230.684 Q2069.54 232.976 2073.77 232.976 Q2076.23 232.976 2078.52 232.374 Q2080.83 231.772 2083.1 230.569 L2083.1 234.596 Q2080.81 235.568 2078.4 236.078 Q2076 236.587 2073.52 236.587 Q2067.32 236.587 2063.68 232.976 Q2060.07 229.365 2060.07 223.207 Q2060.07 216.842 2063.5 213.115 Q2066.94 209.365 2072.78 209.365 Q2078.01 209.365 2081.04 212.745 Q2084.1 216.101 2084.1 221.888 M2079.84 220.638 Q2079.79 217.143 2077.87 215.059 Q2075.97 212.976 2072.82 212.976 Q2069.26 212.976 2067.11 214.99 Q2064.98 217.004 2064.65 220.661 L2079.84 220.638 Z" fill="#000000" fill-rule="nonzero" fill-opacity="1"></path><path clip-path="url(#clip730)" d="M2112.64 220.268 L2112.64 235.916 L2108.38 235.916 L2108.38 220.407 Q2108.38 216.726 2106.94 214.897 Q2105.51 213.069 2102.64 213.069 Q2099.19 213.069 2097.2 215.268 Q2095.21 217.467 2095.21 221.263 L2095.21 235.916 L2090.93 235.916 L2090.93 209.99 L2095.21 209.99 L2095.21 214.018 Q2096.74 211.68 2098.8 210.522 Q2100.88 209.365 2103.59 209.365 Q2108.06 209.365 2110.35 212.143 Q2112.64 214.897 2112.64 220.268 Z" fill="#000000" fill-rule="nonzero" fill-opacity="1"></path><path clip-path="url(#clip730)" d="M2137.66 210.754 L2137.66 214.782 Q2135.86 213.856 2133.91 213.393 Q2131.97 212.93 2129.88 212.93 Q2126.71 212.93 2125.12 213.902 Q2123.54 214.874 2123.54 216.819 Q2123.54 218.3 2124.68 219.157 Q2125.81 219.99 2129.24 220.754 L2130.69 221.078 Q2135.23 222.05 2137.13 223.832 Q2139.05 225.592 2139.05 228.763 Q2139.05 232.374 2136.18 234.481 Q2133.33 236.587 2128.33 236.587 Q2126.25 236.587 2123.98 236.17 Q2121.74 235.777 2119.24 234.967 L2119.24 230.569 Q2121.6 231.795 2123.89 232.42 Q2126.18 233.022 2128.43 233.022 Q2131.44 233.022 2133.06 232.004 Q2134.68 230.962 2134.68 229.087 Q2134.68 227.351 2133.5 226.425 Q2132.34 225.499 2128.38 224.643 L2126.9 224.295 Q2122.94 223.462 2121.18 221.749 Q2119.42 220.013 2119.42 217.004 Q2119.42 213.346 2122.01 211.356 Q2124.61 209.365 2129.38 209.365 Q2131.74 209.365 2133.82 209.712 Q2135.9 210.059 2137.66 210.754 Z" fill="#000000" fill-rule="nonzero" fill-opacity="1"></path><path clip-path="url(#clip730)" d="M2157.62 222.883 Q2152.45 222.883 2150.46 224.064 Q2148.47 225.244 2148.47 228.092 Q2148.47 230.36 2149.95 231.703 Q2151.46 233.022 2154.03 233.022 Q2157.57 233.022 2159.7 230.522 Q2161.85 227.999 2161.85 223.832 L2161.85 222.883 L2157.62 222.883 M2166.11 221.124 L2166.11 235.916 L2161.85 235.916 L2161.85 231.981 Q2160.39 234.342 2158.22 235.476 Q2156.04 236.587 2152.89 236.587 Q2148.91 236.587 2146.55 234.365 Q2144.21 232.119 2144.21 228.369 Q2144.21 223.994 2147.13 221.772 Q2150.07 219.55 2155.88 219.55 L2161.85 219.55 L2161.85 219.133 Q2161.85 216.194 2159.91 214.596 Q2157.99 212.976 2154.49 212.976 Q2152.27 212.976 2150.16 213.508 Q2148.06 214.041 2146.11 215.106 L2146.11 211.17 Q2148.45 210.268 2150.65 209.828 Q2152.85 209.365 2154.93 209.365 Q2160.56 209.365 2163.33 212.282 Q2166.11 215.198 2166.11 221.124 Z" fill="#000000" fill-rule="nonzero" fill-opacity="1"></path><path clip-path="url(#clip730)" d="M2179.1 202.629 L2179.1 209.99 L2187.87 209.99 L2187.87 213.3 L2179.1 213.3 L2179.1 227.374 Q2179.1 230.545 2179.95 231.448 Q2180.83 232.351 2183.5 232.351 L2187.87 232.351 L2187.87 235.916 L2183.5 235.916 Q2178.56 235.916 2176.69 234.087 Q2174.81 232.235 2174.81 227.374 L2174.81 213.3 L2171.69 213.3 L2171.69 209.99 L2174.81 209.99 L2174.81 202.629 L2179.1 202.629 Z" fill="#000000" fill-rule="nonzero" fill-opacity="1"></path><path clip-path="url(#clip730)" d="M2193.47 209.99 L2197.73 209.99 L2197.73 235.916 L2193.47 235.916 L2193.47 209.99 M2193.47 199.897 L2197.73 199.897 L2197.73 205.291 L2193.47 205.291 L2193.47 199.897 Z" fill="#000000" fill-rule="nonzero" fill-opacity="1"></path><path clip-path="url(#clip730)" d="M2216.69 212.976 Q2213.26 212.976 2211.27 215.661 Q2209.28 218.323 2209.28 222.976 Q2209.28 227.629 2211.25 230.314 Q2213.24 232.976 2216.69 232.976 Q2220.09 232.976 2222.08 230.291 Q2224.07 227.606 2224.07 222.976 Q2224.07 218.37 2222.08 215.684 Q2220.09 212.976 2216.69 212.976 M2216.69 209.365 Q2222.24 209.365 2225.42 212.976 Q2228.59 216.587 2228.59 222.976 Q2228.59 229.342 2225.42 232.976 Q2222.24 236.587 2216.69 236.587 Q2211.11 236.587 2207.94 232.976 Q2204.79 229.342 2204.79 222.976 Q2204.79 216.587 2207.94 212.976 Q2211.11 209.365 2216.69 209.365 Z" fill="#000000" fill-rule="nonzero" fill-opacity="1"></path><path clip-path="url(#clip730)" d="M2257.2 220.268 L2257.2 235.916 L2252.94 235.916 L2252.94 220.407 Q2252.94 216.726 2251.5 214.897 Q2250.07 213.069 2247.2 213.069 Q2243.75 213.069 2241.76 215.268 Q2239.77 217.467 2239.77 221.263 L2239.77 235.916 L2235.49 235.916 L2235.49 209.99 L2239.77 209.99 L2239.77 214.018 Q2241.3 211.68 2243.36 210.522 Q2245.44 209.365 2248.15 209.365 Q2252.62 209.365 2254.91 212.143 Q2257.2 214.897 2257.2 220.268 Z" fill="#000000" fill-rule="nonzero" fill-opacity="1"></path><polyline clip-path="url(#clip730)" style="stroke:#ff0000; stroke-linecap:round; stroke-linejoin:round; stroke-width:4; stroke-opacity:1; fill:none" stroke-dasharray="16, 10" points="1586.43,270.476 1729.77,270.476 "></polyline>
<path clip-path="url(#clip730)" d="M1635.98 248.356 L1635.98 292.595 L1680.22 292.595 L1680.22 248.356 L1635.98 248.356 Z" fill="#ff0000" fill-rule="evenodd" fill-opacity="1" stroke="#000000" stroke-opacity="1" stroke-width="4.55111"></path>
<path clip-path="url(#clip730)" d="M1769.49 257.802 L1763.15 275.001 L1775.86 275.001 L1769.49 257.802 M1766.85 253.196 L1772.15 253.196 L1785.33 287.756 L1780.46 287.756 L1777.32 278.89 L1761.74 278.89 L1758.59 287.756 L1753.66 287.756 L1766.85 253.196 Z" fill="#000000" fill-rule="nonzero" fill-opacity="1"></path><path clip-path="url(#clip730)" d="M1801.62 251.737 L1801.62 255.279 L1797.55 255.279 Q1795.26 255.279 1794.35 256.205 Q1793.47 257.131 1793.47 259.538 L1793.47 261.83 L1800.49 261.83 L1800.49 265.14 L1793.47 265.14 L1793.47 287.756 L1789.19 287.756 L1789.19 265.14 L1785.12 265.14 L1785.12 261.83 L1789.19 261.83 L1789.19 260.024 Q1789.19 255.696 1791.21 253.728 Q1793.22 251.737 1797.59 251.737 L1801.62 251.737 Z" fill="#000000" fill-rule="nonzero" fill-opacity="1"></path><path clip-path="url(#clip730)" d="M1808.57 254.469 L1808.57 261.83 L1817.34 261.83 L1817.34 265.14 L1808.57 265.14 L1808.57 279.214 Q1808.57 282.385 1809.42 283.288 Q1810.3 284.191 1812.96 284.191 L1817.34 284.191 L1817.34 287.756 L1812.96 287.756 Q1808.03 287.756 1806.16 285.927 Q1804.28 284.075 1804.28 279.214 L1804.28 265.14 L1801.16 265.14 L1801.16 261.83 L1804.28 261.83 L1804.28 254.469 L1808.57 254.469 Z" fill="#000000" fill-rule="nonzero" fill-opacity="1"></path><path clip-path="url(#clip730)" d="M1845.12 273.728 L1845.12 275.811 L1825.53 275.811 Q1825.81 280.209 1828.17 282.524 Q1830.56 284.816 1834.79 284.816 Q1837.25 284.816 1839.54 284.214 Q1841.85 283.612 1844.12 282.409 L1844.12 286.436 Q1841.83 287.408 1839.42 287.918 Q1837.02 288.427 1834.54 288.427 Q1828.34 288.427 1824.7 284.816 Q1821.09 281.205 1821.09 275.047 Q1821.09 268.682 1824.52 264.955 Q1827.96 261.205 1833.8 261.205 Q1839.03 261.205 1842.06 264.585 Q1845.12 267.941 1845.12 273.728 M1840.86 272.478 Q1840.81 268.983 1838.89 266.899 Q1836.99 264.816 1833.84 264.816 Q1830.28 264.816 1828.13 266.83 Q1826 268.844 1825.67 272.501 L1840.86 272.478 Z" fill="#000000" fill-rule="nonzero" fill-opacity="1"></path><path clip-path="url(#clip730)" d="M1867.13 265.811 Q1866.41 265.395 1865.56 265.21 Q1864.72 265.001 1863.71 265.001 Q1860.09 265.001 1858.15 267.362 Q1856.23 269.7 1856.23 274.098 L1856.23 287.756 L1851.95 287.756 L1851.95 261.83 L1856.23 261.83 L1856.23 265.858 Q1857.57 263.497 1859.72 262.362 Q1861.88 261.205 1864.96 261.205 Q1865.4 261.205 1865.93 261.274 Q1866.46 261.321 1867.11 261.436 L1867.13 265.811 Z" fill="#000000" fill-rule="nonzero" fill-opacity="1"></path><path clip-path="url(#clip730)" d="M1912.73 255.858 L1912.73 260.788 Q1910.37 258.589 1907.69 257.501 Q1905.02 256.413 1902.02 256.413 Q1896.09 256.413 1892.94 260.048 Q1889.79 263.659 1889.79 270.51 Q1889.79 277.339 1892.94 280.973 Q1896.09 284.584 1902.02 284.584 Q1905.02 284.584 1907.69 283.496 Q1910.37 282.409 1912.73 280.209 L1912.73 285.094 Q1910.28 286.76 1907.52 287.594 Q1904.79 288.427 1901.74 288.427 Q1893.89 288.427 1889.38 283.635 Q1884.86 278.821 1884.86 270.51 Q1884.86 262.177 1889.38 257.386 Q1893.89 252.571 1901.74 252.571 Q1904.84 252.571 1907.57 253.404 Q1910.33 254.214 1912.73 255.858 Z" fill="#000000" fill-rule="nonzero" fill-opacity="1"></path><path clip-path="url(#clip730)" d="M1929.82 264.816 Q1926.39 264.816 1924.4 267.501 Q1922.41 270.163 1922.41 274.816 Q1922.41 279.469 1924.38 282.154 Q1926.37 284.816 1929.82 284.816 Q1933.22 284.816 1935.21 282.131 Q1937.2 279.446 1937.2 274.816 Q1937.2 270.21 1935.21 267.524 Q1933.22 264.816 1929.82 264.816 M1929.82 261.205 Q1935.37 261.205 1938.54 264.816 Q1941.71 268.427 1941.71 274.816 Q1941.71 281.182 1938.54 284.816 Q1935.37 288.427 1929.82 288.427 Q1924.24 288.427 1921.07 284.816 Q1917.92 281.182 1917.92 274.816 Q1917.92 268.427 1921.07 264.816 Q1924.24 261.205 1929.82 261.205 Z" fill="#000000" fill-rule="nonzero" fill-opacity="1"></path><path clip-path="url(#clip730)" d="M1968.96 266.807 Q1970.56 263.936 1972.78 262.571 Q1975 261.205 1978.01 261.205 Q1982.06 261.205 1984.26 264.052 Q1986.46 266.876 1986.46 272.108 L1986.46 287.756 L1982.18 287.756 L1982.18 272.247 Q1982.18 268.52 1980.86 266.714 Q1979.54 264.909 1976.83 264.909 Q1973.52 264.909 1971.6 267.108 Q1969.68 269.307 1969.68 273.103 L1969.68 287.756 L1965.39 287.756 L1965.39 272.247 Q1965.39 268.497 1964.08 266.714 Q1962.76 264.909 1960 264.909 Q1956.74 264.909 1954.82 267.131 Q1952.89 269.33 1952.89 273.103 L1952.89 287.756 L1948.61 287.756 L1948.61 261.83 L1952.89 261.83 L1952.89 265.858 Q1954.35 263.473 1956.39 262.339 Q1958.43 261.205 1961.23 261.205 Q1964.05 261.205 1966.02 262.64 Q1968.01 264.075 1968.96 266.807 Z" fill="#000000" fill-rule="nonzero" fill-opacity="1"></path><path clip-path="url(#clip730)" d="M1999.07 283.867 L1999.07 297.617 L1994.79 297.617 L1994.79 261.83 L1999.07 261.83 L1999.07 265.765 Q2000.42 263.45 2002.45 262.339 Q2004.51 261.205 2007.36 261.205 Q2012.08 261.205 2015.02 264.955 Q2017.99 268.705 2017.99 274.816 Q2017.99 280.927 2015.02 284.677 Q2012.08 288.427 2007.36 288.427 Q2004.51 288.427 2002.45 287.316 Q2000.42 286.182 1999.07 283.867 M2013.57 274.816 Q2013.57 270.117 2011.62 267.455 Q2009.7 264.77 2006.32 264.77 Q2002.94 264.77 2001 267.455 Q1999.07 270.117 1999.07 274.816 Q1999.07 279.515 2001 282.2 Q2002.94 284.862 2006.32 284.862 Q2009.7 284.862 2011.62 282.2 Q2013.57 279.515 2013.57 274.816 Z" fill="#000000" fill-rule="nonzero" fill-opacity="1"></path><path clip-path="url(#clip730)" d="M2047.22 273.728 L2047.22 275.811 L2027.64 275.811 Q2027.92 280.209 2030.28 282.524 Q2032.66 284.816 2036.9 284.816 Q2039.35 284.816 2041.64 284.214 Q2043.96 283.612 2046.23 282.409 L2046.23 286.436 Q2043.94 287.408 2041.53 287.918 Q2039.12 288.427 2036.64 288.427 Q2030.44 288.427 2026.81 284.816 Q2023.2 281.205 2023.2 275.047 Q2023.2 268.682 2026.62 264.955 Q2030.07 261.205 2035.9 261.205 Q2041.13 261.205 2044.17 264.585 Q2047.22 267.941 2047.22 273.728 M2042.96 272.478 Q2042.92 268.983 2041 266.899 Q2039.1 264.816 2035.95 264.816 Q2032.38 264.816 2030.23 266.83 Q2028.1 268.844 2027.78 272.501 L2042.96 272.478 Z" fill="#000000" fill-rule="nonzero" fill-opacity="1"></path><path clip-path="url(#clip730)" d="M2075.76 272.108 L2075.76 287.756 L2071.51 287.756 L2071.51 272.247 Q2071.51 268.566 2070.07 266.737 Q2068.63 264.909 2065.76 264.909 Q2062.32 264.909 2060.32 267.108 Q2058.33 269.307 2058.33 273.103 L2058.33 287.756 L2054.05 287.756 L2054.05 261.83 L2058.33 261.83 L2058.33 265.858 Q2059.86 263.52 2061.92 262.362 Q2064.01 261.205 2066.71 261.205 Q2071.18 261.205 2073.47 263.983 Q2075.76 266.737 2075.76 272.108 Z" fill="#000000" fill-rule="nonzero" fill-opacity="1"></path><path clip-path="url(#clip730)" d="M2100.79 262.594 L2100.79 266.622 Q2098.98 265.696 2097.04 265.233 Q2095.09 264.77 2093.01 264.77 Q2089.84 264.77 2088.24 265.742 Q2086.67 266.714 2086.67 268.659 Q2086.67 270.14 2087.8 270.997 Q2088.94 271.83 2092.36 272.594 L2093.82 272.918 Q2098.36 273.89 2100.25 275.672 Q2102.18 277.432 2102.18 280.603 Q2102.18 284.214 2099.31 286.321 Q2096.46 288.427 2091.46 288.427 Q2089.38 288.427 2087.11 288.01 Q2084.86 287.617 2082.36 286.807 L2082.36 282.409 Q2084.72 283.635 2087.01 284.26 Q2089.31 284.862 2091.55 284.862 Q2094.56 284.862 2096.18 283.844 Q2097.8 282.802 2097.8 280.927 Q2097.8 279.191 2096.62 278.265 Q2095.46 277.339 2091.5 276.483 L2090.02 276.135 Q2086.07 275.302 2084.31 273.589 Q2082.55 271.853 2082.55 268.844 Q2082.55 265.186 2085.14 263.196 Q2087.73 261.205 2092.5 261.205 Q2094.86 261.205 2096.94 261.552 Q2099.03 261.899 2100.79 262.594 Z" fill="#000000" fill-rule="nonzero" fill-opacity="1"></path><path clip-path="url(#clip730)" d="M2120.74 274.723 Q2115.58 274.723 2113.59 275.904 Q2111.6 277.084 2111.6 279.932 Q2111.6 282.2 2113.08 283.543 Q2114.58 284.862 2117.15 284.862 Q2120.69 284.862 2122.82 282.362 Q2124.98 279.839 2124.98 275.672 L2124.98 274.723 L2120.74 274.723 M2129.24 272.964 L2129.24 287.756 L2124.98 287.756 L2124.98 283.821 Q2123.52 286.182 2121.34 287.316 Q2119.17 288.427 2116.02 288.427 Q2112.04 288.427 2109.68 286.205 Q2107.34 283.959 2107.34 280.209 Q2107.34 275.834 2110.25 273.612 Q2113.19 271.39 2119 271.39 L2124.98 271.39 L2124.98 270.973 Q2124.98 268.034 2123.03 266.436 Q2121.11 264.816 2117.62 264.816 Q2115.39 264.816 2113.29 265.348 Q2111.18 265.881 2109.24 266.946 L2109.24 263.01 Q2111.57 262.108 2113.77 261.668 Q2115.97 261.205 2118.06 261.205 Q2123.68 261.205 2126.46 264.122 Q2129.24 267.038 2129.24 272.964 Z" fill="#000000" fill-rule="nonzero" fill-opacity="1"></path><path clip-path="url(#clip730)" d="M2142.22 254.469 L2142.22 261.83 L2151 261.83 L2151 265.14 L2142.22 265.14 L2142.22 279.214 Q2142.22 282.385 2143.08 283.288 Q2143.96 284.191 2146.62 284.191 L2151 284.191 L2151 287.756 L2146.62 287.756 Q2141.69 287.756 2139.81 285.927 Q2137.94 284.075 2137.94 279.214 L2137.94 265.14 L2134.81 265.14 L2134.81 261.83 L2137.94 261.83 L2137.94 254.469 L2142.22 254.469 Z" fill="#000000" fill-rule="nonzero" fill-opacity="1"></path><path clip-path="url(#clip730)" d="M2156.6 261.83 L2160.86 261.83 L2160.86 287.756 L2156.6 287.756 L2156.6 261.83 M2156.6 251.737 L2160.86 251.737 L2160.86 257.131 L2156.6 257.131 L2156.6 251.737 Z" fill="#000000" fill-rule="nonzero" fill-opacity="1"></path><path clip-path="url(#clip730)" d="M2179.81 264.816 Q2176.39 264.816 2174.4 267.501 Q2172.41 270.163 2172.41 274.816 Q2172.41 279.469 2174.37 282.154 Q2176.37 284.816 2179.81 284.816 Q2183.22 284.816 2185.21 282.131 Q2187.2 279.446 2187.2 274.816 Q2187.2 270.21 2185.21 267.524 Q2183.22 264.816 2179.81 264.816 M2179.81 261.205 Q2185.37 261.205 2188.54 264.816 Q2191.71 268.427 2191.71 274.816 Q2191.71 281.182 2188.54 284.816 Q2185.37 288.427 2179.81 288.427 Q2174.24 288.427 2171.06 284.816 Q2167.92 281.182 2167.92 274.816 Q2167.92 268.427 2171.06 264.816 Q2174.24 261.205 2179.81 261.205 Z" fill="#000000" fill-rule="nonzero" fill-opacity="1"></path><path clip-path="url(#clip730)" d="M2220.32 272.108 L2220.32 287.756 L2216.06 287.756 L2216.06 272.247 Q2216.06 268.566 2214.63 266.737 Q2213.19 264.909 2210.32 264.909 Q2206.87 264.909 2204.88 267.108 Q2202.89 269.307 2202.89 273.103 L2202.89 287.756 L2198.61 287.756 L2198.61 261.83 L2202.89 261.83 L2202.89 265.858 Q2204.42 263.52 2206.48 262.362 Q2208.56 261.205 2211.27 261.205 Q2215.74 261.205 2218.03 263.983 Q2220.32 266.737 2220.32 272.108 Z" fill="#000000" fill-rule="nonzero" fill-opacity="1"></path></svg>