<svg xmlns="http://www.w3.org/2000/svg" xmlns:xlink="http://www.w3.org/1999/xlink" width="600" height="400" viewBox="0 0 2400 1600">
<defs>
  <clipPath id="clip510">
    <rect x="0" y="0" width="2400" height="1600"></rect>
  </clipPath>
</defs>
<path clip-path="url(#clip510)" d="M0 1600 L2400 1600 L2400 8.88178e-14 L0 8.88178e-14  Z" fill="#ffffff" fill-rule="evenodd" fill-opacity="1"></path>
<defs>
  <clipPath id="clip511">
    <rect x="480" y="0" width="1681" height="1600"></rect>
  </clipPath>
</defs>
<path clip-path="url(#clip510)" d="M205.121 1423.18 L2352.76 1423.18 L2352.76 123.472 L205.121 123.472  Z" fill="#ffffff" fill-rule="evenodd" fill-opacity="1"></path>
<defs>
  <clipPath id="clip512">
    <rect x="205" y="123" width="2149" height="1301"></rect>
  </clipPath>
</defs>
<polyline clip-path="url(#clip512)" style="stroke:#000000; stroke-linecap:round; stroke-linejoin:round; stroke-width:2; stroke-opacity:0.1; fill:none" points="265.903,1423.18 265.903,123.472 "></polyline>
<polyline clip-path="url(#clip512)" style="stroke:#000000; stroke-linecap:round; stroke-linejoin:round; stroke-width:2; stroke-opacity:0.1; fill:none" points="941.26,1423.18 941.26,123.472 "></polyline>
<polyline clip-path="url(#clip512)" style="stroke:#000000; stroke-linecap:round; stroke-linejoin:round; stroke-width:2; stroke-opacity:0.1; fill:none" points="1616.62,1423.18 1616.62,123.472 "></polyline>
<polyline clip-path="url(#clip512)" style="stroke:#000000; stroke-linecap:round; stroke-linejoin:round; stroke-width:2; stroke-opacity:0.1; fill:none" points="2291.97,1423.18 2291.97,123.472 "></polyline>
<polyline clip-path="url(#clip512)" style="stroke:#000000; stroke-linecap:round; stroke-linejoin:round; stroke-width:2; stroke-opacity:0.1; fill:none" points="205.121,1389.58 2352.76,1389.58 "></polyline>
<polyline clip-path="url(#clip512)" style="stroke:#000000; stroke-linecap:round; stroke-linejoin:round; stroke-width:2; stroke-opacity:0.1; fill:none" points="205.121,1077.37 2352.76,1077.37 "></polyline>
<polyline clip-path="url(#clip512)" style="stroke:#000000; stroke-linecap:round; stroke-linejoin:round; stroke-width:2; stroke-opacity:0.1; fill:none" points="205.121,765.168 2352.76,765.168 "></polyline>
<polyline clip-path="url(#clip512)" style="stroke:#000000; stroke-linecap:round; stroke-linejoin:round; stroke-width:2; stroke-opacity:0.1; fill:none" points="205.121,452.962 2352.76,452.962 "></polyline>
<polyline clip-path="url(#clip512)" style="stroke:#000000; stroke-linecap:round; stroke-linejoin:round; stroke-width:2; stroke-opacity:0.1; fill:none" points="205.121,140.756 2352.76,140.756 "></polyline>
<polyline clip-path="url(#clip510)" style="stroke:#000000; stroke-linecap:round; stroke-linejoin:round; stroke-width:4; stroke-opacity:1; fill:none" points="205.121,1423.18 2352.76,1423.18 "></polyline>
<polyline clip-path="url(#clip510)" style="stroke:#000000; stroke-linecap:round; stroke-linejoin:round; stroke-width:4; stroke-opacity:1; fill:none" points="265.903,1423.18 265.903,1404.28 "></polyline>
<polyline clip-path="url(#clip510)" style="stroke:#000000; stroke-linecap:round; stroke-linejoin:round; stroke-width:4; stroke-opacity:1; fill:none" points="941.26,1423.18 941.26,1404.28 "></polyline>
<polyline clip-path="url(#clip510)" style="stroke:#000000; stroke-linecap:round; stroke-linejoin:round; stroke-width:4; stroke-opacity:1; fill:none" points="1616.62,1423.18 1616.62,1404.28 "></polyline>
<polyline clip-path="url(#clip510)" style="stroke:#000000; stroke-linecap:round; stroke-linejoin:round; stroke-width:4; stroke-opacity:1; fill:none" points="2291.97,1423.18 2291.97,1404.28 "></polyline>
<path clip-path="url(#clip510)" d="M178.577 1454.86 L178.577 1467.85 L184.457 1467.85 Q187.721 1467.85 189.503 1466.16 Q191.285 1464.47 191.285 1461.34 Q191.285 1458.24 189.503 1456.55 Q187.721 1454.86 184.457 1454.86 L178.577 1454.86 M173.901 1451.02 L184.457 1451.02 Q190.267 1451.02 193.23 1453.66 Q196.216 1456.27 196.216 1461.34 Q196.216 1466.46 193.23 1469.08 Q190.267 1471.69 184.457 1471.69 L178.577 1471.69 L178.577 1485.58 L173.901 1485.58 L173.901 1451.02 Z" fill="#000000" fill-rule="nonzero" fill-opacity="1"></path><path clip-path="url(#clip510)" d="M223.855 1469.93 L223.855 1485.58 L219.595 1485.58 L219.595 1470.07 Q219.595 1466.39 218.16 1464.56 Q216.725 1462.73 213.855 1462.73 Q210.406 1462.73 208.415 1464.93 Q206.424 1467.13 206.424 1470.93 L206.424 1485.58 L202.142 1485.58 L202.142 1449.56 L206.424 1449.56 L206.424 1463.68 Q207.952 1461.34 210.012 1460.19 Q212.096 1459.03 214.804 1459.03 Q219.271 1459.03 221.563 1461.81 Q223.855 1464.56 223.855 1469.93 Z" fill="#000000" fill-rule="nonzero" fill-opacity="1"></path><path clip-path="url(#clip510)" d="M244.132 1472.55 Q238.97 1472.55 236.98 1473.73 Q234.989 1474.91 234.989 1477.76 Q234.989 1480.02 236.47 1481.37 Q237.975 1482.69 240.544 1482.69 Q244.086 1482.69 246.216 1480.19 Q248.368 1477.66 248.368 1473.5 L248.368 1472.55 L244.132 1472.55 M252.628 1470.79 L252.628 1485.58 L248.368 1485.58 L248.368 1481.64 Q246.91 1484.01 244.734 1485.14 Q242.558 1486.25 239.41 1486.25 Q235.429 1486.25 233.068 1484.03 Q230.73 1481.78 230.73 1478.03 Q230.73 1473.66 233.646 1471.44 Q236.586 1469.21 242.396 1469.21 L248.368 1469.21 L248.368 1468.8 Q248.368 1465.86 246.424 1464.26 Q244.503 1462.64 241.007 1462.64 Q238.785 1462.64 236.679 1463.17 Q234.572 1463.7 232.628 1464.77 L232.628 1460.83 Q234.966 1459.93 237.165 1459.49 Q239.364 1459.03 241.447 1459.03 Q247.072 1459.03 249.85 1461.95 Q252.628 1464.86 252.628 1470.79 Z" fill="#000000" fill-rule="nonzero" fill-opacity="1"></path><path clip-path="url(#clip510)" d="M277.928 1460.42 L277.928 1464.45 Q276.123 1463.52 274.179 1463.06 Q272.234 1462.59 270.151 1462.59 Q266.979 1462.59 265.382 1463.57 Q263.808 1464.54 263.808 1466.48 Q263.808 1467.96 264.942 1468.82 Q266.077 1469.65 269.503 1470.42 L270.961 1470.74 Q275.498 1471.71 277.396 1473.5 Q279.317 1475.26 279.317 1478.43 Q279.317 1482.04 276.447 1484.14 Q273.6 1486.25 268.6 1486.25 Q266.517 1486.25 264.248 1485.83 Q262.003 1485.44 259.503 1484.63 L259.503 1480.23 Q261.864 1481.46 264.155 1482.08 Q266.447 1482.69 268.692 1482.69 Q271.702 1482.69 273.322 1481.67 Q274.942 1480.63 274.942 1478.75 Q274.942 1477.02 273.762 1476.09 Q272.604 1475.16 268.646 1474.31 L267.165 1473.96 Q263.206 1473.13 261.447 1471.41 Q259.688 1469.68 259.688 1466.67 Q259.688 1463.01 262.28 1461.02 Q264.873 1459.03 269.642 1459.03 Q272.003 1459.03 274.086 1459.38 Q276.169 1459.72 277.928 1460.42 Z" fill="#000000" fill-rule="nonzero" fill-opacity="1"></path><path clip-path="url(#clip510)" d="M308.276 1471.55 L308.276 1473.64 L288.692 1473.64 Q288.97 1478.03 291.331 1480.35 Q293.715 1482.64 297.952 1482.64 Q300.405 1482.64 302.697 1482.04 Q305.012 1481.44 307.28 1480.23 L307.28 1484.26 Q304.989 1485.23 302.581 1485.74 Q300.174 1486.25 297.697 1486.25 Q291.493 1486.25 287.859 1482.64 Q284.248 1479.03 284.248 1472.87 Q284.248 1466.51 287.674 1462.78 Q291.123 1459.03 296.956 1459.03 Q302.188 1459.03 305.22 1462.41 Q308.276 1465.77 308.276 1471.55 M304.016 1470.3 Q303.97 1466.81 302.049 1464.72 Q300.151 1462.64 297.002 1462.64 Q293.438 1462.64 291.285 1464.65 Q289.155 1466.67 288.831 1470.33 L304.016 1470.3 Z" fill="#000000" fill-rule="nonzero" fill-opacity="1"></path><path clip-path="url(#clip510)" d="M342.072 1455.63 L335.729 1472.83 L348.437 1472.83 L342.072 1455.63 M339.433 1451.02 L344.734 1451.02 L357.905 1485.58 L353.044 1485.58 L349.896 1476.71 L334.317 1476.71 L331.169 1485.58 L326.238 1485.58 L339.433 1451.02 Z" fill="#000000" fill-rule="nonzero" fill-opacity="1"></path><path clip-path="url(#clip510)" d="M855.369 1454.86 L855.369 1467.85 L861.249 1467.85 Q864.513 1467.85 866.295 1466.16 Q868.078 1464.47 868.078 1461.34 Q868.078 1458.24 866.295 1456.55 Q864.513 1454.86 861.249 1454.86 L855.369 1454.86 M850.693 1451.02 L861.249 1451.02 Q867.059 1451.02 870.022 1453.66 Q873.008 1456.27 873.008 1461.34 Q873.008 1466.46 870.022 1469.08 Q867.059 1471.69 861.249 1471.69 L855.369 1471.69 L855.369 1485.58 L850.693 1485.58 L850.693 1451.02 Z" fill="#000000" fill-rule="nonzero" fill-opacity="1"></path><path clip-path="url(#clip510)" d="M900.647 1469.93 L900.647 1485.58 L896.388 1485.58 L896.388 1470.07 Q896.388 1466.39 894.952 1464.56 Q893.517 1462.73 890.647 1462.73 Q887.198 1462.73 885.207 1464.93 Q883.216 1467.13 883.216 1470.93 L883.216 1485.58 L878.934 1485.58 L878.934 1449.56 L883.216 1449.56 L883.216 1463.68 Q884.744 1461.34 886.804 1460.19 Q888.888 1459.03 891.596 1459.03 Q896.063 1459.03 898.355 1461.81 Q900.647 1464.56 900.647 1469.93 Z" fill="#000000" fill-rule="nonzero" fill-opacity="1"></path><path clip-path="url(#clip510)" d="M920.924 1472.55 Q915.762 1472.55 913.772 1473.73 Q911.781 1474.91 911.781 1477.76 Q911.781 1480.02 913.262 1481.37 Q914.767 1482.69 917.337 1482.69 Q920.878 1482.69 923.008 1480.19 Q925.161 1477.66 925.161 1473.5 L925.161 1472.55 L920.924 1472.55 M929.42 1470.79 L929.42 1485.58 L925.161 1485.58 L925.161 1481.64 Q923.702 1484.01 921.526 1485.14 Q919.35 1486.25 916.202 1486.25 Q912.221 1486.25 909.86 1484.03 Q907.522 1481.78 907.522 1478.03 Q907.522 1473.66 910.438 1471.44 Q913.378 1469.21 919.188 1469.21 L925.161 1469.21 L925.161 1468.8 Q925.161 1465.86 923.216 1464.26 Q921.295 1462.64 917.799 1462.64 Q915.577 1462.64 913.471 1463.17 Q911.364 1463.7 909.42 1464.77 L909.42 1460.83 Q911.758 1459.93 913.957 1459.49 Q916.156 1459.03 918.239 1459.03 Q923.864 1459.03 926.642 1461.95 Q929.42 1464.86 929.42 1470.79 Z" fill="#000000" fill-rule="nonzero" fill-opacity="1"></path><path clip-path="url(#clip510)" d="M954.721 1460.42 L954.721 1464.45 Q952.915 1463.52 950.971 1463.06 Q949.026 1462.59 946.943 1462.59 Q943.772 1462.59 942.174 1463.57 Q940.6 1464.54 940.6 1466.48 Q940.6 1467.96 941.735 1468.82 Q942.869 1469.65 946.295 1470.42 L947.753 1470.74 Q952.29 1471.71 954.188 1473.5 Q956.109 1475.26 956.109 1478.43 Q956.109 1482.04 953.239 1484.14 Q950.392 1486.25 945.392 1486.25 Q943.309 1486.25 941.04 1485.83 Q938.795 1485.44 936.295 1484.63 L936.295 1480.23 Q938.656 1481.46 940.947 1482.08 Q943.239 1482.69 945.485 1482.69 Q948.494 1482.69 950.114 1481.67 Q951.734 1480.63 951.734 1478.75 Q951.734 1477.02 950.554 1476.09 Q949.397 1475.16 945.438 1474.31 L943.957 1473.96 Q939.998 1473.13 938.239 1471.41 Q936.48 1469.68 936.48 1466.67 Q936.48 1463.01 939.073 1461.02 Q941.665 1459.03 946.434 1459.03 Q948.795 1459.03 950.878 1459.38 Q952.961 1459.72 954.721 1460.42 Z" fill="#000000" fill-rule="nonzero" fill-opacity="1"></path><path clip-path="url(#clip510)" d="M985.068 1471.55 L985.068 1473.64 L965.484 1473.64 Q965.762 1478.03 968.123 1480.35 Q970.508 1482.64 974.744 1482.64 Q977.197 1482.64 979.489 1482.04 Q981.804 1481.44 984.072 1480.23 L984.072 1484.26 Q981.781 1485.23 979.373 1485.74 Q976.966 1486.25 974.489 1486.25 Q968.285 1486.25 964.651 1482.64 Q961.04 1479.03 961.04 1472.87 Q961.04 1466.51 964.466 1462.78 Q967.915 1459.03 973.748 1459.03 Q978.98 1459.03 982.012 1462.41 Q985.068 1465.77 985.068 1471.55 M980.808 1470.3 Q980.762 1466.81 978.841 1464.72 Q976.943 1462.64 973.795 1462.64 Q970.23 1462.64 968.077 1464.65 Q965.947 1466.67 965.623 1470.33 L980.808 1470.3 Z" fill="#000000" fill-rule="nonzero" fill-opacity="1"></path><path clip-path="url(#clip510)" d="M1011.99 1469.08 L1011.99 1481.74 L1019.49 1481.74 Q1023.26 1481.74 1025.07 1480.19 Q1026.9 1478.61 1026.9 1475.39 Q1026.9 1472.15 1025.07 1470.63 Q1023.26 1469.08 1019.49 1469.08 L1011.99 1469.08 M1011.99 1454.86 L1011.99 1465.28 L1018.91 1465.28 Q1022.34 1465.28 1024 1464.01 Q1025.69 1462.71 1025.69 1460.07 Q1025.69 1457.45 1024 1456.16 Q1022.34 1454.86 1018.91 1454.86 L1011.99 1454.86 M1007.31 1451.02 L1019.26 1451.02 Q1024.6 1451.02 1027.5 1453.24 Q1030.39 1455.46 1030.39 1459.56 Q1030.39 1462.73 1028.91 1464.61 Q1027.43 1466.48 1024.56 1466.95 Q1028.01 1467.69 1029.91 1470.05 Q1031.83 1472.39 1031.83 1475.9 Q1031.83 1480.53 1028.68 1483.06 Q1025.53 1485.58 1019.72 1485.58 L1007.31 1485.58 L1007.31 1451.02 Z" fill="#000000" fill-rule="nonzero" fill-opacity="1"></path><path clip-path="url(#clip510)" d="M1530.04 1454.86 L1530.04 1467.85 L1535.92 1467.85 Q1539.19 1467.85 1540.97 1466.16 Q1542.75 1464.47 1542.75 1461.34 Q1542.75 1458.24 1540.97 1456.55 Q1539.19 1454.86 1535.92 1454.86 L1530.04 1454.86 M1525.37 1451.02 L1535.92 1451.02 Q1541.73 1451.02 1544.7 1453.66 Q1547.68 1456.27 1547.68 1461.34 Q1547.68 1466.46 1544.7 1469.08 Q1541.73 1471.69 1535.92 1471.69 L1530.04 1471.69 L1530.04 1485.58 L1525.37 1485.58 L1525.37 1451.02 Z" fill="#000000" fill-rule="nonzero" fill-opacity="1"></path><path clip-path="url(#clip510)" d="M1575.32 1469.93 L1575.32 1485.58 L1571.06 1485.58 L1571.06 1470.07 Q1571.06 1466.39 1569.63 1464.56 Q1568.19 1462.73 1565.32 1462.73 Q1561.87 1462.73 1559.88 1464.93 Q1557.89 1467.13 1557.89 1470.93 L1557.89 1485.58 L1553.61 1485.58 L1553.61 1449.56 L1557.89 1449.56 L1557.89 1463.68 Q1559.42 1461.34 1561.48 1460.19 Q1563.56 1459.03 1566.27 1459.03 Q1570.74 1459.03 1573.03 1461.81 Q1575.32 1464.56 1575.32 1469.93 Z" fill="#000000" fill-rule="nonzero" fill-opacity="1"></path><path clip-path="url(#clip510)" d="M1595.6 1472.55 Q1590.44 1472.55 1588.45 1473.73 Q1586.46 1474.91 1586.46 1477.76 Q1586.46 1480.02 1587.94 1481.37 Q1589.44 1482.69 1592.01 1482.69 Q1595.55 1482.69 1597.68 1480.19 Q1599.83 1477.66 1599.83 1473.5 L1599.83 1472.55 L1595.6 1472.55 M1604.09 1470.79 L1604.09 1485.58 L1599.83 1485.58 L1599.83 1481.64 Q1598.38 1484.01 1596.2 1485.14 Q1594.02 1486.25 1590.88 1486.25 Q1586.89 1486.25 1584.53 1484.03 Q1582.2 1481.78 1582.2 1478.03 Q1582.2 1473.66 1585.11 1471.44 Q1588.05 1469.21 1593.86 1469.21 L1599.83 1469.21 L1599.83 1468.8 Q1599.83 1465.86 1597.89 1464.26 Q1595.97 1462.64 1592.47 1462.64 Q1590.25 1462.64 1588.14 1463.17 Q1586.04 1463.7 1584.09 1464.77 L1584.09 1460.83 Q1586.43 1459.93 1588.63 1459.49 Q1590.83 1459.03 1592.91 1459.03 Q1598.54 1459.03 1601.32 1461.95 Q1604.09 1464.86 1604.09 1470.79 Z" fill="#000000" fill-rule="nonzero" fill-opacity="1"></path><path clip-path="url(#clip510)" d="M1629.39 1460.42 L1629.39 1464.45 Q1627.59 1463.52 1625.64 1463.06 Q1623.7 1462.59 1621.62 1462.59 Q1618.45 1462.59 1616.85 1463.57 Q1615.27 1464.54 1615.27 1466.48 Q1615.27 1467.96 1616.41 1468.82 Q1617.54 1469.65 1620.97 1470.42 L1622.43 1470.74 Q1626.96 1471.71 1628.86 1473.5 Q1630.78 1475.26 1630.78 1478.43 Q1630.78 1482.04 1627.91 1484.14 Q1625.07 1486.25 1620.07 1486.25 Q1617.98 1486.25 1615.71 1485.83 Q1613.47 1485.44 1610.97 1484.63 L1610.97 1480.23 Q1613.33 1481.46 1615.62 1482.08 Q1617.91 1482.69 1620.16 1482.69 Q1623.17 1482.69 1624.79 1481.67 Q1626.41 1480.63 1626.41 1478.75 Q1626.41 1477.02 1625.23 1476.09 Q1624.07 1475.16 1620.11 1474.31 L1618.63 1473.96 Q1614.67 1473.13 1612.91 1471.41 Q1611.15 1469.68 1611.15 1466.67 Q1611.15 1463.01 1613.75 1461.02 Q1616.34 1459.03 1621.11 1459.03 Q1623.47 1459.03 1625.55 1459.38 Q1627.64 1459.72 1629.39 1460.42 Z" fill="#000000" fill-rule="nonzero" fill-opacity="1"></path><path clip-path="url(#clip510)" d="M1659.74 1471.55 L1659.74 1473.64 L1640.16 1473.64 Q1640.44 1478.03 1642.8 1480.35 Q1645.18 1482.64 1649.42 1482.64 Q1651.87 1482.64 1654.16 1482.04 Q1656.48 1481.44 1658.75 1480.23 L1658.75 1484.26 Q1656.45 1485.23 1654.05 1485.74 Q1651.64 1486.25 1649.16 1486.25 Q1642.96 1486.25 1639.33 1482.64 Q1635.71 1479.03 1635.71 1472.87 Q1635.71 1466.51 1639.14 1462.78 Q1642.59 1459.03 1648.42 1459.03 Q1653.65 1459.03 1656.69 1462.41 Q1659.74 1465.77 1659.74 1471.55 M1655.48 1470.3 Q1655.44 1466.81 1653.51 1464.72 Q1651.62 1462.64 1648.47 1462.64 Q1644.9 1462.64 1642.75 1464.65 Q1640.62 1466.67 1640.3 1470.33 L1655.48 1470.3 Z" fill="#000000" fill-rule="nonzero" fill-opacity="1"></path><path clip-path="url(#clip510)" d="M1707.87 1453.68 L1707.87 1458.61 Q1705.51 1456.41 1702.82 1455.33 Q1700.16 1454.24 1697.15 1454.24 Q1691.22 1454.24 1688.07 1457.87 Q1684.93 1461.48 1684.93 1468.33 Q1684.93 1475.16 1688.07 1478.8 Q1691.22 1482.41 1697.15 1482.41 Q1700.16 1482.41 1702.82 1481.32 Q1705.51 1480.23 1707.87 1478.03 L1707.87 1482.92 Q1705.41 1484.58 1702.66 1485.42 Q1699.93 1486.25 1696.87 1486.25 Q1689.02 1486.25 1684.51 1481.46 Q1680 1476.64 1680 1468.33 Q1680 1460 1684.51 1455.21 Q1689.02 1450.39 1696.87 1450.39 Q1699.97 1450.39 1702.7 1451.23 Q1705.46 1452.04 1707.87 1453.68 Z" fill="#000000" fill-rule="nonzero" fill-opacity="1"></path><path clip-path="url(#clip510)" d="M2209.03 1451.02 L2215.33 1451.02 L2230.65 1479.93 L2230.65 1451.02 L2235.19 1451.02 L2235.19 1485.58 L2228.9 1485.58 L2213.57 1456.67 L2213.57 1485.58 L2209.03 1485.58 L2209.03 1451.02 Z" fill="#000000" fill-rule="nonzero" fill-opacity="1"></path><path clip-path="url(#clip510)" d="M2266.49 1471.55 L2266.49 1473.64 L2246.9 1473.64 Q2247.18 1478.03 2249.54 1480.35 Q2251.93 1482.64 2256.16 1482.64 Q2258.62 1482.64 2260.91 1482.04 Q2263.22 1481.44 2265.49 1480.23 L2265.49 1484.26 Q2263.2 1485.23 2260.79 1485.74 Q2258.39 1486.25 2255.91 1486.25 Q2249.71 1486.25 2246.07 1482.64 Q2242.46 1479.03 2242.46 1472.87 Q2242.46 1466.51 2245.89 1462.78 Q2249.34 1459.03 2255.17 1459.03 Q2260.4 1459.03 2263.43 1462.41 Q2266.49 1465.77 2266.49 1471.55 M2262.23 1470.3 Q2262.18 1466.81 2260.26 1464.72 Q2258.36 1462.64 2255.21 1462.64 Q2251.65 1462.64 2249.5 1464.65 Q2247.37 1466.67 2247.04 1470.33 L2262.23 1470.3 Z" fill="#000000" fill-rule="nonzero" fill-opacity="1"></path><path clip-path="url(#clip510)" d="M2273.04 1475.35 L2273.04 1459.65 L2277.3 1459.65 L2277.3 1475.19 Q2277.3 1478.87 2278.73 1480.72 Q2280.17 1482.55 2283.04 1482.55 Q2286.49 1482.55 2288.48 1480.35 Q2290.49 1478.15 2290.49 1474.35 L2290.49 1459.65 L2294.75 1459.65 L2294.75 1485.58 L2290.49 1485.58 L2290.49 1481.6 Q2288.94 1483.96 2286.88 1485.12 Q2284.84 1486.25 2282.14 1486.25 Q2277.67 1486.25 2275.35 1483.47 Q2273.04 1480.7 2273.04 1475.35 M2283.76 1459.03 L2283.76 1459.03 Z" fill="#000000" fill-rule="nonzero" fill-opacity="1"></path><path clip-path="url(#clip510)" d="M2307.74 1452.29 L2307.74 1459.65 L2316.51 1459.65 L2316.51 1462.96 L2307.74 1462.96 L2307.74 1477.04 Q2307.74 1480.21 2308.59 1481.11 Q2309.47 1482.02 2312.14 1482.02 L2316.51 1482.02 L2316.51 1485.58 L2312.14 1485.58 Q2307.21 1485.58 2305.33 1483.75 Q2303.46 1481.9 2303.46 1477.04 L2303.46 1462.96 L2300.33 1462.96 L2300.33 1459.65 L2303.46 1459.65 L2303.46 1452.29 L2307.74 1452.29 Z" fill="#000000" fill-rule="nonzero" fill-opacity="1"></path><path clip-path="url(#clip510)" d="M2337.14 1463.64 Q2336.42 1463.22 2335.56 1463.03 Q2334.73 1462.83 2333.71 1462.83 Q2330.1 1462.83 2328.15 1465.19 Q2326.23 1467.52 2326.23 1471.92 L2326.23 1485.58 L2321.95 1485.58 L2321.95 1459.65 L2326.23 1459.65 L2326.23 1463.68 Q2327.58 1461.32 2329.73 1460.19 Q2331.88 1459.03 2334.96 1459.03 Q2335.4 1459.03 2335.93 1459.1 Q2336.46 1459.14 2337.11 1459.26 L2337.14 1463.64 Z" fill="#000000" fill-rule="nonzero" fill-opacity="1"></path><path clip-path="url(#clip510)" d="M2353.39 1472.55 Q2348.22 1472.55 2346.23 1473.73 Q2344.24 1474.91 2344.24 1477.76 Q2344.24 1480.02 2345.72 1481.37 Q2347.23 1482.69 2349.8 1482.69 Q2353.34 1482.69 2355.47 1480.19 Q2357.62 1477.66 2357.62 1473.5 L2357.62 1472.55 L2353.39 1472.55 M2361.88 1470.79 L2361.88 1485.58 L2357.62 1485.58 L2357.62 1481.64 Q2356.16 1484.01 2353.99 1485.14 Q2351.81 1486.25 2348.66 1486.25 Q2344.68 1486.25 2342.32 1484.03 Q2339.98 1481.78 2339.98 1478.03 Q2339.98 1473.66 2342.9 1471.44 Q2345.84 1469.21 2351.65 1469.21 L2357.62 1469.21 L2357.62 1468.8 Q2357.62 1465.86 2355.68 1464.26 Q2353.76 1462.64 2350.26 1462.64 Q2348.04 1462.64 2345.93 1463.17 Q2343.83 1463.7 2341.88 1464.77 L2341.88 1460.83 Q2344.22 1459.93 2346.42 1459.49 Q2348.62 1459.03 2350.7 1459.03 Q2356.33 1459.03 2359.1 1461.95 Q2361.88 1464.86 2361.88 1470.79 Z" fill="#000000" fill-rule="nonzero" fill-opacity="1"></path><path clip-path="url(#clip510)" d="M2370.65 1449.56 L2374.91 1449.56 L2374.91 1485.58 L2370.65 1485.58 L2370.65 1449.56 Z" fill="#000000" fill-rule="nonzero" fill-opacity="1"></path><path clip-path="url(#clip510)" d="M1192.99 1525.81 L1192.99 1543.66 L1201.07 1543.66 Q1205.56 1543.66 1208.01 1541.34 Q1210.46 1539.02 1210.46 1534.72 Q1210.46 1530.45 1208.01 1528.13 Q1205.56 1525.81 1201.07 1525.81 L1192.99 1525.81 M1186.56 1520.52 L1201.07 1520.52 Q1209.06 1520.52 1213.13 1524.15 Q1217.24 1527.75 1217.24 1534.72 Q1217.24 1541.75 1213.13 1545.35 Q1209.06 1548.95 1201.07 1548.95 L1192.99 1548.95 L1192.99 1568.04 L1186.56 1568.04 L1186.56 1520.52 Z" fill="#000000" fill-rule="nonzero" fill-opacity="1"></path><path clip-path="url(#clip510)" d="M1255.24 1546.53 L1255.24 1568.04 L1249.39 1568.04 L1249.39 1546.72 Q1249.39 1541.66 1247.41 1539.14 Q1245.44 1536.63 1241.49 1536.63 Q1236.75 1536.63 1234.01 1539.65 Q1231.28 1542.68 1231.28 1547.9 L1231.28 1568.04 L1225.39 1568.04 L1225.39 1518.52 L1231.28 1518.52 L1231.28 1537.93 Q1233.38 1534.72 1236.21 1533.13 Q1239.07 1531.54 1242.8 1531.54 Q1248.94 1531.54 1252.09 1535.36 Q1255.24 1539.14 1255.24 1546.53 Z" fill="#000000" fill-rule="nonzero" fill-opacity="1"></path><path clip-path="url(#clip510)" d="M1283.12 1550.12 Q1276.03 1550.12 1273.29 1551.75 Q1270.55 1553.37 1270.55 1557.29 Q1270.55 1560.4 1272.59 1562.25 Q1274.66 1564.07 1278.19 1564.07 Q1283.06 1564.07 1285.99 1560.63 Q1288.95 1557.16 1288.95 1551.43 L1288.95 1550.12 L1283.12 1550.12 M1294.8 1547.71 L1294.8 1568.04 L1288.95 1568.04 L1288.95 1562.63 Q1286.94 1565.88 1283.95 1567.44 Q1280.96 1568.97 1276.63 1568.97 Q1271.16 1568.97 1267.91 1565.91 Q1264.7 1562.82 1264.7 1557.67 Q1264.7 1551.65 1268.71 1548.6 Q1272.75 1545.54 1280.74 1545.54 L1288.95 1545.54 L1288.95 1544.97 Q1288.95 1540.93 1286.27 1538.73 Q1283.63 1536.5 1278.83 1536.5 Q1275.77 1536.5 1272.88 1537.23 Q1269.98 1537.97 1267.31 1539.43 L1267.31 1534.02 Q1270.52 1532.78 1273.54 1532.17 Q1276.57 1531.54 1279.43 1531.54 Q1287.17 1531.54 1290.99 1535.55 Q1294.8 1539.56 1294.8 1547.71 Z" fill="#000000" fill-rule="nonzero" fill-opacity="1"></path><path clip-path="url(#clip510)" d="M1329.59 1533.45 L1329.59 1538.98 Q1327.11 1537.71 1324.44 1537.07 Q1321.76 1536.44 1318.9 1536.44 Q1314.54 1536.44 1312.34 1537.77 Q1310.18 1539.11 1310.18 1541.79 Q1310.18 1543.82 1311.74 1545 Q1313.3 1546.15 1318.01 1547.2 L1320.01 1547.64 Q1326.25 1548.98 1328.86 1551.43 Q1331.5 1553.85 1331.5 1558.21 Q1331.5 1563.17 1327.56 1566.07 Q1323.64 1568.97 1316.77 1568.97 Q1313.9 1568.97 1310.78 1568.39 Q1307.7 1567.85 1304.26 1566.74 L1304.26 1560.69 Q1307.5 1562.38 1310.66 1563.24 Q1313.81 1564.07 1316.89 1564.07 Q1321.03 1564.07 1323.26 1562.66 Q1325.49 1561.23 1325.49 1558.65 Q1325.49 1556.27 1323.86 1554.99 Q1322.27 1553.72 1316.83 1552.54 L1314.79 1552.07 Q1309.35 1550.92 1306.93 1548.56 Q1304.51 1546.18 1304.51 1542.04 Q1304.51 1537.01 1308.08 1534.27 Q1311.64 1531.54 1318.2 1531.54 Q1321.45 1531.54 1324.31 1532.01 Q1327.17 1532.49 1329.59 1533.45 Z" fill="#000000" fill-rule="nonzero" fill-opacity="1"></path><path clip-path="url(#clip510)" d="M1371.32 1548.76 L1371.32 1551.62 L1344.39 1551.62 Q1344.78 1557.67 1348.02 1560.85 Q1351.3 1564 1357.13 1564 Q1360.5 1564 1363.65 1563.17 Q1366.83 1562.35 1369.95 1560.69 L1369.95 1566.23 Q1366.8 1567.57 1363.49 1568.27 Q1360.18 1568.97 1356.78 1568.97 Q1348.25 1568.97 1343.25 1564 Q1338.28 1559.04 1338.28 1550.57 Q1338.28 1541.82 1342.99 1536.69 Q1347.74 1531.54 1355.76 1531.54 Q1362.95 1531.54 1367.12 1536.18 Q1371.32 1540.8 1371.32 1548.76 M1365.46 1547.04 Q1365.4 1542.23 1362.76 1539.37 Q1360.15 1536.5 1355.82 1536.5 Q1350.92 1536.5 1347.96 1539.27 Q1345.03 1542.04 1344.58 1547.07 L1365.46 1547.04 Z" fill="#000000" fill-rule="nonzero" fill-opacity="1"></path><polyline clip-path="url(#clip510)" style="stroke:#000000; stroke-linecap:round; stroke-linejoin:round; stroke-width:4; stroke-opacity:1; fill:none" points="205.121,1423.18 205.121,123.472 "></polyline>
<polyline clip-path="url(#clip510)" style="stroke:#000000; stroke-linecap:round; stroke-linejoin:round; stroke-width:4; stroke-opacity:1; fill:none" points="205.121,1389.58 224.019,1389.58 "></polyline>
<polyline clip-path="url(#clip510)" style="stroke:#000000; stroke-linecap:round; stroke-linejoin:round; stroke-width:4; stroke-opacity:1; fill:none" points="205.121,1077.37 224.019,1077.37 "></polyline>
<polyline clip-path="url(#clip510)" style="stroke:#000000; stroke-linecap:round; stroke-linejoin:round; stroke-width:4; stroke-opacity:1; fill:none" points="205.121,765.168 224.019,765.168 "></polyline>
<polyline clip-path="url(#clip510)" style="stroke:#000000; stroke-linecap:round; stroke-linejoin:round; stroke-width:4; stroke-opacity:1; fill:none" points="205.121,452.962 224.019,452.962 "></polyline>
<polyline clip-path="url(#clip510)" style="stroke:#000000; stroke-linecap:round; stroke-linejoin:round; stroke-width:4; stroke-opacity:1; fill:none" points="205.121,140.756 224.019,140.756 "></polyline>
<path clip-path="url(#clip510)" d="M157.177 1375.38 Q153.566 1375.38 151.737 1378.94 Q149.931 1382.48 149.931 1389.61 Q149.931 1396.72 151.737 1400.29 Q153.566 1403.83 157.177 1403.83 Q160.811 1403.83 162.616 1400.29 Q164.445 1396.72 164.445 1389.61 Q164.445 1382.48 162.616 1378.94 Q160.811 1375.38 157.177 1375.38 M157.177 1371.67 Q162.987 1371.67 166.042 1376.28 Q169.121 1380.86 169.121 1389.61 Q169.121 1398.34 166.042 1402.95 Q162.987 1407.53 157.177 1407.53 Q151.366 1407.53 148.288 1402.95 Q145.232 1398.34 145.232 1389.61 Q145.232 1380.86 148.288 1376.28 Q151.366 1371.67 157.177 1371.67 Z" fill="#000000" fill-rule="nonzero" fill-opacity="1"></path><path clip-path="url(#clip510)" d="M117.825 1090.72 L125.464 1090.72 L125.464 1064.35 L117.154 1066.02 L117.154 1061.76 L125.418 1060.09 L130.093 1060.09 L130.093 1090.72 L137.732 1090.72 L137.732 1094.65 L117.825 1094.65 L117.825 1090.72 Z" fill="#000000" fill-rule="nonzero" fill-opacity="1"></path><path clip-path="url(#clip510)" d="M157.177 1063.17 Q153.566 1063.17 151.737 1066.74 Q149.931 1070.28 149.931 1077.41 Q149.931 1084.51 151.737 1088.08 Q153.566 1091.62 157.177 1091.62 Q160.811 1091.62 162.616 1088.08 Q164.445 1084.51 164.445 1077.41 Q164.445 1070.28 162.616 1066.74 Q160.811 1063.17 157.177 1063.17 M157.177 1059.47 Q162.987 1059.47 166.042 1064.08 Q169.121 1068.66 169.121 1077.41 Q169.121 1086.14 166.042 1090.74 Q162.987 1095.32 157.177 1095.32 Q151.366 1095.32 148.288 1090.74 Q145.232 1086.14 145.232 1077.41 Q145.232 1068.66 148.288 1064.08 Q151.366 1059.47 157.177 1059.47 Z" fill="#000000" fill-rule="nonzero" fill-opacity="1"></path><path clip-path="url(#clip510)" d="M121.043 778.513 L137.362 778.513 L137.362 782.448 L115.418 782.448 L115.418 778.513 Q118.08 775.758 122.663 771.128 Q127.269 766.476 128.45 765.133 Q130.695 762.61 131.575 760.874 Q132.478 759.114 132.478 757.425 Q132.478 754.67 130.533 752.934 Q128.612 751.198 125.51 751.198 Q123.311 751.198 120.857 751.962 Q118.427 752.726 115.649 754.277 L115.649 749.554 Q118.473 748.42 120.927 747.841 Q123.38 747.263 125.418 747.263 Q130.788 747.263 133.982 749.948 Q137.177 752.633 137.177 757.124 Q137.177 759.253 136.367 761.175 Q135.579 763.073 133.473 765.665 Q132.894 766.337 129.792 769.554 Q126.691 772.749 121.043 778.513 Z" fill="#000000" fill-rule="nonzero" fill-opacity="1"></path><path clip-path="url(#clip510)" d="M157.177 750.966 Q153.566 750.966 151.737 754.531 Q149.931 758.073 149.931 765.202 Q149.931 772.309 151.737 775.874 Q153.566 779.415 157.177 779.415 Q160.811 779.415 162.616 775.874 Q164.445 772.309 164.445 765.202 Q164.445 758.073 162.616 754.531 Q160.811 750.966 157.177 750.966 M157.177 747.263 Q162.987 747.263 166.042 751.869 Q169.121 756.452 169.121 765.202 Q169.121 773.929 166.042 778.536 Q162.987 783.119 157.177 783.119 Q151.366 783.119 148.288 778.536 Q145.232 773.929 145.232 765.202 Q145.232 756.452 148.288 751.869 Q151.366 747.263 157.177 747.263 Z" fill="#000000" fill-rule="nonzero" fill-opacity="1"></path><path clip-path="url(#clip510)" d="M131.181 451.608 Q134.538 452.325 136.413 454.594 Q138.311 456.862 138.311 460.195 Q138.311 465.311 134.792 468.112 Q131.274 470.913 124.793 470.913 Q122.617 470.913 120.302 470.473 Q118.01 470.057 115.556 469.2 L115.556 464.686 Q117.501 465.82 119.816 466.399 Q122.13 466.978 124.654 466.978 Q129.052 466.978 131.343 465.242 Q133.658 463.506 133.658 460.195 Q133.658 457.14 131.505 455.427 Q129.376 453.691 125.556 453.691 L121.529 453.691 L121.529 449.848 L125.742 449.848 Q129.191 449.848 131.019 448.483 Q132.848 447.094 132.848 444.501 Q132.848 441.839 130.95 440.427 Q129.075 438.992 125.556 438.992 Q123.635 438.992 121.436 439.409 Q119.237 439.825 116.598 440.705 L116.598 436.538 Q119.26 435.797 121.575 435.427 Q123.913 435.057 125.973 435.057 Q131.297 435.057 134.399 437.487 Q137.501 439.895 137.501 444.015 Q137.501 446.885 135.857 448.876 Q134.214 450.844 131.181 451.608 Z" fill="#000000" fill-rule="nonzero" fill-opacity="1"></path><path clip-path="url(#clip510)" d="M157.177 438.76 Q153.566 438.76 151.737 442.325 Q149.931 445.867 149.931 452.996 Q149.931 460.103 151.737 463.668 Q153.566 467.209 157.177 467.209 Q160.811 467.209 162.616 463.668 Q164.445 460.103 164.445 452.996 Q164.445 445.867 162.616 442.325 Q160.811 438.76 157.177 438.76 M157.177 435.057 Q162.987 435.057 166.042 439.663 Q169.121 444.247 169.121 452.996 Q169.121 461.723 166.042 466.33 Q162.987 470.913 157.177 470.913 Q151.366 470.913 148.288 466.33 Q145.232 461.723 145.232 452.996 Q145.232 444.247 148.288 439.663 Q151.366 435.057 157.177 435.057 Z" fill="#000000" fill-rule="nonzero" fill-opacity="1"></path><path clip-path="url(#clip510)" d="M129.862 127.55 L118.056 145.999 L129.862 145.999 L129.862 127.55 M128.635 123.476 L134.515 123.476 L134.515 145.999 L139.445 145.999 L139.445 149.888 L134.515 149.888 L134.515 158.036 L129.862 158.036 L129.862 149.888 L114.26 149.888 L114.26 145.374 L128.635 123.476 Z" fill="#000000" fill-rule="nonzero" fill-opacity="1"></path><path clip-path="url(#clip510)" d="M157.177 126.554 Q153.566 126.554 151.737 130.119 Q149.931 133.661 149.931 140.791 Q149.931 147.897 151.737 151.462 Q153.566 155.003 157.177 155.003 Q160.811 155.003 162.616 151.462 Q164.445 147.897 164.445 140.791 Q164.445 133.661 162.616 130.119 Q160.811 126.554 157.177 126.554 M157.177 122.851 Q162.987 122.851 166.042 127.457 Q169.121 132.041 169.121 140.791 Q169.121 149.517 166.042 154.124 Q162.987 158.707 157.177 158.707 Q151.366 158.707 148.288 154.124 Q145.232 149.517 145.232 140.791 Q145.232 132.041 148.288 127.457 Q151.366 122.851 157.177 122.851 Z" fill="#000000" fill-rule="nonzero" fill-opacity="1"></path><path clip-path="url(#clip510)" d="M20.1444 1093.9 L26.9239 1093.9 Q23.9002 1097.15 22.4043 1100.84 Q20.9083 1104.5 20.9083 1108.64 Q20.9083 1116.79 25.9054 1121.12 Q30.8707 1125.45 40.2919 1125.45 Q49.6813 1125.45 54.6784 1121.12 Q59.6436 1116.79 59.6436 1108.64 Q59.6436 1104.5 58.1477 1100.84 Q56.6518 1097.15 53.6281 1093.9 L60.3439 1093.9 Q62.6355 1097.28 63.7814 1101.06 Q64.9272 1104.82 64.9272 1109.02 Q64.9272 1119.81 58.3387 1126.02 Q51.7183 1132.22 40.2919 1132.22 Q28.8336 1132.22 22.2451 1126.02 Q15.6248 1119.81 15.6248 1109.02 Q15.6248 1104.76 16.7706 1101 Q17.8846 1097.21 20.1444 1093.9 Z" fill="#000000" fill-rule="nonzero" fill-opacity="1"></path><path clip-path="url(#clip510)" d="M49.9359 1084.83 L28.3562 1084.83 L28.3562 1078.98 L49.7131 1078.98 Q54.7739 1078.98 57.3202 1077 Q59.8346 1075.03 59.8346 1071.08 Q59.8346 1066.34 56.8109 1063.6 Q53.7872 1060.83 48.5673 1060.83 L28.3562 1060.83 L28.3562 1054.98 L64.0042 1054.98 L64.0042 1060.83 L58.5296 1060.83 Q61.7762 1062.97 63.3676 1065.8 Q64.9272 1068.6 64.9272 1072.32 Q64.9272 1078.47 61.1078 1081.65 Q57.2883 1084.83 49.9359 1084.83 M27.4968 1070.1 L27.4968 1070.1 Z" fill="#000000" fill-rule="nonzero" fill-opacity="1"></path><path clip-path="url(#clip510)" d="M33.8307 1022.26 Q33.2578 1023.24 33.0032 1024.42 Q32.7167 1025.57 32.7167 1026.97 Q32.7167 1031.93 35.9632 1034.61 Q39.1779 1037.25 45.2253 1037.25 L64.0042 1037.25 L64.0042 1043.14 L28.3562 1043.14 L28.3562 1037.25 L33.8944 1037.25 Q30.6479 1035.4 29.0883 1032.44 Q27.4968 1029.48 27.4968 1025.25 Q27.4968 1024.64 27.5923 1023.91 Q27.656 1023.18 27.8151 1022.29 L33.8307 1022.26 Z" fill="#000000" fill-rule="nonzero" fill-opacity="1"></path><path clip-path="url(#clip510)" d="M33.8307 996.603 Q33.2578 997.59 33.0032 998.767 Q32.7167 999.913 32.7167 1001.31 Q32.7167 1006.28 35.9632 1008.95 Q39.1779 1011.59 45.2253 1011.59 L64.0042 1011.59 L64.0042 1017.48 L28.3562 1017.48 L28.3562 1011.59 L33.8944 1011.59 Q30.6479 1009.75 29.0883 1006.79 Q27.4968 1003.83 27.4968 999.595 Q27.4968 998.99 27.5923 998.258 Q27.656 997.526 27.8151 996.635 L33.8307 996.603 Z" fill="#000000" fill-rule="nonzero" fill-opacity="1"></path><path clip-path="url(#clip510)" d="M44.7161 961.401 L47.5806 961.401 L47.5806 988.328 Q53.6281 987.946 56.8109 984.699 Q59.9619 981.421 59.9619 975.596 Q59.9619 972.222 59.1344 969.071 Q58.3069 965.889 56.6518 962.769 L62.1899 962.769 Q63.5267 965.92 64.227 969.231 Q64.9272 972.541 64.9272 975.946 Q64.9272 984.476 59.9619 989.474 Q54.9967 994.439 46.5303 994.439 Q37.7774 994.439 32.6531 989.728 Q27.4968 984.986 27.4968 976.965 Q27.4968 969.772 32.1438 965.602 Q36.7589 961.401 44.7161 961.401 M42.9973 967.257 Q38.1912 967.321 35.3266 969.963 Q32.4621 972.573 32.4621 976.901 Q32.4621 981.803 35.2312 984.763 Q38.0002 987.691 43.0292 988.137 L42.9973 967.257 Z" fill="#000000" fill-rule="nonzero" fill-opacity="1"></path><path clip-path="url(#clip510)" d="M42.4881 922.156 L64.0042 922.156 L64.0042 928.013 L42.679 928.013 Q37.6183 928.013 35.1038 929.986 Q32.5894 931.959 32.5894 935.906 Q32.5894 940.649 35.6131 943.386 Q38.6368 946.123 43.8567 946.123 L64.0042 946.123 L64.0042 952.011 L28.3562 952.011 L28.3562 946.123 L33.8944 946.123 Q30.6797 944.022 29.0883 941.19 Q27.4968 938.325 27.4968 934.601 Q27.4968 928.458 31.3163 925.307 Q35.1038 922.156 42.4881 922.156 Z" fill="#000000" fill-rule="nonzero" fill-opacity="1"></path><path clip-path="url(#clip510)" d="M18.2347 904.682 L28.3562 904.682 L28.3562 892.619 L32.9077 892.619 L32.9077 904.682 L52.2594 904.682 Q56.6199 904.682 57.8613 903.505 Q59.1026 902.295 59.1026 898.635 L59.1026 892.619 L64.0042 892.619 L64.0042 898.635 Q64.0042 905.414 61.4897 907.993 Q58.9434 910.571 52.2594 910.571 L32.9077 910.571 L32.9077 914.867 L28.3562 914.867 L28.3562 910.571 L18.2347 910.571 L18.2347 904.682 Z" fill="#000000" fill-rule="nonzero" fill-opacity="1"></path><path clip-path="url(#clip510)" d="M16.4842 863.942 L16.4842 854.361 L48.8219 842.235 L16.4842 830.044 L16.4842 820.464 L64.0042 820.464 L64.0042 826.734 L22.277 826.734 L54.8694 838.988 L54.8694 845.449 L22.277 857.703 L64.0042 857.703 L64.0042 863.942 L16.4842 863.942 Z" fill="#000000" fill-rule="nonzero" fill-opacity="1"></path><path clip-path="url(#clip510)" d="M46.0847 791.755 Q46.0847 798.852 47.7079 801.59 Q49.3312 804.327 53.2461 804.327 Q56.3653 804.327 58.2114 802.29 Q60.0256 800.221 60.0256 796.688 Q60.0256 791.818 56.5881 788.89 Q53.1188 785.93 47.3897 785.93 L46.0847 785.93 L46.0847 791.755 M43.6657 780.074 L64.0042 780.074 L64.0042 785.93 L58.5933 785.93 Q61.8398 787.935 63.3994 790.927 Q64.9272 793.919 64.9272 798.248 Q64.9272 803.722 61.8716 806.969 Q58.7843 810.183 53.6281 810.183 Q47.6125 810.183 44.5569 806.173 Q41.5014 802.131 41.5014 794.142 L41.5014 785.93 L40.9285 785.93 Q36.8862 785.93 34.6901 788.604 Q32.4621 791.245 32.4621 796.052 Q32.4621 799.107 33.1941 802.003 Q33.9262 804.9 35.3903 807.573 L29.9795 807.573 Q28.7381 804.359 28.1334 801.335 Q27.4968 798.311 27.4968 795.447 Q27.4968 787.712 31.5072 783.893 Q35.5176 780.074 43.6657 780.074 Z" fill="#000000" fill-rule="nonzero" fill-opacity="1"></path><path clip-path="url(#clip510)" d="M45.7664 744.553 Q39.4007 744.553 35.8996 747.195 Q32.3984 749.805 32.3984 754.547 Q32.3984 759.258 35.8996 761.9 Q39.4007 764.509 45.7664 764.509 Q52.1003 764.509 55.6014 761.9 Q59.1026 759.258 59.1026 754.547 Q59.1026 749.805 55.6014 747.195 Q52.1003 744.553 45.7664 744.553 M59.58 738.697 Q68.683 738.697 73.1071 742.739 Q77.5631 746.781 77.5631 755.12 Q77.5631 758.207 77.0857 760.945 Q76.6401 763.682 75.6852 766.26 L69.9879 766.26 Q71.3884 763.682 72.0568 761.167 Q72.7252 758.653 72.7252 756.043 Q72.7252 750.282 69.7015 747.418 Q66.7096 744.553 60.6303 744.553 L57.7339 744.553 Q60.885 746.367 62.4446 749.2 Q64.0042 752.033 64.0042 755.979 Q64.0042 762.536 59.0071 766.547 Q54.01 770.557 45.7664 770.557 Q37.491 770.557 32.4939 766.547 Q27.4968 762.536 27.4968 755.979 Q27.4968 752.033 29.0564 749.2 Q30.616 746.367 33.7671 744.553 L28.3562 744.553 L28.3562 738.697 L59.58 738.697 Z" fill="#000000" fill-rule="nonzero" fill-opacity="1"></path><path clip-path="url(#clip510)" d="M42.4881 697.001 L64.0042 697.001 L64.0042 702.858 L42.679 702.858 Q37.6183 702.858 35.1038 704.831 Q32.5894 706.804 32.5894 710.751 Q32.5894 715.494 35.6131 718.231 Q38.6368 720.968 43.8567 720.968 L64.0042 720.968 L64.0042 726.856 L28.3562 726.856 L28.3562 720.968 L33.8944 720.968 Q30.6797 718.867 29.0883 716.035 Q27.4968 713.17 27.4968 709.446 Q27.4968 703.303 31.3163 700.152 Q35.1038 697.001 42.4881 697.001 Z" fill="#000000" fill-rule="nonzero" fill-opacity="1"></path><path clip-path="url(#clip510)" d="M28.3562 685.32 L28.3562 679.464 L64.0042 679.464 L64.0042 685.32 L28.3562 685.32 M14.479 685.32 L14.479 679.464 L21.895 679.464 L21.895 685.32 L14.479 685.32 Z" fill="#000000" fill-rule="nonzero" fill-opacity="1"></path><path clip-path="url(#clip510)" d="M18.2347 661.417 L28.3562 661.417 L28.3562 649.354 L32.9077 649.354 L32.9077 661.417 L52.2594 661.417 Q56.6199 661.417 57.8613 660.239 Q59.1026 659.03 59.1026 655.369 L59.1026 649.354 L64.0042 649.354 L64.0042 655.369 Q64.0042 662.149 61.4897 664.727 Q58.9434 667.305 52.2594 667.305 L32.9077 667.305 L32.9077 671.602 L28.3562 671.602 L28.3562 667.305 L18.2347 667.305 L18.2347 661.417 Z" fill="#000000" fill-rule="nonzero" fill-opacity="1"></path><path clip-path="url(#clip510)" d="M49.9359 642.256 L28.3562 642.256 L28.3562 636.4 L49.7131 636.4 Q54.7739 636.4 57.3202 634.426 Q59.8346 632.453 59.8346 628.506 Q59.8346 623.764 56.8109 621.026 Q53.7872 618.257 48.5673 618.257 L28.3562 618.257 L28.3562 612.401 L64.0042 612.401 L64.0042 618.257 L58.5296 618.257 Q61.7762 620.39 63.3676 623.223 Q64.9272 626.024 64.9272 629.747 Q64.9272 635.89 61.1078 639.073 Q57.2883 642.256 49.9359 642.256 M27.4968 627.519 L27.4968 627.519 Z" fill="#000000" fill-rule="nonzero" fill-opacity="1"></path><path clip-path="url(#clip510)" d="M33.7671 576.88 L14.479 576.88 L14.479 571.024 L64.0042 571.024 L64.0042 576.88 L58.657 576.88 Q61.8398 578.726 63.3994 581.559 Q64.9272 584.36 64.9272 588.307 Q64.9272 594.768 59.771 598.842 Q54.6147 602.884 46.212 602.884 Q37.8093 602.884 32.6531 598.842 Q27.4968 594.768 27.4968 588.307 Q27.4968 584.36 29.0564 581.559 Q30.5842 578.726 33.7671 576.88 M46.212 596.837 Q52.6732 596.837 56.3653 594.195 Q60.0256 591.521 60.0256 586.874 Q60.0256 582.227 56.3653 579.554 Q52.6732 576.88 46.212 576.88 Q39.7508 576.88 36.0905 579.554 Q32.3984 582.227 32.3984 586.874 Q32.3984 591.521 36.0905 594.195 Q39.7508 596.837 46.212 596.837 Z" fill="#000000" fill-rule="nonzero" fill-opacity="1"></path><path clip-path="url(#clip510)" d="M44.7161 528.469 L47.5806 528.469 L47.5806 555.396 Q53.6281 555.014 56.8109 551.768 Q59.9619 548.489 59.9619 542.665 Q59.9619 539.291 59.1344 536.14 Q58.3069 532.957 56.6518 529.838 L62.1899 529.838 Q63.5267 532.989 64.227 536.299 Q64.9272 539.609 64.9272 543.015 Q64.9272 551.545 59.9619 556.542 Q54.9967 561.507 46.5303 561.507 Q37.7774 561.507 32.6531 556.796 Q27.4968 552.054 27.4968 544.033 Q27.4968 536.84 32.1438 532.67 Q36.7589 528.469 44.7161 528.469 M42.9973 534.326 Q38.1912 534.389 35.3266 537.031 Q32.4621 539.641 32.4621 543.97 Q32.4621 548.871 35.2312 551.831 Q38.0002 554.759 43.0292 555.205 L42.9973 534.326 Z" fill="#000000" fill-rule="nonzero" fill-opacity="1"></path><path clip-path="url(#clip510)" d="M14.5426 484.068 Q21.8632 488.333 29.0246 490.402 Q36.186 492.471 43.5384 492.471 Q50.8908 492.471 58.1159 490.402 Q65.3091 488.301 72.5979 484.068 L72.5979 489.161 Q65.1182 493.935 57.8931 496.322 Q50.668 498.678 43.5384 498.678 Q36.4406 498.678 29.2474 496.322 Q22.0542 493.967 14.5426 489.161 L14.5426 484.068 Z" fill="#000000" fill-rule="nonzero" fill-opacity="1"></path><path clip-path="url(#clip510)" d="M22.818 456.568 L46.4666 465.289 L46.4666 447.816 L22.818 456.568 M16.4842 460.197 L16.4842 452.908 L64.0042 434.798 L64.0042 441.482 L51.8138 445.81 L51.8138 467.231 L64.0042 471.56 L64.0042 478.339 L16.4842 460.197 Z" fill="#000000" fill-rule="nonzero" fill-opacity="1"></path><path clip-path="url(#clip510)" d="M14.5426 429.037 L14.5426 423.944 Q22.0542 419.17 29.2474 416.815 Q36.4406 414.427 43.5384 414.427 Q50.668 414.427 57.8931 416.815 Q65.1182 419.17 72.5979 423.944 L72.5979 429.037 Q65.3091 424.804 58.1159 422.735 Q50.8908 420.634 43.5384 420.634 Q36.186 420.634 29.0246 422.735 Q21.8632 424.804 14.5426 429.037 Z" fill="#000000" fill-rule="nonzero" fill-opacity="1"></path><path clip-path="url(#clip510)" d="M11.7953 12.096 L62.9583 12.096 L62.9583 18.9825 L41.4885 18.9825 L41.4885 72.576 L33.2651 72.576 L33.2651 18.9825 L11.7953 18.9825 L11.7953 12.096 Z" fill="#000000" fill-rule="nonzero" fill-opacity="1"></path><path clip-path="url(#clip510)" d="M84.6306 34.1734 Q83.3748 33.4443 81.876 33.1202 Q80.4177 32.7556 78.6353 32.7556 Q72.3159 32.7556 68.9131 36.8875 Q65.5508 40.9789 65.5508 48.6757 L65.5508 72.576 L58.0567 72.576 L58.0567 27.2059 L65.5508 27.2059 L65.5508 34.2544 Q67.9004 30.1225 71.6677 28.1376 Q75.4351 26.1121 80.8228 26.1121 Q81.5924 26.1121 82.5241 26.2337 Q83.4558 26.3147 84.5901 26.5172 L84.6306 34.1734 Z" fill="#000000" fill-rule="nonzero" fill-opacity="1"></path><path clip-path="url(#clip510)" d="M113.068 49.7694 Q104.034 49.7694 100.551 51.8354 Q97.0669 53.9013 97.0669 58.8839 Q97.0669 62.8538 99.6595 65.2034 Q102.293 67.5124 106.789 67.5124 Q112.987 67.5124 116.714 63.1374 Q120.481 58.7219 120.481 51.4303 L120.481 49.7694 L113.068 49.7694 M127.935 46.6907 L127.935 72.576 L120.481 72.576 L120.481 65.6895 Q117.929 69.8214 114.121 71.8063 Q110.313 73.7508 104.804 73.7508 Q97.8366 73.7508 93.7046 69.8619 Q89.6132 65.9325 89.6132 59.3701 Q89.6132 51.7138 94.7174 47.825 Q99.862 43.9361 110.03 43.9361 L120.481 43.9361 L120.481 43.2069 Q120.481 38.0623 117.078 35.2672 Q113.716 32.4315 107.599 32.4315 Q103.71 32.4315 100.024 33.3632 Q96.3377 34.295 92.935 36.1584 L92.935 29.2718 Q97.0264 27.692 100.875 26.9223 Q104.723 26.1121 108.369 26.1121 Q118.213 26.1121 123.074 31.2163 Q127.935 36.3204 127.935 46.6907 Z" fill="#000000" fill-rule="nonzero" fill-opacity="1"></path><path clip-path="url(#clip510)" d="M181.002 45.1919 L181.002 72.576 L173.548 72.576 L173.548 45.4349 Q173.548 38.994 171.036 35.7938 Q168.525 32.5936 163.502 32.5936 Q157.466 32.5936 153.982 36.4419 Q150.498 40.2903 150.498 46.9338 L150.498 72.576 L143.004 72.576 L143.004 27.2059 L150.498 27.2059 L150.498 34.2544 Q153.172 30.163 156.777 28.1376 Q160.423 26.1121 165.163 26.1121 Q172.981 26.1121 176.991 30.9732 Q181.002 35.7938 181.002 45.1919 Z" fill="#000000" fill-rule="nonzero" fill-opacity="1"></path><path clip-path="url(#clip510)" d="M224.792 28.5427 L224.792 35.5912 Q221.632 33.9709 218.229 33.1607 Q214.827 32.3505 211.181 32.3505 Q205.631 32.3505 202.836 34.0519 Q200.081 35.7533 200.081 39.156 Q200.081 41.7486 202.066 43.2475 Q204.051 44.7058 210.047 46.0426 L212.599 46.6097 Q220.538 48.3111 223.86 51.4303 Q227.222 54.509 227.222 60.0587 Q227.222 66.3781 222.199 70.0644 Q217.217 73.7508 208.467 73.7508 Q204.821 73.7508 200.851 73.0216 Q196.922 72.3329 192.547 70.9151 L192.547 63.2184 Q196.679 65.3654 200.689 66.4591 Q204.699 67.5124 208.629 67.5124 Q213.895 67.5124 216.731 65.73 Q219.566 63.9071 219.566 60.6258 Q219.566 57.5877 217.5 55.9673 Q215.475 54.3469 208.548 52.8481 L205.955 52.2405 Q199.028 50.7821 195.949 47.7845 Q192.871 44.7463 192.871 39.4801 Q192.871 33.0797 197.408 29.5959 Q201.945 26.1121 210.29 26.1121 Q214.422 26.1121 218.067 26.7198 Q221.713 27.3274 224.792 28.5427 Z" fill="#000000" fill-rule="nonzero" fill-opacity="1"></path><path clip-path="url(#clip510)" d="M262.06 9.54393 L262.06 15.7418 L254.931 15.7418 Q250.92 15.7418 249.34 17.3622 Q247.801 18.9825 247.801 23.1955 L247.801 27.2059 L260.075 27.2059 L260.075 32.9987 L247.801 32.9987 L247.801 72.576 L240.307 72.576 L240.307 32.9987 L233.177 32.9987 L233.177 27.2059 L240.307 27.2059 L240.307 24.0462 Q240.307 16.471 243.831 13.0277 Q247.355 9.54393 255.012 9.54393 L262.06 9.54393 Z" fill="#000000" fill-rule="nonzero" fill-opacity="1"></path><path clip-path="url(#clip510)" d="M285.88 32.4315 Q279.884 32.4315 276.4 37.1306 Q272.917 41.7891 272.917 49.9314 Q272.917 58.0738 276.36 62.7728 Q279.844 67.4314 285.88 67.4314 Q291.834 67.4314 295.318 62.7323 Q298.802 58.0333 298.802 49.9314 Q298.802 41.8701 295.318 37.1711 Q291.834 32.4315 285.88 32.4315 M285.88 26.1121 Q295.602 26.1121 301.151 32.4315 Q306.701 38.7509 306.701 49.9314 Q306.701 61.0714 301.151 67.4314 Q295.602 73.7508 285.88 73.7508 Q276.117 73.7508 270.567 67.4314 Q265.058 61.0714 265.058 49.9314 Q265.058 38.7509 270.567 32.4315 Q276.117 26.1121 285.88 26.1121 Z" fill="#000000" fill-rule="nonzero" fill-opacity="1"></path><path clip-path="url(#clip510)" d="M345.347 34.1734 Q344.091 33.4443 342.592 33.1202 Q341.134 32.7556 339.351 32.7556 Q333.032 32.7556 329.629 36.8875 Q326.267 40.9789 326.267 48.6757 L326.267 72.576 L318.773 72.576 L318.773 27.2059 L326.267 27.2059 L326.267 34.2544 Q328.617 30.1225 332.384 28.1376 Q336.151 26.1121 341.539 26.1121 Q342.309 26.1121 343.24 26.2337 Q344.172 26.3147 345.306 26.5172 L345.347 34.1734 Z" fill="#000000" fill-rule="nonzero" fill-opacity="1"></path><path clip-path="url(#clip510)" d="M387.031 35.9153 Q389.826 30.8922 393.715 28.5022 Q397.603 26.1121 402.87 26.1121 Q409.959 26.1121 413.807 31.0947 Q417.655 36.0368 417.655 45.1919 L417.655 72.576 L410.161 72.576 L410.161 45.4349 Q410.161 38.913 407.852 35.7533 Q405.543 32.5936 400.804 32.5936 Q395.011 32.5936 391.649 36.4419 Q388.286 40.2903 388.286 46.9338 L388.286 72.576 L380.792 72.576 L380.792 45.4349 Q380.792 38.8725 378.483 35.7533 Q376.174 32.5936 371.354 32.5936 Q365.642 32.5936 362.28 36.4824 Q358.917 40.3308 358.917 46.9338 L358.917 72.576 L351.423 72.576 L351.423 27.2059 L358.917 27.2059 L358.917 34.2544 Q361.469 30.082 365.034 28.0971 Q368.599 26.1121 373.501 26.1121 Q378.443 26.1121 381.886 28.6237 Q385.37 31.1352 387.031 35.9153 Z" fill="#000000" fill-rule="nonzero" fill-opacity="1"></path><path clip-path="url(#clip510)" d="M471.33 48.0275 L471.33 51.6733 L437.059 51.6733 Q437.545 59.3701 441.677 63.421 Q445.85 67.4314 453.263 67.4314 Q457.557 67.4314 461.567 66.3781 Q465.618 65.3249 469.588 63.2184 L469.588 70.267 Q465.578 71.9684 461.365 72.8596 Q457.152 73.7508 452.817 73.7508 Q441.961 73.7508 435.601 67.4314 Q429.282 61.1119 429.282 50.3365 Q429.282 39.1965 435.277 32.6746 Q441.313 26.1121 451.521 26.1121 Q460.676 26.1121 465.983 32.0264 Q471.33 37.9003 471.33 48.0275 M463.876 45.84 Q463.795 39.7232 460.433 36.0774 Q457.111 32.4315 451.602 32.4315 Q445.364 32.4315 441.596 35.9558 Q437.869 39.4801 437.302 45.8805 L463.876 45.84 Z" fill="#000000" fill-rule="nonzero" fill-opacity="1"></path><path clip-path="url(#clip510)" d="M509.854 34.1734 Q508.598 33.4443 507.099 33.1202 Q505.641 32.7556 503.859 32.7556 Q497.539 32.7556 494.137 36.8875 Q490.774 40.9789 490.774 48.6757 L490.774 72.576 L483.28 72.576 L483.28 27.2059 L490.774 27.2059 L490.774 34.2544 Q493.124 30.1225 496.891 28.1376 Q500.658 26.1121 506.046 26.1121 Q506.816 26.1121 507.748 26.2337 Q508.679 26.3147 509.814 26.5172 L509.854 34.1734 Z" fill="#000000" fill-rule="nonzero" fill-opacity="1"></path><path clip-path="url(#clip510)" d="M589.657 16.7545 L589.657 25.383 Q585.525 21.5346 580.826 19.6307 Q576.167 17.7268 570.901 17.7268 Q560.531 17.7268 555.022 24.0867 Q549.512 30.4061 549.512 42.3968 Q549.512 54.3469 555.022 60.7069 Q560.531 67.0263 570.901 67.0263 Q576.167 67.0263 580.826 65.1223 Q585.525 63.2184 589.657 59.3701 L589.657 67.9175 Q585.363 70.8341 580.542 72.2924 Q575.762 73.7508 570.415 73.7508 Q556.682 73.7508 548.783 65.3654 Q540.884 56.9395 540.884 42.3968 Q540.884 27.8135 548.783 19.4281 Q556.682 11.0023 570.415 11.0023 Q575.843 11.0023 580.623 12.4606 Q585.444 13.8784 589.657 16.7545 Z" fill="#000000" fill-rule="nonzero" fill-opacity="1"></path><path clip-path="url(#clip510)" d="M601.202 54.671 L601.202 27.2059 L608.656 27.2059 L608.656 54.3874 Q608.656 60.8284 611.167 64.0691 Q613.679 67.2693 618.702 67.2693 Q624.738 67.2693 628.221 63.421 Q631.746 59.5726 631.746 52.9291 L631.746 27.2059 L639.199 27.2059 L639.199 72.576 L631.746 72.576 L631.746 65.6084 Q629.032 69.7404 625.426 71.7658 Q621.862 73.7508 617.122 73.7508 Q609.304 73.7508 605.253 68.8897 Q601.202 64.0286 601.202 54.671 M619.958 26.1121 L619.958 26.1121 Z" fill="#000000" fill-rule="nonzero" fill-opacity="1"></path><path clip-path="url(#clip510)" d="M680.843 34.1734 Q679.587 33.4443 678.088 33.1202 Q676.63 32.7556 674.847 32.7556 Q668.528 32.7556 665.125 36.8875 Q661.763 40.9789 661.763 48.6757 L661.763 72.576 L654.269 72.576 L654.269 27.2059 L661.763 27.2059 L661.763 34.2544 Q664.112 30.1225 667.88 28.1376 Q671.647 26.1121 677.035 26.1121 Q677.805 26.1121 678.736 26.2337 Q679.668 26.3147 680.802 26.5172 L680.843 34.1734 Z" fill="#000000" fill-rule="nonzero" fill-opacity="1"></path><path clip-path="url(#clip510)" d="M713.493 34.1734 Q712.237 33.4443 710.738 33.1202 Q709.28 32.7556 707.498 32.7556 Q701.178 32.7556 697.775 36.8875 Q694.413 40.9789 694.413 48.6757 L694.413 72.576 L686.919 72.576 L686.919 27.2059 L694.413 27.2059 L694.413 34.2544 Q696.763 30.1225 700.53 28.1376 Q704.297 26.1121 709.685 26.1121 Q710.455 26.1121 711.387 26.2337 Q712.318 26.3147 713.452 26.5172 L713.493 34.1734 Z" fill="#000000" fill-rule="nonzero" fill-opacity="1"></path><path clip-path="url(#clip510)" d="M758.296 48.0275 L758.296 51.6733 L724.025 51.6733 Q724.511 59.3701 728.643 63.421 Q732.816 67.4314 740.229 67.4314 Q744.523 67.4314 748.533 66.3781 Q752.584 65.3249 756.554 63.2184 L756.554 70.267 Q752.544 71.9684 748.331 72.8596 Q744.118 73.7508 739.783 73.7508 Q728.927 73.7508 722.567 67.4314 Q716.248 61.1119 716.248 50.3365 Q716.248 39.1965 722.243 32.6746 Q728.279 26.1121 738.487 26.1121 Q747.642 26.1121 752.949 32.0264 Q758.296 37.9003 758.296 48.0275 M750.842 45.84 Q750.761 39.7232 747.399 36.0774 Q744.077 32.4315 738.568 32.4315 Q732.33 32.4315 728.562 35.9558 Q724.836 39.4801 724.268 45.8805 L750.842 45.84 Z" fill="#000000" fill-rule="nonzero" fill-opacity="1"></path><path clip-path="url(#clip510)" d="M808.244 45.1919 L808.244 72.576 L800.79 72.576 L800.79 45.4349 Q800.79 38.994 798.278 35.7938 Q795.767 32.5936 790.744 32.5936 Q784.708 32.5936 781.224 36.4419 Q777.74 40.2903 777.74 46.9338 L777.74 72.576 L770.246 72.576 L770.246 27.2059 L777.74 27.2059 L777.74 34.2544 Q780.414 30.163 784.019 28.1376 Q787.665 26.1121 792.405 26.1121 Q800.223 26.1121 804.233 30.9732 Q808.244 35.7938 808.244 45.1919 Z" fill="#000000" fill-rule="nonzero" fill-opacity="1"></path><path clip-path="url(#clip510)" d="M830.483 14.324 L830.483 27.2059 L845.836 27.2059 L845.836 32.9987 L830.483 32.9987 L830.483 57.6282 Q830.483 63.1779 831.982 64.7578 Q833.521 66.3376 838.18 66.3376 L845.836 66.3376 L845.836 72.576 L838.18 72.576 Q829.551 72.576 826.27 69.3758 Q822.989 66.1351 822.989 57.6282 L822.989 32.9987 L817.52 32.9987 L817.52 27.2059 L822.989 27.2059 L822.989 14.324 L830.483 14.324 Z" fill="#000000" fill-rule="nonzero" fill-opacity="1"></path><path clip-path="url(#clip510)" d="M882.335 12.096 L894.528 12.096 L909.962 53.2532 L925.477 12.096 L937.67 12.096 L937.67 72.576 L929.69 72.576 L929.69 19.4686 L914.094 60.9499 L905.87 60.9499 L890.274 19.4686 L890.274 72.576 L882.335 72.576 L882.335 12.096 Z" fill="#000000" fill-rule="nonzero" fill-opacity="1"></path><path clip-path="url(#clip510)" d="M974.209 49.7694 Q965.176 49.7694 961.692 51.8354 Q958.208 53.9013 958.208 58.8839 Q958.208 62.8538 960.801 65.2034 Q963.434 67.5124 967.93 67.5124 Q974.128 67.5124 977.855 63.1374 Q981.622 58.7219 981.622 51.4303 L981.622 49.7694 L974.209 49.7694 M989.076 46.6907 L989.076 72.576 L981.622 72.576 L981.622 65.6895 Q979.07 69.8214 975.262 71.8063 Q971.455 73.7508 965.945 73.7508 Q958.978 73.7508 954.846 69.8619 Q950.754 65.9325 950.754 59.3701 Q950.754 51.7138 955.859 47.825 Q961.003 43.9361 971.171 43.9361 L981.622 43.9361 L981.622 43.2069 Q981.622 38.0623 978.22 35.2672 Q974.857 32.4315 968.74 32.4315 Q964.852 32.4315 961.165 33.3632 Q957.479 34.295 954.076 36.1584 L954.076 29.2718 Q958.168 27.692 962.016 26.9223 Q965.864 26.1121 969.51 26.1121 Q979.354 26.1121 984.215 31.2163 Q989.076 36.3204 989.076 46.6907 Z" fill="#000000" fill-rule="nonzero" fill-opacity="1"></path><path clip-path="url(#clip510)" d="M1034.28 49.3643 Q1034.28 41.2625 1030.92 36.8065 Q1027.6 32.3505 1021.56 32.3505 Q1015.57 32.3505 1012.21 36.8065 Q1008.88 41.2625 1008.88 49.3643 Q1008.88 57.4256 1012.21 61.8816 Q1015.57 66.3376 1021.56 66.3376 Q1027.6 66.3376 1030.92 61.8816 Q1034.28 57.4256 1034.28 49.3643 M1041.74 66.9452 Q1041.74 78.5308 1036.59 84.1616 Q1031.45 89.8329 1020.84 89.8329 Q1016.91 89.8329 1013.42 89.2252 Q1009.94 88.6581 1006.66 87.4428 L1006.66 80.1917 Q1009.94 81.9741 1013.14 82.8248 Q1016.34 83.6755 1019.66 83.6755 Q1026.99 83.6755 1030.64 79.8271 Q1034.28 76.0193 1034.28 68.282 L1034.28 64.5957 Q1031.98 68.6061 1028.37 70.5911 Q1024.76 72.576 1019.74 72.576 Q1011.4 72.576 1006.29 66.2161 Q1001.19 59.8562 1001.19 49.3643 Q1001.19 38.832 1006.29 32.472 Q1011.4 26.1121 1019.74 26.1121 Q1024.76 26.1121 1028.37 28.0971 Q1031.98 30.082 1034.28 34.0924 L1034.28 27.2059 L1041.74 27.2059 L1041.74 66.9452 Z" fill="#000000" fill-rule="nonzero" fill-opacity="1"></path><path clip-path="url(#clip510)" d="M1094.8 45.1919 L1094.8 72.576 L1087.35 72.576 L1087.35 45.4349 Q1087.35 38.994 1084.84 35.7938 Q1082.33 32.5936 1077.3 32.5936 Q1071.27 32.5936 1067.79 36.4419 Q1064.3 40.2903 1064.3 46.9338 L1064.3 72.576 L1056.81 72.576 L1056.81 27.2059 L1064.3 27.2059 L1064.3 34.2544 Q1066.97 30.163 1070.58 28.1376 Q1074.23 26.1121 1078.97 26.1121 Q1086.78 26.1121 1090.79 30.9732 Q1094.8 35.7938 1094.8 45.1919 Z" fill="#000000" fill-rule="nonzero" fill-opacity="1"></path><path clip-path="url(#clip510)" d="M1109.67 27.2059 L1117.13 27.2059 L1117.13 72.576 L1109.67 72.576 L1109.67 27.2059 M1109.67 9.54393 L1117.13 9.54393 L1117.13 18.9825 L1109.67 18.9825 L1109.67 9.54393 Z" fill="#000000" fill-rule="nonzero" fill-opacity="1"></path><path clip-path="url(#clip510)" d="M1140.09 14.324 L1140.09 27.2059 L1155.45 27.2059 L1155.45 32.9987 L1140.09 32.9987 L1140.09 57.6282 Q1140.09 63.1779 1141.59 64.7578 Q1143.13 66.3376 1147.79 66.3376 L1155.45 66.3376 L1155.45 72.576 L1147.79 72.576 Q1139.16 72.576 1135.88 69.3758 Q1132.6 66.1351 1132.6 57.6282 L1132.6 32.9987 L1127.13 32.9987 L1127.13 27.2059 L1132.6 27.2059 L1132.6 14.324 L1140.09 14.324 Z" fill="#000000" fill-rule="nonzero" fill-opacity="1"></path><path clip-path="url(#clip510)" d="M1164.48 54.671 L1164.48 27.2059 L1171.93 27.2059 L1171.93 54.3874 Q1171.93 60.8284 1174.45 64.0691 Q1176.96 67.2693 1181.98 67.2693 Q1188.02 67.2693 1191.5 63.421 Q1195.02 59.5726 1195.02 52.9291 L1195.02 27.2059 L1202.48 27.2059 L1202.48 72.576 L1195.02 72.576 L1195.02 65.6084 Q1192.31 69.7404 1188.7 71.7658 Q1185.14 73.7508 1180.4 73.7508 Q1172.58 73.7508 1168.53 68.8897 Q1164.48 64.0286 1164.48 54.671 M1183.24 26.1121 L1183.24 26.1121 Z" fill="#000000" fill-rule="nonzero" fill-opacity="1"></path><path clip-path="url(#clip510)" d="M1247.69 34.0924 L1247.69 9.54393 L1255.14 9.54393 L1255.14 72.576 L1247.69 72.576 L1247.69 65.7705 Q1245.34 69.8214 1241.73 71.8063 Q1238.17 73.7508 1233.14 73.7508 Q1224.92 73.7508 1219.73 67.1883 Q1214.59 60.6258 1214.59 49.9314 Q1214.59 39.2371 1219.73 32.6746 Q1224.92 26.1121 1233.14 26.1121 Q1238.17 26.1121 1241.73 28.0971 Q1245.34 30.0415 1247.69 34.0924 M1222.29 49.9314 Q1222.29 58.1548 1225.65 62.8538 Q1229.05 67.5124 1234.97 67.5124 Q1240.88 67.5124 1244.28 62.8538 Q1247.69 58.1548 1247.69 49.9314 Q1247.69 41.7081 1244.28 37.0496 Q1240.88 32.3505 1234.97 32.3505 Q1229.05 32.3505 1225.65 37.0496 Q1222.29 41.7081 1222.29 49.9314 Z" fill="#000000" fill-rule="nonzero" fill-opacity="1"></path><path clip-path="url(#clip510)" d="M1309.3 48.0275 L1309.3 51.6733 L1275.03 51.6733 Q1275.52 59.3701 1279.65 63.421 Q1283.82 67.4314 1291.23 67.4314 Q1295.53 67.4314 1299.54 66.3781 Q1303.59 65.3249 1307.56 63.2184 L1307.56 70.267 Q1303.55 71.9684 1299.33 72.8596 Q1295.12 73.7508 1290.79 73.7508 Q1279.93 73.7508 1273.57 67.4314 Q1267.25 61.1119 1267.25 50.3365 Q1267.25 39.1965 1273.25 32.6746 Q1279.28 26.1121 1289.49 26.1121 Q1298.65 26.1121 1303.95 32.0264 Q1309.3 37.9003 1309.3 48.0275 M1301.85 45.84 Q1301.77 39.7232 1298.4 36.0774 Q1295.08 32.4315 1289.57 32.4315 Q1283.33 32.4315 1279.57 35.9558 Q1275.84 39.4801 1275.27 45.8805 L1301.85 45.84 Z" fill="#000000" fill-rule="nonzero" fill-opacity="1"></path><path clip-path="url(#clip510)" d="M1356.41 43.6931 L1356.41 65.8515 L1369.54 65.8515 Q1376.14 65.8515 1379.3 63.1374 Q1382.5 60.3828 1382.5 54.752 Q1382.5 49.0808 1379.3 46.4072 Q1376.14 43.6931 1369.54 43.6931 L1356.41 43.6931 M1356.41 18.8205 L1356.41 37.0496 L1368.52 37.0496 Q1374.52 37.0496 1377.44 34.8216 Q1380.39 32.5531 1380.39 27.935 Q1380.39 23.3575 1377.44 21.089 Q1374.52 18.8205 1368.52 18.8205 L1356.41 18.8205 M1348.23 12.096 L1369.13 12.096 Q1378.49 12.096 1383.55 15.9849 Q1388.62 19.8737 1388.62 27.0438 Q1388.62 32.5936 1386.02 35.8748 Q1383.43 39.156 1378.41 39.9662 Q1384.44 41.2625 1387.77 45.3944 Q1391.13 49.4858 1391.13 55.6432 Q1391.13 63.745 1385.62 68.1605 Q1380.11 72.576 1369.94 72.576 L1348.23 72.576 L1348.23 12.096 Z" fill="#000000" fill-rule="nonzero" fill-opacity="1"></path><path clip-path="url(#clip510)" d="M1443.63 48.0275 L1443.63 51.6733 L1409.36 51.6733 Q1409.84 59.3701 1413.98 63.421 Q1418.15 67.4314 1425.56 67.4314 Q1429.85 67.4314 1433.87 66.3781 Q1437.92 65.3249 1441.89 63.2184 L1441.89 70.267 Q1437.88 71.9684 1433.66 72.8596 Q1429.45 73.7508 1425.12 73.7508 Q1414.26 73.7508 1407.9 67.4314 Q1401.58 61.1119 1401.58 50.3365 Q1401.58 39.1965 1407.57 32.6746 Q1413.61 26.1121 1423.82 26.1121 Q1432.97 26.1121 1438.28 32.0264 Q1443.63 37.9003 1443.63 48.0275 M1436.17 45.84 Q1436.09 39.7232 1432.73 36.0774 Q1429.41 32.4315 1423.9 32.4315 Q1417.66 32.4315 1413.89 35.9558 Q1410.17 39.4801 1409.6 45.8805 L1436.17 45.84 Z" fill="#000000" fill-rule="nonzero" fill-opacity="1"></path><path clip-path="url(#clip510)" d="M1478.83 9.54393 L1478.83 15.7418 L1471.7 15.7418 Q1467.69 15.7418 1466.11 17.3622 Q1464.57 18.9825 1464.57 23.1955 L1464.57 27.2059 L1476.85 27.2059 L1476.85 32.9987 L1464.57 32.9987 L1464.57 72.576 L1457.08 72.576 L1457.08 32.9987 L1449.95 32.9987 L1449.95 27.2059 L1457.08 27.2059 L1457.08 24.0462 Q1457.08 16.471 1460.6 13.0277 Q1464.13 9.54393 1471.78 9.54393 L1478.83 9.54393 Z" fill="#000000" fill-rule="nonzero" fill-opacity="1"></path><path clip-path="url(#clip510)" d="M1502.65 32.4315 Q1496.65 32.4315 1493.17 37.1306 Q1489.69 41.7891 1489.69 49.9314 Q1489.69 58.0738 1493.13 62.7728 Q1496.61 67.4314 1502.65 67.4314 Q1508.6 67.4314 1512.09 62.7323 Q1515.57 58.0333 1515.57 49.9314 Q1515.57 41.8701 1512.09 37.1711 Q1508.6 32.4315 1502.65 32.4315 M1502.65 26.1121 Q1512.37 26.1121 1517.92 32.4315 Q1523.47 38.7509 1523.47 49.9314 Q1523.47 61.0714 1517.92 67.4314 Q1512.37 73.7508 1502.65 73.7508 Q1492.89 73.7508 1487.34 67.4314 Q1481.83 61.0714 1481.83 49.9314 Q1481.83 38.7509 1487.34 32.4315 Q1492.89 26.1121 1502.65 26.1121 Z" fill="#000000" fill-rule="nonzero" fill-opacity="1"></path><path clip-path="url(#clip510)" d="M1562.12 34.1734 Q1560.86 33.4443 1559.36 33.1202 Q1557.9 32.7556 1556.12 32.7556 Q1549.8 32.7556 1546.4 36.8875 Q1543.04 40.9789 1543.04 48.6757 L1543.04 72.576 L1535.54 72.576 L1535.54 27.2059 L1543.04 27.2059 L1543.04 34.2544 Q1545.39 30.1225 1549.15 28.1376 Q1552.92 26.1121 1558.31 26.1121 Q1559.08 26.1121 1560.01 26.2337 Q1560.94 26.3147 1562.08 26.5172 L1562.12 34.1734 Z" fill="#000000" fill-rule="nonzero" fill-opacity="1"></path><path clip-path="url(#clip510)" d="M1606.92 48.0275 L1606.92 51.6733 L1572.65 51.6733 Q1573.14 59.3701 1577.27 63.421 Q1581.44 67.4314 1588.85 67.4314 Q1593.15 67.4314 1597.16 66.3781 Q1601.21 65.3249 1605.18 63.2184 L1605.18 70.267 Q1601.17 71.9684 1596.95 72.8596 Q1592.74 73.7508 1588.41 73.7508 Q1577.55 73.7508 1571.19 67.4314 Q1564.87 61.1119 1564.87 50.3365 Q1564.87 39.1965 1570.87 32.6746 Q1576.9 26.1121 1587.11 26.1121 Q1596.27 26.1121 1601.57 32.0264 Q1606.92 37.9003 1606.92 48.0275 M1599.47 45.84 Q1599.39 39.7232 1596.02 36.0774 Q1592.7 32.4315 1587.19 32.4315 Q1580.95 32.4315 1577.19 35.9558 Q1573.46 39.4801 1572.89 45.8805 L1599.47 45.84 Z" fill="#000000" fill-rule="nonzero" fill-opacity="1"></path><path clip-path="url(#clip510)" d="M1657.88 40.0472 Q1654.19 43.3285 1652.45 46.6097 Q1650.75 49.8504 1650.75 53.4152 Q1650.75 59.3295 1655.04 63.2589 Q1659.34 67.1883 1665.82 67.1883 Q1669.67 67.1883 1673.03 65.9325 Q1676.39 64.6362 1679.35 62.0436 L1657.88 40.0472 M1663.59 35.5102 L1684.17 56.5749 Q1686.56 52.9696 1687.9 48.8782 Q1689.23 44.7463 1689.48 40.1283 L1697.01 40.1283 Q1696.53 45.4755 1694.42 50.7011 Q1692.31 55.9268 1688.55 61.0309 L1699.85 72.576 L1689.64 72.576 L1683.85 66.6212 Q1679.63 70.2265 1675.02 72.0089 Q1670.4 73.7508 1665.09 73.7508 Q1655.33 73.7508 1649.13 68.201 Q1642.93 62.6108 1642.93 53.9013 Q1642.93 48.7162 1645.65 44.1792 Q1648.36 39.6016 1653.79 35.5912 Q1651.84 33.0392 1650.83 30.5276 Q1649.82 27.9755 1649.82 25.545 Q1649.82 18.9825 1654.32 15.0127 Q1658.81 11.0023 1666.27 11.0023 Q1669.63 11.0023 1672.95 11.7314 Q1676.31 12.4606 1679.76 13.9189 L1679.76 21.2916 Q1676.23 19.3876 1673.03 18.4154 Q1669.83 17.4027 1667.08 17.4027 Q1662.82 17.4027 1660.15 19.6712 Q1657.52 21.8992 1657.52 25.464 Q1657.52 27.5299 1658.69 29.6364 Q1659.91 31.7024 1663.59 35.5102 Z" fill="#000000" fill-rule="nonzero" fill-opacity="1"></path><path clip-path="url(#clip510)" d="M1757.13 20.1573 L1746.03 50.2555 L1768.27 50.2555 L1757.13 20.1573 M1752.51 12.096 L1761.79 12.096 L1784.84 72.576 L1776.33 72.576 L1770.82 57.061 L1743.56 57.061 L1738.05 72.576 L1729.42 72.576 L1752.51 12.096 Z" fill="#000000" fill-rule="nonzero" fill-opacity="1"></path><path clip-path="url(#clip510)" d="M1813.35 9.54393 L1813.35 15.7418 L1806.22 15.7418 Q1802.21 15.7418 1800.63 17.3622 Q1799.09 18.9825 1799.09 23.1955 L1799.09 27.2059 L1811.37 27.2059 L1811.37 32.9987 L1799.09 32.9987 L1799.09 72.576 L1791.6 72.576 L1791.6 32.9987 L1784.47 32.9987 L1784.47 27.2059 L1791.6 27.2059 L1791.6 24.0462 Q1791.6 16.471 1795.12 13.0277 Q1798.65 9.54393 1806.31 9.54393 L1813.35 9.54393 Z" fill="#000000" fill-rule="nonzero" fill-opacity="1"></path><path clip-path="url(#clip510)" d="M1825.51 14.324 L1825.51 27.2059 L1840.86 27.2059 L1840.86 32.9987 L1825.51 32.9987 L1825.51 57.6282 Q1825.51 63.1779 1827.01 64.7578 Q1828.54 66.3376 1833.2 66.3376 L1840.86 66.3376 L1840.86 72.576 L1833.2 72.576 Q1824.57 72.576 1821.29 69.3758 Q1818.01 66.1351 1818.01 57.6282 L1818.01 32.9987 L1812.54 32.9987 L1812.54 27.2059 L1818.01 27.2059 L1818.01 14.324 L1825.51 14.324 Z" fill="#000000" fill-rule="nonzero" fill-opacity="1"></path><path clip-path="url(#clip510)" d="M1889.47 48.0275 L1889.47 51.6733 L1855.2 51.6733 Q1855.69 59.3701 1859.82 63.421 Q1863.99 67.4314 1871.4 67.4314 Q1875.7 67.4314 1879.71 66.3781 Q1883.76 65.3249 1887.73 63.2184 L1887.73 70.267 Q1883.72 71.9684 1879.51 72.8596 Q1875.29 73.7508 1870.96 73.7508 Q1860.1 73.7508 1853.74 67.4314 Q1847.42 61.1119 1847.42 50.3365 Q1847.42 39.1965 1853.42 32.6746 Q1859.45 26.1121 1869.66 26.1121 Q1878.82 26.1121 1884.12 32.0264 Q1889.47 37.9003 1889.47 48.0275 M1882.02 45.84 Q1881.94 39.7232 1878.57 36.0774 Q1875.25 32.4315 1869.74 32.4315 Q1863.5 32.4315 1859.74 35.9558 Q1856.01 39.4801 1855.44 45.8805 L1882.02 45.84 Z" fill="#000000" fill-rule="nonzero" fill-opacity="1"></path><path clip-path="url(#clip510)" d="M1927.99 34.1734 Q1926.74 33.4443 1925.24 33.1202 Q1923.78 32.7556 1922 32.7556 Q1915.68 32.7556 1912.28 36.8875 Q1908.91 40.9789 1908.91 48.6757 L1908.91 72.576 L1901.42 72.576 L1901.42 27.2059 L1908.91 27.2059 L1908.91 34.2544 Q1911.26 30.1225 1915.03 28.1376 Q1918.8 26.1121 1924.19 26.1121 Q1924.96 26.1121 1925.89 26.2337 Q1926.82 26.3147 1927.95 26.5172 L1927.99 34.1734 Z" fill="#000000" fill-rule="nonzero" fill-opacity="1"></path><path clip-path="url(#clip510)" d="M2007.8 16.7545 L2007.8 25.383 Q2003.67 21.5346 1998.97 19.6307 Q1994.31 17.7268 1989.04 17.7268 Q1978.67 17.7268 1973.16 24.0867 Q1967.65 30.4061 1967.65 42.3968 Q1967.65 54.3469 1973.16 60.7069 Q1978.67 67.0263 1989.04 67.0263 Q1994.31 67.0263 1998.97 65.1223 Q2003.67 63.2184 2007.8 59.3701 L2007.8 67.9175 Q2003.5 70.8341 1998.68 72.2924 Q1993.9 73.7508 1988.56 73.7508 Q1974.82 73.7508 1966.92 65.3654 Q1959.02 56.9395 1959.02 42.3968 Q1959.02 27.8135 1966.92 19.4281 Q1974.82 11.0023 1988.56 11.0023 Q1993.98 11.0023 1998.76 12.4606 Q2003.58 13.8784 2007.8 16.7545 Z" fill="#000000" fill-rule="nonzero" fill-opacity="1"></path><path clip-path="url(#clip510)" d="M2037.69 32.4315 Q2031.7 32.4315 2028.21 37.1306 Q2024.73 41.7891 2024.73 49.9314 Q2024.73 58.0738 2028.17 62.7728 Q2031.66 67.4314 2037.69 67.4314 Q2043.65 67.4314 2047.13 62.7323 Q2050.62 58.0333 2050.62 49.9314 Q2050.62 41.8701 2047.13 37.1711 Q2043.65 32.4315 2037.69 32.4315 M2037.69 26.1121 Q2047.42 26.1121 2052.96 32.4315 Q2058.51 38.7509 2058.51 49.9314 Q2058.51 61.0714 2052.96 67.4314 Q2047.42 73.7508 2037.69 73.7508 Q2027.93 73.7508 2022.38 67.4314 Q2016.87 61.0714 2016.87 49.9314 Q2016.87 38.7509 2022.38 32.4315 Q2027.93 26.1121 2037.69 26.1121 Z" fill="#000000" fill-rule="nonzero" fill-opacity="1"></path><path clip-path="url(#clip510)" d="M2106.19 35.9153 Q2108.99 30.8922 2112.88 28.5022 Q2116.77 26.1121 2122.03 26.1121 Q2129.12 26.1121 2132.97 31.0947 Q2136.82 36.0368 2136.82 45.1919 L2136.82 72.576 L2129.32 72.576 L2129.32 45.4349 Q2129.32 38.913 2127.02 35.7533 Q2124.71 32.5936 2119.97 32.5936 Q2114.17 32.5936 2110.81 36.4419 Q2107.45 40.2903 2107.45 46.9338 L2107.45 72.576 L2099.96 72.576 L2099.96 45.4349 Q2099.96 38.8725 2097.65 35.7533 Q2095.34 32.5936 2090.52 32.5936 Q2084.81 32.5936 2081.44 36.4824 Q2078.08 40.3308 2078.08 46.9338 L2078.08 72.576 L2070.59 72.576 L2070.59 27.2059 L2078.08 27.2059 L2078.08 34.2544 Q2080.63 30.082 2084.2 28.0971 Q2087.76 26.1121 2092.66 26.1121 Q2097.61 26.1121 2101.05 28.6237 Q2104.53 31.1352 2106.19 35.9153 Z" fill="#000000" fill-rule="nonzero" fill-opacity="1"></path><path clip-path="url(#clip510)" d="M2158.9 65.7705 L2158.9 89.8329 L2151.4 89.8329 L2151.4 27.2059 L2158.9 27.2059 L2158.9 34.0924 Q2161.25 30.0415 2164.81 28.0971 Q2168.42 26.1121 2173.4 26.1121 Q2181.66 26.1121 2186.81 32.6746 Q2191.99 39.2371 2191.99 49.9314 Q2191.99 60.6258 2186.81 67.1883 Q2181.66 73.7508 2173.4 73.7508 Q2168.42 73.7508 2164.81 71.8063 Q2161.25 69.8214 2158.9 65.7705 M2184.25 49.9314 Q2184.25 41.7081 2180.85 37.0496 Q2177.49 32.3505 2171.58 32.3505 Q2165.66 32.3505 2162.26 37.0496 Q2158.9 41.7081 2158.9 49.9314 Q2158.9 58.1548 2162.26 62.8538 Q2165.66 67.5124 2171.58 67.5124 Q2177.49 67.5124 2180.85 62.8538 Q2184.25 58.1548 2184.25 49.9314 Z" fill="#000000" fill-rule="nonzero" fill-opacity="1"></path><path clip-path="url(#clip510)" d="M2243.15 48.0275 L2243.15 51.6733 L2208.88 51.6733 Q2209.37 59.3701 2213.5 63.421 Q2217.67 67.4314 2225.09 67.4314 Q2229.38 67.4314 2233.39 66.3781 Q2237.44 65.3249 2241.41 63.2184 L2241.41 70.267 Q2237.4 71.9684 2233.19 72.8596 Q2228.98 73.7508 2224.64 73.7508 Q2213.79 73.7508 2207.43 67.4314 Q2201.11 61.1119 2201.11 50.3365 Q2201.11 39.1965 2207.1 32.6746 Q2213.14 26.1121 2223.35 26.1121 Q2232.5 26.1121 2237.81 32.0264 Q2243.15 37.9003 2243.15 48.0275 M2235.7 45.84 Q2235.62 39.7232 2232.26 36.0774 Q2228.94 32.4315 2223.43 32.4315 Q2217.19 32.4315 2213.42 35.9558 Q2209.69 39.4801 2209.13 45.8805 L2235.7 45.84 Z" fill="#000000" fill-rule="nonzero" fill-opacity="1"></path><path clip-path="url(#clip510)" d="M2293.1 45.1919 L2293.1 72.576 L2285.65 72.576 L2285.65 45.4349 Q2285.65 38.994 2283.14 35.7938 Q2280.63 32.5936 2275.6 32.5936 Q2269.57 32.5936 2266.08 36.4419 Q2262.6 40.2903 2262.6 46.9338 L2262.6 72.576 L2255.11 72.576 L2255.11 27.2059 L2262.6 27.2059 L2262.6 34.2544 Q2265.27 30.163 2268.88 28.1376 Q2272.52 26.1121 2277.26 26.1121 Q2285.08 26.1121 2289.09 30.9732 Q2293.1 35.7938 2293.1 45.1919 Z" fill="#000000" fill-rule="nonzero" fill-opacity="1"></path><path clip-path="url(#clip510)" d="M2336.89 28.5427 L2336.89 35.5912 Q2333.73 33.9709 2330.33 33.1607 Q2326.93 32.3505 2323.28 32.3505 Q2317.73 32.3505 2314.94 34.0519 Q2312.18 35.7533 2312.18 39.156 Q2312.18 41.7486 2314.17 43.2475 Q2316.15 44.7058 2322.15 46.0426 L2324.7 46.6097 Q2332.64 48.3111 2335.96 51.4303 Q2339.32 54.509 2339.32 60.0587 Q2339.32 66.3781 2334.3 70.0644 Q2329.32 73.7508 2320.57 73.7508 Q2316.92 73.7508 2312.95 73.0216 Q2309.02 72.3329 2304.65 70.9151 L2304.65 63.2184 Q2308.78 65.3654 2312.79 66.4591 Q2316.8 67.5124 2320.73 67.5124 Q2326 67.5124 2328.83 65.73 Q2331.67 63.9071 2331.67 60.6258 Q2331.67 57.5877 2329.6 55.9673 Q2327.58 54.3469 2320.65 52.8481 L2318.06 52.2405 Q2311.13 50.7821 2308.05 47.7845 Q2304.97 44.7463 2304.97 39.4801 Q2304.97 33.0797 2309.51 29.5959 Q2314.05 26.1121 2322.39 26.1121 Q2326.52 26.1121 2330.17 26.7198 Q2333.81 27.3274 2336.89 28.5427 Z" fill="#000000" fill-rule="nonzero" fill-opacity="1"></path><path clip-path="url(#clip510)" d="M2371.81 49.7694 Q2362.78 49.7694 2359.29 51.8354 Q2355.81 53.9013 2355.81 58.8839 Q2355.81 62.8538 2358.4 65.2034 Q2361.04 67.5124 2365.53 67.5124 Q2371.73 67.5124 2375.46 63.1374 Q2379.22 58.7219 2379.22 51.4303 L2379.22 49.7694 L2371.81 49.7694 M2386.68 46.6907 L2386.68 72.576 L2379.22 72.576 L2379.22 65.6895 Q2376.67 69.8214 2372.86 71.8063 Q2369.06 73.7508 2363.55 73.7508 Q2356.58 73.7508 2352.45 69.8619 Q2348.36 65.9325 2348.36 59.3701 Q2348.36 51.7138 2353.46 47.825 Q2358.61 43.9361 2368.77 43.9361 L2379.22 43.9361 L2379.22 43.2069 Q2379.22 38.0623 2375.82 35.2672 Q2372.46 32.4315 2366.34 32.4315 Q2362.45 32.4315 2358.77 33.3632 Q2355.08 34.295 2351.68 36.1584 L2351.68 29.2718 Q2355.77 27.692 2359.62 26.9223 Q2363.47 26.1121 2367.11 26.1121 Q2376.96 26.1121 2381.82 31.2163 Q2386.68 36.3204 2386.68 46.6907 Z" fill="#000000" fill-rule="nonzero" fill-opacity="1"></path><path clip-path="url(#clip510)" d="M2409.4 14.324 L2409.4 27.2059 L2424.76 27.2059 L2424.76 32.9987 L2409.4 32.9987 L2409.4 57.6282 Q2409.4 63.1779 2410.9 64.7578 Q2412.44 66.3376 2417.1 66.3376 L2424.76 66.3376 L2424.76 72.576 L2417.1 72.576 Q2408.47 72.576 2405.19 69.3758 Q2401.91 66.1351 2401.91 57.6282 L2401.91 32.9987 L2396.44 32.9987 L2396.44 27.2059 L2401.91 27.2059 L2401.91 14.324 L2409.4 14.324 Z" fill="#000000" fill-rule="nonzero" fill-opacity="1"></path><path clip-path="url(#clip510)" d="M2434.56 27.2059 L2442.01 27.2059 L2442.01 72.576 L2434.56 72.576 L2434.56 27.2059 M2434.56 9.54393 L2442.01 9.54393 L2442.01 18.9825 L2434.56 18.9825 L2434.56 9.54393 Z" fill="#000000" fill-rule="nonzero" fill-opacity="1"></path><path clip-path="url(#clip510)" d="M2475.19 32.4315 Q2469.2 32.4315 2465.71 37.1306 Q2462.23 41.7891 2462.23 49.9314 Q2462.23 58.0738 2465.67 62.7728 Q2469.15 67.4314 2475.19 67.4314 Q2481.15 67.4314 2484.63 62.7323 Q2488.11 58.0333 2488.11 49.9314 Q2488.11 41.8701 2484.63 37.1711 Q2481.15 32.4315 2475.19 32.4315 M2475.19 26.1121 Q2484.91 26.1121 2490.46 32.4315 Q2496.01 38.7509 2496.01 49.9314 Q2496.01 61.0714 2490.46 67.4314 Q2484.91 73.7508 2475.19 73.7508 Q2465.43 73.7508 2459.88 67.4314 Q2454.37 61.0714 2454.37 49.9314 Q2454.37 38.7509 2459.88 32.4315 Q2465.43 26.1121 2475.19 26.1121 Z" fill="#000000" fill-rule="nonzero" fill-opacity="1"></path><path clip-path="url(#clip510)" d="M2546.08 45.1919 L2546.08 72.576 L2538.63 72.576 L2538.63 45.4349 Q2538.63 38.994 2536.12 35.7938 Q2533.6 32.5936 2528.58 32.5936 Q2522.55 32.5936 2519.06 36.4419 Q2515.58 40.2903 2515.58 46.9338 L2515.58 72.576 L2508.08 72.576 L2508.08 27.2059 L2515.58 27.2059 L2515.58 34.2544 Q2518.25 30.163 2521.86 28.1376 Q2525.5 26.1121 2530.24 26.1121 Q2538.06 26.1121 2542.07 30.9732 Q2546.08 35.7938 2546.08 45.1919 Z" fill="#000000" fill-rule="nonzero" fill-opacity="1"></path><polyline clip-path="url(#clip512)" style="stroke:#0000ff; stroke-linecap:round; stroke-linejoin:round; stroke-width:4; stroke-opacity:1; fill:none" points="265.903,160.256 941.26,691.496 1616.62,281.229 2291.97,909.407 "></polyline>
<circle clip-path="url(#clip512)" cx="265.903" cy="160.256" r="14.4" fill="#0000ff" fill-rule="evenodd" fill-opacity="1" stroke="#000000" stroke-opacity="1" stroke-width="3.2"></circle>
<circle clip-path="url(#clip512)" cx="941.26" cy="691.496" r="14.4" fill="#0000ff" fill-rule="evenodd" fill-opacity="1" stroke="#000000" stroke-opacity="1" stroke-width="3.2"></circle>
<circle clip-path="url(#clip512)" cx="1616.62" cy="281.229" r="14.4" fill="#0000ff" fill-rule="evenodd" fill-opacity="1" stroke="#000000" stroke-opacity="1" stroke-width="3.2"></circle>
<circle clip-path="url(#clip512)" cx="2291.97" cy="909.407" r="14.4" fill="#0000ff" fill-rule="evenodd" fill-opacity="1" stroke="#000000" stroke-opacity="1" stroke-width="3.2"></circle>
<polyline clip-path="url(#clip512)" style="stroke:#ff0000; stroke-linecap:round; stroke-linejoin:round; stroke-width:4; stroke-opacity:1; fill:none" stroke-dasharray="16, 10" points="265.903,378.633 941.26,376.885 1616.62,378.131 2291.97,1386.4 "></polyline>
<path clip-path="url(#clip512)" d="M249.903 362.633 L249.903 394.633 L281.903 394.633 L281.903 362.633 L249.903 362.633 Z" fill="#ff0000" fill-rule="evenodd" fill-opacity="1" stroke="#000000" stroke-opacity="1" stroke-width="3.2"></path>
<path clip-path="url(#clip512)" d="M925.26 360.885 L925.26 392.885 L957.26 392.885 L957.26 360.885 L925.26 360.885 Z" fill="#ff0000" fill-rule="evenodd" fill-opacity="1" stroke="#000000" stroke-opacity="1" stroke-width="3.2"></path>
<path clip-path="url(#clip512)" d="M1600.62 362.131 L1600.62 394.131 L1632.62 394.131 L1632.62 362.131 L1600.62 362.131 Z" fill="#ff0000" fill-rule="evenodd" fill-opacity="1" stroke="#000000" stroke-opacity="1" stroke-width="3.2"></path>
<path clip-path="url(#clip512)" d="M2275.97 1370.4 L2275.97 1402.4 L2307.97 1402.4 L2307.97 1370.4 L2275.97 1370.4 Z" fill="#ff0000" fill-rule="evenodd" fill-opacity="1" stroke="#000000" stroke-opacity="1" stroke-width="3.2"></path>
<path clip-path="url(#clip510)" d="M1562.87 322.316 L2281.17 322.316 L2281.17 166.796 L1562.87 166.796  Z" fill="#ffffff" fill-rule="evenodd" fill-opacity="1"></path>
<polyline clip-path="url(#clip510)" style="stroke:#000000; stroke-linecap:round; stroke-linejoin:round; stroke-width:4; stroke-opacity:1; fill:none" points="1562.87,322.316 2281.17,322.316 2281.17,166.796 1562.87,166.796 1562.87,322.316 "></polyline>
<polyline clip-path="url(#clip510)" style="stroke:#0000ff; stroke-linecap:round; stroke-linejoin:round; stroke-width:4; stroke-opacity:1; fill:none" points="1586.73,218.636 1729.9,218.636 "></polyline>
<circle clip-path="url(#clip510)" cx="1658.32" cy="218.636" r="19.8855" fill="#0000ff" fill-rule="evenodd" fill-opacity="1" stroke="#000000" stroke-opacity="1" stroke-width="4.55111"></circle>
<path clip-path="url(#clip510)" d="M1758.44 219.411 L1758.44 232.073 L1765.94 232.073 Q1769.72 232.073 1771.52 230.522 Q1773.35 228.948 1773.35 225.731 Q1773.35 222.49 1771.52 220.962 Q1769.72 219.411 1765.94 219.411 L1758.44 219.411 M1758.44 205.198 L1758.44 215.615 L1765.36 215.615 Q1768.79 215.615 1770.46 214.342 Q1772.15 213.045 1772.15 210.407 Q1772.15 207.791 1770.46 206.495 Q1768.79 205.198 1765.36 205.198 L1758.44 205.198 M1753.77 201.356 L1765.71 201.356 Q1771.06 201.356 1773.95 203.578 Q1776.85 205.8 1776.85 209.897 Q1776.85 213.069 1775.36 214.944 Q1773.88 216.819 1771.01 217.282 Q1774.46 218.022 1776.36 220.383 Q1778.28 222.721 1778.28 226.24 Q1778.28 230.869 1775.13 233.393 Q1771.98 235.916 1766.17 235.916 L1753.77 235.916 L1753.77 201.356 Z" fill="#000000" fill-rule="nonzero" fill-opacity="1"></path><path clip-path="url(#clip510)" d="M1808.28 221.888 L1808.28 223.971 L1788.7 223.971 Q1788.97 228.369 1791.34 230.684 Q1793.72 232.976 1797.96 232.976 Q1800.41 232.976 1802.7 232.374 Q1805.02 231.772 1807.28 230.569 L1807.28 234.596 Q1804.99 235.568 1802.59 236.078 Q1800.18 236.587 1797.7 236.587 Q1791.5 236.587 1787.86 232.976 Q1784.25 229.365 1784.25 223.207 Q1784.25 216.842 1787.68 213.115 Q1791.13 209.365 1796.96 209.365 Q1802.19 209.365 1805.22 212.745 Q1808.28 216.101 1808.28 221.888 M1804.02 220.638 Q1803.97 217.143 1802.05 215.059 Q1800.16 212.976 1797.01 212.976 Q1793.44 212.976 1791.29 214.99 Q1789.16 217.004 1788.84 220.661 L1804.02 220.638 Z" fill="#000000" fill-rule="nonzero" fill-opacity="1"></path><path clip-path="url(#clip510)" d="M1828.4 199.897 L1828.4 203.439 L1824.32 203.439 Q1822.03 203.439 1821.13 204.365 Q1820.25 205.291 1820.25 207.698 L1820.25 209.99 L1827.26 209.99 L1827.26 213.3 L1820.25 213.3 L1820.25 235.916 L1815.97 235.916 L1815.97 213.3 L1811.89 213.3 L1811.89 209.99 L1815.97 209.99 L1815.97 208.184 Q1815.97 203.856 1817.98 201.888 Q1819.99 199.897 1824.37 199.897 L1828.4 199.897 Z" fill="#000000" fill-rule="nonzero" fill-opacity="1"></path><path clip-path="url(#clip510)" d="M1842.01 212.976 Q1838.58 212.976 1836.59 215.661 Q1834.6 218.323 1834.6 222.976 Q1834.6 227.629 1836.57 230.314 Q1838.56 232.976 1842.01 232.976 Q1845.41 232.976 1847.4 230.291 Q1849.39 227.606 1849.39 222.976 Q1849.39 218.37 1847.4 215.684 Q1845.41 212.976 1842.01 212.976 M1842.01 209.365 Q1847.56 209.365 1850.73 212.976 Q1853.9 216.587 1853.9 222.976 Q1853.9 229.342 1850.73 232.976 Q1847.56 236.587 1842.01 236.587 Q1836.43 236.587 1833.26 232.976 Q1830.11 229.342 1830.11 222.976 Q1830.11 216.587 1833.26 212.976 Q1836.43 209.365 1842.01 209.365 Z" fill="#000000" fill-rule="nonzero" fill-opacity="1"></path><path clip-path="url(#clip510)" d="M1875.99 213.971 Q1875.27 213.555 1874.41 213.37 Q1873.58 213.161 1872.56 213.161 Q1868.95 213.161 1867.01 215.522 Q1865.09 217.86 1865.09 222.258 L1865.09 235.916 L1860.8 235.916 L1860.8 209.99 L1865.09 209.99 L1865.09 214.018 Q1866.43 211.657 1868.58 210.522 Q1870.73 209.365 1873.81 209.365 Q1874.25 209.365 1874.78 209.434 Q1875.32 209.481 1875.96 209.596 L1875.99 213.971 Z" fill="#000000" fill-rule="nonzero" fill-opacity="1"></path><path clip-path="url(#clip510)" d="M1901.59 221.888 L1901.59 223.971 L1882.01 223.971 Q1882.28 228.369 1884.65 230.684 Q1887.03 232.976 1891.27 232.976 Q1893.72 232.976 1896.01 232.374 Q1898.33 231.772 1900.59 230.569 L1900.59 234.596 Q1898.3 235.568 1895.9 236.078 Q1893.49 236.587 1891.01 236.587 Q1884.81 236.587 1881.17 232.976 Q1877.56 229.365 1877.56 223.207 Q1877.56 216.842 1880.99 213.115 Q1884.44 209.365 1890.27 209.365 Q1895.5 209.365 1898.53 212.745 Q1901.59 216.101 1901.59 221.888 M1897.33 220.638 Q1897.28 217.143 1895.36 215.059 Q1893.46 212.976 1890.32 212.976 Q1886.75 212.976 1884.6 214.99 Q1882.47 217.004 1882.15 220.661 L1897.33 220.638 Z" fill="#000000" fill-rule="nonzero" fill-opacity="1"></path><path clip-path="url(#clip510)" d="M1949.71 204.018 L1949.71 208.948 Q1947.35 206.749 1944.67 205.661 Q1942.01 204.573 1939 204.573 Q1933.07 204.573 1929.92 208.208 Q1926.77 211.819 1926.77 218.67 Q1926.77 225.499 1929.92 229.133 Q1933.07 232.744 1939 232.744 Q1942.01 232.744 1944.67 231.656 Q1947.35 230.569 1949.71 228.369 L1949.71 233.254 Q1947.26 234.92 1944.51 235.754 Q1941.77 236.587 1938.72 236.587 Q1930.87 236.587 1926.36 231.795 Q1921.84 226.981 1921.84 218.67 Q1921.84 210.337 1926.36 205.546 Q1930.87 200.731 1938.72 200.731 Q1941.82 200.731 1944.55 201.564 Q1947.31 202.374 1949.71 204.018 Z" fill="#000000" fill-rule="nonzero" fill-opacity="1"></path><path clip-path="url(#clip510)" d="M1966.8 212.976 Q1963.37 212.976 1961.38 215.661 Q1959.39 218.323 1959.39 222.976 Q1959.39 227.629 1961.36 230.314 Q1963.35 232.976 1966.8 232.976 Q1970.2 232.976 1972.19 230.291 Q1974.18 227.606 1974.18 222.976 Q1974.18 218.37 1972.19 215.684 Q1970.2 212.976 1966.8 212.976 M1966.8 209.365 Q1972.35 209.365 1975.52 212.976 Q1978.7 216.587 1978.7 222.976 Q1978.7 229.342 1975.52 232.976 Q1972.35 236.587 1966.8 236.587 Q1961.22 236.587 1958.05 232.976 Q1954.9 229.342 1954.9 222.976 Q1954.9 216.587 1958.05 212.976 Q1961.22 209.365 1966.8 209.365 Z" fill="#000000" fill-rule="nonzero" fill-opacity="1"></path><path clip-path="url(#clip510)" d="M2005.94 214.967 Q2007.54 212.096 2009.76 210.731 Q2011.98 209.365 2014.99 209.365 Q2019.04 209.365 2021.24 212.212 Q2023.44 215.036 2023.44 220.268 L2023.44 235.916 L2019.16 235.916 L2019.16 220.407 Q2019.16 216.68 2017.84 214.874 Q2016.52 213.069 2013.81 213.069 Q2010.5 213.069 2008.58 215.268 Q2006.66 217.467 2006.66 221.263 L2006.66 235.916 L2002.38 235.916 L2002.38 220.407 Q2002.38 216.657 2001.06 214.874 Q1999.74 213.069 1996.98 213.069 Q1993.72 213.069 1991.8 215.291 Q1989.88 217.49 1989.88 221.263 L1989.88 235.916 L1985.59 235.916 L1985.59 209.99 L1989.88 209.99 L1989.88 214.018 Q1991.33 211.633 1993.37 210.499 Q1995.41 209.365 1998.21 209.365 Q2001.03 209.365 2003 210.8 Q2004.99 212.235 2005.94 214.967 Z" fill="#000000" fill-rule="nonzero" fill-opacity="1"></path><path clip-path="url(#clip510)" d="M2036.06 232.027 L2036.06 245.777 L2031.77 245.777 L2031.77 209.99 L2036.06 209.99 L2036.06 213.925 Q2037.4 211.61 2039.44 210.499 Q2041.5 209.365 2044.34 209.365 Q2049.07 209.365 2052.01 213.115 Q2054.97 216.865 2054.97 222.976 Q2054.97 229.087 2052.01 232.837 Q2049.07 236.587 2044.34 236.587 Q2041.5 236.587 2039.44 235.476 Q2037.4 234.342 2036.06 232.027 M2050.55 222.976 Q2050.55 218.277 2048.6 215.615 Q2046.68 212.93 2043.3 212.93 Q2039.92 212.93 2037.98 215.615 Q2036.06 218.277 2036.06 222.976 Q2036.06 227.675 2037.98 230.36 Q2039.92 233.022 2043.3 233.022 Q2046.68 233.022 2048.6 230.36 Q2050.55 227.675 2050.55 222.976 Z" fill="#000000" fill-rule="nonzero" fill-opacity="1"></path><path clip-path="url(#clip510)" d="M2084.2 221.888 L2084.2 223.971 L2064.62 223.971 Q2064.9 228.369 2067.26 230.684 Q2069.64 232.976 2073.88 232.976 Q2076.33 232.976 2078.63 232.374 Q2080.94 231.772 2083.21 230.569 L2083.21 234.596 Q2080.92 235.568 2078.51 236.078 Q2076.1 236.587 2073.63 236.587 Q2067.42 236.587 2063.79 232.976 Q2060.18 229.365 2060.18 223.207 Q2060.18 216.842 2063.6 213.115 Q2067.05 209.365 2072.89 209.365 Q2078.12 209.365 2081.15 212.745 Q2084.2 216.101 2084.2 221.888 M2079.95 220.638 Q2079.9 217.143 2077.98 215.059 Q2076.08 212.976 2072.93 212.976 Q2069.37 212.976 2067.21 214.99 Q2065.08 217.004 2064.76 220.661 L2079.95 220.638 Z" fill="#000000" fill-rule="nonzero" fill-opacity="1"></path><path clip-path="url(#clip510)" d="M2112.75 220.268 L2112.75 235.916 L2108.49 235.916 L2108.49 220.407 Q2108.49 216.726 2107.05 214.897 Q2105.62 213.069 2102.75 213.069 Q2099.3 213.069 2097.31 215.268 Q2095.32 217.467 2095.32 221.263 L2095.32 235.916 L2091.03 235.916 L2091.03 209.99 L2095.32 209.99 L2095.32 214.018 Q2096.84 211.68 2098.9 210.522 Q2100.99 209.365 2103.7 209.365 Q2108.16 209.365 2110.45 212.143 Q2112.75 214.897 2112.75 220.268 Z" fill="#000000" fill-rule="nonzero" fill-opacity="1"></path><path clip-path="url(#clip510)" d="M2137.77 210.754 L2137.77 214.782 Q2135.96 213.856 2134.02 213.393 Q2132.07 212.93 2129.99 212.93 Q2126.82 212.93 2125.22 213.902 Q2123.65 214.874 2123.65 216.819 Q2123.65 218.3 2124.78 219.157 Q2125.92 219.99 2129.34 220.754 L2130.8 221.078 Q2135.34 222.05 2137.24 223.832 Q2139.16 225.592 2139.16 228.763 Q2139.16 232.374 2136.29 234.481 Q2133.44 236.587 2128.44 236.587 Q2126.36 236.587 2124.09 236.17 Q2121.84 235.777 2119.34 234.967 L2119.34 230.569 Q2121.7 231.795 2124 232.42 Q2126.29 233.022 2128.53 233.022 Q2131.54 233.022 2133.16 232.004 Q2134.78 230.962 2134.78 229.087 Q2134.78 227.351 2133.6 226.425 Q2132.45 225.499 2128.49 224.643 L2127.01 224.295 Q2123.05 223.462 2121.29 221.749 Q2119.53 220.013 2119.53 217.004 Q2119.53 213.346 2122.12 211.356 Q2124.71 209.365 2129.48 209.365 Q2131.84 209.365 2133.93 209.712 Q2136.01 210.059 2137.77 210.754 Z" fill="#000000" fill-rule="nonzero" fill-opacity="1"></path><path clip-path="url(#clip510)" d="M2157.72 222.883 Q2152.56 222.883 2150.57 224.064 Q2148.58 225.244 2148.58 228.092 Q2148.58 230.36 2150.06 231.703 Q2151.57 233.022 2154.13 233.022 Q2157.68 233.022 2159.81 230.522 Q2161.96 227.999 2161.96 223.832 L2161.96 222.883 L2157.72 222.883 M2166.22 221.124 L2166.22 235.916 L2161.96 235.916 L2161.96 231.981 Q2160.5 234.342 2158.32 235.476 Q2156.15 236.587 2153 236.587 Q2149.02 236.587 2146.66 234.365 Q2144.32 232.119 2144.32 228.369 Q2144.32 223.994 2147.24 221.772 Q2150.18 219.55 2155.99 219.55 L2161.96 219.55 L2161.96 219.133 Q2161.96 216.194 2160.01 214.596 Q2158.09 212.976 2154.6 212.976 Q2152.38 212.976 2150.27 213.508 Q2148.16 214.041 2146.22 215.106 L2146.22 211.17 Q2148.56 210.268 2150.76 209.828 Q2152.95 209.365 2155.04 209.365 Q2160.66 209.365 2163.44 212.282 Q2166.22 215.198 2166.22 221.124 Z" fill="#000000" fill-rule="nonzero" fill-opacity="1"></path><path clip-path="url(#clip510)" d="M2179.2 202.629 L2179.2 209.99 L2187.98 209.99 L2187.98 213.3 L2179.2 213.3 L2179.2 227.374 Q2179.2 230.545 2180.06 231.448 Q2180.94 232.351 2183.6 232.351 L2187.98 232.351 L2187.98 235.916 L2183.6 235.916 Q2178.67 235.916 2176.8 234.087 Q2174.92 232.235 2174.92 227.374 L2174.92 213.3 L2171.8 213.3 L2171.8 209.99 L2174.92 209.99 L2174.92 202.629 L2179.2 202.629 Z" fill="#000000" fill-rule="nonzero" fill-opacity="1"></path><path clip-path="url(#clip510)" d="M2193.58 209.99 L2197.84 209.99 L2197.84 235.916 L2193.58 235.916 L2193.58 209.99 M2193.58 199.897 L2197.84 199.897 L2197.84 205.291 L2193.58 205.291 L2193.58 199.897 Z" fill="#000000" fill-rule="nonzero" fill-opacity="1"></path><path clip-path="url(#clip510)" d="M2216.8 212.976 Q2213.37 212.976 2211.38 215.661 Q2209.39 218.323 2209.39 222.976 Q2209.39 227.629 2211.36 230.314 Q2213.35 232.976 2216.8 232.976 Q2220.2 232.976 2222.19 230.291 Q2224.18 227.606 2224.18 222.976 Q2224.18 218.37 2222.19 215.684 Q2220.2 212.976 2216.8 212.976 M2216.8 209.365 Q2222.35 209.365 2225.52 212.976 Q2228.69 216.587 2228.69 222.976 Q2228.69 229.342 2225.52 232.976 Q2222.35 236.587 2216.8 236.587 Q2211.22 236.587 2208.05 232.976 Q2204.9 229.342 2204.9 222.976 Q2204.9 216.587 2208.05 212.976 Q2211.22 209.365 2216.8 209.365 Z" fill="#000000" fill-rule="nonzero" fill-opacity="1"></path><path clip-path="url(#clip510)" d="M2257.31 220.268 L2257.31 235.916 L2253.05 235.916 L2253.05 220.407 Q2253.05 216.726 2251.61 214.897 Q2250.18 213.069 2247.31 213.069 Q2243.86 213.069 2241.87 215.268 Q2239.88 217.467 2239.88 221.263 L2239.88 235.916 L2235.59 235.916 L2235.59 209.99 L2239.88 209.99 L2239.88 214.018 Q2241.4 211.68 2243.46 210.522 Q2245.55 209.365 2248.25 209.365 Q2252.72 209.365 2255.01 212.143 Q2257.31 214.897 2257.31 220.268 Z" fill="#000000" fill-rule="nonzero" fill-opacity="1"></path><polyline clip-path="url(#clip510)" style="stroke:#ff0000; stroke-linecap:round; stroke-linejoin:round; stroke-width:4; stroke-opacity:1; fill:none" stroke-dasharray="16, 10" points="1586.73,270.476 1729.9,270.476 "></polyline>
<path clip-path="url(#clip510)" d="M1636.22 248.381 L1636.22 292.571 L1680.41 292.571 L1680.41 248.381 L1636.22 248.381 Z" fill="#ff0000" fill-rule="evenodd" fill-opacity="1" stroke="#000000" stroke-opacity="1" stroke-width="4.55111"></path>
<path clip-path="url(#clip510)" d="M1769.6 257.802 L1763.26 275.001 L1775.97 275.001 L1769.6 257.802 M1766.96 253.196 L1772.26 253.196 L1785.43 287.756 L1780.57 287.756 L1777.42 278.89 L1761.85 278.89 L1758.7 287.756 L1753.77 287.756 L1766.96 253.196 Z" fill="#000000" fill-rule="nonzero" fill-opacity="1"></path><path clip-path="url(#clip510)" d="M1801.73 251.737 L1801.73 255.279 L1797.66 255.279 Q1795.36 255.279 1794.46 256.205 Q1793.58 257.131 1793.58 259.538 L1793.58 261.83 L1800.59 261.83 L1800.59 265.14 L1793.58 265.14 L1793.58 287.756 L1789.3 287.756 L1789.3 265.14 L1785.22 265.14 L1785.22 261.83 L1789.3 261.83 L1789.3 260.024 Q1789.3 255.696 1791.31 253.728 Q1793.33 251.737 1797.7 251.737 L1801.73 251.737 Z" fill="#000000" fill-rule="nonzero" fill-opacity="1"></path><path clip-path="url(#clip510)" d="M1808.67 254.469 L1808.67 261.83 L1817.45 261.83 L1817.45 265.14 L1808.67 265.14 L1808.67 279.214 Q1808.67 282.385 1809.53 283.288 Q1810.41 284.191 1813.07 284.191 L1817.45 284.191 L1817.45 287.756 L1813.07 287.756 Q1808.14 287.756 1806.27 285.927 Q1804.39 284.075 1804.39 279.214 L1804.39 265.14 L1801.27 265.14 L1801.27 261.83 L1804.39 261.83 L1804.39 254.469 L1808.67 254.469 Z" fill="#000000" fill-rule="nonzero" fill-opacity="1"></path><path clip-path="url(#clip510)" d="M1845.22 273.728 L1845.22 275.811 L1825.64 275.811 Q1825.92 280.209 1828.28 282.524 Q1830.66 284.816 1834.9 284.816 Q1837.35 284.816 1839.65 284.214 Q1841.96 283.612 1844.23 282.409 L1844.23 286.436 Q1841.94 287.408 1839.53 287.918 Q1837.12 288.427 1834.65 288.427 Q1828.44 288.427 1824.81 284.816 Q1821.2 281.205 1821.2 275.047 Q1821.2 268.682 1824.62 264.955 Q1828.07 261.205 1833.9 261.205 Q1839.14 261.205 1842.17 264.585 Q1845.22 267.941 1845.22 273.728 M1840.97 272.478 Q1840.92 268.983 1839 266.899 Q1837.1 264.816 1833.95 264.816 Q1830.39 264.816 1828.23 266.83 Q1826.1 268.844 1825.78 272.501 L1840.97 272.478 Z" fill="#000000" fill-rule="nonzero" fill-opacity="1"></path><path clip-path="url(#clip510)" d="M1867.24 265.811 Q1866.52 265.395 1865.66 265.21 Q1864.83 265.001 1863.81 265.001 Q1860.2 265.001 1858.26 267.362 Q1856.34 269.7 1856.34 274.098 L1856.34 287.756 L1852.05 287.756 L1852.05 261.83 L1856.34 261.83 L1856.34 265.858 Q1857.68 263.497 1859.83 262.362 Q1861.98 261.205 1865.06 261.205 Q1865.5 261.205 1866.03 261.274 Q1866.57 261.321 1867.21 261.436 L1867.24 265.811 Z" fill="#000000" fill-rule="nonzero" fill-opacity="1"></path><path clip-path="url(#clip510)" d="M1912.84 255.858 L1912.84 260.788 Q1910.48 258.589 1907.79 257.501 Q1905.13 256.413 1902.12 256.413 Q1896.2 256.413 1893.05 260.048 Q1889.9 263.659 1889.9 270.51 Q1889.9 277.339 1893.05 280.973 Q1896.2 284.584 1902.12 284.584 Q1905.13 284.584 1907.79 283.496 Q1910.48 282.409 1912.84 280.209 L1912.84 285.094 Q1910.39 286.76 1907.63 287.594 Q1904.9 288.427 1901.84 288.427 Q1894 288.427 1889.48 283.635 Q1884.97 278.821 1884.97 270.51 Q1884.97 262.177 1889.48 257.386 Q1894 252.571 1901.84 252.571 Q1904.95 252.571 1907.68 253.404 Q1910.43 254.214 1912.84 255.858 Z" fill="#000000" fill-rule="nonzero" fill-opacity="1"></path><path clip-path="url(#clip510)" d="M1929.92 264.816 Q1926.5 264.816 1924.51 267.501 Q1922.52 270.163 1922.52 274.816 Q1922.52 279.469 1924.48 282.154 Q1926.47 284.816 1929.92 284.816 Q1933.33 284.816 1935.32 282.131 Q1937.31 279.446 1937.31 274.816 Q1937.31 270.21 1935.32 267.524 Q1933.33 264.816 1929.92 264.816 M1929.92 261.205 Q1935.48 261.205 1938.65 264.816 Q1941.82 268.427 1941.82 274.816 Q1941.82 281.182 1938.65 284.816 Q1935.48 288.427 1929.92 288.427 Q1924.34 288.427 1921.17 284.816 Q1918.02 281.182 1918.02 274.816 Q1918.02 268.427 1921.17 264.816 Q1924.34 261.205 1929.92 261.205 Z" fill="#000000" fill-rule="nonzero" fill-opacity="1"></path><path clip-path="url(#clip510)" d="M1969.07 266.807 Q1970.66 263.936 1972.89 262.571 Q1975.11 261.205 1978.12 261.205 Q1982.17 261.205 1984.37 264.052 Q1986.57 266.876 1986.57 272.108 L1986.57 287.756 L1982.28 287.756 L1982.28 272.247 Q1982.28 268.52 1980.96 266.714 Q1979.64 264.909 1976.94 264.909 Q1973.63 264.909 1971.71 267.108 Q1969.78 269.307 1969.78 273.103 L1969.78 287.756 L1965.5 287.756 L1965.5 272.247 Q1965.5 268.497 1964.18 266.714 Q1962.86 264.909 1960.11 264.909 Q1956.84 264.909 1954.92 267.131 Q1953 269.33 1953 273.103 L1953 287.756 L1948.72 287.756 L1948.72 261.83 L1953 261.83 L1953 265.858 Q1954.46 263.473 1956.5 262.339 Q1958.53 261.205 1961.33 261.205 Q1964.16 261.205 1966.13 262.64 Q1968.12 264.075 1969.07 266.807 Z" fill="#000000" fill-rule="nonzero" fill-opacity="1"></path><path clip-path="url(#clip510)" d="M1999.18 283.867 L1999.18 297.617 L1994.9 297.617 L1994.9 261.83 L1999.18 261.83 L1999.18 265.765 Q2000.52 263.45 2002.56 262.339 Q2004.62 261.205 2007.47 261.205 Q2012.19 261.205 2015.13 264.955 Q2018.09 268.705 2018.09 274.816 Q2018.09 280.927 2015.13 284.677 Q2012.19 288.427 2007.47 288.427 Q2004.62 288.427 2002.56 287.316 Q2000.52 286.182 1999.18 283.867 M2013.67 274.816 Q2013.67 270.117 2011.73 267.455 Q2009.81 264.77 2006.43 264.77 Q2003.05 264.77 2001.1 267.455 Q1999.18 270.117 1999.18 274.816 Q1999.18 279.515 2001.1 282.2 Q2003.05 284.862 2006.43 284.862 Q2009.81 284.862 2011.73 282.2 Q2013.67 279.515 2013.67 274.816 Z" fill="#000000" fill-rule="nonzero" fill-opacity="1"></path><path clip-path="url(#clip510)" d="M2047.33 273.728 L2047.33 275.811 L2027.75 275.811 Q2028.02 280.209 2030.39 282.524 Q2032.77 284.816 2037.01 284.816 Q2039.46 284.816 2041.75 284.214 Q2044.07 283.612 2046.33 282.409 L2046.33 286.436 Q2044.04 287.408 2041.64 287.918 Q2039.23 288.427 2036.75 288.427 Q2030.55 288.427 2026.91 284.816 Q2023.3 281.205 2023.3 275.047 Q2023.3 268.682 2026.73 264.955 Q2030.18 261.205 2036.01 261.205 Q2041.24 261.205 2044.27 264.585 Q2047.33 267.941 2047.33 273.728 M2043.07 272.478 Q2043.02 268.983 2041.1 266.899 Q2039.2 264.816 2036.06 264.816 Q2032.49 264.816 2030.34 266.83 Q2028.21 268.844 2027.89 272.501 L2043.07 272.478 Z" fill="#000000" fill-rule="nonzero" fill-opacity="1"></path><path clip-path="url(#clip510)" d="M2075.87 272.108 L2075.87 287.756 L2071.61 287.756 L2071.61 272.247 Q2071.61 268.566 2070.18 266.737 Q2068.74 264.909 2065.87 264.909 Q2062.42 264.909 2060.43 267.108 Q2058.44 269.307 2058.44 273.103 L2058.44 287.756 L2054.16 287.756 L2054.16 261.83 L2058.44 261.83 L2058.44 265.858 Q2059.97 263.52 2062.03 262.362 Q2064.11 261.205 2066.82 261.205 Q2071.29 261.205 2073.58 263.983 Q2075.87 266.737 2075.87 272.108 Z" fill="#000000" fill-rule="nonzero" fill-opacity="1"></path><path clip-path="url(#clip510)" d="M2100.89 262.594 L2100.89 266.622 Q2099.09 265.696 2097.14 265.233 Q2095.2 264.77 2093.12 264.77 Q2089.95 264.77 2088.35 265.742 Q2086.77 266.714 2086.77 268.659 Q2086.77 270.14 2087.91 270.997 Q2089.04 271.83 2092.47 272.594 L2093.93 272.918 Q2098.46 273.89 2100.36 275.672 Q2102.28 277.432 2102.28 280.603 Q2102.28 284.214 2099.41 286.321 Q2096.57 288.427 2091.57 288.427 Q2089.48 288.427 2087.21 288.01 Q2084.97 287.617 2082.47 286.807 L2082.47 282.409 Q2084.83 283.635 2087.12 284.26 Q2089.41 284.862 2091.66 284.862 Q2094.67 284.862 2096.29 283.844 Q2097.91 282.802 2097.91 280.927 Q2097.91 279.191 2096.73 278.265 Q2095.57 277.339 2091.61 276.483 L2090.13 276.135 Q2086.17 275.302 2084.41 273.589 Q2082.65 271.853 2082.65 268.844 Q2082.65 265.186 2085.25 263.196 Q2087.84 261.205 2092.61 261.205 Q2094.97 261.205 2097.05 261.552 Q2099.14 261.899 2100.89 262.594 Z" fill="#000000" fill-rule="nonzero" fill-opacity="1"></path><path clip-path="url(#clip510)" d="M2120.85 274.723 Q2115.69 274.723 2113.7 275.904 Q2111.7 277.084 2111.7 279.932 Q2111.7 282.2 2113.19 283.543 Q2114.69 284.862 2117.26 284.862 Q2120.8 284.862 2122.93 282.362 Q2125.08 279.839 2125.08 275.672 L2125.08 274.723 L2120.85 274.723 M2129.34 272.964 L2129.34 287.756 L2125.08 287.756 L2125.08 283.821 Q2123.63 286.182 2121.45 287.316 Q2119.27 288.427 2116.13 288.427 Q2112.14 288.427 2109.78 286.205 Q2107.45 283.959 2107.45 280.209 Q2107.45 275.834 2110.36 273.612 Q2113.3 271.39 2119.11 271.39 L2125.08 271.39 L2125.08 270.973 Q2125.08 268.034 2123.14 266.436 Q2121.22 264.816 2117.72 264.816 Q2115.5 264.816 2113.39 265.348 Q2111.29 265.881 2109.34 266.946 L2109.34 263.01 Q2111.68 262.108 2113.88 261.668 Q2116.08 261.205 2118.16 261.205 Q2123.79 261.205 2126.57 264.122 Q2129.34 267.038 2129.34 272.964 Z" fill="#000000" fill-rule="nonzero" fill-opacity="1"></path><path clip-path="url(#clip510)" d="M2142.33 254.469 L2142.33 261.83 L2151.1 261.83 L2151.1 265.14 L2142.33 265.14 L2142.33 279.214 Q2142.33 282.385 2143.19 283.288 Q2144.07 284.191 2146.73 284.191 L2151.1 284.191 L2151.1 287.756 L2146.73 287.756 Q2141.8 287.756 2139.92 285.927 Q2138.05 284.075 2138.05 279.214 L2138.05 265.14 L2134.92 265.14 L2134.92 261.83 L2138.05 261.83 L2138.05 254.469 L2142.33 254.469 Z" fill="#000000" fill-rule="nonzero" fill-opacity="1"></path><path clip-path="url(#clip510)" d="M2156.7 261.83 L2160.96 261.83 L2160.96 287.756 L2156.7 287.756 L2156.7 261.83 M2156.7 251.737 L2160.96 251.737 L2160.96 257.131 L2156.7 257.131 L2156.7 251.737 Z" fill="#000000" fill-rule="nonzero" fill-opacity="1"></path><path clip-path="url(#clip510)" d="M2179.92 264.816 Q2176.5 264.816 2174.5 267.501 Q2172.51 270.163 2172.51 274.816 Q2172.51 279.469 2174.48 282.154 Q2176.47 284.816 2179.92 284.816 Q2183.32 284.816 2185.32 282.131 Q2187.31 279.446 2187.31 274.816 Q2187.31 270.21 2185.32 267.524 Q2183.32 264.816 2179.92 264.816 M2179.92 261.205 Q2185.48 261.205 2188.65 264.816 Q2191.82 268.427 2191.82 274.816 Q2191.82 281.182 2188.65 284.816 Q2185.48 288.427 2179.92 288.427 Q2174.34 288.427 2171.17 284.816 Q2168.02 281.182 2168.02 274.816 Q2168.02 268.427 2171.17 264.816 Q2174.34 261.205 2179.92 261.205 Z" fill="#000000" fill-rule="nonzero" fill-opacity="1"></path><path clip-path="url(#clip510)" d="M2220.43 272.108 L2220.43 287.756 L2216.17 287.756 L2216.17 272.247 Q2216.17 268.566 2214.74 266.737 Q2213.3 264.909 2210.43 264.909 Q2206.98 264.909 2204.99 267.108 Q2203 269.307 2203 273.103 L2203 287.756 L2198.72 287.756 L2198.72 261.83 L2203 261.83 L2203 265.858 Q2204.53 263.52 2206.59 262.362 Q2208.67 261.205 2211.38 261.205 Q2215.85 261.205 2218.14 263.983 Q2220.43 266.737 2220.43 272.108 Z" fill="#000000" fill-rule="nonzero" fill-opacity="1"></path></svg>