<svg xmlns="http://www.w3.org/2000/svg" xmlns:xlink="http://www.w3.org/1999/xlink" width="600" height="400" viewBox="0 0 2400 1600">
<defs>
  <clipPath id="clip480">
    <rect x="0" y="0" width="2400" height="1600"></rect>
  </clipPath>
</defs>
<path clip-path="url(#clip480)" d="M0 1600 L2400 1600 L2400 8.88178e-14 L0 8.88178e-14  Z" fill="#ffffff" fill-rule="evenodd" fill-opacity="1"></path>
<defs>
  <clipPath id="clip481">
    <rect x="480" y="0" width="1681" height="1600"></rect>
  </clipPath>
</defs>
<path clip-path="url(#clip480)" d="M234.125 1423.18 L2352.76 1423.18 L2352.76 123.472 L234.125 123.472  Z" fill="#ffffff" fill-rule="evenodd" fill-opacity="1"></path>
<defs>
  <clipPath id="clip482">
    <rect x="234" y="123" width="2120" height="1301"></rect>
  </clipPath>
</defs>
<polyline clip-path="url(#clip482)" style="stroke:#000000; stroke-linecap:round; stroke-linejoin:round; stroke-width:2; stroke-opacity:0.1; fill:none" points="294.087,1423.18 294.087,123.472 "></polyline>
<polyline clip-path="url(#clip482)" style="stroke:#000000; stroke-linecap:round; stroke-linejoin:round; stroke-width:2; stroke-opacity:0.1; fill:none" points="960.323,1423.18 960.323,123.472 "></polyline>
<polyline clip-path="url(#clip482)" style="stroke:#000000; stroke-linecap:round; stroke-linejoin:round; stroke-width:2; stroke-opacity:0.1; fill:none" points="1626.56,1423.18 1626.56,123.472 "></polyline>
<polyline clip-path="url(#clip482)" style="stroke:#000000; stroke-linecap:round; stroke-linejoin:round; stroke-width:2; stroke-opacity:0.1; fill:none" points="2292.79,1423.18 2292.79,123.472 "></polyline>
<polyline clip-path="url(#clip482)" style="stroke:#000000; stroke-linecap:round; stroke-linejoin:round; stroke-width:2; stroke-opacity:0.1; fill:none" points="234.125,1416.55 2352.76,1416.55 "></polyline>
<polyline clip-path="url(#clip482)" style="stroke:#000000; stroke-linecap:round; stroke-linejoin:round; stroke-width:2; stroke-opacity:0.1; fill:none" points="234.125,1110.73 2352.76,1110.73 "></polyline>
<polyline clip-path="url(#clip482)" style="stroke:#000000; stroke-linecap:round; stroke-linejoin:round; stroke-width:2; stroke-opacity:0.1; fill:none" points="234.125,804.912 2352.76,804.912 "></polyline>
<polyline clip-path="url(#clip482)" style="stroke:#000000; stroke-linecap:round; stroke-linejoin:round; stroke-width:2; stroke-opacity:0.1; fill:none" points="234.125,499.094 2352.76,499.094 "></polyline>
<polyline clip-path="url(#clip482)" style="stroke:#000000; stroke-linecap:round; stroke-linejoin:round; stroke-width:2; stroke-opacity:0.1; fill:none" points="234.125,193.277 2352.76,193.277 "></polyline>
<polyline clip-path="url(#clip480)" style="stroke:#000000; stroke-linecap:round; stroke-linejoin:round; stroke-width:4; stroke-opacity:1; fill:none" points="234.125,1423.18 2352.76,1423.18 "></polyline>
<polyline clip-path="url(#clip480)" style="stroke:#000000; stroke-linecap:round; stroke-linejoin:round; stroke-width:4; stroke-opacity:1; fill:none" points="294.087,1423.18 294.087,1404.28 "></polyline>
<polyline clip-path="url(#clip480)" style="stroke:#000000; stroke-linecap:round; stroke-linejoin:round; stroke-width:4; stroke-opacity:1; fill:none" points="960.323,1423.18 960.323,1404.28 "></polyline>
<polyline clip-path="url(#clip480)" style="stroke:#000000; stroke-linecap:round; stroke-linejoin:round; stroke-width:4; stroke-opacity:1; fill:none" points="1626.56,1423.18 1626.56,1404.28 "></polyline>
<polyline clip-path="url(#clip480)" style="stroke:#000000; stroke-linecap:round; stroke-linejoin:round; stroke-width:4; stroke-opacity:1; fill:none" points="2292.79,1423.18 2292.79,1404.28 "></polyline>
<path clip-path="url(#clip480)" d="M206.761 1454.86 L206.761 1467.85 L212.64 1467.85 Q215.904 1467.85 217.687 1466.16 Q219.469 1464.47 219.469 1461.34 Q219.469 1458.24 217.687 1456.55 Q215.904 1454.86 212.64 1454.86 L206.761 1454.86 M202.085 1451.02 L212.64 1451.02 Q218.451 1451.02 221.413 1453.66 Q224.4 1456.27 224.4 1461.34 Q224.4 1466.46 221.413 1469.08 Q218.451 1471.69 212.64 1471.69 L206.761 1471.69 L206.761 1485.58 L202.085 1485.58 L202.085 1451.02 Z" fill="#000000" fill-rule="nonzero" fill-opacity="1"></path><path clip-path="url(#clip480)" d="M252.038 1469.93 L252.038 1485.58 L247.779 1485.58 L247.779 1470.07 Q247.779 1466.39 246.344 1464.56 Q244.909 1462.73 242.038 1462.73 Q238.589 1462.73 236.599 1464.93 Q234.608 1467.13 234.608 1470.93 L234.608 1485.58 L230.325 1485.58 L230.325 1449.56 L234.608 1449.56 L234.608 1463.68 Q236.136 1461.34 238.196 1460.19 Q240.279 1459.03 242.987 1459.03 Q247.455 1459.03 249.747 1461.81 Q252.038 1464.56 252.038 1469.93 Z" fill="#000000" fill-rule="nonzero" fill-opacity="1"></path><path clip-path="url(#clip480)" d="M272.316 1472.55 Q267.154 1472.55 265.163 1473.73 Q263.173 1474.91 263.173 1477.76 Q263.173 1480.02 264.654 1481.37 Q266.159 1482.69 268.728 1482.69 Q272.27 1482.69 274.399 1480.19 Q276.552 1477.66 276.552 1473.5 L276.552 1472.55 L272.316 1472.55 M280.811 1470.79 L280.811 1485.58 L276.552 1485.58 L276.552 1481.64 Q275.094 1484.01 272.918 1485.14 Q270.742 1486.25 267.594 1486.25 Q263.612 1486.25 261.251 1484.03 Q258.913 1481.78 258.913 1478.03 Q258.913 1473.66 261.83 1471.44 Q264.77 1469.21 270.58 1469.21 L276.552 1469.21 L276.552 1468.8 Q276.552 1465.86 274.608 1464.26 Q272.686 1462.64 269.191 1462.64 Q266.969 1462.64 264.862 1463.17 Q262.756 1463.7 260.811 1464.77 L260.811 1460.83 Q263.149 1459.93 265.348 1459.49 Q267.547 1459.03 269.631 1459.03 Q275.256 1459.03 278.034 1461.95 Q280.811 1464.86 280.811 1470.79 Z" fill="#000000" fill-rule="nonzero" fill-opacity="1"></path><path clip-path="url(#clip480)" d="M306.112 1460.42 L306.112 1464.45 Q304.307 1463.52 302.362 1463.06 Q300.418 1462.59 298.334 1462.59 Q295.163 1462.59 293.566 1463.57 Q291.992 1464.54 291.992 1466.48 Q291.992 1467.96 293.126 1468.82 Q294.26 1469.65 297.686 1470.42 L299.145 1470.74 Q303.682 1471.71 305.58 1473.5 Q307.501 1475.26 307.501 1478.43 Q307.501 1482.04 304.631 1484.14 Q301.783 1486.25 296.783 1486.25 Q294.7 1486.25 292.432 1485.83 Q290.186 1485.44 287.686 1484.63 L287.686 1480.23 Q290.047 1481.46 292.339 1482.08 Q294.631 1482.69 296.876 1482.69 Q299.885 1482.69 301.506 1481.67 Q303.126 1480.63 303.126 1478.75 Q303.126 1477.02 301.945 1476.09 Q300.788 1475.16 296.83 1474.31 L295.348 1473.96 Q291.39 1473.13 289.631 1471.41 Q287.871 1469.68 287.871 1466.67 Q287.871 1463.01 290.464 1461.02 Q293.057 1459.03 297.825 1459.03 Q300.186 1459.03 302.27 1459.38 Q304.353 1459.72 306.112 1460.42 Z" fill="#000000" fill-rule="nonzero" fill-opacity="1"></path><path clip-path="url(#clip480)" d="M336.459 1471.55 L336.459 1473.64 L316.876 1473.64 Q317.154 1478.03 319.515 1480.35 Q321.899 1482.64 326.135 1482.64 Q328.589 1482.64 330.88 1482.04 Q333.195 1481.44 335.464 1480.23 L335.464 1484.26 Q333.172 1485.23 330.765 1485.74 Q328.357 1486.25 325.88 1486.25 Q319.677 1486.25 316.043 1482.64 Q312.431 1479.03 312.431 1472.87 Q312.431 1466.51 315.857 1462.78 Q319.306 1459.03 325.14 1459.03 Q330.371 1459.03 333.404 1462.41 Q336.459 1465.77 336.459 1471.55 M332.2 1470.3 Q332.154 1466.81 330.232 1464.72 Q328.334 1462.64 325.186 1462.64 Q321.621 1462.64 319.468 1464.65 Q317.339 1466.67 317.015 1470.33 L332.2 1470.3 Z" fill="#000000" fill-rule="nonzero" fill-opacity="1"></path><path clip-path="url(#clip480)" d="M370.255 1455.63 L363.913 1472.83 L376.621 1472.83 L370.255 1455.63 M367.616 1451.02 L372.917 1451.02 L386.089 1485.58 L381.227 1485.58 L378.079 1476.71 L362.501 1476.71 L359.353 1485.58 L354.422 1485.58 L367.616 1451.02 Z" fill="#000000" fill-rule="nonzero" fill-opacity="1"></path><path clip-path="url(#clip480)" d="M874.432 1454.86 L874.432 1467.85 L880.312 1467.85 Q883.575 1467.85 885.358 1466.16 Q887.14 1464.47 887.14 1461.34 Q887.14 1458.24 885.358 1456.55 Q883.575 1454.86 880.312 1454.86 L874.432 1454.86 M869.756 1451.02 L880.312 1451.02 Q886.122 1451.02 889.085 1453.66 Q892.071 1456.27 892.071 1461.34 Q892.071 1466.46 889.085 1469.08 Q886.122 1471.69 880.312 1471.69 L874.432 1471.69 L874.432 1485.58 L869.756 1485.58 L869.756 1451.02 Z" fill="#000000" fill-rule="nonzero" fill-opacity="1"></path><path clip-path="url(#clip480)" d="M919.709 1469.93 L919.709 1485.58 L915.45 1485.58 L915.45 1470.07 Q915.45 1466.39 914.015 1464.56 Q912.58 1462.73 909.71 1462.73 Q906.26 1462.73 904.27 1464.93 Q902.279 1467.13 902.279 1470.93 L902.279 1485.58 L897.997 1485.58 L897.997 1449.56 L902.279 1449.56 L902.279 1463.68 Q903.807 1461.34 905.867 1460.19 Q907.95 1459.03 910.659 1459.03 Q915.126 1459.03 917.418 1461.81 Q919.709 1464.56 919.709 1469.93 Z" fill="#000000" fill-rule="nonzero" fill-opacity="1"></path><path clip-path="url(#clip480)" d="M939.987 1472.55 Q934.825 1472.55 932.834 1473.73 Q930.844 1474.91 930.844 1477.76 Q930.844 1480.02 932.325 1481.37 Q933.83 1482.69 936.399 1482.69 Q939.941 1482.69 942.07 1480.19 Q944.223 1477.66 944.223 1473.5 L944.223 1472.55 L939.987 1472.55 M948.482 1470.79 L948.482 1485.58 L944.223 1485.58 L944.223 1481.64 Q942.765 1484.01 940.589 1485.14 Q938.413 1486.25 935.265 1486.25 Q931.283 1486.25 928.922 1484.03 Q926.584 1481.78 926.584 1478.03 Q926.584 1473.66 929.501 1471.44 Q932.441 1469.21 938.251 1469.21 L944.223 1469.21 L944.223 1468.8 Q944.223 1465.86 942.279 1464.26 Q940.358 1462.64 936.862 1462.64 Q934.64 1462.64 932.533 1463.17 Q930.427 1463.7 928.483 1464.77 L928.483 1460.83 Q930.821 1459.93 933.02 1459.49 Q935.219 1459.03 937.302 1459.03 Q942.927 1459.03 945.705 1461.95 Q948.482 1464.86 948.482 1470.79 Z" fill="#000000" fill-rule="nonzero" fill-opacity="1"></path><path clip-path="url(#clip480)" d="M973.783 1460.42 L973.783 1464.45 Q971.978 1463.52 970.033 1463.06 Q968.089 1462.59 966.006 1462.59 Q962.834 1462.59 961.237 1463.57 Q959.663 1464.54 959.663 1466.48 Q959.663 1467.96 960.797 1468.82 Q961.931 1469.65 965.357 1470.42 L966.816 1470.74 Q971.353 1471.71 973.251 1473.5 Q975.172 1475.26 975.172 1478.43 Q975.172 1482.04 972.302 1484.14 Q969.455 1486.25 964.455 1486.25 Q962.371 1486.25 960.103 1485.83 Q957.857 1485.44 955.357 1484.63 L955.357 1480.23 Q957.719 1481.46 960.01 1482.08 Q962.302 1482.69 964.547 1482.69 Q967.556 1482.69 969.177 1481.67 Q970.797 1480.63 970.797 1478.75 Q970.797 1477.02 969.617 1476.09 Q968.459 1475.16 964.501 1474.31 L963.019 1473.96 Q959.061 1473.13 957.302 1471.41 Q955.543 1469.68 955.543 1466.67 Q955.543 1463.01 958.135 1461.02 Q960.728 1459.03 965.496 1459.03 Q967.857 1459.03 969.941 1459.38 Q972.024 1459.72 973.783 1460.42 Z" fill="#000000" fill-rule="nonzero" fill-opacity="1"></path><path clip-path="url(#clip480)" d="M1004.13 1471.55 L1004.13 1473.64 L984.547 1473.64 Q984.825 1478.03 987.186 1480.35 Q989.57 1482.64 993.806 1482.64 Q996.26 1482.64 998.552 1482.04 Q1000.87 1481.44 1003.13 1480.23 L1003.13 1484.26 Q1000.84 1485.23 998.436 1485.74 Q996.029 1486.25 993.552 1486.25 Q987.348 1486.25 983.714 1482.64 Q980.103 1479.03 980.103 1472.87 Q980.103 1466.51 983.529 1462.78 Q986.978 1459.03 992.811 1459.03 Q998.042 1459.03 1001.07 1462.41 Q1004.13 1465.77 1004.13 1471.55 M999.871 1470.3 Q999.825 1466.81 997.903 1464.72 Q996.005 1462.64 992.857 1462.64 Q989.292 1462.64 987.14 1464.65 Q985.01 1466.67 984.686 1470.33 L999.871 1470.3 Z" fill="#000000" fill-rule="nonzero" fill-opacity="1"></path><path clip-path="url(#clip480)" d="M1031.05 1469.08 L1031.05 1481.74 L1038.55 1481.74 Q1042.32 1481.74 1044.13 1480.19 Q1045.96 1478.61 1045.96 1475.39 Q1045.96 1472.15 1044.13 1470.63 Q1042.32 1469.08 1038.55 1469.08 L1031.05 1469.08 M1031.05 1454.86 L1031.05 1465.28 L1037.97 1465.28 Q1041.4 1465.28 1043.07 1464.01 Q1044.76 1462.71 1044.76 1460.07 Q1044.76 1457.45 1043.07 1456.16 Q1041.4 1454.86 1037.97 1454.86 L1031.05 1454.86 M1026.38 1451.02 L1038.32 1451.02 Q1043.67 1451.02 1046.56 1453.24 Q1049.45 1455.46 1049.45 1459.56 Q1049.45 1462.73 1047.97 1464.61 Q1046.49 1466.48 1043.62 1466.95 Q1047.07 1467.69 1048.97 1470.05 Q1050.89 1472.39 1050.89 1475.9 Q1050.89 1480.53 1047.74 1483.06 Q1044.59 1485.58 1038.78 1485.58 L1026.38 1485.58 L1026.38 1451.02 Z" fill="#000000" fill-rule="nonzero" fill-opacity="1"></path><path clip-path="url(#clip480)" d="M1539.99 1454.86 L1539.99 1467.85 L1545.86 1467.85 Q1549.13 1467.85 1550.91 1466.16 Q1552.69 1464.47 1552.69 1461.34 Q1552.69 1458.24 1550.91 1456.55 Q1549.13 1454.86 1545.86 1454.86 L1539.99 1454.86 M1535.31 1451.02 L1545.86 1451.02 Q1551.67 1451.02 1554.64 1453.66 Q1557.62 1456.27 1557.62 1461.34 Q1557.62 1466.46 1554.64 1469.08 Q1551.67 1471.69 1545.86 1471.69 L1539.99 1471.69 L1539.99 1485.58 L1535.31 1485.58 L1535.31 1451.02 Z" fill="#000000" fill-rule="nonzero" fill-opacity="1"></path><path clip-path="url(#clip480)" d="M1585.26 1469.93 L1585.26 1485.58 L1581 1485.58 L1581 1470.07 Q1581 1466.39 1579.57 1464.56 Q1578.13 1462.73 1575.26 1462.73 Q1571.81 1462.73 1569.82 1464.93 Q1567.83 1467.13 1567.83 1470.93 L1567.83 1485.58 L1563.55 1485.58 L1563.55 1449.56 L1567.83 1449.56 L1567.83 1463.68 Q1569.36 1461.34 1571.42 1460.19 Q1573.5 1459.03 1576.21 1459.03 Q1580.68 1459.03 1582.97 1461.81 Q1585.26 1464.56 1585.26 1469.93 Z" fill="#000000" fill-rule="nonzero" fill-opacity="1"></path><path clip-path="url(#clip480)" d="M1605.54 1472.55 Q1600.38 1472.55 1598.39 1473.73 Q1596.4 1474.91 1596.4 1477.76 Q1596.4 1480.02 1597.88 1481.37 Q1599.38 1482.69 1601.95 1482.69 Q1605.49 1482.69 1607.62 1480.19 Q1609.78 1477.66 1609.78 1473.5 L1609.78 1472.55 L1605.54 1472.55 M1614.04 1470.79 L1614.04 1485.58 L1609.78 1485.58 L1609.78 1481.64 Q1608.32 1484.01 1606.14 1485.14 Q1603.97 1486.25 1600.82 1486.25 Q1596.84 1486.25 1594.48 1484.03 Q1592.14 1481.78 1592.14 1478.03 Q1592.14 1473.66 1595.05 1471.44 Q1597.99 1469.21 1603.8 1469.21 L1609.78 1469.21 L1609.78 1468.8 Q1609.78 1465.86 1607.83 1464.26 Q1605.91 1462.64 1602.42 1462.64 Q1600.19 1462.64 1598.09 1463.17 Q1595.98 1463.7 1594.04 1464.77 L1594.04 1460.83 Q1596.37 1459.93 1598.57 1459.49 Q1600.77 1459.03 1602.86 1459.03 Q1608.48 1459.03 1611.26 1461.95 Q1614.04 1464.86 1614.04 1470.79 Z" fill="#000000" fill-rule="nonzero" fill-opacity="1"></path><path clip-path="url(#clip480)" d="M1639.34 1460.42 L1639.34 1464.45 Q1637.53 1463.52 1635.59 1463.06 Q1633.64 1462.59 1631.56 1462.59 Q1628.39 1462.59 1626.79 1463.57 Q1625.22 1464.54 1625.22 1466.48 Q1625.22 1467.96 1626.35 1468.82 Q1627.48 1469.65 1630.91 1470.42 L1632.37 1470.74 Q1636.91 1471.71 1638.8 1473.5 Q1640.73 1475.26 1640.73 1478.43 Q1640.73 1482.04 1637.85 1484.14 Q1635.01 1486.25 1630.01 1486.25 Q1627.92 1486.25 1625.66 1485.83 Q1623.41 1485.44 1620.91 1484.63 L1620.91 1480.23 Q1623.27 1481.46 1625.56 1482.08 Q1627.85 1482.69 1630.1 1482.69 Q1633.11 1482.69 1634.73 1481.67 Q1636.35 1480.63 1636.35 1478.75 Q1636.35 1477.02 1635.17 1476.09 Q1634.01 1475.16 1630.05 1474.31 L1628.57 1473.96 Q1624.61 1473.13 1622.85 1471.41 Q1621.1 1469.68 1621.1 1466.67 Q1621.1 1463.01 1623.69 1461.02 Q1626.28 1459.03 1631.05 1459.03 Q1633.41 1459.03 1635.49 1459.38 Q1637.58 1459.72 1639.34 1460.42 Z" fill="#000000" fill-rule="nonzero" fill-opacity="1"></path><path clip-path="url(#clip480)" d="M1669.68 1471.55 L1669.68 1473.64 L1650.1 1473.64 Q1650.38 1478.03 1652.74 1480.35 Q1655.12 1482.64 1659.36 1482.64 Q1661.81 1482.64 1664.1 1482.04 Q1666.42 1481.44 1668.69 1480.23 L1668.69 1484.26 Q1666.4 1485.23 1663.99 1485.74 Q1661.58 1486.25 1659.1 1486.25 Q1652.9 1486.25 1649.27 1482.64 Q1645.66 1479.03 1645.66 1472.87 Q1645.66 1466.51 1649.08 1462.78 Q1652.53 1459.03 1658.36 1459.03 Q1663.6 1459.03 1666.63 1462.41 Q1669.68 1465.77 1669.68 1471.55 M1665.42 1470.3 Q1665.38 1466.81 1663.46 1464.72 Q1661.56 1462.64 1658.41 1462.64 Q1654.85 1462.64 1652.69 1464.65 Q1650.56 1466.67 1650.24 1470.33 L1665.42 1470.3 Z" fill="#000000" fill-rule="nonzero" fill-opacity="1"></path><path clip-path="url(#clip480)" d="M1717.81 1453.68 L1717.81 1458.61 Q1715.45 1456.41 1712.76 1455.33 Q1710.1 1454.24 1707.09 1454.24 Q1701.16 1454.24 1698.02 1457.87 Q1694.87 1461.48 1694.87 1468.33 Q1694.87 1475.16 1698.02 1478.8 Q1701.16 1482.41 1707.09 1482.41 Q1710.1 1482.41 1712.76 1481.32 Q1715.45 1480.23 1717.81 1478.03 L1717.81 1482.92 Q1715.35 1484.58 1712.6 1485.42 Q1709.87 1486.25 1706.81 1486.25 Q1698.97 1486.25 1694.45 1481.46 Q1689.94 1476.64 1689.94 1468.33 Q1689.94 1460 1694.45 1455.21 Q1698.97 1450.39 1706.81 1450.39 Q1709.91 1450.39 1712.65 1451.23 Q1715.4 1452.04 1717.81 1453.68 Z" fill="#000000" fill-rule="nonzero" fill-opacity="1"></path><path clip-path="url(#clip480)" d="M2209.86 1451.02 L2216.15 1451.02 L2231.48 1479.93 L2231.48 1451.02 L2236.01 1451.02 L2236.01 1485.58 L2229.72 1485.58 L2214.39 1456.67 L2214.39 1485.58 L2209.86 1485.58 L2209.86 1451.02 Z" fill="#000000" fill-rule="nonzero" fill-opacity="1"></path><path clip-path="url(#clip480)" d="M2267.31 1471.55 L2267.31 1473.64 L2247.73 1473.64 Q2248 1478.03 2250.36 1480.35 Q2252.75 1482.64 2256.98 1482.64 Q2259.44 1482.64 2261.73 1482.04 Q2264.04 1481.44 2266.31 1480.23 L2266.31 1484.26 Q2264.02 1485.23 2261.61 1485.74 Q2259.21 1486.25 2256.73 1486.25 Q2250.53 1486.25 2246.89 1482.64 Q2243.28 1479.03 2243.28 1472.87 Q2243.28 1466.51 2246.71 1462.78 Q2250.16 1459.03 2255.99 1459.03 Q2261.22 1459.03 2264.25 1462.41 Q2267.31 1465.77 2267.31 1471.55 M2263.05 1470.3 Q2263 1466.81 2261.08 1464.72 Q2259.18 1462.64 2256.04 1462.64 Q2252.47 1462.64 2250.32 1464.65 Q2248.19 1466.67 2247.86 1470.33 L2263.05 1470.3 Z" fill="#000000" fill-rule="nonzero" fill-opacity="1"></path><path clip-path="url(#clip480)" d="M2273.86 1475.35 L2273.86 1459.65 L2278.12 1459.65 L2278.12 1475.19 Q2278.12 1478.87 2279.55 1480.72 Q2280.99 1482.55 2283.86 1482.55 Q2287.31 1482.55 2289.3 1480.35 Q2291.31 1478.15 2291.31 1474.35 L2291.31 1459.65 L2295.57 1459.65 L2295.57 1485.58 L2291.31 1485.58 L2291.31 1481.6 Q2289.76 1483.96 2287.7 1485.12 Q2285.67 1486.25 2282.96 1486.25 Q2278.49 1486.25 2276.17 1483.47 Q2273.86 1480.7 2273.86 1475.35 M2284.58 1459.03 L2284.58 1459.03 Z" fill="#000000" fill-rule="nonzero" fill-opacity="1"></path><path clip-path="url(#clip480)" d="M2308.56 1452.29 L2308.56 1459.65 L2317.33 1459.65 L2317.33 1462.96 L2308.56 1462.96 L2308.56 1477.04 Q2308.56 1480.21 2309.41 1481.11 Q2310.29 1482.02 2312.96 1482.02 L2317.33 1482.02 L2317.33 1485.58 L2312.96 1485.58 Q2308.03 1485.58 2306.15 1483.75 Q2304.28 1481.9 2304.28 1477.04 L2304.28 1462.96 L2301.15 1462.96 L2301.15 1459.65 L2304.28 1459.65 L2304.28 1452.29 L2308.56 1452.29 Z" fill="#000000" fill-rule="nonzero" fill-opacity="1"></path><path clip-path="url(#clip480)" d="M2337.96 1463.64 Q2337.24 1463.22 2336.38 1463.03 Q2335.55 1462.83 2334.53 1462.83 Q2330.92 1462.83 2328.98 1465.19 Q2327.05 1467.52 2327.05 1471.92 L2327.05 1485.58 L2322.77 1485.58 L2322.77 1459.65 L2327.05 1459.65 L2327.05 1463.68 Q2328.4 1461.32 2330.55 1460.19 Q2332.7 1459.03 2335.78 1459.03 Q2336.22 1459.03 2336.75 1459.1 Q2337.29 1459.14 2337.93 1459.26 L2337.96 1463.64 Z" fill="#000000" fill-rule="nonzero" fill-opacity="1"></path><path clip-path="url(#clip480)" d="M2354.21 1472.55 Q2349.04 1472.55 2347.05 1473.73 Q2345.06 1474.91 2345.06 1477.76 Q2345.06 1480.02 2346.54 1481.37 Q2348.05 1482.69 2350.62 1482.69 Q2354.16 1482.69 2356.29 1480.19 Q2358.44 1477.66 2358.44 1473.5 L2358.44 1472.55 L2354.21 1472.55 M2362.7 1470.79 L2362.7 1485.58 L2358.44 1485.58 L2358.44 1481.64 Q2356.98 1484.01 2354.81 1485.14 Q2352.63 1486.25 2349.48 1486.25 Q2345.5 1486.25 2343.14 1484.03 Q2340.8 1481.78 2340.8 1478.03 Q2340.8 1473.66 2343.72 1471.44 Q2346.66 1469.21 2352.47 1469.21 L2358.44 1469.21 L2358.44 1468.8 Q2358.44 1465.86 2356.5 1464.26 Q2354.58 1462.64 2351.08 1462.64 Q2348.86 1462.64 2346.75 1463.17 Q2344.65 1463.7 2342.7 1464.77 L2342.7 1460.83 Q2345.04 1459.93 2347.24 1459.49 Q2349.44 1459.03 2351.52 1459.03 Q2357.15 1459.03 2359.92 1461.95 Q2362.7 1464.86 2362.7 1470.79 Z" fill="#000000" fill-rule="nonzero" fill-opacity="1"></path><path clip-path="url(#clip480)" d="M2371.47 1449.56 L2375.73 1449.56 L2375.73 1485.58 L2371.47 1485.58 L2371.47 1449.56 Z" fill="#000000" fill-rule="nonzero" fill-opacity="1"></path><path clip-path="url(#clip480)" d="M1207.49 1525.81 L1207.49 1543.66 L1215.57 1543.66 Q1220.06 1543.66 1222.51 1541.34 Q1224.96 1539.02 1224.96 1534.72 Q1224.96 1530.45 1222.51 1528.13 Q1220.06 1525.81 1215.57 1525.81 L1207.49 1525.81 M1201.06 1520.52 L1215.57 1520.52 Q1223.56 1520.52 1227.64 1524.15 Q1231.74 1527.75 1231.74 1534.72 Q1231.74 1541.75 1227.64 1545.35 Q1223.56 1548.95 1215.57 1548.95 L1207.49 1548.95 L1207.49 1568.04 L1201.06 1568.04 L1201.06 1520.52 Z" fill="#000000" fill-rule="nonzero" fill-opacity="1"></path><path clip-path="url(#clip480)" d="M1269.74 1546.53 L1269.74 1568.04 L1263.89 1568.04 L1263.89 1546.72 Q1263.89 1541.66 1261.91 1539.14 Q1259.94 1536.63 1255.99 1536.63 Q1251.25 1536.63 1248.51 1539.65 Q1245.78 1542.68 1245.78 1547.9 L1245.78 1568.04 L1239.89 1568.04 L1239.89 1518.52 L1245.78 1518.52 L1245.78 1537.93 Q1247.88 1534.72 1250.71 1533.13 Q1253.58 1531.54 1257.3 1531.54 Q1263.44 1531.54 1266.59 1535.36 Q1269.74 1539.14 1269.74 1546.53 Z" fill="#000000" fill-rule="nonzero" fill-opacity="1"></path><path clip-path="url(#clip480)" d="M1297.63 1550.12 Q1290.53 1550.12 1287.79 1551.75 Q1285.05 1553.37 1285.05 1557.29 Q1285.05 1560.4 1287.09 1562.25 Q1289.16 1564.07 1292.69 1564.07 Q1297.56 1564.07 1300.49 1560.63 Q1303.45 1557.16 1303.45 1551.43 L1303.45 1550.12 L1297.63 1550.12 M1309.31 1547.71 L1309.31 1568.04 L1303.45 1568.04 L1303.45 1562.63 Q1301.45 1565.88 1298.45 1567.44 Q1295.46 1568.97 1291.13 1568.97 Q1285.66 1568.97 1282.41 1565.91 Q1279.2 1562.82 1279.2 1557.67 Q1279.2 1551.65 1283.21 1548.6 Q1287.25 1545.54 1295.24 1545.54 L1303.45 1545.54 L1303.45 1544.97 Q1303.45 1540.93 1300.78 1538.73 Q1298.14 1536.5 1293.33 1536.5 Q1290.27 1536.5 1287.38 1537.23 Q1284.48 1537.97 1281.81 1539.43 L1281.81 1534.02 Q1285.02 1532.78 1288.05 1532.17 Q1291.07 1531.54 1293.93 1531.54 Q1301.67 1531.54 1305.49 1535.55 Q1309.31 1539.56 1309.31 1547.71 Z" fill="#000000" fill-rule="nonzero" fill-opacity="1"></path><path clip-path="url(#clip480)" d="M1344.1 1533.45 L1344.1 1538.98 Q1341.61 1537.71 1338.94 1537.07 Q1336.27 1536.44 1333.4 1536.44 Q1329.04 1536.44 1326.84 1537.77 Q1324.68 1539.11 1324.68 1541.79 Q1324.68 1543.82 1326.24 1545 Q1327.8 1546.15 1332.51 1547.2 L1334.52 1547.64 Q1340.75 1548.98 1343.36 1551.43 Q1346.01 1553.85 1346.01 1558.21 Q1346.01 1563.17 1342.06 1566.07 Q1338.14 1568.97 1331.27 1568.97 Q1328.4 1568.97 1325.29 1568.39 Q1322.2 1567.85 1318.76 1566.74 L1318.76 1560.69 Q1322.01 1562.38 1325.16 1563.24 Q1328.31 1564.07 1331.4 1564.07 Q1335.53 1564.07 1337.76 1562.66 Q1339.99 1561.23 1339.99 1558.65 Q1339.99 1556.27 1338.37 1554.99 Q1336.78 1553.72 1331.33 1552.54 L1329.3 1552.07 Q1323.85 1550.92 1321.43 1548.56 Q1319.01 1546.18 1319.01 1542.04 Q1319.01 1537.01 1322.58 1534.27 Q1326.14 1531.54 1332.7 1531.54 Q1335.95 1531.54 1338.81 1532.01 Q1341.68 1532.49 1344.1 1533.45 Z" fill="#000000" fill-rule="nonzero" fill-opacity="1"></path><path clip-path="url(#clip480)" d="M1385.82 1548.76 L1385.82 1551.62 L1358.9 1551.62 Q1359.28 1557.67 1362.52 1560.85 Q1365.8 1564 1371.63 1564 Q1375 1564 1378.15 1563.17 Q1381.34 1562.35 1384.45 1560.69 L1384.45 1566.23 Q1381.3 1567.57 1377.99 1568.27 Q1374.68 1568.97 1371.28 1568.97 Q1362.75 1568.97 1357.75 1564 Q1352.78 1559.04 1352.78 1550.57 Q1352.78 1541.82 1357.5 1536.69 Q1362.24 1531.54 1370.26 1531.54 Q1377.45 1531.54 1381.62 1536.18 Q1385.82 1540.8 1385.82 1548.76 M1379.97 1547.04 Q1379.9 1542.23 1377.26 1539.37 Q1374.65 1536.5 1370.32 1536.5 Q1365.42 1536.5 1362.46 1539.27 Q1359.53 1542.04 1359.09 1547.07 L1379.97 1547.04 Z" fill="#000000" fill-rule="nonzero" fill-opacity="1"></path><polyline clip-path="url(#clip480)" style="stroke:#000000; stroke-linecap:round; stroke-linejoin:round; stroke-width:4; stroke-opacity:1; fill:none" points="234.125,1423.18 234.125,123.472 "></polyline>
<polyline clip-path="url(#clip480)" style="stroke:#000000; stroke-linecap:round; stroke-linejoin:round; stroke-width:4; stroke-opacity:1; fill:none" points="234.125,1416.55 253.023,1416.55 "></polyline>
<polyline clip-path="url(#clip480)" style="stroke:#000000; stroke-linecap:round; stroke-linejoin:round; stroke-width:4; stroke-opacity:1; fill:none" points="234.125,1110.73 253.023,1110.73 "></polyline>
<polyline clip-path="url(#clip480)" style="stroke:#000000; stroke-linecap:round; stroke-linejoin:round; stroke-width:4; stroke-opacity:1; fill:none" points="234.125,804.912 253.023,804.912 "></polyline>
<polyline clip-path="url(#clip480)" style="stroke:#000000; stroke-linecap:round; stroke-linejoin:round; stroke-width:4; stroke-opacity:1; fill:none" points="234.125,499.094 253.023,499.094 "></polyline>
<polyline clip-path="url(#clip480)" style="stroke:#000000; stroke-linecap:round; stroke-linejoin:round; stroke-width:4; stroke-opacity:1; fill:none" points="234.125,193.277 253.023,193.277 "></polyline>
<path clip-path="url(#clip480)" d="M186.181 1402.35 Q182.57 1402.35 180.741 1405.91 Q178.936 1409.45 178.936 1416.58 Q178.936 1423.69 180.741 1427.25 Q182.57 1430.79 186.181 1430.79 Q189.815 1430.79 191.621 1427.25 Q193.45 1423.69 193.45 1416.58 Q193.45 1409.45 191.621 1405.91 Q189.815 1402.35 186.181 1402.35 M186.181 1398.64 Q191.991 1398.64 195.047 1403.25 Q198.125 1407.83 198.125 1416.58 Q198.125 1425.31 195.047 1429.92 Q191.991 1434.5 186.181 1434.5 Q180.371 1434.5 177.292 1429.92 Q174.237 1425.31 174.237 1416.58 Q174.237 1407.83 177.292 1403.25 Q180.371 1398.64 186.181 1398.64 Z" fill="#000000" fill-rule="nonzero" fill-opacity="1"></path><path clip-path="url(#clip480)" d="M146.066 1093.45 L164.422 1093.45 L164.422 1097.38 L150.348 1097.38 L150.348 1105.86 Q151.366 1105.51 152.385 1105.35 Q153.403 1105.16 154.422 1105.16 Q160.209 1105.16 163.589 1108.33 Q166.968 1111.51 166.968 1116.92 Q166.968 1122.5 163.496 1125.6 Q160.024 1128.68 153.704 1128.68 Q151.528 1128.68 149.26 1128.31 Q147.015 1127.94 144.607 1127.2 L144.607 1122.5 Q146.691 1123.63 148.913 1124.19 Q151.135 1124.75 153.612 1124.75 Q157.616 1124.75 159.954 1122.64 Q162.292 1120.53 162.292 1116.92 Q162.292 1113.31 159.954 1111.2 Q157.616 1109.1 153.612 1109.1 Q151.737 1109.1 149.862 1109.51 Q148.01 1109.93 146.066 1110.81 L146.066 1093.45 Z" fill="#000000" fill-rule="nonzero" fill-opacity="1"></path><path clip-path="url(#clip480)" d="M186.181 1096.53 Q182.57 1096.53 180.741 1100.09 Q178.936 1103.63 178.936 1110.76 Q178.936 1117.87 180.741 1121.44 Q182.57 1124.98 186.181 1124.98 Q189.815 1124.98 191.621 1121.44 Q193.45 1117.87 193.45 1110.76 Q193.45 1103.63 191.621 1100.09 Q189.815 1096.53 186.181 1096.53 M186.181 1092.82 Q191.991 1092.82 195.047 1097.43 Q198.125 1102.01 198.125 1110.76 Q198.125 1119.49 195.047 1124.1 Q191.991 1128.68 186.181 1128.68 Q180.371 1128.68 177.292 1124.1 Q174.237 1119.49 174.237 1110.76 Q174.237 1102.01 177.292 1097.43 Q180.371 1092.82 186.181 1092.82 Z" fill="#000000" fill-rule="nonzero" fill-opacity="1"></path><path clip-path="url(#clip480)" d="M116.668 818.257 L124.306 818.257 L124.306 791.891 L115.996 793.558 L115.996 789.299 L124.26 787.632 L128.936 787.632 L128.936 818.257 L136.575 818.257 L136.575 822.192 L116.668 822.192 L116.668 818.257 Z" fill="#000000" fill-rule="nonzero" fill-opacity="1"></path><path clip-path="url(#clip480)" d="M156.019 790.711 Q152.408 790.711 150.579 794.275 Q148.774 797.817 148.774 804.947 Q148.774 812.053 150.579 815.618 Q152.408 819.16 156.019 819.16 Q159.653 819.16 161.459 815.618 Q163.288 812.053 163.288 804.947 Q163.288 797.817 161.459 794.275 Q159.653 790.711 156.019 790.711 M156.019 787.007 Q161.829 787.007 164.885 791.613 Q167.964 796.197 167.964 804.947 Q167.964 813.673 164.885 818.28 Q161.829 822.863 156.019 822.863 Q150.209 822.863 147.13 818.28 Q144.075 813.673 144.075 804.947 Q144.075 796.197 147.13 791.613 Q150.209 787.007 156.019 787.007 Z" fill="#000000" fill-rule="nonzero" fill-opacity="1"></path><path clip-path="url(#clip480)" d="M186.181 790.711 Q182.57 790.711 180.741 794.275 Q178.936 797.817 178.936 804.947 Q178.936 812.053 180.741 815.618 Q182.57 819.16 186.181 819.16 Q189.815 819.16 191.621 815.618 Q193.45 812.053 193.45 804.947 Q193.45 797.817 191.621 794.275 Q189.815 790.711 186.181 790.711 M186.181 787.007 Q191.991 787.007 195.047 791.613 Q198.125 796.197 198.125 804.947 Q198.125 813.673 195.047 818.28 Q191.991 822.863 186.181 822.863 Q180.371 822.863 177.292 818.28 Q174.237 813.673 174.237 804.947 Q174.237 796.197 177.292 791.613 Q180.371 787.007 186.181 787.007 Z" fill="#000000" fill-rule="nonzero" fill-opacity="1"></path><path clip-path="url(#clip480)" d="M116.668 512.439 L124.306 512.439 L124.306 486.074 L115.996 487.74 L115.996 483.481 L124.26 481.814 L128.936 481.814 L128.936 512.439 L136.575 512.439 L136.575 516.374 L116.668 516.374 L116.668 512.439 Z" fill="#000000" fill-rule="nonzero" fill-opacity="1"></path><path clip-path="url(#clip480)" d="M146.066 481.814 L164.422 481.814 L164.422 485.749 L150.348 485.749 L150.348 494.222 Q151.366 493.874 152.385 493.712 Q153.403 493.527 154.422 493.527 Q160.209 493.527 163.589 496.699 Q166.968 499.87 166.968 505.286 Q166.968 510.865 163.496 513.967 Q160.024 517.046 153.704 517.046 Q151.528 517.046 149.26 516.675 Q147.015 516.305 144.607 515.564 L144.607 510.865 Q146.691 511.999 148.913 512.555 Q151.135 513.11 153.612 513.11 Q157.616 513.11 159.954 511.004 Q162.292 508.898 162.292 505.286 Q162.292 501.675 159.954 499.569 Q157.616 497.462 153.612 497.462 Q151.737 497.462 149.862 497.879 Q148.01 498.296 146.066 499.175 L146.066 481.814 Z" fill="#000000" fill-rule="nonzero" fill-opacity="1"></path><path clip-path="url(#clip480)" d="M186.181 484.893 Q182.57 484.893 180.741 488.458 Q178.936 491.999 178.936 499.129 Q178.936 506.235 180.741 509.8 Q182.57 513.342 186.181 513.342 Q189.815 513.342 191.621 509.8 Q193.45 506.235 193.45 499.129 Q193.45 491.999 191.621 488.458 Q189.815 484.893 186.181 484.893 M186.181 481.189 Q191.991 481.189 195.047 485.796 Q198.125 490.379 198.125 499.129 Q198.125 507.856 195.047 512.462 Q191.991 517.046 186.181 517.046 Q180.371 517.046 177.292 512.462 Q174.237 507.856 174.237 499.129 Q174.237 490.379 177.292 485.796 Q180.371 481.189 186.181 481.189 Z" fill="#000000" fill-rule="nonzero" fill-opacity="1"></path><path clip-path="url(#clip480)" d="M119.885 206.622 L136.204 206.622 L136.204 210.557 L114.26 210.557 L114.26 206.622 Q116.922 203.867 121.505 199.237 Q126.112 194.585 127.292 193.242 Q129.538 190.719 130.417 188.983 Q131.32 187.223 131.32 185.534 Q131.32 182.779 129.376 181.043 Q127.455 179.307 124.353 179.307 Q122.154 179.307 119.7 180.071 Q117.269 180.835 114.492 182.386 L114.492 177.663 Q117.316 176.529 119.769 175.95 Q122.223 175.372 124.26 175.372 Q129.63 175.372 132.825 178.057 Q136.019 180.742 136.019 185.233 Q136.019 187.362 135.209 189.284 Q134.422 191.182 132.316 193.774 Q131.737 194.446 128.635 197.663 Q125.533 200.858 119.885 206.622 Z" fill="#000000" fill-rule="nonzero" fill-opacity="1"></path><path clip-path="url(#clip480)" d="M156.019 179.075 Q152.408 179.075 150.579 182.64 Q148.774 186.182 148.774 193.311 Q148.774 200.418 150.579 203.983 Q152.408 207.524 156.019 207.524 Q159.653 207.524 161.459 203.983 Q163.288 200.418 163.288 193.311 Q163.288 186.182 161.459 182.64 Q159.653 179.075 156.019 179.075 M156.019 175.372 Q161.829 175.372 164.885 179.978 Q167.964 184.561 167.964 193.311 Q167.964 202.038 164.885 206.645 Q161.829 211.228 156.019 211.228 Q150.209 211.228 147.13 206.645 Q144.075 202.038 144.075 193.311 Q144.075 184.561 147.13 179.978 Q150.209 175.372 156.019 175.372 Z" fill="#000000" fill-rule="nonzero" fill-opacity="1"></path><path clip-path="url(#clip480)" d="M186.181 179.075 Q182.57 179.075 180.741 182.64 Q178.936 186.182 178.936 193.311 Q178.936 200.418 180.741 203.983 Q182.57 207.524 186.181 207.524 Q189.815 207.524 191.621 203.983 Q193.45 200.418 193.45 193.311 Q193.45 186.182 191.621 182.64 Q189.815 179.075 186.181 179.075 M186.181 175.372 Q191.991 175.372 195.047 179.978 Q198.125 184.561 198.125 193.311 Q198.125 202.038 195.047 206.645 Q191.991 211.228 186.181 211.228 Q180.371 211.228 177.292 206.645 Q174.237 202.038 174.237 193.311 Q174.237 184.561 177.292 179.978 Q180.371 175.372 186.181 175.372 Z" fill="#000000" fill-rule="nonzero" fill-opacity="1"></path><path clip-path="url(#clip480)" d="M20.1444 1093.9 L26.9239 1093.9 Q23.9002 1097.15 22.4043 1100.84 Q20.9083 1104.5 20.9083 1108.64 Q20.9083 1116.79 25.9054 1121.12 Q30.8707 1125.45 40.2919 1125.45 Q49.6813 1125.45 54.6784 1121.12 Q59.6436 1116.79 59.6436 1108.64 Q59.6436 1104.5 58.1477 1100.84 Q56.6518 1097.15 53.6281 1093.9 L60.3439 1093.9 Q62.6355 1097.28 63.7814 1101.06 Q64.9272 1104.82 64.9272 1109.02 Q64.9272 1119.81 58.3387 1126.02 Q51.7183 1132.22 40.2919 1132.22 Q28.8336 1132.22 22.2451 1126.02 Q15.6248 1119.81 15.6248 1109.02 Q15.6248 1104.76 16.7706 1101 Q17.8846 1097.21 20.1444 1093.9 Z" fill="#000000" fill-rule="nonzero" fill-opacity="1"></path><path clip-path="url(#clip480)" d="M49.9359 1084.83 L28.3562 1084.83 L28.3562 1078.98 L49.7131 1078.98 Q54.7739 1078.98 57.3202 1077 Q59.8346 1075.03 59.8346 1071.08 Q59.8346 1066.34 56.8109 1063.6 Q53.7872 1060.83 48.5673 1060.83 L28.3562 1060.83 L28.3562 1054.98 L64.0042 1054.98 L64.0042 1060.83 L58.5296 1060.83 Q61.7762 1062.97 63.3676 1065.8 Q64.9272 1068.6 64.9272 1072.32 Q64.9272 1078.47 61.1078 1081.65 Q57.2883 1084.83 49.9359 1084.83 M27.4968 1070.1 L27.4968 1070.1 Z" fill="#000000" fill-rule="nonzero" fill-opacity="1"></path><path clip-path="url(#clip480)" d="M33.8307 1022.26 Q33.2578 1023.24 33.0032 1024.42 Q32.7167 1025.57 32.7167 1026.97 Q32.7167 1031.93 35.9632 1034.61 Q39.1779 1037.25 45.2253 1037.25 L64.0042 1037.25 L64.0042 1043.14 L28.3562 1043.14 L28.3562 1037.25 L33.8944 1037.25 Q30.6479 1035.4 29.0883 1032.44 Q27.4968 1029.48 27.4968 1025.25 Q27.4968 1024.64 27.5923 1023.91 Q27.656 1023.18 27.8151 1022.29 L33.8307 1022.26 Z" fill="#000000" fill-rule="nonzero" fill-opacity="1"></path><path clip-path="url(#clip480)" d="M33.8307 996.603 Q33.2578 997.59 33.0032 998.767 Q32.7167 999.913 32.7167 1001.31 Q32.7167 1006.28 35.9632 1008.95 Q39.1779 1011.59 45.2253 1011.59 L64.0042 1011.59 L64.0042 1017.48 L28.3562 1017.48 L28.3562 1011.59 L33.8944 1011.59 Q30.6479 1009.75 29.0883 1006.79 Q27.4968 1003.83 27.4968 999.595 Q27.4968 998.99 27.5923 998.258 Q27.656 997.526 27.8151 996.635 L33.8307 996.603 Z" fill="#000000" fill-rule="nonzero" fill-opacity="1"></path><path clip-path="url(#clip480)" d="M44.7161 961.401 L47.5806 961.401 L47.5806 988.328 Q53.6281 987.946 56.8109 984.699 Q59.9619 981.421 59.9619 975.596 Q59.9619 972.222 59.1344 969.071 Q58.3069 965.889 56.6518 962.769 L62.1899 962.769 Q63.5267 965.92 64.227 969.231 Q64.9272 972.541 64.9272 975.946 Q64.9272 984.476 59.9619 989.474 Q54.9967 994.439 46.5303 994.439 Q37.7774 994.439 32.6531 989.728 Q27.4968 984.986 27.4968 976.965 Q27.4968 969.772 32.1438 965.602 Q36.7589 961.401 44.7161 961.401 M42.9973 967.257 Q38.1912 967.321 35.3266 969.963 Q32.4621 972.573 32.4621 976.901 Q32.4621 981.803 35.2312 984.763 Q38.0002 987.691 43.0292 988.137 L42.9973 967.257 Z" fill="#000000" fill-rule="nonzero" fill-opacity="1"></path><path clip-path="url(#clip480)" d="M42.4881 922.156 L64.0042 922.156 L64.0042 928.013 L42.679 928.013 Q37.6183 928.013 35.1038 929.986 Q32.5894 931.959 32.5894 935.906 Q32.5894 940.649 35.6131 943.386 Q38.6368 946.123 43.8567 946.123 L64.0042 946.123 L64.0042 952.011 L28.3562 952.011 L28.3562 946.123 L33.8944 946.123 Q30.6797 944.022 29.0883 941.19 Q27.4968 938.325 27.4968 934.601 Q27.4968 928.458 31.3163 925.307 Q35.1038 922.156 42.4881 922.156 Z" fill="#000000" fill-rule="nonzero" fill-opacity="1"></path><path clip-path="url(#clip480)" d="M18.2347 904.682 L28.3562 904.682 L28.3562 892.619 L32.9077 892.619 L32.9077 904.682 L52.2594 904.682 Q56.6199 904.682 57.8613 903.505 Q59.1026 902.295 59.1026 898.635 L59.1026 892.619 L64.0042 892.619 L64.0042 898.635 Q64.0042 905.414 61.4897 907.993 Q58.9434 910.571 52.2594 910.571 L32.9077 910.571 L32.9077 914.867 L28.3562 914.867 L28.3562 910.571 L18.2347 910.571 L18.2347 904.682 Z" fill="#000000" fill-rule="nonzero" fill-opacity="1"></path><path clip-path="url(#clip480)" d="M16.4842 863.942 L16.4842 854.361 L48.8219 842.235 L16.4842 830.044 L16.4842 820.464 L64.0042 820.464 L64.0042 826.734 L22.277 826.734 L54.8694 838.988 L54.8694 845.449 L22.277 857.703 L64.0042 857.703 L64.0042 863.942 L16.4842 863.942 Z" fill="#000000" fill-rule="nonzero" fill-opacity="1"></path><path clip-path="url(#clip480)" d="M46.0847 791.755 Q46.0847 798.852 47.7079 801.59 Q49.3312 804.327 53.2461 804.327 Q56.3653 804.327 58.2114 802.29 Q60.0256 800.221 60.0256 796.688 Q60.0256 791.818 56.5881 788.89 Q53.1188 785.93 47.3897 785.93 L46.0847 785.93 L46.0847 791.755 M43.6657 780.074 L64.0042 780.074 L64.0042 785.93 L58.5933 785.93 Q61.8398 787.935 63.3994 790.927 Q64.9272 793.919 64.9272 798.248 Q64.9272 803.722 61.8716 806.969 Q58.7843 810.183 53.6281 810.183 Q47.6125 810.183 44.5569 806.173 Q41.5014 802.131 41.5014 794.142 L41.5014 785.93 L40.9285 785.93 Q36.8862 785.93 34.6901 788.604 Q32.4621 791.245 32.4621 796.052 Q32.4621 799.107 33.1941 802.003 Q33.9262 804.9 35.3903 807.573 L29.9795 807.573 Q28.7381 804.359 28.1334 801.335 Q27.4968 798.311 27.4968 795.447 Q27.4968 787.712 31.5072 783.893 Q35.5176 780.074 43.6657 780.074 Z" fill="#000000" fill-rule="nonzero" fill-opacity="1"></path><path clip-path="url(#clip480)" d="M45.7664 744.553 Q39.4007 744.553 35.8996 747.195 Q32.3984 749.805 32.3984 754.547 Q32.3984 759.258 35.8996 761.9 Q39.4007 764.509 45.7664 764.509 Q52.1003 764.509 55.6014 761.9 Q59.1026 759.258 59.1026 754.547 Q59.1026 749.805 55.6014 747.195 Q52.1003 744.553 45.7664 744.553 M59.58 738.697 Q68.683 738.697 73.1071 742.739 Q77.5631 746.781 77.5631 755.12 Q77.5631 758.207 77.0857 760.945 Q76.6401 763.682 75.6852 766.26 L69.9879 766.26 Q71.3884 763.682 72.0568 761.167 Q72.7252 758.653 72.7252 756.043 Q72.7252 750.282 69.7015 747.418 Q66.7096 744.553 60.6303 744.553 L57.7339 744.553 Q60.885 746.367 62.4446 749.2 Q64.0042 752.033 64.0042 755.979 Q64.0042 762.536 59.0071 766.547 Q54.01 770.557 45.7664 770.557 Q37.491 770.557 32.4939 766.547 Q27.4968 762.536 27.4968 755.979 Q27.4968 752.033 29.0564 749.2 Q30.616 746.367 33.7671 744.553 L28.3562 744.553 L28.3562 738.697 L59.58 738.697 Z" fill="#000000" fill-rule="nonzero" fill-opacity="1"></path><path clip-path="url(#clip480)" d="M42.4881 697.001 L64.0042 697.001 L64.0042 702.858 L42.679 702.858 Q37.6183 702.858 35.1038 704.831 Q32.5894 706.804 32.5894 710.751 Q32.5894 715.494 35.6131 718.231 Q38.6368 720.968 43.8567 720.968 L64.0042 720.968 L64.0042 726.856 L28.3562 726.856 L28.3562 720.968 L33.8944 720.968 Q30.6797 718.867 29.0883 716.035 Q27.4968 713.17 27.4968 709.446 Q27.4968 703.303 31.3163 700.152 Q35.1038 697.001 42.4881 697.001 Z" fill="#000000" fill-rule="nonzero" fill-opacity="1"></path><path clip-path="url(#clip480)" d="M28.3562 685.32 L28.3562 679.464 L64.0042 679.464 L64.0042 685.32 L28.3562 685.32 M14.479 685.32 L14.479 679.464 L21.895 679.464 L21.895 685.32 L14.479 685.32 Z" fill="#000000" fill-rule="nonzero" fill-opacity="1"></path><path clip-path="url(#clip480)" d="M18.2347 661.417 L28.3562 661.417 L28.3562 649.354 L32.9077 649.354 L32.9077 661.417 L52.2594 661.417 Q56.6199 661.417 57.8613 660.239 Q59.1026 659.03 59.1026 655.369 L59.1026 649.354 L64.0042 649.354 L64.0042 655.369 Q64.0042 662.149 61.4897 664.727 Q58.9434 667.305 52.2594 667.305 L32.9077 667.305 L32.9077 671.602 L28.3562 671.602 L28.3562 667.305 L18.2347 667.305 L18.2347 661.417 Z" fill="#000000" fill-rule="nonzero" fill-opacity="1"></path><path clip-path="url(#clip480)" d="M49.9359 642.256 L28.3562 642.256 L28.3562 636.4 L49.7131 636.4 Q54.7739 636.4 57.3202 634.426 Q59.8346 632.453 59.8346 628.506 Q59.8346 623.764 56.8109 621.026 Q53.7872 618.257 48.5673 618.257 L28.3562 618.257 L28.3562 612.401 L64.0042 612.401 L64.0042 618.257 L58.5296 618.257 Q61.7762 620.39 63.3676 623.223 Q64.9272 626.024 64.9272 629.747 Q64.9272 635.89 61.1078 639.073 Q57.2883 642.256 49.9359 642.256 M27.4968 627.519 L27.4968 627.519 Z" fill="#000000" fill-rule="nonzero" fill-opacity="1"></path><path clip-path="url(#clip480)" d="M33.7671 576.88 L14.479 576.88 L14.479 571.024 L64.0042 571.024 L64.0042 576.88 L58.657 576.88 Q61.8398 578.726 63.3994 581.559 Q64.9272 584.36 64.9272 588.307 Q64.9272 594.768 59.771 598.842 Q54.6147 602.884 46.212 602.884 Q37.8093 602.884 32.6531 598.842 Q27.4968 594.768 27.4968 588.307 Q27.4968 584.36 29.0564 581.559 Q30.5842 578.726 33.7671 576.88 M46.212 596.837 Q52.6732 596.837 56.3653 594.195 Q60.0256 591.521 60.0256 586.874 Q60.0256 582.227 56.3653 579.554 Q52.6732 576.88 46.212 576.88 Q39.7508 576.88 36.0905 579.554 Q32.3984 582.227 32.3984 586.874 Q32.3984 591.521 36.0905 594.195 Q39.7508 596.837 46.212 596.837 Z" fill="#000000" fill-rule="nonzero" fill-opacity="1"></path><path clip-path="url(#clip480)" d="M44.7161 528.469 L47.5806 528.469 L47.5806 555.396 Q53.6281 555.014 56.8109 551.768 Q59.9619 548.489 59.9619 542.665 Q59.9619 539.291 59.1344 536.14 Q58.3069 532.957 56.6518 529.838 L62.1899 529.838 Q63.5267 532.989 64.227 536.299 Q64.9272 539.609 64.9272 543.015 Q64.9272 551.545 59.9619 556.542 Q54.9967 561.507 46.5303 561.507 Q37.7774 561.507 32.6531 556.796 Q27.4968 552.054 27.4968 544.033 Q27.4968 536.84 32.1438 532.67 Q36.7589 528.469 44.7161 528.469 M42.9973 534.326 Q38.1912 534.389 35.3266 537.031 Q32.4621 539.641 32.4621 543.97 Q32.4621 548.871 35.2312 551.831 Q38.0002 554.759 43.0292 555.205 L42.9973 534.326 Z" fill="#000000" fill-rule="nonzero" fill-opacity="1"></path><path clip-path="url(#clip480)" d="M14.5426 484.068 Q21.8632 488.333 29.0246 490.402 Q36.186 492.471 43.5384 492.471 Q50.8908 492.471 58.1159 490.402 Q65.3091 488.301 72.5979 484.068 L72.5979 489.161 Q65.1182 493.935 57.8931 496.322 Q50.668 498.678 43.5384 498.678 Q36.4406 498.678 29.2474 496.322 Q22.0542 493.967 14.5426 489.161 L14.5426 484.068 Z" fill="#000000" fill-rule="nonzero" fill-opacity="1"></path><path clip-path="url(#clip480)" d="M22.818 456.568 L46.4666 465.289 L46.4666 447.816 L22.818 456.568 M16.4842 460.197 L16.4842 452.908 L64.0042 434.798 L64.0042 441.482 L51.8138 445.81 L51.8138 467.231 L64.0042 471.56 L64.0042 478.339 L16.4842 460.197 Z" fill="#000000" fill-rule="nonzero" fill-opacity="1"></path><path clip-path="url(#clip480)" d="M14.5426 429.037 L14.5426 423.944 Q22.0542 419.17 29.2474 416.815 Q36.4406 414.427 43.5384 414.427 Q50.668 414.427 57.8931 416.815 Q65.1182 419.17 72.5979 423.944 L72.5979 429.037 Q65.3091 424.804 58.1159 422.735 Q50.8908 420.634 43.5384 420.634 Q36.186 420.634 29.0246 422.735 Q21.8632 424.804 14.5426 429.037 Z" fill="#000000" fill-rule="nonzero" fill-opacity="1"></path><path clip-path="url(#clip480)" d="M135.328 12.096 L143.51 12.096 L143.51 65.6895 L172.961 65.6895 L172.961 72.576 L135.328 72.576 L135.328 12.096 Z" fill="#000000" fill-rule="nonzero" fill-opacity="1"></path><path clip-path="url(#clip480)" d="M181.224 27.2059 L188.678 27.2059 L188.678 72.576 L181.224 72.576 L181.224 27.2059 M181.224 9.54393 L188.678 9.54393 L188.678 18.9825 L181.224 18.9825 L181.224 9.54393 Z" fill="#000000" fill-rule="nonzero" fill-opacity="1"></path><path clip-path="url(#clip480)" d="M241.988 45.1919 L241.988 72.576 L234.534 72.576 L234.534 45.4349 Q234.534 38.994 232.023 35.7938 Q229.511 32.5936 224.488 32.5936 Q218.452 32.5936 214.968 36.4419 Q211.485 40.2903 211.485 46.9338 L211.485 72.576 L203.99 72.576 L203.99 27.2059 L211.485 27.2059 L211.485 34.2544 Q214.158 30.163 217.764 28.1376 Q221.409 26.1121 226.149 26.1121 Q233.967 26.1121 237.978 30.9732 Q241.988 35.7938 241.988 45.1919 Z" fill="#000000" fill-rule="nonzero" fill-opacity="1"></path><path clip-path="url(#clip480)" d="M295.662 48.0275 L295.662 51.6733 L261.392 51.6733 Q261.878 59.3701 266.01 63.421 Q270.182 67.4314 277.595 67.4314 Q281.889 67.4314 285.9 66.3781 Q289.951 65.3249 293.921 63.2184 L293.921 70.267 Q289.91 71.9684 285.697 72.8596 Q281.484 73.7508 277.15 73.7508 Q266.293 73.7508 259.933 67.4314 Q253.614 61.1119 253.614 50.3365 Q253.614 39.1965 259.609 32.6746 Q265.645 26.1121 275.854 26.1121 Q285.009 26.1121 290.315 32.0264 Q295.662 37.9003 295.662 48.0275 M288.209 45.84 Q288.128 39.7232 284.766 36.0774 Q281.444 32.4315 275.935 32.4315 Q269.696 32.4315 265.929 35.9558 Q262.202 39.4801 261.635 45.8805 L288.209 45.84 Z" fill="#000000" fill-rule="nonzero" fill-opacity="1"></path><path clip-path="url(#clip480)" d="M334.592 12.096 L342.774 12.096 L342.774 65.6895 L372.225 65.6895 L372.225 72.576 L334.592 72.576 L334.592 12.096 Z" fill="#000000" fill-rule="nonzero" fill-opacity="1"></path><path clip-path="url(#clip480)" d="M388.59 65.6895 L417.149 65.6895 L417.149 72.576 L378.747 72.576 L378.747 65.6895 Q383.405 60.8689 391.426 52.7671 Q399.487 44.6248 401.553 42.2752 Q405.482 37.8598 407.022 34.8216 Q408.602 31.7429 408.602 28.7857 Q408.602 23.9651 405.199 20.927 Q401.837 17.8888 396.408 17.8888 Q392.56 17.8888 388.266 19.2256 Q384.013 20.5624 379.152 23.2765 L379.152 15.0127 Q384.094 13.0277 388.388 12.015 Q392.682 11.0023 396.246 11.0023 Q405.645 11.0023 411.235 15.7013 Q416.825 20.4004 416.825 28.2591 Q416.825 31.9859 415.407 35.3482 Q414.03 38.6699 410.344 43.2069 Q409.331 44.3817 403.903 50.0125 Q398.474 55.6027 388.59 65.6895 Z" fill="#000000" fill-rule="nonzero" fill-opacity="1"></path><path clip-path="url(#clip480)" d="M459.116 39.9662 Q464.99 41.222 468.271 45.1919 Q471.593 49.1618 471.593 54.9951 Q471.593 63.9476 465.436 68.8492 Q459.278 73.7508 447.936 73.7508 Q444.128 73.7508 440.077 72.9811 Q436.067 72.2519 431.773 70.7531 L431.773 62.8538 Q435.176 64.8388 439.227 65.8515 Q443.277 66.8642 447.693 66.8642 Q455.39 66.8642 459.4 63.826 Q463.451 60.7879 463.451 54.9951 Q463.451 49.6479 459.684 46.6502 Q455.957 43.612 449.273 43.612 L442.224 43.612 L442.224 36.8875 L449.597 36.8875 Q455.633 36.8875 458.833 34.4975 Q462.033 32.067 462.033 27.5299 Q462.033 22.8714 458.711 20.4004 Q455.43 17.8888 449.273 17.8888 Q445.91 17.8888 442.062 18.618 Q438.214 19.3471 433.596 20.8865 L433.596 13.5948 Q438.254 12.2985 442.305 11.6504 Q446.397 11.0023 450.002 11.0023 Q459.319 11.0023 464.747 15.2557 Q470.175 19.4686 470.175 26.6793 Q470.175 31.7024 467.299 35.1862 Q464.423 38.6294 459.116 39.9662 Z" fill="#000000" fill-rule="nonzero" fill-opacity="1"></path><path clip-path="url(#clip480)" d="M558.04 16.7545 L558.04 25.383 Q553.908 21.5346 549.209 19.6307 Q544.55 17.7268 539.284 17.7268 Q528.914 17.7268 523.404 24.0867 Q517.895 30.4061 517.895 42.3968 Q517.895 54.3469 523.404 60.7069 Q528.914 67.0263 539.284 67.0263 Q544.55 67.0263 549.209 65.1223 Q553.908 63.2184 558.04 59.3701 L558.04 67.9175 Q553.746 70.8341 548.925 72.2924 Q544.145 73.7508 538.798 73.7508 Q525.065 73.7508 517.166 65.3654 Q509.267 56.9395 509.267 42.3968 Q509.267 27.8135 517.166 19.4281 Q525.065 11.0023 538.798 11.0023 Q544.226 11.0023 549.006 12.4606 Q553.827 13.8784 558.04 16.7545 Z" fill="#000000" fill-rule="nonzero" fill-opacity="1"></path><path clip-path="url(#clip480)" d="M569.585 54.671 L569.585 27.2059 L577.038 27.2059 L577.038 54.3874 Q577.038 60.8284 579.55 64.0691 Q582.061 67.2693 587.085 67.2693 Q593.12 67.2693 596.604 63.421 Q600.128 59.5726 600.128 52.9291 L600.128 27.2059 L607.582 27.2059 L607.582 72.576 L600.128 72.576 L600.128 65.6084 Q597.414 69.7404 593.809 71.7658 Q590.244 73.7508 585.505 73.7508 Q577.686 73.7508 573.636 68.8897 Q569.585 64.0286 569.585 54.671 M588.34 26.1121 L588.34 26.1121 Z" fill="#000000" fill-rule="nonzero" fill-opacity="1"></path><path clip-path="url(#clip480)" d="M649.225 34.1734 Q647.97 33.4443 646.471 33.1202 Q645.012 32.7556 643.23 32.7556 Q636.911 32.7556 633.508 36.8875 Q630.146 40.9789 630.146 48.6757 L630.146 72.576 L622.651 72.576 L622.651 27.2059 L630.146 27.2059 L630.146 34.2544 Q632.495 30.1225 636.262 28.1376 Q640.03 26.1121 645.418 26.1121 Q646.187 26.1121 647.119 26.2337 Q648.051 26.3147 649.185 26.5172 L649.225 34.1734 Z" fill="#000000" fill-rule="nonzero" fill-opacity="1"></path><path clip-path="url(#clip480)" d="M681.876 34.1734 Q680.62 33.4443 679.121 33.1202 Q677.663 32.7556 675.88 32.7556 Q669.561 32.7556 666.158 36.8875 Q662.796 40.9789 662.796 48.6757 L662.796 72.576 L655.302 72.576 L655.302 27.2059 L662.796 27.2059 L662.796 34.2544 Q665.145 30.1225 668.913 28.1376 Q672.68 26.1121 678.068 26.1121 Q678.837 26.1121 679.769 26.2337 Q680.701 26.3147 681.835 26.5172 L681.876 34.1734 Z" fill="#000000" fill-rule="nonzero" fill-opacity="1"></path><path clip-path="url(#clip480)" d="M726.679 48.0275 L726.679 51.6733 L692.408 51.6733 Q692.894 59.3701 697.026 63.421 Q701.198 67.4314 708.612 67.4314 Q712.906 67.4314 716.916 66.3781 Q720.967 65.3249 724.937 63.2184 L724.937 70.267 Q720.926 71.9684 716.713 72.8596 Q712.501 73.7508 708.166 73.7508 Q697.31 73.7508 690.95 67.4314 Q684.63 61.1119 684.63 50.3365 Q684.63 39.1965 690.626 32.6746 Q696.661 26.1121 706.87 26.1121 Q716.025 26.1121 721.331 32.0264 Q726.679 37.9003 726.679 48.0275 M719.225 45.84 Q719.144 39.7232 715.782 36.0774 Q712.46 32.4315 706.951 32.4315 Q700.712 32.4315 696.945 35.9558 Q693.218 39.4801 692.651 45.8805 L719.225 45.84 Z" fill="#000000" fill-rule="nonzero" fill-opacity="1"></path><path clip-path="url(#clip480)" d="M776.626 45.1919 L776.626 72.576 L769.173 72.576 L769.173 45.4349 Q769.173 38.994 766.661 35.7938 Q764.15 32.5936 759.126 32.5936 Q753.091 32.5936 749.607 36.4419 Q746.123 40.2903 746.123 46.9338 L746.123 72.576 L738.629 72.576 L738.629 27.2059 L746.123 27.2059 L746.123 34.2544 Q748.797 30.163 752.402 28.1376 Q756.048 26.1121 760.787 26.1121 Q768.606 26.1121 772.616 30.9732 Q776.626 35.7938 776.626 45.1919 Z" fill="#000000" fill-rule="nonzero" fill-opacity="1"></path><path clip-path="url(#clip480)" d="M798.866 14.324 L798.866 27.2059 L814.219 27.2059 L814.219 32.9987 L798.866 32.9987 L798.866 57.6282 Q798.866 63.1779 800.365 64.7578 Q801.904 66.3376 806.562 66.3376 L814.219 66.3376 L814.219 72.576 L806.562 72.576 Q797.934 72.576 794.653 69.3758 Q791.372 66.1351 791.372 57.6282 L791.372 32.9987 L785.903 32.9987 L785.903 27.2059 L791.372 27.2059 L791.372 14.324 L798.866 14.324 Z" fill="#000000" fill-rule="nonzero" fill-opacity="1"></path><path clip-path="url(#clip480)" d="M858.9 18.8205 L858.9 41.5461 L869.189 41.5461 Q874.901 41.5461 878.02 38.5889 Q881.14 35.6318 881.14 30.163 Q881.14 24.7348 878.02 21.7777 Q874.901 18.8205 869.189 18.8205 L858.9 18.8205 M850.717 12.096 L869.189 12.096 Q879.357 12.096 884.542 16.714 Q889.768 21.2916 889.768 30.163 Q889.768 39.1155 884.542 43.6931 Q879.357 48.2706 869.189 48.2706 L858.9 48.2706 L858.9 72.576 L850.717 72.576 L850.717 12.096 Z" fill="#000000" fill-rule="nonzero" fill-opacity="1"></path><path clip-path="url(#clip480)" d="M925.254 34.1734 Q923.998 33.4443 922.499 33.1202 Q921.041 32.7556 919.259 32.7556 Q912.939 32.7556 909.536 36.8875 Q906.174 40.9789 906.174 48.6757 L906.174 72.576 L898.68 72.576 L898.68 27.2059 L906.174 27.2059 L906.174 34.2544 Q908.524 30.1225 912.291 28.1376 Q916.058 26.1121 921.446 26.1121 Q922.216 26.1121 923.148 26.2337 Q924.079 26.3147 925.213 26.5172 L925.254 34.1734 Z" fill="#000000" fill-rule="nonzero" fill-opacity="1"></path><path clip-path="url(#clip480)" d="M948.83 32.4315 Q942.835 32.4315 939.351 37.1306 Q935.867 41.7891 935.867 49.9314 Q935.867 58.0738 939.311 62.7728 Q942.794 67.4314 948.83 67.4314 Q954.785 67.4314 958.269 62.7323 Q961.753 58.0333 961.753 49.9314 Q961.753 41.8701 958.269 37.1711 Q954.785 32.4315 948.83 32.4315 M948.83 26.1121 Q958.552 26.1121 964.102 32.4315 Q969.652 38.7509 969.652 49.9314 Q969.652 61.0714 964.102 67.4314 Q958.552 73.7508 948.83 73.7508 Q939.068 73.7508 933.518 67.4314 Q928.009 61.0714 928.009 49.9314 Q928.009 38.7509 933.518 32.4315 Q939.068 26.1121 948.83 26.1121 Z" fill="#000000" fill-rule="nonzero" fill-opacity="1"></path><path clip-path="url(#clip480)" d="M1004.98 9.54393 L1004.98 15.7418 L997.846 15.7418 Q993.836 15.7418 992.256 17.3622 Q990.717 18.9825 990.717 23.1955 L990.717 27.2059 L1002.99 27.2059 L1002.99 32.9987 L990.717 32.9987 L990.717 72.576 L983.222 72.576 L983.222 32.9987 L976.093 32.9987 L976.093 27.2059 L983.222 27.2059 L983.222 24.0462 Q983.222 16.471 986.747 13.0277 Q990.271 9.54393 997.927 9.54393 L1004.98 9.54393 Z" fill="#000000" fill-rule="nonzero" fill-opacity="1"></path><path clip-path="url(#clip480)" d="M1011.21 27.2059 L1018.67 27.2059 L1018.67 72.576 L1011.21 72.576 L1011.21 27.2059 M1011.21 9.54393 L1018.67 9.54393 L1018.67 18.9825 L1011.21 18.9825 L1011.21 9.54393 Z" fill="#000000" fill-rule="nonzero" fill-opacity="1"></path><path clip-path="url(#clip480)" d="M1034.26 9.54393 L1041.72 9.54393 L1041.72 72.576 L1034.26 72.576 L1034.26 9.54393 Z" fill="#000000" fill-rule="nonzero" fill-opacity="1"></path><path clip-path="url(#clip480)" d="M1096.12 48.0275 L1096.12 51.6733 L1061.85 51.6733 Q1062.34 59.3701 1066.47 63.421 Q1070.64 67.4314 1078.05 67.4314 Q1082.35 67.4314 1086.36 66.3781 Q1090.41 65.3249 1094.38 63.2184 L1094.38 70.267 Q1090.37 71.9684 1086.16 72.8596 Q1081.94 73.7508 1077.61 73.7508 Q1066.75 73.7508 1060.39 67.4314 Q1054.07 61.1119 1054.07 50.3365 Q1054.07 39.1965 1060.07 32.6746 Q1066.1 26.1121 1076.31 26.1121 Q1085.47 26.1121 1090.77 32.0264 Q1096.12 37.9003 1096.12 48.0275 M1088.67 45.84 Q1088.59 39.7232 1085.22 36.0774 Q1081.9 32.4315 1076.39 32.4315 Q1070.15 32.4315 1066.39 35.9558 Q1062.66 39.4801 1062.09 45.8805 L1088.67 45.84 Z" fill="#000000" fill-rule="nonzero" fill-opacity="1"></path><path clip-path="url(#clip480)" d="M1152.63 9.62495 Q1147.2 18.942 1144.57 28.0566 Q1141.94 37.1711 1141.94 46.5287 Q1141.94 55.8863 1144.57 65.0818 Q1147.24 74.2369 1152.63 83.5134 L1146.15 83.5134 Q1140.07 73.9938 1137.04 64.7983 Q1134.04 55.6027 1134.04 46.5287 Q1134.04 37.4952 1137.04 28.3401 Q1140.03 19.1851 1146.15 9.62495 L1152.63 9.62495 Z" fill="#000000" fill-rule="nonzero" fill-opacity="1"></path><path clip-path="url(#clip480)" d="M1175.6 43.6931 L1175.6 65.8515 L1188.72 65.8515 Q1195.33 65.8515 1198.49 63.1374 Q1201.69 60.3828 1201.69 54.752 Q1201.69 49.0808 1198.49 46.4072 Q1195.33 43.6931 1188.72 43.6931 L1175.6 43.6931 M1175.6 18.8205 L1175.6 37.0496 L1187.71 37.0496 Q1193.71 37.0496 1196.62 34.8216 Q1199.58 32.5531 1199.58 27.935 Q1199.58 23.3575 1196.62 21.089 Q1193.71 18.8205 1187.71 18.8205 L1175.6 18.8205 M1167.42 12.096 L1188.32 12.096 Q1197.68 12.096 1202.74 15.9849 Q1207.8 19.8737 1207.8 27.0438 Q1207.8 32.5936 1205.21 35.8748 Q1202.62 39.156 1197.6 39.9662 Q1203.63 41.2625 1206.95 45.3944 Q1210.32 49.4858 1210.32 55.6432 Q1210.32 63.745 1204.81 68.1605 Q1199.3 72.576 1189.13 72.576 L1167.42 72.576 L1167.42 12.096 Z" fill="#000000" fill-rule="nonzero" fill-opacity="1"></path><path clip-path="url(#clip480)" d="M1262.82 48.0275 L1262.82 51.6733 L1228.55 51.6733 Q1229.03 59.3701 1233.16 63.421 Q1237.34 67.4314 1244.75 67.4314 Q1249.04 67.4314 1253.05 66.3781 Q1257.1 65.3249 1261.07 63.2184 L1261.07 70.267 Q1257.06 71.9684 1252.85 72.8596 Q1248.64 73.7508 1244.3 73.7508 Q1233.45 73.7508 1227.09 67.4314 Q1220.77 61.1119 1220.77 50.3365 Q1220.77 39.1965 1226.76 32.6746 Q1232.8 26.1121 1243.01 26.1121 Q1252.16 26.1121 1257.47 32.0264 Q1262.82 37.9003 1262.82 48.0275 M1255.36 45.84 Q1255.28 39.7232 1251.92 36.0774 Q1248.6 32.4315 1243.09 32.4315 Q1236.85 32.4315 1233.08 35.9558 Q1229.36 39.4801 1228.79 45.8805 L1255.36 45.84 Z" fill="#000000" fill-rule="nonzero" fill-opacity="1"></path><path clip-path="url(#clip480)" d="M1298.02 9.54393 L1298.02 15.7418 L1290.89 15.7418 Q1286.88 15.7418 1285.3 17.3622 Q1283.76 18.9825 1283.76 23.1955 L1283.76 27.2059 L1296.03 27.2059 L1296.03 32.9987 L1283.76 32.9987 L1283.76 72.576 L1276.26 72.576 L1276.26 32.9987 L1269.14 32.9987 L1269.14 27.2059 L1276.26 27.2059 L1276.26 24.0462 Q1276.26 16.471 1279.79 13.0277 Q1283.31 9.54393 1290.97 9.54393 L1298.02 9.54393 Z" fill="#000000" fill-rule="nonzero" fill-opacity="1"></path><path clip-path="url(#clip480)" d="M1321.84 32.4315 Q1315.84 32.4315 1312.36 37.1306 Q1308.87 41.7891 1308.87 49.9314 Q1308.87 58.0738 1312.32 62.7728 Q1315.8 67.4314 1321.84 67.4314 Q1327.79 67.4314 1331.28 62.7323 Q1334.76 58.0333 1334.76 49.9314 Q1334.76 41.8701 1331.28 37.1711 Q1327.79 32.4315 1321.84 32.4315 M1321.84 26.1121 Q1331.56 26.1121 1337.11 32.4315 Q1342.66 38.7509 1342.66 49.9314 Q1342.66 61.0714 1337.11 67.4314 Q1331.56 73.7508 1321.84 73.7508 Q1312.07 73.7508 1306.53 67.4314 Q1301.02 61.0714 1301.02 49.9314 Q1301.02 38.7509 1306.53 32.4315 Q1312.07 26.1121 1321.84 26.1121 Z" fill="#000000" fill-rule="nonzero" fill-opacity="1"></path><path clip-path="url(#clip480)" d="M1381.3 34.1734 Q1380.05 33.4443 1378.55 33.1202 Q1377.09 32.7556 1375.31 32.7556 Q1368.99 32.7556 1365.59 36.8875 Q1362.23 40.9789 1362.23 48.6757 L1362.23 72.576 L1354.73 72.576 L1354.73 27.2059 L1362.23 27.2059 L1362.23 34.2544 Q1364.57 30.1225 1368.34 28.1376 Q1372.11 26.1121 1377.5 26.1121 Q1378.27 26.1121 1379.2 26.2337 Q1380.13 26.3147 1381.26 26.5172 L1381.3 34.1734 Z" fill="#000000" fill-rule="nonzero" fill-opacity="1"></path><path clip-path="url(#clip480)" d="M1426.11 48.0275 L1426.11 51.6733 L1391.84 51.6733 Q1392.32 59.3701 1396.46 63.421 Q1400.63 67.4314 1408.04 67.4314 Q1412.33 67.4314 1416.35 66.3781 Q1420.4 65.3249 1424.37 63.2184 L1424.37 70.267 Q1420.36 71.9684 1416.14 72.8596 Q1411.93 73.7508 1407.6 73.7508 Q1396.74 73.7508 1390.38 67.4314 Q1384.06 61.1119 1384.06 50.3365 Q1384.06 39.1965 1390.05 32.6746 Q1396.09 26.1121 1406.3 26.1121 Q1415.45 26.1121 1420.76 32.0264 Q1426.11 37.9003 1426.11 48.0275 M1418.65 45.84 Q1418.57 39.7232 1415.21 36.0774 Q1411.89 32.4315 1406.38 32.4315 Q1400.14 32.4315 1396.37 35.9558 Q1392.65 39.4801 1392.08 45.8805 L1418.65 45.84 Z" fill="#000000" fill-rule="nonzero" fill-opacity="1"></path><path clip-path="url(#clip480)" d="M1459.37 27.2059 L1467.26 27.2059 L1481.44 65.2844 L1495.62 27.2059 L1503.52 27.2059 L1486.51 72.576 L1476.38 72.576 L1459.37 27.2059 Z" fill="#000000" fill-rule="nonzero" fill-opacity="1"></path><path clip-path="url(#clip480)" d="M1542.73 28.5427 L1542.73 35.5912 Q1539.57 33.9709 1536.17 33.1607 Q1532.77 32.3505 1529.12 32.3505 Q1523.57 32.3505 1520.78 34.0519 Q1518.02 35.7533 1518.02 39.156 Q1518.02 41.7486 1520.01 43.2475 Q1521.99 44.7058 1527.99 46.0426 L1530.54 46.6097 Q1538.48 48.3111 1541.8 51.4303 Q1545.16 54.509 1545.16 60.0587 Q1545.16 66.3781 1540.14 70.0644 Q1535.16 73.7508 1526.41 73.7508 Q1522.76 73.7508 1518.79 73.0216 Q1514.86 72.3329 1510.49 70.9151 L1510.49 63.2184 Q1514.62 65.3654 1518.63 66.4591 Q1522.64 67.5124 1526.57 67.5124 Q1531.84 67.5124 1534.67 65.73 Q1537.51 63.9071 1537.51 60.6258 Q1537.51 57.5877 1535.44 55.9673 Q1533.42 54.3469 1526.49 52.8481 L1523.9 52.2405 Q1516.97 50.7821 1513.89 47.7845 Q1510.81 44.7463 1510.81 39.4801 Q1510.81 33.0797 1515.35 29.5959 Q1519.89 26.1121 1528.23 26.1121 Q1532.36 26.1121 1536.01 26.7198 Q1539.65 27.3274 1542.73 28.5427 Z" fill="#000000" fill-rule="nonzero" fill-opacity="1"></path><path clip-path="url(#clip480)" d="M1558.09 62.2867 L1566.63 62.2867 L1566.63 72.576 L1558.09 72.576 L1558.09 62.2867 Z" fill="#000000" fill-rule="nonzero" fill-opacity="1"></path><path clip-path="url(#clip480)" d="M1630.31 20.1573 L1619.21 50.2555 L1641.45 50.2555 L1630.31 20.1573 M1625.7 12.096 L1634.97 12.096 L1658.02 72.576 L1649.52 72.576 L1644.01 57.061 L1616.74 57.061 L1611.23 72.576 L1602.61 72.576 L1625.7 12.096 Z" fill="#000000" fill-rule="nonzero" fill-opacity="1"></path><path clip-path="url(#clip480)" d="M1686.54 9.54393 L1686.54 15.7418 L1679.41 15.7418 Q1675.4 15.7418 1673.82 17.3622 Q1672.28 18.9825 1672.28 23.1955 L1672.28 27.2059 L1684.56 27.2059 L1684.56 32.9987 L1672.28 32.9987 L1672.28 72.576 L1664.79 72.576 L1664.79 32.9987 L1657.66 32.9987 L1657.66 27.2059 L1664.79 27.2059 L1664.79 24.0462 Q1664.79 16.471 1668.31 13.0277 Q1671.84 9.54393 1679.49 9.54393 L1686.54 9.54393 Z" fill="#000000" fill-rule="nonzero" fill-opacity="1"></path><path clip-path="url(#clip480)" d="M1698.69 14.324 L1698.69 27.2059 L1714.05 27.2059 L1714.05 32.9987 L1698.69 32.9987 L1698.69 57.6282 Q1698.69 63.1779 1700.19 64.7578 Q1701.73 66.3376 1706.39 66.3376 L1714.05 66.3376 L1714.05 72.576 L1706.39 72.576 Q1697.76 72.576 1694.48 69.3758 Q1691.2 66.1351 1691.2 57.6282 L1691.2 32.9987 L1685.73 32.9987 L1685.73 27.2059 L1691.2 27.2059 L1691.2 14.324 L1698.69 14.324 Z" fill="#000000" fill-rule="nonzero" fill-opacity="1"></path><path clip-path="url(#clip480)" d="M1762.66 48.0275 L1762.66 51.6733 L1728.39 51.6733 Q1728.87 59.3701 1733 63.421 Q1737.18 67.4314 1744.59 67.4314 Q1748.88 67.4314 1752.89 66.3781 Q1756.95 65.3249 1760.92 63.2184 L1760.92 70.267 Q1756.9 71.9684 1752.69 72.8596 Q1748.48 73.7508 1744.14 73.7508 Q1733.29 73.7508 1726.93 67.4314 Q1720.61 61.1119 1720.61 50.3365 Q1720.61 39.1965 1726.6 32.6746 Q1732.64 26.1121 1742.85 26.1121 Q1752 26.1121 1757.31 32.0264 Q1762.66 37.9003 1762.66 48.0275 M1755.2 45.84 Q1755.12 39.7232 1751.76 36.0774 Q1748.44 32.4315 1742.93 32.4315 Q1736.69 32.4315 1732.92 35.9558 Q1729.2 39.4801 1728.63 45.8805 L1755.2 45.84 Z" fill="#000000" fill-rule="nonzero" fill-opacity="1"></path><path clip-path="url(#clip480)" d="M1801.18 34.1734 Q1799.93 33.4443 1798.43 33.1202 Q1796.97 32.7556 1795.19 32.7556 Q1788.87 32.7556 1785.46 36.8875 Q1782.1 40.9789 1782.1 48.6757 L1782.1 72.576 L1774.61 72.576 L1774.61 27.2059 L1782.1 27.2059 L1782.1 34.2544 Q1784.45 30.1225 1788.22 28.1376 Q1791.99 26.1121 1797.37 26.1121 Q1798.14 26.1121 1799.07 26.2337 Q1800.01 26.3147 1801.14 26.5172 L1801.18 34.1734 Z" fill="#000000" fill-rule="nonzero" fill-opacity="1"></path><path clip-path="url(#clip480)" d="M1880.98 16.7545 L1880.98 25.383 Q1876.85 21.5346 1872.15 19.6307 Q1867.49 17.7268 1862.23 17.7268 Q1851.86 17.7268 1846.35 24.0867 Q1840.84 30.4061 1840.84 42.3968 Q1840.84 54.3469 1846.35 60.7069 Q1851.86 67.0263 1862.23 67.0263 Q1867.49 67.0263 1872.15 65.1223 Q1876.85 63.2184 1880.98 59.3701 L1880.98 67.9175 Q1876.69 70.8341 1871.87 72.2924 Q1867.09 73.7508 1861.74 73.7508 Q1848.01 73.7508 1840.11 65.3654 Q1832.21 56.9395 1832.21 42.3968 Q1832.21 27.8135 1840.11 19.4281 Q1848.01 11.0023 1861.74 11.0023 Q1867.17 11.0023 1871.95 12.4606 Q1876.77 13.8784 1880.98 16.7545 Z" fill="#000000" fill-rule="nonzero" fill-opacity="1"></path><path clip-path="url(#clip480)" d="M1910.88 32.4315 Q1904.88 32.4315 1901.4 37.1306 Q1897.92 41.7891 1897.92 49.9314 Q1897.92 58.0738 1901.36 62.7728 Q1904.84 67.4314 1910.88 67.4314 Q1916.83 67.4314 1920.32 62.7323 Q1923.8 58.0333 1923.8 49.9314 Q1923.8 41.8701 1920.32 37.1711 Q1916.83 32.4315 1910.88 32.4315 M1910.88 26.1121 Q1920.6 26.1121 1926.15 32.4315 Q1931.7 38.7509 1931.7 49.9314 Q1931.7 61.0714 1926.15 67.4314 Q1920.6 73.7508 1910.88 73.7508 Q1901.12 73.7508 1895.57 67.4314 Q1890.06 61.0714 1890.06 49.9314 Q1890.06 38.7509 1895.57 32.4315 Q1901.12 26.1121 1910.88 26.1121 Z" fill="#000000" fill-rule="nonzero" fill-opacity="1"></path><path clip-path="url(#clip480)" d="M1979.38 35.9153 Q1982.18 30.8922 1986.06 28.5022 Q1989.95 26.1121 1995.22 26.1121 Q2002.31 26.1121 2006.16 31.0947 Q2010.01 36.0368 2010.01 45.1919 L2010.01 72.576 L2002.51 72.576 L2002.51 45.4349 Q2002.51 38.913 2000.2 35.7533 Q1997.89 32.5936 1993.15 32.5936 Q1987.36 32.5936 1984 36.4419 Q1980.64 40.2903 1980.64 46.9338 L1980.64 72.576 L1973.14 72.576 L1973.14 45.4349 Q1973.14 38.8725 1970.83 35.7533 Q1968.52 32.5936 1963.7 32.5936 Q1957.99 32.5936 1954.63 36.4824 Q1951.27 40.3308 1951.27 46.9338 L1951.27 72.576 L1943.77 72.576 L1943.77 27.2059 L1951.27 27.2059 L1951.27 34.2544 Q1953.82 30.082 1957.38 28.0971 Q1960.95 26.1121 1965.85 26.1121 Q1970.79 26.1121 1974.24 28.6237 Q1977.72 31.1352 1979.38 35.9153 Z" fill="#000000" fill-rule="nonzero" fill-opacity="1"></path><path clip-path="url(#clip480)" d="M2032.08 65.7705 L2032.08 89.8329 L2024.59 89.8329 L2024.59 27.2059 L2032.08 27.2059 L2032.08 34.0924 Q2034.43 30.0415 2038 28.0971 Q2041.6 26.1121 2046.58 26.1121 Q2054.85 26.1121 2059.99 32.6746 Q2065.18 39.2371 2065.18 49.9314 Q2065.18 60.6258 2059.99 67.1883 Q2054.85 73.7508 2046.58 73.7508 Q2041.6 73.7508 2038 71.8063 Q2034.43 69.8214 2032.08 65.7705 M2057.44 49.9314 Q2057.44 41.7081 2054.04 37.0496 Q2050.68 32.3505 2044.76 32.3505 Q2038.85 32.3505 2035.44 37.0496 Q2032.08 41.7081 2032.08 49.9314 Q2032.08 58.1548 2035.44 62.8538 Q2038.85 67.5124 2044.76 67.5124 Q2050.68 67.5124 2054.04 62.8538 Q2057.44 58.1548 2057.44 49.9314 Z" fill="#000000" fill-rule="nonzero" fill-opacity="1"></path><path clip-path="url(#clip480)" d="M2116.34 48.0275 L2116.34 51.6733 L2082.07 51.6733 Q2082.56 59.3701 2086.69 63.421 Q2090.86 67.4314 2098.27 67.4314 Q2102.57 67.4314 2106.58 66.3781 Q2110.63 65.3249 2114.6 63.2184 L2114.6 70.267 Q2110.59 71.9684 2106.38 72.8596 Q2102.16 73.7508 2097.83 73.7508 Q2086.97 73.7508 2080.61 67.4314 Q2074.29 61.1119 2074.29 50.3365 Q2074.29 39.1965 2080.29 32.6746 Q2086.32 26.1121 2096.53 26.1121 Q2105.69 26.1121 2110.99 32.0264 Q2116.34 37.9003 2116.34 48.0275 M2108.89 45.84 Q2108.81 39.7232 2105.44 36.0774 Q2102.12 32.4315 2096.61 32.4315 Q2090.38 32.4315 2086.61 35.9558 Q2082.88 39.4801 2082.31 45.8805 L2108.89 45.84 Z" fill="#000000" fill-rule="nonzero" fill-opacity="1"></path><path clip-path="url(#clip480)" d="M2166.29 45.1919 L2166.29 72.576 L2158.84 72.576 L2158.84 45.4349 Q2158.84 38.994 2156.32 35.7938 Q2153.81 32.5936 2148.79 32.5936 Q2142.75 32.5936 2139.27 36.4419 Q2135.79 40.2903 2135.79 46.9338 L2135.79 72.576 L2128.29 72.576 L2128.29 27.2059 L2135.79 27.2059 L2135.79 34.2544 Q2138.46 30.163 2142.06 28.1376 Q2145.71 26.1121 2150.45 26.1121 Q2158.27 26.1121 2162.28 30.9732 Q2166.29 35.7938 2166.29 45.1919 Z" fill="#000000" fill-rule="nonzero" fill-opacity="1"></path><path clip-path="url(#clip480)" d="M2210.08 28.5427 L2210.08 35.5912 Q2206.92 33.9709 2203.52 33.1607 Q2200.11 32.3505 2196.47 32.3505 Q2190.92 32.3505 2188.12 34.0519 Q2185.37 35.7533 2185.37 39.156 Q2185.37 41.7486 2187.35 43.2475 Q2189.34 44.7058 2195.33 46.0426 L2197.89 46.6097 Q2205.83 48.3111 2209.15 51.4303 Q2212.51 54.509 2212.51 60.0587 Q2212.51 66.3781 2207.49 70.0644 Q2202.5 73.7508 2193.75 73.7508 Q2190.11 73.7508 2186.14 73.0216 Q2182.21 72.3329 2177.83 70.9151 L2177.83 63.2184 Q2181.97 65.3654 2185.98 66.4591 Q2189.99 67.5124 2193.92 67.5124 Q2199.18 67.5124 2202.02 65.73 Q2204.85 63.9071 2204.85 60.6258 Q2204.85 57.5877 2202.79 55.9673 Q2200.76 54.3469 2193.84 52.8481 L2191.24 52.2405 Q2184.32 50.7821 2181.24 47.7845 Q2178.16 44.7463 2178.16 39.4801 Q2178.16 33.0797 2182.7 29.5959 Q2187.23 26.1121 2195.58 26.1121 Q2199.71 26.1121 2203.35 26.7198 Q2207 27.3274 2210.08 28.5427 Z" fill="#000000" fill-rule="nonzero" fill-opacity="1"></path><path clip-path="url(#clip480)" d="M2245 49.7694 Q2235.96 49.7694 2232.48 51.8354 Q2229 53.9013 2229 58.8839 Q2229 62.8538 2231.59 65.2034 Q2234.22 67.5124 2238.72 67.5124 Q2244.92 67.5124 2248.64 63.1374 Q2252.41 58.7219 2252.41 51.4303 L2252.41 49.7694 L2245 49.7694 M2259.86 46.6907 L2259.86 72.576 L2252.41 72.576 L2252.41 65.6895 Q2249.86 69.8214 2246.05 71.8063 Q2242.24 73.7508 2236.73 73.7508 Q2229.77 73.7508 2225.63 69.8619 Q2221.54 65.9325 2221.54 59.3701 Q2221.54 51.7138 2226.65 47.825 Q2231.79 43.9361 2241.96 43.9361 L2252.41 43.9361 L2252.41 43.2069 Q2252.41 38.0623 2249.01 35.2672 Q2245.65 32.4315 2239.53 32.4315 Q2235.64 32.4315 2231.95 33.3632 Q2228.27 34.295 2224.87 36.1584 L2224.87 29.2718 Q2228.96 27.692 2232.8 26.9223 Q2236.65 26.1121 2240.3 26.1121 Q2250.14 26.1121 2255 31.2163 Q2259.86 36.3204 2259.86 46.6907 Z" fill="#000000" fill-rule="nonzero" fill-opacity="1"></path><path clip-path="url(#clip480)" d="M2282.59 14.324 L2282.59 27.2059 L2297.94 27.2059 L2297.94 32.9987 L2282.59 32.9987 L2282.59 57.6282 Q2282.59 63.1779 2284.09 64.7578 Q2285.63 66.3376 2290.29 66.3376 L2297.94 66.3376 L2297.94 72.576 L2290.29 72.576 Q2281.66 72.576 2278.38 69.3758 Q2275.1 66.1351 2275.1 57.6282 L2275.1 32.9987 L2269.63 32.9987 L2269.63 27.2059 L2275.1 27.2059 L2275.1 14.324 L2282.59 14.324 Z" fill="#000000" fill-rule="nonzero" fill-opacity="1"></path><path clip-path="url(#clip480)" d="M2307.75 27.2059 L2315.2 27.2059 L2315.2 72.576 L2307.75 72.576 L2307.75 27.2059 M2307.75 9.54393 L2315.2 9.54393 L2315.2 18.9825 L2307.75 18.9825 L2307.75 9.54393 Z" fill="#000000" fill-rule="nonzero" fill-opacity="1"></path><path clip-path="url(#clip480)" d="M2348.38 32.4315 Q2342.38 32.4315 2338.9 37.1306 Q2335.41 41.7891 2335.41 49.9314 Q2335.41 58.0738 2338.86 62.7728 Q2342.34 67.4314 2348.38 67.4314 Q2354.33 67.4314 2357.82 62.7323 Q2361.3 58.0333 2361.3 49.9314 Q2361.3 41.8701 2357.82 37.1711 Q2354.33 32.4315 2348.38 32.4315 M2348.38 26.1121 Q2358.1 26.1121 2363.65 32.4315 Q2369.2 38.7509 2369.2 49.9314 Q2369.2 61.0714 2363.65 67.4314 Q2358.1 73.7508 2348.38 73.7508 Q2338.61 73.7508 2333.06 67.4314 Q2327.56 61.0714 2327.56 49.9314 Q2327.56 38.7509 2333.06 32.4315 Q2338.61 26.1121 2348.38 26.1121 Z" fill="#000000" fill-rule="nonzero" fill-opacity="1"></path><path clip-path="url(#clip480)" d="M2419.27 45.1919 L2419.27 72.576 L2411.81 72.576 L2411.81 45.4349 Q2411.81 38.994 2409.3 35.7938 Q2406.79 32.5936 2401.77 32.5936 Q2395.73 32.5936 2392.25 36.4419 Q2388.76 40.2903 2388.76 46.9338 L2388.76 72.576 L2381.27 72.576 L2381.27 27.2059 L2388.76 27.2059 L2388.76 34.2544 Q2391.44 30.163 2395.04 28.1376 Q2398.69 26.1121 2403.43 26.1121 Q2411.25 26.1121 2415.26 30.9732 Q2419.27 35.7938 2419.27 45.1919 Z" fill="#000000" fill-rule="nonzero" fill-opacity="1"></path><path clip-path="url(#clip480)" d="M2432.96 9.62495 L2439.44 9.62495 Q2445.52 19.1851 2448.52 28.3401 Q2451.55 37.4952 2451.55 46.5287 Q2451.55 55.6027 2448.52 64.7983 Q2445.52 73.9938 2439.44 83.5134 L2432.96 83.5134 Q2438.35 74.2369 2440.98 65.0818 Q2443.65 55.8863 2443.65 46.5287 Q2443.65 37.1711 2440.98 28.0566 Q2438.35 18.942 2432.96 9.62495 Z" fill="#000000" fill-rule="nonzero" fill-opacity="1"></path><polyline clip-path="url(#clip482)" style="stroke:#0000ff; stroke-linecap:round; stroke-linejoin:round; stroke-width:4; stroke-opacity:1; fill:none" points="294.087,1309.69 960.323,1386.4 1626.56,160.256 2292.79,228.601 "></polyline>
<circle clip-path="url(#clip482)" cx="294.087" cy="1309.69" r="14.4" fill="#0000ff" fill-rule="evenodd" fill-opacity="1" stroke="#000000" stroke-opacity="1" stroke-width="3.2"></circle>
<circle clip-path="url(#clip482)" cx="960.323" cy="1386.4" r="14.4" fill="#0000ff" fill-rule="evenodd" fill-opacity="1" stroke="#000000" stroke-opacity="1" stroke-width="3.2"></circle>
<circle clip-path="url(#clip482)" cx="1626.56" cy="160.256" r="14.4" fill="#0000ff" fill-rule="evenodd" fill-opacity="1" stroke="#000000" stroke-opacity="1" stroke-width="3.2"></circle>
<circle clip-path="url(#clip482)" cx="2292.79" cy="228.601" r="14.4" fill="#0000ff" fill-rule="evenodd" fill-opacity="1" stroke="#000000" stroke-opacity="1" stroke-width="3.2"></circle>
<polyline clip-path="url(#clip482)" style="stroke:#ff0000; stroke-linecap:round; stroke-linejoin:round; stroke-width:4; stroke-opacity:1; fill:none" stroke-dasharray="16, 10" points="294.087,1308.55 960.323,1385.79 1626.56,213.499 2292.79,287.759 "></polyline>
<path clip-path="url(#clip482)" d="M278.087 1292.55 L278.087 1324.55 L310.087 1324.55 L310.087 1292.55 L278.087 1292.55 Z" fill="#ff0000" fill-rule="evenodd" fill-opacity="1" stroke="#000000" stroke-opacity="1" stroke-width="3.2"></path>
<path clip-path="url(#clip482)" d="M944.323 1369.79 L944.323 1401.79 L976.323 1401.79 L976.323 1369.79 L944.323 1369.79 Z" fill="#ff0000" fill-rule="evenodd" fill-opacity="1" stroke="#000000" stroke-opacity="1" stroke-width="3.2"></path>
<path clip-path="url(#clip482)" d="M1610.56 197.499 L1610.56 229.499 L1642.56 229.499 L1642.56 197.499 L1610.56 197.499 Z" fill="#ff0000" fill-rule="evenodd" fill-opacity="1" stroke="#000000" stroke-opacity="1" stroke-width="3.2"></path>
<path clip-path="url(#clip482)" d="M2276.79 271.759 L2276.79 303.759 L2308.79 303.759 L2308.79 271.759 L2276.79 271.759 Z" fill="#ff0000" fill-rule="evenodd" fill-opacity="1" stroke="#000000" stroke-opacity="1" stroke-width="3.2"></path>
<path clip-path="url(#clip480)" d="M304.746 322.316 L1020.15 322.316 L1020.15 166.796 L304.746 166.796  Z" fill="#ffffff" fill-rule="evenodd" fill-opacity="1"></path>
<polyline clip-path="url(#clip480)" style="stroke:#000000; stroke-linecap:round; stroke-linejoin:round; stroke-width:4; stroke-opacity:1; fill:none" points="304.746,322.316 1020.15,322.316 1020.15,166.796 304.746,166.796 304.746,322.316 "></polyline>
<polyline clip-path="url(#clip480)" style="stroke:#0000ff; stroke-linecap:round; stroke-linejoin:round; stroke-width:4; stroke-opacity:1; fill:none" points="328.287,218.636 469.529,218.636 "></polyline>
<circle clip-path="url(#clip480)" cx="398.908" cy="218.636" r="19.6169" fill="#0000ff" fill-rule="evenodd" fill-opacity="1" stroke="#000000" stroke-opacity="1" stroke-width="4.55111"></circle>
<path clip-path="url(#clip480)" d="M497.745 219.411 L497.745 232.073 L505.245 232.073 Q509.018 232.073 510.824 230.522 Q512.652 228.948 512.652 225.731 Q512.652 222.49 510.824 220.962 Q509.018 219.411 505.245 219.411 L497.745 219.411 M497.745 205.198 L497.745 215.615 L504.666 215.615 Q508.092 215.615 509.759 214.342 Q511.449 213.045 511.449 210.407 Q511.449 207.791 509.759 206.495 Q508.092 205.198 504.666 205.198 L497.745 205.198 M493.069 201.356 L505.014 201.356 Q510.361 201.356 513.254 203.578 Q516.148 205.8 516.148 209.897 Q516.148 213.069 514.666 214.944 Q513.185 216.819 510.314 217.282 Q513.764 218.022 515.662 220.383 Q517.583 222.721 517.583 226.24 Q517.583 230.869 514.435 233.393 Q511.287 235.916 505.477 235.916 L493.069 235.916 L493.069 201.356 Z" fill="#000000" fill-rule="nonzero" fill-opacity="1"></path><path clip-path="url(#clip480)" d="M547.583 221.888 L547.583 223.971 L528 223.971 Q528.277 228.369 530.638 230.684 Q533.023 232.976 537.259 232.976 Q539.712 232.976 542.004 232.374 Q544.319 231.772 546.587 230.569 L546.587 234.596 Q544.296 235.568 541.888 236.078 Q539.481 236.587 537.004 236.587 Q530.8 236.587 527.166 232.976 Q523.555 229.365 523.555 223.207 Q523.555 216.842 526.981 213.115 Q530.43 209.365 536.263 209.365 Q541.495 209.365 544.527 212.745 Q547.583 216.101 547.583 221.888 M543.324 220.638 Q543.277 217.143 541.356 215.059 Q539.458 212.976 536.31 212.976 Q532.745 212.976 530.592 214.99 Q528.463 217.004 528.138 220.661 L543.324 220.638 Z" fill="#000000" fill-rule="nonzero" fill-opacity="1"></path><path clip-path="url(#clip480)" d="M567.698 199.897 L567.698 203.439 L563.624 203.439 Q561.333 203.439 560.43 204.365 Q559.55 205.291 559.55 207.698 L559.55 209.99 L566.564 209.99 L566.564 213.3 L559.55 213.3 L559.55 235.916 L555.268 235.916 L555.268 213.3 L551.194 213.3 L551.194 209.99 L555.268 209.99 L555.268 208.184 Q555.268 203.856 557.282 201.888 Q559.296 199.897 563.671 199.897 L567.698 199.897 Z" fill="#000000" fill-rule="nonzero" fill-opacity="1"></path><path clip-path="url(#clip480)" d="M581.309 212.976 Q577.884 212.976 575.893 215.661 Q573.902 218.323 573.902 222.976 Q573.902 227.629 575.87 230.314 Q577.86 232.976 581.309 232.976 Q584.712 232.976 586.703 230.291 Q588.694 227.606 588.694 222.976 Q588.694 218.37 586.703 215.684 Q584.712 212.976 581.309 212.976 M581.309 209.365 Q586.865 209.365 590.036 212.976 Q593.208 216.587 593.208 222.976 Q593.208 229.342 590.036 232.976 Q586.865 236.587 581.309 236.587 Q575.731 236.587 572.559 232.976 Q569.411 229.342 569.411 222.976 Q569.411 216.587 572.559 212.976 Q575.731 209.365 581.309 209.365 Z" fill="#000000" fill-rule="nonzero" fill-opacity="1"></path><path clip-path="url(#clip480)" d="M615.291 213.971 Q614.573 213.555 613.717 213.37 Q612.883 213.161 611.865 213.161 Q608.254 213.161 606.309 215.522 Q604.388 217.86 604.388 222.258 L604.388 235.916 L600.106 235.916 L600.106 209.99 L604.388 209.99 L604.388 214.018 Q605.731 211.657 607.883 210.522 Q610.036 209.365 613.115 209.365 Q613.555 209.365 614.087 209.434 Q614.619 209.481 615.268 209.596 L615.291 213.971 Z" fill="#000000" fill-rule="nonzero" fill-opacity="1"></path><path clip-path="url(#clip480)" d="M640.892 221.888 L640.892 223.971 L621.309 223.971 Q621.587 228.369 623.948 230.684 Q626.332 232.976 630.568 232.976 Q633.022 232.976 635.314 232.374 Q637.629 231.772 639.897 230.569 L639.897 234.596 Q637.605 235.568 635.198 236.078 Q632.791 236.587 630.314 236.587 Q624.11 236.587 620.476 232.976 Q616.865 229.365 616.865 223.207 Q616.865 216.842 620.291 213.115 Q623.74 209.365 629.573 209.365 Q634.805 209.365 637.837 212.745 Q640.892 216.101 640.892 221.888 M636.633 220.638 Q636.587 217.143 634.666 215.059 Q632.767 212.976 629.619 212.976 Q626.055 212.976 623.902 214.99 Q621.772 217.004 621.448 220.661 L636.633 220.638 Z" fill="#000000" fill-rule="nonzero" fill-opacity="1"></path><path clip-path="url(#clip480)" d="M689.017 204.018 L689.017 208.948 Q686.656 206.749 683.971 205.661 Q681.309 204.573 678.3 204.573 Q672.374 204.573 669.226 208.208 Q666.078 211.819 666.078 218.67 Q666.078 225.499 669.226 229.133 Q672.374 232.744 678.3 232.744 Q681.309 232.744 683.971 231.656 Q686.656 230.569 689.017 228.369 L689.017 233.254 Q686.564 234.92 683.809 235.754 Q681.077 236.587 678.022 236.587 Q670.175 236.587 665.661 231.795 Q661.147 226.981 661.147 218.67 Q661.147 210.337 665.661 205.546 Q670.175 200.731 678.022 200.731 Q681.124 200.731 683.855 201.564 Q686.61 202.374 689.017 204.018 Z" fill="#000000" fill-rule="nonzero" fill-opacity="1"></path><path clip-path="url(#clip480)" d="M706.1 212.976 Q702.675 212.976 700.684 215.661 Q698.693 218.323 698.693 222.976 Q698.693 227.629 700.661 230.314 Q702.651 232.976 706.1 232.976 Q709.503 232.976 711.494 230.291 Q713.485 227.606 713.485 222.976 Q713.485 218.37 711.494 215.684 Q709.503 212.976 706.1 212.976 M706.1 209.365 Q711.656 209.365 714.827 212.976 Q717.999 216.587 717.999 222.976 Q717.999 229.342 714.827 232.976 Q711.656 236.587 706.1 236.587 Q700.522 236.587 697.35 232.976 Q694.202 229.342 694.202 222.976 Q694.202 216.587 697.35 212.976 Q700.522 209.365 706.1 209.365 Z" fill="#000000" fill-rule="nonzero" fill-opacity="1"></path><path clip-path="url(#clip480)" d="M745.244 214.967 Q746.841 212.096 749.063 210.731 Q751.285 209.365 754.295 209.365 Q758.346 209.365 760.545 212.212 Q762.744 215.036 762.744 220.268 L762.744 235.916 L758.461 235.916 L758.461 220.407 Q758.461 216.68 757.142 214.874 Q755.822 213.069 753.114 213.069 Q749.804 213.069 747.883 215.268 Q745.961 217.467 745.961 221.263 L745.961 235.916 L741.679 235.916 L741.679 220.407 Q741.679 216.657 740.36 214.874 Q739.04 213.069 736.285 213.069 Q733.022 213.069 731.1 215.291 Q729.179 217.49 729.179 221.263 L729.179 235.916 L724.897 235.916 L724.897 209.99 L729.179 209.99 L729.179 214.018 Q730.637 211.633 732.674 210.499 Q734.711 209.365 737.512 209.365 Q740.336 209.365 742.304 210.8 Q744.295 212.235 745.244 214.967 Z" fill="#000000" fill-rule="nonzero" fill-opacity="1"></path><path clip-path="url(#clip480)" d="M775.359 232.027 L775.359 245.777 L771.077 245.777 L771.077 209.99 L775.359 209.99 L775.359 213.925 Q776.702 211.61 778.739 210.499 Q780.799 209.365 783.646 209.365 Q788.369 209.365 791.308 213.115 Q794.271 216.865 794.271 222.976 Q794.271 229.087 791.308 232.837 Q788.369 236.587 783.646 236.587 Q780.799 236.587 778.739 235.476 Q776.702 234.342 775.359 232.027 M789.85 222.976 Q789.85 218.277 787.906 215.615 Q785.984 212.93 782.605 212.93 Q779.225 212.93 777.281 215.615 Q775.359 218.277 775.359 222.976 Q775.359 227.675 777.281 230.36 Q779.225 233.022 782.605 233.022 Q785.984 233.022 787.906 230.36 Q789.85 227.675 789.85 222.976 Z" fill="#000000" fill-rule="nonzero" fill-opacity="1"></path><path clip-path="url(#clip480)" d="M823.507 221.888 L823.507 223.971 L803.924 223.971 Q804.202 228.369 806.563 230.684 Q808.947 232.976 813.183 232.976 Q815.637 232.976 817.929 232.374 Q820.243 231.772 822.512 230.569 L822.512 234.596 Q820.22 235.568 817.813 236.078 Q815.405 236.587 812.929 236.587 Q806.725 236.587 803.091 232.976 Q799.48 229.365 799.48 223.207 Q799.48 216.842 802.905 213.115 Q806.355 209.365 812.188 209.365 Q817.419 209.365 820.452 212.745 Q823.507 216.101 823.507 221.888 M819.248 220.638 Q819.202 217.143 817.28 215.059 Q815.382 212.976 812.234 212.976 Q808.669 212.976 806.517 214.99 Q804.387 217.004 804.063 220.661 L819.248 220.638 Z" fill="#000000" fill-rule="nonzero" fill-opacity="1"></path><path clip-path="url(#clip480)" d="M852.049 220.268 L852.049 235.916 L847.789 235.916 L847.789 220.407 Q847.789 216.726 846.354 214.897 Q844.919 213.069 842.049 213.069 Q838.6 213.069 836.609 215.268 Q834.618 217.467 834.618 221.263 L834.618 235.916 L830.336 235.916 L830.336 209.99 L834.618 209.99 L834.618 214.018 Q836.146 211.68 838.206 210.522 Q840.29 209.365 842.998 209.365 Q847.465 209.365 849.757 212.143 Q852.049 214.897 852.049 220.268 Z" fill="#000000" fill-rule="nonzero" fill-opacity="1"></path><path clip-path="url(#clip480)" d="M877.072 210.754 L877.072 214.782 Q875.266 213.856 873.322 213.393 Q871.377 212.93 869.294 212.93 Q866.123 212.93 864.526 213.902 Q862.951 214.874 862.951 216.819 Q862.951 218.3 864.086 219.157 Q865.22 219.99 868.646 220.754 L870.104 221.078 Q874.641 222.05 876.539 223.832 Q878.461 225.592 878.461 228.763 Q878.461 232.374 875.59 234.481 Q872.743 236.587 867.743 236.587 Q865.66 236.587 863.391 236.17 Q861.146 235.777 858.646 234.967 L858.646 230.569 Q861.007 231.795 863.299 232.42 Q865.59 233.022 867.836 233.022 Q870.845 233.022 872.465 232.004 Q874.086 230.962 874.086 229.087 Q874.086 227.351 872.905 226.425 Q871.748 225.499 867.789 224.643 L866.308 224.295 Q862.35 223.462 860.59 221.749 Q858.831 220.013 858.831 217.004 Q858.831 213.346 861.424 211.356 Q864.016 209.365 868.785 209.365 Q871.146 209.365 873.229 209.712 Q875.312 210.059 877.072 210.754 Z" fill="#000000" fill-rule="nonzero" fill-opacity="1"></path><path clip-path="url(#clip480)" d="M897.025 222.883 Q891.863 222.883 889.873 224.064 Q887.882 225.244 887.882 228.092 Q887.882 230.36 889.363 231.703 Q890.868 233.022 893.437 233.022 Q896.979 233.022 899.109 230.522 Q901.261 227.999 901.261 223.832 L901.261 222.883 L897.025 222.883 M905.521 221.124 L905.521 235.916 L901.261 235.916 L901.261 231.981 Q899.803 234.342 897.627 235.476 Q895.451 236.587 892.303 236.587 Q888.322 236.587 885.961 234.365 Q883.623 232.119 883.623 228.369 Q883.623 223.994 886.539 221.772 Q889.479 219.55 895.289 219.55 L901.261 219.55 L901.261 219.133 Q901.261 216.194 899.317 214.596 Q897.396 212.976 893.9 212.976 Q891.678 212.976 889.572 213.508 Q887.465 214.041 885.521 215.106 L885.521 211.17 Q887.859 210.268 890.058 209.828 Q892.257 209.365 894.34 209.365 Q899.965 209.365 902.743 212.282 Q905.521 215.198 905.521 221.124 Z" fill="#000000" fill-rule="nonzero" fill-opacity="1"></path><path clip-path="url(#clip480)" d="M918.507 202.629 L918.507 209.99 L927.28 209.99 L927.28 213.3 L918.507 213.3 L918.507 227.374 Q918.507 230.545 919.363 231.448 Q920.243 232.351 922.905 232.351 L927.28 232.351 L927.28 235.916 L922.905 235.916 Q917.974 235.916 916.099 234.087 Q914.224 232.235 914.224 227.374 L914.224 213.3 L911.099 213.3 L911.099 209.99 L914.224 209.99 L914.224 202.629 L918.507 202.629 Z" fill="#000000" fill-rule="nonzero" fill-opacity="1"></path><path clip-path="url(#clip480)" d="M932.882 209.99 L937.141 209.99 L937.141 235.916 L932.882 235.916 L932.882 209.99 M932.882 199.897 L937.141 199.897 L937.141 205.291 L932.882 205.291 L932.882 199.897 Z" fill="#000000" fill-rule="nonzero" fill-opacity="1"></path><path clip-path="url(#clip480)" d="M956.099 212.976 Q952.673 212.976 950.682 215.661 Q948.692 218.323 948.692 222.976 Q948.692 227.629 950.659 230.314 Q952.65 232.976 956.099 232.976 Q959.502 232.976 961.493 230.291 Q963.483 227.606 963.483 222.976 Q963.483 218.37 961.493 215.684 Q959.502 212.976 956.099 212.976 M956.099 209.365 Q961.655 209.365 964.826 212.976 Q967.997 216.587 967.997 222.976 Q967.997 229.342 964.826 232.976 Q961.655 236.587 956.099 236.587 Q950.52 236.587 947.349 232.976 Q944.201 229.342 944.201 222.976 Q944.201 216.587 947.349 212.976 Q950.52 209.365 956.099 209.365 Z" fill="#000000" fill-rule="nonzero" fill-opacity="1"></path><path clip-path="url(#clip480)" d="M996.608 220.268 L996.608 235.916 L992.349 235.916 L992.349 220.407 Q992.349 216.726 990.914 214.897 Q989.479 213.069 986.608 213.069 Q983.159 213.069 981.168 215.268 Q979.178 217.467 979.178 221.263 L979.178 235.916 L974.895 235.916 L974.895 209.99 L979.178 209.99 L979.178 214.018 Q980.705 211.68 982.766 210.522 Q984.849 209.365 987.557 209.365 Q992.025 209.365 994.316 212.143 Q996.608 214.897 996.608 220.268 Z" fill="#000000" fill-rule="nonzero" fill-opacity="1"></path><polyline clip-path="url(#clip480)" style="stroke:#ff0000; stroke-linecap:round; stroke-linejoin:round; stroke-width:4; stroke-opacity:1; fill:none" stroke-dasharray="16, 10" points="328.287,270.476 469.529,270.476 "></polyline>
<path clip-path="url(#clip480)" d="M377.111 248.679 L377.111 292.272 L420.704 292.272 L420.704 248.679 L377.111 248.679 Z" fill="#ff0000" fill-rule="evenodd" fill-opacity="1" stroke="#000000" stroke-opacity="1" stroke-width="4.55111"></path>
<path clip-path="url(#clip480)" d="M508.902 257.802 L502.56 275.001 L515.268 275.001 L508.902 257.802 M506.264 253.196 L511.564 253.196 L524.736 287.756 L519.875 287.756 L516.726 278.89 L501.148 278.89 L498 287.756 L493.069 287.756 L506.264 253.196 Z" fill="#000000" fill-rule="nonzero" fill-opacity="1"></path><path clip-path="url(#clip480)" d="M541.032 251.737 L541.032 255.279 L536.958 255.279 Q534.666 255.279 533.763 256.205 Q532.884 257.131 532.884 259.538 L532.884 261.83 L539.898 261.83 L539.898 265.14 L532.884 265.14 L532.884 287.756 L528.601 287.756 L528.601 265.14 L524.527 265.14 L524.527 261.83 L528.601 261.83 L528.601 260.024 Q528.601 255.696 530.615 253.728 Q532.629 251.737 537.004 251.737 L541.032 251.737 Z" fill="#000000" fill-rule="nonzero" fill-opacity="1"></path><path clip-path="url(#clip480)" d="M547.976 254.469 L547.976 261.83 L556.749 261.83 L556.749 265.14 L547.976 265.14 L547.976 279.214 Q547.976 282.385 548.833 283.288 Q549.712 284.191 552.374 284.191 L556.749 284.191 L556.749 287.756 L552.374 287.756 Q547.444 287.756 545.569 285.927 Q543.694 284.075 543.694 279.214 L543.694 265.14 L540.569 265.14 L540.569 261.83 L543.694 261.83 L543.694 254.469 L547.976 254.469 Z" fill="#000000" fill-rule="nonzero" fill-opacity="1"></path><path clip-path="url(#clip480)" d="M584.527 273.728 L584.527 275.811 L564.944 275.811 Q565.222 280.209 567.583 282.524 Q569.967 284.816 574.203 284.816 Q576.657 284.816 578.948 284.214 Q581.263 283.612 583.532 282.409 L583.532 286.436 Q581.24 287.408 578.833 287.918 Q576.425 288.427 573.948 288.427 Q567.745 288.427 564.11 284.816 Q560.499 281.205 560.499 275.047 Q560.499 268.682 563.925 264.955 Q567.374 261.205 573.208 261.205 Q578.439 261.205 581.471 264.585 Q584.527 267.941 584.527 273.728 M580.268 272.478 Q580.221 268.983 578.3 266.899 Q576.402 264.816 573.254 264.816 Q569.689 264.816 567.536 266.83 Q565.407 268.844 565.083 272.501 L580.268 272.478 Z" fill="#000000" fill-rule="nonzero" fill-opacity="1"></path><path clip-path="url(#clip480)" d="M606.541 265.811 Q605.823 265.395 604.967 265.21 Q604.133 265.001 603.115 265.001 Q599.504 265.001 597.559 267.362 Q595.638 269.7 595.638 274.098 L595.638 287.756 L591.356 287.756 L591.356 261.83 L595.638 261.83 L595.638 265.858 Q596.981 263.497 599.133 262.362 Q601.286 261.205 604.365 261.205 Q604.805 261.205 605.337 261.274 Q605.869 261.321 606.518 261.436 L606.541 265.811 Z" fill="#000000" fill-rule="nonzero" fill-opacity="1"></path><path clip-path="url(#clip480)" d="M652.142 255.858 L652.142 260.788 Q649.781 258.589 647.096 257.501 Q644.434 256.413 641.425 256.413 Q635.499 256.413 632.351 260.048 Q629.203 263.659 629.203 270.51 Q629.203 277.339 632.351 280.973 Q635.499 284.584 641.425 284.584 Q644.434 284.584 647.096 283.496 Q649.781 282.409 652.142 280.209 L652.142 285.094 Q649.689 286.76 646.934 287.594 Q644.203 288.427 641.147 288.427 Q633.3 288.427 628.786 283.635 Q624.272 278.821 624.272 270.51 Q624.272 262.177 628.786 257.386 Q633.3 252.571 641.147 252.571 Q644.249 252.571 646.98 253.404 Q649.735 254.214 652.142 255.858 Z" fill="#000000" fill-rule="nonzero" fill-opacity="1"></path><path clip-path="url(#clip480)" d="M669.226 264.816 Q665.8 264.816 663.809 267.501 Q661.818 270.163 661.818 274.816 Q661.818 279.469 663.786 282.154 Q665.777 284.816 669.226 284.816 Q672.628 284.816 674.619 282.131 Q676.61 279.446 676.61 274.816 Q676.61 270.21 674.619 267.524 Q672.628 264.816 669.226 264.816 M669.226 261.205 Q674.781 261.205 677.952 264.816 Q681.124 268.427 681.124 274.816 Q681.124 281.182 677.952 284.816 Q674.781 288.427 669.226 288.427 Q663.647 288.427 660.476 284.816 Q657.328 281.182 657.328 274.816 Q657.328 268.427 660.476 264.816 Q663.647 261.205 669.226 261.205 Z" fill="#000000" fill-rule="nonzero" fill-opacity="1"></path><path clip-path="url(#clip480)" d="M708.369 266.807 Q709.966 263.936 712.188 262.571 Q714.411 261.205 717.42 261.205 Q721.471 261.205 723.67 264.052 Q725.869 266.876 725.869 272.108 L725.869 287.756 L721.586 287.756 L721.586 272.247 Q721.586 268.52 720.267 266.714 Q718.948 264.909 716.239 264.909 Q712.929 264.909 711.008 267.108 Q709.087 269.307 709.087 273.103 L709.087 287.756 L704.804 287.756 L704.804 272.247 Q704.804 268.497 703.485 266.714 Q702.165 264.909 699.411 264.909 Q696.147 264.909 694.226 267.131 Q692.304 269.33 692.304 273.103 L692.304 287.756 L688.022 287.756 L688.022 261.83 L692.304 261.83 L692.304 265.858 Q693.763 263.473 695.8 262.339 Q697.837 261.205 700.638 261.205 Q703.462 261.205 705.429 262.64 Q707.42 264.075 708.369 266.807 Z" fill="#000000" fill-rule="nonzero" fill-opacity="1"></path><path clip-path="url(#clip480)" d="M738.485 283.867 L738.485 297.617 L734.202 297.617 L734.202 261.83 L738.485 261.83 L738.485 265.765 Q739.827 263.45 741.864 262.339 Q743.924 261.205 746.772 261.205 Q751.494 261.205 754.434 264.955 Q757.396 268.705 757.396 274.816 Q757.396 280.927 754.434 284.677 Q751.494 288.427 746.772 288.427 Q743.924 288.427 741.864 287.316 Q739.827 286.182 738.485 283.867 M752.975 274.816 Q752.975 270.117 751.031 267.455 Q749.109 264.77 745.73 264.77 Q742.35 264.77 740.406 267.455 Q738.485 270.117 738.485 274.816 Q738.485 279.515 740.406 282.2 Q742.35 284.862 745.73 284.862 Q749.109 284.862 751.031 282.2 Q752.975 279.515 752.975 274.816 Z" fill="#000000" fill-rule="nonzero" fill-opacity="1"></path><path clip-path="url(#clip480)" d="M786.632 273.728 L786.632 275.811 L767.049 275.811 Q767.327 280.209 769.688 282.524 Q772.072 284.816 776.308 284.816 Q778.762 284.816 781.054 284.214 Q783.369 283.612 785.637 282.409 L785.637 286.436 Q783.345 287.408 780.938 287.918 Q778.531 288.427 776.054 288.427 Q769.85 288.427 766.216 284.816 Q762.605 281.205 762.605 275.047 Q762.605 268.682 766.031 264.955 Q769.48 261.205 775.313 261.205 Q780.544 261.205 783.577 264.585 Q786.632 267.941 786.632 273.728 M782.373 272.478 Q782.327 268.983 780.406 266.899 Q778.507 264.816 775.359 264.816 Q771.795 264.816 769.642 266.83 Q767.512 268.844 767.188 272.501 L782.373 272.478 Z" fill="#000000" fill-rule="nonzero" fill-opacity="1"></path><path clip-path="url(#clip480)" d="M815.174 272.108 L815.174 287.756 L810.915 287.756 L810.915 272.247 Q810.915 268.566 809.48 266.737 Q808.044 264.909 805.174 264.909 Q801.725 264.909 799.734 267.108 Q797.743 269.307 797.743 273.103 L797.743 287.756 L793.461 287.756 L793.461 261.83 L797.743 261.83 L797.743 265.858 Q799.271 263.52 801.331 262.362 Q803.415 261.205 806.123 261.205 Q810.591 261.205 812.882 263.983 Q815.174 266.737 815.174 272.108 Z" fill="#000000" fill-rule="nonzero" fill-opacity="1"></path><path clip-path="url(#clip480)" d="M840.197 262.594 L840.197 266.622 Q838.391 265.696 836.447 265.233 Q834.503 264.77 832.419 264.77 Q829.248 264.77 827.651 265.742 Q826.077 266.714 826.077 268.659 Q826.077 270.14 827.211 270.997 Q828.345 271.83 831.771 272.594 L833.229 272.918 Q837.766 273.89 839.665 275.672 Q841.586 277.432 841.586 280.603 Q841.586 284.214 838.715 286.321 Q835.868 288.427 830.868 288.427 Q828.785 288.427 826.516 288.01 Q824.271 287.617 821.771 286.807 L821.771 282.409 Q824.132 283.635 826.424 284.26 Q828.716 284.862 830.961 284.862 Q833.97 284.862 835.59 283.844 Q837.211 282.802 837.211 280.927 Q837.211 279.191 836.03 278.265 Q834.873 277.339 830.915 276.483 L829.433 276.135 Q825.475 275.302 823.716 273.589 Q821.956 271.853 821.956 268.844 Q821.956 265.186 824.549 263.196 Q827.141 261.205 831.91 261.205 Q834.271 261.205 836.354 261.552 Q838.438 261.899 840.197 262.594 Z" fill="#000000" fill-rule="nonzero" fill-opacity="1"></path><path clip-path="url(#clip480)" d="M860.151 274.723 Q854.989 274.723 852.998 275.904 Q851.007 277.084 851.007 279.932 Q851.007 282.2 852.489 283.543 Q853.993 284.862 856.563 284.862 Q860.104 284.862 862.234 282.362 Q864.387 279.839 864.387 275.672 L864.387 274.723 L860.151 274.723 M868.646 272.964 L868.646 287.756 L864.387 287.756 L864.387 283.821 Q862.928 286.182 860.752 287.316 Q858.576 288.427 855.428 288.427 Q851.447 288.427 849.086 286.205 Q846.748 283.959 846.748 280.209 Q846.748 275.834 849.664 273.612 Q852.604 271.39 858.414 271.39 L864.387 271.39 L864.387 270.973 Q864.387 268.034 862.442 266.436 Q860.521 264.816 857.026 264.816 Q854.803 264.816 852.697 265.348 Q850.59 265.881 848.646 266.946 L848.646 263.01 Q850.984 262.108 853.183 261.668 Q855.382 261.205 857.465 261.205 Q863.09 261.205 865.868 264.122 Q868.646 267.038 868.646 272.964 Z" fill="#000000" fill-rule="nonzero" fill-opacity="1"></path><path clip-path="url(#clip480)" d="M881.632 254.469 L881.632 261.83 L890.405 261.83 L890.405 265.14 L881.632 265.14 L881.632 279.214 Q881.632 282.385 882.488 283.288 Q883.368 284.191 886.03 284.191 L890.405 284.191 L890.405 287.756 L886.03 287.756 Q881.099 287.756 879.225 285.927 Q877.35 284.075 877.35 279.214 L877.35 265.14 L874.225 265.14 L874.225 261.83 L877.35 261.83 L877.35 254.469 L881.632 254.469 Z" fill="#000000" fill-rule="nonzero" fill-opacity="1"></path><path clip-path="url(#clip480)" d="M896.007 261.83 L900.266 261.83 L900.266 287.756 L896.007 287.756 L896.007 261.83 M896.007 251.737 L900.266 251.737 L900.266 257.131 L896.007 257.131 L896.007 251.737 Z" fill="#000000" fill-rule="nonzero" fill-opacity="1"></path><path clip-path="url(#clip480)" d="M919.224 264.816 Q915.798 264.816 913.808 267.501 Q911.817 270.163 911.817 274.816 Q911.817 279.469 913.785 282.154 Q915.775 284.816 919.224 284.816 Q922.627 284.816 924.618 282.131 Q926.609 279.446 926.609 274.816 Q926.609 270.21 924.618 267.524 Q922.627 264.816 919.224 264.816 M919.224 261.205 Q924.78 261.205 927.951 264.816 Q931.122 268.427 931.122 274.816 Q931.122 281.182 927.951 284.816 Q924.78 288.427 919.224 288.427 Q913.646 288.427 910.474 284.816 Q907.326 281.182 907.326 274.816 Q907.326 268.427 910.474 264.816 Q913.646 261.205 919.224 261.205 Z" fill="#000000" fill-rule="nonzero" fill-opacity="1"></path><path clip-path="url(#clip480)" d="M959.733 272.108 L959.733 287.756 L955.474 287.756 L955.474 272.247 Q955.474 268.566 954.039 266.737 Q952.604 264.909 949.733 264.909 Q946.284 264.909 944.294 267.108 Q942.303 269.307 942.303 273.103 L942.303 287.756 L938.02 287.756 L938.02 261.83 L942.303 261.83 L942.303 265.858 Q943.831 263.52 945.891 262.362 Q947.974 261.205 950.682 261.205 Q955.15 261.205 957.442 263.983 Q959.733 266.737 959.733 272.108 Z" fill="#000000" fill-rule="nonzero" fill-opacity="1"></path></svg>